<svg width="35" height="35" viewBox="0 0 35 35" fill="none" xmlns="http://www.w3.org/2000/svg">
<path d="M17.5143 33.4858C26.485 33.4858 33.7572 26.2136 33.7572 17.2429C33.7572 8.27219 26.485 1 17.5143 1C8.54359 1 1.2714 8.27219 1.2714 17.2429C1.2714 26.2136 8.54359 33.4858 17.5143 33.4858Z" stroke="white" stroke-width="2"/>
<path d="M28.2324 17.5C28.2324 23.2977 23.5159 28 17.6949 28C11.8739 28 7.15733 23.2977 7.15733 17.5C7.15733 11.7023 11.8739 7 17.6949 7C23.5159 7 28.2324 11.7023 28.2324 17.5Z" stroke="white"/>
<path d="M15.517 11.2748C15.9617 11.2748 16.3222 10.9135 16.3222 10.4679C16.3222 10.0224 15.9617 9.66115 15.517 9.66115C15.0723 9.66115 14.7118 10.0224 14.7118 10.4679C14.7118 10.9135 15.0723 11.2748 15.517 11.2748Z" fill="white"/>
<path d="M15.4675 9.727C15.604 9.727 15.7374 9.76756 15.8509 9.84353C15.9644 9.91951 16.0528 10.0275 16.1051 10.1538C16.1573 10.2802 16.171 10.4192 16.1444 10.5533C16.1177 10.6875 16.052 10.8107 15.9555 10.9074C15.859 11.0041 15.736 11.0699 15.6022 11.0966C15.4683 11.1233 15.3296 11.1096 15.2034 11.0572C15.0773 11.0049 14.9696 10.9163 14.8937 10.8026C14.8179 10.6889 14.7774 10.5552 14.7774 10.4184C14.7774 10.3276 14.7953 10.2377 14.83 10.1538C14.8646 10.07 14.9155 9.99373 14.9795 9.92952C15.0436 9.86532 15.1197 9.81439 15.2034 9.77964C15.2872 9.74489 15.3769 9.727 15.4675 9.727ZM15.4675 9.61165C15.3083 9.61165 15.1526 9.65897 15.0202 9.74762C14.8877 9.83627 14.7846 9.96228 14.7236 10.1097C14.6627 10.2571 14.6467 10.4193 14.6778 10.5758C14.7089 10.7324 14.7855 10.8761 14.8982 10.989C15.0108 11.1018 15.1542 11.1786 15.3104 11.2098C15.4666 11.2409 15.6285 11.2249 15.7757 11.1638C15.9228 11.1028 16.0485 10.9994 16.137 10.8667C16.2255 10.734 16.2727 10.578 16.2727 10.4184C16.2727 10.2045 16.1879 9.99926 16.0369 9.84795C15.8859 9.69665 15.6811 9.61165 15.4675 9.61165Z" fill="white"/>
<path d="M21.1747 10.0448C21.6193 10.0448 21.9798 9.68363 21.9798 9.23805C21.9798 8.79246 21.6193 8.43124 21.1747 8.43124C20.7299 8.43124 20.3694 8.79246 20.3694 9.23805C20.3694 9.68363 20.7299 10.0448 21.1747 10.0448Z" fill="white"/>
<path d="M24.6493 13.1546C25.094 13.1546 25.4545 12.7934 25.4545 12.3478C25.4545 11.9022 25.094 11.541 24.6493 11.541C24.2046 11.541 23.8441 11.9022 23.8441 12.3478C23.8441 12.7934 24.2046 13.1546 24.6493 13.1546Z" fill="white"/>
<path d="M24.5998 11.6068C24.7363 11.6068 24.8697 11.6474 24.9832 11.7233C25.0967 11.7993 25.1851 11.9073 25.2374 12.0337C25.2896 12.16 25.3033 12.2991 25.2766 12.4332C25.25 12.5673 25.1843 12.6905 25.0878 12.7872C24.9913 12.8839 24.8683 12.9497 24.7344 12.9764C24.6006 13.0031 24.4618 12.9894 24.3357 12.9371C24.2096 12.8847 24.1019 12.7961 24.026 12.6824C23.9502 12.5687 23.9097 12.435 23.9097 12.2983C23.9097 12.1149 23.9824 11.939 24.1119 11.8093C24.2413 11.6797 24.4168 11.6068 24.5998 11.6068ZM24.5998 11.4915C24.4406 11.4915 24.2849 11.5388 24.1525 11.6274C24.02 11.7161 23.9169 11.8421 23.8559 11.9895C23.795 12.1369 23.779 12.2992 23.8101 12.4557C23.8411 12.6122 23.9178 12.7559 24.0305 12.8688C24.143 12.9816 24.2865 13.0584 24.4427 13.0896C24.5989 13.1207 24.7608 13.1047 24.908 13.0437C25.0551 12.9826 25.1808 12.8792 25.2693 12.7465C25.3578 12.6138 25.405 12.4578 25.405 12.2983C25.405 12.0843 25.3202 11.8791 25.1692 11.7278C25.0182 11.5765 24.8134 11.4915 24.5998 11.4915Z" fill="white"/>
<path d="M16.5096 17.5067C16.9544 17.5067 17.3148 17.1455 17.3148 16.6999C17.3148 16.2543 16.9544 15.8931 16.5096 15.8931C16.065 15.8931 15.7045 16.2543 15.7045 16.6999C15.7045 17.1455 16.065 17.5067 16.5096 17.5067Z" fill="white"/>
<path d="M16.4598 15.9595C16.5963 15.9595 16.7297 16.0001 16.8432 16.076C16.9566 16.152 17.0451 16.26 17.0973 16.3864C17.1496 16.5127 17.1632 16.6517 17.1366 16.7859C17.11 16.92 17.0443 17.0432 16.9477 17.1399C16.8512 17.2366 16.7283 17.3024 16.5944 17.3291C16.4605 17.3558 16.3218 17.3421 16.1957 17.2898C16.0696 17.2374 15.9618 17.1488 15.886 17.0351C15.8102 16.9214 15.7697 16.7877 15.7697 16.651C15.7697 16.4676 15.8424 16.2917 15.9718 16.162C16.1012 16.0324 16.2768 15.9595 16.4598 15.9595ZM16.4598 15.8442C16.3005 15.8442 16.1448 15.8915 16.0124 15.9801C15.88 16.0688 15.7768 16.1948 15.7159 16.3422C15.6549 16.4896 15.639 16.6519 15.67 16.8083C15.7011 16.9649 15.7778 17.1086 15.8904 17.2215C16.003 17.3343 16.1465 17.4111 16.3027 17.4423C16.4589 17.4734 16.6208 17.4574 16.7679 17.3963C16.9151 17.3353 17.0408 17.2319 17.1293 17.0992C17.2178 16.9665 17.265 16.8105 17.265 16.651C17.265 16.437 17.1802 16.2318 17.0291 16.0805C16.8781 15.9292 16.6733 15.8442 16.4598 15.8442Z" fill="white"/>
<path d="M11.5462 16.4618C11.9909 16.4618 12.3514 16.1006 12.3514 15.655C12.3514 15.2094 11.9909 14.8482 11.5462 14.8482C11.1015 14.8482 10.741 15.2094 10.741 15.655C10.741 16.1006 11.1015 16.4618 11.5462 16.4618Z" fill="white"/>
<path d="M13.6528 19.4422C14.0975 19.4422 14.458 19.081 14.458 18.6354C14.458 18.1899 14.0975 17.8287 13.6528 17.8287C13.2081 17.8287 12.8476 18.1899 12.8476 18.6354C12.8476 19.081 13.2081 19.4422 13.6528 19.4422Z" fill="white"/>
<path d="M25.0461 20.6728C25.4908 20.6728 25.8513 20.3116 25.8513 19.8659C25.8513 19.4204 25.4908 19.0592 25.0461 19.0592C24.6014 19.0592 24.2409 19.4204 24.2409 19.8659C24.2409 20.3116 24.6014 20.6728 25.0461 20.6728Z" fill="white"/>
<path d="M15.44 25.7732C15.8847 25.7732 16.2452 25.412 16.2452 24.9664C16.2452 24.5208 15.8847 24.1596 15.44 24.1596C14.9953 24.1596 14.6348 24.5208 14.6348 24.9664C14.6348 25.412 14.9953 25.7732 15.44 25.7732Z" fill="white"/>
<path d="M21.3369 23.6135C21.7816 23.6135 22.1421 23.2522 22.1421 22.8066C22.1421 22.3611 21.7816 21.9998 21.3369 21.9998C20.8922 21.9998 20.5317 22.3611 20.5317 22.8066C20.5317 23.2522 20.8922 23.6135 21.3369 23.6135Z" fill="white"/>
<path d="M11.9729 15.4418C8.69713 15.4418 3.03762 23.8501 11.2282 26.3111" stroke="white" stroke-miterlimit="10"/>
<path d="M26.7679 23.1382C29.176 27.3068 23.8509 28.2997 21.0354 23.0917C12.2577 24.4713 2.80371 11.1319 10.5132 9.41322" stroke="white" stroke-miterlimit="10"/>
<path d="M15.4062 10.2548C15.4062 10.2548 24.3379 10.3538 24.9353 19.6521" stroke="white" stroke-miterlimit="10"/>
<path d="M16.3988 16.4873C16.3988 16.4873 21.959 15.7946 24.5386 12.1346" stroke="white" stroke-miterlimit="10"/>
<path d="M21.0646 9.56212C20.3695 9.1772 24.4953 4.96422 24.4764 9.20491" stroke="white" stroke-miterlimit="10"/>
<path d="M13.5429 18.4223C13.5429 18.4223 13.0466 22.874 15.3298 24.7532" stroke="white" stroke-miterlimit="10"/>
</svg>
