<svg width="39" height="39" viewBox="0 0 39 39" fill="none" xmlns="http://www.w3.org/2000/svg">
<g clip-path="url(#clip0)">
<path d="M19.5728 0.839C23.0735 0.839 26.4956 1.87709 29.4064 3.82199C32.3171 5.76689 34.5858 8.53125 35.9254 11.7655C37.2651 14.9998 37.6156 18.5586 36.9327 21.9921C36.2497 25.4256 34.5639 28.5794 32.0886 31.0548C29.6132 33.5302 26.4593 35.2159 23.0259 35.8989C19.5924 36.5819 16.0335 36.2313 12.7993 34.8917C9.56502 33.552 6.80066 31.2833 4.85576 28.3726C2.91086 25.4618 1.87277 22.0397 1.87277 18.539C1.87277 13.8447 3.73759 9.3426 7.05698 6.02321C10.3764 2.70382 14.8784 0.839 19.5728 0.839ZM19.5728 2.69668e-08C15.9054 0.000197806 12.3204 1.08789 9.2711 3.12555C6.22185 5.1632 3.84531 8.05929 2.44198 11.4476C1.03866 14.8359 0.671592 18.5642 1.38719 22.1612C2.10279 25.7581 3.86892 29.062 6.46224 31.6552C9.05557 34.2484 12.3596 36.0144 15.9566 36.7298C19.5535 37.4452 23.2819 37.0779 26.6701 35.6744C30.0583 34.2709 32.9543 31.8942 34.9918 28.8448C37.0293 25.7955 38.1168 22.2104 38.1168 18.543C38.1168 16.1078 37.6371 13.6965 36.7052 11.4467C35.7732 9.19687 34.4073 7.15266 32.6853 5.43077C30.9633 3.70888 28.919 2.34303 26.6692 1.41121C24.4193 0.479401 22.008 -0.000131299 19.5728 2.69668e-08V2.69668e-08Z" fill="#061F71"/>
<path d="M15.548 7.384C16.1506 7.384 16.639 6.89554 16.639 6.293C16.639 5.69045 16.1506 5.202 15.548 5.202C14.9455 5.202 14.457 5.69045 14.457 6.293C14.457 6.89554 14.9455 7.384 15.548 7.384Z" fill="#061F71"/>
<path d="M15.548 5.286C15.7472 5.286 15.9419 5.34506 16.1075 5.45571C16.2731 5.56636 16.4022 5.72363 16.4784 5.90763C16.5546 6.09164 16.5745 6.29411 16.5357 6.48945C16.4968 6.68479 16.4009 6.86422 16.2601 7.00505C16.1193 7.14589 15.9398 7.24179 15.7445 7.28065C15.5492 7.3195 15.3467 7.29956 15.1627 7.22334C14.9787 7.14713 14.8214 7.01806 14.7108 6.85246C14.6001 6.68685 14.541 6.49216 14.541 6.293C14.541 6.16075 14.5671 6.02981 14.6177 5.90763C14.6683 5.78546 14.7425 5.67445 14.836 5.58094C14.9295 5.48743 15.0405 5.41326 15.1627 5.36265C15.2849 5.31204 15.4158 5.286 15.548 5.286ZM15.548 5.118C15.3157 5.118 15.0885 5.18691 14.8953 5.31602C14.702 5.44513 14.5514 5.62864 14.4625 5.84334C14.3736 6.05805 14.3503 6.2943 14.3956 6.52223C14.441 6.75016 14.5529 6.95952 14.7172 7.12385C14.8815 7.28817 15.0909 7.40008 15.3188 7.44542C15.5467 7.49076 15.783 7.46749 15.9977 7.37856C16.2124 7.28962 16.3959 7.13902 16.525 6.94579C16.6541 6.75256 16.723 6.52539 16.723 6.293C16.723 5.98137 16.5992 5.6825 16.3789 5.46214C16.1585 5.24179 15.8597 5.118 15.548 5.118Z" fill="#061F71"/>
<path d="M25.113 6.21C25.7155 6.21 26.204 5.72154 26.204 5.119C26.204 4.51646 25.7155 4.028 25.113 4.028C24.5104 4.028 24.022 4.51646 24.022 5.119C24.022 5.72154 24.5104 6.21 25.113 6.21Z" fill="#061F71"/>
<path d="M25.113 4.112C25.3122 4.112 25.5068 4.17106 25.6724 4.28171C25.8381 4.39236 25.9671 4.54963 26.0433 4.73364C26.1195 4.91764 26.1395 5.12012 26.1006 5.31546C26.0618 5.5108 25.9659 5.69023 25.825 5.83106C25.6842 5.97189 25.5048 6.0678 25.3094 6.10665C25.1141 6.14551 24.9116 6.12556 24.7276 6.04935C24.5436 5.97313 24.3863 5.84406 24.2757 5.67846C24.165 5.51286 24.106 5.31817 24.106 5.119C24.106 4.85193 24.2121 4.59579 24.4009 4.40694C24.5898 4.2181 24.8459 4.112 25.113 4.112ZM25.113 3.944C24.8806 3.944 24.6534 4.01291 24.4602 4.14202C24.267 4.27113 24.1164 4.45464 24.0274 4.66935C23.9385 4.88405 23.9152 5.1203 23.9606 5.34823C24.0059 5.57616 24.1178 5.78552 24.2821 5.94985C24.4465 6.11418 24.6558 6.22609 24.8838 6.27142C25.1117 6.31676 25.3479 6.29349 25.5626 6.20456C25.7774 6.11563 25.9609 5.96502 26.09 5.7718C26.2191 5.57857 26.288 5.35139 26.288 5.119C26.288 4.9647 26.2576 4.81191 26.1985 4.66935C26.1395 4.52679 26.053 4.39726 25.9438 4.28815C25.8347 4.17904 25.7052 4.09249 25.5626 4.03344C25.4201 3.97439 25.2673 3.944 25.113 3.944Z" fill="#061F71"/>
<path d="M30.987 10.573C31.5895 10.573 32.078 10.0845 32.078 9.48201C32.078 8.87946 31.5895 8.39101 30.987 8.39101C30.3845 8.39101 29.896 8.87946 29.896 9.48201C29.896 10.0845 30.3845 10.573 30.987 10.573Z" fill="#061F71"/>
<path d="M30.987 8.47501C31.1862 8.47501 31.3809 8.53407 31.5465 8.64472C31.7121 8.75537 31.8411 8.91264 31.9174 9.09665C31.9936 9.28065 32.0135 9.48312 31.9747 9.67846C31.9358 9.8738 31.8399 10.0532 31.6991 10.1941C31.5582 10.3349 31.3788 10.4308 31.1835 10.4697C30.9881 10.5085 30.7857 10.4886 30.6016 10.4124C30.4176 10.3361 30.2604 10.2071 30.1497 10.0415C30.0391 9.87587 29.98 9.68117 29.98 9.48201C29.98 9.21493 30.0861 8.9588 30.275 8.76995C30.4638 8.5811 30.7199 8.47501 30.987 8.47501ZM30.987 8.30701C30.7546 8.30701 30.5274 8.37592 30.3342 8.50503C30.141 8.63414 29.9904 8.81765 29.9015 9.03235C29.8125 9.24706 29.7893 9.48331 29.8346 9.71124C29.8799 9.93917 29.9918 10.1485 30.1562 10.3129C30.3205 10.4772 30.5298 10.5891 30.7578 10.6344C30.9857 10.6798 31.222 10.6565 31.4367 10.5676C31.6514 10.4786 31.8349 10.328 31.964 10.1348C32.0931 9.94157 32.162 9.7144 32.162 9.48201C32.162 9.17038 32.0382 8.87151 31.8179 8.65116C31.5975 8.4308 31.2986 8.30701 30.987 8.30701Z" fill="#061F71"/>
<path d="M17.2258 17.956C17.8283 17.956 18.3168 17.4675 18.3168 16.865C18.3168 16.2625 17.8283 15.774 17.2258 15.774C16.6232 15.774 16.1348 16.2625 16.1348 16.865C16.1348 17.4675 16.6232 17.956 17.2258 17.956Z" fill="#061F71"/>
<path d="M17.2258 15.859C17.4249 15.859 17.6196 15.9181 17.7852 16.0287C17.9508 16.1394 18.0799 16.2966 18.1561 16.4806C18.2323 16.6646 18.2523 16.8671 18.2134 17.0624C18.1746 17.2578 18.0787 17.4372 17.9378 17.578C17.797 17.7189 17.6176 17.8148 17.4222 17.8536C17.2269 17.8925 17.0244 17.8726 16.8404 17.7963C16.6564 17.7201 16.4991 17.5911 16.3885 17.4255C16.2778 17.2599 16.2188 17.0652 16.2188 16.866C16.2188 16.5989 16.3249 16.3428 16.5137 16.1539C16.7026 15.9651 16.9587 15.859 17.2258 15.859ZM17.2258 15.691C16.9934 15.691 16.7662 15.7599 16.573 15.889C16.3798 16.0181 16.2292 16.2016 16.1402 16.4163C16.0513 16.631 16.028 16.8673 16.0734 17.0952C16.1187 17.3232 16.2306 17.5325 16.3949 17.6968C16.5593 17.8612 16.7686 17.9731 16.9965 18.0184C17.2245 18.0638 17.4607 18.0405 17.6754 17.9516C17.8901 17.8626 18.0736 17.712 18.2028 17.5188C18.3319 17.3256 18.4008 17.0984 18.4008 16.866C18.4008 16.5544 18.277 16.2555 18.0566 16.0351C17.8363 15.8148 17.5374 15.691 17.2258 15.691Z" fill="#061F71"/>
<path d="M8.83465 15.271C9.43719 15.271 9.92565 14.7825 9.92565 14.18C9.92565 13.5775 9.43719 13.089 8.83465 13.089C8.23211 13.089 7.74365 13.5775 7.74365 14.18C7.74365 14.7825 8.23211 15.271 8.83465 15.271Z" fill="#061F71"/>
<path d="M8.83467 13.174C9.03383 13.174 9.22853 13.2331 9.39413 13.3437C9.55973 13.4544 9.6888 13.6116 9.76502 13.7956C9.84123 13.9796 9.86118 14.1821 9.82232 14.3774C9.78347 14.5728 9.68756 14.7522 9.54673 14.8931C9.4059 15.0339 9.22646 15.1298 9.03113 15.1686C8.83579 15.2075 8.63331 15.1876 8.44931 15.1113C8.2653 15.0351 8.10803 14.9061 7.99738 14.7405C7.88673 14.5749 7.82767 14.3802 7.82767 14.181C7.82767 13.9139 7.93376 13.6578 8.12261 13.4689C8.31146 13.2801 8.5676 13.174 8.83467 13.174ZM8.83467 13.006C8.60228 13.006 8.3751 13.0749 8.18187 13.204C7.98865 13.3331 7.83805 13.5166 7.74911 13.7313C7.66018 13.946 7.63691 14.1823 7.68224 14.4102C7.72758 14.6382 7.83949 14.8475 8.00382 15.0118C8.16815 15.1762 8.37751 15.2881 8.60544 15.3334C8.83337 15.3788 9.06962 15.3555 9.28432 15.2666C9.49903 15.1776 9.68254 15.027 9.81165 14.8338C9.94076 14.6406 10.0097 14.4134 10.0097 14.181C10.0097 13.8694 9.88588 13.5705 9.66552 13.3501C9.44517 13.1298 9.1463 13.006 8.83467 13.006Z" fill="#061F71"/>
<path d="M9.67401 22.152C10.2766 22.152 10.765 21.6635 10.765 21.061C10.765 20.4585 10.2766 19.97 9.67401 19.97C9.07147 19.97 8.58301 20.4585 8.58301 21.061C8.58301 21.6635 9.07147 22.152 9.67401 22.152Z" fill="#061F71"/>
<path d="M9.67402 20.054C9.87319 20.054 10.0679 20.1131 10.2335 20.2237C10.3991 20.3344 10.5282 20.4916 10.6044 20.6756C10.6806 20.8596 10.7005 21.0621 10.6617 21.2575C10.6228 21.4528 10.5269 21.6322 10.3861 21.7731C10.2453 21.9139 10.0658 22.0098 9.87048 22.0487C9.67514 22.0875 9.47267 22.0676 9.28866 21.9913C9.10466 21.9151 8.94739 21.7861 8.83674 21.6205C8.72609 21.4549 8.66702 21.2602 8.66702 21.061C8.66702 20.7939 8.77312 20.5378 8.96197 20.3489C9.15082 20.1601 9.40695 20.054 9.67402 20.054ZM9.67402 19.886C9.44163 19.886 9.21446 19.9549 9.02123 20.084C8.828 20.2131 8.6774 20.3966 8.58847 20.6114C8.49954 20.8261 8.47626 21.0623 8.5216 21.2902C8.56694 21.5182 8.67885 21.7275 8.84318 21.8919C9.0075 22.0562 9.21687 22.1681 9.4448 22.2134C9.67272 22.2588 9.90897 22.2355 10.1237 22.1466C10.3384 22.0576 10.5219 21.907 10.651 21.7138C10.7801 21.5206 10.849 21.2934 10.849 21.061C10.849 20.7494 10.7252 20.4505 10.5049 20.2301C10.2845 20.0098 9.98565 19.886 9.67402 19.886Z" fill="#061F71"/>
<path d="M31.6579 23.327C32.2604 23.327 32.7489 22.8385 32.7489 22.236C32.7489 21.6335 32.2604 21.145 31.6579 21.145C31.0554 21.145 30.5669 21.6335 30.5669 22.236C30.5669 22.8385 31.0554 23.327 31.6579 23.327Z" fill="#061F71"/>
<path d="M31.6579 21.229C31.8571 21.229 32.0518 21.2881 32.2174 21.3987C32.383 21.5094 32.512 21.6666 32.5883 21.8506C32.6645 22.0346 32.6844 22.2371 32.6456 22.4325C32.6067 22.6278 32.5108 22.8072 32.37 22.9481C32.2291 23.0889 32.0497 23.1848 31.8544 23.2237C31.659 23.2625 31.4566 23.2426 31.2725 23.1664C31.0885 23.0901 30.9313 22.9611 30.8206 22.7955C30.71 22.6299 30.6509 22.4352 30.6509 22.236C30.6509 21.9689 30.757 21.7128 30.9459 21.5239C31.1347 21.3351 31.3908 21.229 31.6579 21.229ZM31.6579 21.061C31.4255 21.061 31.1983 21.1299 31.0051 21.259C30.8119 21.3881 30.6613 21.5717 30.5724 21.7864C30.4834 22.0011 30.4602 22.2373 30.5055 22.4652C30.5508 22.6932 30.6627 22.9025 30.8271 23.0669C30.9914 23.2312 31.2007 23.3431 31.4287 23.3884C31.6566 23.4338 31.8929 23.4105 32.1076 23.3216C32.3223 23.2326 32.5058 23.082 32.6349 22.8888C32.764 22.6956 32.8329 22.4684 32.8329 22.236C32.8329 21.9244 32.7091 21.6255 32.4888 21.4052C32.2684 21.1848 31.9695 21.061 31.6579 21.061Z" fill="#061F71"/>
<path d="M12.695 32.892C13.2975 32.892 13.786 32.4035 13.786 31.801C13.786 31.1984 13.2975 30.71 12.695 30.71C12.0925 30.71 11.604 31.1984 11.604 31.801C11.604 32.4035 12.0925 32.892 12.695 32.892Z" fill="#061F71"/>
<path d="M12.695 30.794C12.8942 30.794 13.0889 30.8531 13.2545 30.9637C13.4201 31.0744 13.5491 31.2316 13.6254 31.4156C13.7016 31.5997 13.7215 31.8021 13.6827 31.9975C13.6438 32.1928 13.5479 32.3722 13.4071 32.5131C13.2662 32.6539 13.0868 32.7498 12.8915 32.7887C12.6961 32.8275 12.4937 32.8076 12.3097 32.7314C12.1257 32.6551 11.9684 32.5261 11.8577 32.3605C11.7471 32.1949 11.688 32.0002 11.688 31.801C11.688 31.6688 11.7141 31.5378 11.7647 31.4156C11.8153 31.2935 11.8894 31.1825 11.983 31.0889C12.0765 30.9954 12.1875 30.9213 12.3097 30.8707C12.4318 30.8201 12.5628 30.794 12.695 30.794ZM12.695 30.626C12.4626 30.626 12.2355 30.6949 12.0422 30.824C11.849 30.9531 11.6984 31.1366 11.6095 31.3513C11.5205 31.5661 11.4973 31.8023 11.5426 32.0302C11.5879 32.2582 11.6998 32.4675 11.8642 32.6319C12.0285 32.7962 12.2379 32.9081 12.4658 32.9534C12.6937 32.9988 12.93 32.9755 13.1447 32.8866C13.3594 32.7976 13.5429 32.647 13.672 32.4538C13.8011 32.2606 13.87 32.0334 13.87 31.801C13.87 31.4894 13.7462 31.1905 13.5259 30.9702C13.3055 30.7498 13.0066 30.626 12.695 30.626Z" fill="#061F71"/>
<path d="M21.757 32.053C22.3596 32.053 22.848 31.5645 22.848 30.962C22.848 30.3595 22.3596 29.871 21.757 29.871C21.1545 29.871 20.666 30.3595 20.666 30.962C20.666 31.5645 21.1545 32.053 21.757 32.053Z" fill="#061F71"/>
<path d="M21.757 29.955C21.9562 29.955 22.1509 30.0141 22.3165 30.1247C22.4821 30.2354 22.6112 30.3926 22.6874 30.5766C22.7636 30.7607 22.7835 30.9631 22.7447 31.1585C22.7058 31.3538 22.6099 31.5332 22.4691 31.6741C22.3283 31.8149 22.1488 31.9108 21.9535 31.9496C21.7581 31.9885 21.5557 31.9686 21.3717 31.8923C21.1877 31.8161 21.0304 31.6871 20.9197 31.5215C20.8091 31.3559 20.75 31.1612 20.75 30.962C20.75 30.8298 20.7761 30.6988 20.8267 30.5766C20.8773 30.4545 20.9515 30.3434 21.045 30.2499C21.1385 30.1564 21.2495 30.0823 21.3717 30.0317C21.4938 29.9811 21.6248 29.955 21.757 29.955ZM21.757 29.787C21.5246 29.787 21.2975 29.8559 21.1042 29.985C20.911 30.1141 20.7604 30.2976 20.6715 30.5123C20.5825 30.727 20.5593 30.9633 20.6046 31.1912C20.6499 31.4192 20.7619 31.6285 20.9262 31.7928C21.0905 31.9572 21.2999 32.0691 21.5278 32.1144C21.7557 32.1598 21.992 32.1365 22.2067 32.0476C22.4214 31.9586 22.6049 31.808 22.734 31.6148C22.8631 31.4216 22.932 31.1944 22.932 30.962C22.932 30.6504 22.8082 30.3515 22.5879 30.1311C22.3675 29.9108 22.0687 29.787 21.757 29.787Z" fill="#061F71"/>
<path d="M8.9189 14.096C3.3809 14.096 -6.1871 28.36 7.6599 32.535" stroke="#061F71" stroke-miterlimit="10"/>
<path d="M31.7418 32.053C35.0978 39.605 25.7008 40.276 21.8418 30.878C6.40184 31.547 -7.35916 7.047 6.29984 5.597" stroke="#061F71" stroke-miterlimit="10"/>
<path d="M15.6309 6.209C15.6309 6.209 30.7309 6.377 31.7409 22.151" stroke="#061F71" stroke-miterlimit="10"/>
<path d="M17.3091 16.782C17.3091 16.782 26.7091 15.607 31.0701 9.39799" stroke="#061F71" stroke-miterlimit="10"/>
<path d="M25.1969 5.034C24.0219 4.381 30.9969 -2.766 30.9649 4.428" stroke="#061F71" stroke-miterlimit="10"/>
<path d="M9.75769 20.977C9.75769 20.977 8.91869 28.529 12.7787 31.717" stroke="#061F71" stroke-miterlimit="10"/>
</g>
<defs>
<clipPath id="clip0">
<rect width="38.116" height="38.323" fill="white"/>
</clipPath>
</defs>
</svg>
