<svg width="408" height="65" viewBox="0 0 408 65" fill="none" xmlns="http://www.w3.org/2000/svg">
<path d="M65 32.4999C65 49.893 50.8504 64 33.3874 64C15.9243 64 1.7747 49.893 1.7747 32.4999C1.7747 15.1069 15.9243 1 33.3874 1C50.8504 1 65 15.1069 65 32.4999Z" stroke="white" stroke-width="2"/>
<path d="M26.8537 13.8243C28.1878 13.8243 29.2693 12.7406 29.2693 11.4039C29.2693 10.0671 28.1878 8.98346 26.8537 8.98346C25.5196 8.98346 24.438 10.0671 24.438 11.4039C24.438 12.7406 25.5196 13.8243 26.8537 13.8243Z" fill="white"/>
<path d="M26.7053 9.18099C27.1148 9.18099 27.515 9.30265 27.8555 9.53058C28.1959 9.75852 28.4612 10.0825 28.618 10.4615C28.7747 10.8406 28.8157 11.2576 28.7358 11.66C28.6559 12.0624 28.4587 12.432 28.1692 12.7221C27.8797 13.0122 27.5108 13.2098 27.1092 13.2898C26.7076 13.3698 26.2914 13.3288 25.913 13.1717C25.5348 13.0148 25.2115 12.7488 24.984 12.4078C24.7565 12.0666 24.635 11.6656 24.635 11.2553C24.635 10.9829 24.6886 10.7132 24.7927 10.4615C24.8967 10.2098 25.0491 9.98117 25.2414 9.78855C25.4336 9.59593 25.6619 9.44314 25.913 9.33889C26.1642 9.23465 26.4334 9.18099 26.7053 9.18099ZM26.7053 8.83493C26.2276 8.83493 25.7605 8.97688 25.3632 9.24284C24.966 9.50879 24.6564 9.88681 24.4735 10.3291C24.2907 10.7713 24.2429 11.258 24.3362 11.7275C24.4293 12.1971 24.6593 12.6283 24.9972 12.9668C25.335 13.3053 25.7654 13.5359 26.234 13.6293C26.7026 13.7226 27.1883 13.6747 27.6297 13.4915C28.0711 13.3083 28.4484 12.9981 28.7138 12.6C28.9792 12.2019 29.121 11.734 29.121 11.2553C29.121 10.6134 28.8664 9.99776 28.4133 9.54384C27.9604 9.08993 27.3459 8.83493 26.7053 8.83493Z" fill="white"/>
<path d="M43.8267 10.1345C45.1607 10.1345 46.2423 9.05089 46.2423 7.71414C46.2423 6.37738 45.1607 5.29373 43.8267 5.29373C42.4925 5.29373 41.411 6.37738 41.411 7.71414C41.411 9.05089 42.4925 10.1345 43.8267 10.1345Z" fill="white"/>
<path d="M54.2506 19.4637C55.5848 19.4637 56.6662 18.3801 56.6662 17.0434C56.6662 15.7066 55.5848 14.623 54.2506 14.623C52.9165 14.623 51.835 15.7066 51.835 17.0434C51.835 18.3801 52.9165 19.4637 54.2506 19.4637Z" fill="white"/>
<path d="M54.1021 14.8204C54.5116 14.8204 54.9119 14.9422 55.2524 15.17C55.5928 15.398 55.8581 15.722 56.0148 16.101C56.1716 16.48 56.2125 16.8971 56.1327 17.2995C56.0528 17.7018 55.8556 18.0714 55.5661 18.3615C55.2766 18.6517 54.9077 18.8492 54.5061 18.9292C54.1045 19.0094 53.6883 18.9683 53.3099 18.8113C52.9316 18.6542 52.6083 18.3884 52.3808 18.0472C52.1533 17.7061 52.0319 17.3051 52.0319 16.8948C52.0319 16.3447 52.25 15.8171 52.6384 15.428C53.0266 15.0391 53.5532 14.8204 54.1021 14.8204ZM54.1021 14.4744C53.6244 14.4744 53.1574 14.6163 52.7601 14.8823C52.3628 15.1482 52.0533 15.5263 51.8704 15.9686C51.6877 16.4108 51.6398 16.8975 51.733 17.367C51.8262 17.8365 52.0562 18.2678 52.3941 18.6063C52.7319 18.9448 53.1623 19.1753 53.6309 19.2687C54.0995 19.3621 54.5852 19.3142 55.0266 19.1309C55.4681 18.9477 55.8452 18.6375 56.1106 18.2395C56.3761 17.8415 56.5178 17.3735 56.5178 16.8948C56.5178 16.2529 56.2634 15.6373 55.8103 15.1833C55.3573 14.7294 54.7428 14.4744 54.1021 14.4744Z" fill="white"/>
<path d="M29.8316 32.5201C31.1658 32.5201 32.2472 31.4364 32.2472 30.0997C32.2472 28.763 31.1658 27.6793 29.8316 27.6793C28.4976 27.6793 27.4161 28.763 27.4161 30.0997C27.4161 31.4364 28.4976 32.5201 29.8316 32.5201Z" fill="white"/>
<path d="M29.6821 27.8785C30.0915 27.8785 30.4917 28.0002 30.8322 28.2281C31.1726 28.4561 31.4381 28.7801 31.5947 29.1591C31.7514 29.5381 31.7924 29.9552 31.7125 30.3576C31.6326 30.76 31.4355 31.1295 31.1459 31.4196C30.8564 31.7097 30.4875 31.9073 30.0859 31.9874C29.6843 32.0675 29.2681 32.0264 28.8898 31.8694C28.5115 31.7123 28.1882 31.4465 27.9607 31.1053C27.7332 30.7643 27.6118 30.3632 27.6118 29.9529C27.6118 29.4028 27.83 28.8752 28.2182 28.4861C28.6064 28.0971 29.133 27.8785 29.6821 27.8785ZM29.6821 27.5325C29.2043 27.5325 28.7372 27.6745 28.34 27.9404C27.9428 28.2063 27.6331 28.5843 27.4504 29.0267C27.2675 29.4689 27.2196 29.9556 27.3129 30.4251C27.4061 30.8946 27.6362 31.3259 27.9739 31.6644C28.3118 32.0029 28.7422 32.2334 29.2108 32.3268C29.6794 32.4202 30.165 32.3723 30.6065 32.189C31.0479 32.0059 31.4252 31.6956 31.6906 31.2976C31.956 30.8996 32.0977 30.4316 32.0977 29.9529C32.0977 29.311 31.8432 28.6954 31.3902 28.2415C30.9371 27.7875 30.3227 27.5325 29.6821 27.5325Z" fill="white"/>
<path d="M14.9414 29.3855C16.2755 29.3855 17.3571 28.3018 17.3571 26.9651C17.3571 25.6283 16.2755 24.5446 14.9414 24.5446C13.6073 24.5446 12.5258 25.6283 12.5258 26.9651C12.5258 28.3018 13.6073 29.3855 14.9414 29.3855Z" fill="white"/>
<path d="M21.2612 38.3268C22.5953 38.3268 23.6768 37.2432 23.6768 35.9063C23.6768 34.5696 22.5953 33.486 21.2612 33.486C19.9271 33.486 18.8455 34.5696 18.8455 35.9063C18.8455 37.2432 19.9271 38.3268 21.2612 38.3268Z" fill="white"/>
<path d="M55.4409 42.0183C56.7751 42.0183 57.8565 40.9347 57.8565 39.5978C57.8565 38.2611 56.7751 37.1775 55.4409 37.1775C54.1069 37.1775 53.0254 38.2611 53.0254 39.5978C53.0254 40.9347 54.1069 42.0183 55.4409 42.0183Z" fill="white"/>
<path d="M26.6227 57.3196C27.9569 57.3196 29.0384 56.2359 29.0384 54.8992C29.0384 53.5625 27.9569 52.4789 26.6227 52.4789C25.2887 52.4789 24.2072 53.5625 24.2072 54.8992C24.2072 56.2359 25.2887 57.3196 26.6227 57.3196Z" fill="white"/>
<path d="M44.3135 50.8404C45.6476 50.8404 46.7291 49.7567 46.7291 48.42C46.7291 47.0832 45.6476 45.9995 44.3135 45.9995C42.9793 45.9995 41.8978 47.0832 41.8978 48.42C41.8978 49.7567 42.9793 50.8404 44.3135 50.8404Z" fill="white"/>
<path d="M16.2213 26.3254C6.39411 26.3254 -10.5844 51.5502 13.9873 58.9335" stroke="white" stroke-width="2" stroke-miterlimit="10"/>
<path d="M60.6065 49.4145C67.8307 61.9205 51.8553 64.899 43.4091 49.2749C17.0757 53.4139 -11.2861 13.3957 11.8424 8.23966" stroke="white" stroke-width="2" stroke-miterlimit="10"/>
<path d="M26.5213 10.7643C26.5213 10.7643 53.3166 11.0614 55.1088 38.9565" stroke="white" stroke-width="2" stroke-miterlimit="10"/>
<path d="M29.4992 29.4618C29.4992 29.4618 46.1798 27.3839 53.9184 16.4037" stroke="white" stroke-width="2" stroke-miterlimit="10"/>
<path d="M43.4965 8.68637C41.4114 7.5316 53.7887 -5.10733 53.7319 7.61472" stroke="white" stroke-width="2" stroke-miterlimit="10"/>
<path d="M20.9314 35.2668C20.9314 35.2668 19.4425 48.6219 26.2921 54.2597" stroke="white" stroke-width="2" stroke-miterlimit="10"/>
<path d="M95.189 14.27C92.9399 14.27 91.1854 15.1951 89.9253 17.0454C88.6652 18.8797 88.0352 21.4159 88.0352 24.6538C88.0352 31.3849 90.5952 34.7505 95.7153 34.7505C97.2625 34.7505 98.7619 34.5352 100.213 34.1045C101.665 33.6738 103.124 33.1554 104.592 32.5493V40.5405C101.673 41.8325 98.3711 42.4785 94.6865 42.4785C89.4069 42.4785 85.3555 40.9473 82.5322 37.8848C79.7249 34.8223 78.3213 30.396 78.3213 24.606C78.3213 20.9852 78.9992 17.8031 80.355 15.0596C81.7267 12.3161 83.6886 10.2106 86.2407 8.74316C88.8088 7.25977 91.8234 6.51807 95.2847 6.51807C99.0649 6.51807 102.678 7.33952 106.123 8.98242L103.228 16.4233C101.936 15.8172 100.644 15.3068 99.3521 14.8921C98.0601 14.4774 96.6724 14.27 95.189 14.27ZM120.287 42H110.932V14.8921H120.287V42ZM110.693 8.14502C110.693 6.74137 111.084 5.69661 111.865 5.01074C112.647 4.32487 113.907 3.98193 115.646 3.98193C117.384 3.98193 118.652 4.33285 119.45 5.03467C120.247 5.73649 120.646 6.77327 120.646 8.14502C120.646 10.8885 118.979 12.2603 115.646 12.2603C112.344 12.2603 110.693 10.8885 110.693 8.14502ZM133.925 42L123.589 14.8921H133.351L137.944 30.9224C137.96 31.0021 137.992 31.1377 138.04 31.3291C138.088 31.5205 138.136 31.7518 138.184 32.0229C138.231 32.2782 138.271 32.5573 138.303 32.8604C138.351 33.1475 138.375 33.4186 138.375 33.6738H138.542C138.542 32.8444 138.686 31.9432 138.973 30.9702L143.782 14.8921H153.52L143.184 42H133.925ZM166.177 42H156.822V14.8921H166.177V42ZM156.583 8.14502C156.583 6.74137 156.973 5.69661 157.755 5.01074C158.536 4.32487 159.797 3.98193 161.535 3.98193C163.274 3.98193 164.542 4.33285 165.339 5.03467C166.137 5.73649 166.536 6.77327 166.536 8.14502C166.536 10.8885 164.869 12.2603 161.535 12.2603C158.233 12.2603 156.583 10.8885 156.583 8.14502ZM185.054 42.4785C180.62 42.4785 177.254 41.2822 174.958 38.8896C172.677 36.4971 171.536 33.0597 171.536 28.5776C171.536 24.0796 172.772 20.5944 175.245 18.1221C177.717 15.6497 181.234 14.4136 185.796 14.4136C188.938 14.4136 191.897 15.0994 194.672 16.4712L191.921 23.3857C190.788 22.8913 189.744 22.5005 188.787 22.2134C187.83 21.9103 186.833 21.7588 185.796 21.7588C184.281 21.7588 183.108 22.349 182.279 23.5293C181.449 24.7096 181.035 26.3765 181.035 28.5298C181.035 32.8683 182.638 35.0376 185.844 35.0376C188.587 35.0376 191.219 34.2401 193.739 32.645V40.0859C191.331 41.681 188.436 42.4785 185.054 42.4785ZM212.593 42H206.875V11.9253H196.586V7.02051H222.881V11.9253H212.593V42ZM239.222 42.4785C235.107 42.4785 231.885 41.2822 229.556 38.8896C227.243 36.4811 226.087 33.1714 226.087 28.9604C226.087 24.6379 227.164 21.2404 229.317 18.7681C231.47 16.2957 234.429 15.0596 238.193 15.0596C241.687 15.0596 244.446 16.1203 246.472 18.2417C248.497 20.3631 249.51 23.2821 249.51 26.9985V30.0371H231.877C231.957 32.6051 232.651 34.583 233.958 35.9707C235.266 37.3424 237.109 38.0283 239.485 38.0283C241.049 38.0283 242.5 37.8848 243.84 37.5977C245.196 37.2946 246.647 36.8001 248.194 36.1143V40.6841C246.823 41.3381 245.435 41.8006 244.031 42.0718C242.628 42.3429 241.025 42.4785 239.222 42.4785ZM238.193 19.3184C236.407 19.3184 234.971 19.8846 233.887 21.0171C232.818 22.1496 232.18 23.8005 231.973 25.9697H243.983C243.951 23.7845 243.425 22.1336 242.404 21.0171C241.383 19.8846 239.98 19.3184 238.193 19.3184ZM266.569 42.4785C262.566 42.4785 259.519 41.3141 257.43 38.9854C255.356 36.6406 254.319 33.283 254.319 28.9126C254.319 24.4624 255.404 21.041 257.573 18.6484C259.758 16.2559 262.909 15.0596 267.024 15.0596C269.815 15.0596 272.327 15.578 274.561 16.6147L272.862 21.1367C270.485 20.2116 268.523 19.749 266.976 19.749C262.398 19.749 260.109 22.7876 260.109 28.8647C260.109 31.8315 260.676 34.0646 261.808 35.564C262.957 37.0474 264.631 37.7891 266.833 37.7891C269.337 37.7891 271.705 37.167 273.938 35.9229V40.8276C272.934 41.4178 271.857 41.8405 270.708 42.0957C269.576 42.3509 268.196 42.4785 266.569 42.4785ZM303.439 42H297.792V25.7305C297.792 23.6888 297.378 22.1655 296.548 21.1606C295.735 20.1558 294.435 19.6533 292.648 19.6533C290.288 19.6533 288.549 20.3631 287.433 21.7827C286.332 23.1864 285.782 25.547 285.782 28.8647V42H280.159V4.77148H285.782V14.2222C285.782 15.7375 285.686 17.3564 285.495 19.0791H285.854C286.619 17.8031 287.68 16.8141 289.036 16.1123C290.407 15.4105 292.002 15.0596 293.821 15.0596C300.233 15.0596 303.439 18.2896 303.439 24.7495V42ZM341.002 42H331.504V27.7402H320.522V42H311.023V7.02051H320.522V19.9883H331.504V7.02051H341.002V42ZM367.345 42L366.172 38.6265H365.622C364.84 39.8706 363.748 40.8276 362.344 41.4976C360.957 42.1515 359.322 42.4785 357.439 42.4785C354.457 42.4785 352.136 41.6172 350.477 39.8945C348.818 38.1559 347.989 35.7075 347.989 32.5493V14.8921H357.344V29.7021C357.344 31.4727 357.591 32.8125 358.085 33.7217C358.596 34.6309 359.425 35.0854 360.574 35.0854C362.185 35.0854 363.333 34.4554 364.019 33.1953C364.705 31.9193 365.048 29.7739 365.048 26.7593V14.8921H374.403V42H367.345ZM397.419 14.4136C400.37 14.4136 402.707 15.6497 404.43 18.1221C406.168 20.5944 407.038 24.0158 407.038 28.3862C407.038 32.7886 406.16 36.2419 404.406 38.7461C402.667 41.2344 400.243 42.4785 397.132 42.4785C396.127 42.4785 395.234 42.3669 394.453 42.1436C393.671 41.9362 392.969 41.6411 392.347 41.2583C391.741 40.8755 391.031 40.2375 390.218 39.3442H389.644L388.16 42H380.863V4.77148H390.218V13.1934C390.218 14.1982 390.106 15.9289 389.883 18.3853H390.218C391.127 16.9816 392.172 15.9688 393.352 15.3467C394.548 14.7246 395.904 14.4136 397.419 14.4136ZM393.998 21.7588C392.69 21.7588 391.733 22.2134 391.127 23.1226C390.521 24.0317 390.218 25.4593 390.218 27.4053V28.7212C390.218 30.9383 390.521 32.5334 391.127 33.5063C391.733 34.4634 392.722 34.9419 394.094 34.9419C395.194 34.9419 396.04 34.3836 396.63 33.2671C397.22 32.1346 397.515 30.4757 397.515 28.2905C397.515 23.936 396.343 21.7588 393.998 21.7588Z" fill="white"/>
<path d="M89.9482 60H87.2236V49.418H83.7344V47.1504H93.4375V49.418H89.9482V60ZM97.3398 55.0693C97.3398 56.042 97.498 56.7773 97.8145 57.2754C98.1367 57.7734 98.6582 58.0225 99.3789 58.0225C100.094 58.0225 100.606 57.7764 100.917 57.2842C101.233 56.7861 101.392 56.0479 101.392 55.0693C101.392 54.0967 101.233 53.3672 100.917 52.8809C100.601 52.3945 100.082 52.1514 99.3613 52.1514C98.6465 52.1514 98.1309 52.3945 97.8145 52.8809C97.498 53.3613 97.3398 54.0908 97.3398 55.0693ZM104.134 55.0693C104.134 56.6689 103.712 57.9199 102.868 58.8223C102.024 59.7246 100.85 60.1758 99.3438 60.1758C98.4004 60.1758 97.5684 59.9707 96.8477 59.5605C96.127 59.1445 95.5732 58.5498 95.1865 57.7764C94.7998 57.0029 94.6064 56.1006 94.6064 55.0693C94.6064 53.4639 95.0254 52.2158 95.8633 51.3252C96.7012 50.4346 97.8789 49.9893 99.3965 49.9893C100.34 49.9893 101.172 50.1943 101.893 50.6045C102.613 51.0146 103.167 51.6035 103.554 52.3711C103.94 53.1387 104.134 54.0381 104.134 55.0693ZM114.9 50.1738V51.5361L113.362 51.9316C113.644 52.3711 113.784 52.8633 113.784 53.4082C113.784 54.4629 113.415 55.2861 112.677 55.8779C111.944 56.4639 110.925 56.7568 109.618 56.7568L109.135 56.7305L108.739 56.6865C108.464 56.8975 108.326 57.1318 108.326 57.3896C108.326 57.7764 108.818 57.9697 109.803 57.9697H111.473C112.551 57.9697 113.371 58.2012 113.934 58.6641C114.502 59.127 114.786 59.8066 114.786 60.7031C114.786 61.8516 114.306 62.7422 113.345 63.375C112.39 64.0078 111.016 64.3242 109.223 64.3242C107.852 64.3242 106.803 64.084 106.076 63.6035C105.355 63.1289 104.995 62.4609 104.995 61.5996C104.995 61.0078 105.18 60.5127 105.549 60.1143C105.918 59.7158 106.46 59.4316 107.175 59.2617C106.899 59.1445 106.659 58.9541 106.454 58.6904C106.249 58.4209 106.146 58.1367 106.146 57.8379C106.146 57.4629 106.255 57.1523 106.472 56.9062C106.688 56.6543 107.002 56.4082 107.412 56.168C106.896 55.9453 106.486 55.5879 106.182 55.0957C105.883 54.6035 105.733 54.0234 105.733 53.3555C105.733 52.2832 106.082 51.4541 106.779 50.8682C107.477 50.2822 108.473 49.9893 109.768 49.9893C110.043 49.9893 110.368 50.0156 110.743 50.0684C111.124 50.1152 111.367 50.1504 111.473 50.1738H114.9ZM107.315 61.3887C107.315 61.7578 107.491 62.0479 107.843 62.2588C108.2 62.4697 108.698 62.5752 109.337 62.5752C110.298 62.5752 111.051 62.4434 111.596 62.1797C112.141 61.916 112.413 61.5557 112.413 61.0986C112.413 60.7295 112.252 60.4746 111.93 60.334C111.607 60.1934 111.109 60.123 110.436 60.123H109.047C108.555 60.123 108.142 60.2373 107.808 60.4658C107.479 60.7002 107.315 61.0078 107.315 61.3887ZM108.291 53.3906C108.291 53.9238 108.411 54.3457 108.651 54.6562C108.897 54.9668 109.27 55.1221 109.768 55.1221C110.271 55.1221 110.641 54.9668 110.875 54.6562C111.109 54.3457 111.227 53.9238 111.227 53.3906C111.227 52.207 110.74 51.6152 109.768 51.6152C108.783 51.6152 108.291 52.207 108.291 53.3906ZM120.596 51.8965C120.027 51.8965 119.582 52.0781 119.26 52.4414C118.938 52.7988 118.753 53.3086 118.706 53.9707H122.468C122.456 53.3086 122.283 52.7988 121.949 52.4414C121.615 52.0781 121.164 51.8965 120.596 51.8965ZM120.974 60.1758C119.392 60.1758 118.155 59.7393 117.265 58.8662C116.374 57.9932 115.929 56.7568 115.929 55.1572C115.929 53.5107 116.339 52.2393 117.159 51.3428C117.985 50.4404 119.125 49.9893 120.578 49.9893C121.967 49.9893 123.048 50.3848 123.821 51.1758C124.595 51.9668 124.981 53.0596 124.981 54.4541V55.7549H118.645C118.674 56.5166 118.899 57.1113 119.321 57.5391C119.743 57.9668 120.335 58.1807 121.097 58.1807C121.688 58.1807 122.248 58.1191 122.775 57.9961C123.303 57.873 123.854 57.6768 124.428 57.4072V59.4814C123.959 59.7158 123.458 59.8887 122.925 60C122.392 60.1172 121.741 60.1758 120.974 60.1758ZM131.301 58.04C131.77 58.04 132.332 57.9375 132.988 57.7324V59.7275C132.32 60.0264 131.5 60.1758 130.527 60.1758C129.455 60.1758 128.673 59.9062 128.181 59.3672C127.694 58.8223 127.451 58.0078 127.451 56.9238V52.1865H126.168V51.0527L127.645 50.1562L128.418 48.082H130.132V50.1738H132.883V52.1865H130.132V56.9238C130.132 57.3047 130.237 57.5859 130.448 57.7676C130.665 57.9492 130.949 58.04 131.301 58.04ZM144.054 60H141.373V54.2607C141.373 52.8428 140.846 52.1338 139.791 52.1338C139.041 52.1338 138.499 52.3887 138.165 52.8984C137.831 53.4082 137.664 54.2344 137.664 55.377V60H134.983V46.3242H137.664V49.1104C137.664 49.3271 137.644 49.8369 137.603 50.6396L137.541 51.4307H137.682C138.279 50.4697 139.229 49.9893 140.529 49.9893C141.684 49.9893 142.56 50.2998 143.157 50.9209C143.755 51.542 144.054 52.4326 144.054 53.5928V60ZM150.883 51.8965C150.314 51.8965 149.869 52.0781 149.547 52.4414C149.225 52.7988 149.04 53.3086 148.993 53.9707H152.755C152.743 53.3086 152.57 52.7988 152.236 52.4414C151.902 52.0781 151.451 51.8965 150.883 51.8965ZM151.261 60.1758C149.679 60.1758 148.442 59.7393 147.552 58.8662C146.661 57.9932 146.216 56.7568 146.216 55.1572C146.216 53.5107 146.626 52.2393 147.446 51.3428C148.272 50.4404 149.412 49.9893 150.865 49.9893C152.254 49.9893 153.335 50.3848 154.108 51.1758C154.882 51.9668 155.269 53.0596 155.269 54.4541V55.7549H148.932C148.961 56.5166 149.187 57.1113 149.608 57.5391C150.03 57.9668 150.622 58.1807 151.384 58.1807C151.976 58.1807 152.535 58.1191 153.062 57.9961C153.59 57.873 154.141 57.6768 154.715 57.4072V59.4814C154.246 59.7158 153.745 59.8887 153.212 60C152.679 60.1172 152.028 60.1758 151.261 60.1758ZM162.933 49.9893C163.296 49.9893 163.598 50.0156 163.838 50.0684L163.636 52.582C163.419 52.5234 163.155 52.4941 162.845 52.4941C161.989 52.4941 161.321 52.7139 160.841 53.1533C160.366 53.5928 160.129 54.208 160.129 54.999V60H157.448V50.1738H159.479L159.874 51.8262H160.006C160.311 51.2754 160.721 50.833 161.236 50.499C161.758 50.1592 162.323 49.9893 162.933 49.9893ZM183.024 60H179.922L178.182 53.25C178.117 53.0098 178.006 52.5146 177.848 51.7646C177.695 51.0088 177.607 50.502 177.584 50.2441C177.549 50.5605 177.461 51.0703 177.32 51.7734C177.18 52.4707 177.071 52.9688 176.995 53.2676L175.264 60H172.17L168.892 47.1504H171.572L173.216 54.1641C173.503 55.459 173.711 56.5811 173.84 57.5303C173.875 57.1963 173.954 56.6807 174.077 55.9834C174.206 55.2803 174.326 54.7354 174.438 54.3486L176.31 47.1504H178.885L180.757 54.3486C180.839 54.6709 180.941 55.1631 181.064 55.8252C181.188 56.4873 181.281 57.0557 181.346 57.5303C181.404 57.0732 181.498 56.5049 181.627 55.8252C181.756 55.1396 181.873 54.5859 181.979 54.1641L183.613 47.1504H186.294L183.024 60ZM191.77 51.8965C191.201 51.8965 190.756 52.0781 190.434 52.4414C190.111 52.7988 189.927 53.3086 189.88 53.9707H193.642C193.63 53.3086 193.457 52.7988 193.123 52.4414C192.789 52.0781 192.338 51.8965 191.77 51.8965ZM192.147 60.1758C190.565 60.1758 189.329 59.7393 188.438 58.8662C187.548 57.9932 187.103 56.7568 187.103 55.1572C187.103 53.5107 187.513 52.2393 188.333 51.3428C189.159 50.4404 190.299 49.9893 191.752 49.9893C193.141 49.9893 194.222 50.3848 194.995 51.1758C195.769 51.9668 196.155 53.0596 196.155 54.4541V55.7549H189.818C189.848 56.5166 190.073 57.1113 190.495 57.5391C190.917 57.9668 191.509 58.1807 192.271 58.1807C192.862 58.1807 193.422 58.1191 193.949 57.9961C194.477 57.873 195.027 57.6768 195.602 57.4072V59.4814C195.133 59.7158 194.632 59.8887 194.099 60C193.565 60.1172 192.915 60.1758 192.147 60.1758ZM208.68 49.2334C207.654 49.2334 206.86 49.6201 206.298 50.3936C205.735 51.1611 205.454 52.2334 205.454 53.6104C205.454 56.4756 206.529 57.9082 208.68 57.9082C209.582 57.9082 210.675 57.6826 211.958 57.2314V59.5166C210.903 59.9561 209.726 60.1758 208.425 60.1758C206.556 60.1758 205.126 59.6104 204.136 58.4795C203.146 57.3428 202.65 55.7139 202.65 53.5928C202.65 52.2568 202.894 51.0879 203.38 50.0859C203.866 49.0781 204.563 48.3076 205.472 47.7744C206.386 47.2354 207.455 46.9658 208.68 46.9658C209.928 46.9658 211.182 47.2676 212.441 47.8711L211.562 50.0859C211.082 49.8574 210.599 49.6582 210.112 49.4883C209.626 49.3184 209.148 49.2334 208.68 49.2334ZM220.729 60L220.211 58.6641H220.141C219.689 59.2324 219.224 59.6279 218.743 59.8506C218.269 60.0674 217.647 60.1758 216.88 60.1758C215.937 60.1758 215.192 59.9062 214.647 59.3672C214.108 58.8281 213.839 58.0605 213.839 57.0645C213.839 56.0215 214.202 55.2539 214.929 54.7617C215.661 54.2637 216.763 53.9883 218.233 53.9355L219.938 53.8828V53.4521C219.938 52.4561 219.429 51.958 218.409 51.958C217.624 51.958 216.701 52.1953 215.641 52.6699L214.753 50.8594C215.884 50.2676 217.138 49.9717 218.515 49.9717C219.833 49.9717 220.844 50.2588 221.547 50.833C222.25 51.4072 222.602 52.2803 222.602 53.4521V60H220.729ZM219.938 55.4473L218.901 55.4824C218.122 55.5059 217.542 55.6465 217.161 55.9043C216.78 56.1621 216.59 56.5547 216.59 57.082C216.59 57.8379 217.023 58.2158 217.891 58.2158C218.512 58.2158 219.007 58.0371 219.376 57.6797C219.751 57.3223 219.938 56.8477 219.938 56.2559V55.4473ZM234.44 60H231.76V54.2607C231.76 53.5518 231.634 53.0215 231.382 52.6699C231.13 52.3125 230.729 52.1338 230.178 52.1338C229.428 52.1338 228.886 52.3857 228.552 52.8896C228.218 53.3877 228.051 54.2168 228.051 55.377V60H225.37V50.1738H227.418L227.778 51.4307H227.928C228.227 50.9561 228.637 50.5986 229.158 50.3584C229.686 50.1123 230.283 49.9893 230.951 49.9893C232.094 49.9893 232.961 50.2998 233.553 50.9209C234.145 51.5361 234.44 52.4268 234.44 53.5928V60ZM249.672 56.4316C249.672 57.5918 249.253 58.5059 248.415 59.1738C247.583 59.8418 246.423 60.1758 244.935 60.1758C243.563 60.1758 242.351 59.918 241.296 59.4023V56.8711C242.163 57.2578 242.896 57.5303 243.493 57.6885C244.097 57.8467 244.647 57.9258 245.146 57.9258C245.743 57.9258 246.2 57.8115 246.517 57.583C246.839 57.3545 247 57.0146 247 56.5635C247 56.3115 246.93 56.0889 246.789 55.8955C246.648 55.6963 246.44 55.5059 246.165 55.3242C245.896 55.1426 245.342 54.8525 244.504 54.4541C243.719 54.085 243.13 53.7305 242.737 53.3906C242.345 53.0508 242.031 52.6553 241.797 52.2041C241.562 51.7529 241.445 51.2256 241.445 50.6221C241.445 49.4854 241.829 48.5918 242.597 47.9414C243.37 47.291 244.437 46.9658 245.796 46.9658C246.464 46.9658 247.1 47.0449 247.703 47.2031C248.312 47.3613 248.948 47.584 249.61 47.8711L248.731 49.9893C248.046 49.708 247.478 49.5117 247.026 49.4004C246.581 49.2891 246.142 49.2334 245.708 49.2334C245.192 49.2334 244.797 49.3535 244.521 49.5938C244.246 49.834 244.108 50.1475 244.108 50.5342C244.108 50.7744 244.164 50.9854 244.275 51.167C244.387 51.3428 244.562 51.5156 244.803 51.6855C245.049 51.8496 245.626 52.1484 246.534 52.582C247.735 53.1562 248.559 53.7334 249.004 54.3135C249.449 54.8877 249.672 55.5938 249.672 56.4316ZM258.751 60L258.391 58.7432H258.25C257.963 59.2002 257.556 59.5547 257.028 59.8066C256.501 60.0527 255.9 60.1758 255.227 60.1758C254.072 60.1758 253.202 59.8682 252.616 59.2529C252.03 58.6318 251.737 57.7412 251.737 56.5811V50.1738H254.418V55.9131C254.418 56.6221 254.544 57.1553 254.796 57.5127C255.048 57.8643 255.449 58.04 256 58.04C256.75 58.04 257.292 57.791 257.626 57.293C257.96 56.7891 258.127 55.957 258.127 54.7969V50.1738H260.808V60H258.751ZM269.104 49.9893C269.468 49.9893 269.77 50.0156 270.01 50.0684L269.808 52.582C269.591 52.5234 269.327 52.4941 269.017 52.4941C268.161 52.4941 267.493 52.7139 267.013 53.1533C266.538 53.5928 266.301 54.208 266.301 54.999V60H263.62V50.1738H265.65L266.046 51.8262H266.178C266.482 51.2754 266.893 50.833 267.408 50.499C267.93 50.1592 268.495 49.9893 269.104 49.9893ZM274.132 60L270.388 50.1738H273.191L275.09 55.7725C275.301 56.4814 275.433 57.1523 275.485 57.7852H275.538C275.567 57.2227 275.699 56.5518 275.934 55.7725L277.823 50.1738H280.627L276.883 60H274.132ZM281.928 47.6338C281.928 46.7607 282.414 46.3242 283.387 46.3242C284.359 46.3242 284.846 46.7607 284.846 47.6338C284.846 48.0498 284.723 48.375 284.477 48.6094C284.236 48.8379 283.873 48.9521 283.387 48.9521C282.414 48.9521 281.928 48.5127 281.928 47.6338ZM284.723 60H282.042V50.1738H284.723V60ZM289.882 60L286.138 50.1738H288.941L290.84 55.7725C291.051 56.4814 291.183 57.1523 291.235 57.7852H291.288C291.317 57.2227 291.449 56.5518 291.684 55.7725L293.573 50.1738H296.377L292.633 60H289.882ZM301.861 51.8965C301.293 51.8965 300.848 52.0781 300.525 52.4414C300.203 52.7988 300.019 53.3086 299.972 53.9707H303.733C303.722 53.3086 303.549 52.7988 303.215 52.4414C302.881 52.0781 302.43 51.8965 301.861 51.8965ZM302.239 60.1758C300.657 60.1758 299.421 59.7393 298.53 58.8662C297.64 57.9932 297.194 56.7568 297.194 55.1572C297.194 53.5107 297.604 52.2393 298.425 51.3428C299.251 50.4404 300.391 49.9893 301.844 49.9893C303.232 49.9893 304.313 50.3848 305.087 51.1758C305.86 51.9668 306.247 53.0596 306.247 54.4541V55.7549H299.91C299.939 56.5166 300.165 57.1113 300.587 57.5391C301.009 57.9668 301.601 58.1807 302.362 58.1807C302.954 58.1807 303.514 58.1191 304.041 57.9961C304.568 57.873 305.119 57.6768 305.693 57.4072V59.4814C305.225 59.7158 304.724 59.8887 304.19 60C303.657 60.1172 303.007 60.1758 302.239 60.1758ZM318.271 60H315.546V49.418H312.057V47.1504H321.76V49.418H318.271V60ZM332.597 60H329.916V54.2607C329.916 52.8428 329.389 52.1338 328.334 52.1338C327.584 52.1338 327.042 52.3887 326.708 52.8984C326.374 53.4082 326.207 54.2344 326.207 55.377V60H323.526V46.3242H326.207V49.1104C326.207 49.3271 326.187 49.8369 326.146 50.6396L326.084 51.4307H326.225C326.822 50.4697 327.771 49.9893 329.072 49.9893C330.227 49.9893 331.103 50.2998 331.7 50.9209C332.298 51.542 332.597 52.4326 332.597 53.5928V60ZM335.242 47.6338C335.242 46.7607 335.729 46.3242 336.701 46.3242C337.674 46.3242 338.16 46.7607 338.16 47.6338C338.16 48.0498 338.037 48.375 337.791 48.6094C337.551 48.8379 337.188 48.9521 336.701 48.9521C335.729 48.9521 335.242 48.5127 335.242 47.6338ZM338.037 60H335.356V50.1738H338.037V60ZM347.714 57.082C347.714 58.0898 347.362 58.8574 346.659 59.3848C345.962 59.9121 344.916 60.1758 343.521 60.1758C342.807 60.1758 342.197 60.126 341.693 60.0264C341.189 59.9326 340.718 59.792 340.278 59.6045V57.3896C340.776 57.624 341.336 57.8203 341.957 57.9785C342.584 58.1367 343.135 58.2158 343.609 58.2158C344.582 58.2158 345.068 57.9346 345.068 57.3721C345.068 57.1611 345.004 56.9912 344.875 56.8623C344.746 56.7275 344.523 56.5781 344.207 56.4141C343.891 56.2441 343.469 56.0479 342.941 55.8252C342.186 55.5088 341.629 55.2158 341.271 54.9463C340.92 54.6768 340.662 54.3691 340.498 54.0234C340.34 53.6719 340.261 53.2412 340.261 52.7314C340.261 51.8584 340.598 51.1846 341.271 50.71C341.951 50.2295 342.912 49.9893 344.154 49.9893C345.338 49.9893 346.489 50.2471 347.608 50.7627L346.8 52.6963C346.308 52.4854 345.848 52.3125 345.42 52.1777C344.992 52.043 344.556 51.9756 344.11 51.9756C343.319 51.9756 342.924 52.1895 342.924 52.6172C342.924 52.8574 343.05 53.0654 343.302 53.2412C343.56 53.417 344.119 53.6777 344.98 54.0234C345.748 54.334 346.311 54.624 346.668 54.8936C347.025 55.1631 347.289 55.4736 347.459 55.8252C347.629 56.1768 347.714 56.5957 347.714 57.082ZM360.15 49.2334C359.125 49.2334 358.331 49.6201 357.769 50.3936C357.206 51.1611 356.925 52.2334 356.925 53.6104C356.925 56.4756 358 57.9082 360.15 57.9082C361.053 57.9082 362.146 57.6826 363.429 57.2314V59.5166C362.374 59.9561 361.196 60.1758 359.896 60.1758C358.026 60.1758 356.597 59.6104 355.606 58.4795C354.616 57.3428 354.121 55.7139 354.121 53.5928C354.121 52.2568 354.364 51.0879 354.851 50.0859C355.337 49.0781 356.034 48.3076 356.942 47.7744C357.856 47.2354 358.926 46.9658 360.15 46.9658C361.398 46.9658 362.652 47.2676 363.912 47.8711L363.033 50.0859C362.553 49.8574 362.069 49.6582 361.583 49.4883C361.097 49.3184 360.619 49.2334 360.15 49.2334ZM371.444 49.9893C371.808 49.9893 372.109 50.0156 372.35 50.0684L372.147 52.582C371.931 52.5234 371.667 52.4941 371.356 52.4941C370.501 52.4941 369.833 52.7139 369.353 53.1533C368.878 53.5928 368.641 54.208 368.641 54.999V60H365.96V50.1738H367.99L368.386 51.8262H368.518C368.822 51.2754 369.232 50.833 369.748 50.499C370.27 50.1592 370.835 49.9893 371.444 49.9893ZM374.02 47.6338C374.02 46.7607 374.506 46.3242 375.479 46.3242C376.451 46.3242 376.938 46.7607 376.938 47.6338C376.938 48.0498 376.814 48.375 376.568 48.6094C376.328 48.8379 375.965 48.9521 375.479 48.9521C374.506 48.9521 374.02 48.5127 374.02 47.6338ZM376.814 60H374.134V50.1738H376.814V60ZM386.491 57.082C386.491 58.0898 386.14 58.8574 385.437 59.3848C384.739 59.9121 383.693 60.1758 382.299 60.1758C381.584 60.1758 380.975 60.126 380.471 60.0264C379.967 59.9326 379.495 59.792 379.056 59.6045V57.3896C379.554 57.624 380.113 57.8203 380.734 57.9785C381.361 58.1367 381.912 58.2158 382.387 58.2158C383.359 58.2158 383.846 57.9346 383.846 57.3721C383.846 57.1611 383.781 56.9912 383.652 56.8623C383.523 56.7275 383.301 56.5781 382.984 56.4141C382.668 56.2441 382.246 56.0479 381.719 55.8252C380.963 55.5088 380.406 55.2158 380.049 54.9463C379.697 54.6768 379.439 54.3691 379.275 54.0234C379.117 53.6719 379.038 53.2412 379.038 52.7314C379.038 51.8584 379.375 51.1846 380.049 50.71C380.729 50.2295 381.689 49.9893 382.932 49.9893C384.115 49.9893 385.267 50.2471 386.386 50.7627L385.577 52.6963C385.085 52.4854 384.625 52.3125 384.197 52.1777C383.77 52.043 383.333 51.9756 382.888 51.9756C382.097 51.9756 381.701 52.1895 381.701 52.6172C381.701 52.8574 381.827 53.0654 382.079 53.2412C382.337 53.417 382.896 53.6777 383.758 54.0234C384.525 54.334 385.088 54.624 385.445 54.8936C385.803 55.1631 386.066 55.4736 386.236 55.8252C386.406 56.1768 386.491 56.5957 386.491 57.082ZM388.469 47.6338C388.469 46.7607 388.955 46.3242 389.928 46.3242C390.9 46.3242 391.387 46.7607 391.387 47.6338C391.387 48.0498 391.264 48.375 391.018 48.6094C390.777 48.8379 390.414 48.9521 389.928 48.9521C388.955 48.9521 388.469 48.5127 388.469 47.6338ZM391.264 60H388.583V50.1738H391.264V60ZM400.94 57.082C400.94 58.0898 400.589 58.8574 399.886 59.3848C399.188 59.9121 398.143 60.1758 396.748 60.1758C396.033 60.1758 395.424 60.126 394.92 60.0264C394.416 59.9326 393.944 59.792 393.505 59.6045V57.3896C394.003 57.624 394.562 57.8203 395.184 57.9785C395.811 58.1367 396.361 58.2158 396.836 58.2158C397.809 58.2158 398.295 57.9346 398.295 57.3721C398.295 57.1611 398.23 56.9912 398.102 56.8623C397.973 56.7275 397.75 56.5781 397.434 56.4141C397.117 56.2441 396.695 56.0479 396.168 55.8252C395.412 55.5088 394.855 55.2158 394.498 54.9463C394.146 54.6768 393.889 54.3691 393.725 54.0234C393.566 53.6719 393.487 53.2412 393.487 52.7314C393.487 51.8584 393.824 51.1846 394.498 50.71C395.178 50.2295 396.139 49.9893 397.381 49.9893C398.564 49.9893 399.716 50.2471 400.835 50.7627L400.026 52.6963C399.534 52.4854 399.074 52.3125 398.646 52.1777C398.219 52.043 397.782 51.9756 397.337 51.9756C396.546 51.9756 396.15 52.1895 396.15 52.6172C396.15 52.8574 396.276 53.0654 396.528 53.2412C396.786 53.417 397.346 53.6777 398.207 54.0234C398.975 54.334 399.537 54.624 399.895 54.8936C400.252 55.1631 400.516 55.4736 400.686 55.8252C400.855 56.1768 400.94 56.5957 400.94 57.082Z" fill="#A9D9DB"/>
</svg>
