<svg width="440" height="51" viewBox="0 0 440 51" fill="none" xmlns="http://www.w3.org/2000/svg">
<path d="M22.5781 13.6296C19.5676 13.6296 17.2191 14.8551 15.5324 17.3064C13.8457 19.7365 13.0024 23.0964 13.0024 27.386C13.0024 36.3033 16.4291 40.762 23.2825 40.762C25.3535 40.762 27.3605 40.4768 29.3034 39.9062C31.2463 39.3356 33.1994 38.6488 35.1644 37.8459V48.4326C31.257 50.1442 26.8374 51 21.9055 51C14.8385 51 9.41556 48.9715 5.63646 44.9143C1.87878 40.8571 0 34.9932 0 27.3226C0 22.5258 0.907404 18.3102 2.72219 14.6756C4.55827 11.0411 7.18434 8.2517 10.6004 6.30765C14.0379 4.34246 18.0731 3.35986 22.7062 3.35986C27.7661 3.35986 32.602 4.44811 37.2137 6.62462L33.3386 16.4822C31.6092 15.6793 29.8798 15.0031 28.1505 14.4537C26.4211 13.9043 24.5637 13.6296 22.5781 13.6296ZM56.1727 50.3661H43.6507V14.4537H56.1727V50.3661ZM43.3308 5.51523C43.3308 3.65569 43.8541 2.2716 44.8995 1.36296C45.9463 0.454324 47.6328 0 49.9606 0C52.2869 0 53.9842 0.464896 55.0524 1.39466C56.1192 2.32443 56.6533 3.69795 56.6533 5.51523C56.6533 9.14978 54.4219 10.9671 49.9606 10.9671C45.5407 10.9671 43.3308 9.14978 43.3308 5.51523ZM74.4277 50.3661L60.5926 14.4537H73.6594L79.8073 35.6906C79.8287 35.7961 79.8715 35.9758 79.9358 36.2293C80 36.4829 80.0643 36.7893 80.1285 37.1485C80.1915 37.4867 80.245 37.8565 80.2878 38.258C80.3521 38.6384 80.3842 38.9975 80.3842 39.3356H80.6077C80.6077 38.2368 80.8005 37.0429 81.1847 35.7539L87.6217 14.4537H100.656L86.8212 50.3661H74.4277ZM117.598 50.3661H105.076V14.4537H117.598V50.3661ZM104.756 5.51523C104.756 3.65569 105.278 2.2716 106.325 1.36296C107.37 0.454324 109.058 0 111.385 0C113.712 0 115.41 0.464896 116.477 1.39466C117.545 2.32443 118.079 3.69795 118.079 5.51523C118.079 9.14978 115.847 10.9671 111.385 10.9671C106.965 10.9671 104.756 9.14978 104.756 5.51523ZM142.866 51C136.931 51 132.425 49.4151 129.352 46.2454C126.299 43.0759 124.771 38.522 124.771 32.5842C124.771 26.6253 126.426 22.0081 129.736 18.7328C133.045 15.4574 137.753 13.8198 143.859 13.8198C148.065 13.8198 152.025 14.7284 155.74 16.5457L152.058 25.706C150.541 25.051 149.144 24.5333 147.863 24.1529C146.582 23.7514 145.247 23.5507 143.859 23.5507C141.831 23.5507 140.261 24.3326 139.151 25.8962C138.04 27.4599 137.486 29.6682 137.486 32.5209C137.486 38.2685 139.632 41.1423 143.923 41.1423C147.595 41.1423 151.118 40.0858 154.491 37.9726V47.8303C151.268 49.9435 147.393 51 142.866 51ZM179.728 50.3661H172.074V10.5233H158.302V4.02549H193.499V10.5233H179.728V50.3661ZM215.372 51C209.864 51 205.551 49.4151 202.434 46.2454C199.337 43.0547 197.79 38.67 197.79 33.0913C197.79 27.3649 199.232 22.8639 202.114 19.5886C204.995 16.3132 208.956 14.6756 213.994 14.6756C218.671 14.6756 222.364 16.0808 225.076 18.8912C227.787 21.7017 229.143 25.5687 229.143 30.4922V34.5177H205.54C205.647 37.9198 206.576 40.5401 208.326 42.3785C210.077 44.1957 212.543 45.1044 215.724 45.1044C217.817 45.1044 219.76 44.9143 221.553 44.5339C223.368 44.1324 225.31 43.4773 227.381 42.5687V48.6228C225.546 49.4892 223.688 50.1019 221.809 50.4612C219.931 50.8204 217.785 51 215.372 51ZM213.994 20.3177C211.604 20.3177 209.682 21.0678 208.231 22.5681C206.8 24.0684 205.946 26.2555 205.669 29.1293H221.745C221.702 26.2343 220.998 24.0472 219.631 22.5681C218.264 21.0678 216.386 20.3177 213.994 20.3177ZM251.977 51C246.619 51 242.54 49.4574 239.744 46.3724C236.968 43.266 235.58 38.8179 235.58 33.028C235.58 27.1324 237.032 22.5997 239.935 19.43C242.86 16.2605 247.078 14.6756 252.586 14.6756C256.322 14.6756 259.684 15.3624 262.674 16.7358L260.4 22.7265C257.219 21.501 254.592 20.8881 252.522 20.8881C246.394 20.8881 243.33 24.9136 243.33 32.9645C243.33 36.8949 244.089 39.8533 245.604 41.8397C247.142 43.8049 249.383 44.7875 252.33 44.7875C255.682 44.7875 258.852 43.9634 261.841 42.3152V48.8129C260.497 49.5948 259.055 50.1548 257.517 50.4929C256.002 50.831 254.155 51 251.977 51ZM301.329 50.3661H293.77V28.8124C293.77 26.1075 293.216 24.0895 292.105 22.7582C291.017 21.427 289.277 20.7613 286.885 20.7613C283.726 20.7613 281.398 21.7017 279.904 23.5823C278.43 25.442 277.694 28.5693 277.694 32.9645V50.3661H270.168V1.04599H277.694V13.5662C277.694 15.5737 277.566 17.7184 277.31 20.0006H277.791C278.815 18.3102 280.235 17 282.05 16.0702C283.885 15.1405 286.02 14.6756 288.455 14.6756C297.037 14.6756 301.329 18.9547 301.329 27.5127V50.3661ZM351.608 50.3661H338.895V31.4748H324.195V50.3661H311.48V4.02549H324.195V21.2051H338.895V4.02549H351.608V50.3661ZM386.869 50.3661L385.299 45.8969H384.563C383.516 47.5451 382.055 48.8129 380.175 49.7005C378.319 50.5668 376.13 51 373.61 51C369.618 51 366.512 49.859 364.291 47.5767C362.07 45.2734 360.961 42.0298 360.961 37.8459V14.4537H373.483V34.0739C373.483 36.4196 373.813 38.1945 374.475 39.399C375.159 40.6035 376.268 41.2057 377.806 41.2057C379.963 41.2057 381.499 40.3711 382.417 38.7017C383.336 37.0112 383.795 34.169 383.795 30.1753V14.4537H396.317V50.3661H386.869ZM427.125 13.8198C431.075 13.8198 434.203 15.4574 436.509 18.7328C438.835 22.0081 440 26.5407 440 32.3306C440 38.1629 438.825 42.7378 436.477 46.0553C434.149 49.3518 430.905 51 426.74 51C425.395 51 424.2 50.8522 423.155 50.5563C422.108 50.2816 421.168 49.8906 420.336 49.3835C419.524 48.8764 418.574 48.0311 417.486 46.8477H416.717L414.731 50.3661H404.964V1.04599H417.486V12.2033C417.486 13.5344 417.336 15.8273 417.037 19.0815H417.486C418.703 17.2219 420.101 15.8801 421.681 15.056C423.282 14.2318 425.097 13.8198 427.125 13.8198ZM422.545 23.5507C420.795 23.5507 419.514 24.1529 418.703 25.3574C417.891 26.5618 417.486 28.4531 417.486 31.0311V32.7744C417.486 35.7116 417.891 37.8248 418.703 39.1137C419.514 40.3817 420.837 41.0156 422.674 41.0156C424.146 41.0156 425.279 40.2759 426.069 38.7968C426.858 37.2965 427.253 35.0988 427.253 32.2038C427.253 26.435 425.684 23.5507 422.545 23.5507Z" fill="white"/>
</svg>
