<svg width="226" height="42" viewBox="0 0 226 42" fill="none" xmlns="http://www.w3.org/2000/svg">
<g clip-path="url(#clip0)">
<path d="M40.8723 21.371C40.8723 32.0112 32.1984 40.646 21.4872 40.646C10.776 40.646 2.10205 32.0112 2.10205 21.371C2.10205 10.7308 10.776 2.09595 21.4872 2.09595C32.1984 2.09595 40.8723 10.7308 40.8723 21.371Z" stroke="#061F71" stroke-width="2"/>
<path d="M17.4302 9.79707C18.2586 9.79707 18.9302 9.1255 18.9302 8.29707C18.9302 7.46865 18.2586 6.79707 17.4302 6.79707C16.6017 6.79707 15.9302 7.46865 15.9302 8.29707C15.9302 9.1255 16.6017 9.79707 17.4302 9.79707Z" fill="#061F71"/>
<path d="M17.3379 6.91948C17.5921 6.91948 17.8407 6.99488 18.0521 7.13614C18.2635 7.27739 18.4283 7.47817 18.5256 7.71307C18.6229 7.94797 18.6483 8.20644 18.5987 8.45581C18.5491 8.70518 18.4267 8.93424 18.2469 9.11403C18.0671 9.29381 17.8381 9.41624 17.5887 9.46585C17.3393 9.51545 17.0808 9.48999 16.8459 9.39269C16.611 9.29539 16.4103 9.13062 16.269 8.91922C16.1278 8.70781 16.0524 8.45927 16.0524 8.20502C16.0524 8.0362 16.0856 7.86903 16.1502 7.71307C16.2148 7.5571 16.3095 7.41538 16.4289 7.29601C16.5482 7.17664 16.69 7.08194 16.8459 7.01734C17.0019 6.95274 17.1691 6.91948 17.3379 6.91948V6.91948ZM17.3379 6.70502C17.0412 6.70502 16.7512 6.79299 16.5045 6.95781C16.2579 7.12263 16.0656 7.3569 15.9521 7.63099C15.8385 7.90508 15.8088 8.20668 15.8667 8.49765C15.9246 8.78862 16.0675 9.0559 16.2772 9.26568C16.487 9.47546 16.7543 9.61832 17.0452 9.67619C17.3362 9.73407 17.6378 9.70437 17.9119 9.59084C18.186 9.4773 18.4203 9.28504 18.5851 9.03837C18.7499 8.7917 18.8379 8.50169 18.8379 8.20502C18.8379 7.80719 18.6798 7.42566 18.3985 7.14436C18.1172 6.86305 17.7357 6.70502 17.3379 6.70502Z" fill="#061F71"/>
<path d="M27.9697 7.51042C28.7982 7.51042 29.4697 6.83885 29.4697 6.01042C29.4697 5.18199 28.7982 4.51042 27.9697 4.51042C27.1413 4.51042 26.4697 5.18199 26.4697 6.01042C26.4697 6.83885 27.1413 7.51042 27.9697 7.51042Z" fill="#061F71"/>
<path d="M34.4424 13.2921C35.2708 13.2921 35.9424 12.6205 35.9424 11.7921C35.9424 10.9636 35.2708 10.2921 34.4424 10.2921C33.614 10.2921 32.9424 10.9636 32.9424 11.7921C32.9424 12.6205 33.614 13.2921 34.4424 13.2921Z" fill="#061F71"/>
<path d="M34.3501 10.4144C34.6043 10.4144 34.8529 10.4898 35.0643 10.6311C35.2757 10.7724 35.4405 10.9731 35.5378 11.208C35.6351 11.4429 35.6605 11.7014 35.6109 11.9508C35.5613 12.2001 35.4389 12.4292 35.2591 12.609C35.0793 12.7888 34.8503 12.9112 34.6009 12.9608C34.3515 13.0104 34.093 12.985 33.8581 12.8877C33.6232 12.7904 33.4225 12.6256 33.2812 12.4142C33.14 12.2028 33.0646 11.9542 33.0646 11.7C33.0646 11.359 33.2 11.0321 33.4411 10.791C33.6822 10.5499 34.0092 10.4144 34.3501 10.4144ZM34.3501 10.2C34.0534 10.2 33.7634 10.288 33.5167 10.4528C33.2701 10.6176 33.0778 10.8519 32.9643 11.126C32.8507 11.4 32.821 11.7016 32.8789 11.9926C32.9368 12.2836 33.0796 12.5509 33.2894 12.7606C33.4992 12.9704 33.7665 13.1133 34.0575 13.1712C34.3484 13.229 34.65 13.1993 34.9241 13.0858C35.1982 12.9723 35.4325 12.78 35.5973 12.5333C35.7621 12.2867 35.8501 11.9967 35.8501 11.7C35.8501 11.3022 35.6921 10.9206 35.4108 10.6393C35.1295 10.358 34.7479 10.2 34.3501 10.2Z" fill="#061F71"/>
<path d="M19.2793 21.3834C20.1077 21.3834 20.7793 20.7118 20.7793 19.8834C20.7793 19.055 20.1077 18.3834 19.2793 18.3834C18.4509 18.3834 17.7793 19.055 17.7793 19.8834C17.7793 20.7118 18.4509 21.3834 19.2793 21.3834Z" fill="#061F71"/>
<path d="M19.1865 18.5069C19.4408 18.5069 19.6893 18.5823 19.9007 18.7236C20.1121 18.8648 20.2769 19.0656 20.3742 19.3005C20.4715 19.5354 20.4969 19.7939 20.4473 20.0433C20.3977 20.2926 20.2753 20.5217 20.0955 20.7015C19.9157 20.8813 19.6867 21.0037 19.4373 21.0533C19.1879 21.1029 18.9295 21.0774 18.6946 20.9801C18.4597 20.8828 18.2589 20.7181 18.1176 20.5067C17.9764 20.2953 17.901 20.0467 17.901 19.7925C17.901 19.4515 18.0364 19.1245 18.2775 18.8835C18.5186 18.6424 18.8456 18.5069 19.1865 18.5069V18.5069ZM19.1865 18.2925C18.8898 18.2925 18.5998 18.3804 18.3532 18.5453C18.1065 18.7101 17.9142 18.9444 17.8007 19.2184C17.6872 19.4925 17.6575 19.7941 17.7153 20.0851C17.7732 20.3761 17.9161 20.6433 18.1259 20.8531C18.3356 21.0629 18.6029 21.2058 18.8939 21.2636C19.1849 21.3215 19.4865 21.2918 19.7605 21.1783C20.0346 21.0648 20.2689 20.8725 20.4337 20.6258C20.5985 20.3791 20.6865 20.0891 20.6865 19.7925C20.6865 19.3946 20.5285 19.0131 20.2472 18.7318C19.9659 18.4505 19.5843 18.2925 19.1865 18.2925V18.2925Z" fill="#061F71"/>
<path d="M10.0332 19.4408C10.8616 19.4408 11.5332 18.7692 11.5332 17.9408C11.5332 17.1124 10.8616 16.4408 10.0332 16.4408C9.20478 16.4408 8.5332 17.1124 8.5332 17.9408C8.5332 18.7692 9.20478 19.4408 10.0332 19.4408Z" fill="#061F71"/>
<path d="M13.9575 24.982C14.7859 24.982 15.4575 24.3105 15.4575 23.482C15.4575 22.6536 14.7859 21.982 13.9575 21.982C13.1291 21.982 12.4575 22.6536 12.4575 23.482C12.4575 24.3105 13.1291 24.982 13.9575 24.982Z" fill="#061F71"/>
<path d="M35.1816 27.2698C36.0101 27.2698 36.6816 26.5982 36.6816 25.7698C36.6816 24.9413 36.0101 24.2698 35.1816 24.2698C34.3532 24.2698 33.6816 24.9413 33.6816 25.7698C33.6816 26.5982 34.3532 27.2698 35.1816 27.2698Z" fill="#061F71"/>
<path d="M17.2866 36.7525C18.115 36.7525 18.7866 36.0809 18.7866 35.2525C18.7866 34.4241 18.115 33.7525 17.2866 33.7525C16.4582 33.7525 15.7866 34.4241 15.7866 35.2525C15.7866 36.0809 16.4582 36.7525 17.2866 36.7525Z" fill="#061F71"/>
<path d="M28.272 32.7371C29.1004 32.7371 29.772 32.0655 29.772 31.2371C29.772 30.4086 29.1004 29.7371 28.272 29.7371C27.4435 29.7371 26.772 30.4086 26.772 31.2371C26.772 32.0655 27.4435 32.7371 28.272 32.7371Z" fill="#061F71"/>
<path d="M10.8278 17.5444C4.72551 17.5444 -5.81746 33.177 9.44054 37.7526" stroke="#061F71" stroke-width="2" stroke-miterlimit="10"/>
<path d="M38.3892 31.8534C42.8752 39.6038 32.9551 41.4496 27.7104 31.7669C11.3584 34.3319 -6.2531 9.53147 8.10875 6.33609" stroke="#061F71" stroke-width="2" stroke-miterlimit="10"/>
<path d="M17.2236 7.9007C17.2236 7.9007 33.8623 8.08482 34.9752 25.3723" stroke="#061F71" stroke-width="2" stroke-miterlimit="10"/>
<path d="M19.0728 19.4881C19.0728 19.4881 29.4306 18.2004 34.236 11.3957" stroke="#061F71" stroke-width="2" stroke-miterlimit="10"/>
<path d="M27.7647 6.61295C26.4699 5.89729 34.1557 -1.93544 34.1204 5.9488" stroke="#061F71" stroke-width="2" stroke-miterlimit="10"/>
<path d="M13.7524 23.0856C13.7524 23.0856 12.8279 31.3623 17.0812 34.8561" stroke="#061F71" stroke-width="2" stroke-miterlimit="10"/>
</g>
<path d="M62.4336 15.6445C61.0664 15.6445 60.0078 16.1602 59.2578 17.1914C58.5078 18.2148 58.1328 19.6445 58.1328 21.4805C58.1328 25.3008 59.5664 27.2109 62.4336 27.2109C63.6367 27.2109 65.0938 26.9102 66.8047 26.3086V29.3555C65.3984 29.9414 63.8281 30.2344 62.0938 30.2344C59.6016 30.2344 57.6953 29.4805 56.375 27.9727C55.0547 26.457 54.3945 24.2852 54.3945 21.457C54.3945 19.6758 54.7188 18.1172 55.3672 16.7812C56.0156 15.4375 56.9453 14.4102 58.1562 13.6992C59.375 12.9805 60.8008 12.6211 62.4336 12.6211C64.0977 12.6211 65.7695 13.0234 67.4492 13.8281L66.2773 16.7812C65.6367 16.4766 64.9922 16.2109 64.3438 15.9844C63.6953 15.7578 63.0586 15.6445 62.4336 15.6445ZM70.0273 13.5117C70.0273 12.3477 70.6758 11.7656 71.9727 11.7656C73.2695 11.7656 73.918 12.3477 73.918 13.5117C73.918 14.0664 73.7539 14.5 73.4258 14.8125C73.1055 15.1172 72.6211 15.2695 71.9727 15.2695C70.6758 15.2695 70.0273 14.6836 70.0273 13.5117ZM73.7539 30H70.1797V16.8984H73.7539V30ZM80.6328 30L75.6406 16.8984H79.3789L81.9102 24.3633C82.1914 25.3086 82.3672 26.2031 82.4375 27.0469H82.5078C82.5469 26.2969 82.7227 25.4023 83.0352 24.3633L85.5547 16.8984H89.293L84.3008 30H80.6328ZM91.0273 13.5117C91.0273 12.3477 91.6758 11.7656 92.9727 11.7656C94.2695 11.7656 94.918 12.3477 94.918 13.5117C94.918 14.0664 94.7539 14.5 94.4258 14.8125C94.1055 15.1172 93.6211 15.2695 92.9727 15.2695C91.6758 15.2695 91.0273 14.6836 91.0273 13.5117ZM94.7539 30H91.1797V16.8984H94.7539V30ZM103.836 30.2344C99.7578 30.2344 97.7188 27.9961 97.7188 23.5195C97.7188 21.293 98.2734 19.5938 99.3828 18.4219C100.492 17.2422 102.082 16.6523 104.152 16.6523C105.668 16.6523 107.027 16.9492 108.23 17.543L107.176 20.3086C106.613 20.082 106.09 19.8984 105.605 19.7578C105.121 19.6094 104.637 19.5352 104.152 19.5352C102.293 19.5352 101.363 20.8555 101.363 23.4961C101.363 26.0586 102.293 27.3398 104.152 27.3398C104.84 27.3398 105.477 27.25 106.062 27.0703C106.648 26.8828 107.234 26.5938 107.82 26.2031V29.2617C107.242 29.6289 106.656 29.8828 106.062 30.0234C105.477 30.1641 104.734 30.2344 103.836 30.2344ZM123.992 30H120.359V15.8906H115.707V12.8672H128.645V15.8906H123.992V30ZM136.426 19.1953C135.668 19.1953 135.074 19.4375 134.645 19.9219C134.215 20.3984 133.969 21.0781 133.906 21.9609H138.922C138.906 21.0781 138.676 20.3984 138.23 19.9219C137.785 19.4375 137.184 19.1953 136.426 19.1953ZM136.93 30.2344C134.82 30.2344 133.172 29.6523 131.984 28.4883C130.797 27.3242 130.203 25.6758 130.203 23.543C130.203 21.3477 130.75 19.6523 131.844 18.457C132.945 17.2539 134.465 16.6523 136.402 16.6523C138.254 16.6523 139.695 17.1797 140.727 18.2344C141.758 19.2891 142.273 20.7461 142.273 22.6055V24.3398H133.824C133.863 25.3555 134.164 26.1484 134.727 26.7188C135.289 27.2891 136.078 27.5742 137.094 27.5742C137.883 27.5742 138.629 27.4922 139.332 27.3281C140.035 27.1641 140.77 26.9023 141.535 26.543V29.3086C140.91 29.6211 140.242 29.8516 139.531 30C138.82 30.1562 137.953 30.2344 136.93 30.2344ZM150.5 30.2344C146.422 30.2344 144.383 27.9961 144.383 23.5195C144.383 21.293 144.938 19.5938 146.047 18.4219C147.156 17.2422 148.746 16.6523 150.816 16.6523C152.332 16.6523 153.691 16.9492 154.895 17.543L153.84 20.3086C153.277 20.082 152.754 19.8984 152.27 19.7578C151.785 19.6094 151.301 19.5352 150.816 19.5352C148.957 19.5352 148.027 20.8555 148.027 23.4961C148.027 26.0586 148.957 27.3398 150.816 27.3398C151.504 27.3398 152.141 27.25 152.727 27.0703C153.312 26.8828 153.898 26.5938 154.484 26.2031V29.2617C153.906 29.6289 153.32 29.8828 152.727 30.0234C152.141 30.1641 151.398 30.2344 150.5 30.2344ZM169.625 30H166.051V22.3477C166.051 20.457 165.348 19.5117 163.941 19.5117C162.941 19.5117 162.219 19.8516 161.773 20.5312C161.328 21.2109 161.105 22.3125 161.105 23.8359V30H157.531V11.7656H161.105V15.4805C161.105 15.7695 161.078 16.4492 161.023 17.5195L160.941 18.5742H161.129C161.926 17.293 163.191 16.6523 164.926 16.6523C166.465 16.6523 167.633 17.0664 168.43 17.8945C169.227 18.7227 169.625 19.9102 169.625 21.457V30ZM193.859 30H190.238V22.6055H183.453V30H179.82V12.8672H183.453V19.582H190.238V12.8672H193.859V30ZM207.195 30L206.715 28.3242H206.527C206.145 28.9336 205.602 29.4062 204.898 29.7422C204.195 30.0703 203.395 30.2344 202.496 30.2344C200.957 30.2344 199.797 29.8242 199.016 29.0039C198.234 28.1758 197.844 26.9883 197.844 25.4414V16.8984H201.418V24.5508C201.418 25.4961 201.586 26.207 201.922 26.6836C202.258 27.1523 202.793 27.3867 203.527 27.3867C204.527 27.3867 205.25 27.0547 205.695 26.3906C206.141 25.7188 206.363 24.6094 206.363 23.0625V16.8984H209.938V30H207.195ZM220.977 16.6523C222.523 16.6523 223.734 17.2578 224.609 18.4688C225.484 19.6719 225.922 21.3242 225.922 23.4258C225.922 25.5898 225.469 27.2656 224.562 28.4531C223.664 29.6406 222.438 30.2344 220.883 30.2344C219.344 30.2344 218.137 29.6758 217.262 28.5586H217.016L216.418 30H213.688V11.7656H217.262V16.0078C217.262 16.5469 217.215 17.4102 217.121 18.5977H217.262C218.098 17.3008 219.336 16.6523 220.977 16.6523ZM219.828 19.5117C218.945 19.5117 218.301 19.7852 217.895 20.332C217.488 20.8711 217.277 21.7656 217.262 23.0156V23.4023C217.262 24.8086 217.469 25.8164 217.883 26.4258C218.305 27.0352 218.969 27.3398 219.875 27.3398C220.609 27.3398 221.191 27.0039 221.621 26.332C222.059 25.6523 222.277 24.668 222.277 23.3789C222.277 22.0898 222.059 21.125 221.621 20.4844C221.184 19.8359 220.586 19.5117 219.828 19.5117Z" fill="#0B0B0B"/>
<defs>
<clipPath id="clip0">
<rect width="42" height="42" fill="white"/>
</clipPath>
</defs>
</svg>
