<svg width="42" height="41" viewBox="0 0 42 41" fill="none" xmlns="http://www.w3.org/2000/svg">
<path d="M40.3083 20.2751C40.3083 30.9153 31.6344 39.55 20.9232 39.55C10.212 39.55 1.53809 30.9153 1.53809 20.2751C1.53809 9.63485 10.212 1 20.9232 1C31.6344 1 40.3083 9.63485 40.3083 20.2751Z" stroke="black" stroke-width="2"/>
<path d="M16.8662 8.70112C17.6946 8.70112 18.3662 8.02955 18.3662 7.20112C18.3662 6.3727 17.6946 5.70112 16.8662 5.70112C16.0377 5.70112 15.3662 6.3727 15.3662 7.20112C15.3662 8.02955 16.0377 8.70112 16.8662 8.70112Z" fill="black"/>
<path d="M16.7739 5.82353C17.0281 5.82353 17.2767 5.89893 17.4881 6.04019C17.6995 6.18144 17.8643 6.38222 17.9616 6.61712C18.0589 6.85202 18.0843 7.11049 18.0347 7.35986C17.9851 7.60923 17.8627 7.83829 17.6829 8.01808C17.5031 8.19786 17.2741 8.32029 17.0247 8.3699C16.7753 8.4195 16.5168 8.39404 16.2819 8.29674C16.047 8.19944 15.8463 8.03467 15.705 7.82327C15.5638 7.61186 15.4884 7.36332 15.4884 7.10907C15.4884 6.94025 15.5216 6.77308 15.5862 6.61712C15.6508 6.46115 15.7455 6.31943 15.8649 6.20006C15.9842 6.08069 16.126 5.98599 16.2819 5.92139C16.4379 5.85679 16.6051 5.82353 16.7739 5.82353ZM16.7739 5.60907C16.4772 5.60907 16.1872 5.69704 15.9405 5.86186C15.6939 6.02668 15.5016 6.26095 15.3881 6.53504C15.2745 6.80913 15.2448 7.11073 15.3027 7.4017C15.3606 7.69267 15.5035 7.95995 15.7132 8.16973C15.923 8.37951 16.1903 8.52237 16.4812 8.58024C16.7722 8.63812 17.0738 8.60842 17.3479 8.49489C17.622 8.38135 17.8563 8.18909 18.0211 7.94242C18.1859 7.69575 18.2739 7.40574 18.2739 7.10907C18.2739 6.71124 18.1158 6.32971 17.8345 6.04841C17.5532 5.7671 17.1717 5.60907 16.7739 5.60907Z" fill="black"/>
<path d="M27.4057 6.41447C28.2342 6.41447 28.9057 5.7429 28.9057 4.91447C28.9057 4.08604 28.2342 3.41447 27.4057 3.41447C26.5773 3.41447 25.9057 4.08604 25.9057 4.91447C25.9057 5.7429 26.5773 6.41447 27.4057 6.41447Z" fill="black"/>
<path d="M33.8784 12.1962C34.7068 12.1962 35.3784 11.5246 35.3784 10.6962C35.3784 9.86765 34.7068 9.19615 33.8784 9.19615C33.05 9.19615 32.3784 9.86765 32.3784 10.6962C32.3784 11.5246 33.05 12.1962 33.8784 12.1962Z" fill="black"/>
<path d="M33.7861 9.31845C34.0403 9.31845 34.2889 9.39385 34.5003 9.53515C34.7117 9.67645 34.8765 9.87715 34.9738 10.1121C35.0711 10.347 35.0965 10.6054 35.0469 10.8548C34.9973 11.1041 34.8749 11.3333 34.6951 11.5131C34.5153 11.6929 34.2863 11.8153 34.0369 11.8649C33.7875 11.9145 33.529 11.889 33.2941 11.7917C33.0592 11.6944 32.8585 11.5296 32.7172 11.3182C32.576 11.1068 32.5006 10.8582 32.5006 10.604C32.5006 10.263 32.636 9.93615 32.8771 9.69505C33.1182 9.45395 33.4452 9.31845 33.7861 9.31845ZM33.7861 9.10405C33.4894 9.10405 33.1994 9.19205 32.9527 9.35685C32.7061 9.52165 32.5138 9.75595 32.4003 10.0301C32.2867 10.3041 32.257 10.6057 32.3149 10.8967C32.3728 11.1877 32.5156 11.4549 32.7254 11.6646C32.9352 11.8744 33.2025 12.0173 33.4935 12.0752C33.7844 12.133 34.086 12.1034 34.3601 11.9899C34.6342 11.8764 34.8685 11.6841 35.0333 11.4374C35.1981 11.1908 35.2861 10.9007 35.2861 10.604C35.2861 10.2062 35.1281 9.82465 34.8468 9.54335C34.5655 9.26205 34.1839 9.10405 33.7861 9.10405Z" fill="black"/>
<path d="M18.7153 20.2875C19.5437 20.2875 20.2153 19.6159 20.2153 18.7875C20.2153 17.9591 19.5437 17.2875 18.7153 17.2875C17.8869 17.2875 17.2153 17.9591 17.2153 18.7875C17.2153 19.6159 17.8869 20.2875 18.7153 20.2875Z" fill="black"/>
<path d="M18.6225 17.4109C18.8768 17.4109 19.1253 17.4863 19.3367 17.6276C19.5481 17.7688 19.7129 17.9696 19.8102 18.2045C19.9075 18.4394 19.9329 18.6979 19.8833 18.9473C19.8337 19.1966 19.7113 19.4257 19.5315 19.6055C19.3517 19.7853 19.1227 19.9077 18.8733 19.9573C18.6239 20.0069 18.3655 19.9814 18.1306 19.8841C17.8957 19.7868 17.6949 19.6221 17.5536 19.4107C17.4124 19.1993 17.337 18.9507 17.337 18.6965C17.337 18.3555 17.4724 18.0285 17.7135 17.7875C17.9546 17.5464 18.2816 17.4109 18.6225 17.4109ZM18.6225 17.1965C18.3258 17.1965 18.0358 17.2844 17.7892 17.4493C17.5425 17.6141 17.3502 17.8484 17.2367 18.1224C17.1232 18.3965 17.0935 18.6981 17.1513 18.9891C17.2092 19.2801 17.3521 19.5473 17.5619 19.7571C17.7716 19.9669 18.0389 20.1098 18.3299 20.1676C18.6209 20.2255 18.9225 20.1958 19.1965 20.0823C19.4706 19.9688 19.7049 19.7765 19.8697 19.5298C20.0345 19.2831 20.1225 18.9931 20.1225 18.6965C20.1225 18.2986 19.9645 17.9171 19.6832 17.6358C19.4019 17.3545 19.0203 17.1965 18.6225 17.1965Z" fill="black"/>
<path d="M9.46923 18.3448C10.2976 18.3448 10.9692 17.6732 10.9692 16.8448C10.9692 16.0164 10.2976 15.3448 9.46923 15.3448C8.64081 15.3448 7.96923 16.0164 7.96923 16.8448C7.96923 17.6732 8.64081 18.3448 9.46923 18.3448Z" fill="black"/>
<path d="M13.3935 23.8861C14.2219 23.8861 14.8935 23.2146 14.8935 22.3861C14.8935 21.5577 14.2219 20.8861 13.3935 20.8861C12.5651 20.8861 11.8935 21.5577 11.8935 22.3861C11.8935 23.2146 12.5651 23.8861 13.3935 23.8861Z" fill="black"/>
<path d="M34.6176 26.1739C35.4461 26.1739 36.1176 25.5023 36.1176 24.6739C36.1176 23.8454 35.4461 23.1739 34.6176 23.1739C33.7892 23.1739 33.1176 23.8454 33.1176 24.6739C33.1176 25.5023 33.7892 26.1739 34.6176 26.1739Z" fill="black"/>
<path d="M16.7226 35.6565C17.551 35.6565 18.2226 34.9849 18.2226 34.1565C18.2226 33.3281 17.551 32.6565 16.7226 32.6565C15.8942 32.6565 15.2226 33.3281 15.2226 34.1565C15.2226 34.9849 15.8942 35.6565 16.7226 35.6565Z" fill="black"/>
<path d="M27.708 31.6411C28.5364 31.6411 29.208 30.9696 29.208 30.1412C29.208 29.3127 28.5364 28.6412 27.708 28.6412C26.8795 28.6412 26.208 29.3127 26.208 30.1412C26.208 30.9696 26.8795 31.6411 27.708 31.6411Z" fill="black"/>
<path d="M10.2638 16.4484C4.16154 16.4484 -6.38143 32.0811 8.87657 36.6567Z" fill="#EAEAEA" fill-opacity="0.2"/>
<path d="M10.2638 16.4484C4.16154 16.4484 -6.38143 32.0811 8.87657 36.6567" stroke="black" stroke-width="2" stroke-miterlimit="10"/>
<path d="M37.8252 30.7574C42.3112 38.5078 32.3911 40.3536 27.1464 30.6709C10.7944 33.2359 -6.81707 8.43552 7.54478 5.24014" fill="#EAEAEA" fill-opacity="0.2"/>
<path d="M37.8252 30.7574C42.3112 38.5078 32.3911 40.3536 27.1464 30.6709C10.7944 33.2359 -6.81707 8.43552 7.54478 5.24014" stroke="black" stroke-width="2" stroke-miterlimit="10"/>
<path d="M16.6596 6.80475C16.6596 6.80475 33.2983 6.98887 34.4112 24.2763Z" fill="#EAEAEA" fill-opacity="0.2"/>
<path d="M16.6596 6.80475C16.6596 6.80475 33.2983 6.98887 34.4112 24.2763" stroke="black" stroke-width="2" stroke-miterlimit="10"/>
<path d="M18.5088 18.3922C18.5088 18.3922 28.8666 17.1045 33.672 10.2998Z" fill="#EAEAEA" fill-opacity="0.2"/>
<path d="M18.5088 18.3922C18.5088 18.3922 28.8666 17.1045 33.672 10.2998" stroke="black" stroke-width="2" stroke-miterlimit="10"/>
<path d="M27.2007 5.517C25.9059 4.80134 33.5917 -3.03139 33.5564 4.85285Z" fill="#EAEAEA" fill-opacity="0.2"/>
<path d="M27.2007 5.517C25.9059 4.80134 33.5917 -3.03139 33.5564 4.85285" stroke="black" stroke-width="2" stroke-miterlimit="10"/>
<path d="M13.1884 21.9897C13.1884 21.9897 12.2639 30.2663 16.5172 33.7601Z" fill="#EAEAEA" fill-opacity="0.2"/>
<path d="M13.1884 21.9897C13.1884 21.9897 12.2639 30.2663 16.5172 33.7601" stroke="black" stroke-width="2" stroke-miterlimit="10"/>
</svg>
