<svg width="405" height="65" viewBox="0 0 405 65" fill="none" xmlns="http://www.w3.org/2000/svg">
<path d="M54 26.9073C54 41.2123 42.3626 52.8147 28 52.8147C13.6374 52.8147 2 41.2123 2 26.9073C2 12.6023 13.6374 1 28 1C42.3626 1 54 12.6023 54 26.9073Z" fill="#EAEAEA" fill-opacity="0.2" stroke="white" stroke-width="2"/>
<path d="M22.6264 11.5474C23.7236 11.5474 24.6131 10.6561 24.6131 9.55671C24.6131 8.4573 23.7236 7.56604 22.6264 7.56604C21.5291 7.56604 20.6396 8.4573 20.6396 9.55671C20.6396 10.6561 21.5291 11.5474 22.6264 11.5474Z" fill="white"/>
<path d="M22.5043 7.7285C22.8411 7.7285 23.1703 7.82856 23.4503 8.01602C23.7303 8.20349 23.9485 8.46994 24.0774 8.78168C24.2063 9.09342 24.24 9.43644 24.1743 9.76739C24.1086 10.0983 23.9464 10.4023 23.7083 10.6409C23.4702 10.8795 23.1668 11.042 22.8365 11.1078C22.5062 11.1736 22.1639 11.1399 21.8527 11.0107C21.5416 10.8816 21.2757 10.6629 21.0886 10.3824C20.9015 10.1018 20.8016 9.77198 20.8016 9.43455C20.8016 9.21051 20.8457 8.98866 20.9313 8.78168C21.0168 8.57469 21.1422 8.38661 21.3003 8.22819C21.4584 8.06977 21.6462 7.94411 21.8527 7.85837C22.0593 7.77263 22.2807 7.7285 22.5043 7.7285V7.7285ZM22.5043 7.44388C22.1114 7.44388 21.7273 7.56063 21.4005 7.77937C21.0738 7.9981 20.8192 8.30901 20.6688 8.67276C20.5184 9.0365 20.4791 9.43676 20.5558 9.82291C20.6324 10.2091 20.8216 10.5638 21.0995 10.8422C21.3773 11.1206 21.7313 11.3102 22.1167 11.387C22.5021 11.4638 22.9016 11.4244 23.2646 11.2737C23.6276 11.123 23.9379 10.8679 24.1562 10.5405C24.3745 10.2131 24.4911 9.82827 24.4911 9.43455C24.4911 8.90659 24.2817 8.40026 23.9091 8.02693C23.5366 7.65361 23.0312 7.44388 22.5043 7.44388Z" fill="white"/>
<path d="M36.5859 8.51275C37.6831 8.51275 38.5726 7.6215 38.5726 6.52208C38.5726 5.42266 37.6831 4.5314 36.5859 4.5314C35.4886 4.5314 34.5991 5.42266 34.5991 6.52208C34.5991 7.6215 35.4886 8.51275 36.5859 8.51275Z" fill="white"/>
<path d="M45.1591 16.1856C46.2564 16.1856 47.1458 15.2944 47.1458 14.195C47.1458 13.0955 46.2564 12.2043 45.1591 12.2043C44.0619 12.2043 43.1724 13.0955 43.1724 14.195C43.1724 15.2944 44.0619 16.1856 45.1591 16.1856Z" fill="white"/>
<path d="M45.037 12.3667C45.3738 12.3667 45.703 12.4668 45.983 12.6542C46.263 12.8417 46.4812 13.1082 46.6101 13.4199C46.739 13.7316 46.7727 14.0747 46.707 14.4056C46.6413 14.7365 46.4791 15.0405 46.241 15.2791C46.0029 15.5177 45.6995 15.6802 45.3692 15.746C45.0389 15.8119 44.6966 15.7781 44.3854 15.649C44.0743 15.5198 43.8084 15.3012 43.6213 15.0206C43.4342 14.74 43.3343 14.4102 43.3343 14.0728C43.3343 13.6203 43.5137 13.1864 43.8331 12.8664C44.1524 12.5465 44.5855 12.3667 45.037 12.3667ZM45.037 12.0821C44.6441 12.0821 44.26 12.1988 43.9332 12.4176C43.6065 12.6363 43.3519 12.9472 43.2015 13.311C43.0512 13.6747 43.0118 14.075 43.0885 14.4611C43.1651 14.8473 43.3543 15.202 43.6322 15.4804C43.91 15.7588 44.264 15.9484 44.6494 16.0252C45.0348 16.102 45.4343 16.0626 45.7973 15.9119C46.1604 15.7612 46.4706 15.5061 46.6889 15.1787C46.9072 14.8514 47.0238 14.4665 47.0238 14.0728C47.0238 13.5448 46.8145 13.0385 46.4419 12.6651C46.0693 12.2918 45.5639 12.0821 45.037 12.0821Z" fill="white"/>
<path d="M25.0756 26.9239C26.1729 26.9239 27.0623 26.0326 27.0623 24.9332C27.0623 23.8338 26.1729 22.9425 25.0756 22.9425C23.9784 22.9425 23.0889 23.8338 23.0889 24.9332C23.0889 26.0326 23.9784 26.9239 25.0756 26.9239Z" fill="white"/>
<path d="M24.9526 23.1064C25.2893 23.1064 25.6185 23.2065 25.8985 23.3939C26.1785 23.5814 26.3968 23.8479 26.5256 24.1596C26.6545 24.4713 26.6882 24.8144 26.6225 25.1453C26.5568 25.4763 26.3947 25.7802 26.1565 26.0188C25.9184 26.2574 25.615 26.4199 25.2847 26.4858C24.9544 26.5516 24.6121 26.5178 24.301 26.3887C23.9898 26.2595 23.7239 26.0409 23.5368 25.7603C23.3497 25.4798 23.2499 25.1499 23.2499 24.8125C23.2499 24.36 23.4293 23.9261 23.7486 23.6061C24.0679 23.2862 24.501 23.1064 24.9526 23.1064V23.1064ZM24.9526 22.8218C24.5596 22.8218 24.1755 22.9386 23.8488 23.1573C23.5221 23.376 23.2674 23.6869 23.1171 24.0507C22.9667 24.4144 22.9273 24.8147 23.004 25.2008C23.0807 25.587 23.2699 25.9417 23.5477 26.2201C23.8256 26.4985 24.1796 26.6881 24.565 26.7649C24.9504 26.8417 25.3498 26.8023 25.7129 26.6516C26.0759 26.501 26.3862 26.2458 26.6045 25.9184C26.8228 25.5911 26.9393 25.2062 26.9393 24.8125C26.9393 24.2845 26.73 23.7782 26.3574 23.4049C25.9848 23.0315 25.4795 22.8218 24.9526 22.8218V22.8218Z" fill="white"/>
<path d="M12.829 24.3458C13.9263 24.3458 14.8158 23.4545 14.8158 22.3551C14.8158 21.2557 13.9263 20.3644 12.829 20.3644C11.7318 20.3644 10.8423 21.2557 10.8423 22.3551C10.8423 23.4545 11.7318 24.3458 12.829 24.3458Z" fill="white"/>
<path d="M18.0268 31.6996C19.124 31.6996 20.0135 30.8084 20.0135 29.7089C20.0135 28.6095 19.124 27.7183 18.0268 27.7183C16.9295 27.7183 16.04 28.6095 16.04 29.7089C16.04 30.8084 16.9295 31.6996 18.0268 31.6996Z" fill="white"/>
<path d="M46.1381 34.7357C47.2354 34.7357 48.1248 33.8445 48.1248 32.745C48.1248 31.6456 47.2354 30.7544 46.1381 30.7544C45.0409 30.7544 44.1514 31.6456 44.1514 32.745C44.1514 33.8445 45.0409 34.7357 46.1381 34.7357Z" fill="white"/>
<path d="M22.4364 47.3204C23.5337 47.3204 24.4232 46.4291 24.4232 45.3297C24.4232 44.2303 23.5337 43.3391 22.4364 43.3391C21.3392 43.3391 20.4497 44.2303 20.4497 45.3297C20.4497 46.4291 21.3392 47.3204 22.4364 47.3204Z" fill="white"/>
<path d="M36.9863 41.9915C38.0835 41.9915 38.973 41.1002 38.973 40.0008C38.973 38.9014 38.0835 38.0101 36.9863 38.0101C35.889 38.0101 34.9995 38.9014 34.9995 40.0008C34.9995 41.1002 35.889 41.9915 36.9863 41.9915Z" fill="white"/>
<path d="M13.8817 21.829C5.79926 21.829 -8.16484 42.5753 12.0443 48.6477" stroke="white" stroke-width="2" stroke-miterlimit="10"/>
<path d="M50.3865 40.8188C56.3281 51.1044 43.1891 53.5541 36.2424 40.704C14.5844 44.1081 -8.74198 11.1949 10.2802 6.9543" stroke="white" stroke-width="2" stroke-miterlimit="10"/>
<path d="M22.353 9.0307C22.353 9.0307 44.3909 9.27505 45.8649 32.2175" stroke="white" stroke-width="2" stroke-miterlimit="10"/>
<path d="M24.8022 24.4086C24.8022 24.4086 38.5212 22.6996 44.8859 13.6689" stroke="white" stroke-width="2" stroke-miterlimit="10"/>
<path d="M36.3143 7.3217C34.5994 6.37195 44.7792 -4.02301 44.7325 6.44031" stroke="white" stroke-width="2" stroke-miterlimit="10"/>
<path d="M17.7555 29.1829C17.7555 29.1829 16.531 40.1669 22.1645 44.8037" stroke="white" stroke-width="2" stroke-miterlimit="10"/>
<path d="M92.189 14.27C89.9399 14.27 88.1854 15.1951 86.9253 17.0454C85.6652 18.8797 85.0352 21.4159 85.0352 24.6538C85.0352 31.3849 87.5952 34.7505 92.7153 34.7505C94.2625 34.7505 95.7619 34.5352 97.2134 34.1045C98.6649 33.6738 100.124 33.1554 101.592 32.5493V40.5405C98.6729 41.8325 95.3711 42.4785 91.6865 42.4785C86.4069 42.4785 82.3555 40.9473 79.5322 37.8848C76.7249 34.8223 75.3213 30.396 75.3213 24.606C75.3213 20.9852 75.9992 17.8031 77.355 15.0596C78.7267 12.3161 80.6886 10.2106 83.2407 8.74316C85.8088 7.25977 88.8234 6.51807 92.2847 6.51807C96.0649 6.51807 99.6777 7.33952 103.123 8.98242L100.228 16.4233C98.936 15.8172 97.644 15.3068 96.3521 14.8921C95.0601 14.4774 93.6724 14.27 92.189 14.27ZM117.287 42H107.932V14.8921H117.287V42ZM107.693 8.14502C107.693 6.74137 108.084 5.69661 108.865 5.01074C109.647 4.32487 110.907 3.98193 112.646 3.98193C114.384 3.98193 115.652 4.33285 116.45 5.03467C117.247 5.73649 117.646 6.77327 117.646 8.14502C117.646 10.8885 115.979 12.2603 112.646 12.2603C109.344 12.2603 107.693 10.8885 107.693 8.14502ZM130.925 42L120.589 14.8921H130.351L134.944 30.9224C134.96 31.0021 134.992 31.1377 135.04 31.3291C135.088 31.5205 135.136 31.7518 135.184 32.0229C135.231 32.2782 135.271 32.5573 135.303 32.8604C135.351 33.1475 135.375 33.4186 135.375 33.6738H135.542C135.542 32.8444 135.686 31.9432 135.973 30.9702L140.782 14.8921H150.52L140.184 42H130.925ZM163.177 42H153.822V14.8921H163.177V42ZM153.583 8.14502C153.583 6.74137 153.973 5.69661 154.755 5.01074C155.536 4.32487 156.797 3.98193 158.535 3.98193C160.274 3.98193 161.542 4.33285 162.339 5.03467C163.137 5.73649 163.536 6.77327 163.536 8.14502C163.536 10.8885 161.869 12.2603 158.535 12.2603C155.233 12.2603 153.583 10.8885 153.583 8.14502ZM182.054 42.4785C177.62 42.4785 174.254 41.2822 171.958 38.8896C169.677 36.4971 168.536 33.0597 168.536 28.5776C168.536 24.0796 169.772 20.5944 172.245 18.1221C174.717 15.6497 178.234 14.4136 182.796 14.4136C185.938 14.4136 188.897 15.0994 191.672 16.4712L188.921 23.3857C187.788 22.8913 186.744 22.5005 185.787 22.2134C184.83 21.9103 183.833 21.7588 182.796 21.7588C181.281 21.7588 180.108 22.349 179.279 23.5293C178.449 24.7096 178.035 26.3765 178.035 28.5298C178.035 32.8683 179.638 35.0376 182.844 35.0376C185.587 35.0376 188.219 34.2401 190.739 32.645V40.0859C188.331 41.681 185.436 42.4785 182.054 42.4785ZM209.593 42H203.875V11.9253H193.586V7.02051H219.881V11.9253H209.593V42ZM236.222 42.4785C232.107 42.4785 228.885 41.2822 226.556 38.8896C224.243 36.4811 223.087 33.1714 223.087 28.9604C223.087 24.6379 224.164 21.2404 226.317 18.7681C228.47 16.2957 231.429 15.0596 235.193 15.0596C238.687 15.0596 241.446 16.1203 243.472 18.2417C245.497 20.3631 246.51 23.2821 246.51 26.9985V30.0371H228.877C228.957 32.6051 229.651 34.583 230.958 35.9707C232.266 37.3424 234.109 38.0283 236.485 38.0283C238.049 38.0283 239.5 37.8848 240.84 37.5977C242.196 37.2946 243.647 36.8001 245.194 36.1143V40.6841C243.823 41.3381 242.435 41.8006 241.031 42.0718C239.628 42.3429 238.025 42.4785 236.222 42.4785ZM235.193 19.3184C233.407 19.3184 231.971 19.8846 230.887 21.0171C229.818 22.1496 229.18 23.8005 228.973 25.9697H240.983C240.951 23.7845 240.425 22.1336 239.404 21.0171C238.383 19.8846 236.98 19.3184 235.193 19.3184ZM263.569 42.4785C259.566 42.4785 256.519 41.3141 254.43 38.9854C252.356 36.6406 251.319 33.283 251.319 28.9126C251.319 24.4624 252.404 21.041 254.573 18.6484C256.758 16.2559 259.909 15.0596 264.024 15.0596C266.815 15.0596 269.327 15.578 271.561 16.6147L269.862 21.1367C267.485 20.2116 265.523 19.749 263.976 19.749C259.398 19.749 257.109 22.7876 257.109 28.8647C257.109 31.8315 257.676 34.0646 258.808 35.564C259.957 37.0474 261.631 37.7891 263.833 37.7891C266.337 37.7891 268.705 37.167 270.938 35.9229V40.8276C269.934 41.4178 268.857 41.8405 267.708 42.0957C266.576 42.3509 265.196 42.4785 263.569 42.4785ZM300.439 42H294.792V25.7305C294.792 23.6888 294.378 22.1655 293.548 21.1606C292.735 20.1558 291.435 19.6533 289.648 19.6533C287.288 19.6533 285.549 20.3631 284.433 21.7827C283.332 23.1864 282.782 25.547 282.782 28.8647V42H277.159V4.77148H282.782V14.2222C282.782 15.7375 282.686 17.3564 282.495 19.0791H282.854C283.619 17.8031 284.68 16.8141 286.036 16.1123C287.407 15.4105 289.002 15.0596 290.821 15.0596C297.233 15.0596 300.439 18.2896 300.439 24.7495V42ZM338.002 42H328.504V27.7402H317.522V42H308.023V7.02051H317.522V19.9883H328.504V7.02051H338.002V42ZM364.345 42L363.172 38.6265H362.622C361.84 39.8706 360.748 40.8276 359.344 41.4976C357.957 42.1515 356.322 42.4785 354.439 42.4785C351.457 42.4785 349.136 41.6172 347.477 39.8945C345.818 38.1559 344.989 35.7075 344.989 32.5493V14.8921H354.344V29.7021C354.344 31.4727 354.591 32.8125 355.085 33.7217C355.596 34.6309 356.425 35.0854 357.574 35.0854C359.185 35.0854 360.333 34.4554 361.019 33.1953C361.705 31.9193 362.048 29.7739 362.048 26.7593V14.8921H371.403V42H364.345ZM394.419 14.4136C397.37 14.4136 399.707 15.6497 401.43 18.1221C403.168 20.5944 404.038 24.0158 404.038 28.3862C404.038 32.7886 403.16 36.2419 401.406 38.7461C399.667 41.2344 397.243 42.4785 394.132 42.4785C393.127 42.4785 392.234 42.3669 391.453 42.1436C390.671 41.9362 389.969 41.6411 389.347 41.2583C388.741 40.8755 388.031 40.2375 387.218 39.3442H386.644L385.16 42H377.863V4.77148H387.218V13.1934C387.218 14.1982 387.106 15.9289 386.883 18.3853H387.218C388.127 16.9816 389.172 15.9688 390.352 15.3467C391.548 14.7246 392.904 14.4136 394.419 14.4136ZM390.998 21.7588C389.69 21.7588 388.733 22.2134 388.127 23.1226C387.521 24.0317 387.218 25.4593 387.218 27.4053V28.7212C387.218 30.9383 387.521 32.5334 388.127 33.5063C388.733 34.4634 389.722 34.9419 391.094 34.9419C392.194 34.9419 393.04 34.3836 393.63 33.2671C394.22 32.1346 394.515 30.4757 394.515 28.2905C394.515 23.936 393.343 21.7588 390.998 21.7588Z" fill="#0B0B0B"/>
<path d="M86.9482 60H84.2236V49.418H80.7344V47.1504H90.4375V49.418H86.9482V60ZM94.3398 55.0693C94.3398 56.042 94.498 56.7773 94.8145 57.2754C95.1367 57.7734 95.6582 58.0225 96.3789 58.0225C97.0938 58.0225 97.6064 57.7764 97.917 57.2842C98.2334 56.7861 98.3916 56.0479 98.3916 55.0693C98.3916 54.0967 98.2334 53.3672 97.917 52.8809C97.6006 52.3945 97.082 52.1514 96.3613 52.1514C95.6465 52.1514 95.1309 52.3945 94.8145 52.8809C94.498 53.3613 94.3398 54.0908 94.3398 55.0693ZM101.134 55.0693C101.134 56.6689 100.712 57.9199 99.8682 58.8223C99.0244 59.7246 97.8496 60.1758 96.3438 60.1758C95.4004 60.1758 94.5684 59.9707 93.8477 59.5605C93.127 59.1445 92.5732 58.5498 92.1865 57.7764C91.7998 57.0029 91.6064 56.1006 91.6064 55.0693C91.6064 53.4639 92.0254 52.2158 92.8633 51.3252C93.7012 50.4346 94.8789 49.9893 96.3965 49.9893C97.3398 49.9893 98.1719 50.1943 98.8926 50.6045C99.6133 51.0146 100.167 51.6035 100.554 52.3711C100.94 53.1387 101.134 54.0381 101.134 55.0693ZM111.9 50.1738V51.5361L110.362 51.9316C110.644 52.3711 110.784 52.8633 110.784 53.4082C110.784 54.4629 110.415 55.2861 109.677 55.8779C108.944 56.4639 107.925 56.7568 106.618 56.7568L106.135 56.7305L105.739 56.6865C105.464 56.8975 105.326 57.1318 105.326 57.3896C105.326 57.7764 105.818 57.9697 106.803 57.9697H108.473C109.551 57.9697 110.371 58.2012 110.934 58.6641C111.502 59.127 111.786 59.8066 111.786 60.7031C111.786 61.8516 111.306 62.7422 110.345 63.375C109.39 64.0078 108.016 64.3242 106.223 64.3242C104.852 64.3242 103.803 64.084 103.076 63.6035C102.355 63.1289 101.995 62.4609 101.995 61.5996C101.995 61.0078 102.18 60.5127 102.549 60.1143C102.918 59.7158 103.46 59.4316 104.175 59.2617C103.899 59.1445 103.659 58.9541 103.454 58.6904C103.249 58.4209 103.146 58.1367 103.146 57.8379C103.146 57.4629 103.255 57.1523 103.472 56.9062C103.688 56.6543 104.002 56.4082 104.412 56.168C103.896 55.9453 103.486 55.5879 103.182 55.0957C102.883 54.6035 102.733 54.0234 102.733 53.3555C102.733 52.2832 103.082 51.4541 103.779 50.8682C104.477 50.2822 105.473 49.9893 106.768 49.9893C107.043 49.9893 107.368 50.0156 107.743 50.0684C108.124 50.1152 108.367 50.1504 108.473 50.1738H111.9ZM104.315 61.3887C104.315 61.7578 104.491 62.0479 104.843 62.2588C105.2 62.4697 105.698 62.5752 106.337 62.5752C107.298 62.5752 108.051 62.4434 108.596 62.1797C109.141 61.916 109.413 61.5557 109.413 61.0986C109.413 60.7295 109.252 60.4746 108.93 60.334C108.607 60.1934 108.109 60.123 107.436 60.123H106.047C105.555 60.123 105.142 60.2373 104.808 60.4658C104.479 60.7002 104.315 61.0078 104.315 61.3887ZM105.291 53.3906C105.291 53.9238 105.411 54.3457 105.651 54.6562C105.897 54.9668 106.27 55.1221 106.768 55.1221C107.271 55.1221 107.641 54.9668 107.875 54.6562C108.109 54.3457 108.227 53.9238 108.227 53.3906C108.227 52.207 107.74 51.6152 106.768 51.6152C105.783 51.6152 105.291 52.207 105.291 53.3906ZM117.596 51.8965C117.027 51.8965 116.582 52.0781 116.26 52.4414C115.938 52.7988 115.753 53.3086 115.706 53.9707H119.468C119.456 53.3086 119.283 52.7988 118.949 52.4414C118.615 52.0781 118.164 51.8965 117.596 51.8965ZM117.974 60.1758C116.392 60.1758 115.155 59.7393 114.265 58.8662C113.374 57.9932 112.929 56.7568 112.929 55.1572C112.929 53.5107 113.339 52.2393 114.159 51.3428C114.985 50.4404 116.125 49.9893 117.578 49.9893C118.967 49.9893 120.048 50.3848 120.821 51.1758C121.595 51.9668 121.981 53.0596 121.981 54.4541V55.7549H115.645C115.674 56.5166 115.899 57.1113 116.321 57.5391C116.743 57.9668 117.335 58.1807 118.097 58.1807C118.688 58.1807 119.248 58.1191 119.775 57.9961C120.303 57.873 120.854 57.6768 121.428 57.4072V59.4814C120.959 59.7158 120.458 59.8887 119.925 60C119.392 60.1172 118.741 60.1758 117.974 60.1758ZM128.301 58.04C128.77 58.04 129.332 57.9375 129.988 57.7324V59.7275C129.32 60.0264 128.5 60.1758 127.527 60.1758C126.455 60.1758 125.673 59.9062 125.181 59.3672C124.694 58.8223 124.451 58.0078 124.451 56.9238V52.1865H123.168V51.0527L124.645 50.1562L125.418 48.082H127.132V50.1738H129.883V52.1865H127.132V56.9238C127.132 57.3047 127.237 57.5859 127.448 57.7676C127.665 57.9492 127.949 58.04 128.301 58.04ZM141.054 60H138.373V54.2607C138.373 52.8428 137.846 52.1338 136.791 52.1338C136.041 52.1338 135.499 52.3887 135.165 52.8984C134.831 53.4082 134.664 54.2344 134.664 55.377V60H131.983V46.3242H134.664V49.1104C134.664 49.3271 134.644 49.8369 134.603 50.6396L134.541 51.4307H134.682C135.279 50.4697 136.229 49.9893 137.529 49.9893C138.684 49.9893 139.56 50.2998 140.157 50.9209C140.755 51.542 141.054 52.4326 141.054 53.5928V60ZM147.883 51.8965C147.314 51.8965 146.869 52.0781 146.547 52.4414C146.225 52.7988 146.04 53.3086 145.993 53.9707H149.755C149.743 53.3086 149.57 52.7988 149.236 52.4414C148.902 52.0781 148.451 51.8965 147.883 51.8965ZM148.261 60.1758C146.679 60.1758 145.442 59.7393 144.552 58.8662C143.661 57.9932 143.216 56.7568 143.216 55.1572C143.216 53.5107 143.626 52.2393 144.446 51.3428C145.272 50.4404 146.412 49.9893 147.865 49.9893C149.254 49.9893 150.335 50.3848 151.108 51.1758C151.882 51.9668 152.269 53.0596 152.269 54.4541V55.7549H145.932C145.961 56.5166 146.187 57.1113 146.608 57.5391C147.03 57.9668 147.622 58.1807 148.384 58.1807C148.976 58.1807 149.535 58.1191 150.062 57.9961C150.59 57.873 151.141 57.6768 151.715 57.4072V59.4814C151.246 59.7158 150.745 59.8887 150.212 60C149.679 60.1172 149.028 60.1758 148.261 60.1758ZM159.933 49.9893C160.296 49.9893 160.598 50.0156 160.838 50.0684L160.636 52.582C160.419 52.5234 160.155 52.4941 159.845 52.4941C158.989 52.4941 158.321 52.7139 157.841 53.1533C157.366 53.5928 157.129 54.208 157.129 54.999V60H154.448V50.1738H156.479L156.874 51.8262H157.006C157.311 51.2754 157.721 50.833 158.236 50.499C158.758 50.1592 159.323 49.9893 159.933 49.9893ZM180.024 60H176.922L175.182 53.25C175.117 53.0098 175.006 52.5146 174.848 51.7646C174.695 51.0088 174.607 50.502 174.584 50.2441C174.549 50.5605 174.461 51.0703 174.32 51.7734C174.18 52.4707 174.071 52.9688 173.995 53.2676L172.264 60H169.17L165.892 47.1504H168.572L170.216 54.1641C170.503 55.459 170.711 56.5811 170.84 57.5303C170.875 57.1963 170.954 56.6807 171.077 55.9834C171.206 55.2803 171.326 54.7354 171.438 54.3486L173.31 47.1504H175.885L177.757 54.3486C177.839 54.6709 177.941 55.1631 178.064 55.8252C178.188 56.4873 178.281 57.0557 178.346 57.5303C178.404 57.0732 178.498 56.5049 178.627 55.8252C178.756 55.1396 178.873 54.5859 178.979 54.1641L180.613 47.1504H183.294L180.024 60ZM188.77 51.8965C188.201 51.8965 187.756 52.0781 187.434 52.4414C187.111 52.7988 186.927 53.3086 186.88 53.9707H190.642C190.63 53.3086 190.457 52.7988 190.123 52.4414C189.789 52.0781 189.338 51.8965 188.77 51.8965ZM189.147 60.1758C187.565 60.1758 186.329 59.7393 185.438 58.8662C184.548 57.9932 184.103 56.7568 184.103 55.1572C184.103 53.5107 184.513 52.2393 185.333 51.3428C186.159 50.4404 187.299 49.9893 188.752 49.9893C190.141 49.9893 191.222 50.3848 191.995 51.1758C192.769 51.9668 193.155 53.0596 193.155 54.4541V55.7549H186.818C186.848 56.5166 187.073 57.1113 187.495 57.5391C187.917 57.9668 188.509 58.1807 189.271 58.1807C189.862 58.1807 190.422 58.1191 190.949 57.9961C191.477 57.873 192.027 57.6768 192.602 57.4072V59.4814C192.133 59.7158 191.632 59.8887 191.099 60C190.565 60.1172 189.915 60.1758 189.147 60.1758ZM205.68 49.2334C204.654 49.2334 203.86 49.6201 203.298 50.3936C202.735 51.1611 202.454 52.2334 202.454 53.6104C202.454 56.4756 203.529 57.9082 205.68 57.9082C206.582 57.9082 207.675 57.6826 208.958 57.2314V59.5166C207.903 59.9561 206.726 60.1758 205.425 60.1758C203.556 60.1758 202.126 59.6104 201.136 58.4795C200.146 57.3428 199.65 55.7139 199.65 53.5928C199.65 52.2568 199.894 51.0879 200.38 50.0859C200.866 49.0781 201.563 48.3076 202.472 47.7744C203.386 47.2354 204.455 46.9658 205.68 46.9658C206.928 46.9658 208.182 47.2676 209.441 47.8711L208.562 50.0859C208.082 49.8574 207.599 49.6582 207.112 49.4883C206.626 49.3184 206.148 49.2334 205.68 49.2334ZM217.729 60L217.211 58.6641H217.141C216.689 59.2324 216.224 59.6279 215.743 59.8506C215.269 60.0674 214.647 60.1758 213.88 60.1758C212.937 60.1758 212.192 59.9062 211.647 59.3672C211.108 58.8281 210.839 58.0605 210.839 57.0645C210.839 56.0215 211.202 55.2539 211.929 54.7617C212.661 54.2637 213.763 53.9883 215.233 53.9355L216.938 53.8828V53.4521C216.938 52.4561 216.429 51.958 215.409 51.958C214.624 51.958 213.701 52.1953 212.641 52.6699L211.753 50.8594C212.884 50.2676 214.138 49.9717 215.515 49.9717C216.833 49.9717 217.844 50.2588 218.547 50.833C219.25 51.4072 219.602 52.2803 219.602 53.4521V60H217.729ZM216.938 55.4473L215.901 55.4824C215.122 55.5059 214.542 55.6465 214.161 55.9043C213.78 56.1621 213.59 56.5547 213.59 57.082C213.59 57.8379 214.023 58.2158 214.891 58.2158C215.512 58.2158 216.007 58.0371 216.376 57.6797C216.751 57.3223 216.938 56.8477 216.938 56.2559V55.4473ZM231.44 60H228.76V54.2607C228.76 53.5518 228.634 53.0215 228.382 52.6699C228.13 52.3125 227.729 52.1338 227.178 52.1338C226.428 52.1338 225.886 52.3857 225.552 52.8896C225.218 53.3877 225.051 54.2168 225.051 55.377V60H222.37V50.1738H224.418L224.778 51.4307H224.928C225.227 50.9561 225.637 50.5986 226.158 50.3584C226.686 50.1123 227.283 49.9893 227.951 49.9893C229.094 49.9893 229.961 50.2998 230.553 50.9209C231.145 51.5361 231.44 52.4268 231.44 53.5928V60ZM246.672 56.4316C246.672 57.5918 246.253 58.5059 245.415 59.1738C244.583 59.8418 243.423 60.1758 241.935 60.1758C240.563 60.1758 239.351 59.918 238.296 59.4023V56.8711C239.163 57.2578 239.896 57.5303 240.493 57.6885C241.097 57.8467 241.647 57.9258 242.146 57.9258C242.743 57.9258 243.2 57.8115 243.517 57.583C243.839 57.3545 244 57.0146 244 56.5635C244 56.3115 243.93 56.0889 243.789 55.8955C243.648 55.6963 243.44 55.5059 243.165 55.3242C242.896 55.1426 242.342 54.8525 241.504 54.4541C240.719 54.085 240.13 53.7305 239.737 53.3906C239.345 53.0508 239.031 52.6553 238.797 52.2041C238.562 51.7529 238.445 51.2256 238.445 50.6221C238.445 49.4854 238.829 48.5918 239.597 47.9414C240.37 47.291 241.437 46.9658 242.796 46.9658C243.464 46.9658 244.1 47.0449 244.703 47.2031C245.312 47.3613 245.948 47.584 246.61 47.8711L245.731 49.9893C245.046 49.708 244.478 49.5117 244.026 49.4004C243.581 49.2891 243.142 49.2334 242.708 49.2334C242.192 49.2334 241.797 49.3535 241.521 49.5938C241.246 49.834 241.108 50.1475 241.108 50.5342C241.108 50.7744 241.164 50.9854 241.275 51.167C241.387 51.3428 241.562 51.5156 241.803 51.6855C242.049 51.8496 242.626 52.1484 243.534 52.582C244.735 53.1562 245.559 53.7334 246.004 54.3135C246.449 54.8877 246.672 55.5938 246.672 56.4316ZM255.751 60L255.391 58.7432H255.25C254.963 59.2002 254.556 59.5547 254.028 59.8066C253.501 60.0527 252.9 60.1758 252.227 60.1758C251.072 60.1758 250.202 59.8682 249.616 59.2529C249.03 58.6318 248.737 57.7412 248.737 56.5811V50.1738H251.418V55.9131C251.418 56.6221 251.544 57.1553 251.796 57.5127C252.048 57.8643 252.449 58.04 253 58.04C253.75 58.04 254.292 57.791 254.626 57.293C254.96 56.7891 255.127 55.957 255.127 54.7969V50.1738H257.808V60H255.751ZM266.104 49.9893C266.468 49.9893 266.77 50.0156 267.01 50.0684L266.808 52.582C266.591 52.5234 266.327 52.4941 266.017 52.4941C265.161 52.4941 264.493 52.7139 264.013 53.1533C263.538 53.5928 263.301 54.208 263.301 54.999V60H260.62V50.1738H262.65L263.046 51.8262H263.178C263.482 51.2754 263.893 50.833 264.408 50.499C264.93 50.1592 265.495 49.9893 266.104 49.9893ZM271.132 60L267.388 50.1738H270.191L272.09 55.7725C272.301 56.4814 272.433 57.1523 272.485 57.7852H272.538C272.567 57.2227 272.699 56.5518 272.934 55.7725L274.823 50.1738H277.627L273.883 60H271.132ZM278.928 47.6338C278.928 46.7607 279.414 46.3242 280.387 46.3242C281.359 46.3242 281.846 46.7607 281.846 47.6338C281.846 48.0498 281.723 48.375 281.477 48.6094C281.236 48.8379 280.873 48.9521 280.387 48.9521C279.414 48.9521 278.928 48.5127 278.928 47.6338ZM281.723 60H279.042V50.1738H281.723V60ZM286.882 60L283.138 50.1738H285.941L287.84 55.7725C288.051 56.4814 288.183 57.1523 288.235 57.7852H288.288C288.317 57.2227 288.449 56.5518 288.684 55.7725L290.573 50.1738H293.377L289.633 60H286.882ZM298.861 51.8965C298.293 51.8965 297.848 52.0781 297.525 52.4414C297.203 52.7988 297.019 53.3086 296.972 53.9707H300.733C300.722 53.3086 300.549 52.7988 300.215 52.4414C299.881 52.0781 299.43 51.8965 298.861 51.8965ZM299.239 60.1758C297.657 60.1758 296.421 59.7393 295.53 58.8662C294.64 57.9932 294.194 56.7568 294.194 55.1572C294.194 53.5107 294.604 52.2393 295.425 51.3428C296.251 50.4404 297.391 49.9893 298.844 49.9893C300.232 49.9893 301.313 50.3848 302.087 51.1758C302.86 51.9668 303.247 53.0596 303.247 54.4541V55.7549H296.91C296.939 56.5166 297.165 57.1113 297.587 57.5391C298.009 57.9668 298.601 58.1807 299.362 58.1807C299.954 58.1807 300.514 58.1191 301.041 57.9961C301.568 57.873 302.119 57.6768 302.693 57.4072V59.4814C302.225 59.7158 301.724 59.8887 301.19 60C300.657 60.1172 300.007 60.1758 299.239 60.1758ZM315.271 60H312.546V49.418H309.057V47.1504H318.76V49.418H315.271V60ZM329.597 60H326.916V54.2607C326.916 52.8428 326.389 52.1338 325.334 52.1338C324.584 52.1338 324.042 52.3887 323.708 52.8984C323.374 53.4082 323.207 54.2344 323.207 55.377V60H320.526V46.3242H323.207V49.1104C323.207 49.3271 323.187 49.8369 323.146 50.6396L323.084 51.4307H323.225C323.822 50.4697 324.771 49.9893 326.072 49.9893C327.227 49.9893 328.103 50.2998 328.7 50.9209C329.298 51.542 329.597 52.4326 329.597 53.5928V60ZM332.242 47.6338C332.242 46.7607 332.729 46.3242 333.701 46.3242C334.674 46.3242 335.16 46.7607 335.16 47.6338C335.16 48.0498 335.037 48.375 334.791 48.6094C334.551 48.8379 334.188 48.9521 333.701 48.9521C332.729 48.9521 332.242 48.5127 332.242 47.6338ZM335.037 60H332.356V50.1738H335.037V60ZM344.714 57.082C344.714 58.0898 344.362 58.8574 343.659 59.3848C342.962 59.9121 341.916 60.1758 340.521 60.1758C339.807 60.1758 339.197 60.126 338.693 60.0264C338.189 59.9326 337.718 59.792 337.278 59.6045V57.3896C337.776 57.624 338.336 57.8203 338.957 57.9785C339.584 58.1367 340.135 58.2158 340.609 58.2158C341.582 58.2158 342.068 57.9346 342.068 57.3721C342.068 57.1611 342.004 56.9912 341.875 56.8623C341.746 56.7275 341.523 56.5781 341.207 56.4141C340.891 56.2441 340.469 56.0479 339.941 55.8252C339.186 55.5088 338.629 55.2158 338.271 54.9463C337.92 54.6768 337.662 54.3691 337.498 54.0234C337.34 53.6719 337.261 53.2412 337.261 52.7314C337.261 51.8584 337.598 51.1846 338.271 50.71C338.951 50.2295 339.912 49.9893 341.154 49.9893C342.338 49.9893 343.489 50.2471 344.608 50.7627L343.8 52.6963C343.308 52.4854 342.848 52.3125 342.42 52.1777C341.992 52.043 341.556 51.9756 341.11 51.9756C340.319 51.9756 339.924 52.1895 339.924 52.6172C339.924 52.8574 340.05 53.0654 340.302 53.2412C340.56 53.417 341.119 53.6777 341.98 54.0234C342.748 54.334 343.311 54.624 343.668 54.8936C344.025 55.1631 344.289 55.4736 344.459 55.8252C344.629 56.1768 344.714 56.5957 344.714 57.082ZM357.15 49.2334C356.125 49.2334 355.331 49.6201 354.769 50.3936C354.206 51.1611 353.925 52.2334 353.925 53.6104C353.925 56.4756 355 57.9082 357.15 57.9082C358.053 57.9082 359.146 57.6826 360.429 57.2314V59.5166C359.374 59.9561 358.196 60.1758 356.896 60.1758C355.026 60.1758 353.597 59.6104 352.606 58.4795C351.616 57.3428 351.121 55.7139 351.121 53.5928C351.121 52.2568 351.364 51.0879 351.851 50.0859C352.337 49.0781 353.034 48.3076 353.942 47.7744C354.856 47.2354 355.926 46.9658 357.15 46.9658C358.398 46.9658 359.652 47.2676 360.912 47.8711L360.033 50.0859C359.553 49.8574 359.069 49.6582 358.583 49.4883C358.097 49.3184 357.619 49.2334 357.15 49.2334ZM368.444 49.9893C368.808 49.9893 369.109 50.0156 369.35 50.0684L369.147 52.582C368.931 52.5234 368.667 52.4941 368.356 52.4941C367.501 52.4941 366.833 52.7139 366.353 53.1533C365.878 53.5928 365.641 54.208 365.641 54.999V60H362.96V50.1738H364.99L365.386 51.8262H365.518C365.822 51.2754 366.232 50.833 366.748 50.499C367.27 50.1592 367.835 49.9893 368.444 49.9893ZM371.02 47.6338C371.02 46.7607 371.506 46.3242 372.479 46.3242C373.451 46.3242 373.938 46.7607 373.938 47.6338C373.938 48.0498 373.814 48.375 373.568 48.6094C373.328 48.8379 372.965 48.9521 372.479 48.9521C371.506 48.9521 371.02 48.5127 371.02 47.6338ZM373.814 60H371.134V50.1738H373.814V60ZM383.491 57.082C383.491 58.0898 383.14 58.8574 382.437 59.3848C381.739 59.9121 380.693 60.1758 379.299 60.1758C378.584 60.1758 377.975 60.126 377.471 60.0264C376.967 59.9326 376.495 59.792 376.056 59.6045V57.3896C376.554 57.624 377.113 57.8203 377.734 57.9785C378.361 58.1367 378.912 58.2158 379.387 58.2158C380.359 58.2158 380.846 57.9346 380.846 57.3721C380.846 57.1611 380.781 56.9912 380.652 56.8623C380.523 56.7275 380.301 56.5781 379.984 56.4141C379.668 56.2441 379.246 56.0479 378.719 55.8252C377.963 55.5088 377.406 55.2158 377.049 54.9463C376.697 54.6768 376.439 54.3691 376.275 54.0234C376.117 53.6719 376.038 53.2412 376.038 52.7314C376.038 51.8584 376.375 51.1846 377.049 50.71C377.729 50.2295 378.689 49.9893 379.932 49.9893C381.115 49.9893 382.267 50.2471 383.386 50.7627L382.577 52.6963C382.085 52.4854 381.625 52.3125 381.197 52.1777C380.77 52.043 380.333 51.9756 379.888 51.9756C379.097 51.9756 378.701 52.1895 378.701 52.6172C378.701 52.8574 378.827 53.0654 379.079 53.2412C379.337 53.417 379.896 53.6777 380.758 54.0234C381.525 54.334 382.088 54.624 382.445 54.8936C382.803 55.1631 383.066 55.4736 383.236 55.8252C383.406 56.1768 383.491 56.5957 383.491 57.082ZM385.469 47.6338C385.469 46.7607 385.955 46.3242 386.928 46.3242C387.9 46.3242 388.387 46.7607 388.387 47.6338C388.387 48.0498 388.264 48.375 388.018 48.6094C387.777 48.8379 387.414 48.9521 386.928 48.9521C385.955 48.9521 385.469 48.5127 385.469 47.6338ZM388.264 60H385.583V50.1738H388.264V60ZM397.94 57.082C397.94 58.0898 397.589 58.8574 396.886 59.3848C396.188 59.9121 395.143 60.1758 393.748 60.1758C393.033 60.1758 392.424 60.126 391.92 60.0264C391.416 59.9326 390.944 59.792 390.505 59.6045V57.3896C391.003 57.624 391.562 57.8203 392.184 57.9785C392.811 58.1367 393.361 58.2158 393.836 58.2158C394.809 58.2158 395.295 57.9346 395.295 57.3721C395.295 57.1611 395.23 56.9912 395.102 56.8623C394.973 56.7275 394.75 56.5781 394.434 56.4141C394.117 56.2441 393.695 56.0479 393.168 55.8252C392.412 55.5088 391.855 55.2158 391.498 54.9463C391.146 54.6768 390.889 54.3691 390.725 54.0234C390.566 53.6719 390.487 53.2412 390.487 52.7314C390.487 51.8584 390.824 51.1846 391.498 50.71C392.178 50.2295 393.139 49.9893 394.381 49.9893C395.564 49.9893 396.716 50.2471 397.835 50.7627L397.026 52.6963C396.534 52.4854 396.074 52.3125 395.646 52.1777C395.219 52.043 394.782 51.9756 394.337 51.9756C393.546 51.9756 393.15 52.1895 393.15 52.6172C393.15 52.8574 393.276 53.0654 393.528 53.2412C393.786 53.417 394.346 53.6777 395.207 54.0234C395.975 54.334 396.537 54.624 396.895 54.8936C397.252 55.1631 397.516 55.4736 397.686 55.8252C397.855 56.1768 397.94 56.5957 397.94 57.082Z" fill="#8C8888"/>
</svg>
