<svg width="415" height="65" viewBox="0 0 415 65" fill="none" xmlns="http://www.w3.org/2000/svg">
<path d="M54 26.8542C54 41.1279 42.3645 52.7083 28 52.7083C13.6355 52.7083 2 41.1279 2 26.8542C2 12.5804 13.6355 1 28 1C42.3645 1 54 12.5804 54 26.8542Z" fill="#EAEAEA" fill-opacity="0.2" stroke="white" stroke-width="2"/>
<path d="M22.6264 11.5246C23.7236 11.5246 24.6131 10.6351 24.6131 9.53783C24.6131 8.44058 23.7236 7.55109 22.6264 7.55109C21.5291 7.55109 20.6396 8.44058 20.6396 9.53783C20.6396 10.6351 21.5291 11.5246 22.6264 11.5246Z" fill="white"/>
<path d="M22.5043 7.71323C22.8411 7.71323 23.1703 7.81309 23.4503 8.00018C23.7303 8.18727 23.9485 8.4532 24.0774 8.76432C24.2063 9.07545 24.24 9.4178 24.1743 9.74809C24.1086 10.0784 23.9464 10.3818 23.7083 10.6199C23.4702 10.858 23.1668 11.0202 22.8365 11.0859C22.5062 11.1516 22.1639 11.1179 21.8527 10.989C21.5416 10.8601 21.2757 10.6419 21.0886 10.3619C20.9015 10.0819 20.8016 9.75267 20.8016 9.41591C20.8016 9.19231 20.8457 8.9709 20.9313 8.76432C21.0168 8.55774 21.1422 8.37004 21.3003 8.21193C21.4584 8.05383 21.6462 7.92841 21.8527 7.84284C22.0593 7.75727 22.2807 7.71323 22.5043 7.71323V7.71323ZM22.5043 7.42917C22.1114 7.42917 21.7273 7.54569 21.4005 7.76399C21.0738 7.9823 20.8192 8.29259 20.6688 8.65562C20.5184 9.01865 20.4791 9.41811 20.5558 9.8035C20.6324 10.1889 20.8216 10.5429 21.0995 10.8207C21.3773 11.0986 21.7313 11.2878 22.1167 11.3645C22.5021 11.4411 22.9016 11.4018 23.2646 11.2514C23.6276 11.101 23.9379 10.8464 24.1562 10.5197C24.3745 10.193 24.4911 9.80885 24.4911 9.41591C24.4911 8.88899 24.2817 8.38366 23.9091 8.01107C23.5366 7.63848 23.0312 7.42917 22.5043 7.42917Z" fill="white"/>
<path d="M36.5859 8.49594C37.6831 8.49594 38.5726 7.60645 38.5726 6.5092C38.5726 5.41196 37.6831 4.52246 36.5859 4.52246C35.4886 4.52246 34.5991 5.41196 34.5991 6.5092C34.5991 7.60645 35.4886 8.49594 36.5859 8.49594Z" fill="white"/>
<path d="M45.1591 16.1537C46.2564 16.1537 47.1458 15.2642 47.1458 14.1669C47.1458 13.0697 46.2564 12.1802 45.1591 12.1802C44.0619 12.1802 43.1724 13.0697 43.1724 14.1669C43.1724 15.2642 44.0619 16.1537 45.1591 16.1537Z" fill="white"/>
<path d="M45.037 12.3423C45.3738 12.3423 45.703 12.4422 45.983 12.6292C46.263 12.8163 46.4812 13.0823 46.6101 13.3934C46.739 13.7045 46.7727 14.0469 46.707 14.3771C46.6413 14.7074 46.4791 15.0108 46.241 15.2489C46.0029 15.4871 45.6995 15.6492 45.3692 15.7149C45.0389 15.7806 44.6966 15.7469 44.3854 15.618C44.0743 15.4892 43.8084 15.2709 43.6213 14.9909C43.4342 14.7109 43.3343 14.3817 43.3343 14.045C43.3343 13.5934 43.5137 13.1603 43.8331 12.841C44.1524 12.5217 44.5855 12.3423 45.037 12.3423ZM45.037 12.0582C44.6441 12.0582 44.26 12.1748 43.9332 12.3931C43.6065 12.6114 43.3519 12.9216 43.2015 13.2847C43.0512 13.6477 43.0118 14.0472 43.0885 14.4326C43.1651 14.818 43.3543 15.172 43.6322 15.4498C43.91 15.7277 44.264 15.9169 44.6494 15.9935C45.0348 16.0702 45.4343 16.0308 45.7973 15.8805C46.1604 15.7301 46.4706 15.4755 46.6889 15.1487C46.9072 14.822 47.0238 14.4379 47.0238 14.045C47.0238 13.5181 46.8145 13.0127 46.4419 12.6401C46.0693 12.2675 45.5639 12.0582 45.037 12.0582Z" fill="white"/>
<path d="M25.0756 26.8706C26.1729 26.8706 27.0623 25.9811 27.0623 24.8839C27.0623 23.7867 26.1729 22.8972 25.0756 22.8972C23.9784 22.8972 23.0889 23.7867 23.0889 24.8839C23.0889 25.9811 23.9784 26.8706 25.0756 26.8706Z" fill="white"/>
<path d="M24.9526 23.0608C25.2893 23.0608 25.6185 23.1606 25.8985 23.3477C26.1785 23.5348 26.3968 23.8007 26.5256 24.1119C26.6545 24.423 26.6882 24.7653 26.6225 25.0956C26.5568 25.4259 26.3947 25.7293 26.1565 25.9674C25.9184 26.2055 25.615 26.3677 25.2847 26.4334C24.9544 26.4991 24.6121 26.4654 24.301 26.3365C23.9898 26.2076 23.7239 25.9894 23.5368 25.7094C23.3497 25.4294 23.2499 25.1002 23.2499 24.7634C23.2499 24.3119 23.4293 23.8788 23.7486 23.5595C24.0679 23.2402 24.501 23.0608 24.9526 23.0608V23.0608ZM24.9526 22.7767C24.5596 22.7767 24.1755 22.8932 23.8488 23.1115C23.5221 23.3298 23.2674 23.6401 23.1171 24.0032C22.9667 24.3662 22.9273 24.7656 23.004 25.151C23.0807 25.5364 23.2699 25.8904 23.5477 26.1683C23.8256 26.4461 24.1796 26.6354 24.565 26.712C24.9504 26.7887 25.3498 26.7493 25.7129 26.599C26.0759 26.4486 26.3862 26.1939 26.6045 25.8672C26.8228 25.5405 26.9393 25.1564 26.9393 24.7634C26.9393 24.2365 26.73 23.7312 26.3574 23.3586C25.9848 22.986 25.4795 22.7767 24.9526 22.7767V22.7767Z" fill="white"/>
<path d="M12.829 24.2976C13.9263 24.2976 14.8158 23.4081 14.8158 22.3109C14.8158 21.2137 13.9263 20.3242 12.829 20.3242C11.7318 20.3242 10.8423 21.2137 10.8423 22.3109C10.8423 23.4081 11.7318 24.2976 12.829 24.2976Z" fill="white"/>
<path d="M18.0268 31.637C19.124 31.637 20.0135 30.7475 20.0135 29.6502C20.0135 28.553 19.124 27.6635 18.0268 27.6635C16.9295 27.6635 16.04 28.553 16.04 29.6502C16.04 30.7475 16.9295 31.637 18.0268 31.637Z" fill="white"/>
<path d="M46.1381 34.6671C47.2354 34.6671 48.1248 33.7776 48.1248 32.6803C48.1248 31.5831 47.2354 30.6936 46.1381 30.6936C45.0409 30.6936 44.1514 31.5831 44.1514 32.6803C44.1514 33.7776 45.0409 34.6671 46.1381 34.6671Z" fill="white"/>
<path d="M22.4364 47.2269C23.5337 47.2269 24.4232 46.3374 24.4232 45.2402C24.4232 44.1429 23.5337 43.2534 22.4364 43.2534C21.3392 43.2534 20.4497 44.1429 20.4497 45.2402C20.4497 46.3374 21.3392 47.2269 22.4364 47.2269Z" fill="white"/>
<path d="M36.9863 41.9085C38.0835 41.9085 38.973 41.019 38.973 39.9217C38.973 38.8245 38.0835 37.935 36.9863 37.935C35.889 37.935 34.9995 38.8245 34.9995 39.9217C34.9995 41.019 35.889 41.9085 36.9863 41.9085Z" fill="white"/>
<path d="M13.8817 21.7859C5.79926 21.7859 -8.16484 42.4912 12.0443 48.5515" stroke="white" stroke-width="2" stroke-miterlimit="10"/>
<path d="M50.3865 40.7381C56.3281 51.0034 43.1891 53.4482 36.2424 40.6235C14.5844 44.0209 -8.74198 11.1728 10.2802 6.94055" stroke="white" stroke-width="2" stroke-miterlimit="10"/>
<path d="M22.353 9.01285C22.353 9.01285 44.3909 9.25671 45.8649 32.1539" stroke="white" stroke-width="2" stroke-miterlimit="10"/>
<path d="M24.8022 24.3603C24.8022 24.3603 38.5212 22.6547 44.8859 13.6419" stroke="white" stroke-width="2" stroke-miterlimit="10"/>
<path d="M36.3143 7.30724C34.5994 6.35936 44.7792 -4.01506 44.7325 6.42758" stroke="white" stroke-width="2" stroke-miterlimit="10"/>
<path d="M17.7555 29.1252C17.7555 29.1252 16.531 40.0875 22.1645 44.7151" stroke="white" stroke-width="2" stroke-miterlimit="10"/>
<path d="M81.1353 12.6909C78.3439 12.6909 76.1826 13.7437 74.6514 15.8491C73.1201 17.9386 72.3545 20.8576 72.3545 24.606C72.3545 32.4058 75.2814 36.3057 81.1353 36.3057C83.5916 36.3057 86.5664 35.6916 90.0596 34.4634V40.6841C87.1885 41.8804 83.9824 42.4785 80.4414 42.4785C75.3532 42.4785 71.4613 40.9393 68.7656 37.8608C66.07 34.7664 64.7222 30.3322 64.7222 24.5581C64.7222 20.9214 65.3841 17.7393 66.708 15.0117C68.0319 12.2682 69.93 10.1707 72.4023 8.71924C74.8906 7.25179 77.8016 6.51807 81.1353 6.51807C84.5327 6.51807 87.9461 7.33952 91.3755 8.98242L88.9829 15.0117C87.675 14.3896 86.359 13.8473 85.0352 13.3848C83.7113 12.9222 82.4113 12.6909 81.1353 12.6909ZM96.6392 8.33643C96.6392 5.9598 97.9631 4.77148 100.611 4.77148C103.259 4.77148 104.583 5.9598 104.583 8.33643C104.583 9.46891 104.248 10.3542 103.578 10.9922C102.924 11.6143 101.935 11.9253 100.611 11.9253C97.9631 11.9253 96.6392 10.729 96.6392 8.33643ZM104.248 42H96.9502V15.251H104.248V42ZM118.292 42L108.1 15.251H115.732L120.9 30.4917C121.474 32.4217 121.833 34.248 121.977 35.9707H122.12C122.2 34.4395 122.559 32.6131 123.197 30.4917L128.341 15.251H135.973L125.781 42H118.292ZM139.514 8.33643C139.514 5.9598 140.838 4.77148 143.486 4.77148C146.134 4.77148 147.458 5.9598 147.458 8.33643C147.458 9.46891 147.123 10.3542 146.453 10.9922C145.799 11.6143 144.81 11.9253 143.486 11.9253C140.838 11.9253 139.514 10.729 139.514 8.33643ZM147.123 42H139.825V15.251H147.123V42ZM165.665 42.4785C157.339 42.4785 153.176 37.9087 153.176 28.769C153.176 24.2231 154.308 20.7539 156.573 18.3613C158.838 15.9528 162.084 14.7485 166.311 14.7485C169.405 14.7485 172.181 15.3547 174.637 16.5669L172.484 22.2134C171.335 21.7508 170.267 21.376 169.278 21.0889C168.289 20.7858 167.3 20.6343 166.311 20.6343C162.515 20.6343 160.617 23.3299 160.617 28.7212C160.617 33.953 162.515 36.5688 166.311 36.5688C167.715 36.5688 169.015 36.3854 170.211 36.0186C171.407 35.6357 172.604 35.0456 173.8 34.248V40.4927C172.619 41.2424 171.423 41.7607 170.211 42.0479C169.015 42.335 167.499 42.4785 165.665 42.4785ZM206.817 42H199.4V13.1934H189.902V7.02051H216.316V13.1934H206.817V42ZM232.203 19.9404C230.655 19.9404 229.443 20.4349 228.566 21.4238C227.689 22.3968 227.186 23.7845 227.059 25.5869H237.299C237.267 23.7845 236.796 22.3968 235.887 21.4238C234.978 20.4349 233.75 19.9404 232.203 19.9404ZM233.231 42.4785C228.925 42.4785 225.559 41.2902 223.135 38.9136C220.71 36.5369 219.498 33.1714 219.498 28.8169C219.498 24.3348 220.615 20.8735 222.848 18.4331C225.097 15.9767 228.199 14.7485 232.155 14.7485C235.935 14.7485 238.878 15.8252 240.983 17.9785C243.089 20.1318 244.142 23.1066 244.142 26.9028V30.4438H226.891C226.971 32.5174 227.585 34.1364 228.733 35.3008C229.882 36.4652 231.493 37.0474 233.566 37.0474C235.177 37.0474 236.701 36.8799 238.136 36.5449C239.572 36.21 241.071 35.6756 242.634 34.9419V40.5884C241.358 41.2264 239.994 41.6969 238.543 42C237.091 42.319 235.321 42.4785 233.231 42.4785ZM260.938 42.4785C252.611 42.4785 248.448 37.9087 248.448 28.769C248.448 24.2231 249.581 20.7539 251.846 18.3613C254.111 15.9528 257.357 14.7485 261.583 14.7485C264.678 14.7485 267.453 15.3547 269.91 16.5669L267.756 22.2134C266.608 21.7508 265.539 21.376 264.55 21.0889C263.561 20.7858 262.572 20.6343 261.583 20.6343C257.787 20.6343 255.889 23.3299 255.889 28.7212C255.889 33.953 257.787 36.5688 261.583 36.5688C262.987 36.5688 264.287 36.3854 265.483 36.0186C266.68 35.6357 267.876 35.0456 269.072 34.248V40.4927C267.892 41.2424 266.696 41.7607 265.483 42.0479C264.287 42.335 262.772 42.4785 260.938 42.4785ZM299.984 42H292.687V26.3765C292.687 22.5164 291.251 20.5864 288.38 20.5864C286.339 20.5864 284.863 21.2803 283.954 22.668C283.045 24.0557 282.59 26.3047 282.59 29.415V42H275.293V4.77148H282.59V12.356C282.59 12.9461 282.535 14.3338 282.423 16.519L282.255 18.6724H282.638C284.265 16.0565 286.849 14.7485 290.39 14.7485C293.532 14.7485 295.917 15.5939 297.544 17.2847C299.171 18.9754 299.984 21.3999 299.984 24.5581V42ZM349.463 42H342.07V26.9028H328.217V42H320.8V7.02051H328.217V20.73H342.07V7.02051H349.463V42ZM376.69 42L375.709 38.5786H375.327C374.545 39.8228 373.437 40.7878 372.001 41.4736C370.565 42.1436 368.931 42.4785 367.096 42.4785C363.954 42.4785 361.585 41.6411 359.99 39.9663C358.395 38.2756 357.598 35.8511 357.598 32.6929V15.251H364.895V30.8745C364.895 32.8045 365.238 34.256 365.924 35.229C366.61 36.186 367.702 36.6646 369.202 36.6646C371.243 36.6646 372.719 35.9867 373.628 34.6309C374.537 33.2591 374.992 30.9941 374.992 27.8359V15.251H382.289V42H376.69ZM404.827 14.7485C407.985 14.7485 410.458 15.9847 412.244 18.457C414.031 20.9134 414.924 24.2869 414.924 28.5776C414.924 32.9959 413.999 36.4173 412.148 38.8418C410.314 41.2663 407.81 42.4785 404.636 42.4785C401.493 42.4785 399.029 41.3381 397.243 39.0571H396.74L395.52 42H389.945V4.77148H397.243V13.4326C397.243 14.5332 397.147 16.2957 396.956 18.7202H397.243C398.949 16.0724 401.478 14.7485 404.827 14.7485ZM402.482 20.5864C400.68 20.5864 399.364 21.1447 398.535 22.2612C397.705 23.3618 397.275 25.1882 397.243 27.7402V28.5298C397.243 31.4009 397.665 33.4585 398.511 34.7026C399.372 35.9468 400.728 36.5688 402.578 36.5688C404.077 36.5688 405.266 35.883 406.143 34.5112C407.036 33.1235 407.483 31.1138 407.483 28.4819C407.483 25.8501 407.036 23.8802 406.143 22.5723C405.25 21.2484 404.03 20.5864 402.482 20.5864Z" fill="#0B0B0B"/>
<path d="M78.4731 60H75.5972V48.8301H71.9141V46.4365H82.1562V48.8301H78.4731V60ZM86.2754 54.7954C86.2754 55.8221 86.4424 56.5983 86.7764 57.124C87.1165 57.6497 87.667 57.9126 88.4277 57.9126C89.1823 57.9126 89.7235 57.6528 90.0513 57.1333C90.3853 56.6076 90.5522 55.8283 90.5522 54.7954C90.5522 53.7687 90.3853 52.9987 90.0513 52.4854C89.7173 51.972 89.1699 51.7153 88.4092 51.7153C87.6546 51.7153 87.1104 51.972 86.7764 52.4854C86.4424 52.9925 86.2754 53.7625 86.2754 54.7954ZM93.4468 54.7954C93.4468 56.4839 93.0015 57.8044 92.1108 58.7568C91.2202 59.7093 89.9801 60.1855 88.3906 60.1855C87.3949 60.1855 86.5166 59.9691 85.7559 59.5361C84.9951 59.097 84.4106 58.4692 84.0024 57.6528C83.5942 56.8364 83.3901 55.884 83.3901 54.7954C83.3901 53.1007 83.8324 51.7834 84.7168 50.8433C85.6012 49.9032 86.8444 49.4331 88.4463 49.4331C89.4421 49.4331 90.3203 49.6496 91.0811 50.0825C91.8418 50.5155 92.4263 51.137 92.8345 51.9473C93.2427 52.7575 93.4468 53.7069 93.4468 54.7954ZM104.812 49.6279V51.0659L103.188 51.4834C103.485 51.9473 103.633 52.4668 103.633 53.042C103.633 54.1553 103.244 55.0243 102.464 55.6489C101.691 56.2674 100.615 56.5767 99.2358 56.5767L98.7256 56.5488L98.3081 56.5024C98.0174 56.7251 97.8721 56.9725 97.8721 57.2446C97.8721 57.6528 98.3916 57.8569 99.4307 57.8569H101.193C102.331 57.8569 103.197 58.1012 103.791 58.5898C104.391 59.0785 104.691 59.7959 104.691 60.7422C104.691 61.9544 104.184 62.8945 103.169 63.5625C102.161 64.2305 100.711 64.5645 98.8184 64.5645C97.3711 64.5645 96.264 64.3109 95.4971 63.8037C94.7363 63.3027 94.356 62.5977 94.356 61.6885C94.356 61.0638 94.5508 60.5412 94.9404 60.1206C95.3301 59.7 95.9022 59.4001 96.6567 59.2207C96.366 59.097 96.1125 58.896 95.896 58.6177C95.6795 58.3332 95.5713 58.0332 95.5713 57.7178C95.5713 57.3219 95.6857 56.9941 95.9146 56.7344C96.1434 56.4684 96.4743 56.2087 96.9072 55.9551C96.363 55.7201 95.93 55.3428 95.6084 54.8232C95.293 54.3037 95.1353 53.6914 95.1353 52.9863C95.1353 51.8545 95.5033 50.9793 96.2393 50.3608C96.9753 49.7424 98.0267 49.4331 99.3936 49.4331C99.6842 49.4331 100.028 49.4609 100.423 49.5166C100.825 49.5661 101.082 49.6032 101.193 49.6279H104.812ZM96.8052 61.4658C96.8052 61.8555 96.9907 62.1616 97.3618 62.3843C97.7391 62.6069 98.2648 62.7183 98.939 62.7183C99.9533 62.7183 100.748 62.5791 101.323 62.3008C101.898 62.0225 102.186 61.6421 102.186 61.1597C102.186 60.77 102.016 60.501 101.676 60.3525C101.336 60.2041 100.81 60.1299 100.099 60.1299H98.6328C98.1133 60.1299 97.6772 60.2505 97.3247 60.4917C96.9784 60.7391 96.8052 61.0638 96.8052 61.4658ZM97.835 53.0234C97.835 53.5863 97.9618 54.0316 98.2153 54.3594C98.4751 54.6872 98.8678 54.8511 99.3936 54.8511C99.9255 54.8511 100.315 54.6872 100.562 54.3594C100.81 54.0316 100.934 53.5863 100.934 53.0234C100.934 51.7741 100.42 51.1494 99.3936 51.1494C98.3545 51.1494 97.835 51.7741 97.835 53.0234ZM110.823 51.4463C110.223 51.4463 109.753 51.638 109.413 52.0215C109.073 52.3988 108.878 52.9368 108.829 53.6357H112.799C112.787 52.9368 112.604 52.3988 112.252 52.0215C111.899 51.638 111.423 51.4463 110.823 51.4463ZM111.222 60.1855C109.552 60.1855 108.247 59.7248 107.307 58.8032C106.367 57.8817 105.897 56.5767 105.897 54.8882C105.897 53.1502 106.33 51.8081 107.196 50.8618C108.068 49.9093 109.271 49.4331 110.805 49.4331C112.271 49.4331 113.412 49.8506 114.228 50.6855C115.044 51.5205 115.453 52.674 115.453 54.146V55.519H108.764C108.795 56.3231 109.033 56.9508 109.478 57.4023C109.923 57.8538 110.548 58.0796 111.352 58.0796C111.977 58.0796 112.567 58.0146 113.124 57.8848C113.681 57.7549 114.262 57.5477 114.868 57.2632V59.4526C114.373 59.7 113.845 59.8825 113.282 60C112.719 60.1237 112.032 60.1855 111.222 60.1855ZM122.123 57.9312C122.618 57.9312 123.212 57.8229 123.904 57.6064V59.7124C123.199 60.0278 122.333 60.1855 121.307 60.1855C120.175 60.1855 119.349 59.901 118.83 59.332C118.316 58.7568 118.06 57.8971 118.06 56.7529V51.7524H116.705V50.5557L118.264 49.6094L119.08 47.4199H120.889V49.6279H123.793V51.7524H120.889V56.7529C120.889 57.1549 121 57.4518 121.223 57.6436C121.452 57.8353 121.752 57.9312 122.123 57.9312ZM135.584 60H132.755V53.9419C132.755 52.4451 132.198 51.6968 131.085 51.6968C130.293 51.6968 129.721 51.9658 129.369 52.5039C129.016 53.042 128.84 53.9141 128.84 55.1201V60H126.01V45.5645H128.84V48.5054C128.84 48.7342 128.818 49.2723 128.775 50.1196L128.71 50.9546H128.858C129.489 49.9403 130.491 49.4331 131.864 49.4331C133.083 49.4331 134.007 49.7609 134.638 50.4165C135.269 51.0721 135.584 52.0122 135.584 53.2368V60ZM142.793 51.4463C142.193 51.4463 141.723 51.638 141.383 52.0215C141.043 52.3988 140.848 52.9368 140.798 53.6357H144.769C144.757 52.9368 144.574 52.3988 144.222 52.0215C143.869 51.638 143.393 51.4463 142.793 51.4463ZM143.192 60.1855C141.522 60.1855 140.217 59.7248 139.277 58.8032C138.337 57.8817 137.867 56.5767 137.867 54.8882C137.867 53.1502 138.3 51.8081 139.166 50.8618C140.038 49.9093 141.241 49.4331 142.774 49.4331C144.24 49.4331 145.381 49.8506 146.198 50.6855C147.014 51.5205 147.422 52.674 147.422 54.146V55.519H140.733C140.764 56.3231 141.002 56.9508 141.448 57.4023C141.893 57.8538 142.518 58.0796 143.322 58.0796C143.946 58.0796 144.537 58.0146 145.094 57.8848C145.65 57.7549 146.232 57.5477 146.838 57.2632V59.4526C146.343 59.7 145.814 59.8825 145.251 60C144.689 60.1237 144.002 60.1855 143.192 60.1855ZM155.512 49.4331C155.896 49.4331 156.214 49.4609 156.468 49.5166L156.254 52.1699C156.026 52.1081 155.747 52.0771 155.419 52.0771C154.516 52.0771 153.811 52.3091 153.304 52.7729C152.803 53.2368 152.553 53.8862 152.553 54.7212V60H149.723V49.6279H151.866L152.284 51.3721H152.423C152.744 50.7907 153.177 50.3237 153.722 49.9712C154.272 49.6125 154.869 49.4331 155.512 49.4331ZM176.72 60H173.445L171.608 52.875C171.54 52.6214 171.423 52.0988 171.256 51.3071C171.095 50.5093 171.002 49.9743 170.978 49.7021C170.94 50.0361 170.848 50.5742 170.699 51.3164C170.551 52.0524 170.436 52.5781 170.356 52.8936L168.528 60H165.263L161.802 46.4365H164.632L166.367 53.8398C166.67 55.2067 166.889 56.3911 167.025 57.3931C167.062 57.0405 167.146 56.4963 167.276 55.7603C167.412 55.0181 167.539 54.4429 167.656 54.0347L169.632 46.4365H172.351L174.327 54.0347C174.413 54.3748 174.521 54.8944 174.651 55.5933C174.781 56.2922 174.88 56.8921 174.948 57.3931C175.01 56.9106 175.109 56.3107 175.245 55.5933C175.381 54.8696 175.505 54.2852 175.616 53.8398L177.342 46.4365H180.171L176.72 60ZM185.951 51.4463C185.351 51.4463 184.881 51.638 184.541 52.0215C184.201 52.3988 184.006 52.9368 183.957 53.6357H187.927C187.915 52.9368 187.732 52.3988 187.38 52.0215C187.027 51.638 186.551 51.4463 185.951 51.4463ZM186.35 60.1855C184.68 60.1855 183.375 59.7248 182.435 58.8032C181.495 57.8817 181.025 56.5767 181.025 54.8882C181.025 53.1502 181.458 51.8081 182.324 50.8618C183.196 49.9093 184.399 49.4331 185.933 49.4331C187.398 49.4331 188.54 49.8506 189.356 50.6855C190.172 51.5205 190.581 52.674 190.581 54.146V55.519H183.892C183.923 56.3231 184.161 56.9508 184.606 57.4023C185.051 57.8538 185.676 58.0796 186.48 58.0796C187.105 58.0796 187.695 58.0146 188.252 57.8848C188.809 57.7549 189.39 57.5477 189.996 57.2632V59.4526C189.501 59.7 188.972 59.8825 188.41 60C187.847 60.1237 187.16 60.1855 186.35 60.1855ZM203.801 48.6353C202.718 48.6353 201.88 49.0435 201.287 49.8599C200.693 50.6701 200.396 51.8019 200.396 53.2554C200.396 56.2798 201.531 57.792 203.801 57.792C204.753 57.792 205.907 57.5539 207.261 57.0776V59.4897C206.148 59.9536 204.905 60.1855 203.532 60.1855C201.559 60.1855 200.05 59.5887 199.004 58.395C197.959 57.1951 197.437 55.4757 197.437 53.2368C197.437 51.8267 197.693 50.5928 198.207 49.5352C198.72 48.4714 199.456 47.658 200.415 47.0952C201.379 46.5262 202.508 46.2417 203.801 46.2417C205.118 46.2417 206.442 46.5602 207.771 47.1973L206.844 49.5352C206.337 49.2939 205.826 49.0837 205.313 48.9043C204.8 48.7249 204.296 48.6353 203.801 48.6353ZM216.52 60L215.973 58.5898H215.898C215.422 59.1898 214.931 59.6073 214.423 59.8423C213.922 60.0711 213.267 60.1855 212.457 60.1855C211.461 60.1855 210.675 59.901 210.1 59.332C209.531 58.763 209.247 57.9528 209.247 56.9014C209.247 55.8005 209.63 54.9902 210.397 54.4707C211.17 53.945 212.333 53.6543 213.885 53.5986L215.685 53.543V53.0884C215.685 52.0369 215.147 51.5112 214.071 51.5112C213.242 51.5112 212.268 51.7617 211.148 52.2627L210.211 50.3516C211.405 49.7269 212.729 49.4146 214.182 49.4146C215.574 49.4146 216.641 49.7176 217.383 50.3237C218.125 50.9299 218.496 51.8514 218.496 53.0884V60H216.52ZM215.685 55.1943L214.59 55.2314C213.768 55.2562 213.155 55.4046 212.753 55.6768C212.351 55.9489 212.15 56.3633 212.15 56.9199C212.15 57.7178 212.608 58.1167 213.523 58.1167C214.179 58.1167 214.702 57.9281 215.091 57.5508C215.487 57.1735 215.685 56.6725 215.685 56.0479V55.1943ZM230.993 60H228.163V53.9419C228.163 53.1935 228.03 52.6338 227.764 52.2627C227.498 51.8854 227.075 51.6968 226.493 51.6968C225.701 51.6968 225.129 51.9627 224.777 52.4946C224.424 53.0203 224.248 53.8955 224.248 55.1201V60H221.418V49.6279H223.58L223.96 50.9546H224.118C224.434 50.4536 224.867 50.0763 225.417 49.8228C225.974 49.563 226.604 49.4331 227.31 49.4331C228.516 49.4331 229.431 49.7609 230.056 50.4165C230.68 51.0659 230.993 52.006 230.993 53.2368V60ZM247.07 56.2334C247.07 57.458 246.628 58.4229 245.744 59.1279C244.865 59.833 243.641 60.1855 242.07 60.1855C240.623 60.1855 239.342 59.9134 238.229 59.3691V56.6973C239.144 57.1055 239.917 57.3931 240.548 57.5601C241.185 57.7271 241.767 57.8105 242.292 57.8105C242.923 57.8105 243.406 57.6899 243.74 57.4487C244.08 57.2075 244.25 56.8488 244.25 56.3726C244.25 56.1066 244.176 55.8716 244.027 55.6675C243.879 55.4572 243.659 55.2562 243.369 55.0645C243.084 54.8727 242.5 54.5666 241.615 54.146C240.786 53.7563 240.165 53.3822 239.75 53.0234C239.336 52.6647 239.005 52.2472 238.758 51.771C238.51 51.2948 238.387 50.7381 238.387 50.1011C238.387 48.9012 238.792 47.958 239.602 47.2715C240.418 46.585 241.544 46.2417 242.979 46.2417C243.684 46.2417 244.355 46.3252 244.992 46.4922C245.635 46.6592 246.306 46.8942 247.005 47.1973L246.078 49.4331C245.354 49.1362 244.754 48.929 244.278 48.8115C243.808 48.694 243.344 48.6353 242.886 48.6353C242.342 48.6353 241.924 48.762 241.634 49.0156C241.343 49.2692 241.198 49.6001 241.198 50.0083C241.198 50.2619 241.257 50.4845 241.374 50.6763C241.492 50.8618 241.677 51.0443 241.931 51.2236C242.19 51.3968 242.8 51.7122 243.758 52.1699C245.026 52.776 245.895 53.3853 246.365 53.9976C246.835 54.6037 247.07 55.349 247.07 56.2334ZM256.654 60L256.273 58.6733H256.125C255.822 59.1558 255.392 59.5299 254.835 59.7959C254.279 60.0557 253.645 60.1855 252.934 60.1855C251.715 60.1855 250.797 59.8608 250.178 59.2114C249.56 58.5558 249.25 57.6157 249.25 56.3911V49.6279H252.08V55.686C252.08 56.4344 252.213 56.9972 252.479 57.3745C252.745 57.7456 253.169 57.9312 253.75 57.9312C254.542 57.9312 255.114 57.6683 255.466 57.1426C255.819 56.6107 255.995 55.7324 255.995 54.5078V49.6279H258.825V60H256.654ZM267.583 49.4331C267.966 49.4331 268.285 49.4609 268.538 49.5166L268.325 52.1699C268.096 52.1081 267.818 52.0771 267.49 52.0771C266.587 52.0771 265.882 52.3091 265.375 52.7729C264.874 53.2368 264.623 53.8862 264.623 54.7212V60H261.793V49.6279H263.937L264.354 51.3721H264.493C264.815 50.7907 265.248 50.3237 265.792 49.9712C266.342 49.6125 266.939 49.4331 267.583 49.4331ZM272.889 60L268.937 49.6279H271.896L273.9 55.5376C274.123 56.286 274.262 56.9941 274.318 57.6621H274.374C274.404 57.0684 274.544 56.3602 274.791 55.5376L276.786 49.6279H279.745L275.793 60H272.889ZM281.118 46.9468C281.118 46.0252 281.632 45.5645 282.658 45.5645C283.685 45.5645 284.198 46.0252 284.198 46.9468C284.198 47.3859 284.068 47.7292 283.809 47.9766C283.555 48.2178 283.172 48.3384 282.658 48.3384C281.632 48.3384 281.118 47.8745 281.118 46.9468ZM284.068 60H281.239V49.6279H284.068V60ZM289.514 60L285.562 49.6279H288.521L290.525 55.5376C290.748 56.286 290.887 56.9941 290.943 57.6621H290.999C291.029 57.0684 291.169 56.3602 291.416 55.5376L293.411 49.6279H296.37L292.418 60H289.514ZM302.159 51.4463C301.559 51.4463 301.089 51.638 300.749 52.0215C300.409 52.3988 300.214 52.9368 300.165 53.6357H304.135C304.123 52.9368 303.94 52.3988 303.588 52.0215C303.235 51.638 302.759 51.4463 302.159 51.4463ZM302.558 60.1855C300.888 60.1855 299.583 59.7248 298.643 58.8032C297.703 57.8817 297.233 56.5767 297.233 54.8882C297.233 53.1502 297.666 51.8081 298.532 50.8618C299.404 49.9093 300.607 49.4331 302.141 49.4331C303.606 49.4331 304.748 49.8506 305.564 50.6855C306.38 51.5205 306.789 52.674 306.789 54.146V55.519H300.1C300.131 56.3231 300.369 56.9508 300.814 57.4023C301.259 57.8538 301.884 58.0796 302.688 58.0796C303.313 58.0796 303.903 58.0146 304.46 57.8848C305.017 57.7549 305.598 57.5477 306.204 57.2632V59.4526C305.709 59.7 305.181 59.8825 304.618 60C304.055 60.1237 303.368 60.1855 302.558 60.1855ZM319.48 60H316.604V48.8301H312.921V46.4365H323.163V48.8301H319.48V60ZM334.602 60H331.772V53.9419C331.772 52.4451 331.216 51.6968 330.103 51.6968C329.311 51.6968 328.739 51.9658 328.386 52.5039C328.034 53.042 327.857 53.9141 327.857 55.1201V60H325.028V45.5645H327.857V48.5054C327.857 48.7342 327.836 49.2723 327.792 50.1196L327.728 50.9546H327.876C328.507 49.9403 329.509 49.4331 330.882 49.4331C332.1 49.4331 333.025 49.7609 333.656 50.4165C334.287 51.0721 334.602 52.0122 334.602 53.2368V60ZM337.395 46.9468C337.395 46.0252 337.908 45.5645 338.935 45.5645C339.961 45.5645 340.475 46.0252 340.475 46.9468C340.475 47.3859 340.345 47.7292 340.085 47.9766C339.831 48.2178 339.448 48.3384 338.935 48.3384C337.908 48.3384 337.395 47.8745 337.395 46.9468ZM340.345 60H337.515V49.6279H340.345V60ZM350.559 56.9199C350.559 57.9837 350.188 58.7939 349.446 59.3506C348.71 59.9072 347.606 60.1855 346.134 60.1855C345.379 60.1855 344.736 60.133 344.204 60.0278C343.672 59.9289 343.174 59.7804 342.71 59.5825V57.2446C343.236 57.492 343.827 57.6992 344.482 57.8662C345.144 58.0332 345.726 58.1167 346.227 58.1167C347.253 58.1167 347.767 57.8198 347.767 57.2261C347.767 57.0034 347.699 56.8241 347.562 56.688C347.426 56.5457 347.191 56.388 346.857 56.2148C346.523 56.0355 346.078 55.8283 345.521 55.5933C344.724 55.2593 344.136 54.95 343.759 54.6655C343.388 54.381 343.116 54.0563 342.942 53.6914C342.775 53.3203 342.692 52.8657 342.692 52.3276C342.692 51.4061 343.048 50.6948 343.759 50.1938C344.476 49.6867 345.491 49.4331 346.802 49.4331C348.051 49.4331 349.266 49.7052 350.448 50.2495L349.594 52.2905C349.075 52.0679 348.589 51.8854 348.138 51.7432C347.686 51.6009 347.225 51.5298 346.755 51.5298C345.92 51.5298 345.503 51.7555 345.503 52.207C345.503 52.4606 345.636 52.6802 345.902 52.8657C346.174 53.0513 346.765 53.3265 347.674 53.6914C348.484 54.0192 349.078 54.3254 349.455 54.6099C349.832 54.8944 350.111 55.2222 350.29 55.5933C350.469 55.9644 350.559 56.4066 350.559 56.9199ZM363.687 48.6353C362.604 48.6353 361.766 49.0435 361.172 49.8599C360.579 50.6701 360.282 51.8019 360.282 53.2554C360.282 56.2798 361.417 57.792 363.687 57.792C364.639 57.792 365.792 57.5539 367.147 57.0776V59.4897C366.034 59.9536 364.791 60.1855 363.417 60.1855C361.444 60.1855 359.935 59.5887 358.89 58.395C357.845 57.1951 357.322 55.4757 357.322 53.2368C357.322 51.8267 357.579 50.5928 358.092 49.5352C358.606 48.4714 359.342 47.658 360.3 47.0952C361.265 46.5262 362.394 46.2417 363.687 46.2417C365.004 46.2417 366.327 46.5602 367.657 47.1973L366.729 49.5352C366.222 49.2939 365.712 49.0837 365.199 48.9043C364.685 48.7249 364.181 48.6353 363.687 48.6353ZM375.608 49.4331C375.991 49.4331 376.31 49.4609 376.563 49.5166L376.35 52.1699C376.121 52.1081 375.843 52.0771 375.515 52.0771C374.612 52.0771 373.907 52.3091 373.4 52.7729C372.899 53.2368 372.648 53.8862 372.648 54.7212V60H369.819V49.6279H371.962L372.379 51.3721H372.519C372.84 50.7907 373.273 50.3237 373.817 49.9712C374.368 49.6125 374.965 49.4331 375.608 49.4331ZM378.326 46.9468C378.326 46.0252 378.84 45.5645 379.866 45.5645C380.893 45.5645 381.406 46.0252 381.406 46.9468C381.406 47.3859 381.276 47.7292 381.017 47.9766C380.763 48.2178 380.38 48.3384 379.866 48.3384C378.84 48.3384 378.326 47.8745 378.326 46.9468ZM381.276 60H378.447V49.6279H381.276V60ZM391.491 56.9199C391.491 57.9837 391.12 58.7939 390.377 59.3506C389.641 59.9072 388.537 60.1855 387.065 60.1855C386.311 60.1855 385.668 60.133 385.136 60.0278C384.604 59.9289 384.106 59.7804 383.642 59.5825V57.2446C384.168 57.492 384.758 57.6992 385.414 57.8662C386.076 58.0332 386.657 58.1167 387.158 58.1167C388.185 58.1167 388.698 57.8198 388.698 57.2261C388.698 57.0034 388.63 56.8241 388.494 56.688C388.358 56.5457 388.123 56.388 387.789 56.2148C387.455 56.0355 387.01 55.8283 386.453 55.5933C385.655 55.2593 385.068 54.95 384.69 54.6655C384.319 54.381 384.047 54.0563 383.874 53.6914C383.707 53.3203 383.624 52.8657 383.624 52.3276C383.624 51.4061 383.979 50.6948 384.69 50.1938C385.408 49.6867 386.422 49.4331 387.733 49.4331C388.983 49.4331 390.198 49.7052 391.379 50.2495L390.526 52.2905C390.006 52.0679 389.521 51.8854 389.069 51.7432C388.618 51.6009 388.157 51.5298 387.687 51.5298C386.852 51.5298 386.435 51.7555 386.435 52.207C386.435 52.4606 386.568 52.6802 386.833 52.8657C387.106 53.0513 387.696 53.3265 388.605 53.6914C389.416 54.0192 390.009 54.3254 390.387 54.6099C390.764 54.8944 391.042 55.2222 391.222 55.5933C391.401 55.9644 391.491 56.4066 391.491 56.9199ZM393.578 46.9468C393.578 46.0252 394.091 45.5645 395.118 45.5645C396.145 45.5645 396.658 46.0252 396.658 46.9468C396.658 47.3859 396.528 47.7292 396.269 47.9766C396.015 48.2178 395.632 48.3384 395.118 48.3384C394.091 48.3384 393.578 47.8745 393.578 46.9468ZM396.528 60H393.699V49.6279H396.528V60ZM406.743 56.9199C406.743 57.9837 406.372 58.7939 405.629 59.3506C404.893 59.9072 403.789 60.1855 402.317 60.1855C401.563 60.1855 400.92 60.133 400.388 60.0278C399.856 59.9289 399.358 59.7804 398.894 59.5825V57.2446C399.42 57.492 400.01 57.6992 400.666 57.8662C401.328 58.0332 401.909 58.1167 402.41 58.1167C403.437 58.1167 403.95 57.8198 403.95 57.2261C403.95 57.0034 403.882 56.8241 403.746 56.688C403.61 56.5457 403.375 56.388 403.041 56.2148C402.707 56.0355 402.262 55.8283 401.705 55.5933C400.907 55.2593 400.32 54.95 399.942 54.6655C399.571 54.381 399.299 54.0563 399.126 53.6914C398.959 53.3203 398.875 52.8657 398.875 52.3276C398.875 51.4061 399.231 50.6948 399.942 50.1938C400.66 49.6867 401.674 49.4331 402.985 49.4331C404.235 49.4331 405.45 49.7052 406.631 50.2495L405.778 52.2905C405.258 52.0679 404.773 51.8854 404.321 51.7432C403.87 51.6009 403.409 51.5298 402.939 51.5298C402.104 51.5298 401.687 51.7555 401.687 52.207C401.687 52.4606 401.819 52.6802 402.085 52.8657C402.358 53.0513 402.948 53.3265 403.857 53.6914C404.668 54.0192 405.261 54.3254 405.639 54.6099C406.016 54.8944 406.294 55.2222 406.474 55.5933C406.653 55.9644 406.743 56.4066 406.743 56.9199Z" fill="#8C8888"/>
</svg>
