<svg width="66" height="65" viewBox="0 0 66 65" fill="none" xmlns="http://www.w3.org/2000/svg">
<path d="M65 32.4999C65 49.893 50.8504 64 33.3874 64C15.9243 64 1.7747 49.893 1.7747 32.4999C1.7747 15.1069 15.9243 1 33.3874 1C50.8504 1 65 15.1069 65 32.4999Z" stroke="white" stroke-width="2"/>
<path d="M26.8537 13.8243C28.1878 13.8243 29.2693 12.7406 29.2693 11.4039C29.2693 10.0671 28.1878 8.98346 26.8537 8.98346C25.5196 8.98346 24.438 10.0671 24.438 11.4039C24.438 12.7406 25.5196 13.8243 26.8537 13.8243Z" fill="white"/>
<path d="M26.7053 9.18099C27.1148 9.18099 27.515 9.30265 27.8555 9.53058C28.1959 9.75852 28.4612 10.0825 28.618 10.4615C28.7747 10.8406 28.8157 11.2576 28.7358 11.66C28.6559 12.0624 28.4587 12.432 28.1692 12.7221C27.8797 13.0122 27.5108 13.2098 27.1092 13.2898C26.7076 13.3698 26.2914 13.3288 25.913 13.1717C25.5348 13.0148 25.2115 12.7488 24.984 12.4078C24.7565 12.0666 24.635 11.6656 24.635 11.2553C24.635 10.9829 24.6886 10.7132 24.7927 10.4615C24.8967 10.2098 25.0491 9.98117 25.2414 9.78855C25.4336 9.59593 25.6619 9.44315 25.913 9.3389C26.1642 9.23465 26.4334 9.18099 26.7053 9.18099ZM26.7053 8.83493C26.2276 8.83493 25.7605 8.97688 25.3632 9.24284C24.966 9.50879 24.6564 9.88682 24.4735 10.3291C24.2907 10.7714 24.2429 11.258 24.3362 11.7275C24.4293 12.1971 24.6593 12.6284 24.9972 12.9668C25.335 13.3053 25.7654 13.5359 26.234 13.6293C26.7026 13.7226 27.1883 13.6747 27.6297 13.4915C28.0711 13.3083 28.4484 12.9981 28.7138 12.6C28.9792 12.2019 29.121 11.734 29.121 11.2553C29.121 10.6134 28.8664 9.99776 28.4133 9.54384C27.9604 9.08993 27.3459 8.83493 26.7053 8.83493Z" fill="white"/>
<path d="M43.8267 10.1345C45.1607 10.1345 46.2423 9.05089 46.2423 7.71414C46.2423 6.37739 45.1607 5.29373 43.8267 5.29373C42.4925 5.29373 41.411 6.37739 41.411 7.71414C41.411 9.05089 42.4925 10.1345 43.8267 10.1345Z" fill="white"/>
<path d="M54.2506 19.4637C55.5848 19.4637 56.6662 18.3801 56.6662 17.0434C56.6662 15.7066 55.5848 14.623 54.2506 14.623C52.9165 14.623 51.835 15.7066 51.835 17.0434C51.835 18.3801 52.9165 19.4637 54.2506 19.4637Z" fill="white"/>
<path d="M54.1021 14.8204C54.5116 14.8204 54.9119 14.9422 55.2524 15.17C55.5928 15.398 55.8581 15.722 56.0148 16.101C56.1716 16.48 56.2125 16.8972 56.1327 17.2995C56.0528 17.7018 55.8556 18.0714 55.5661 18.3616C55.2766 18.6517 54.9077 18.8492 54.5061 18.9292C54.1045 19.0094 53.6883 18.9683 53.3099 18.8113C52.9316 18.6542 52.6083 18.3884 52.3808 18.0472C52.1533 17.7061 52.0319 17.3051 52.0319 16.8948C52.0319 16.3447 52.25 15.8171 52.6384 15.428C53.0266 15.0391 53.5532 14.8204 54.1021 14.8204ZM54.1021 14.4744C53.6244 14.4744 53.1574 14.6163 52.7601 14.8823C52.3628 15.1482 52.0533 15.5263 51.8704 15.9686C51.6877 16.4108 51.6398 16.8975 51.733 17.367C51.8262 17.8365 52.0562 18.2678 52.3941 18.6063C52.7319 18.9448 53.1623 19.1753 53.6309 19.2687C54.0995 19.3621 54.5852 19.3142 55.0266 19.131C55.4681 18.9477 55.8452 18.6376 56.1106 18.2395C56.3761 17.8415 56.5178 17.3735 56.5178 16.8948C56.5178 16.2529 56.2634 15.6373 55.8103 15.1833C55.3573 14.7294 54.7428 14.4744 54.1021 14.4744Z" fill="white"/>
<path d="M29.8316 32.5201C31.1658 32.5201 32.2472 31.4364 32.2472 30.0997C32.2472 28.763 31.1658 27.6792 29.8316 27.6792C28.4976 27.6792 27.4161 28.763 27.4161 30.0997C27.4161 31.4364 28.4976 32.5201 29.8316 32.5201Z" fill="white"/>
<path d="M29.6821 27.8785C30.0915 27.8785 30.4917 28.0002 30.8322 28.2281C31.1726 28.4561 31.4381 28.7801 31.5947 29.1591C31.7514 29.5381 31.7924 29.9552 31.7125 30.3576C31.6326 30.76 31.4355 31.1295 31.1459 31.4196C30.8564 31.7097 30.4875 31.9073 30.0859 31.9875C29.6843 32.0675 29.2681 32.0264 28.8898 31.8694C28.5115 31.7123 28.1882 31.4465 27.9607 31.1053C27.7332 30.7643 27.6118 30.3632 27.6118 29.9529C27.6118 29.4028 27.83 28.8752 28.2182 28.4861C28.6064 28.0972 29.133 27.8785 29.6821 27.8785ZM29.6821 27.5325C29.2043 27.5325 28.7372 27.6745 28.34 27.9404C27.9428 28.2063 27.6331 28.5844 27.4504 29.0267C27.2675 29.4689 27.2196 29.9556 27.3129 30.4251C27.4061 30.8946 27.6362 31.3259 27.9739 31.6644C28.3118 32.0029 28.7422 32.2334 29.2108 32.3268C29.6794 32.4202 30.165 32.3723 30.6065 32.189C31.0479 32.0059 31.4252 31.6956 31.6906 31.2976C31.956 30.8996 32.0977 30.4316 32.0977 29.9529C32.0977 29.311 31.8432 28.6954 31.3902 28.2415C30.9371 27.7875 30.3227 27.5325 29.6821 27.5325Z" fill="white"/>
<path d="M14.9414 29.3855C16.2755 29.3855 17.3571 28.3018 17.3571 26.9651C17.3571 25.6283 16.2755 24.5446 14.9414 24.5446C13.6073 24.5446 12.5258 25.6283 12.5258 26.9651C12.5258 28.3018 13.6073 29.3855 14.9414 29.3855Z" fill="white"/>
<path d="M21.2612 38.3268C22.5953 38.3268 23.6768 37.2432 23.6768 35.9063C23.6768 34.5696 22.5953 33.486 21.2612 33.486C19.9271 33.486 18.8455 34.5696 18.8455 35.9063C18.8455 37.2432 19.9271 38.3268 21.2612 38.3268Z" fill="white"/>
<path d="M55.4409 42.0183C56.7751 42.0183 57.8565 40.9347 57.8565 39.5978C57.8565 38.2611 56.7751 37.1775 55.4409 37.1775C54.1069 37.1775 53.0254 38.2611 53.0254 39.5978C53.0254 40.9347 54.1069 42.0183 55.4409 42.0183Z" fill="white"/>
<path d="M26.6227 57.3196C27.9569 57.3196 29.0384 56.2359 29.0384 54.8992C29.0384 53.5625 27.9569 52.4789 26.6227 52.4789C25.2887 52.4789 24.2072 53.5625 24.2072 54.8992C24.2072 56.2359 25.2887 57.3196 26.6227 57.3196Z" fill="white"/>
<path d="M44.3135 50.8404C45.6476 50.8404 46.7291 49.7567 46.7291 48.4199C46.7291 47.0832 45.6476 45.9995 44.3135 45.9995C42.9793 45.9995 41.8978 47.0832 41.8978 48.4199C41.8978 49.7567 42.9793 50.8404 44.3135 50.8404Z" fill="white"/>
<path d="M16.2213 26.3254C6.39411 26.3254 -10.5844 51.5502 13.9873 58.9335" stroke="white" stroke-width="2" stroke-miterlimit="10"/>
<path d="M60.6065 49.4145C67.8307 61.9205 51.8553 64.899 43.4091 49.2749C17.0757 53.4139 -11.2861 13.3957 11.8424 8.23965" stroke="white" stroke-width="2" stroke-miterlimit="10"/>
<path d="M26.5213 10.7643C26.5213 10.7643 53.3166 11.0614 55.1088 38.9565" stroke="white" stroke-width="2" stroke-miterlimit="10"/>
<path d="M29.4992 29.4618C29.4992 29.4618 46.1798 27.3839 53.9184 16.4037" stroke="white" stroke-width="2" stroke-miterlimit="10"/>
<path d="M43.4965 8.68637C41.4114 7.5316 53.7887 -5.10733 53.7319 7.61472" stroke="white" stroke-width="2" stroke-miterlimit="10"/>
<path d="M20.9314 35.2668C20.9314 35.2668 19.4425 48.6219 26.2921 54.2596" stroke="white" stroke-width="2" stroke-miterlimit="10"/>
</svg>
