<svg width="372" height="383" viewBox="0 0 372 383" fill="none" xmlns="http://www.w3.org/2000/svg">
<g clip-path="url(#clip0)">
<rect width="414" height="1908" transform="translate(-42 -63)" fill="white"/>
<mask id="mask0" mask-type="alpha" maskUnits="userSpaceOnUse" x="18" y="-52" width="354" height="424">
<path fill-rule="evenodd" clip-rule="evenodd" d="M18 -51.1311H372V371.869H18V-51.1311Z" fill="white"/>
</mask>
<g mask="url(#mask0)">
<path fill-rule="evenodd" clip-rule="evenodd" d="M372 -13.8905V371.869C372 371.869 311.641 353.518 297.919 297.972C284.198 242.424 54.0124 322.544 34.2111 317.245C-41.6676 296.941 171.889 162.794 200.125 34.4557C228.36 -93.8827 302.813 -39.8329 302.813 -39.8329L372 -13.8905Z" fill="#D1EBEC"/>
</g>
<g opacity="0.180408">
<mask id="mask1" mask-type="alpha" maskUnits="userSpaceOnUse" x="14" y="49" width="362" height="331">
<path fill-rule="evenodd" clip-rule="evenodd" d="M14 49H376V380H14V49Z" fill="white"/>
</mask>
<g mask="url(#mask1)">
<path opacity="0.629976" fill-rule="evenodd" clip-rule="evenodd" d="M186.499 226.678C183.817 228.868 181.21 231.157 178.73 233.498C184.217 233.371 189.809 233.497 195.389 233.874C192.297 231.068 189.313 228.652 186.499 226.678ZM176.362 234.512L177.242 233.666C180.086 230.932 183.11 228.261 186.23 225.725L186.501 225.505L186.771 225.693C190.003 227.937 193.458 230.76 197.039 234.085L198.049 235.022L196.662 234.918C190.253 234.437 183.816 234.288 177.53 234.477L176.362 234.512ZM186.48 220.881C185.927 221.312 185.345 221.772 184.738 222.26C178.333 227.406 172.445 232.989 167.22 238.87C179.934 237.746 192.569 238.007 205.807 239.663C206.65 239.77 207.487 239.88 208.319 239.997C200.474 231.52 193.183 225.125 186.634 220.978L186.48 220.881ZM165.01 240.021L165.781 239.138C171.235 232.89 177.433 226.964 184.202 221.525C184.909 220.957 185.581 220.427 186.216 219.936L186.471 219.739L187.146 220.162C194.014 224.512 201.677 231.295 209.922 240.325L210.839 241.329L209.488 241.129C208.218 240.941 206.938 240.767 205.643 240.604C192.081 238.908 179.156 238.681 166.129 239.916L165.01 240.021ZM186.435 215.223C185.175 216.135 183.704 217.264 182.058 218.587C172.185 226.519 163.594 235.364 156.512 244.89C172.518 242.458 188.388 242.289 204.99 244.366C210.464 245.053 215.682 245.967 220.894 247.156C209.251 233.025 198.592 222.849 189.196 216.899C188.202 216.27 187.275 215.706 186.435 215.223ZM154.462 246.16L155.124 245.253C162.386 235.31 171.268 226.091 181.523 217.852C183.289 216.433 184.857 215.231 186.185 214.28L186.425 214.108L186.669 214.247C187.584 214.767 188.606 215.385 189.71 216.083C199.424 222.235 210.461 232.846 222.513 247.624L223.418 248.732L222.028 248.403C216.383 247.063 210.757 246.051 204.826 245.308C187.939 243.194 171.813 243.418 155.528 245.992L154.462 246.16ZM186.389 209.736C185.169 210.499 183.001 212.003 179.38 214.913C166.032 225.637 154.727 238.253 146.625 251.455C165.671 247.389 184.507 246.609 204.172 249.069C214.37 250.347 224.035 252.513 233.665 255.68C218.101 234.991 204.007 220.576 191.76 212.82C189.082 211.125 187.384 210.214 186.389 209.736ZM144.748 252.821L145.299 251.906C153.496 238.269 165.095 225.224 178.844 214.179C182.727 211.058 184.97 209.529 186.168 208.797L186.38 208.667L186.594 208.767C187.574 209.224 189.354 210.157 192.272 212.004C204.851 219.97 219.339 234.88 235.337 256.318L236.272 257.571L234.801 257.072C224.739 253.655 214.667 251.346 204.009 250.01C184.098 247.518 165.043 248.366 145.754 252.6L144.748 252.821ZM186.355 204.579C185.706 204.791 183.393 205.862 176.701 211.239C159.659 224.931 146.158 241.237 137.603 258.45C159.42 252.497 180.939 250.967 203.355 253.772C218.458 255.666 232.733 259.651 246.937 265.947C245.03 263.174 243.039 260.364 241.005 257.573C223.679 233.815 207.973 217.386 194.321 208.741C188.858 205.282 186.861 204.682 186.355 204.579ZM135.898 259.889L136.34 258.976C144.935 241.293 158.706 224.532 176.165 210.505C182.919 205.079 185.391 203.872 186.264 203.636L186.445 203.625C187.066 203.714 189.126 204.311 194.834 207.926C208.576 216.627 224.36 233.129 241.75 256.976C244.139 260.253 246.468 263.557 248.671 266.795L249.647 268.229L248.085 267.519C233.445 260.853 218.76 256.664 203.191 254.713C180.57 251.882 158.867 253.489 136.842 259.626L135.898 259.889ZM196.884 204.663C191.381 201.177 187.992 199.644 186.22 199.837C184.184 200.059 180.308 202.515 174.021 207.565C153.387 224.144 137.59 244.776 129.445 265.761C153.765 257.747 177.684 255.365 202.537 258.476C222.661 260.996 241.67 267.471 260.589 278.251C255.899 270.548 250.568 262.593 244.727 254.582C227.083 230.388 210.986 213.593 196.884 204.663ZM127.914 267.249L128.251 266.356C136.355 244.896 152.419 223.757 173.486 206.831C180.1 201.517 183.896 199.144 186.176 198.896C188.211 198.673 191.566 200.155 197.396 203.847C211.589 212.834 227.764 229.703 245.472 253.985C251.737 262.576 257.415 271.103 262.35 279.329L263.323 280.949L261.714 280.012C242.362 268.732 222.953 261.995 202.374 259.416C177.355 256.285 153.287 258.75 128.795 266.954L127.914 267.249ZM199.71 198.47C192.729 194.05 188.937 192.537 185.718 192.888C182.352 193.254 178.244 195.685 170.558 201.86C146.249 221.391 128.239 246.727 121.145 271.372C120.945 272.068 120.754 272.766 120.574 273.464C156.972 259.433 184.058 260.663 201.309 262.822C223.372 265.587 244.217 273.339 265.035 286.522C268.81 288.913 272.523 291.434 276.34 294.198C269.41 280.092 260.2 265.131 248.946 249.696C230.921 224.979 214.355 207.743 199.71 198.47ZM119.267 274.965L119.474 274.124C119.719 273.131 119.983 272.14 120.267 271.153C127.418 246.309 145.553 220.785 170.022 201.125C177.869 194.821 182.111 192.333 185.676 191.945C189.116 191.57 193.059 193.117 200.224 197.654C214.957 206.985 231.601 224.294 249.691 249.099C261.443 265.216 270.973 280.823 278.016 295.487L278.856 297.239L277.32 296.108C272.974 292.908 268.789 290.039 264.523 287.338C243.812 274.223 223.081 266.512 201.145 263.763C165.068 259.246 137.587 267.817 120.057 274.657L119.267 274.965ZM202.537 192.278C187.816 182.956 182.848 183.5 167.095 196.154C141.825 216.458 123.066 242.921 115.627 268.758C114.451 272.85 113.588 277.006 113.061 281.124C134.062 272.096 162.837 262.507 200.08 267.168C221.378 269.837 241.538 277.344 261.712 290.119C272.774 297.124 282.1 304.569 289.846 311.063C289.547 310.192 289.238 309.311 288.918 308.433C282.005 289.406 269.642 267.406 253.165 244.81C234.757 219.569 217.724 201.895 202.537 192.278ZM111.966 282.603L112.056 281.834C112.578 277.411 113.484 272.937 114.75 268.538C122.245 242.503 141.129 215.852 166.56 195.419C182.758 182.406 187.873 181.852 203.049 191.462C218.327 201.136 235.438 218.884 253.91 244.213C270.433 266.874 282.837 288.95 289.78 308.054C290.302 309.494 290.802 310.936 291.263 312.341L291.796 313.961L290.526 312.89C282.554 306.169 272.837 298.305 261.2 290.935C241.133 278.228 221.087 270.762 199.916 268.109C162.471 263.422 133.619 273.23 112.665 282.299L111.966 282.603ZM205.628 183.973C188.691 173.248 180.695 174.079 162.848 188.416C136.455 209.622 116.823 237.399 108.985 264.626C107.351 270.304 105.45 279.046 105.551 288.748C140.695 272.4 167.651 267.303 198.44 271.157C218.846 273.714 238.206 280.936 257.628 293.234C271.772 302.19 283.098 311.912 294.052 321.314C296.256 323.203 298.356 325.005 300.371 326.704C299.764 320.366 297.68 312.078 294.45 303.19C287.339 283.618 274.693 261.086 257.88 238.029C239.027 212.177 221.447 193.99 205.628 183.973ZM104.658 290.181L104.645 289.503C104.443 279.407 106.416 270.283 108.107 264.406C116.003 236.98 135.759 209.015 162.312 187.681C180.582 173.005 188.773 172.159 206.141 183.157C222.05 193.231 239.708 211.492 258.625 237.432C275.485 260.554 288.172 283.162 295.312 302.811C299.744 315.011 301.059 323.099 301.383 327.736L301.463 328.876L300.623 328.173C298.346 326.264 295.962 324.217 293.509 322.114C282.51 312.675 271.207 302.974 257.115 294.05C237.802 281.82 218.555 274.639 198.276 272.098C167.489 268.245 140.544 273.4 105.271 289.894L104.658 290.181ZM208.719 175.667C189.455 163.468 178.682 164.546 158.601 180.678C131.085 202.785 110.58 231.877 102.343 260.493C99.8805 269.046 97.3821 282.107 99.3267 296.044C131.496 280.189 160.439 270.595 196.8 275.147C216.313 277.593 234.875 284.528 253.545 296.351C267.326 305.077 278.482 314.651 289.273 323.912C294.39 328.303 299.219 332.447 303.458 335.687C305.542 333.829 305.89 332.757 305.893 332.746C307.634 325.946 305.427 312.931 299.983 297.947C292.673 277.83 279.744 254.766 262.595 231.248C243.296 204.784 225.17 186.085 208.719 175.667ZM98.5941 297.432L98.5048 296.837C96.3773 282.504 98.9408 269.042 101.465 260.274C109.76 231.459 130.389 202.18 158.065 179.944C178.554 163.484 189.552 162.39 209.231 174.851C225.773 185.326 243.977 204.099 263.339 230.65C280.537 254.234 293.506 277.374 300.844 297.568C306.35 312.725 308.568 325.952 306.775 332.951C306.737 333.098 306.328 334.419 303.737 336.646L303.453 336.892L303.172 336.678C298.844 333.392 293.903 329.153 288.672 324.664C277.895 315.415 266.761 305.86 253.032 297.166C234.471 285.412 216.024 278.517 196.637 276.088C160.293 271.538 131.375 281.223 99.1354 297.163L98.5941 297.432ZM212.322 166.546C190.538 152.751 176.322 154.127 153.818 172.206C125.02 195.343 103.517 225.937 94.8219 256.141C91.4148 267.981 88.4386 285.912 93.4922 304.362C124.208 288.675 155.125 275.086 194.996 280.077C213.49 282.395 231.137 289.004 248.949 300.281C262.32 308.749 273.283 318.158 283.882 327.255C290.8 333.189 297.321 338.785 302.656 342.373C308.213 338.79 311.607 335.101 312.48 331.691C314.666 323.157 312.498 309.177 306.376 292.325C298.84 271.587 285.589 247.915 268.054 223.868C248.247 196.707 229.496 177.422 212.322 166.546ZM92.8958 305.699L92.7529 305.188C87.4405 286.342 90.4692 267.994 93.9441 255.921C102.696 225.518 124.324 194.738 153.282 171.471C176.18 153.077 190.649 151.682 212.834 165.73C230.099 176.663 248.928 196.022 268.799 223.271C286.381 247.381 299.673 271.131 307.236 291.947C313.423 308.976 315.6 323.159 313.366 331.882C312.401 335.653 308.863 339.504 302.851 343.331L302.599 343.492L302.363 343.335C296.942 339.726 290.313 334.039 283.294 328.017C272.695 318.92 261.757 309.532 248.435 301.097C230.733 289.887 213.199 283.319 194.833 281.018C155.007 276.032 124.117 289.731 93.3769 305.453L92.8958 305.699ZM215.925 157.424C191.551 141.99 174.047 143.64 149.035 163.733C118.955 187.901 96.4533 219.996 87.301 251.789C82.9558 266.887 79.6756 289.598 88.6023 312.281L91.0047 311.048C119.491 296.411 151.777 279.823 193.193 285.007C210.666 287.197 227.4 293.478 244.352 304.213C257.315 312.422 268.082 321.662 278.495 330.599C286.144 337.162 293.352 343.348 299.316 347.124C300.19 347.678 300.991 348.16 301.702 348.561C311.572 343.12 317.415 337.084 319.072 330.622C321.682 320.426 319.503 305.239 312.769 286.704C305.007 265.342 291.433 241.062 273.513 216.488C253.198 188.63 233.822 168.758 215.925 157.424ZM88.1037 313.569L87.9266 313.128C78.6824 290.049 82.006 266.914 86.4231 251.569C95.633 219.578 118.259 187.295 148.5 162.999C173.893 142.598 191.672 140.927 216.438 156.609C234.426 167.999 253.879 187.944 274.258 215.891C292.226 240.53 305.841 264.887 313.629 286.326C320.43 305.041 322.618 320.424 319.956 330.812C318.216 337.609 312.131 343.901 301.871 349.515L301.649 349.636L301.44 349.519C300.665 349.088 299.778 348.557 298.804 347.94C292.788 344.13 285.557 337.925 277.901 331.357C267.494 322.425 256.75 313.205 243.839 305.029C226.994 294.362 210.375 288.12 193.029 285.948C151.889 280.797 119.74 297.315 91.3747 311.89L88.1037 313.569ZM219.281 147.006C192.472 130.03 171.367 131.981 144.004 153.963C112.64 179.161 89.1419 212.758 79.5319 246.139C74.262 264.451 70.7997 291.835 84.121 318.518C86.9602 317.111 89.9655 315.568 93.1388 313.937C120.733 299.761 151.929 283.731 191.141 288.64C207.593 290.701 223.414 296.656 239.507 306.846C252.059 314.795 262.638 323.875 272.868 332.656C280.697 339.373 288.092 345.718 294.473 349.758C298.562 352.346 300.233 352.915 300.772 353.039C301.191 352.86 301.967 352.453 302.55 352.147C315.389 345.402 323.08 337.363 325.414 328.254C328.461 316.353 326.274 300.046 318.914 279.785C310.926 257.8 297.028 232.912 278.725 207.81C257.9 179.255 237.9 158.796 219.281 147.006ZM83.6858 319.759L83.4937 319.377C69.8116 292.302 73.3089 264.487 78.6548 245.919C88.3209 212.34 111.945 178.555 143.469 153.229C171.204 130.947 192.604 128.974 219.793 146.19C238.503 158.038 258.581 178.57 279.47 207.214C297.82 232.38 311.759 257.344 319.775 279.407C327.202 299.85 329.398 316.349 326.3 328.444C323.891 337.846 316.028 346.103 302.926 352.985C302.225 353.354 301.353 353.812 300.923 353.973L300.808 354.017L300.691 353.998C300.151 353.907 298.416 353.395 293.96 350.574C287.527 346.5 280.11 340.138 272.259 333.399C262.05 324.638 251.496 315.578 238.995 307.662C223.009 297.54 207.303 291.625 190.978 289.581C152.041 284.705 120.981 300.665 93.5765 314.745C90.1827 316.488 87.0429 318.102 84.0801 319.564L83.6858 319.759ZM223.148 135.772C193.302 116.871 168.76 119.099 138.438 143.458C105.631 169.816 81.0087 205.102 70.8857 240.27C64.5968 262.116 61.0326 294.615 79.6563 325.55C84.3682 323.462 89.9154 320.613 95.7809 317.6C122.224 304.014 152.195 288.614 188.926 293.213C204.231 295.131 219.025 300.718 234.151 310.296C246.234 317.948 256.596 326.842 266.618 335.441C274.675 342.355 282.272 348.874 289.117 353.209C298.652 359.244 300.567 358.239 305.193 355.807C320.402 347.818 329.636 337.815 332.642 326.077C336.138 312.421 333.876 294.391 325.92 272.488C317.676 249.8 303.416 224.228 284.68 198.535C263.282 169.194 242.58 148.076 223.148 135.772ZM79.2604 326.731L79.0658 326.409C60.0478 295.09 63.6429 262.16 70.0079 240.05C80.1884 204.684 104.935 169.21 137.902 142.724C168.593 118.068 193.438 115.818 223.66 134.956C243.183 147.318 263.963 168.508 285.425 197.938C304.208 223.696 318.509 249.344 326.781 272.11C334.805 294.195 337.076 312.416 333.528 326.268C330.447 338.298 321.041 348.519 305.569 356.647C300.905 359.098 298.563 360.329 288.604 354.024C281.708 349.658 274.088 343.118 266.019 336.196C256.009 327.604 245.67 318.731 233.639 311.112C218.621 301.602 203.941 296.056 188.762 294.154C152.307 289.59 122.473 304.918 96.1492 318.444C90.1226 321.539 84.4317 324.463 79.6162 326.575L79.2604 326.731ZM227.28 122.424C194.113 101.421 165.644 103.962 132.087 130.921C97.677 158.566 71.8071 195.731 61.112 232.883C53.7363 258.507 50.1287 296.439 74.7415 331.791C75.6478 331.512 76.6501 331.162 77.7293 330.747C83.5438 328.513 90.79 324.791 98.4622 320.85C123.715 307.874 152.324 293.177 186.299 297.429C200.332 299.187 213.982 304.366 228.033 313.264C239.603 320.591 249.724 329.278 259.513 337.68C267.812 344.8 275.637 351.514 283 356.177C294.856 363.682 300.069 363.159 307.964 359.01C325.804 349.638 336.755 337.453 340.508 322.795C344.505 307.187 342.159 287.243 333.539 263.516C325.012 240.048 310.349 213.716 291.132 187.364C269.099 157.15 247.615 135.3 227.28 122.424ZM74.3422 332.883L74.1651 332.63C49.1497 296.908 52.7824 258.55 60.2349 232.664C70.9868 195.313 96.9803 157.961 131.552 130.186C165.471 102.936 194.254 100.37 227.792 121.608C248.218 134.542 269.779 156.464 291.876 186.767C311.141 213.183 325.844 239.592 334.399 263.137C343.087 287.047 345.439 307.183 341.393 322.984C337.566 337.936 326.445 350.34 308.34 359.85C300.116 364.171 294.708 364.729 282.488 356.993C275.073 352.299 267.226 345.564 258.917 338.434C249.137 330.041 239.039 321.374 227.52 314.08C213.577 305.25 200.041 300.111 186.135 298.37C152.436 294.152 123.963 308.78 98.8422 321.688C91.1341 325.647 83.8662 329.38 78.0033 331.633C76.7804 332.103 75.6503 332.493 74.6446 332.792L74.3422 332.883ZM231.412 109.076C195.023 86.033 162.432 88.9036 125.736 118.384C89.7225 147.318 62.6055 186.359 51.339 225.496C43.184 253.826 39.4119 295.753 67.7526 334.615C68.7048 335.921 69.3872 336.501 69.6453 336.695C70.1073 336.796 72.5263 337.085 79.4768 334.414C85.7774 331.994 93.2449 328.157 101.152 324.094C125.204 311.737 152.452 297.737 183.672 301.646C196.43 303.244 208.939 308.015 221.914 316.232C232.969 323.232 242.854 331.717 252.415 339.922C260.944 347.24 269 354.153 276.883 359.145C290.341 367.666 298.884 368.44 310.735 362.215C331.209 351.458 343.872 337.09 348.375 319.51C352.87 301.954 350.443 280.096 341.159 254.543C332.347 230.296 317.279 203.203 297.583 176.193C274.914 145.106 252.65 122.525 231.412 109.076ZM69.2168 337.572L69.1584 337.532C68.8744 337.331 68.0942 336.703 67.0083 335.213C38.4488 296.051 42.246 253.814 50.462 225.277C61.7844 185.94 89.0267 146.712 125.2 117.65C162.254 87.8813 195.169 84.9855 231.925 108.26C253.253 121.766 275.595 144.421 298.329 175.596C318.073 202.671 333.18 229.84 342.02 254.164C351.37 279.899 353.806 301.949 349.26 319.701C344.684 337.572 331.849 352.159 311.111 363.054C298.912 369.462 290.146 368.682 276.371 359.961C268.436 354.936 260.357 348.004 251.805 340.665C242.267 332.479 232.404 324.014 221.402 317.047C208.535 308.899 196.139 304.169 183.509 302.587C152.564 298.713 125.453 312.642 101.533 324.932C93.5899 329.012 86.099 332.861 79.7507 335.299C72.2339 338.188 69.7138 337.716 69.2853 337.592L69.2168 337.572ZM235.544 95.7284C196.032 70.7086 159.122 73.9239 119.385 105.847C81.768 136.069 53.4039 176.987 41.5661 218.11C32.8139 248.515 28.7878 293.545 59.3144 335.405C60.7302 337.347 62.2254 338.846 63.6371 339.741C70.8348 344.299 86.8741 336.058 103.856 327.333C126.695 315.598 152.581 302.299 181.046 305.862C192.528 307.3 203.896 311.663 215.797 319.2C226.333 325.872 235.982 334.153 245.314 342.163C254.086 349.69 262.368 356.795 270.767 362.114C286.767 372.243 298.749 373.17 313.506 365.417C336.613 353.279 350.991 336.729 356.241 316.227C361.235 296.721 358.725 272.948 348.777 245.57C339.684 220.543 324.212 192.691 304.036 165.022C280.729 133.064 257.685 109.749 235.544 95.7284ZM63.125 340.557C61.6232 339.606 60.0486 338.032 58.5702 336.003C27.8247 293.843 31.8767 248.502 40.6882 217.89C52.5828 176.569 81.0713 135.463 118.85 105.112C158.94 72.9042 196.183 69.6637 236.056 94.9124C258.287 108.99 281.41 132.378 304.78 164.425C325.004 192.159 340.516 220.088 349.638 245.192C359.652 272.752 362.171 296.716 357.126 316.417C351.801 337.212 337.252 353.979 313.882 366.257C298.791 374.185 286.559 373.252 270.254 362.929C261.804 357.579 253.5 350.453 244.708 342.908C235.395 334.916 225.769 326.655 215.285 320.015C203.49 312.546 192.236 308.225 180.881 306.803C152.693 303.274 126.944 316.503 104.226 328.176C87.0053 337.024 70.7412 345.38 63.125 340.557ZM239.675 82.3807C197.14 55.4455 155.716 59.0206 113.035 93.3098C73.8135 124.821 44.2023 167.616 31.7931 210.723C22.4429 243.204 18.1645 291.337 50.8763 336.195C52.9486 339.038 55.1839 341.229 57.5194 342.709C68.9053 349.919 86.3487 340.955 106.547 330.578C128.185 319.46 152.71 306.861 178.418 310.078C188.627 311.357 198.852 315.311 209.68 322.167C219.698 328.512 229.111 336.59 238.213 344.401C247.225 352.135 255.733 359.436 264.641 365.077C283.201 376.827 298.64 377.886 316.276 368.621C342.017 355.099 358.109 336.365 364.107 312.943C369.601 291.486 367.007 265.799 356.396 236.597C347.02 210.792 331.145 182.179 310.487 153.852C286.545 121.02 262.72 96.973 239.675 82.3807ZM57.0073 343.525C54.5808 341.988 52.2679 339.724 50.132 336.793C17.2006 291.637 21.5057 243.191 30.9152 210.503C43.3812 167.198 73.1177 124.214 112.498 92.576C155.529 58.0058 197.297 54.4039 240.187 81.5647C263.323 96.2148 287.225 120.334 311.232 153.254C331.937 181.647 347.853 210.336 357.257 236.219C367.934 265.604 370.537 291.482 364.993 313.134C358.92 336.848 342.656 355.799 316.652 369.46C298.691 378.897 282.985 377.831 264.136 365.898C255.169 360.22 246.638 352.899 237.607 345.148C228.523 337.352 219.133 329.295 209.167 322.983C198.448 316.195 188.336 312.281 178.255 311.019C152.822 307.835 128.434 320.365 106.918 331.42C86.469 341.926 68.8109 351 57.0073 343.525ZM106.416 80.4057L106.683 80.7731C65.2592 114.054 35.1911 157.581 22.0194 203.337C15.21 226.994 13.2847 250.191 16.2984 272.283C19.5126 295.838 28.3066 317.609 42.4381 336.987C45.2405 340.829 48.2384 343.677 51.4134 345.688C66.9724 355.543 86.8374 345.334 109.24 333.822C129.675 323.322 152.836 311.421 175.793 314.295C196.43 316.879 214.064 332.011 231.119 346.647C256.482 368.411 282.708 390.915 319.048 371.824C347.42 356.919 365.228 336.002 371.973 309.659C378.45 284.365 379.913 229.037 316.938 142.68C245.517 44.7428 176.742 24.4898 106.683 80.7731L106.416 80.4057ZM50.9715 346.585C47.6938 344.509 44.5974 341.566 41.6947 337.585C27.4747 318.087 18.6247 296.179 15.3896 272.469C12.3575 250.242 14.2929 226.908 21.1415 203.117C34.3717 157.16 64.5609 113.45 106.149 80.0384C144.183 49.4819 182.7 41.4361 220.631 56.1264C252.863 68.6087 284.607 96.7256 317.683 142.082C339.172 171.551 355.051 200.205 364.877 227.246C376.217 258.457 378.902 286.249 372.859 309.849C366.039 336.485 348.061 357.619 319.423 372.663C282.54 392.039 256.09 369.341 230.509 347.389C213.549 332.836 196.011 317.788 175.629 315.236C152.949 312.396 129.924 324.227 109.608 334.666C86.9476 346.309 66.8463 356.638 50.9715 346.585Z" fill="#4762A7"/>
</g>
</g>
<mask id="mask2" mask-type="alpha" maskUnits="userSpaceOnUse" x="9" y="121" width="313" height="215">
<path fill-rule="evenodd" clip-rule="evenodd" d="M9 121.083H321.635V335.047H9V121.083Z" fill="white"/>
</mask>
<g mask="url(#mask2)">
<path fill-rule="evenodd" clip-rule="evenodd" d="M280.001 190.238C315.47 226.204 339.938 272.977 303.925 308.663C268.788 343.487 200.719 337.829 143.359 325.652C82.0097 312.63 14.4532 292.046 9.49735 246.161C3.67912 192.298 49.3798 138.64 121.541 123.721C186.519 110.287 240.878 150.566 280.001 190.238Z" fill="#1C3557"/>
</g>
<path fill-rule="evenodd" clip-rule="evenodd" d="M56.232 337.648C53.1218 329.642 50.0123 321.637 46.9021 313.631C46.7694 313.301 46.2405 313.433 46.3725 313.764C49.4827 321.77 52.5929 329.775 55.7031 337.779C55.8352 338.11 56.3648 337.978 56.232 337.648Z" fill="#E4E7F4"/>
<path fill-rule="evenodd" clip-rule="evenodd" d="M187.523 315.635C187.128 314.016 186.272 311.316 185.078 311.855C184.353 312.193 184.485 313.408 184.55 314.016C184.616 314.96 184.815 315.905 185.078 316.85C184.748 316.58 182.5 315.028 181.512 315.095C181.314 315.095 181.182 315.366 181.314 315.568C182.434 317.255 183.693 318.943 185.21 320.293C186.133 321.035 187.062 321.441 188.117 320.698C189.238 319.955 189.508 318.605 189.573 317.323C189.639 316.445 189.838 312.463 188.842 312.328C187.721 312.125 187.59 315.163 187.523 315.635Z" fill="#FCBB41"/>
<path fill-rule="evenodd" clip-rule="evenodd" d="M128.862 319.955C127.742 320.562 127.28 322.048 127.016 322.318C127.016 321.912 127.807 319.618 127.28 319.483C126.753 319.348 125.757 321.17 125.428 321.71C125.361 321.103 125.757 319.212 125.229 319.212C124.637 319.212 124.505 319.82 124.439 320.293C124.241 321.305 123.582 326.435 125.559 326.3C126.423 326.233 127.345 325.018 127.807 324.41C128.466 323.533 129.462 322.25 129.528 321.103C129.66 320.495 129.462 319.618 128.862 319.955Z" fill="#FCBB41"/>
<path fill-rule="evenodd" clip-rule="evenodd" d="M48.3416 311.518C47.4834 311.315 48.3416 313.137 48.2757 314.218C47.7477 312.935 45.898 310.775 45.2375 311.315C44.1142 312.26 45.3693 315.095 45.4353 315.298C45.3693 315.23 43.5856 313.003 43.3878 313.61C43.0575 314.487 46.2942 318.605 47.2843 318.943C49.0687 319.618 49.5308 317.187 49.6633 315.905C49.6633 315.028 49.5967 311.855 48.3416 311.518Z" fill="#E4E7F4"/>
<path fill-rule="evenodd" clip-rule="evenodd" d="M52.5697 337.1L49.9277 332.443C49.7286 332.106 49.2665 332.443 49.4649 332.713C50.3238 334.266 51.2487 335.818 52.107 337.37C52.3054 337.708 52.7675 337.37 52.5697 337.1Z" fill="#E4E7F4"/>
<path fill-rule="evenodd" clip-rule="evenodd" d="M297.198 331.41C296.341 333.466 295.418 335.523 294.561 337.514C294.422 337.845 294.89 338.111 295.022 337.779C295.879 335.722 296.802 333.665 297.666 331.675C297.798 331.41 297.33 331.078 297.198 331.41Z" fill="#E4E7F4"/>
<path fill-rule="evenodd" clip-rule="evenodd" d="M218.249 230.028C212.638 223.261 206.231 215.697 200.547 208.995C203.126 207.005 205.763 205.081 208.538 203.356C213.495 209.194 219.574 216.559 224.526 222.464C222.613 225.251 220.233 227.308 218.249 230.028Z" fill="#F1F7ED"/>
<path fill-rule="evenodd" clip-rule="evenodd" d="M219.838 224.786C224.591 221.137 233.314 214.038 237.876 210.189C242.629 206.142 252.934 211.118 248.114 215.166C242.234 220.142 233.511 227.374 227.367 232.018C225.323 233.611 221.42 233.677 219.508 231.554C219.047 231.023 218.585 230.559 218.183 230.028C220.102 227.175 217.985 227.639 219.838 224.786Z" fill="#F1F7ED"/>
<path fill-rule="evenodd" clip-rule="evenodd" d="M208.538 203.356C206.362 200.237 203.191 195.128 201.734 195.261C200.218 195.394 203.653 197.583 203.586 199.441C203.521 201.299 197.904 193.602 196.183 194.199C194.403 194.797 199.888 197.915 199.354 198.711C198.761 199.574 195.589 194.465 194.271 195.261C192.946 196.057 198.102 199.773 197.508 200.569C196.915 201.431 193.876 195.991 192.682 197.451C191.891 198.446 195.458 201.1 196.051 202.493C196.651 203.82 192.748 198.446 192.089 199.706C191.43 200.967 198.431 206.474 200.548 208.995C202.729 211.517 208.538 203.356 208.538 203.356Z" fill="#7A86C1"/>
<path fill-rule="evenodd" clip-rule="evenodd" d="M202.927 212.645C202.994 212.578 202.994 212.578 202.927 212.645C202.994 212.578 202.994 212.578 202.927 212.645C202.994 212.578 202.994 212.578 202.927 212.645C205.433 210.057 207.944 207.536 210.523 205.147C210.786 204.882 211.116 205.346 210.852 205.611C208.472 207.801 206.231 210.123 203.983 212.445C203.983 212.512 203.916 212.512 203.916 212.578L203.323 213.109C203.125 213.242 202.729 212.844 202.927 212.645Z" fill="#7A86C1"/>
<path fill-rule="evenodd" clip-rule="evenodd" d="M210.588 205.744C209.863 204.882 209.203 204.086 208.538 203.289C205.835 205.081 203.126 206.939 200.548 208.929C201.537 210.057 202.526 211.251 203.586 212.512C205.63 209.991 208.076 207.867 210.588 205.744Z" fill="#7A86C1"/>
<path fill-rule="evenodd" clip-rule="evenodd" d="M225.389 223.791C225.191 223.194 224.927 222.663 224.525 222.132C224.328 221.801 223.8 222.132 224.064 222.398C224.393 222.862 224.658 223.393 224.855 223.924C224.927 224.322 225.455 224.189 225.389 223.791Z" fill="#ACCAE9"/>
<path fill-rule="evenodd" clip-rule="evenodd" d="M203.718 205.678C202.459 204.484 202.064 202.758 202.591 201.1C202.729 200.768 202.129 200.569 202.064 200.967C201.47 202.825 201.932 204.815 203.323 206.142C203.586 206.341 203.982 205.943 203.718 205.678Z" fill="#FEFEFE"/>
<path fill-rule="evenodd" clip-rule="evenodd" d="M113.605 189.621C108.914 194.73 102.902 201.365 98.0796 206.739C92.8601 208.995 83.8754 212.644 78.8544 214.569C73.0408 216.891 76.212 226.113 82.0255 223.791C89.1602 221.004 95.4359 218.549 102.439 215.365C102.572 215.298 102.638 215.232 102.769 215.166C103.629 214.569 104.422 213.706 104.883 213.109C111.226 206.009 114.728 201.763 121.201 194.73C118.89 192.806 116.115 191.413 113.605 189.621Z" fill="#F06057"/>
<path fill-rule="evenodd" clip-rule="evenodd" d="M116.974 199.441C118.295 197.981 119.682 196.455 121.201 194.73C118.824 192.74 116.049 191.413 113.538 189.621C112.482 190.816 111.358 192.01 110.17 193.337C112.614 195.195 114.728 197.384 116.974 199.441Z" fill="#ACCAE9"/>
<path fill-rule="evenodd" clip-rule="evenodd" d="M113.604 189.621C114.991 187.896 118.229 184.844 120.541 184.645C122.854 184.446 119.419 185.972 118.824 187.631C118.229 189.289 125.034 184.38 126.688 184.977C128.337 185.574 122.787 187.498 122.985 188.427C123.18 189.356 127.875 186.304 128.732 187.432C129.589 188.56 123.649 190.285 123.847 191.214C124.045 192.142 128.732 188.095 129.26 189.82C129.589 190.948 125.429 192.408 124.44 193.337C123.451 194.332 128.93 191.744 129.128 193.071C129.326 194.398 121.334 195.924 118.559 197.45C115.851 199.043 113.604 189.621 113.604 189.621Z" fill="#ACCAE9"/>
<path fill-rule="evenodd" clip-rule="evenodd" d="M118.824 188.759C118.757 188.427 118.229 188.361 118.229 188.759C118.361 189.953 118.361 191.944 117.106 192.541C116.775 192.673 117.04 193.204 117.37 193.005C118.89 192.408 118.956 190.152 118.824 188.759Z" fill="#7A86C1"/>
<path fill-rule="evenodd" clip-rule="evenodd" d="M98.0128 207.005C97.8809 207.536 97.6825 208.066 97.5506 208.597C97.4194 208.929 98.0128 209.128 98.08 208.73C98.2119 208.199 98.4103 207.668 98.5422 207.138C98.6734 206.806 98.08 206.673 98.0128 207.005Z" stroke="#E45552"/>
<path fill-rule="evenodd" clip-rule="evenodd" d="M117.436 199.508C115.124 197.185 112.877 194.929 110.565 192.607C110.302 192.342 109.905 192.74 110.17 193.005C112.481 195.328 114.728 197.583 117.04 199.906C117.305 200.171 117.701 199.773 117.436 199.508Z" fill="#ACCAE9"/>
<path fill-rule="evenodd" clip-rule="evenodd" d="M206.164 304.339C201.141 306.594 195.788 304.804 193.546 299.695C191.297 294.652 193.151 287.951 198.234 285.894C204.575 283.307 209.203 286.292 211.446 291.334C213.693 296.377 211.181 302.083 206.164 304.339Z" fill="#8CCDD1"/>
<path fill-rule="evenodd" clip-rule="evenodd" d="M205.63 299.363C205.499 299.164 205.433 298.7 205.63 298.501C205.835 298.301 206.099 298.368 206.23 298.567C206.626 299.164 207.549 298.434 207.087 297.837C206.56 297.107 205.499 297.041 204.839 297.572C204.114 298.169 204.18 299.296 204.642 300.027C205.103 300.69 206.033 299.96 205.63 299.363Z" fill="#477C9D"/>
<path fill-rule="evenodd" clip-rule="evenodd" d="M205.301 297.439C205.169 297.306 205.037 297.24 204.971 297.041C204.839 296.311 203.719 296.51 203.85 297.24C203.916 297.704 204.18 298.169 204.642 298.434C205.234 298.766 205.901 297.837 205.301 297.439Z" fill="#477C9D"/>
<path fill-rule="evenodd" clip-rule="evenodd" d="M208.538 290.007C209.468 289.079 210.391 288.15 211.247 287.287C211.775 286.757 211.05 285.894 210.522 286.425C209.599 287.353 208.67 288.282 207.812 289.145C207.285 289.609 208.011 290.539 208.538 290.007Z" fill="#477C9D"/>
<path fill-rule="evenodd" clip-rule="evenodd" d="M209.731 303.543C209.072 302.813 208.406 302.083 207.681 301.287C207.219 300.756 206.296 301.486 206.824 302.017C207.483 302.747 208.142 303.477 208.867 304.273C209.335 304.87 210.258 304.14 209.731 303.543Z" fill="#477C9D"/>
<path fill-rule="evenodd" clip-rule="evenodd" d="M195.26 291.268C194.6 290.87 193.941 290.406 193.282 290.008C193.077 289.875 192.814 289.742 192.616 289.676C192.551 289.543 192.484 289.411 192.286 289.344C192.089 289.278 191.891 289.211 191.759 289.278C191.495 289.344 191.297 289.543 191.297 289.809C191.232 290.406 192.089 290.671 192.484 290.87C193.282 291.268 193.941 291.733 194.667 292.197C195.194 292.529 195.919 291.6 195.26 291.268Z" fill="#477C9D"/>
<path fill-rule="evenodd" clip-rule="evenodd" d="M193.611 295.05C192.551 295.05 191.562 295.315 190.638 295.647C189.972 295.913 190.44 296.974 191.1 296.709C191.957 296.377 192.88 296.178 193.81 296.178C194.534 296.178 194.337 295.05 193.611 295.05Z" fill="#477C9D"/>
<path fill-rule="evenodd" clip-rule="evenodd" d="M191.957 290.074C192.418 289.145 191.957 288.15 191.495 287.353C191.166 286.69 190.111 287.155 190.441 287.818C190.705 288.283 191.1 288.814 190.968 289.411C190.902 289.675 190.705 290.074 190.375 289.941C189.709 289.675 189.247 290.738 189.979 291.002C190.836 291.268 191.627 290.804 191.957 290.074Z" fill="#477C9D"/>
<path fill-rule="evenodd" clip-rule="evenodd" d="M212.573 286.69C212.243 286.823 211.709 287.022 211.379 286.757C211.247 286.624 211.182 286.425 211.314 286.358C211.577 286.226 211.577 285.762 211.379 285.563C211.182 285.297 210.852 285.297 210.588 285.496C209.863 285.96 209.995 286.955 210.457 287.486C211.116 288.217 212.177 288.017 213.034 287.752C213.76 287.486 213.298 286.425 212.573 286.69Z" fill="#477C9D"/>
<path fill-rule="evenodd" clip-rule="evenodd" d="M209.731 305.401C209.533 304.936 209.929 304.405 210.39 304.671C210.984 305.069 211.709 304.141 211.05 303.742C210.457 303.344 209.665 303.344 209.072 303.809C208.472 304.273 208.341 305.136 208.67 305.799C209.006 306.529 210.061 306.064 209.731 305.401Z" fill="#477C9D"/>
<path fill-rule="evenodd" clip-rule="evenodd" d="M189.979 298.102C190.572 297.704 191.1 297.041 190.902 296.311C190.705 295.581 189.841 295.183 189.181 295.647C188.918 295.847 188.918 296.244 189.115 296.443C189.313 296.642 189.511 296.709 189.775 296.576V296.642V296.709C189.643 296.908 189.445 297.107 189.247 297.24C188.984 297.439 188.984 297.837 189.181 298.036C189.379 298.301 189.709 298.301 189.979 298.102Z" fill="#477C9D"/>
<path fill-rule="evenodd" clip-rule="evenodd" d="M197.574 305.599C198.234 304.671 197.772 303.277 196.585 303.078C196.051 303.013 195.524 303.145 195.128 303.543C194.667 304.008 194.996 304.737 195.656 304.737C195.919 304.737 196.051 304.538 196.117 304.34C196.519 304.206 196.915 304.604 196.651 305.003C196.256 305.533 197.178 306.197 197.574 305.599Z" fill="#477C9D"/>
<path fill-rule="evenodd" clip-rule="evenodd" d="M205.367 289.477C205.433 289.145 205.367 288.88 205.037 288.747C204.774 288.614 204.378 288.747 204.312 289.079C204.246 289.344 203.916 289.544 203.652 289.41C203.257 289.212 203.323 288.614 203.521 288.349C203.916 287.752 202.993 287.088 202.591 287.685C201.998 288.549 202.064 289.876 203.059 290.406C203.85 290.871 205.103 290.472 205.367 289.477Z" fill="#477C9D"/>
<path fill-rule="evenodd" clip-rule="evenodd" d="M198.102 297.24L199.756 296.908C200.481 296.775 200.284 295.647 199.559 295.78C198.959 295.913 198.431 295.979 197.838 296.112C197.376 295.382 196.256 295.05 195.458 294.851C194.733 294.652 194.337 295.714 195.062 295.913C195.524 296.045 196.783 296.311 196.981 296.842C197.179 297.505 196.256 297.97 195.788 298.235C195.194 298.633 195.919 299.496 196.519 299.098C197.245 298.633 197.97 298.036 198.102 297.24Z" fill="#477C9D"/>
<path fill-rule="evenodd" clip-rule="evenodd" d="M202.796 292.131C203.323 291.666 203.718 291.069 203.982 290.406C204.245 289.676 203.125 289.278 202.927 290.008C202.729 290.472 202.459 290.936 202.064 291.268C201.536 291.733 202.261 292.662 202.796 292.131Z" fill="#477C9D"/>
<path fill-rule="evenodd" clip-rule="evenodd" d="M213.1 296.576C212.771 296.377 212.374 296.045 212.441 295.581C212.441 295.316 212.704 294.984 212.968 294.984C213.693 295.05 213.825 293.856 213.1 293.856C212.374 293.79 211.709 294.254 211.445 294.918C210.786 294.785 210.061 294.851 209.402 295.05C209.138 295.117 209.006 295.581 209.138 295.78C209.269 296.112 209.599 296.178 209.863 296.045C210.325 295.913 210.852 295.913 211.379 295.979C211.577 296.643 212.111 297.173 212.771 297.505C213.363 297.97 213.759 296.908 213.1 296.576Z" fill="#477C9D"/>
<path fill-rule="evenodd" clip-rule="evenodd" d="M207.549 285.231C208.011 284.634 207.088 283.97 206.626 284.567C206.231 285.098 205.366 284.832 205.366 284.169C205.433 283.439 204.245 283.307 204.245 284.036C204.18 284.832 204.642 285.629 205.433 285.961C206.231 286.226 207.088 285.894 207.549 285.231Z" fill="#477C9D"/>
<path fill-rule="evenodd" clip-rule="evenodd" d="M198.893 289.742C198.563 288.88 198.035 288.084 197.376 287.42C197.574 286.823 197.442 286.093 197.311 285.496C197.113 284.766 195.985 284.965 196.183 285.694C196.315 286.093 196.519 286.757 196.248 287.221C196.117 287.42 195.788 287.619 195.656 287.42C195.26 286.823 194.337 287.553 194.799 288.15C195.26 288.814 196.117 288.814 196.717 288.415C197.178 288.946 197.574 289.543 197.837 290.273C198.102 290.87 199.156 290.406 198.893 289.742Z" fill="#477C9D"/>
<path fill-rule="evenodd" clip-rule="evenodd" d="M202.261 305.136C202.129 304.339 201.47 303.676 200.68 303.609C199.888 303.543 199.09 304.073 198.893 304.804C198.629 305.534 199.756 305.931 199.954 305.202C200.152 304.604 201.009 304.604 201.141 305.268C201.272 306.064 202.393 305.865 202.261 305.136Z" fill="#477C9D"/>
<path fill-rule="evenodd" clip-rule="evenodd" d="M202.861 251.658C195.26 263.866 181.125 267.781 168.902 260.15C156.679 252.52 150.996 235.469 158.993 223.459C168.902 208.663 183.235 208.199 195.458 215.829C207.681 223.459 210.522 239.383 202.861 251.658Z" fill="#A9D9DB"/>
<path fill-rule="evenodd" clip-rule="evenodd" d="M176.629 215.63C176.233 213.441 176.101 211.318 176.167 209.128C176.167 208.398 175.047 208.332 175.047 209.062C174.98 211.384 175.178 213.64 175.574 215.896C175.64 216.625 176.76 216.36 176.629 215.63Z" fill="#69C5B0"/>
<path fill-rule="evenodd" clip-rule="evenodd" d="M171.216 227.109C170.748 226.644 170.352 226.18 170.023 225.649C169.825 225.383 169.561 225.251 169.232 225.383C168.968 225.516 168.836 225.914 168.968 226.18C169.363 226.777 169.825 227.374 170.352 227.838C170.886 228.435 171.743 227.639 171.216 227.109Z" fill="#7A86C1"/>
<path fill-rule="evenodd" clip-rule="evenodd" d="M167.649 236.928C166.192 236.995 164.742 236.862 163.351 236.53C162.625 236.398 162.296 237.459 163.021 237.658C164.544 237.99 166.06 238.189 167.649 238.123C168.308 238.056 168.375 236.928 167.649 236.928Z" fill="#7A86C1"/>
<path fill-rule="evenodd" clip-rule="evenodd" d="M157.998 245.886C156.612 246.35 155.294 246.947 153.969 247.544C153.31 247.876 153.837 248.871 154.496 248.54C155.756 247.942 157.009 247.412 158.268 246.947C158.927 246.748 158.663 245.62 157.998 245.886Z" fill="#477C9D"/>
<path fill-rule="evenodd" clip-rule="evenodd" d="M202.525 217.09C200.811 218.616 199.09 220.208 197.31 221.734C196.783 222.199 197.508 223.061 198.102 222.597C199.822 221.071 201.536 219.479 203.323 217.953C203.85 217.422 203.125 216.559 202.525 217.09Z" fill="#477C9D"/>
<path fill-rule="evenodd" clip-rule="evenodd" d="M191.957 264.53C191.495 263.402 190.968 262.34 190.309 261.345C189.913 260.748 188.918 261.279 189.313 261.876C189.979 262.871 190.506 263.999 190.968 265.061C191.232 265.79 192.287 265.193 191.957 264.53Z" fill="#477C9D"/>
<path fill-rule="evenodd" clip-rule="evenodd" d="M177.69 207.735C177.953 207.071 176.826 206.74 176.563 207.403C176.299 208.066 175.507 207.867 175.244 207.337C174.981 206.673 173.919 207.204 174.255 207.867C174.518 208.597 175.244 209.062 176.035 208.995C176.826 208.995 177.427 208.465 177.69 207.735Z" fill="#477C9D"/>
<path fill-rule="evenodd" clip-rule="evenodd" d="M204.905 217.024C204.509 217.09 203.323 216.957 203.718 216.227C204.048 215.564 203.126 214.967 202.729 215.63C202.328 216.294 202.459 217.09 202.994 217.621C203.52 218.218 204.377 218.284 205.169 218.085C205.901 217.953 205.631 216.891 204.905 217.024Z" fill="#477C9D"/>
<path fill-rule="evenodd" clip-rule="evenodd" d="M154.76 248.009C154.233 247.08 152.585 246.748 151.655 246.615C150.93 246.482 150.93 247.677 151.589 247.743C151.991 247.809 152.321 247.876 152.651 248.009C152.914 248.075 153.574 248.274 153.64 248.539C153.706 248.738 153.508 249.269 153.376 249.468C153.244 249.866 153.046 250.198 152.783 250.596C152.387 251.193 153.376 251.857 153.771 251.193C154.365 250.463 155.294 248.937 154.76 248.009Z" fill="#477C9D"/>
<path fill-rule="evenodd" clip-rule="evenodd" d="M192.353 266.056C192.484 266.122 192.616 266.188 192.748 266.255C193.414 266.52 193.743 265.458 193.078 265.127C192.616 264.928 192.419 264.53 191.891 264.53C191.43 264.53 191.034 264.861 190.902 265.259C190.506 266.188 190.441 267.25 190.638 268.312C190.771 269.041 191.891 268.776 191.76 268.046C191.627 267.449 191.694 266.852 191.825 266.255C191.825 266.122 191.891 265.989 191.957 265.857C192.023 265.658 191.825 265.724 192.089 265.724C192.089 265.79 192.221 265.989 192.353 266.056Z" fill="#477C9D"/>
<path fill-rule="evenodd" clip-rule="evenodd" d="M208.472 243.165C208.142 243.032 207.879 242.833 207.615 242.568C207.483 242.435 207.153 242.17 207.153 241.971C207.153 241.772 207.549 241.573 207.747 241.506C208.011 241.307 208.274 241.241 208.604 241.175C209.336 240.976 209.072 239.914 208.341 240.047C207.483 240.246 206.231 240.843 206.033 241.838C205.835 242.9 207.022 243.762 207.812 244.16C208.538 244.492 209.138 243.497 208.472 243.165Z" fill="#477C9D"/>
<path fill-rule="evenodd" clip-rule="evenodd" d="M170.154 225.251V223.128C170.154 222.398 169.034 222.331 169.034 223.061V224.322V224.919V225.251C169.034 225.384 169.034 225.384 168.968 225.317C168.77 225.384 168.111 225.052 167.913 224.985C167.511 224.786 167.116 224.587 166.719 224.322C166.127 223.924 165.467 224.919 166.127 225.317C166.654 225.649 167.248 225.981 167.847 226.18C168.375 226.379 168.968 226.578 169.495 226.445C170.023 226.18 170.154 225.715 170.154 225.251Z" fill="#477C9D"/>
<path fill-rule="evenodd" clip-rule="evenodd" d="M196.321 232.616C195.656 232.682 194.996 232.682 194.403 232.549C193.875 232.483 192.484 232.218 192.353 231.554C192.221 230.957 192.88 230.161 193.216 229.763C193.678 229.166 194.205 228.568 194.667 227.905C195.062 227.308 194.073 226.644 193.678 227.308C193.018 228.369 191.232 229.895 191.166 231.355C191.1 231.421 191.034 231.488 191.034 231.554C190.902 231.554 190.441 231.82 190.375 231.886C190.177 232.019 189.913 232.151 189.709 232.218C189.181 232.483 188.654 232.748 188.127 233.08C187.467 233.412 187.995 234.473 188.654 234.075C189.379 233.677 190.111 233.346 190.836 232.947C191.1 232.815 191.364 232.682 191.627 232.549C192.089 233.014 192.814 233.279 193.414 233.412C194.403 233.677 195.392 233.744 196.387 233.677C196.981 233.677 197.047 232.549 196.321 232.616Z" fill="#477C9D"/>
<path fill-rule="evenodd" clip-rule="evenodd" d="M186.076 219.744C186.472 219.081 185.483 218.483 185.087 219.147C184.824 219.611 184.296 220.208 183.703 220.275C182.839 220.341 182.707 219.213 182.575 218.616C182.444 217.886 181.323 218.152 181.455 218.881C181.586 219.678 181.916 220.673 182.641 221.137C182.509 222 182.312 222.796 181.916 223.592C181.586 224.256 182.575 224.853 182.905 224.189C183.301 223.327 183.571 222.398 183.769 221.403C184.692 221.336 185.615 220.54 186.076 219.744Z" fill="#477C9D"/>
<path fill-rule="evenodd" clip-rule="evenodd" d="M179.272 240.909C179.8 240.379 180.4 239.914 180.928 239.383C181.455 238.919 180.729 238.056 180.13 238.521C179.536 239.052 178.943 239.582 178.35 240.113C177.361 239.649 176.101 240.246 175.047 240.578C174.321 240.777 174.585 241.905 175.31 241.706C176.101 241.44 177.361 240.777 178.085 241.374C178.943 242.037 178.811 243.298 178.35 244.094C177.954 244.758 178.943 245.355 179.339 244.691C179.998 243.563 180.063 242.037 179.272 240.909Z" fill="#477C9D"/>
<path fill-rule="evenodd" clip-rule="evenodd" d="M191.1 251.791C190.638 251.326 190.111 250.862 189.445 250.862C189.445 250.795 189.379 250.729 189.313 250.663C189.181 250.464 189.05 250.198 189.05 249.999C189.05 249.269 187.863 249.203 187.928 249.933C187.928 250.464 188.127 250.928 188.39 251.326C187.995 251.857 187.995 252.653 188.061 253.317C188.193 254.046 189.247 253.781 189.181 253.051C189.116 252.786 188.984 251.99 189.445 251.99C189.709 251.99 190.045 252.388 190.243 252.587C190.77 253.118 191.627 252.321 191.1 251.791Z" fill="#477C9D"/>
<path fill-rule="evenodd" clip-rule="evenodd" d="M170.418 246.284C170.82 245.819 171.15 245.288 171.546 244.824C172.007 244.227 171.018 243.63 170.55 244.227C170.221 244.691 169.891 245.156 169.495 245.62C169.1 245.421 168.572 245.421 168.111 245.554C167.379 245.753 167.649 246.881 168.375 246.682C169.298 246.416 170.023 247.213 169.693 248.075C169.429 248.739 170.484 249.07 170.82 248.407C171.018 247.677 170.886 246.881 170.418 246.284Z" fill="#477C9D"/>
<path fill-rule="evenodd" clip-rule="evenodd" d="M201.8 246.549C201.537 246.284 201.207 245.952 201.14 245.554C201.009 245.089 201.537 244.89 201.932 244.957C202.664 245.156 202.994 244.028 202.261 243.829C201.537 243.63 200.745 243.895 200.283 244.492C200.218 244.492 200.218 244.426 200.152 244.426C199.756 244.36 199.288 244.293 198.893 244.094C198.629 243.961 198.299 244.028 198.102 244.293C197.969 244.559 198.035 244.957 198.299 245.089C198.826 245.355 199.426 245.554 200.02 245.554C200.086 246.217 200.548 246.814 201.009 247.279C201.47 247.876 202.328 247.08 201.8 246.549Z" fill="#477C9D"/>
<path fill-rule="evenodd" clip-rule="evenodd" d="M207.483 233.279C206.955 233.478 206.296 233.213 206.033 232.682C205.769 232.151 206.164 231.421 206.758 231.222C207.483 231.023 207.22 229.895 206.494 230.094C205.301 230.493 204.575 231.753 204.905 232.947C205.235 234.075 206.56 234.739 207.681 234.407C208.472 234.208 208.209 233.08 207.483 233.279Z" fill="#477C9D"/>
<path fill-rule="evenodd" clip-rule="evenodd" d="M205.703 232.947C205.631 232.682 205.301 232.417 205.037 232.549C204.509 232.748 203.916 232.881 203.389 233.08C203.125 233.146 202.861 233.478 202.994 233.744C203.059 234.009 203.389 234.274 203.653 234.142C204.18 233.943 204.774 233.81 205.301 233.611C205.564 233.545 205.769 233.279 205.703 232.947Z" fill="#477C9D"/>
<path fill-rule="evenodd" clip-rule="evenodd" d="M163.087 236.862C162.889 235.8 161.966 234.871 160.839 234.938C160.114 235.004 160.048 236.132 160.773 236.066C161.373 236.066 161.9 236.53 161.966 237.127C162.032 237.857 161.505 238.454 160.905 238.786C160.246 239.184 160.773 240.179 161.439 239.781C162.494 239.184 163.351 238.056 163.087 236.862Z" fill="#477C9D"/>
<path fill-rule="evenodd" clip-rule="evenodd" d="M177.493 256.17C177.559 256.103 177.624 256.103 177.624 256.037L179.47 253.118C179.866 252.52 178.877 251.857 178.482 252.52L176.628 255.44C176.496 255.639 176.496 255.772 176.563 255.904C175.574 255.772 174.519 256.369 173.985 257.231C173.589 257.828 174.585 258.492 174.98 257.828C175.31 257.298 175.969 256.9 176.563 257.032C177.229 257.165 177.624 258.094 177.09 258.558C176.563 259.089 177.361 259.952 177.888 259.421C178.877 258.492 178.679 256.833 177.493 256.17Z" fill="#477C9D"/>
<path fill-rule="evenodd" clip-rule="evenodd" d="M168.045 258.425C168.704 257.696 169.364 256.899 170.089 256.17C170.55 255.639 169.825 254.776 169.297 255.307C168.573 256.103 167.847 256.899 167.181 257.696C167.116 257.762 167.116 257.828 167.116 257.828C166.39 257.563 165.533 257.563 164.741 257.961C164.076 258.293 164.61 259.288 165.27 258.956C166.918 258.094 168.441 259.752 167.781 261.411C167.51 262.075 168.573 262.406 168.902 261.743C169.364 260.482 168.902 259.222 168.045 258.425Z" fill="#477C9D"/>
<path fill-rule="evenodd" clip-rule="evenodd" d="M200.02 255.904C199.492 255.971 199.024 255.573 198.497 255.374C198.035 255.241 197.442 255.307 197.046 255.639C196.183 256.302 196.322 257.696 196.519 258.625C196.716 259.354 197.837 259.089 197.64 258.359C197.508 257.895 197.178 256.369 198.035 256.435C198.694 256.501 199.156 257.032 199.888 256.966C200.679 257.032 200.745 255.838 200.02 255.904Z" fill="#477C9D"/>
<path fill-rule="evenodd" clip-rule="evenodd" d="M167.584 213.839C167.313 213.175 166.258 213.374 166.456 214.104C166.852 215.298 165.533 216.227 164.61 215.365C164.076 214.9 163.219 215.63 163.747 216.161C164.544 216.891 165.73 217.09 166.654 216.493C167.511 215.895 167.913 214.834 167.584 213.839Z" fill="#477C9D"/>
<path fill-rule="evenodd" clip-rule="evenodd" d="M167.847 217.09C167.577 216.626 167.248 216.161 166.983 215.63C166.588 214.967 165.599 215.498 165.994 216.161C166.259 216.626 166.588 217.09 166.851 217.621C167.181 218.284 168.176 217.754 167.847 217.09Z" fill="#477C9D"/>
<path fill-rule="evenodd" clip-rule="evenodd" d="M194.139 213.64C193.414 214.9 191.562 213.772 192.353 212.512C192.748 211.848 191.759 211.318 191.364 211.915C190.771 212.91 191.034 214.37 192.089 215.033C193.151 215.63 194.535 215.232 195.128 214.171C195.524 213.64 194.535 213.043 194.139 213.64Z" fill="#477C9D"/>
<path fill-rule="evenodd" clip-rule="evenodd" d="M175.64 298.633C170.352 307.126 160.509 309.846 152.057 304.538C143.599 299.23 139.636 287.42 145.181 279.06C152.057 268.776 162.032 268.444 170.484 273.752C178.943 279.127 180.927 290.14 175.64 298.633Z" fill="#8CCDD1"/>
<path fill-rule="evenodd" clip-rule="evenodd" d="M147.166 274.747C146.77 274.084 145.847 274.681 146.177 275.344C146.506 275.942 147.099 276.937 146.506 277.534C146.045 277.933 145.313 277.866 144.72 277.866C143.994 277.8 143.994 278.928 144.72 278.993C145.715 279.06 146.902 278.993 147.495 278.132C148.286 277.003 147.758 275.742 147.166 274.747Z" fill="#69C5B0"/>
<path fill-rule="evenodd" clip-rule="evenodd" d="M166.851 267.781C166.192 268.113 165.27 267.582 165.203 266.852C165.137 266.122 163.944 266.122 164.076 266.852C164.142 267.449 164.406 267.913 164.808 268.312C164.611 269.174 164.406 270.037 164.208 270.899C164.076 271.629 165.137 271.894 165.335 271.231C165.533 270.435 165.665 269.705 165.863 268.909C166.39 269.041 166.983 269.041 167.511 268.776C168.111 268.511 167.511 267.515 166.851 267.781Z" fill="#477C9D"/>
<path fill-rule="evenodd" clip-rule="evenodd" d="M180.327 283.041C179.602 282.974 179.272 282.113 179.866 281.647C180.466 281.25 179.866 280.255 179.272 280.652C178.679 281.117 178.415 281.781 178.415 282.377C177.822 282.776 177.156 283.173 176.496 283.44C175.837 283.704 176.101 284.832 176.826 284.567C177.558 284.301 178.218 283.97 178.877 283.505C179.207 283.904 179.668 284.169 180.327 284.236C181.125 284.236 181.125 283.041 180.327 283.041Z" fill="#477C9D"/>
<path fill-rule="evenodd" clip-rule="evenodd" d="M170.286 306.661C169.891 305.599 168.638 304.87 167.577 305.467C166.588 305.998 166.39 307.391 167.115 308.188C167.577 308.718 168.44 307.921 167.913 307.391C167.643 307.126 167.847 306.594 168.111 306.462C168.506 306.263 169.034 306.594 169.166 306.993C169.429 307.657 170.55 307.391 170.286 306.661Z" fill="#477C9D"/>
<path fill-rule="evenodd" clip-rule="evenodd" d="M151.926 303.078C150.996 303.941 150.139 304.87 149.413 305.931C148.82 305.468 148.023 305.468 147.429 305.799C146.77 306.131 147.363 307.126 148.023 306.795C148.615 306.463 149.216 307.126 148.886 307.723C148.55 308.386 149.546 308.917 149.875 308.32C150.139 307.856 150.205 307.325 150.072 306.86C150.205 306.795 150.271 306.728 150.337 306.661C150.996 305.666 151.787 304.737 152.717 303.875C153.31 303.41 152.453 302.614 151.926 303.078Z" fill="#477C9D"/>
<path fill-rule="evenodd" clip-rule="evenodd" d="M145.649 295.183C144.983 294.254 143.731 294.188 142.676 294.32C142.346 294.387 142.208 294.784 142.273 295.05C142.346 295.382 142.676 295.515 143.005 295.448C143.533 295.382 144.324 295.382 144.72 295.78C145.05 296.111 145.05 296.577 144.72 296.842C144.126 297.306 144.983 298.102 145.511 297.637C146.242 297.107 146.177 295.913 145.649 295.183Z" fill="#477C9D"/>
<path fill-rule="evenodd" clip-rule="evenodd" d="M151.926 284.501C151.326 284.169 150.864 283.771 150.337 283.306C150.469 282.643 150.139 281.914 149.546 281.582C148.952 281.183 148.352 282.178 148.952 282.577C149.083 282.643 149.216 282.842 149.216 283.041C149.083 283.174 149.018 283.306 149.018 283.439C148.82 283.638 148.484 283.572 148.286 283.373C148.023 283.174 147.626 283.306 147.495 283.572C147.297 283.837 147.429 284.169 147.693 284.368C148.286 284.832 149.15 284.766 149.743 284.302C150.205 284.766 150.798 285.164 151.326 285.496C151.992 285.895 152.518 284.899 151.926 284.501Z" fill="#477C9D"/>
<path fill-rule="evenodd" clip-rule="evenodd" d="M163.944 276.87C163.746 277.202 163.417 277.335 163.154 277.335C163.022 277.136 162.824 277.069 162.559 277.069C162.296 276.87 162.165 276.472 162.296 276.074C162.494 275.344 161.367 275.079 161.168 275.742C160.905 276.539 161.168 277.468 161.835 277.998C161.571 278.596 161.367 279.193 161.102 279.79C160.839 280.453 161.966 280.785 162.23 280.122C162.428 279.591 162.692 279.06 162.889 278.529C163.681 278.596 164.472 278.197 164.94 277.534C165.335 276.87 164.34 276.274 163.944 276.87Z" fill="#477C9D"/>
<path fill-rule="evenodd" clip-rule="evenodd" d="M166.588 289.544C166.06 289.079 165.336 288.615 164.676 288.747C164.676 288.68 164.61 288.615 164.544 288.548C164.076 288.017 163.614 287.553 163.219 287.022C162.757 286.491 161.901 287.288 162.427 287.818C162.89 288.349 163.284 288.813 163.746 289.344C163.153 290.074 163.351 291.135 163.681 291.932C163.944 292.596 165.071 292.33 164.808 291.6C164.61 291.135 164.34 290.539 164.61 290.074C164.873 289.544 165.533 290.074 165.797 290.339C166.324 290.803 167.181 290.007 166.588 289.544Z" fill="#477C9D"/>
<path fill-rule="evenodd" clip-rule="evenodd" d="M157.272 298.898C157.206 298.898 157.206 298.832 157.272 298.832C157.602 298.036 157.931 297.306 158.268 296.51C158.4 296.245 158.13 295.913 157.865 295.78C157.536 295.714 157.272 295.913 157.141 296.178C156.811 296.974 156.481 297.704 156.152 298.5C156.085 298.633 156.152 298.766 156.217 298.898C155.558 299.098 155.031 299.695 154.958 300.425C154.893 301.154 156.02 301.154 156.085 300.425C156.152 300.026 156.745 299.827 157.074 300.026C157.536 300.225 157.668 300.889 157.602 301.353C157.47 302.083 158.598 302.415 158.73 301.685C158.927 300.624 158.531 299.23 157.272 298.898Z" fill="#477C9D"/>
<path fill-rule="evenodd" clip-rule="evenodd" d="M171.546 297.638C170.952 297.174 170.023 297.107 169.297 297.506L168.243 296.378C167.715 295.847 166.917 296.642 167.445 297.174C167.847 297.571 168.243 297.969 168.572 298.368C168.309 298.965 168.44 299.695 168.902 300.225C169.363 300.823 170.155 299.96 169.693 299.429C169.495 299.164 169.561 298.766 169.825 298.566C170.155 298.301 170.682 298.434 171.018 298.7C171.282 298.898 171.677 298.766 171.809 298.501C171.875 298.102 171.743 297.837 171.546 297.638Z" fill="#477C9D"/>
<path fill-rule="evenodd" clip-rule="evenodd" d="M173.787 283.837C173.589 284.036 173.259 283.704 173.259 283.505C173.128 283.041 173.656 282.51 173.985 282.245C174.585 281.78 173.721 280.984 173.194 281.449C172.6 281.914 172.073 282.776 172.139 283.572C172.007 283.572 171.875 283.638 171.81 283.704C171.48 283.97 171.15 284.236 170.887 284.501C170.616 284.7 170.682 285.098 170.887 285.297C171.15 285.563 171.48 285.496 171.678 285.297C172.007 285.031 172.337 284.766 172.6 284.501C173.128 285.031 174.058 285.164 174.651 284.568C175.113 284.102 174.321 283.306 173.787 283.837Z" fill="#477C9D"/>
<path fill-rule="evenodd" clip-rule="evenodd" d="M178.218 295.515C178.877 295.847 179.47 294.851 178.811 294.52C177.954 294.055 176.761 294.453 176.497 295.448C176.233 296.443 177.09 297.572 178.152 297.505C178.877 297.438 178.877 296.31 178.152 296.377C177.888 296.377 177.492 296.111 177.624 295.78C177.624 295.515 177.954 295.382 178.218 295.515Z" fill="#477C9D"/>
<path fill-rule="evenodd" clip-rule="evenodd" d="M157.8 270.037C157.733 269.705 157.338 269.572 157.074 269.638C156.744 269.705 156.613 270.037 156.679 270.368C156.744 270.965 156.02 271.098 155.755 270.634C155.361 270.037 154.365 270.567 154.761 271.231C155.163 271.894 156.02 272.292 156.811 271.961C157.601 271.629 157.931 270.833 157.8 270.037Z" fill="#477C9D"/>
<path fill-rule="evenodd" clip-rule="evenodd" d="M157.734 177.546C155.228 176.352 154.233 173.698 155.426 171.243C156.613 168.721 159.784 167.328 162.165 168.589C165.203 170.181 165.533 172.901 164.34 175.423C163.154 177.878 160.179 178.74 157.734 177.546Z" fill="#A9D9DB"/>
<path fill-rule="evenodd" clip-rule="evenodd" d="M157.536 168.788C157.338 168.058 156.283 168.39 156.415 169.119V169.186C156.415 169.186 156.349 169.252 156.283 169.318C156.283 169.318 156.217 169.385 156.151 169.385H156.085C155.492 168.987 154.892 169.982 155.492 170.38C156.547 170.844 157.8 169.849 157.536 168.788Z" fill="#69C5B0"/>
<path fill-rule="evenodd" clip-rule="evenodd" d="M164.406 176.949C163.746 176.418 162.757 175.954 161.966 176.484C161.3 176.949 161.037 177.811 161.571 178.475C162.032 179.072 162.824 178.209 162.362 177.679C162.428 177.745 162.362 177.679 162.428 177.546C162.494 177.48 162.56 177.413 162.691 177.413C163.087 177.413 163.483 177.745 163.813 177.944C164.406 178.342 165.006 177.347 164.406 176.949Z" fill="#69C5B0"/>
<path fill-rule="evenodd" clip-rule="evenodd" d="M165.467 170.911C165.269 170.977 164.94 170.977 164.808 170.712C164.676 170.513 164.808 170.247 165.006 170.115C165.599 169.717 165.071 168.721 164.406 169.12C163.747 169.584 163.417 170.446 163.812 171.176C164.142 171.906 165.071 172.238 165.797 171.973C166.456 171.773 166.192 170.646 165.467 170.911Z" fill="#69C5B0"/>
<path fill-rule="evenodd" clip-rule="evenodd" d="M160.905 169.385C160.838 169.053 160.312 169.186 160.378 169.517C160.444 169.849 160.179 170.181 159.916 170.247C159.587 170.314 159.323 170.048 159.19 169.716C159.125 169.385 158.531 169.517 158.664 169.849C158.795 170.314 159.125 170.645 159.52 170.778C159.587 171.043 159.652 171.309 159.718 171.574C159.784 171.906 160.378 171.773 160.246 171.442C160.179 171.242 160.114 170.977 160.114 170.778C160.707 170.645 161.037 169.982 160.905 169.385Z" fill="#7A86C1"/>
<path fill-rule="evenodd" clip-rule="evenodd" d="M158.993 172.968C158.597 172.769 158.136 172.702 157.734 172.769C157.47 172.503 157.074 172.437 156.745 172.503C156.415 172.57 156.547 173.167 156.877 173.034C157.008 172.968 157.14 173.034 157.272 173.101C157.272 173.233 157.338 173.3 157.47 173.366C157.602 173.631 157.47 173.963 157.14 174.096C156.811 174.228 157.074 174.759 157.404 174.56C157.866 174.361 158.136 173.83 157.997 173.3C158.202 173.3 158.465 173.366 158.663 173.432C159.06 173.631 159.323 173.167 158.993 172.968Z" fill="#7A86C1"/>
<path fill-rule="evenodd" clip-rule="evenodd" d="M162.362 174.228C161.966 173.963 161.505 173.83 160.971 173.83L160.707 172.901C160.641 172.57 160.048 172.702 160.179 173.034C160.246 173.366 160.378 173.631 160.444 173.963C160.444 174.029 160.509 174.096 160.575 174.162C160.509 174.56 160.444 174.958 160.378 175.356C160.312 175.688 160.838 175.887 160.905 175.489L161.103 174.361C161.439 174.427 161.769 174.494 162.032 174.693C162.428 174.892 162.692 174.427 162.362 174.228Z" fill="#7A86C1"/>
<path fill-rule="evenodd" clip-rule="evenodd" d="M164.676 173.963C164.874 174.295 165.335 173.963 165.203 173.698C164.94 173.233 164.274 173.366 164.076 173.83C163.746 174.428 164.34 174.958 164.742 175.224C165.072 175.423 165.335 174.958 165.006 174.759C164.874 174.627 164.544 174.428 164.544 174.228C164.544 174.162 164.544 174.096 164.61 174.096C164.61 174.029 164.61 173.963 164.676 173.963Z" fill="#7A86C1"/>
<path fill-rule="evenodd" clip-rule="evenodd" d="M157.866 177.878C157.8 177.546 157.734 177.28 157.734 176.949C157.734 176.75 157.536 176.617 157.404 176.683C156.943 176.816 156.547 177.015 156.085 177.148C155.756 177.28 155.888 177.811 156.217 177.679C156.547 177.546 156.877 177.413 157.206 177.347C157.206 177.546 157.272 177.811 157.338 178.01C157.404 178.342 157.931 178.209 157.866 177.878Z" fill="#477C9D"/>
<path fill-rule="evenodd" clip-rule="evenodd" d="M162.296 167.527C161.9 168.191 161.037 167.992 160.839 167.262C160.773 166.93 160.246 167.063 160.311 167.394C160.576 168.655 162.165 168.854 162.757 167.792C162.955 167.527 162.494 167.195 162.296 167.527Z" fill="#7A86C1"/>
<path fill-rule="evenodd" clip-rule="evenodd" d="M137.19 235.933C134.152 234.473 132.965 231.222 134.415 228.237C135.865 225.185 139.703 223.459 142.676 225.052C146.308 226.976 146.77 230.36 145.313 233.346C143.862 236.331 140.23 237.393 137.19 235.933Z" fill="#A9D9DB"/>
<path fill-rule="evenodd" clip-rule="evenodd" d="M141.416 238.189C141.746 238.056 141.813 237.791 141.746 237.459L141.153 234.672C141.087 234.341 140.691 234.208 140.427 234.341C140.098 234.473 140.032 234.739 140.098 235.071C140.296 235.999 140.494 236.928 140.691 237.857C140.757 238.189 141.153 238.322 141.416 238.189Z" fill="#477C9D"/>
<path fill-rule="evenodd" clip-rule="evenodd" d="M135.14 230.426C135.8 230.691 136.334 229.696 135.668 229.364C134.679 228.966 133.69 228.568 132.628 228.17C131.969 227.905 131.442 228.9 132.101 229.232C133.163 229.63 134.151 230.028 135.14 230.426Z" fill="#477C9D"/>
<path fill-rule="evenodd" clip-rule="evenodd" d="M143.665 229.762H146.836C147.561 229.762 147.496 228.635 146.77 228.635H143.599C142.874 228.635 142.939 229.762 143.665 229.762Z" fill="#477C9D"/>
<path fill-rule="evenodd" clip-rule="evenodd" d="M147.363 230.492C148.089 230.625 148.286 229.497 147.561 229.364C147.429 229.364 147.363 229.165 147.495 229.099C147.759 228.966 147.956 228.701 147.825 228.369C147.759 228.104 147.363 227.905 147.1 228.037C146.572 228.237 146.177 228.767 146.243 229.364C146.374 229.895 146.836 230.36 147.363 230.492Z" fill="#477C9D"/>
<path fill-rule="evenodd" clip-rule="evenodd" d="M140.691 239.516C140.823 239.251 140.954 239.052 141.087 238.786C141.153 238.72 141.219 238.587 141.219 238.521C141.284 238.653 141.351 238.786 141.483 238.919C141.943 239.516 142.874 238.852 142.412 238.255C142.208 237.99 142.142 237.658 141.878 237.459C141.614 237.194 141.219 237.127 140.889 237.26C140.56 237.393 140.362 237.658 140.23 237.99C140.032 238.322 139.834 238.653 139.636 239.052C139.373 239.715 140.362 240.179 140.691 239.516Z" fill="#477C9D"/>
<path fill-rule="evenodd" clip-rule="evenodd" d="M130.914 229.497C131.508 229.497 132.365 229.431 132.767 228.966C133.426 228.369 132.694 227.639 132.365 227.109C131.969 226.511 130.98 227.109 131.442 227.772C131.574 227.905 131.639 228.104 131.771 228.237C131.705 228.237 131.639 228.237 131.574 228.303C131.376 228.369 131.112 228.369 130.914 228.369C130.123 228.369 130.189 229.497 130.914 229.497Z" fill="#477C9D"/>
<path fill-rule="evenodd" clip-rule="evenodd" d="M139.636 229.298C139.505 228.966 139.505 228.701 139.505 228.369V228.237C139.703 228.038 139.835 227.706 139.966 227.44C140.032 227.175 140.295 226.644 140.098 226.313C140.032 226.18 139.835 226.18 139.703 226.246H139.636C139.505 226.313 139.505 226.512 139.57 226.644C139.505 226.777 139.438 227.109 139.373 227.175C139.307 227.44 139.175 227.706 138.97 227.839C138.443 228.17 137.981 227.573 137.652 227.241C137.389 226.976 137.059 227.374 137.257 227.64C137.652 228.104 138.246 228.568 138.838 228.502C138.838 228.834 138.905 229.099 139.043 229.431C139.241 229.829 139.768 229.63 139.636 229.298Z" fill="#477C9D"/>
<path fill-rule="evenodd" clip-rule="evenodd" d="M143.797 233.279C144.06 233.478 144.456 233.08 144.192 232.881C143.994 232.748 143.731 232.549 143.665 232.284C143.731 232.218 143.731 232.151 143.731 232.085C143.863 231.819 144.324 231.753 144.522 231.62C144.851 231.421 144.522 230.957 144.192 231.156C143.863 231.355 143.401 231.488 143.203 231.819C142.94 231.753 142.676 231.753 142.478 231.687C142.142 231.62 142.01 232.218 142.34 232.284C142.61 232.35 142.874 232.35 143.071 232.417C143.203 232.682 143.533 233.014 143.797 233.279Z" fill="#477C9D"/>
<path fill-rule="evenodd" clip-rule="evenodd" d="M137.784 234.673C137.982 234.474 138.245 234.274 138.509 234.208C138.773 234.142 139.373 234.274 139.103 234.673C138.905 235.004 139.439 235.27 139.637 234.938C139.834 234.606 139.768 234.142 139.439 233.876C139.571 233.611 139.702 233.279 139.834 233.014C139.966 232.682 139.439 232.417 139.307 232.748C139.175 233.014 139.037 233.346 138.905 233.611C138.377 233.478 137.85 233.81 137.388 234.142C137.191 234.407 137.52 234.872 137.784 234.673Z" fill="#477C9D"/>
<path fill-rule="evenodd" clip-rule="evenodd" d="M136.201 231.753C136.465 231.819 136.729 231.886 136.993 232.018C137.322 232.151 137.587 231.687 137.257 231.488C136.927 231.355 136.598 231.222 136.268 231.156C136.201 230.824 135.865 230.492 135.47 230.426C135.141 230.36 135.008 230.957 135.338 231.023C135.47 231.023 135.667 231.156 135.667 231.355C135.667 231.421 135.602 231.62 135.47 231.554C135.141 231.355 134.876 231.886 135.206 232.085C135.602 232.217 136.004 232.085 136.201 231.753Z" fill="#477C9D"/>
<path fill-rule="evenodd" clip-rule="evenodd" d="M143.401 227.772C143.599 227.44 143.862 227.175 144.127 226.909C144.521 227.109 144.983 226.976 145.379 226.843C145.715 226.71 145.518 226.18 145.181 226.312C144.983 226.379 144.521 226.578 144.324 226.379C144.192 226.18 144.324 225.848 144.324 225.715C144.456 225.383 143.862 225.251 143.731 225.582C143.664 225.848 143.599 226.18 143.664 226.511C143.401 226.777 143.138 227.109 142.873 227.44C142.742 227.706 143.138 228.104 143.401 227.772Z" fill="#477C9D"/>
<path fill-rule="evenodd" clip-rule="evenodd" d="M139.703 223.128C139.505 223.393 139.306 223.658 139.175 223.924C139.103 223.924 139.037 223.99 139.037 223.99C138.905 223.924 138.773 223.791 138.707 223.658C138.575 223.327 138.048 223.592 138.246 223.924C138.443 224.322 138.707 224.521 139.103 224.587C139.241 224.853 139.373 225.118 139.571 225.383C139.834 225.649 140.23 225.251 139.966 224.985C139.834 224.786 139.703 224.587 139.636 224.322C139.834 223.99 140.032 223.658 140.295 223.393C140.428 223.061 139.9 222.796 139.703 223.128Z" fill="#477C9D"/>
<path fill-rule="evenodd" clip-rule="evenodd" d="M193.875 160.03C193.216 162.949 192.55 165.935 191.891 168.854C191.166 171.973 190.441 175.157 189.643 178.276C188.984 180.996 188.324 183.716 187.598 186.437C187.138 188.294 186.604 190.152 186.142 192.01C185.878 193.005 185.549 194.067 185.285 195.062C184.23 198.844 183.103 202.626 181.982 206.341C181.125 209.062 180.261 211.848 179.338 214.569C178.086 218.284 176.826 221.934 175.508 225.583C174.519 228.369 173.458 231.09 172.337 233.81C171.084 236.995 169.759 240.18 168.375 243.364C167.313 245.819 166.192 248.274 165.006 250.729C164.01 252.852 162.955 255.042 161.834 257.165C161.637 257.629 161.373 258.094 161.169 258.558C160.246 260.35 159.323 262.141 158.334 263.933C157.009 266.454 155.624 269.041 154.167 271.496C153.046 273.42 151.86 275.41 150.666 277.269C150.468 277.601 150.205 277.999 150.007 278.33C148.886 280.122 147.693 281.913 146.44 283.638C145.451 285.031 144.39 286.491 143.269 287.818C143.005 287.885 142.808 287.885 142.544 287.951C141.021 288.283 139.637 288.482 138.443 288.747C135.272 289.344 133.228 289.675 132.562 289.742C132.365 289.742 132.299 289.809 132.299 289.809C132.299 289.809 132.233 289.675 132.101 289.344C134.019 289.079 135.865 287.619 137.191 286.226C138.707 284.634 140.032 282.842 141.351 280.984C141.68 280.52 142.01 280.055 142.28 279.591C143.203 278.198 144.126 276.737 144.983 275.345C145.715 274.15 146.374 273.022 147.1 271.894C147.759 270.899 148.352 269.838 148.952 268.775C150.139 266.786 151.26 264.795 152.387 262.805C153.903 260.084 155.36 257.298 156.745 254.577C157.932 252.255 159.059 249.867 160.18 247.478C161.235 245.288 162.23 243.033 163.219 240.843C164.34 238.255 165.467 235.668 166.522 233.014C167.847 229.696 169.1 226.445 170.352 223.061C171.414 220.208 172.403 217.355 173.326 214.502C174.453 211.052 175.574 207.668 176.629 204.218C177.492 201.365 178.349 198.512 179.141 195.593C180.195 191.811 181.257 188.029 182.246 184.181C183.037 181.062 183.835 177.944 184.56 174.826C185.219 172.105 185.878 169.385 186.472 166.665C187.204 163.613 187.863 160.561 188.522 157.442C188.72 156.58 188.917 155.783 189.05 154.921C190.77 156.58 192.353 158.238 193.875 160.03Z" fill="#FCBB41"/>
<path fill-rule="evenodd" clip-rule="evenodd" d="M146.44 283.704C145.445 285.098 144.391 286.558 143.269 287.885C143.005 287.951 142.808 287.951 142.544 288.017C142.142 285.695 141.746 283.373 141.285 281.05C141.614 280.587 141.944 280.122 142.208 279.657C143.137 278.264 144.061 276.805 144.917 275.411C145.518 278.197 145.979 280.918 146.44 283.704Z" fill="#2D264F"/>
<path fill-rule="evenodd" clip-rule="evenodd" d="M154.167 271.562C153.047 273.487 151.859 275.477 150.666 277.335C150.073 274.482 149.545 271.63 148.953 268.842C150.139 266.852 151.26 264.861 152.387 262.871C153.047 265.79 153.574 268.644 154.167 271.562Z" fill="#2D264F"/>
<path fill-rule="evenodd" clip-rule="evenodd" d="M161.835 257.231C161.636 257.696 161.373 258.16 161.168 258.625C160.246 260.416 159.322 262.208 158.333 263.999C157.8 260.881 157.272 257.762 156.811 254.644C157.998 252.321 159.125 249.933 160.246 247.544C160.773 250.729 161.307 253.98 161.835 257.231Z" fill="#2D264F"/>
<path fill-rule="evenodd" clip-rule="evenodd" d="M168.375 243.43C167.313 245.885 166.192 248.34 165.006 250.795C164.405 247.478 163.878 244.16 163.284 240.843C164.405 238.255 165.533 235.668 166.588 233.014C167.116 236.53 167.781 239.98 168.375 243.43Z" fill="#2D264F"/>
<path fill-rule="evenodd" clip-rule="evenodd" d="M175.442 225.649C174.453 228.436 173.392 231.156 172.27 233.876C171.611 230.293 170.952 226.711 170.286 223.128C171.348 220.275 172.337 217.422 173.259 214.569C174.058 218.284 174.783 221.933 175.442 225.649Z" fill="#2D264F"/>
<path fill-rule="evenodd" clip-rule="evenodd" d="M181.916 206.408C181.059 209.128 180.196 211.915 179.272 214.635C178.415 211.185 177.493 207.735 176.629 204.285C177.493 201.432 178.35 198.579 179.141 195.659C180.13 199.242 181.059 202.825 181.916 206.408Z" fill="#2D264F"/>
<path fill-rule="evenodd" clip-rule="evenodd" d="M187.599 186.437C187.138 188.294 186.603 190.152 186.142 192.01C185.879 193.005 185.549 194.067 185.285 195.062C184.231 191.479 183.235 187.83 182.311 184.247C183.103 181.129 183.901 178.01 184.625 174.892C185.549 178.806 186.538 182.655 187.599 186.437Z" fill="#2D264F"/>
<path fill-rule="evenodd" clip-rule="evenodd" d="M191.891 168.854C191.165 171.972 190.441 175.157 189.643 178.276C188.654 174.427 187.599 170.579 186.538 166.797C187.269 163.745 187.928 160.693 188.588 157.575C189.708 161.357 190.836 165.072 191.891 168.854Z" fill="#2D264F"/>
<path fill-rule="evenodd" clip-rule="evenodd" d="M221.486 229.033C217.326 217.223 212.968 205.413 208.341 193.735C204.51 183.915 200.415 174.228 193.941 165.868C193.48 165.271 192.683 166.134 193.151 166.665C199.954 175.423 204.048 185.84 208.076 196.124C212.375 207.138 216.469 218.152 220.365 229.298C220.629 230.028 221.691 229.763 221.486 229.033Z" fill="#FEFEFE"/>
<path fill-rule="evenodd" clip-rule="evenodd" d="M161.768 144.703C155.492 144.703 148.688 145.964 141.087 148.551C123.115 154.589 112.746 164.873 109.376 180.001C106.536 192.607 108.319 208.863 115.124 232.549C126.82 273.155 131.31 286.358 132.431 289.411C132.431 289.477 132.497 289.543 132.497 289.61C134.217 289.344 136.268 289.012 138.378 288.614C139.768 288.348 141.417 288.084 143.203 287.685C164.874 283.439 205.63 273.62 234.836 255.971C233.973 253.715 226.51 234.872 209.929 190.617C205.037 177.546 199.69 167.66 193.546 160.361C192.023 158.57 190.441 156.911 188.852 155.385C187.797 154.39 186.669 153.461 185.615 152.665C183.703 151.205 181.652 149.945 179.536 148.883C178.02 148.087 176.431 147.423 174.783 146.893C172.798 146.229 170.748 145.698 168.572 145.366C166.456 144.836 164.143 144.703 161.768 144.703ZM132.101 290.207L132.035 290.007C132.035 290.007 131.969 289.875 131.838 289.543C130.716 286.425 126.22 273.221 114.53 232.616C102.638 191.147 102.506 160.892 140.889 147.954C151.391 144.371 160.509 143.31 168.77 144.637C170.952 144.968 173.062 145.499 175.047 146.229C176.695 146.76 178.283 147.49 179.866 148.286C181.982 149.347 184.032 150.674 186.01 152.134C187.138 152.997 188.192 153.926 189.313 154.854C190.968 156.38 192.55 158.039 194.073 159.897C200.218 167.262 205.63 177.214 210.522 190.351C228.165 237.393 235.43 255.772 235.496 255.904L235.562 256.103L235.364 256.236C206.033 274.018 165.137 283.904 143.335 288.15C141.548 288.482 139.9 288.813 138.509 289.079C136.333 289.477 134.284 289.809 132.562 290.074C132.365 290.074 132.299 290.14 132.299 290.14L132.101 290.207Z" fill="#E4E7F4"/>
<path fill-rule="evenodd" clip-rule="evenodd" d="M229.813 242.767C230.01 242.701 230.142 242.634 230.34 242.568C227.696 235.734 224.064 226.18 219.178 213.308C218.981 213.374 218.849 213.441 218.651 213.507C223.536 226.379 227.169 235.933 229.813 242.767Z" fill="#FEFEFE"/>
<path fill-rule="evenodd" clip-rule="evenodd" d="M114.133 174.295C108.782 185.972 110.631 198.711 112.746 210.92C112.878 211.649 114.001 211.318 113.869 210.588C111.821 198.711 109.905 186.171 115.124 174.826C115.454 174.228 114.463 173.631 114.133 174.295Z" fill="#E4E7F4"/>
<path opacity="0.469773" fill-rule="evenodd" clip-rule="evenodd" d="M127.347 245.753C120.013 246.416 131.969 278.795 135.734 281.913C139.505 285.031 141.417 283.572 137.52 270.435C133.624 257.364 130.782 245.421 127.347 245.753Z" fill="#E4E7F4"/>
<path fill-rule="evenodd" clip-rule="evenodd" d="M179.998 152.731C178.02 155.452 185.747 161.091 185.482 157.376C185.219 153.594 181.323 150.874 179.998 152.731Z" fill="#E4E7F4"/>
<path fill-rule="evenodd" clip-rule="evenodd" d="M235.43 255.241C202.862 272.226 167.643 283.837 131.376 289.675C130.65 289.809 130.65 290.937 131.376 290.804C167.847 284.965 203.191 273.288 236.023 256.236C236.682 255.838 236.089 254.909 235.43 255.241Z" fill="#E4E7F4"/>
<path fill-rule="evenodd" clip-rule="evenodd" d="M103.959 169.849C97.9472 166.532 91.9352 163.214 85.8573 159.897C85.1967 159.565 84.5361 160.494 85.1967 160.826C91.2087 164.143 97.22 167.461 103.299 170.778C103.959 171.176 104.62 170.181 103.959 169.849Z" fill="#FEC741"/>
<path fill-rule="evenodd" clip-rule="evenodd" d="M123.32 150.94C119.154 143.84 115.058 136.741 111.094 129.509C110.764 128.845 109.773 129.443 110.103 130.106C114.067 137.272 118.163 144.438 122.325 151.537C122.722 152.2 123.715 151.603 123.32 150.94Z" fill="#FEC741"/>
<path fill-rule="evenodd" clip-rule="evenodd" d="M142.076 140.39C141.285 138.201 140.559 136.078 139.768 133.888C139.505 133.225 138.443 133.49 138.641 134.22C139.439 136.409 140.164 138.533 140.955 140.722C141.219 141.386 142.346 141.054 142.076 140.39Z" fill="#FEC741"/>
<path fill-rule="evenodd" clip-rule="evenodd" d="M243.289 197.65L245.141 208.995C245.735 212.711 240.052 214.17 239.458 210.389C238.865 206.607 238.206 202.825 237.612 199.043C237.012 195.394 242.695 193.934 243.289 197.65Z" fill="#ACCAE9"/>
<path fill-rule="evenodd" clip-rule="evenodd" d="M242.036 195.792C242.036 198.91 241.508 202.029 239.656 204.484C239.327 204.749 238.997 205.081 238.601 205.28C238.271 203.223 237.942 201.166 237.546 199.043C237.21 196.323 240.249 194.797 242.036 195.792Z" fill="#7A86C1"/>
<path fill-rule="evenodd" clip-rule="evenodd" d="M239.722 186.238C245.998 185.707 246.987 187.631 246.262 194.73C245.471 202.228 235.298 203.621 235.298 200.768C235.298 193.536 234.441 186.702 239.722 186.238Z" fill="#ACCAE9"/>
<path fill-rule="evenodd" clip-rule="evenodd" d="M244.482 198.844C242.299 199.972 240.717 192.474 241.179 189.29C241.245 188.958 240.915 188.626 240.651 188.56C238.205 188.029 238.799 188.294 236.353 188.228C237.012 187.1 238.073 186.37 239.656 186.238C245.932 185.707 246.928 187.631 246.196 194.73C246.064 196.389 245.405 197.782 244.482 198.844Z" fill="#8F2E56"/>
<path fill-rule="evenodd" clip-rule="evenodd" d="M236.617 191.28C236.683 191.811 236.683 192.408 236.748 192.939C236.748 193.337 236.22 193.403 236.155 193.005C236.089 192.474 236.089 191.877 236.023 191.346C236.023 191.015 236.55 190.948 236.617 191.28Z" fill="#2D264F"/>
<path fill-rule="evenodd" clip-rule="evenodd" d="M235.891 189.422C236.221 189.422 236.484 189.489 236.749 189.621C237.078 189.82 236.682 190.285 236.419 190.086C236.287 190.019 236.155 189.953 235.958 189.953C235.628 190.019 235.561 189.422 235.891 189.422Z" fill="#2D264F"/>
<path fill-rule="evenodd" clip-rule="evenodd" d="M233.709 196.323C234.243 195.062 234.705 193.801 235.232 192.541C235.364 192.209 235.891 192.408 235.76 192.74C235.298 193.934 234.837 195.062 234.375 196.256C234.902 196.389 235.496 196.522 236.023 196.787C236.353 196.92 236.155 197.45 235.825 197.318C235.232 197.052 234.639 196.853 233.973 196.787C233.775 196.721 233.643 196.522 233.709 196.323Z" fill="#7A86C1"/>
<path fill-rule="evenodd" clip-rule="evenodd" d="M239.458 191.678C242.959 190.683 245.207 195.46 239.327 196.92L239.458 191.678Z" fill="#ACCAE9"/>
<path fill-rule="evenodd" clip-rule="evenodd" d="M241.113 193.072C241.443 193.005 241.574 193.536 241.179 193.669C240.652 193.801 240.249 194.199 240.117 194.73C240.052 195.062 239.458 194.996 239.524 194.664C239.722 193.801 240.315 193.204 241.113 193.072Z" fill="#7A86C1"/>
<path fill-rule="evenodd" clip-rule="evenodd" d="M234.968 193.204C232.259 194.598 231.797 196.455 232.193 198.512C232.588 200.569 235.166 202.493 236.485 202.493C237.81 202.493 235.496 192.939 234.968 193.204Z" fill="#E4E7F4"/>
<path fill-rule="evenodd" clip-rule="evenodd" d="M240.981 191.28C238.535 192.209 236.352 193.602 234.507 195.394C234.243 195.659 234.639 196.123 234.902 195.858C236.749 194.067 238.865 192.673 241.244 191.811C241.574 191.678 241.377 191.147 240.981 191.28Z" fill="#E4E7F4"/>
<path fill-rule="evenodd" clip-rule="evenodd" d="M241.904 195.858C239.854 197.252 237.876 198.645 235.825 200.038C235.496 200.237 235.891 200.702 236.221 200.503C238.271 199.109 240.249 197.716 242.3 196.323C242.563 196.057 242.167 195.659 241.904 195.858Z" fill="#E4E7F4"/>
<path fill-rule="evenodd" clip-rule="evenodd" d="M236.419 188.228C234.309 188.361 233.775 185.441 238.074 186.171C242.3 186.968 236.419 188.228 236.419 188.228Z" fill="#8F2E56"/>
<path fill-rule="evenodd" clip-rule="evenodd" d="M233.248 200.038C231.996 199.242 232.259 197.65 232.522 196.389C232.588 196.057 231.996 195.991 231.929 196.323C231.666 197.782 231.467 199.574 232.918 200.503C233.248 200.702 233.577 200.237 233.248 200.038Z" fill="#E4E7F4"/>
<path fill-rule="evenodd" clip-rule="evenodd" d="M243.552 207.668C227.828 207.668 232.39 214.303 234.704 228.9C237.012 243.563 237.012 247.279 237.012 247.279H264.498C264.498 247.279 265.619 239.781 261.063 224.322C256.507 208.863 255.842 207.668 243.552 207.668Z" fill="#F1F7ED"/>
<path fill-rule="evenodd" clip-rule="evenodd" d="M238.535 211.649C237.078 210.986 235.628 210.322 234.104 209.725C234.039 209.725 234.039 209.659 233.973 209.659C230.868 212.379 232.72 217.753 234.236 226.18C236.617 221.734 238.206 216.825 238.535 211.649Z" fill="#F1F7ED"/>
<path fill-rule="evenodd" clip-rule="evenodd" d="M235.957 237.327C237.012 245.089 237.012 247.279 237.012 247.279H264.498C264.498 247.279 265.025 244.028 264.036 237.327H235.957Z" fill="#3D3B4E"/>
<path fill-rule="evenodd" clip-rule="evenodd" d="M288.35 331.012C279.496 300.623 270.906 268.179 263.904 237.26C259.877 238.521 255.314 241.507 251.483 243.232C258.221 272.824 266.877 302.216 275.336 331.344H288.417C288.417 331.276 288.417 331.144 288.35 331.012Z" fill="#3D3B4E"/>
<path fill-rule="evenodd" clip-rule="evenodd" d="M250.297 243.497C246.196 242.634 241.047 241.307 237.078 239.98C230.077 269.904 226.708 300.624 227.301 331.343H239.854C239.326 301.818 243.552 272.292 250.297 243.497Z" fill="#3D3B4E"/>
<path fill-rule="evenodd" clip-rule="evenodd" d="M239.854 331.344V337.182H218.117C218.117 337.182 217.524 335.192 221.289 333.997C224.994 332.87 225.916 333.865 227.301 331.344H239.854Z" fill="#477C9D"/>
<path fill-rule="evenodd" clip-rule="evenodd" d="M288.416 331.344L289.274 337.182H267.273C267.273 337.182 266.679 335.192 270.444 333.997C274.143 332.87 275.264 334.197 275.329 331.344H288.416Z" fill="#477C9D"/>
<path fill-rule="evenodd" clip-rule="evenodd" d="M227.433 333.865C227.103 333.599 226.774 333.268 226.575 332.869C226.378 332.538 225.916 332.869 226.115 333.134C226.378 333.599 226.774 333.997 227.169 334.395C227.433 334.594 227.696 334.064 227.433 333.865Z" fill="#FEFEFE"/>
<path fill-rule="evenodd" clip-rule="evenodd" d="M228.824 333.267C228.231 332.736 227.63 332.272 227.104 331.741C226.839 331.476 226.444 331.874 226.707 332.139C227.301 332.671 227.901 333.135 228.428 333.666C228.692 333.931 229.087 333.533 228.824 333.267Z" fill="#FEFEFE"/>
<path fill-rule="evenodd" clip-rule="evenodd" d="M275.197 334.262C275 333.864 274.737 333.466 274.538 333.068C274.34 332.736 273.879 333.003 274.011 333.334C274.208 333.732 274.472 334.13 274.67 334.528C274.934 334.86 275.402 334.594 275.197 334.262Z" fill="#FEFEFE"/>
<path fill-rule="evenodd" clip-rule="evenodd" d="M276.853 333.732C276.456 333.267 276.127 332.803 275.732 332.338C275.468 332.073 275.066 332.471 275.329 332.737C275.732 333.201 276.062 333.665 276.456 334.13C276.654 334.395 277.05 333.997 276.853 333.732Z" fill="#FEFEFE"/>
<path fill-rule="evenodd" clip-rule="evenodd" d="M214.089 205.678C209.269 198.313 203.785 190.086 198.893 182.787C201.668 181.129 204.51 179.536 207.482 178.077C211.775 184.446 216.997 192.474 221.157 198.91C218.981 201.365 216.337 203.157 214.089 205.678Z" fill="#F1F7ED"/>
<path fill-rule="evenodd" clip-rule="evenodd" d="M209.269 180.664C208.67 179.735 208.076 178.873 207.483 178.01C204.575 179.47 201.734 181.062 198.893 182.721C199.756 183.982 200.613 185.309 201.47 186.569C203.85 184.313 206.56 182.455 209.269 180.664Z" fill="#7A86C1"/>
<path fill-rule="evenodd" clip-rule="evenodd" d="M219.508 197.185C224.591 200.304 234.243 206.076 239.458 208.995C244.943 212.047 243.954 223.46 238.469 220.407C231.731 216.626 221.954 211.052 215.48 206.939C213.298 205.545 211.841 201.896 213.1 199.375C213.43 198.778 213.693 198.181 214.023 197.583C217.392 198.313 216.205 196.455 219.508 197.185Z" fill="#F1F7ED"/>
<path fill-rule="evenodd" clip-rule="evenodd" d="M207.483 178.01C205.63 174.626 203.126 169.186 201.669 169.186C200.152 169.186 203.323 171.773 203.059 173.565C202.796 175.356 198.102 167.129 196.321 167.527C194.469 167.925 199.624 171.641 198.958 172.37C198.299 173.1 195.656 167.66 194.271 168.323C192.88 168.987 197.574 173.233 196.915 174.029C196.256 174.825 193.81 169.053 192.484 170.38C191.627 171.242 194.799 174.361 195.26 175.754C195.721 177.148 192.484 171.375 191.627 172.503C190.77 173.631 197.113 179.934 198.958 182.721C200.811 185.508 207.483 178.01 207.483 178.01Z" fill="#477C9D"/>
<path fill-rule="evenodd" clip-rule="evenodd" d="M200.877 186.636C200.877 186.569 200.943 186.569 200.877 186.636C200.943 186.569 200.943 186.569 200.877 186.636C203.653 184.313 206.428 182.124 209.269 180.001C209.533 179.802 209.863 180.266 209.599 180.465C207.022 182.389 204.444 184.38 201.932 186.436C201.932 186.503 201.866 186.503 201.866 186.569L201.207 187.034C201.009 187.233 200.613 186.835 200.877 186.636Z" fill="#477C9D"/>
<path fill-rule="evenodd" clip-rule="evenodd" d="M221.222 200.37C220.959 199.706 220.695 199.109 220.432 198.446C220.3 198.114 219.706 198.247 219.903 198.578L220.695 200.503C220.826 200.901 221.42 200.702 221.222 200.37Z" fill="#7A86C1"/>
<path fill-rule="evenodd" clip-rule="evenodd" d="M241.97 210.256C241.311 209.99 240.652 209.659 239.986 209.393C239.656 209.261 239.392 209.725 239.722 209.858L241.706 210.72C242.036 210.919 242.3 210.389 241.97 210.256Z" fill="#7A86C1"/>
<path fill-rule="evenodd" clip-rule="evenodd" d="M60.9508 330.017V336.054H81.3647C81.3647 336.054 81.3647 333.201 77.9292 332.87C74.4937 332.538 74.0316 332.471 72.5779 330.017C71.1248 327.495 60.9508 330.017 60.9508 330.017Z" fill="#3D3B4E"/>
<path fill-rule="evenodd" clip-rule="evenodd" d="M93.3888 331.609L93.2569 335.988H113.142C113.142 335.988 113.142 333.135 109.707 332.803C106.272 332.471 105.413 331.741 105.016 330.812C103.827 328.225 93.3888 331.609 93.3888 331.609Z" fill="#3D3B4E"/>
<path fill-rule="evenodd" clip-rule="evenodd" d="M72.5777 330.017C71.6534 306.064 72.3799 283.704 75.0223 259.885C77.5335 263.468 79.8449 267.25 81.9592 271.098C85.3295 277.069 88.6977 283.24 91.4726 289.544C94.115 295.714 94.2475 302.216 94.1816 308.785C94.115 316.415 93.8513 324.045 93.3885 331.608L105.016 330.812C105.544 322.85 105.809 315.619 105.809 307.59C105.809 299.562 106.206 291.799 102.968 284.368C97.1543 270.833 88.8962 250.994 79.4487 239.715C78.8547 238.985 77.5988 244.758 76.6738 244.559C76.4094 242.303 75.0889 240.312 72.5777 239.649C69.87 238.919 67.8882 247.677 65.1133 247.81C61.0825 276.937 59.8272 300.623 60.9506 330.017H72.5777Z" fill="#8F2E56"/>
<path fill-rule="evenodd" clip-rule="evenodd" d="M89.755 250.596L89.2263 257.696L65.179 251.99V248.009L89.755 250.596Z" fill="#F06057"/>
<path fill-rule="evenodd" clip-rule="evenodd" d="M89.755 250.596L89.2263 257.696L65.179 251.99V248.009L89.755 250.596Z" stroke="#DC4544"/>
<path fill-rule="evenodd" clip-rule="evenodd" d="M73.1725 330.812C72.9082 331.476 72.5119 332.073 71.9832 332.604C71.7195 332.87 72.1157 333.267 72.3801 333.002C72.9748 332.405 73.4369 331.741 73.7013 330.945C73.8997 330.613 73.3051 330.48 73.1725 330.812Z" fill="#F16A5A"/>
<path fill-rule="evenodd" clip-rule="evenodd" d="M106.073 331.542C105.677 332.007 105.28 332.471 104.95 332.936C104.752 333.201 105.148 333.599 105.346 333.334C105.743 332.869 106.139 332.405 106.47 331.941C106.734 331.609 106.337 331.211 106.073 331.542Z" fill="#F16A5A"/>
<path fill-rule="evenodd" clip-rule="evenodd" d="M89.755 250.596C90.0187 248.009 90.349 245.089 90.8125 241.772C93.1239 223.659 91.0769 222.199 86.4514 221.071C74.4281 218.019 71.8516 214.701 69.6055 222.597C68.8117 225.45 67.6889 232.549 66.698 237.725C65.9715 241.44 65.5093 244.691 65.179 247.81C73.2381 249.402 81.4969 250.198 89.755 250.596Z" fill="#F06057"/>
<path fill-rule="evenodd" clip-rule="evenodd" d="M89.2264 222.132C87.9052 224.521 87.6415 227.639 89.028 229.962C89.6233 230.957 90.5483 232.085 91.671 232.815C92.0013 225.981 91.1423 223.393 89.2264 222.132Z" fill="#F06057"/>
<path fill-rule="evenodd" clip-rule="evenodd" d="M86.6505 218.815C86.9142 215.763 87.1786 212.711 87.4423 209.725C87.7732 205.943 82.025 204.948 81.6947 208.73L80.6385 220.208C80.5719 220.739 80.7038 221.203 80.8363 221.668C81.7613 219.744 84.9324 218.948 86.6505 218.815Z" fill="#F1F7ED"/>
<path fill-rule="evenodd" clip-rule="evenodd" d="M82.8184 206.74C83.0162 209.858 83.8093 212.91 85.7911 215.232C86.1214 215.498 86.5176 215.763 86.9145 215.962C87.1123 213.839 87.3107 211.782 87.5085 209.659C87.7069 206.872 84.6017 205.612 82.8184 206.74Z" fill="#E0E4DD"/>
<path fill-rule="evenodd" clip-rule="evenodd" d="M84.4698 197.052C78.1276 196.986 77.3358 198.977 78.5897 205.943C79.9116 213.374 90.2181 214.038 89.9531 211.185C89.3584 203.953 89.7559 197.119 84.4698 197.052Z" fill="#F1F7ED"/>
<path fill-rule="evenodd" clip-rule="evenodd" d="M80.6384 209.991C82.8846 210.919 83.8755 203.356 83.2149 200.171C83.149 199.905 83.4133 199.507 83.6764 199.375C86.0557 198.645 85.4604 198.977 87.905 198.778C87.1785 197.716 86.0557 197.052 84.4702 196.986C78.1272 196.92 77.3354 198.91 78.5901 205.877C78.8544 207.602 79.6475 208.929 80.6384 209.991Z" fill="#4762A7"/>
<path fill-rule="evenodd" clip-rule="evenodd" d="M87.9716 201.83V203.488C87.9716 203.887 88.5656 203.887 88.5656 203.555V201.896C88.5003 201.498 87.9716 201.498 87.9716 201.83Z" fill="#A9D9DB"/>
<path fill-rule="evenodd" clip-rule="evenodd" d="M88.5002 199.905C88.1699 199.905 87.9055 199.972 87.6412 200.171C87.3109 200.37 87.7071 200.834 88.0374 200.569C88.1699 200.502 88.3017 200.436 88.5002 200.436C88.8305 200.436 88.8964 199.905 88.5002 199.905Z" fill="#A9D9DB"/>
<path fill-rule="evenodd" clip-rule="evenodd" d="M91.2744 206.474C90.6804 205.28 90.0858 204.019 89.4911 202.825C89.3586 202.493 88.8305 202.759 88.9624 203.09C89.4911 204.218 90.0858 205.346 90.6139 206.474C90.0858 206.673 89.557 206.872 89.0283 207.138C88.698 207.337 88.9624 207.801 89.2927 207.668C89.8873 207.403 90.482 207.138 91.0767 207.005C91.2744 206.872 91.341 206.673 91.2744 206.474Z" fill="#A9D9DB"/>
<path fill-rule="evenodd" clip-rule="evenodd" d="M86.8481 198.313C86.5178 197.849 85.7254 197.782 85.1966 197.716C84.4042 197.65 83.5451 197.716 82.8845 198.114C81.4308 199.043 81.7611 200.834 81.8277 202.294C81.6952 202.427 81.6293 202.692 81.8277 202.758C83.083 203.488 84.7345 202.825 85.7254 201.763C86.5844 200.967 87.6412 199.441 86.8481 198.313Z" fill="#4762A7"/>
<path fill-rule="evenodd" clip-rule="evenodd" d="M88.8304 204.086C87.1783 209.393 87.8389 212.976 89.2267 212.446C90.6138 211.915 92.794 208.995 91.935 206.275C91.0766 203.555 89.557 201.763 88.8304 204.086Z" fill="#477C9D"/>
<path fill-rule="evenodd" clip-rule="evenodd" d="M92.3316 205.877C92.2657 205.545 91.7376 205.479 91.7376 205.877C91.8695 207.336 92.0013 208.929 90.812 209.924C90.5483 210.189 90.9445 210.588 91.2089 210.322C92.53 209.261 92.53 207.469 92.3316 205.877Z" fill="#477C9D"/>
<path fill-rule="evenodd" clip-rule="evenodd" d="M85.1967 216.559C81.299 210.72 84.2058 203.953 84.2058 203.953L78.7226 203.687C78.3923 205.877 78.9197 212.246 71.9834 213.507C65.0471 214.768 64.7827 221.071 64.7827 221.071C64.7827 221.071 66.2351 221.336 68.2842 221.734C69.01 221.004 69.7372 220.275 70.6622 219.744C71.7197 219.147 72.5121 220.805 71.5212 221.403C71.1909 221.602 70.7941 221.867 70.5303 222.199C75.7492 223.327 82.8846 225.184 83.7436 227.175C83.6764 227.175 89.0943 222.398 85.1967 216.559Z" fill="#4762A7"/>
<path fill-rule="evenodd" clip-rule="evenodd" d="M85.0647 202.427C81.4973 201.697 79.5815 206.607 85.5934 207.668L85.0647 202.427Z" fill="#F1F7ED"/>
<path fill-rule="evenodd" clip-rule="evenodd" d="M83.479 203.953C83.0821 203.886 83.0821 204.484 83.4124 204.55C83.9411 204.616 84.404 205.014 84.5365 205.479C84.6017 205.81 85.1964 205.744 85.0646 205.346C84.8661 204.616 84.2714 204.085 83.479 203.953Z" fill="#A9D9DB"/>
<path fill-rule="evenodd" clip-rule="evenodd" d="M89.3584 209.46C87.1122 209.062 85.0645 208.199 83.2152 206.872C82.9502 206.673 82.6199 207.138 82.9502 207.337C84.8001 208.73 86.9144 209.659 89.2265 209.991C89.5568 210.123 89.7559 209.526 89.3584 209.46Z" fill="#477C9D"/>
<path fill-rule="evenodd" clip-rule="evenodd" d="M91.2088 204.683C89.2263 204.152 87.112 202.958 85.2621 201.962C84.9318 201.763 84.6681 202.294 84.999 202.427C86.9142 203.488 89.1611 204.683 91.2747 205.28V204.683H91.2088Z" fill="#477C9D"/>
<path fill-rule="evenodd" clip-rule="evenodd" d="M111.623 232.748C119.286 228.568 127.018 224.388 134.744 220.275C133.096 217.488 131.309 214.701 129.392 212.047C122.59 215.63 114.265 220.275 107.526 223.924C108.319 227.175 110.763 229.497 111.623 232.748Z" fill="#F06057"/>
<path fill-rule="evenodd" clip-rule="evenodd" d="M130.914 222.332C132.167 221.668 133.426 220.938 134.745 220.275C133.096 217.488 131.31 214.701 129.391 212.047C128.402 212.578 127.413 213.109 126.352 213.64C128.007 216.493 129.457 219.412 130.914 222.332Z" fill="#ACCAE9"/>
<path fill-rule="evenodd" clip-rule="evenodd" d="M111.16 223.725C105.28 222.663 94.3138 220.474 88.4337 219.147C87.839 219.014 87.3109 219.014 86.7815 219.014C87.9715 221.867 87.9715 224.986 87.839 228.038C87.839 228.436 87.5746 228.701 87.2443 228.834C94.3138 230.426 101.383 231.82 108.517 233.014C111.094 233.412 113.803 232.284 114.463 229.564C114.596 228.9 114.794 228.237 114.992 227.573C112.019 225.981 114.133 225.384 111.16 223.725Z" fill="#F06057"/>
<path fill-rule="evenodd" clip-rule="evenodd" d="M129.392 212.047C132.563 209.991 134.481 206.872 136.927 206.74C139.373 206.54 136.004 208.531 135.404 210.256C134.811 211.981 142.808 206.939 144.192 208.133C145.649 209.393 139.373 210.19 139.57 211.185C139.768 212.18 144.653 208.597 145.584 209.858C146.507 211.052 140.362 212.645 140.625 213.64C140.824 214.635 145.715 210.72 146.243 212.512C146.638 213.706 142.346 214.9 141.218 215.962C140.164 217.024 145.715 214.436 145.913 215.829C146.11 217.223 137.587 218.749 134.679 220.341C131.771 221.933 129.392 212.047 129.392 212.047Z" fill="#ACCAE9"/>
<path fill-rule="evenodd" clip-rule="evenodd" d="M129.392 212.047C132.563 209.991 134.481 206.872 136.927 206.74C139.373 206.54 136.004 208.531 135.404 210.256C134.811 211.981 142.808 206.939 144.192 208.133C145.649 209.393 139.373 210.19 139.57 211.185C139.768 212.18 144.653 208.597 145.584 209.858C146.507 211.052 140.362 212.645 140.625 213.64C140.824 214.635 145.715 210.72 146.243 212.512C146.638 213.706 142.346 214.9 141.218 215.962C140.164 217.024 145.715 214.436 145.913 215.829C146.11 217.223 137.587 218.749 134.679 220.341C131.771 221.933 129.392 212.047 129.392 212.047Z" stroke="#8CCDD1"/>
<path fill-rule="evenodd" clip-rule="evenodd" d="M90.1516 229.497C88.6979 229.298 87.2442 228.966 85.857 228.436C85.5267 228.303 85.3949 228.834 85.7252 228.966C87.1782 229.497 88.6319 229.895 90.1516 230.094C90.4819 230.161 90.4819 229.563 90.1516 229.497Z" fill="#F06057"/>
<path fill-rule="evenodd" clip-rule="evenodd" d="M91.4065 219.744C89.2928 219.412 86.9141 218.682 84.7339 218.881C83.4786 219.014 82.4218 219.611 81.9596 220.806C81.8271 221.137 82.3552 221.27 82.4877 220.938C83.2808 218.948 85.6589 219.412 87.311 219.678C88.6322 219.877 89.8868 220.076 91.2087 220.275C91.6702 220.341 91.8033 219.81 91.4065 219.744Z" fill="#7A86C1"/>
<path fill-rule="evenodd" clip-rule="evenodd" d="M108.451 223.857C108.121 224.322 107.791 224.853 107.46 225.317C107.262 225.649 107.725 225.914 107.923 225.583C108.253 225.118 108.584 224.587 108.914 224.123C109.112 223.857 108.65 223.526 108.451 223.857Z" stroke="#E45552"/>
<path fill-rule="evenodd" clip-rule="evenodd" d="M131.178 222.73V222.663C129.86 219.412 128.403 216.161 126.886 212.91C126.754 212.578 126.22 212.844 126.418 213.175C127.809 216.095 129.062 219.081 130.32 222.066V222.199L130.65 222.929C130.849 223.261 131.309 223.061 131.178 222.73Z" fill="#ACCAE9"/>
</g>
<defs>
<clipPath id="clip0">
<rect width="414" height="1908" fill="white" transform="translate(-42 -63)"/>
</clipPath>
</defs>
</svg>
