<svg width="1225" height="1085" viewBox="0 0 1225 1085" fill="none" xmlns="http://www.w3.org/2000/svg">
<path d="M812.78 733.95C765.6 800.76 693.83 850.4 607.31 867.76C427.8 903.78 253.08 787.45 217.07 607.94C181.05 428.43 297.38 253.71 476.89 217.7C563.41 200.34 648.77 218.45 718.08 261.89L970.77 211.19C848.74 53.68 644.12 -30.37 435.51 11.49C142.11 70.36 -48.01 355.92 10.85 649.32C69.72 942.72 355.28 1132.84 648.68 1073.98C857.29 1032.13 1013.65 875.65 1065.47 683.26L812.78 733.95Z" fill="#497BBD"/>
<path d="M1163.48 551.12C1152.91 551.12 1143.22 554.94 1135.69 561.26L852.46 618.09C846.24 647.23 836.2 674.99 822.83 700.64L1149.08 635.18C1153.59 636.78 1158.42 637.69 1163.48 637.69C1187.35 637.69 1206.77 618.27 1206.77 594.4C1206.77 570.53 1187.35 551.12 1163.48 551.12ZM1163.48 632.99C1142.2 632.99 1124.89 615.68 1124.89 594.4C1124.89 573.12 1142.2 555.81 1163.48 555.81C1184.76 555.81 1202.07 573.12 1202.07 594.4C1202.07 615.68 1184.75 632.99 1163.48 632.99Z" fill="#00AC4E"/>
<path d="M1180.08 430.53C1168.7 430.53 1158.36 434.96 1150.6 442.14L849.35 502.58C852.74 528.42 853 554.03 850.3 579L1166.98 515.46C1171.12 516.77 1175.52 517.49 1180.09 517.49C1204.07 517.49 1223.57 497.98 1223.57 474.01C1223.57 450.04 1204.06 430.53 1180.08 430.53ZM1180.08 512.8C1158.69 512.8 1141.3 495.4 1141.3 474.02C1141.3 452.63 1158.7 435.24 1180.08 435.24C1201.46 435.24 1218.86 452.64 1218.86 474.02C1218.87 495.4 1201.47 512.8 1180.08 512.8Z" fill="#497BBD"/>
<path d="M1180.63 311.36C1169.04 311.36 1158.53 315.94 1150.73 323.35L811.77 391.36C824.22 413.34 834.02 437.01 840.56 462.19L1168.13 396.47C1172.09 397.66 1176.29 398.32 1180.63 398.32C1204.61 398.32 1224.11 378.81 1224.11 354.84C1224.11 330.87 1204.61 311.36 1180.63 311.36ZM1180.63 393.63C1159.25 393.63 1141.85 376.23 1141.85 354.85C1141.85 333.47 1159.25 316.07 1180.63 316.07C1202.01 316.07 1219.41 333.47 1219.41 354.85C1219.41 376.23 1202.01 393.63 1180.63 393.63Z" fill="#ED342F"/>
<path d="M1113.76 210.6C1102 210.6 1091.33 215.31 1083.49 222.93L741.78 291.49C763.85 310.14 783.53 331.96 800.21 356.38L1101.83 295.87C1105.63 296.96 1109.62 297.58 1113.77 297.58C1137.75 297.58 1157.25 278.07 1157.25 254.1C1157.25 230.1 1137.74 210.6 1113.76 210.6ZM1113.76 292.86C1092.38 292.86 1074.98 275.46 1074.98 254.08C1074.98 232.69 1092.38 215.3 1113.76 215.3C1135.14 215.3 1152.54 232.7 1152.54 254.08C1152.54 275.47 1135.15 292.86 1113.76 292.86Z" fill="#FCB912"/>
</svg>
