<svg width="423" height="74" viewBox="0 0 423 74" fill="none" xmlns="http://www.w3.org/2000/svg">
<path d="M110.868 16.2881C108.619 16.2881 106.864 17.2132 105.604 19.0635C104.344 20.8978 103.714 23.434 103.714 26.6719C103.714 33.403 106.274 36.7686 111.394 36.7686C112.941 36.7686 114.441 36.5533 115.892 36.1226C117.344 35.6919 118.803 35.1735 120.271 34.5674V42.5586C117.352 43.8506 114.05 44.4966 110.365 44.4966C105.086 44.4966 101.034 42.9654 98.2109 39.9029C95.4036 36.8404 94 32.4141 94 26.6241C94 23.0033 94.6779 19.8212 96.0337 17.0777C97.4054 14.3342 99.3673 12.2287 101.919 10.7612C104.488 9.27784 107.502 8.53614 110.963 8.53614C114.744 8.53614 118.356 9.35759 121.802 11.0005L118.907 18.4414C117.615 17.8353 116.323 17.3249 115.031 16.9102C113.739 16.4955 112.351 16.2881 110.868 16.2881ZM135.966 44.0181H126.611V16.9102H135.966V44.0181ZM126.372 10.1631C126.372 8.75944 126.763 7.71468 127.544 7.02881C128.326 6.34294 129.586 6 131.325 6C133.063 6 134.331 6.35092 135.129 7.05274C135.926 7.75456 136.325 8.79134 136.325 10.1631C136.325 12.9066 134.658 14.2784 131.325 14.2784C128.023 14.2784 126.372 12.9066 126.372 10.1631ZM149.604 44.0181L139.268 16.9102H149.03L153.623 32.9405C153.639 33.0202 153.671 33.1558 153.719 33.3472C153.767 33.5386 153.815 33.7699 153.863 34.041C153.91 34.2963 153.95 34.5754 153.982 34.8785C154.03 35.1656 154.054 35.4367 154.054 35.6919H154.221C154.221 34.8625 154.365 33.9613 154.652 32.9883L159.461 16.9102H169.199L158.863 44.0181H149.604ZM181.856 44.0181H172.501V16.9102H181.856V44.0181ZM172.262 10.1631C172.262 8.75944 172.652 7.71468 173.434 7.02881C174.215 6.34294 175.476 6 177.214 6C178.953 6 180.221 6.35092 181.018 7.05274C181.816 7.75456 182.215 8.79134 182.215 10.1631C182.215 12.9066 180.548 14.2784 177.214 14.2784C173.912 14.2784 172.262 12.9066 172.262 10.1631ZM200.733 44.4966C196.299 44.4966 192.933 43.3003 190.637 40.9077C188.356 38.5152 187.215 35.0778 187.215 30.5957C187.215 26.0977 188.451 22.6125 190.924 20.1402C193.396 17.6678 196.913 16.4317 201.475 16.4317C204.617 16.4317 207.576 17.1175 210.351 18.4893L207.6 25.4038C206.467 24.9094 205.423 24.5186 204.466 24.2315C203.509 23.9284 202.512 23.7769 201.475 23.7769C199.96 23.7769 198.787 24.3671 197.958 25.5474C197.128 26.7277 196.714 28.3946 196.714 30.5479C196.714 34.8864 198.317 37.0557 201.523 37.0557C204.266 37.0557 206.898 36.2582 209.418 34.6631V42.104C207.01 43.6991 204.115 44.4966 200.733 44.4966ZM228.272 44.0181H222.554V13.9434H212.265V9.03858H238.56V13.9434H228.272V44.0181ZM254.901 44.4966C250.786 44.4966 247.564 43.3003 245.235 40.9077C242.922 38.4992 241.766 35.1895 241.766 30.9785C241.766 26.656 242.843 23.2585 244.996 20.7862C247.149 18.3138 250.108 17.0777 253.872 17.0777C257.366 17.0777 260.125 18.1384 262.151 20.2598C264.176 22.3812 265.189 25.3002 265.189 29.0166V32.0552H247.556C247.636 34.6232 248.33 36.6011 249.637 37.9888C250.945 39.3605 252.788 40.0464 255.164 40.0464C256.728 40.0464 258.179 39.9029 259.519 39.6158C260.875 39.3127 262.326 38.8182 263.873 38.1324V42.7022C262.502 43.3562 261.114 43.8187 259.71 44.0899C258.307 44.361 256.704 44.4966 254.901 44.4966ZM253.872 21.3365C252.086 21.3365 250.65 21.9027 249.566 23.0352C248.497 24.1677 247.859 25.8186 247.652 27.9878H259.662C259.63 25.8026 259.104 24.1517 258.083 23.0352C257.062 21.9027 255.659 21.3365 253.872 21.3365ZM282.248 44.4966C278.245 44.4966 275.198 43.3322 273.109 41.0035C271.035 38.6587 269.998 35.3011 269.998 30.9307C269.998 26.4805 271.083 23.0591 273.252 20.6665C275.437 18.274 278.588 17.0777 282.703 17.0777C285.494 17.0777 288.006 17.5961 290.24 18.6328L288.541 23.1548C286.164 22.2297 284.202 21.7671 282.655 21.7671C278.077 21.7671 275.788 24.8057 275.788 30.8828C275.788 33.8496 276.355 36.0827 277.487 37.5821C278.636 39.0655 280.31 39.8072 282.512 39.8072C285.016 39.8072 287.384 39.1851 289.617 37.941V42.8457C288.613 43.4359 287.536 43.8586 286.387 44.1138C285.255 44.369 283.875 44.4966 282.248 44.4966ZM319.118 44.0181H313.471V27.7486C313.471 25.7069 313.057 24.1836 312.227 23.1787C311.414 22.1739 310.114 21.6714 308.327 21.6714C305.967 21.6714 304.228 22.3812 303.112 23.8008C302.011 25.2045 301.461 27.5651 301.461 30.8828V44.0181H295.838V6.78955H301.461V16.2403C301.461 17.7556 301.365 19.3745 301.174 21.0972H301.533C302.298 19.8212 303.359 18.8322 304.715 18.1304C306.086 17.4286 307.681 17.0777 309.5 17.0777C315.912 17.0777 319.118 20.3077 319.118 26.7676V44.0181ZM356.681 44.0181H347.183V29.7583H336.201V44.0181H326.702V9.03858H336.201V22.0064H347.183V9.03858H356.681V44.0181ZM383.024 44.0181L381.851 40.6446H381.301C380.519 41.8887 379.427 42.8457 378.023 43.5157C376.636 44.1696 375.001 44.4966 373.118 44.4966C370.136 44.4966 367.815 43.6353 366.156 41.9126C364.497 40.174 363.668 37.7256 363.668 34.5674V16.9102H373.023V31.7202C373.023 33.4908 373.27 34.8306 373.764 35.7398C374.275 36.649 375.104 37.1035 376.253 37.1035C377.864 37.1035 379.012 36.4735 379.698 35.2134C380.384 33.9374 380.727 31.792 380.727 28.7774V16.9102H390.082V44.0181H383.024ZM413.098 16.4317C416.049 16.4317 418.386 17.6678 420.109 20.1402C421.847 22.6125 422.717 26.0339 422.717 30.4043C422.717 34.8067 421.839 38.26 420.085 40.7642C418.346 43.2525 415.922 44.4966 412.811 44.4966C411.806 44.4966 410.913 44.385 410.132 44.1617C409.35 43.9543 408.648 43.6592 408.026 43.2764C407.42 42.8936 406.71 42.2556 405.897 41.3623H405.323L403.839 44.0181H396.542V6.78955H405.897V15.2115C405.897 16.2163 405.785 17.947 405.562 20.4034H405.897C406.806 18.9997 407.851 17.9869 409.031 17.3648C410.227 16.7427 411.583 16.4317 413.098 16.4317ZM409.677 23.7769C408.369 23.7769 407.412 24.2315 406.806 25.1407C406.2 26.0498 405.897 27.4774 405.897 29.4234V30.7393C405.897 32.9564 406.2 34.5515 406.806 35.5244C407.412 36.4815 408.401 36.96 409.773 36.96C410.873 36.96 411.719 36.4017 412.309 35.2852C412.899 34.1527 413.194 32.4938 413.194 30.3086C413.194 25.9541 412.022 23.7769 409.677 23.7769Z" fill="white"/>
<path d="M105.627 62.0181H102.902V51.4361H99.4131V49.1685H109.116V51.4361H105.627V62.0181ZM113.019 57.0874C113.019 58.0601 113.177 58.7954 113.493 59.2935C113.815 59.7915 114.337 60.0406 115.058 60.0406C115.773 60.0406 116.285 59.7945 116.596 59.3023C116.912 58.8042 117.07 58.066 117.07 57.0874C117.07 56.1148 116.912 55.3853 116.596 54.899C116.279 54.4126 115.761 54.1695 115.04 54.1695C114.325 54.1695 113.81 54.4126 113.493 54.899C113.177 55.3794 113.019 56.1089 113.019 57.0874ZM119.813 57.0874C119.813 58.687 119.391 59.938 118.547 60.8404C117.703 61.7427 116.528 62.1939 115.023 62.1939C114.079 62.1939 113.247 61.9888 112.526 61.5786C111.806 61.1626 111.252 60.5679 110.865 59.7945C110.479 59.021 110.285 58.1187 110.285 57.0874C110.285 55.482 110.704 54.2339 111.542 53.3433C112.38 52.4527 113.558 52.0074 115.075 52.0074C116.019 52.0074 116.851 52.2124 117.571 52.6226C118.292 53.0327 118.846 53.6216 119.233 54.3892C119.619 55.1568 119.813 56.0562 119.813 57.0874ZM130.579 52.1919V53.5542L129.041 53.9497C129.323 54.3892 129.463 54.8814 129.463 55.4263C129.463 56.481 129.094 57.3042 128.356 57.896C127.623 58.482 126.604 58.7749 125.297 58.7749L124.814 58.7486L124.418 58.7046C124.143 58.9156 124.005 59.1499 124.005 59.4077C124.005 59.7945 124.497 59.9878 125.482 59.9878H127.152C128.23 59.9878 129.05 60.2193 129.613 60.6822C130.181 61.1451 130.465 61.8247 130.465 62.7212C130.465 63.8697 129.985 64.7603 129.024 65.3931C128.069 66.0259 126.695 66.3423 124.902 66.3423C123.531 66.3423 122.482 66.1021 121.755 65.6216C121.034 65.147 120.674 64.479 120.674 63.6177C120.674 63.0259 120.859 62.5308 121.228 62.1324C121.597 61.7339 122.139 61.4497 122.854 61.2798C122.578 61.1626 122.338 60.9722 122.133 60.7085C121.928 60.439 121.825 60.1548 121.825 59.856C121.825 59.481 121.934 59.1704 122.151 58.9243C122.367 58.6724 122.681 58.4263 123.091 58.1861C122.575 57.9634 122.165 57.606 121.861 57.1138C121.562 56.6216 121.412 56.0415 121.412 55.3736C121.412 54.3013 121.761 53.4722 122.458 52.8863C123.156 52.3003 124.152 52.0074 125.447 52.0074C125.722 52.0074 126.047 52.0337 126.422 52.0865C126.803 52.1333 127.046 52.1685 127.152 52.1919H130.579ZM122.994 63.4068C122.994 63.7759 123.17 64.066 123.522 64.2769C123.879 64.4878 124.377 64.5933 125.016 64.5933C125.977 64.5933 126.73 64.4615 127.275 64.1978C127.82 63.9341 128.092 63.5738 128.092 63.1167C128.092 62.7476 127.931 62.4927 127.609 62.3521C127.286 62.2115 126.788 62.1411 126.115 62.1411H124.726C124.234 62.1411 123.821 62.2554 123.487 62.4839C123.158 62.7183 122.994 63.0259 122.994 63.4068ZM123.97 55.4087C123.97 55.9419 124.09 56.3638 124.33 56.6743C124.576 56.9849 124.949 57.1402 125.447 57.1402C125.95 57.1402 126.32 56.9849 126.554 56.6743C126.788 56.3638 126.906 55.9419 126.906 55.4087C126.906 54.2251 126.419 53.6333 125.447 53.6333C124.462 53.6333 123.97 54.2251 123.97 55.4087ZM136.275 53.9146C135.706 53.9146 135.261 54.0962 134.939 54.4595C134.617 54.8169 134.432 55.3267 134.385 55.9888H138.147C138.135 55.3267 137.962 54.8169 137.628 54.4595C137.294 54.0962 136.843 53.9146 136.275 53.9146ZM136.653 62.1939C135.071 62.1939 133.834 61.7574 132.944 60.8843C132.053 60.0113 131.608 58.7749 131.608 57.1753C131.608 55.5288 132.018 54.2574 132.838 53.3609C133.664 52.4585 134.804 52.0074 136.257 52.0074C137.646 52.0074 138.727 52.4029 139.5 53.1939C140.274 53.9849 140.66 55.0777 140.66 56.4722V57.773H134.324C134.353 58.5347 134.578 59.1294 135 59.5572C135.422 59.9849 136.014 60.1988 136.776 60.1988C137.367 60.1988 137.927 60.1372 138.454 60.0142C138.982 59.8911 139.533 59.6949 140.107 59.4253V61.4995C139.638 61.7339 139.137 61.9068 138.604 62.0181C138.071 62.1353 137.42 62.1939 136.653 62.1939ZM146.98 60.0581C147.449 60.0581 148.011 59.9556 148.667 59.7505V61.7456C147.999 62.0445 147.179 62.1939 146.206 62.1939C145.134 62.1939 144.352 61.9243 143.86 61.3853C143.373 60.8404 143.13 60.0259 143.13 58.9419V54.2046H141.847V53.0708L143.324 52.1743L144.097 50.1001H145.811V52.1919H148.562V54.2046H145.811V58.9419C145.811 59.3228 145.916 59.604 146.127 59.7857C146.344 59.9673 146.628 60.0581 146.98 60.0581ZM159.733 62.0181H157.052V56.2788C157.052 54.8609 156.525 54.1519 155.47 54.1519C154.72 54.1519 154.178 54.4068 153.844 54.9165C153.51 55.4263 153.343 56.2525 153.343 57.3951V62.0181H150.662V48.3423H153.343V51.1285C153.343 51.3452 153.323 51.855 153.282 52.6577L153.22 53.4488H153.361C153.958 52.4878 154.908 52.0074 156.208 52.0074C157.363 52.0074 158.239 52.3179 158.836 52.939C159.434 53.5601 159.733 54.4507 159.733 55.6109V62.0181ZM166.562 53.9146C165.993 53.9146 165.548 54.0962 165.226 54.4595C164.904 54.8169 164.719 55.3267 164.672 55.9888H168.434C168.422 55.3267 168.249 54.8169 167.915 54.4595C167.581 54.0962 167.13 53.9146 166.562 53.9146ZM166.94 62.1939C165.358 62.1939 164.121 61.7574 163.231 60.8843C162.34 60.0113 161.895 58.7749 161.895 57.1753C161.895 55.5288 162.305 54.2574 163.125 53.3609C163.951 52.4585 165.091 52.0074 166.544 52.0074C167.933 52.0074 169.014 52.4029 169.787 53.1939C170.561 53.9849 170.948 55.0777 170.948 56.4722V57.773H164.611C164.64 58.5347 164.866 59.1294 165.287 59.5572C165.709 59.9849 166.301 60.1988 167.063 60.1988C167.655 60.1988 168.214 60.1372 168.741 60.0142C169.269 59.8911 169.82 59.6949 170.394 59.4253V61.4995C169.925 61.7339 169.424 61.9068 168.891 62.0181C168.358 62.1353 167.707 62.1939 166.94 62.1939ZM178.612 52.0074C178.975 52.0074 179.277 52.0337 179.517 52.0865L179.315 54.6001C179.098 54.5415 178.834 54.5122 178.524 54.5122C177.668 54.5122 177 54.732 176.52 55.1714C176.045 55.6109 175.808 56.2261 175.808 57.0171V62.0181H173.127V52.1919H175.158L175.553 53.8443H175.685C175.99 53.2935 176.4 52.8511 176.915 52.5171C177.437 52.1773 178.002 52.0074 178.612 52.0074ZM198.703 62.0181H195.601L193.861 55.2681C193.796 55.0279 193.685 54.5327 193.527 53.7827C193.374 53.0269 193.286 52.5201 193.263 52.2622C193.228 52.5786 193.14 53.0884 192.999 53.7915C192.859 54.4888 192.75 54.9869 192.674 55.2857L190.943 62.0181H187.849L184.571 49.1685H187.251L188.895 56.1822C189.182 57.4771 189.39 58.5992 189.519 59.5484C189.554 59.2144 189.633 58.6988 189.756 58.0015C189.885 57.2984 190.005 56.7535 190.117 56.3667L191.989 49.1685H194.564L196.436 56.3667C196.518 56.689 196.62 57.1812 196.743 57.8433C196.867 58.5054 196.96 59.0738 197.025 59.5484C197.083 59.0913 197.177 58.523 197.306 57.8433C197.435 57.1577 197.552 56.604 197.658 56.1822L199.292 49.1685H201.973L198.703 62.0181ZM207.449 53.9146C206.88 53.9146 206.435 54.0962 206.113 54.4595C205.79 54.8169 205.606 55.3267 205.559 55.9888H209.321C209.309 55.3267 209.136 54.8169 208.802 54.4595C208.468 54.0962 208.017 53.9146 207.449 53.9146ZM207.826 62.1939C206.244 62.1939 205.008 61.7574 204.117 60.8843C203.227 60.0113 202.782 58.7749 202.782 57.1753C202.782 55.5288 203.192 54.2574 204.012 53.3609C204.838 52.4585 205.978 52.0074 207.431 52.0074C208.82 52.0074 209.901 52.4029 210.674 53.1939C211.448 53.9849 211.834 55.0777 211.834 56.4722V57.773H205.497C205.527 58.5347 205.752 59.1294 206.174 59.5572C206.596 59.9849 207.188 60.1988 207.95 60.1988C208.541 60.1988 209.101 60.1372 209.628 60.0142C210.156 59.8911 210.706 59.6949 211.281 59.4253V61.4995C210.812 61.7339 210.311 61.9068 209.778 62.0181C209.244 62.1353 208.594 62.1939 207.826 62.1939ZM224.359 51.2515C223.333 51.2515 222.539 51.6382 221.977 52.4117C221.414 53.1792 221.133 54.2515 221.133 55.6285C221.133 58.4937 222.208 59.9263 224.359 59.9263C225.261 59.9263 226.354 59.7007 227.637 59.2495V61.5347C226.582 61.9742 225.405 62.1939 224.104 62.1939C222.235 62.1939 220.805 61.6285 219.815 60.4976C218.825 59.3609 218.329 57.732 218.329 55.6109C218.329 54.2749 218.573 53.106 219.059 52.104C219.545 51.0962 220.242 50.3257 221.151 49.7925C222.065 49.2535 223.134 48.9839 224.359 48.9839C225.607 48.9839 226.861 49.2857 228.12 49.8892L227.241 52.104C226.761 51.8755 226.278 51.6763 225.791 51.5064C225.305 51.3365 224.827 51.2515 224.359 51.2515ZM236.408 62.0181L235.89 60.6822H235.82C235.368 61.2505 234.903 61.646 234.422 61.8687C233.948 62.0855 233.326 62.1939 232.559 62.1939C231.616 62.1939 230.871 61.9243 230.326 61.3853C229.787 60.8462 229.518 60.0786 229.518 59.0826C229.518 58.0396 229.881 57.272 230.608 56.7798C231.34 56.2818 232.442 56.0064 233.912 55.9536L235.617 55.9009V55.4702C235.617 54.4742 235.108 53.9761 234.088 53.9761C233.303 53.9761 232.38 54.2134 231.32 54.688L230.432 52.8775C231.563 52.2857 232.817 51.9898 234.194 51.9898C235.512 51.9898 236.523 52.2769 237.226 52.8511C237.929 53.4253 238.281 54.2984 238.281 55.4702V62.0181H236.408ZM235.617 57.4654L234.58 57.5005C233.801 57.524 233.221 57.6646 232.84 57.9224C232.459 58.1802 232.269 58.5728 232.269 59.1001C232.269 59.856 232.702 60.2339 233.57 60.2339C234.191 60.2339 234.686 60.0552 235.055 59.6978C235.43 59.3404 235.617 58.8658 235.617 58.274V57.4654ZM250.119 62.0181H247.439V56.2788C247.439 55.5699 247.313 55.0396 247.061 54.688C246.809 54.3306 246.408 54.1519 245.857 54.1519C245.107 54.1519 244.565 54.4038 244.231 54.9077C243.897 55.4058 243.73 56.2349 243.73 57.3951V62.0181H241.049V52.1919H243.097L243.457 53.4488H243.607C243.906 52.9742 244.316 52.6167 244.837 52.3765C245.365 52.1304 245.962 52.0074 246.63 52.0074C247.773 52.0074 248.64 52.3179 249.232 52.939C249.824 53.5542 250.119 54.4449 250.119 55.6109V62.0181ZM265.351 58.4497C265.351 59.6099 264.932 60.524 264.094 61.1919C263.262 61.8599 262.102 62.1939 260.614 62.1939C259.242 62.1939 258.03 61.9361 256.975 61.4204V58.8892C257.842 59.2759 258.575 59.5484 259.172 59.7066C259.776 59.8648 260.326 59.9439 260.825 59.9439C261.422 59.9439 261.879 59.8296 262.196 59.6011C262.518 59.3726 262.679 59.0327 262.679 58.5816C262.679 58.3296 262.609 58.107 262.468 57.9136C262.327 57.7144 262.119 57.524 261.844 57.3423C261.575 57.1607 261.021 56.8706 260.183 56.4722C259.398 56.1031 258.809 55.7486 258.416 55.4087C258.024 55.0689 257.71 54.6734 257.476 54.2222C257.241 53.771 257.124 53.2437 257.124 52.6402C257.124 51.5035 257.508 50.6099 258.276 49.9595C259.049 49.3091 260.116 48.9839 261.475 48.9839C262.143 48.9839 262.779 49.063 263.382 49.2212C263.991 49.3794 264.627 49.6021 265.289 49.8892L264.41 52.0074C263.725 51.7261 263.157 51.5298 262.705 51.4185C262.26 51.3072 261.821 51.2515 261.387 51.2515C260.871 51.2515 260.476 51.3716 260.2 51.6119C259.925 51.8521 259.787 52.1656 259.787 52.5523C259.787 52.7925 259.843 53.0035 259.954 53.1851C260.066 53.3609 260.241 53.5337 260.482 53.7036C260.728 53.8677 261.305 54.1665 262.213 54.6001C263.414 55.1743 264.238 55.7515 264.683 56.3316C265.128 56.9058 265.351 57.6119 265.351 58.4497ZM274.43 62.0181L274.07 60.7613H273.929C273.642 61.2183 273.235 61.5728 272.707 61.8247C272.18 62.0708 271.579 62.1939 270.906 62.1939C269.751 62.1939 268.881 61.8863 268.295 61.271C267.709 60.6499 267.416 59.7593 267.416 58.5992V52.1919H270.097V57.9312C270.097 58.6402 270.223 59.1734 270.475 59.5308C270.727 59.8824 271.128 60.0581 271.679 60.0581C272.429 60.0581 272.971 59.8091 273.305 59.3111C273.639 58.8072 273.806 57.9751 273.806 56.815V52.1919H276.487V62.0181H274.43ZM284.783 52.0074C285.147 52.0074 285.449 52.0337 285.689 52.0865L285.487 54.6001C285.27 54.5415 285.006 54.5122 284.696 54.5122C283.84 54.5122 283.172 54.732 282.692 55.1714C282.217 55.6109 281.98 56.2261 281.98 57.0171V62.0181H279.299V52.1919H281.329L281.725 53.8443H281.857C282.161 53.2935 282.572 52.8511 283.087 52.5171C283.609 52.1773 284.174 52.0074 284.783 52.0074ZM289.811 62.0181L286.067 52.1919H288.87L290.769 57.7906C290.98 58.4995 291.112 59.1704 291.164 59.8033H291.217C291.246 59.2408 291.378 58.5699 291.613 57.7906L293.502 52.1919H296.306L292.562 62.0181H289.811ZM297.607 49.6519C297.607 48.7788 298.093 48.3423 299.066 48.3423C300.038 48.3423 300.525 48.7788 300.525 49.6519C300.525 50.0679 300.402 50.3931 300.156 50.6275C299.915 50.856 299.552 50.9702 299.066 50.9702C298.093 50.9702 297.607 50.5308 297.607 49.6519ZM300.402 62.0181H297.721V52.1919H300.402V62.0181ZM305.561 62.0181L301.817 52.1919H304.62L306.519 57.7906C306.73 58.4995 306.862 59.1704 306.914 59.8033H306.967C306.996 59.2408 307.128 58.5699 307.363 57.7906L309.252 52.1919H312.056L308.312 62.0181H305.561ZM317.54 53.9146C316.972 53.9146 316.527 54.0962 316.204 54.4595C315.882 54.8169 315.698 55.3267 315.651 55.9888H319.412C319.401 55.3267 319.228 54.8169 318.894 54.4595C318.56 54.0962 318.109 53.9146 317.54 53.9146ZM317.918 62.1939C316.336 62.1939 315.1 61.7574 314.209 60.8843C313.319 60.0113 312.873 58.7749 312.873 57.1753C312.873 55.5288 313.283 54.2574 314.104 53.3609C314.93 52.4585 316.07 52.0074 317.523 52.0074C318.911 52.0074 319.992 52.4029 320.766 53.1939C321.539 53.9849 321.926 55.0777 321.926 56.4722V57.773H315.589C315.618 58.5347 315.844 59.1294 316.266 59.5572C316.688 59.9849 317.28 60.1988 318.041 60.1988C318.633 60.1988 319.193 60.1372 319.72 60.0142C320.247 59.8911 320.798 59.6949 321.372 59.4253V61.4995C320.904 61.7339 320.403 61.9068 319.869 62.0181C319.336 62.1353 318.686 62.1939 317.918 62.1939ZM333.95 62.0181H331.225V51.4361H327.736V49.1685H337.439V51.4361H333.95V62.0181ZM348.276 62.0181H345.595V56.2788C345.595 54.8609 345.068 54.1519 344.013 54.1519C343.263 54.1519 342.721 54.4068 342.387 54.9165C342.053 55.4263 341.886 56.2525 341.886 57.3951V62.0181H339.205V48.3423H341.886V51.1285C341.886 51.3452 341.866 51.855 341.825 52.6577L341.763 53.4488H341.904C342.501 52.4878 343.45 52.0074 344.751 52.0074C345.906 52.0074 346.782 52.3179 347.379 52.939C347.977 53.5601 348.276 54.4507 348.276 55.6109V62.0181ZM350.921 49.6519C350.921 48.7788 351.408 48.3423 352.38 48.3423C353.353 48.3423 353.839 48.7788 353.839 49.6519C353.839 50.0679 353.716 50.3931 353.47 50.6275C353.23 50.856 352.867 50.9702 352.38 50.9702C351.408 50.9702 350.921 50.5308 350.921 49.6519ZM353.716 62.0181H351.035V52.1919H353.716V62.0181ZM363.393 59.1001C363.393 60.1079 363.041 60.8755 362.338 61.4029C361.641 61.9302 360.595 62.1939 359.2 62.1939C358.486 62.1939 357.876 62.1441 357.372 62.0445C356.868 61.9507 356.397 61.8101 355.957 61.6226V59.4077C356.455 59.6421 357.015 59.8384 357.636 59.9966C358.263 60.1548 358.814 60.2339 359.288 60.2339C360.261 60.2339 360.747 59.9527 360.747 59.3902C360.747 59.1792 360.683 59.0093 360.554 58.8804C360.425 58.7456 360.202 58.5962 359.886 58.4322C359.57 58.2622 359.148 58.066 358.62 57.8433C357.865 57.5269 357.308 57.2339 356.95 56.9644C356.599 56.6949 356.341 56.3872 356.177 56.0415C356.019 55.69 355.94 55.2593 355.94 54.7495C355.94 53.8765 356.277 53.2027 356.95 52.7281C357.63 52.2476 358.591 52.0074 359.833 52.0074C361.017 52.0074 362.168 52.2652 363.287 52.7808L362.479 54.7144C361.987 54.5035 361.527 54.3306 361.099 54.1958C360.671 54.0611 360.235 53.9937 359.789 53.9937C358.998 53.9937 358.603 54.2076 358.603 54.6353C358.603 54.8755 358.729 55.0835 358.981 55.2593C359.239 55.4351 359.798 55.6958 360.659 56.0415C361.427 56.3521 361.99 56.6421 362.347 56.9117C362.704 57.1812 362.968 57.4917 363.138 57.8433C363.308 58.1949 363.393 58.6138 363.393 59.1001ZM375.829 51.2515C374.804 51.2515 374.01 51.6382 373.448 52.4117C372.885 53.1792 372.604 54.2515 372.604 55.6285C372.604 58.4937 373.679 59.9263 375.829 59.9263C376.732 59.9263 377.825 59.7007 379.108 59.2495V61.5347C378.053 61.9742 376.875 62.1939 375.575 62.1939C373.705 62.1939 372.276 61.6285 371.285 60.4976C370.295 59.3609 369.8 57.732 369.8 55.6109C369.8 54.2749 370.043 53.106 370.53 52.104C371.016 51.0962 371.713 50.3257 372.621 49.7925C373.535 49.2535 374.605 48.9839 375.829 48.9839C377.077 48.9839 378.331 49.2857 379.591 49.8892L378.712 52.104C378.232 51.8755 377.748 51.6763 377.262 51.5064C376.776 51.3365 376.298 51.2515 375.829 51.2515ZM387.123 52.0074C387.487 52.0074 387.788 52.0337 388.029 52.0865L387.826 54.6001C387.61 54.5415 387.346 54.5122 387.035 54.5122C386.18 54.5122 385.512 54.732 385.032 55.1714C384.557 55.6109 384.32 56.2261 384.32 57.0171V62.0181H381.639V52.1919H383.669L384.065 53.8443H384.197C384.501 53.2935 384.911 52.8511 385.427 52.5171C385.949 52.1773 386.514 52.0074 387.123 52.0074ZM389.699 49.6519C389.699 48.7788 390.185 48.3423 391.158 48.3423C392.13 48.3423 392.617 48.7788 392.617 49.6519C392.617 50.0679 392.493 50.3931 392.247 50.6275C392.007 50.856 391.644 50.9702 391.158 50.9702C390.185 50.9702 389.699 50.5308 389.699 49.6519ZM392.493 62.0181H389.813V52.1919H392.493V62.0181ZM402.17 59.1001C402.17 60.1079 401.819 60.8755 401.116 61.4029C400.418 61.9302 399.372 62.1939 397.978 62.1939C397.263 62.1939 396.654 62.1441 396.15 62.0445C395.646 61.9507 395.174 61.8101 394.735 61.6226V59.4077C395.233 59.6421 395.792 59.8384 396.413 59.9966C397.04 60.1548 397.591 60.2339 398.066 60.2339C399.038 60.2339 399.525 59.9527 399.525 59.3902C399.525 59.1792 399.46 59.0093 399.331 58.8804C399.202 58.7456 398.98 58.5962 398.663 58.4322C398.347 58.2622 397.925 58.066 397.398 57.8433C396.642 57.5269 396.085 57.2339 395.728 56.9644C395.376 56.6949 395.118 56.3872 394.954 56.0415C394.796 55.69 394.717 55.2593 394.717 54.7495C394.717 53.8765 395.054 53.2027 395.728 52.7281C396.408 52.2476 397.368 52.0074 398.611 52.0074C399.794 52.0074 400.946 52.2652 402.065 52.7808L401.256 54.7144C400.764 54.5035 400.304 54.3306 399.876 54.1958C399.449 54.0611 399.012 53.9937 398.567 53.9937C397.776 53.9937 397.38 54.2076 397.38 54.6353C397.38 54.8755 397.506 55.0835 397.758 55.2593C398.016 55.4351 398.575 55.6958 399.437 56.0415C400.204 56.3521 400.767 56.6421 401.124 56.9117C401.482 57.1812 401.745 57.4917 401.915 57.8433C402.085 58.1949 402.17 58.6138 402.17 59.1001ZM404.148 49.6519C404.148 48.7788 404.634 48.3423 405.607 48.3423C406.579 48.3423 407.066 48.7788 407.066 49.6519C407.066 50.0679 406.943 50.3931 406.697 50.6275C406.456 50.856 406.093 50.9702 405.607 50.9702C404.634 50.9702 404.148 50.5308 404.148 49.6519ZM406.943 62.0181H404.262V52.1919H406.943V62.0181ZM416.619 59.1001C416.619 60.1079 416.268 60.8755 415.565 61.4029C414.867 61.9302 413.822 62.1939 412.427 62.1939C411.712 62.1939 411.103 62.1441 410.599 62.0445C410.095 61.9507 409.623 61.8101 409.184 61.6226V59.4077C409.682 59.6421 410.241 59.8384 410.863 59.9966C411.49 60.1548 412.04 60.2339 412.515 60.2339C413.488 60.2339 413.974 59.9527 413.974 59.3902C413.974 59.1792 413.909 59.0093 413.781 58.8804C413.652 58.7456 413.429 58.5962 413.113 58.4322C412.796 58.2622 412.374 58.066 411.847 57.8433C411.091 57.5269 410.534 57.2339 410.177 56.9644C409.825 56.6949 409.568 56.3872 409.404 56.0415C409.245 55.69 409.166 55.2593 409.166 54.7495C409.166 53.8765 409.503 53.2027 410.177 52.7281C410.857 52.2476 411.818 52.0074 413.06 52.0074C414.243 52.0074 415.395 52.2652 416.514 52.7808L415.705 54.7144C415.213 54.5035 414.753 54.3306 414.325 54.1958C413.898 54.0611 413.461 53.9937 413.016 53.9937C412.225 53.9937 411.829 54.2076 411.829 54.6353C411.829 54.8755 411.955 55.0835 412.207 55.2593C412.465 55.4351 413.025 55.6958 413.886 56.0415C414.654 56.3521 415.216 56.6421 415.574 56.9117C415.931 57.1812 416.195 57.4917 416.365 57.8433C416.534 58.1949 416.619 58.6138 416.619 59.1001Z" fill="white"/>
<path d="M55.2333 49.8319C52.0265 54.3729 47.1483 57.7469 41.2676 58.9269C29.0664 61.3751 17.1908 53.4683 14.7433 41.2671C12.295 29.0659 20.2019 17.1903 32.4031 14.7427C38.2838 13.5627 44.0856 14.7937 48.7966 17.7463L65.9718 14.3002C57.6775 3.59435 43.7696 -2.11847 29.5905 0.726725C9.64827 4.72808 -3.27408 24.1374 0.726601 44.0797C4.72796 64.0219 24.1373 76.9442 44.0795 72.9435C58.2586 70.099 68.8863 59.4632 72.4085 46.3865L55.2333 49.8319Z" fill="#497BBD"/>
<path d="M79.0702 37.4051C78.3517 37.4051 77.6931 37.6647 77.1813 38.0943L57.9303 41.957C57.5076 43.9376 56.8251 45.8244 55.9164 47.5678L78.0914 43.1186C78.398 43.2273 78.7262 43.2892 79.0702 43.2892C80.6926 43.2892 82.0126 41.9692 82.0126 40.3468C82.0126 38.7243 80.6926 37.4051 79.0702 37.4051ZM79.0702 42.9697C77.6238 42.9697 76.4472 41.7932 76.4472 40.3468C76.4472 38.9004 77.6238 37.7238 79.0702 37.7238C80.5166 37.7238 81.6931 38.9004 81.6931 40.3468C81.6931 41.7932 80.5159 42.9697 79.0702 42.9697Z" fill="#00AC4E"/>
<path d="M80.1985 29.2086C79.425 29.2086 78.7222 29.5097 78.1947 29.9977L57.7189 34.1058C57.9493 35.8621 57.967 37.6028 57.7835 39.3L79.3081 34.9813C79.5894 35.0703 79.8885 35.1192 80.1991 35.1192C81.829 35.1192 83.1544 33.7932 83.1544 32.1639C83.1544 30.5347 81.8284 29.2086 80.1985 29.2086ZM80.1985 34.8005C78.7446 34.8005 77.5626 33.6178 77.5626 32.1646C77.5626 30.7107 78.7453 29.5288 80.1985 29.5288C81.6516 29.5288 82.8343 30.7114 82.8343 32.1646C82.835 33.6178 81.6523 34.8005 80.1985 34.8005Z" fill="#497BBD"/>
<path d="M80.2358 21.1087C79.4481 21.1087 78.7337 21.42 78.2035 21.9237L55.1646 26.5463C56.0109 28.0402 56.677 29.6491 57.1215 31.3605L79.3862 26.8936C79.6554 26.9745 79.9408 27.0193 80.2358 27.0193C81.8657 27.0193 83.1911 25.6932 83.1911 24.064C83.1911 22.4348 81.8657 21.1087 80.2358 21.1087ZM80.2358 26.7006C78.7826 26.7006 77.6 25.5179 77.6 24.0647C77.6 22.6115 78.7826 21.4288 80.2358 21.4288C81.689 21.4288 82.8717 22.6115 82.8717 24.0647C82.8717 25.5179 81.689 26.7006 80.2358 26.7006Z" fill="#ED342F"/>
<path d="M75.6907 14.2601C74.8914 14.2601 74.1662 14.5802 73.6333 15.0982L50.4075 19.7582C51.9076 21.0258 53.2452 22.5089 54.3789 24.1687L74.8798 20.0559C75.1381 20.1299 75.4093 20.1721 75.6914 20.1721C77.3213 20.1721 78.6467 18.846 78.6467 17.2168C78.6467 15.5855 77.3206 14.2601 75.6907 14.2601ZM75.6907 19.8513C74.2375 19.8513 73.0549 18.6686 73.0549 17.2154C73.0549 15.7616 74.2375 14.5796 75.6907 14.5796C77.1439 14.5796 78.3266 15.7622 78.3266 17.2154C78.3266 18.6693 77.1446 19.8513 75.6907 19.8513Z" fill="#FCB912"/>
</svg>
