<svg width="42" height="41" viewBox="0 0 42 41" fill="none" xmlns="http://www.w3.org/2000/svg">
<path d="M40.8723 20.371C40.8723 31.0112 32.1984 39.646 21.4872 39.646C10.776 39.646 2.10205 31.0112 2.10205 20.371C2.10205 9.7308 10.776 1.09595 21.4872 1.09595C32.1984 1.09595 40.8723 9.7308 40.8723 20.371Z" fill="#EAEAEA" fill-opacity="0.2" stroke="white" stroke-width="2"/>
<path d="M17.4302 8.79707C18.2586 8.79707 18.9302 8.1255 18.9302 7.29707C18.9302 6.46865 18.2586 5.79707 17.4302 5.79707C16.6017 5.79707 15.9302 6.46865 15.9302 7.29707C15.9302 8.1255 16.6017 8.79707 17.4302 8.79707Z" fill="white"/>
<path d="M17.3379 5.91948C17.5921 5.91948 17.8407 5.99488 18.0521 6.13614C18.2635 6.27739 18.4283 6.47817 18.5256 6.71307C18.6229 6.94797 18.6483 7.20644 18.5987 7.45581C18.5491 7.70518 18.4267 7.93424 18.2469 8.11403C18.0671 8.29381 17.8381 8.41624 17.5887 8.46585C17.3393 8.51545 17.0808 8.48999 16.8459 8.39269C16.611 8.29539 16.4103 8.13062 16.269 7.91922C16.1278 7.70781 16.0524 7.45927 16.0524 7.20502C16.0524 7.0362 16.0856 6.86903 16.1502 6.71307C16.2148 6.5571 16.3095 6.41538 16.4289 6.29601C16.5482 6.17664 16.69 6.08194 16.8459 6.01734C17.0019 5.95274 17.1691 5.91948 17.3379 5.91948ZM17.3379 5.70502C17.0412 5.70502 16.7512 5.79299 16.5045 5.95781C16.2579 6.12263 16.0656 6.3569 15.9521 6.63099C15.8385 6.90508 15.8088 7.20668 15.8667 7.49765C15.9246 7.78862 16.0675 8.0559 16.2772 8.26568C16.487 8.47546 16.7543 8.61832 17.0452 8.67619C17.3362 8.73407 17.6378 8.70437 17.9119 8.59084C18.186 8.4773 18.4203 8.28504 18.5851 8.03837C18.7499 7.7917 18.8379 7.50169 18.8379 7.20502C18.8379 6.80719 18.6798 6.42566 18.3985 6.14436C18.1172 5.86305 17.7357 5.70502 17.3379 5.70502Z" fill="white"/>
<path d="M27.9697 6.51042C28.7982 6.51042 29.4697 5.83885 29.4697 5.01042C29.4697 4.18199 28.7982 3.51042 27.9697 3.51042C27.1413 3.51042 26.4697 4.18199 26.4697 5.01042C26.4697 5.83885 27.1413 6.51042 27.9697 6.51042Z" fill="white"/>
<path d="M34.4424 12.2921C35.2708 12.2921 35.9424 11.6205 35.9424 10.7921C35.9424 9.9636 35.2708 9.2921 34.4424 9.2921C33.614 9.2921 32.9424 9.9636 32.9424 10.7921C32.9424 11.6205 33.614 12.2921 34.4424 12.2921Z" fill="white"/>
<path d="M34.3501 9.4144C34.6043 9.4144 34.8529 9.4898 35.0643 9.6311C35.2757 9.7724 35.4405 9.9731 35.5378 10.208C35.6351 10.4429 35.6605 10.7014 35.6109 10.9508C35.5613 11.2001 35.4389 11.4292 35.2591 11.609C35.0793 11.7888 34.8503 11.9112 34.6009 11.9608C34.3515 12.0104 34.093 11.985 33.8581 11.8877C33.6232 11.7904 33.4225 11.6256 33.2812 11.4142C33.14 11.2028 33.0646 10.9542 33.0646 10.7C33.0646 10.359 33.2 10.0321 33.4411 9.791C33.6822 9.5499 34.0092 9.4144 34.3501 9.4144ZM34.3501 9.2C34.0534 9.2 33.7634 9.288 33.5167 9.4528C33.2701 9.6176 33.0778 9.8519 32.9643 10.126C32.8507 10.4 32.821 10.7016 32.8789 10.9926C32.9368 11.2836 33.0796 11.5509 33.2894 11.7606C33.4992 11.9704 33.7665 12.1133 34.0575 12.1712C34.3484 12.229 34.65 12.1993 34.9241 12.0858C35.1982 11.9723 35.4325 11.78 35.5973 11.5333C35.7621 11.2867 35.8501 10.9967 35.8501 10.7C35.8501 10.3022 35.6921 9.9206 35.4108 9.6393C35.1295 9.358 34.7479 9.2 34.3501 9.2Z" fill="white"/>
<path d="M19.2793 20.3834C20.1077 20.3834 20.7793 19.7118 20.7793 18.8834C20.7793 18.055 20.1077 17.3834 19.2793 17.3834C18.4509 17.3834 17.7793 18.055 17.7793 18.8834C17.7793 19.7118 18.4509 20.3834 19.2793 20.3834Z" fill="white"/>
<path d="M19.1865 17.5069C19.4408 17.5069 19.6893 17.5823 19.9007 17.7236C20.1121 17.8648 20.2769 18.0656 20.3742 18.3005C20.4715 18.5354 20.4969 18.7939 20.4473 19.0433C20.3977 19.2926 20.2753 19.5217 20.0955 19.7015C19.9157 19.8813 19.6867 20.0037 19.4373 20.0533C19.1879 20.1029 18.9295 20.0774 18.6946 19.9801C18.4597 19.8828 18.2589 19.7181 18.1176 19.5067C17.9764 19.2953 17.901 19.0467 17.901 18.7925C17.901 18.4515 18.0364 18.1245 18.2775 17.8835C18.5186 17.6424 18.8456 17.5069 19.1865 17.5069ZM19.1865 17.2925C18.8898 17.2925 18.5998 17.3804 18.3532 17.5453C18.1065 17.7101 17.9142 17.9444 17.8007 18.2184C17.6872 18.4925 17.6575 18.7941 17.7153 19.0851C17.7732 19.3761 17.9161 19.6433 18.1259 19.8531C18.3356 20.0629 18.6029 20.2058 18.8939 20.2636C19.1849 20.3215 19.4865 20.2918 19.7605 20.1783C20.0346 20.0648 20.2689 19.8725 20.4337 19.6258C20.5985 19.3791 20.6865 19.0891 20.6865 18.7925C20.6865 18.3946 20.5285 18.0131 20.2472 17.7318C19.9659 17.4505 19.5843 17.2925 19.1865 17.2925Z" fill="white"/>
<path d="M10.0332 18.4408C10.8616 18.4408 11.5332 17.7692 11.5332 16.9408C11.5332 16.1124 10.8616 15.4408 10.0332 15.4408C9.20478 15.4408 8.5332 16.1124 8.5332 16.9408C8.5332 17.7692 9.20478 18.4408 10.0332 18.4408Z" fill="white"/>
<path d="M13.9575 23.982C14.7859 23.982 15.4575 23.3105 15.4575 22.482C15.4575 21.6536 14.7859 20.982 13.9575 20.982C13.1291 20.982 12.4575 21.6536 12.4575 22.482C12.4575 23.3105 13.1291 23.982 13.9575 23.982Z" fill="white"/>
<path d="M35.1816 26.2698C36.0101 26.2698 36.6816 25.5982 36.6816 24.7698C36.6816 23.9413 36.0101 23.2698 35.1816 23.2698C34.3532 23.2698 33.6816 23.9413 33.6816 24.7698C33.6816 25.5982 34.3532 26.2698 35.1816 26.2698Z" fill="white"/>
<path d="M17.2866 35.7525C18.115 35.7525 18.7866 35.0809 18.7866 34.2525C18.7866 33.4241 18.115 32.7525 17.2866 32.7525C16.4582 32.7525 15.7866 33.4241 15.7866 34.2525C15.7866 35.0809 16.4582 35.7525 17.2866 35.7525Z" fill="white"/>
<path d="M28.272 31.7371C29.1004 31.7371 29.772 31.0655 29.772 30.2371C29.772 29.4086 29.1004 28.7371 28.272 28.7371C27.4435 28.7371 26.772 29.4086 26.772 30.2371C26.772 31.0655 27.4435 31.7371 28.272 31.7371Z" fill="white"/>
<path d="M10.8278 16.5444C4.72551 16.5444 -5.81746 32.177 9.44054 36.7526" stroke="white" stroke-width="2" stroke-miterlimit="10"/>
<path d="M38.3892 30.8534C42.8752 38.6038 32.9551 40.4496 27.7104 30.7669C11.3584 33.3319 -6.2531 8.53147 8.10875 5.33609" stroke="white" stroke-width="2" stroke-miterlimit="10"/>
<path d="M17.2236 6.9007C17.2236 6.9007 33.8623 7.08482 34.9752 24.3723" stroke="white" stroke-width="2" stroke-miterlimit="10"/>
<path d="M19.0728 18.4881C19.0728 18.4881 29.4306 17.2004 34.236 10.3957" stroke="white" stroke-width="2" stroke-miterlimit="10"/>
<path d="M27.7647 5.61295C26.4699 4.89729 34.1557 -2.93544 34.1204 4.9488" stroke="white" stroke-width="2" stroke-miterlimit="10"/>
<path d="M13.7524 22.0856C13.7524 22.0856 12.8279 30.3623 17.0812 33.8561" stroke="white" stroke-width="2" stroke-miterlimit="10"/>
</svg>
