<svg width="359" height="338" viewBox="0 0 359 338" fill="none" xmlns="http://www.w3.org/2000/svg">
<g clip-path="url(#clip0)">
<rect width="414" height="1908" transform="translate(-21 -91)" fill="white"/>
<mask id="mask0" mask-type="alpha" maskUnits="userSpaceOnUse" x="39" y="-80" width="354" height="424">
<path fill-rule="evenodd" clip-rule="evenodd" d="M39 -79.1311H393V343.869H39V-79.1311Z" fill="white"/>
</mask>
<g mask="url(#mask0)">
<path fill-rule="evenodd" clip-rule="evenodd" d="M393 -41.8905V343.869C393 343.869 332.641 325.518 318.919 269.972C305.198 214.424 75.0124 294.544 55.2111 289.245C-20.6676 268.941 192.889 134.794 221.125 6.45567C249.36 -121.883 323.813 -67.8329 323.813 -67.8329L393 -41.8905Z" fill="#D1EBEC"/>
</g>
<g opacity="0.180408">
<mask id="mask1" mask-type="alpha" maskUnits="userSpaceOnUse" x="3" y="-7" width="362" height="343">
<path fill-rule="evenodd" clip-rule="evenodd" d="M3 -7H365V336H3V-7Z" fill="white"/>
</mask>
<g mask="url(#mask1)">
<path opacity="0.629976" fill-rule="evenodd" clip-rule="evenodd" d="M175.499 177.119C172.817 179.388 170.21 181.761 167.73 184.187C173.217 184.055 178.809 184.186 184.389 184.577C181.297 181.669 178.313 179.165 175.499 177.119V177.119ZM165.362 185.238L166.242 184.361C169.086 181.528 172.11 178.76 175.23 176.132L175.5 175.904L175.771 176.099C179.003 178.424 182.458 181.35 186.039 184.795L187.049 185.766L185.662 185.659C179.253 185.16 172.816 185.006 166.53 185.201L165.362 185.238ZM175.48 171.113C174.927 171.559 174.345 172.035 173.738 172.541C167.333 177.874 161.445 183.659 156.22 189.753C168.934 188.589 181.569 188.859 194.807 190.576C195.65 190.686 196.487 190.801 197.319 190.921C189.474 182.137 182.183 175.51 175.634 171.213L175.48 171.113ZM154.01 190.947L154.781 190.032C160.235 183.557 166.433 177.416 173.202 171.78C173.909 171.191 174.581 170.642 175.216 170.133L175.471 169.929L176.146 170.368C183.014 174.875 190.677 181.903 198.922 191.261L199.839 192.301L198.488 192.095C197.218 191.9 195.939 191.719 194.643 191.551C181.081 189.793 168.156 189.558 155.129 190.837L154.01 190.947ZM175.435 165.249C174.175 166.194 172.704 167.364 171.058 168.735C161.185 176.954 152.594 186.121 145.512 195.991C161.518 193.472 177.388 193.297 193.99 195.449C199.464 196.161 204.682 197.108 209.894 198.34C198.251 183.697 187.592 173.151 178.196 166.986C177.202 166.334 176.275 165.75 175.435 165.249V165.249ZM143.462 197.308L144.124 196.368C151.386 186.064 160.268 176.511 170.523 167.974C172.289 166.503 173.857 165.258 175.185 164.272L175.425 164.093L175.669 164.238C176.584 164.776 177.606 165.417 178.71 166.141C188.424 172.515 199.461 183.511 211.513 198.824L212.418 199.973L211.028 199.632C205.383 198.244 199.757 197.195 193.826 196.425C176.939 194.234 160.813 194.466 144.528 197.133L143.462 197.308ZM175.389 159.563C174.169 160.354 172.001 161.912 168.38 164.928C155.032 176.041 143.727 189.114 135.625 202.795C154.671 198.581 173.508 197.773 193.172 200.323C203.37 201.647 213.035 203.891 222.665 207.172C207.101 185.734 193.007 170.796 180.76 162.759C178.082 161.002 176.384 160.058 175.389 159.563V159.563ZM133.748 204.211L134.299 203.262C142.496 189.13 154.095 175.612 167.844 164.167C171.727 160.934 173.97 159.349 175.168 158.59L175.38 158.455L175.594 158.559C176.574 159.033 178.354 159.999 181.272 161.914C193.851 170.168 208.339 185.619 224.337 207.834L225.272 209.132L223.801 208.615C213.739 205.075 203.667 202.682 193.009 201.298C173.098 198.715 154.043 199.594 134.754 203.981L133.748 204.211ZM175.355 154.219C174.706 154.439 172.393 155.549 165.701 161.121C148.659 175.309 135.158 192.207 126.603 210.043C148.42 203.874 169.939 202.289 192.355 205.196C207.458 207.159 221.733 211.288 235.937 217.812C234.03 214.939 232.039 212.027 230.005 209.135C212.679 184.515 196.973 167.49 183.321 158.532C177.858 154.948 175.861 154.326 175.355 154.219V154.219ZM124.898 211.535L125.34 210.589C133.935 192.264 147.706 174.895 165.165 160.36C171.919 154.737 174.391 153.487 175.264 153.242L175.445 153.23C176.066 153.322 178.126 153.941 183.834 157.688C197.576 166.704 213.36 183.805 230.75 208.516C233.139 211.911 235.468 215.335 237.671 218.691L238.647 220.177L237.085 219.441C222.445 212.534 207.76 208.193 192.191 206.171C169.57 203.237 147.867 204.903 125.842 211.262L124.898 211.535ZM185.884 154.306C180.381 150.695 176.992 149.106 175.22 149.306C173.184 149.535 169.308 152.081 163.021 157.314C142.387 174.493 126.59 195.874 118.445 217.619C142.765 209.315 166.684 206.847 191.537 210.07C211.661 212.682 230.67 219.391 249.589 230.563C244.899 222.58 239.568 214.337 233.727 206.035C216.083 180.964 199.986 163.56 185.884 154.306V154.306ZM116.914 219.162L117.251 218.236C125.355 195.997 141.419 174.092 162.486 156.553C169.101 151.046 172.896 148.587 175.176 148.33C177.211 148.1 180.566 149.635 186.396 153.461C200.589 162.773 216.764 180.254 234.472 205.417C240.737 214.319 246.415 223.155 251.35 231.679L252.323 233.358L250.714 232.387C231.362 220.698 211.953 213.717 191.374 211.045C166.355 207.8 142.287 210.354 117.795 218.856L116.914 219.162ZM188.71 147.889C181.729 143.309 177.937 141.741 174.718 142.104C171.352 142.484 167.244 145.003 159.558 151.402C135.249 171.641 117.239 197.895 110.145 223.434C109.945 224.155 109.754 224.878 109.574 225.602C145.972 211.062 173.058 212.336 190.309 214.574C212.372 217.439 233.217 225.473 254.035 239.133C257.81 241.611 261.523 244.223 265.34 247.087C258.41 232.47 249.2 216.966 237.946 200.972C219.921 175.359 203.355 157.498 188.71 147.889V147.889ZM108.267 227.157L108.474 226.285C108.719 225.256 108.983 224.23 109.267 223.207C116.418 197.463 134.553 171.013 159.022 150.641C166.869 144.108 171.111 141.53 174.676 141.127C178.116 140.739 182.059 142.342 189.224 147.044C203.957 156.713 220.601 174.649 238.691 200.353C250.443 217.054 259.973 233.227 267.016 248.423L267.857 250.238L266.32 249.067C261.974 245.751 257.789 242.778 253.523 239.979C232.812 226.389 212.081 218.398 190.145 215.549C154.068 210.868 126.587 219.75 109.057 226.838L108.267 227.157ZM191.537 141.472C176.816 131.813 171.848 132.376 156.095 145.489C130.825 166.529 112.066 193.952 104.627 220.725C103.451 224.965 102.588 229.272 102.061 233.539C123.062 224.184 151.837 214.247 189.08 219.077C210.378 221.843 230.538 229.622 250.712 242.86C261.774 250.119 271.1 257.834 278.846 264.564C278.547 263.661 278.238 262.748 277.918 261.838C271.005 242.122 258.642 219.324 242.165 195.909C223.757 169.753 206.724 151.438 191.537 141.472V141.472ZM100.966 235.072L101.056 234.275C101.578 229.692 102.484 225.056 103.75 220.497C111.245 193.518 130.129 165.901 155.56 144.728C171.758 131.243 176.873 130.668 192.049 140.627C207.327 150.652 224.438 169.043 242.91 195.29C259.433 218.773 271.838 241.649 278.78 261.446C279.302 262.938 279.802 264.432 280.263 265.888L280.796 267.567L279.526 266.457C271.554 259.493 261.837 251.343 250.2 243.706C230.133 230.538 210.087 222.801 188.916 220.052C151.471 215.195 122.619 225.36 101.665 234.757L100.966 235.072ZM194.628 132.866C177.691 121.753 169.695 122.613 151.848 137.47C125.455 159.445 105.823 188.229 97.9852 216.443C96.3513 222.327 94.4502 231.386 94.5513 241.439C129.695 224.499 156.651 219.217 187.44 223.211C207.846 225.861 227.206 233.344 246.628 246.089C260.772 255.369 272.098 265.444 283.052 275.186C285.256 277.144 287.356 279.011 289.371 280.772C288.764 274.204 286.68 265.615 283.45 256.405C276.339 236.124 263.693 212.775 246.88 188.882C228.027 162.093 210.447 143.246 194.628 132.866V132.866ZM93.6584 242.925L93.645 242.222C93.4429 231.76 95.4158 222.305 97.1073 216.216C105.003 187.795 124.759 158.816 151.312 136.709C169.582 121.501 177.773 120.624 195.141 132.021C211.05 142.46 228.708 161.383 247.625 188.263C264.485 212.223 277.172 235.651 284.312 256.012C288.744 268.655 290.059 277.036 290.383 281.841L290.463 283.022L289.623 282.294C287.346 280.316 284.962 278.195 282.509 276.016C271.51 266.234 260.207 256.182 246.115 246.934C226.802 234.26 207.555 226.82 187.277 224.186C156.489 220.193 129.544 225.535 94.2715 242.627L93.6584 242.925ZM197.719 124.259C178.455 111.618 167.682 112.735 147.601 129.452C120.085 152.36 99.5798 182.507 91.343 212.161C88.8805 221.023 86.3821 234.558 88.3267 249C120.496 232.571 149.439 222.629 185.8 227.345C205.313 229.88 223.875 237.066 242.545 249.318C256.326 258.361 267.482 268.282 278.273 277.878C283.39 282.429 288.219 286.723 292.458 290.08C294.542 288.156 294.89 287.044 294.893 287.033C296.634 279.987 294.427 266.5 288.983 250.972C281.673 230.126 268.744 206.226 251.595 181.855C232.296 154.432 214.17 135.054 197.719 124.259V124.259ZM87.5941 250.438L87.5048 249.822C85.3773 234.969 87.9408 221.02 90.465 211.933C98.7595 182.074 119.389 151.733 147.065 128.691C167.554 111.635 178.552 110.501 198.231 123.414C214.773 134.268 232.977 153.722 252.339 181.235C269.537 205.674 282.506 229.654 289.844 250.58C295.35 266.286 297.568 279.993 295.775 287.246C295.737 287.398 295.328 288.766 292.737 291.075L292.453 291.329L292.172 291.108C287.844 287.703 282.903 283.31 277.672 278.658C266.895 269.073 255.761 259.172 242.032 250.163C223.471 237.983 205.024 230.838 185.637 228.32C149.293 223.606 120.375 233.642 88.1354 250.16L87.5941 250.438ZM201.322 114.808C179.538 100.513 165.322 101.938 142.818 120.673C114.02 144.649 92.5165 176.351 83.8219 207.65C80.4148 219.919 77.4386 238.501 82.4922 257.62C113.208 241.364 144.125 227.282 183.996 232.454C202.49 234.857 220.137 241.705 237.949 253.391C251.32 262.166 262.283 271.916 272.882 281.343C279.8 287.492 286.321 293.291 291.656 297.008C297.213 293.296 300.607 289.473 301.48 285.939C303.666 277.096 301.498 262.609 295.376 245.147C287.84 223.656 274.589 199.126 257.054 174.207C237.247 146.062 218.496 126.077 201.322 114.808V114.808ZM81.8957 259.005L81.7529 258.476C76.4404 238.946 79.4692 219.933 82.944 207.423C91.6963 175.917 113.324 144.021 142.282 119.911C165.18 100.85 179.649 99.4048 201.834 113.962C219.099 125.291 237.928 145.352 257.799 173.588C275.381 198.573 288.673 223.184 296.236 244.755C302.423 262.401 304.6 277.098 302.366 286.138C301.401 290.045 297.863 294.036 291.851 298.002L291.599 298.169L291.363 298.006C285.942 294.266 279.313 288.373 272.294 282.132C261.695 272.706 250.757 262.978 237.435 254.237C219.733 242.621 202.199 235.814 183.833 233.43C144.007 228.263 113.117 242.459 82.3769 258.751L81.8957 259.005ZM204.925 105.355C180.551 89.3613 163.047 91.0715 138.035 111.893C107.955 136.937 85.4533 170.195 76.301 203.141C71.9557 218.786 68.6755 242.321 77.6023 265.826L80.0046 264.548C108.491 249.381 140.777 232.191 182.193 237.564C199.666 239.833 216.4 246.341 233.352 257.465C246.315 265.972 257.082 275.548 267.495 284.808C275.144 291.609 282.352 298.019 288.316 301.932C289.19 302.506 289.991 303.006 290.702 303.421C300.572 297.783 306.415 291.528 308.072 284.831C310.682 274.267 308.503 258.529 301.769 239.322C294.007 217.185 280.433 192.025 262.513 166.561C242.198 137.692 222.822 117.099 204.925 105.355V105.355ZM77.1037 267.16L76.9266 266.703C67.6824 242.788 71.006 218.814 75.4231 202.913C84.633 169.762 107.259 136.308 137.5 111.132C162.893 89.9913 180.672 88.2593 205.438 104.51C223.426 116.314 242.879 136.981 263.258 165.941C281.226 191.474 294.841 216.714 302.629 238.93C309.43 258.323 311.618 274.264 308.956 285.029C307.216 292.072 301.131 298.593 290.871 304.41L290.649 304.535L290.44 304.414C289.665 303.968 288.778 303.418 287.804 302.778C281.788 298.83 274.557 292.4 266.901 285.594C256.494 276.337 245.75 266.783 232.839 258.311C215.994 247.258 199.375 240.789 182.029 238.539C140.889 233.2 108.74 250.318 80.3747 265.421L77.1037 267.16ZM208.281 94.559C181.472 76.9679 160.368 78.9893 133.004 101.769C101.64 127.88 78.142 162.695 68.5319 197.286C63.262 216.262 59.7997 244.638 73.121 272.289C75.9602 270.831 78.9656 269.232 82.1389 267.542C109.733 252.852 140.929 236.241 180.141 241.328C196.593 243.463 212.414 249.634 228.507 260.194C241.059 268.431 251.638 277.84 261.868 286.94C269.698 293.9 277.092 300.475 283.473 304.662C287.562 307.344 289.233 307.933 289.772 308.062C290.191 307.876 290.967 307.454 291.55 307.137C304.389 300.147 312.08 291.817 314.414 282.378C317.461 270.046 315.275 253.147 307.914 232.152C299.926 209.37 286.028 183.58 267.725 157.568C246.9 127.977 226.9 106.777 208.281 94.559V94.559ZM72.6858 273.575L72.4937 273.179C58.8116 245.122 62.3089 216.299 67.6548 197.059C77.3209 162.261 100.945 127.252 132.469 101.007C160.204 77.9178 181.604 75.8729 208.793 93.7134C227.503 105.991 247.581 127.267 268.47 156.95C286.82 183.028 300.759 208.897 308.775 231.76C316.202 252.944 318.398 270.041 315.3 282.575C312.891 292.317 305.028 300.874 291.926 308.006C291.225 308.388 290.353 308.863 289.923 309.03L289.808 309.075L289.691 309.055C289.151 308.961 287.416 308.43 282.96 305.508C276.527 301.286 269.11 294.692 261.259 287.71C251.05 278.631 240.496 269.243 227.995 261.04C212.009 250.55 196.303 244.421 179.978 242.303C141.041 237.251 109.981 253.789 82.5765 268.38C79.1827 270.186 76.0429 271.858 73.0801 273.373L72.6858 273.575ZM212.148 82.9174C182.302 63.3318 157.76 65.64 127.438 90.883C94.6315 118.196 70.0087 154.762 59.8858 191.204C53.5968 213.842 50.0326 247.519 68.6564 279.576C73.3683 277.412 78.9154 274.46 84.7809 271.338C111.224 257.259 141.195 241.301 177.926 246.066C193.231 248.054 208.025 253.844 223.151 263.769C235.234 271.699 245.596 280.915 255.618 289.826C263.675 296.99 271.272 303.746 278.117 308.237C287.652 314.492 289.567 313.45 294.193 310.93C309.402 302.651 318.636 292.285 321.642 280.122C325.138 265.971 322.877 247.287 314.92 224.591C306.676 201.08 292.416 174.581 273.68 147.956C252.282 117.551 231.581 95.6679 212.148 82.9174V82.9174ZM68.2604 280.8L68.0658 280.466C49.0478 248.012 52.6429 213.888 59.0079 190.976C69.1884 154.328 93.9349 117.568 126.902 90.1217C157.593 64.572 182.438 62.2403 212.66 82.0718C232.183 94.8823 252.963 116.84 274.425 147.337C293.208 174.029 307.509 200.608 315.781 224.199C323.805 247.085 326.076 265.966 322.528 280.32C319.447 292.786 310.041 303.378 294.569 311.8C289.905 314.34 287.563 315.615 277.604 309.083C270.708 304.558 263.088 297.781 255.019 290.608C245.009 281.705 234.67 272.51 222.639 264.615C207.621 254.76 192.941 249.012 177.763 247.041C141.307 242.312 111.473 258.196 85.1492 272.212C79.1226 275.42 73.4317 278.45 68.6163 280.638L68.2604 280.8ZM216.28 69.0857C183.113 47.3216 154.644 49.9547 121.087 77.8908C86.677 106.539 60.8071 145.05 50.112 183.549C42.7364 210.102 39.1287 249.409 63.7415 286.044C64.6478 285.754 65.6501 285.391 66.7293 284.962C72.5438 282.647 79.79 278.789 87.4622 274.705C112.715 261.26 141.324 246.029 175.299 250.436C189.332 252.257 202.982 257.624 217.033 266.845C228.603 274.437 238.724 283.439 248.513 292.145C256.812 299.524 264.637 306.482 272 311.314C283.856 319.091 289.069 318.548 296.964 314.249C314.804 304.538 325.755 291.911 329.508 276.721C333.505 260.547 331.159 239.88 322.539 215.293C314.012 190.974 299.349 163.687 280.132 136.381C258.099 105.071 236.615 82.429 216.28 69.0857V69.0857ZM63.3422 287.174L63.1651 286.913C38.1497 249.895 41.7824 210.147 49.2349 183.323C59.9868 144.617 85.9803 105.911 120.552 77.1296C154.471 48.891 183.254 46.2326 216.792 68.2402C237.218 81.6433 258.779 104.36 280.876 135.762C300.141 163.136 314.844 190.502 323.399 214.901C332.087 239.677 334.439 260.543 330.393 276.917C326.566 292.411 315.445 305.264 297.34 315.119C289.116 319.597 283.708 320.175 271.488 312.159C264.073 307.294 256.226 300.316 247.917 292.927C238.137 284.23 228.039 275.249 216.52 267.69C202.577 258.54 189.041 253.215 175.135 251.411C141.436 247.04 112.963 262.198 87.8422 275.574C80.1341 279.676 72.8662 283.545 67.0033 285.879C65.7804 286.366 64.6503 286.77 63.6446 287.08L63.3422 287.174ZM220.412 55.2541C184.023 31.3756 151.431 34.3503 114.736 64.8996C78.7224 94.8823 51.6054 135.339 40.339 175.895C32.184 205.252 28.4118 248.699 56.7525 288.97C57.7048 290.323 58.3872 290.924 58.6453 291.125C59.1072 291.229 61.5262 291.529 68.4767 288.761C74.7773 286.253 82.2449 282.277 90.1518 278.068C114.204 265.262 141.452 250.755 172.672 254.805C185.43 256.462 197.939 261.406 210.914 269.92C221.969 277.173 231.854 285.966 241.415 294.469C249.944 302.052 258 309.216 265.883 314.389C279.341 323.219 287.883 324.021 299.735 317.57C320.209 306.424 332.872 291.534 337.375 273.318C341.87 255.124 339.443 232.474 330.159 205.995C321.347 180.868 306.279 152.793 286.583 124.804C263.914 92.5906 241.65 69.1909 220.412 55.2541V55.2541ZM58.2168 292.034L58.1584 291.992C57.8744 291.784 57.0942 291.133 56.0083 289.589C27.4488 249.008 31.246 205.239 39.462 175.668C50.7844 134.905 78.0267 94.254 114.2 64.1383C151.254 33.2909 184.169 30.2901 220.925 54.4086C242.253 68.4044 264.595 91.8806 287.329 124.185C307.073 152.242 322.18 180.396 331.02 205.602C340.37 232.27 342.806 255.119 338.26 273.515C333.684 292.034 320.849 307.15 300.111 318.44C287.912 325.08 279.146 324.272 265.371 315.235C257.436 310.027 249.357 302.844 240.805 295.239C231.267 286.756 221.404 277.984 210.402 270.765C197.535 262.322 185.139 257.419 172.509 255.78C141.564 251.766 114.453 266.2 90.5327 278.936C82.5899 283.164 75.099 287.152 68.7507 289.679C61.2339 292.672 58.7138 292.183 58.2853 292.055L58.2168 292.034ZM224.544 41.4225C185.032 15.4956 148.122 18.8275 108.385 51.9075C70.768 83.2259 42.4039 125.627 30.5661 168.24C21.8139 199.748 17.7877 246.41 48.3144 289.788C49.7302 291.801 51.2254 293.354 52.6371 294.281C59.8348 299.005 75.8741 290.465 92.8556 281.424C115.695 269.263 141.581 255.482 170.046 259.174C181.528 260.664 192.895 265.186 204.797 272.996C215.333 279.909 224.982 288.491 234.314 296.791C243.086 304.591 251.368 311.954 259.767 317.466C275.767 327.962 287.749 328.922 302.506 320.889C325.613 308.31 339.991 291.161 345.241 269.915C350.235 249.701 347.725 225.067 337.777 196.696C328.684 170.762 313.212 141.901 293.036 113.229C269.729 80.1112 246.685 55.9511 224.544 41.4225V41.4225ZM52.1251 295.127C50.6232 294.141 49.0487 292.51 47.5702 290.408C16.8247 246.72 20.8767 199.735 29.6882 168.013C41.5828 125.194 70.0714 82.5975 107.85 51.1462C147.94 17.7708 185.183 14.4128 225.056 40.5769C247.287 55.1646 270.41 79.4004 293.78 112.61C314.004 141.349 329.516 170.29 338.639 196.304C348.652 224.863 351.171 249.696 346.126 270.112C340.801 291.66 326.252 309.036 302.882 321.759C287.791 329.974 275.559 329.007 259.254 318.31C250.804 312.766 242.5 305.382 233.708 297.564C224.395 289.282 214.769 280.721 204.285 273.841C192.49 266.101 181.236 261.623 169.882 260.149C141.693 256.492 115.944 270.201 93.2257 282.297C76.0053 291.466 59.7413 300.125 52.1251 295.127V295.127ZM228.675 27.5909C186.14 -0.320854 144.716 3.38385 102.035 38.9162C62.8135 71.5695 33.2023 115.916 20.7931 160.586C11.4429 194.245 7.16449 244.123 39.8763 290.607C41.9486 293.553 44.1839 295.824 46.5194 297.357C57.9053 304.828 75.3487 295.54 95.547 284.786C117.185 273.265 141.71 260.209 167.418 263.543C177.627 264.869 187.852 268.966 198.68 276.071C208.698 282.645 218.111 291.016 227.213 299.111C236.225 307.125 244.733 314.691 253.641 320.536C272.201 332.712 287.64 333.81 305.276 324.208C331.017 310.196 347.109 290.783 353.107 266.512C358.601 244.277 356.007 217.659 345.396 187.398C336.02 160.658 320.145 131.007 299.487 101.653C275.545 67.631 251.72 42.7122 228.675 27.5909V27.5909ZM46.0073 298.202C43.5808 296.61 41.2679 294.264 39.132 291.227C6.20053 244.433 10.5056 194.232 19.9152 160.358C32.3812 115.483 62.1176 70.9411 101.498 38.1558C144.529 2.33232 186.297 -1.4002 229.187 26.7453C252.323 41.9266 276.225 66.9201 300.232 101.033C320.937 130.456 336.853 160.185 346.257 187.006C356.934 217.457 359.537 244.273 353.993 266.709C347.92 291.284 331.656 310.922 305.652 325.078C287.691 334.857 271.985 333.752 253.136 321.387C244.169 315.502 235.638 307.917 226.607 299.885C217.523 291.806 208.133 283.457 198.167 276.916C187.448 269.882 177.336 265.826 167.255 264.519C141.822 261.219 117.434 274.203 95.9178 285.659C75.469 296.546 57.8109 305.948 46.0073 298.202V298.202ZM95.4158 25.5443L95.6831 25.925C54.2592 60.4127 24.1911 105.518 11.0194 152.932C4.21004 177.447 2.28469 201.485 5.29843 224.378C8.51264 248.787 17.3066 271.347 31.4381 291.427C34.2405 295.409 37.2384 298.36 40.4134 300.445C55.9724 310.657 75.8374 300.077 98.24 288.148C118.675 277.267 141.836 264.935 164.793 267.913C185.43 270.59 203.064 286.271 220.119 301.438C245.482 323.991 271.708 347.311 308.048 327.527C336.42 312.082 354.228 290.407 360.973 263.109C367.45 236.898 368.913 179.564 305.938 90.0765C234.517 -11.4115 165.742 -32.3988 95.6831 25.925L95.4158 25.5443ZM39.9715 301.374C36.6938 299.223 33.5974 296.172 30.6947 292.047C16.4747 271.842 7.62473 249.14 4.38963 224.571C1.35751 201.538 3.29289 177.358 10.1415 152.705C23.3717 105.081 53.5609 59.787 95.1485 25.1637C133.183 -6.50058 171.7 -14.8381 209.631 0.384804C241.863 13.3196 273.607 42.4558 306.683 89.4569C328.172 119.994 344.051 149.686 353.877 177.708C365.217 210.051 367.902 238.85 361.859 263.306C355.039 290.908 337.061 312.808 308.423 328.397C271.54 348.475 245.09 324.954 219.509 302.207C202.549 287.126 185.011 271.533 164.629 268.888C141.949 265.945 118.924 278.205 98.6083 289.023C75.9476 301.088 55.8463 311.791 39.9715 301.374V301.374Z" fill="#4762A7"/>
</g>
</g>
<mask id="mask2" mask-type="alpha" maskUnits="userSpaceOnUse" x="24" y="34" width="313" height="215">
<path fill-rule="evenodd" clip-rule="evenodd" d="M24 34.0834H336.635V248.047H24V34.0834Z" fill="white"/>
</mask>
<g mask="url(#mask2)">
<path fill-rule="evenodd" clip-rule="evenodd" d="M295.001 103.238C330.47 139.204 354.938 185.977 318.925 221.663C283.788 256.487 215.719 250.829 158.359 238.652C97.0097 225.63 29.4532 205.046 24.4974 159.161C18.6791 105.298 64.3798 51.6398 136.541 36.7211C201.519 23.2869 255.878 63.5656 295.001 103.238Z" fill="#1C3557"/>
</g>
<path fill-rule="evenodd" clip-rule="evenodd" d="M71.2321 250.648C68.1219 242.642 65.0123 234.637 61.9021 226.631C61.7694 226.301 61.2405 226.433 61.3726 226.764C64.4827 234.77 67.5929 242.775 70.7031 250.779C70.8352 251.11 71.3648 250.978 71.2321 250.648Z" fill="#E4E7F4"/>
<path fill-rule="evenodd" clip-rule="evenodd" d="M202.523 228.635C202.128 227.016 201.272 224.316 200.078 224.855C199.353 225.193 199.485 226.408 199.55 227.016C199.616 227.96 199.815 228.905 200.078 229.85C199.748 229.58 197.5 228.028 196.512 228.095C196.314 228.095 196.182 228.366 196.314 228.568C197.434 230.255 198.693 231.943 200.21 233.293C201.133 234.035 202.062 234.441 203.117 233.698C204.238 232.955 204.508 231.605 204.573 230.323C204.639 229.445 204.838 225.463 203.842 225.328C202.721 225.125 202.59 228.163 202.523 228.635Z" fill="#FCBB41"/>
<path fill-rule="evenodd" clip-rule="evenodd" d="M143.862 232.955C142.742 233.562 142.28 235.048 142.016 235.318C142.016 234.912 142.807 232.618 142.28 232.483C141.753 232.348 140.757 234.17 140.428 234.71C140.361 234.103 140.757 232.212 140.229 232.212C139.637 232.212 139.505 232.82 139.439 233.293C139.241 234.305 138.582 239.435 140.559 239.3C141.423 239.233 142.345 238.018 142.807 237.41C143.466 236.533 144.462 235.25 144.528 234.103C144.66 233.495 144.462 232.618 143.862 232.955Z" fill="#FCBB41"/>
<path fill-rule="evenodd" clip-rule="evenodd" d="M63.3416 224.518C62.4834 224.315 63.3416 226.137 63.2757 227.218C62.7477 225.935 60.898 223.775 60.2375 224.315C59.1142 225.26 60.3693 228.095 60.4353 228.298C60.3693 228.23 58.5856 226.003 58.3878 226.61C58.0575 227.487 61.2942 231.605 62.2843 231.943C64.0687 232.618 64.5308 230.187 64.6633 228.905C64.6633 228.028 64.5967 224.855 63.3416 224.518Z" fill="#E4E7F4"/>
<path fill-rule="evenodd" clip-rule="evenodd" d="M67.5697 250.1L64.9277 245.443C64.7286 245.106 64.2665 245.443 64.4649 245.713C65.3238 247.266 66.2487 248.818 67.107 250.37C67.3054 250.708 67.7675 250.37 67.5697 250.1Z" fill="#E4E7F4"/>
<path fill-rule="evenodd" clip-rule="evenodd" d="M312.198 244.41C311.341 246.466 310.418 248.523 309.561 250.514C309.422 250.845 309.89 251.111 310.022 250.779C310.879 248.722 311.802 246.665 312.666 244.675C312.798 244.41 312.33 244.078 312.198 244.41Z" fill="#E4E7F4"/>
<path fill-rule="evenodd" clip-rule="evenodd" d="M233.249 143.028C227.638 136.261 221.231 128.697 215.547 121.995C218.126 120.005 220.763 118.081 223.538 116.356C228.495 122.194 234.574 129.559 239.526 135.464C237.613 138.251 235.233 140.308 233.249 143.028Z" fill="#F1F7ED"/>
<path fill-rule="evenodd" clip-rule="evenodd" d="M234.838 137.786C239.591 134.137 248.314 127.038 252.876 123.189C257.629 119.142 267.934 124.118 263.114 128.166C257.234 133.142 248.511 140.374 242.367 145.018C240.323 146.611 236.42 146.677 234.508 144.554C234.047 144.023 233.585 143.559 233.183 143.028C235.102 140.175 232.985 140.639 234.838 137.786Z" fill="#F1F7ED"/>
<path fill-rule="evenodd" clip-rule="evenodd" d="M223.538 116.356C221.362 113.237 218.191 108.128 216.734 108.261C215.218 108.394 218.653 110.583 218.586 112.441C218.521 114.299 212.904 106.602 211.183 107.199C209.403 107.797 214.888 110.915 214.354 111.711C213.761 112.574 210.589 107.465 209.271 108.261C207.946 109.057 213.102 112.773 212.508 113.569C211.915 114.432 208.876 108.991 207.682 110.451C206.891 111.446 210.458 114.1 211.051 115.493C211.651 116.82 207.748 111.446 207.089 112.706C206.43 113.967 213.431 119.474 215.548 121.995C217.729 124.517 223.538 116.356 223.538 116.356Z" fill="#7A86C1"/>
<path fill-rule="evenodd" clip-rule="evenodd" d="M217.927 125.645C217.994 125.578 217.994 125.578 217.927 125.645C217.994 125.578 217.994 125.578 217.927 125.645C217.994 125.578 217.994 125.578 217.927 125.645C220.433 123.057 222.944 120.536 225.523 118.147C225.786 117.882 226.116 118.346 225.852 118.612C223.472 120.801 221.231 123.123 218.983 125.445C218.983 125.512 218.916 125.512 218.916 125.578L218.323 126.109C218.125 126.242 217.729 125.844 217.927 125.645Z" fill="#7A86C1"/>
<path fill-rule="evenodd" clip-rule="evenodd" d="M225.588 118.744C224.863 117.882 224.203 117.086 223.538 116.289C220.835 118.081 218.126 119.939 215.548 121.929C216.537 123.057 217.526 124.251 218.586 125.512C220.63 122.991 223.076 120.867 225.588 118.744Z" fill="#7A86C1"/>
<path fill-rule="evenodd" clip-rule="evenodd" d="M240.389 136.791C240.191 136.194 239.927 135.663 239.525 135.132C239.328 134.801 238.8 135.132 239.064 135.398C239.393 135.862 239.658 136.393 239.855 136.924C239.927 137.322 240.455 137.189 240.389 136.791Z" fill="#ACCAE9"/>
<path fill-rule="evenodd" clip-rule="evenodd" d="M218.718 118.678C217.459 117.484 217.064 115.758 217.591 114.1C217.729 113.768 217.129 113.569 217.064 113.967C216.47 115.825 216.932 117.815 218.323 119.142C218.586 119.341 218.982 118.943 218.718 118.678Z" fill="#FEFEFE"/>
<path fill-rule="evenodd" clip-rule="evenodd" d="M128.605 102.621C123.914 107.73 117.902 114.365 113.08 119.739C107.86 121.995 98.8754 125.644 93.8544 127.569C88.0408 129.891 91.212 139.113 97.0255 136.791C104.16 134.004 110.436 131.549 117.439 128.365C117.572 128.298 117.638 128.232 117.769 128.166C118.629 127.569 119.422 126.706 119.883 126.109C126.226 119.009 129.728 114.763 136.201 107.73C133.89 105.806 131.115 104.413 128.605 102.621Z" fill="#F06057"/>
<path fill-rule="evenodd" clip-rule="evenodd" d="M131.974 112.441C133.295 110.981 134.682 109.455 136.201 107.73C133.824 105.74 131.049 104.413 128.538 102.621C127.482 103.816 126.358 105.01 125.17 106.337C127.614 108.195 129.728 110.384 131.974 112.441Z" fill="#ACCAE9"/>
<path fill-rule="evenodd" clip-rule="evenodd" d="M128.604 102.621C129.991 100.896 133.229 97.8441 135.541 97.645C137.854 97.446 134.419 98.972 133.824 100.631C133.229 102.289 140.034 97.3796 141.688 97.9768C143.337 98.5739 137.787 100.498 137.985 101.427C138.18 102.356 142.875 99.3038 143.732 100.432C144.589 101.56 138.649 103.285 138.847 104.214C139.045 105.142 143.732 101.095 144.26 102.82C144.589 103.948 140.429 105.408 139.44 106.337C138.451 107.332 143.93 104.744 144.128 106.071C144.326 107.398 136.334 108.924 133.559 110.45C130.851 112.043 128.604 102.621 128.604 102.621Z" fill="#ACCAE9"/>
<path fill-rule="evenodd" clip-rule="evenodd" d="M133.824 101.759C133.757 101.427 133.229 101.361 133.229 101.759C133.361 102.953 133.361 104.944 132.106 105.541C131.775 105.673 132.04 106.204 132.37 106.005C133.89 105.408 133.956 103.152 133.824 101.759Z" fill="#7A86C1"/>
<path fill-rule="evenodd" clip-rule="evenodd" d="M113.013 120.005C112.881 120.536 112.682 121.066 112.551 121.597C112.419 121.929 113.013 122.128 113.08 121.73C113.212 121.199 113.41 120.668 113.542 120.138C113.673 119.806 113.08 119.673 113.013 120.005Z" stroke="#E45552"/>
<path fill-rule="evenodd" clip-rule="evenodd" d="M132.436 112.508C130.124 110.185 127.877 107.929 125.565 105.607C125.302 105.342 124.905 105.74 125.17 106.005C127.481 108.328 129.728 110.583 132.04 112.906C132.305 113.171 132.701 112.773 132.436 112.508Z" fill="#ACCAE9"/>
<path fill-rule="evenodd" clip-rule="evenodd" d="M221.164 217.339C216.141 219.594 210.788 217.804 208.546 212.695C206.297 207.652 208.151 200.951 213.234 198.894C219.575 196.307 224.203 199.292 226.446 204.334C228.693 209.377 226.181 215.083 221.164 217.339Z" fill="#8CCDD1"/>
<path fill-rule="evenodd" clip-rule="evenodd" d="M220.63 212.363C220.499 212.164 220.433 211.7 220.63 211.501C220.835 211.301 221.099 211.368 221.23 211.567C221.626 212.164 222.549 211.434 222.087 210.837C221.56 210.107 220.499 210.041 219.839 210.572C219.114 211.169 219.18 212.296 219.642 213.027C220.103 213.69 221.033 212.96 220.63 212.363Z" fill="#477C9D"/>
<path fill-rule="evenodd" clip-rule="evenodd" d="M220.301 210.439C220.169 210.306 220.037 210.24 219.971 210.041C219.839 209.311 218.719 209.51 218.85 210.24C218.916 210.704 219.18 211.169 219.642 211.434C220.234 211.766 220.901 210.837 220.301 210.439Z" fill="#477C9D"/>
<path fill-rule="evenodd" clip-rule="evenodd" d="M223.538 203.007C224.468 202.079 225.391 201.15 226.247 200.287C226.775 199.757 226.05 198.894 225.522 199.425C224.599 200.353 223.67 201.282 222.812 202.145C222.285 202.609 223.011 203.539 223.538 203.007Z" fill="#477C9D"/>
<path fill-rule="evenodd" clip-rule="evenodd" d="M224.731 216.543C224.072 215.813 223.406 215.083 222.681 214.287C222.219 213.756 221.296 214.486 221.824 215.017C222.483 215.747 223.142 216.477 223.867 217.273C224.335 217.87 225.258 217.14 224.731 216.543Z" fill="#477C9D"/>
<path fill-rule="evenodd" clip-rule="evenodd" d="M210.26 204.268C209.6 203.87 208.941 203.406 208.282 203.008C208.077 202.875 207.814 202.742 207.616 202.676C207.551 202.543 207.484 202.411 207.286 202.344C207.089 202.278 206.891 202.211 206.759 202.278C206.495 202.344 206.297 202.543 206.297 202.809C206.232 203.406 207.089 203.671 207.484 203.87C208.282 204.268 208.941 204.733 209.667 205.197C210.194 205.529 210.919 204.6 210.26 204.268Z" fill="#477C9D"/>
<path fill-rule="evenodd" clip-rule="evenodd" d="M208.611 208.05C207.551 208.05 206.562 208.315 205.638 208.647C204.972 208.913 205.44 209.974 206.1 209.709C206.957 209.377 207.88 209.178 208.81 209.178C209.534 209.178 209.337 208.05 208.611 208.05Z" fill="#477C9D"/>
<path fill-rule="evenodd" clip-rule="evenodd" d="M206.957 203.074C207.418 202.145 206.957 201.15 206.495 200.353C206.166 199.69 205.111 200.155 205.441 200.818C205.705 201.283 206.1 201.814 205.968 202.411C205.902 202.675 205.705 203.074 205.375 202.941C204.709 202.675 204.247 203.738 204.979 204.002C205.836 204.268 206.627 203.804 206.957 203.074Z" fill="#477C9D"/>
<path fill-rule="evenodd" clip-rule="evenodd" d="M227.573 199.69C227.243 199.823 226.709 200.022 226.379 199.757C226.247 199.624 226.182 199.425 226.314 199.358C226.577 199.226 226.577 198.762 226.379 198.563C226.182 198.297 225.852 198.297 225.588 198.496C224.863 198.96 224.995 199.955 225.457 200.486C226.116 201.217 227.177 201.017 228.034 200.752C228.76 200.486 228.298 199.425 227.573 199.69Z" fill="#477C9D"/>
<path fill-rule="evenodd" clip-rule="evenodd" d="M224.731 218.401C224.533 217.936 224.929 217.405 225.39 217.671C225.984 218.069 226.709 217.141 226.05 216.742C225.457 216.344 224.665 216.344 224.072 216.809C223.472 217.273 223.341 218.136 223.67 218.799C224.006 219.529 225.061 219.064 224.731 218.401Z" fill="#477C9D"/>
<path fill-rule="evenodd" clip-rule="evenodd" d="M204.979 211.102C205.572 210.704 206.1 210.041 205.902 209.311C205.705 208.581 204.841 208.183 204.181 208.647C203.918 208.847 203.918 209.244 204.115 209.443C204.313 209.642 204.511 209.709 204.775 209.576V209.642V209.709C204.643 209.908 204.445 210.107 204.247 210.24C203.984 210.439 203.984 210.837 204.181 211.036C204.379 211.301 204.709 211.301 204.979 211.102Z" fill="#477C9D"/>
<path fill-rule="evenodd" clip-rule="evenodd" d="M212.574 218.599C213.234 217.671 212.772 216.277 211.585 216.078C211.051 216.013 210.524 216.145 210.128 216.543C209.667 217.008 209.996 217.737 210.656 217.737C210.919 217.737 211.051 217.538 211.117 217.34C211.519 217.206 211.915 217.604 211.651 218.003C211.256 218.533 212.178 219.197 212.574 218.599Z" fill="#477C9D"/>
<path fill-rule="evenodd" clip-rule="evenodd" d="M220.367 202.477C220.433 202.145 220.367 201.88 220.037 201.747C219.774 201.614 219.378 201.747 219.312 202.079C219.246 202.344 218.916 202.544 218.652 202.41C218.257 202.212 218.323 201.614 218.521 201.349C218.916 200.752 217.993 200.088 217.591 200.685C216.998 201.549 217.064 202.876 218.059 203.406C218.85 203.871 220.103 203.472 220.367 202.477Z" fill="#477C9D"/>
<path fill-rule="evenodd" clip-rule="evenodd" d="M213.102 210.24L214.756 209.908C215.481 209.775 215.284 208.647 214.559 208.78C213.959 208.913 213.431 208.979 212.838 209.112C212.376 208.382 211.256 208.05 210.458 207.851C209.733 207.652 209.337 208.714 210.062 208.913C210.524 209.045 211.783 209.311 211.981 209.842C212.179 210.505 211.256 210.97 210.788 211.235C210.194 211.633 210.919 212.496 211.519 212.098C212.245 211.633 212.97 211.036 213.102 210.24Z" fill="#477C9D"/>
<path fill-rule="evenodd" clip-rule="evenodd" d="M217.796 205.131C218.323 204.666 218.718 204.069 218.982 203.406C219.245 202.676 218.125 202.278 217.927 203.008C217.729 203.472 217.459 203.936 217.064 204.268C216.536 204.733 217.261 205.662 217.796 205.131Z" fill="#477C9D"/>
<path fill-rule="evenodd" clip-rule="evenodd" d="M228.1 209.576C227.771 209.377 227.374 209.045 227.441 208.581C227.441 208.316 227.704 207.984 227.968 207.984C228.693 208.05 228.825 206.856 228.1 206.856C227.374 206.79 226.709 207.254 226.445 207.918C225.786 207.785 225.061 207.851 224.402 208.05C224.138 208.117 224.006 208.581 224.138 208.78C224.269 209.112 224.599 209.178 224.863 209.045C225.325 208.913 225.852 208.913 226.379 208.979C226.577 209.643 227.111 210.173 227.771 210.505C228.363 210.97 228.759 209.908 228.1 209.576Z" fill="#477C9D"/>
<path fill-rule="evenodd" clip-rule="evenodd" d="M222.549 198.231C223.011 197.634 222.088 196.97 221.626 197.567C221.231 198.098 220.366 197.832 220.366 197.169C220.433 196.439 219.245 196.307 219.245 197.036C219.18 197.832 219.642 198.629 220.433 198.961C221.231 199.226 222.088 198.894 222.549 198.231Z" fill="#477C9D"/>
<path fill-rule="evenodd" clip-rule="evenodd" d="M213.893 202.742C213.563 201.88 213.035 201.084 212.376 200.42C212.574 199.823 212.442 199.093 212.311 198.496C212.113 197.766 210.985 197.965 211.183 198.694C211.315 199.093 211.519 199.757 211.248 200.221C211.117 200.42 210.788 200.619 210.656 200.42C210.26 199.823 209.337 200.553 209.799 201.15C210.26 201.814 211.117 201.814 211.717 201.415C212.178 201.946 212.574 202.543 212.837 203.273C213.102 203.87 214.156 203.406 213.893 202.742Z" fill="#477C9D"/>
<path fill-rule="evenodd" clip-rule="evenodd" d="M217.261 218.136C217.129 217.339 216.47 216.676 215.68 216.609C214.888 216.543 214.09 217.073 213.893 217.804C213.629 218.534 214.756 218.931 214.954 218.202C215.152 217.604 216.009 217.604 216.141 218.268C216.272 219.064 217.393 218.865 217.261 218.136Z" fill="#477C9D"/>
<path fill-rule="evenodd" clip-rule="evenodd" d="M217.861 164.658C210.26 176.866 196.125 180.781 183.902 173.15C171.679 165.52 165.996 148.469 173.993 136.459C183.902 121.663 198.235 121.199 210.458 128.829C222.681 136.459 225.522 152.383 217.861 164.658Z" fill="#A9D9DB"/>
<path fill-rule="evenodd" clip-rule="evenodd" d="M191.629 128.63C191.233 126.441 191.101 124.318 191.167 122.128C191.167 121.398 190.047 121.332 190.047 122.062C189.98 124.384 190.178 126.64 190.574 128.896C190.64 129.625 191.76 129.36 191.629 128.63Z" fill="#69C5B0"/>
<path fill-rule="evenodd" clip-rule="evenodd" d="M186.216 140.109C185.748 139.644 185.352 139.18 185.023 138.649C184.825 138.383 184.561 138.251 184.232 138.383C183.968 138.516 183.836 138.914 183.968 139.18C184.363 139.777 184.825 140.374 185.352 140.838C185.886 141.435 186.743 140.639 186.216 140.109Z" fill="#7A86C1"/>
<path fill-rule="evenodd" clip-rule="evenodd" d="M182.649 149.928C181.192 149.995 179.742 149.862 178.351 149.53C177.625 149.398 177.296 150.459 178.021 150.658C179.544 150.99 181.06 151.189 182.649 151.123C183.308 151.056 183.375 149.928 182.649 149.928Z" fill="#7A86C1"/>
<path fill-rule="evenodd" clip-rule="evenodd" d="M172.998 158.886C171.612 159.35 170.294 159.947 168.969 160.544C168.31 160.876 168.837 161.871 169.496 161.54C170.756 160.942 172.009 160.412 173.268 159.947C173.927 159.748 173.663 158.62 172.998 158.886Z" fill="#477C9D"/>
<path fill-rule="evenodd" clip-rule="evenodd" d="M217.525 130.09C215.811 131.616 214.09 133.208 212.31 134.734C211.783 135.199 212.508 136.061 213.102 135.597C214.822 134.071 216.536 132.479 218.323 130.953C218.85 130.422 218.125 129.559 217.525 130.09Z" fill="#477C9D"/>
<path fill-rule="evenodd" clip-rule="evenodd" d="M206.957 177.53C206.495 176.402 205.968 175.34 205.309 174.345C204.913 173.748 203.918 174.279 204.313 174.876C204.979 175.871 205.506 176.999 205.968 178.061C206.232 178.79 207.287 178.193 206.957 177.53Z" fill="#477C9D"/>
<path fill-rule="evenodd" clip-rule="evenodd" d="M192.69 120.735C192.953 120.071 191.826 119.739 191.563 120.403C191.299 121.066 190.507 120.867 190.244 120.337C189.981 119.673 188.919 120.204 189.255 120.867C189.518 121.597 190.244 122.062 191.035 121.995C191.826 121.995 192.427 121.465 192.69 120.735Z" fill="#477C9D"/>
<path fill-rule="evenodd" clip-rule="evenodd" d="M219.905 130.024C219.509 130.09 218.323 129.957 218.718 129.227C219.048 128.564 218.126 127.967 217.729 128.63C217.328 129.294 217.459 130.09 217.994 130.621C218.52 131.218 219.377 131.284 220.169 131.085C220.901 130.953 220.631 129.891 219.905 130.024Z" fill="#477C9D"/>
<path fill-rule="evenodd" clip-rule="evenodd" d="M169.76 161.009C169.233 160.08 167.585 159.748 166.655 159.615C165.93 159.482 165.93 160.677 166.589 160.743C166.991 160.809 167.321 160.876 167.651 161.009C167.914 161.075 168.574 161.274 168.64 161.539C168.706 161.738 168.508 162.269 168.376 162.468C168.244 162.866 168.046 163.198 167.783 163.596C167.387 164.193 168.376 164.857 168.771 164.193C169.365 163.463 170.294 161.937 169.76 161.009Z" fill="#477C9D"/>
<path fill-rule="evenodd" clip-rule="evenodd" d="M207.353 179.056C207.484 179.122 207.616 179.188 207.748 179.255C208.414 179.52 208.743 178.458 208.078 178.127C207.616 177.928 207.419 177.53 206.891 177.53C206.43 177.53 206.034 177.861 205.902 178.259C205.506 179.188 205.441 180.25 205.638 181.312C205.771 182.041 206.891 181.776 206.76 181.046C206.627 180.449 206.694 179.852 206.825 179.255C206.825 179.122 206.891 178.989 206.957 178.857C207.023 178.658 206.825 178.724 207.089 178.724C207.089 178.79 207.221 178.989 207.353 179.056Z" fill="#477C9D"/>
<path fill-rule="evenodd" clip-rule="evenodd" d="M223.472 156.165C223.142 156.032 222.879 155.833 222.615 155.568C222.483 155.435 222.153 155.17 222.153 154.971C222.153 154.772 222.549 154.573 222.747 154.506C223.011 154.307 223.274 154.241 223.604 154.175C224.336 153.976 224.072 152.914 223.341 153.047C222.483 153.246 221.231 153.843 221.033 154.838C220.835 155.9 222.022 156.762 222.812 157.16C223.538 157.492 224.138 156.497 223.472 156.165Z" fill="#477C9D"/>
<path fill-rule="evenodd" clip-rule="evenodd" d="M185.154 138.251V136.128C185.154 135.398 184.034 135.331 184.034 136.061V137.322V137.919V138.251C184.034 138.384 184.034 138.384 183.968 138.317C183.77 138.384 183.111 138.052 182.913 137.985C182.511 137.786 182.116 137.587 181.719 137.322C181.127 136.924 180.467 137.919 181.127 138.317C181.654 138.649 182.248 138.981 182.847 139.18C183.375 139.379 183.968 139.578 184.495 139.445C185.023 139.18 185.154 138.715 185.154 138.251Z" fill="#477C9D"/>
<path fill-rule="evenodd" clip-rule="evenodd" d="M211.321 145.616C210.656 145.682 209.996 145.682 209.403 145.549C208.875 145.483 207.484 145.218 207.353 144.554C207.221 143.957 207.88 143.161 208.216 142.763C208.678 142.166 209.205 141.568 209.667 140.905C210.062 140.308 209.073 139.644 208.678 140.308C208.018 141.369 206.232 142.895 206.166 144.355C206.1 144.421 206.034 144.488 206.034 144.554C205.902 144.554 205.441 144.82 205.375 144.886C205.177 145.019 204.913 145.151 204.709 145.218C204.181 145.483 203.654 145.748 203.127 146.08C202.467 146.412 202.995 147.473 203.654 147.075C204.379 146.677 205.111 146.346 205.836 145.947C206.1 145.815 206.364 145.682 206.627 145.549C207.089 146.014 207.814 146.279 208.414 146.412C209.403 146.677 210.392 146.744 211.387 146.677C211.981 146.677 212.047 145.549 211.321 145.616Z" fill="#477C9D"/>
<path fill-rule="evenodd" clip-rule="evenodd" d="M201.076 132.744C201.472 132.081 200.483 131.483 200.087 132.147C199.824 132.611 199.296 133.208 198.703 133.275C197.839 133.341 197.707 132.213 197.575 131.616C197.444 130.886 196.323 131.152 196.455 131.881C196.586 132.678 196.916 133.673 197.641 134.137C197.509 135 197.312 135.796 196.916 136.592C196.586 137.256 197.575 137.853 197.905 137.189C198.301 136.327 198.571 135.398 198.769 134.403C199.692 134.336 200.615 133.54 201.076 132.744Z" fill="#477C9D"/>
<path fill-rule="evenodd" clip-rule="evenodd" d="M194.272 153.909C194.8 153.379 195.4 152.914 195.928 152.383C196.455 151.919 195.729 151.056 195.13 151.521C194.536 152.052 193.943 152.582 193.35 153.113C192.361 152.649 191.101 153.246 190.047 153.578C189.321 153.777 189.585 154.905 190.31 154.706C191.101 154.44 192.361 153.777 193.085 154.374C193.943 155.037 193.811 156.298 193.35 157.094C192.954 157.758 193.943 158.355 194.339 157.691C194.998 156.563 195.063 155.037 194.272 153.909Z" fill="#477C9D"/>
<path fill-rule="evenodd" clip-rule="evenodd" d="M206.1 164.791C205.638 164.326 205.111 163.862 204.445 163.862C204.445 163.795 204.379 163.729 204.313 163.663C204.181 163.464 204.05 163.198 204.05 162.999C204.05 162.269 202.863 162.203 202.928 162.933C202.928 163.464 203.127 163.928 203.39 164.326C202.995 164.857 202.995 165.653 203.061 166.317C203.193 167.046 204.247 166.781 204.181 166.051C204.116 165.786 203.984 164.99 204.445 164.99C204.709 164.99 205.045 165.388 205.243 165.587C205.77 166.118 206.627 165.321 206.1 164.791Z" fill="#477C9D"/>
<path fill-rule="evenodd" clip-rule="evenodd" d="M185.418 159.284C185.82 158.819 186.15 158.288 186.546 157.824C187.007 157.227 186.018 156.63 185.55 157.227C185.221 157.691 184.891 158.156 184.495 158.62C184.1 158.421 183.572 158.421 183.111 158.554C182.379 158.753 182.649 159.881 183.375 159.682C184.298 159.416 185.023 160.213 184.693 161.075C184.429 161.739 185.484 162.07 185.82 161.407C186.018 160.677 185.886 159.881 185.418 159.284Z" fill="#477C9D"/>
<path fill-rule="evenodd" clip-rule="evenodd" d="M216.8 159.549C216.537 159.284 216.207 158.952 216.14 158.554C216.009 158.089 216.537 157.89 216.932 157.957C217.664 158.156 217.994 157.028 217.261 156.829C216.537 156.63 215.745 156.895 215.283 157.492C215.218 157.492 215.218 157.426 215.152 157.426C214.756 157.36 214.288 157.293 213.893 157.094C213.629 156.961 213.299 157.028 213.102 157.293C212.969 157.559 213.035 157.957 213.299 158.089C213.826 158.355 214.426 158.554 215.02 158.554C215.086 159.217 215.548 159.814 216.009 160.279C216.47 160.876 217.328 160.08 216.8 159.549Z" fill="#477C9D"/>
<path fill-rule="evenodd" clip-rule="evenodd" d="M222.483 146.279C221.955 146.478 221.296 146.213 221.033 145.682C220.769 145.151 221.164 144.421 221.758 144.222C222.483 144.023 222.22 142.895 221.494 143.094C220.301 143.493 219.575 144.753 219.905 145.947C220.235 147.075 221.56 147.739 222.681 147.407C223.472 147.208 223.209 146.08 222.483 146.279Z" fill="#477C9D"/>
<path fill-rule="evenodd" clip-rule="evenodd" d="M220.703 145.947C220.631 145.682 220.301 145.417 220.037 145.549C219.509 145.748 218.916 145.881 218.389 146.08C218.125 146.146 217.861 146.478 217.994 146.744C218.059 147.009 218.389 147.274 218.653 147.142C219.18 146.943 219.774 146.81 220.301 146.611C220.564 146.545 220.769 146.279 220.703 145.947Z" fill="#477C9D"/>
<path fill-rule="evenodd" clip-rule="evenodd" d="M178.087 149.862C177.889 148.8 176.966 147.871 175.839 147.938C175.114 148.004 175.048 149.132 175.773 149.066C176.373 149.066 176.9 149.53 176.966 150.127C177.032 150.857 176.505 151.454 175.905 151.786C175.246 152.184 175.773 153.179 176.439 152.781C177.494 152.184 178.351 151.056 178.087 149.862Z" fill="#477C9D"/>
<path fill-rule="evenodd" clip-rule="evenodd" d="M192.493 169.17C192.559 169.103 192.624 169.103 192.624 169.037L194.47 166.118C194.866 165.52 193.877 164.857 193.482 165.52L191.628 168.44C191.496 168.639 191.496 168.772 191.563 168.904C190.574 168.772 189.519 169.369 188.985 170.231C188.589 170.828 189.585 171.492 189.98 170.828C190.31 170.298 190.969 169.9 191.563 170.032C192.229 170.165 192.624 171.094 192.09 171.558C191.563 172.089 192.361 172.952 192.888 172.421C193.877 171.492 193.679 169.833 192.493 169.17Z" fill="#477C9D"/>
<path fill-rule="evenodd" clip-rule="evenodd" d="M183.045 171.425C183.704 170.696 184.364 169.899 185.089 169.17C185.55 168.639 184.825 167.776 184.297 168.307C183.573 169.103 182.847 169.899 182.181 170.696C182.116 170.762 182.116 170.828 182.116 170.828C181.39 170.563 180.533 170.563 179.741 170.961C179.076 171.293 179.61 172.288 180.27 171.956C181.918 171.094 183.441 172.752 182.781 174.411C182.51 175.075 183.573 175.406 183.902 174.743C184.364 173.482 183.902 172.222 183.045 171.425Z" fill="#477C9D"/>
<path fill-rule="evenodd" clip-rule="evenodd" d="M215.02 168.904C214.492 168.971 214.024 168.573 213.497 168.374C213.035 168.241 212.442 168.307 212.046 168.639C211.183 169.302 211.322 170.696 211.519 171.625C211.716 172.354 212.837 172.089 212.64 171.359C212.508 170.895 212.178 169.369 213.035 169.435C213.694 169.501 214.156 170.032 214.888 169.966C215.679 170.032 215.745 168.838 215.02 168.904Z" fill="#477C9D"/>
<path fill-rule="evenodd" clip-rule="evenodd" d="M182.584 126.839C182.313 126.175 181.258 126.374 181.456 127.104C181.852 128.298 180.533 129.227 179.61 128.365C179.076 127.9 178.219 128.63 178.747 129.161C179.544 129.891 180.73 130.09 181.654 129.493C182.511 128.895 182.913 127.834 182.584 126.839Z" fill="#477C9D"/>
<path fill-rule="evenodd" clip-rule="evenodd" d="M182.847 130.09C182.577 129.626 182.248 129.161 181.983 128.63C181.588 127.967 180.599 128.498 180.994 129.161C181.259 129.626 181.588 130.09 181.851 130.621C182.181 131.284 183.176 130.754 182.847 130.09Z" fill="#477C9D"/>
<path fill-rule="evenodd" clip-rule="evenodd" d="M209.139 126.64C208.414 127.9 206.562 126.772 207.353 125.512C207.748 124.848 206.759 124.318 206.364 124.915C205.771 125.91 206.034 127.37 207.089 128.033C208.151 128.63 209.535 128.232 210.128 127.171C210.524 126.64 209.535 126.043 209.139 126.64Z" fill="#477C9D"/>
<path fill-rule="evenodd" clip-rule="evenodd" d="M190.64 211.633C185.352 220.126 175.509 222.846 167.057 217.538C158.599 212.23 154.636 200.42 160.181 192.06C167.057 181.776 177.032 181.444 185.484 186.752C193.943 192.127 195.927 203.14 190.64 211.633Z" fill="#8CCDD1"/>
<path fill-rule="evenodd" clip-rule="evenodd" d="M162.166 187.747C161.77 187.084 160.847 187.681 161.177 188.344C161.506 188.942 162.099 189.937 161.506 190.534C161.045 190.933 160.313 190.866 159.72 190.866C158.994 190.8 158.994 191.928 159.72 191.993C160.715 192.06 161.902 191.993 162.495 191.132C163.286 190.003 162.758 188.742 162.166 187.747Z" fill="#69C5B0"/>
<path fill-rule="evenodd" clip-rule="evenodd" d="M181.851 180.781C181.192 181.113 180.27 180.582 180.203 179.852C180.137 179.122 178.944 179.122 179.076 179.852C179.142 180.449 179.406 180.913 179.808 181.312C179.611 182.174 179.406 183.037 179.208 183.899C179.076 184.629 180.137 184.894 180.335 184.231C180.533 183.435 180.665 182.705 180.863 181.909C181.39 182.041 181.983 182.041 182.511 181.776C183.111 181.511 182.511 180.515 181.851 180.781Z" fill="#477C9D"/>
<path fill-rule="evenodd" clip-rule="evenodd" d="M195.327 196.041C194.602 195.974 194.272 195.113 194.866 194.647C195.466 194.25 194.866 193.255 194.272 193.652C193.679 194.117 193.415 194.781 193.415 195.377C192.822 195.776 192.156 196.173 191.496 196.44C190.837 196.704 191.101 197.832 191.826 197.567C192.558 197.301 193.218 196.97 193.877 196.505C194.207 196.904 194.668 197.169 195.327 197.236C196.125 197.236 196.125 196.041 195.327 196.041Z" fill="#477C9D"/>
<path fill-rule="evenodd" clip-rule="evenodd" d="M185.286 219.661C184.891 218.599 183.638 217.87 182.577 218.467C181.588 218.998 181.39 220.391 182.115 221.188C182.577 221.718 183.44 220.921 182.913 220.391C182.643 220.126 182.847 219.594 183.111 219.462C183.506 219.263 184.034 219.594 184.166 219.993C184.429 220.657 185.55 220.391 185.286 219.661Z" fill="#477C9D"/>
<path fill-rule="evenodd" clip-rule="evenodd" d="M166.926 216.078C165.996 216.941 165.139 217.87 164.413 218.931C163.82 218.468 163.023 218.468 162.429 218.799C161.77 219.131 162.363 220.126 163.023 219.795C163.615 219.463 164.216 220.126 163.886 220.723C163.55 221.386 164.546 221.917 164.875 221.32C165.139 220.856 165.205 220.325 165.072 219.86C165.205 219.795 165.271 219.728 165.337 219.661C165.996 218.666 166.787 217.737 167.717 216.875C168.31 216.41 167.453 215.614 166.926 216.078Z" fill="#477C9D"/>
<path fill-rule="evenodd" clip-rule="evenodd" d="M160.649 208.183C159.983 207.254 158.731 207.188 157.676 207.32C157.346 207.387 157.208 207.784 157.273 208.05C157.346 208.382 157.676 208.515 158.005 208.448C158.533 208.382 159.324 208.382 159.72 208.78C160.05 209.111 160.05 209.577 159.72 209.842C159.126 210.306 159.983 211.102 160.511 210.637C161.242 210.107 161.177 208.913 160.649 208.183Z" fill="#477C9D"/>
<path fill-rule="evenodd" clip-rule="evenodd" d="M166.926 197.501C166.326 197.169 165.864 196.771 165.337 196.306C165.469 195.643 165.139 194.914 164.546 194.582C163.952 194.183 163.352 195.178 163.952 195.577C164.083 195.643 164.216 195.842 164.216 196.041C164.083 196.174 164.018 196.306 164.018 196.439C163.82 196.638 163.484 196.572 163.286 196.373C163.023 196.174 162.626 196.306 162.495 196.572C162.297 196.837 162.429 197.169 162.693 197.368C163.286 197.832 164.15 197.766 164.743 197.302C165.205 197.766 165.798 198.164 166.326 198.496C166.992 198.895 167.518 197.899 166.926 197.501Z" fill="#477C9D"/>
<path fill-rule="evenodd" clip-rule="evenodd" d="M178.944 189.87C178.746 190.202 178.417 190.335 178.154 190.335C178.022 190.136 177.824 190.069 177.559 190.069C177.296 189.87 177.165 189.472 177.296 189.074C177.494 188.344 176.367 188.079 176.168 188.742C175.905 189.539 176.168 190.468 176.835 190.998C176.571 191.596 176.367 192.193 176.102 192.79C175.839 193.453 176.966 193.785 177.23 193.122C177.428 192.591 177.692 192.06 177.889 191.529C178.681 191.596 179.472 191.197 179.94 190.534C180.335 189.87 179.34 189.274 178.944 189.87Z" fill="#477C9D"/>
<path fill-rule="evenodd" clip-rule="evenodd" d="M181.588 202.544C181.06 202.079 180.336 201.615 179.676 201.747C179.676 201.68 179.61 201.615 179.544 201.548C179.076 201.017 178.614 200.553 178.219 200.022C177.757 199.491 176.901 200.288 177.427 200.818C177.89 201.349 178.284 201.813 178.746 202.344C178.153 203.074 178.351 204.135 178.681 204.932C178.944 205.596 180.071 205.33 179.808 204.6C179.61 204.135 179.34 203.539 179.61 203.074C179.873 202.544 180.533 203.074 180.797 203.339C181.324 203.803 182.181 203.007 181.588 202.544Z" fill="#477C9D"/>
<path fill-rule="evenodd" clip-rule="evenodd" d="M172.272 211.898C172.206 211.898 172.206 211.832 172.272 211.832C172.602 211.036 172.931 210.306 173.268 209.51C173.4 209.245 173.13 208.913 172.865 208.78C172.536 208.714 172.272 208.913 172.141 209.178C171.811 209.974 171.481 210.704 171.152 211.5C171.085 211.633 171.152 211.766 171.217 211.898C170.558 212.098 170.031 212.695 169.958 213.425C169.893 214.154 171.02 214.154 171.085 213.425C171.152 213.026 171.745 212.827 172.074 213.026C172.536 213.225 172.668 213.889 172.602 214.353C172.47 215.083 173.598 215.415 173.73 214.685C173.927 213.624 173.531 212.23 172.272 211.898Z" fill="#477C9D"/>
<path fill-rule="evenodd" clip-rule="evenodd" d="M186.546 210.638C185.952 210.174 185.023 210.107 184.297 210.506L183.243 209.378C182.715 208.847 181.917 209.642 182.445 210.174C182.847 210.571 183.243 210.969 183.572 211.368C183.309 211.965 183.44 212.695 183.902 213.225C184.363 213.823 185.155 212.96 184.693 212.429C184.495 212.164 184.561 211.766 184.825 211.566C185.155 211.301 185.682 211.434 186.018 211.7C186.282 211.898 186.677 211.766 186.809 211.501C186.875 211.102 186.743 210.837 186.546 210.638Z" fill="#477C9D"/>
<path fill-rule="evenodd" clip-rule="evenodd" d="M188.787 196.837C188.589 197.036 188.259 196.704 188.259 196.505C188.128 196.041 188.656 195.51 188.985 195.245C189.585 194.78 188.721 193.984 188.194 194.449C187.6 194.914 187.073 195.776 187.139 196.572C187.007 196.572 186.875 196.638 186.81 196.704C186.48 196.97 186.15 197.236 185.887 197.501C185.616 197.7 185.682 198.098 185.887 198.297C186.15 198.563 186.48 198.496 186.678 198.297C187.007 198.031 187.337 197.766 187.6 197.501C188.128 198.031 189.058 198.164 189.651 197.568C190.113 197.102 189.321 196.306 188.787 196.837Z" fill="#477C9D"/>
<path fill-rule="evenodd" clip-rule="evenodd" d="M193.218 208.515C193.877 208.847 194.47 207.851 193.811 207.52C192.954 207.055 191.761 207.453 191.497 208.448C191.233 209.443 192.09 210.572 193.152 210.505C193.877 210.438 193.877 209.31 193.152 209.377C192.888 209.377 192.492 209.111 192.624 208.78C192.624 208.515 192.954 208.382 193.218 208.515Z" fill="#477C9D"/>
<path fill-rule="evenodd" clip-rule="evenodd" d="M172.8 183.037C172.733 182.705 172.338 182.572 172.074 182.638C171.744 182.705 171.613 183.037 171.679 183.368C171.744 183.965 171.02 184.098 170.755 183.634C170.361 183.037 169.365 183.567 169.761 184.231C170.163 184.894 171.02 185.292 171.811 184.961C172.601 184.629 172.931 183.833 172.8 183.037Z" fill="#477C9D"/>
<path fill-rule="evenodd" clip-rule="evenodd" d="M172.734 90.5459C170.228 89.3516 169.233 86.6976 170.426 84.2427C171.613 81.7214 174.784 80.3281 177.165 81.5887C180.203 83.1811 180.533 85.9014 179.34 88.4227C178.154 90.8776 175.179 91.7401 172.734 90.5459Z" fill="#A9D9DB"/>
<path fill-rule="evenodd" clip-rule="evenodd" d="M172.536 81.7876C172.338 81.0578 171.283 81.3895 171.415 82.1194V82.1857C171.415 82.1857 171.349 82.2521 171.283 82.3184C171.283 82.3184 171.217 82.3848 171.151 82.3848H171.085C170.492 81.9867 169.892 82.9819 170.492 83.38C171.547 83.8445 172.8 82.8492 172.536 81.7876Z" fill="#69C5B0"/>
<path fill-rule="evenodd" clip-rule="evenodd" d="M179.406 89.9488C178.746 89.418 177.757 88.9535 176.966 89.4843C176.3 89.9488 176.037 90.8113 176.571 91.4748C177.032 92.072 177.824 91.2094 177.362 90.6786C177.428 90.745 177.362 90.6786 177.428 90.5459C177.494 90.4796 177.56 90.4132 177.691 90.4132C178.087 90.4132 178.483 90.745 178.813 90.944C179.406 91.3421 180.006 90.3469 179.406 89.9488Z" fill="#69C5B0"/>
<path fill-rule="evenodd" clip-rule="evenodd" d="M180.467 83.9109C180.269 83.9773 179.94 83.9773 179.808 83.7119C179.676 83.5128 179.808 83.2474 180.006 83.1147C180.599 82.7167 180.071 81.7214 179.406 82.1195C178.747 82.584 178.417 83.4465 178.812 84.1763C179.142 84.9062 180.071 85.2379 180.797 84.9725C181.456 84.7735 181.192 83.6455 180.467 83.9109Z" fill="#69C5B0"/>
<path fill-rule="evenodd" clip-rule="evenodd" d="M175.905 82.3847C175.838 82.053 175.312 82.1857 175.378 82.5174C175.444 82.8491 175.179 83.1809 174.916 83.2472C174.587 83.3136 174.323 83.0482 174.19 82.7165C174.125 82.3847 173.531 82.5174 173.664 82.8491C173.795 83.3136 174.125 83.6453 174.52 83.778C174.587 84.0434 174.652 84.3088 174.718 84.5742C174.784 84.906 175.378 84.7733 175.246 84.4415C175.179 84.2425 175.114 83.9771 175.114 83.778C175.707 83.6453 176.037 82.9818 175.905 82.3847Z" fill="#7A86C1"/>
<path fill-rule="evenodd" clip-rule="evenodd" d="M173.993 85.9678C173.597 85.7688 173.136 85.7024 172.734 85.7688C172.47 85.5034 172.074 85.437 171.745 85.5034C171.415 85.5697 171.547 86.1669 171.877 86.0342C172.008 85.9678 172.14 86.0342 172.272 86.1005C172.272 86.2332 172.338 86.2996 172.47 86.3659C172.602 86.6313 172.47 86.9631 172.14 87.0958C171.811 87.2285 172.074 87.7593 172.404 87.5602C172.866 87.3612 173.136 86.8304 172.997 86.2996C173.202 86.2996 173.465 86.3659 173.663 86.4323C174.06 86.6313 174.323 86.1669 173.993 85.9678Z" fill="#7A86C1"/>
<path fill-rule="evenodd" clip-rule="evenodd" d="M177.362 87.2284C176.966 86.963 176.505 86.8303 175.971 86.8303L175.707 85.9014C175.641 85.5697 175.048 85.7024 175.179 86.0341C175.246 86.3659 175.378 86.6313 175.444 86.963C175.444 87.0294 175.509 87.0957 175.575 87.162C175.509 87.5601 175.444 87.9582 175.378 88.3563C175.312 88.6881 175.838 88.8871 175.905 88.489L176.103 87.3611C176.439 87.4274 176.769 87.4938 177.032 87.6928C177.428 87.8919 177.692 87.4274 177.362 87.2284Z" fill="#7A86C1"/>
<path fill-rule="evenodd" clip-rule="evenodd" d="M179.676 86.9631C179.874 87.2948 180.335 86.9631 180.203 86.6977C179.94 86.2332 179.274 86.3659 179.076 86.8304C178.746 87.4275 179.34 87.9583 179.742 88.2237C180.072 88.4227 180.335 87.9583 180.006 87.7593C179.874 87.6266 179.544 87.4275 179.544 87.2285C179.544 87.1621 179.544 87.0958 179.61 87.0958C179.61 87.0294 179.61 86.9631 179.676 86.9631Z" fill="#7A86C1"/>
<path fill-rule="evenodd" clip-rule="evenodd" d="M172.866 90.8776C172.8 90.5459 172.734 90.2805 172.734 89.9487C172.734 89.7497 172.536 89.617 172.404 89.6833C171.943 89.816 171.547 90.0151 171.085 90.1478C170.756 90.2805 170.888 90.8113 171.217 90.6786C171.547 90.5459 171.877 90.4132 172.206 90.3468C172.206 90.5459 172.272 90.8113 172.338 91.0103C172.404 91.342 172.931 91.2093 172.866 90.8776Z" fill="#477C9D"/>
<path fill-rule="evenodd" clip-rule="evenodd" d="M177.296 80.5271C176.9 81.1906 176.037 80.9915 175.839 80.2617C175.773 79.9299 175.246 80.0626 175.311 80.3944C175.576 81.655 177.165 81.854 177.757 80.7925C177.955 80.5271 177.494 80.1953 177.296 80.5271Z" fill="#7A86C1"/>
<path fill-rule="evenodd" clip-rule="evenodd" d="M152.19 148.933C149.152 147.473 147.965 144.222 149.415 141.237C150.865 138.185 154.703 136.459 157.676 138.052C161.308 139.976 161.77 143.36 160.313 146.346C158.862 149.331 155.23 150.393 152.19 148.933Z" fill="#A9D9DB"/>
<path fill-rule="evenodd" clip-rule="evenodd" d="M156.416 151.189C156.746 151.056 156.813 150.791 156.746 150.459L156.153 147.672C156.087 147.341 155.691 147.208 155.427 147.341C155.098 147.473 155.032 147.739 155.098 148.071C155.296 148.999 155.494 149.928 155.691 150.857C155.757 151.189 156.153 151.322 156.416 151.189Z" fill="#477C9D"/>
<path fill-rule="evenodd" clip-rule="evenodd" d="M150.14 143.426C150.8 143.691 151.334 142.696 150.668 142.364C149.679 141.966 148.69 141.568 147.628 141.17C146.969 140.905 146.442 141.9 147.101 142.232C148.163 142.63 149.151 143.028 150.14 143.426Z" fill="#477C9D"/>
<path fill-rule="evenodd" clip-rule="evenodd" d="M158.665 142.762H161.836C162.561 142.762 162.496 141.635 161.77 141.635H158.599C157.874 141.635 157.939 142.762 158.665 142.762Z" fill="#477C9D"/>
<path fill-rule="evenodd" clip-rule="evenodd" d="M162.363 143.492C163.089 143.625 163.286 142.497 162.561 142.364C162.429 142.364 162.363 142.165 162.495 142.099C162.759 141.966 162.956 141.701 162.825 141.369C162.759 141.104 162.363 140.905 162.1 141.037C161.572 141.237 161.177 141.767 161.243 142.364C161.374 142.895 161.836 143.36 162.363 143.492Z" fill="#477C9D"/>
<path fill-rule="evenodd" clip-rule="evenodd" d="M155.691 152.516C155.823 152.251 155.954 152.052 156.087 151.786C156.153 151.72 156.219 151.587 156.219 151.521C156.284 151.653 156.351 151.786 156.483 151.919C156.943 152.516 157.874 151.852 157.412 151.255C157.208 150.99 157.142 150.658 156.878 150.459C156.614 150.194 156.219 150.127 155.889 150.26C155.56 150.393 155.362 150.658 155.23 150.99C155.032 151.322 154.834 151.653 154.636 152.052C154.373 152.715 155.362 153.179 155.691 152.516Z" fill="#477C9D"/>
<path fill-rule="evenodd" clip-rule="evenodd" d="M145.914 142.497C146.508 142.497 147.365 142.431 147.767 141.966C148.426 141.369 147.694 140.639 147.365 140.109C146.969 139.511 145.98 140.109 146.442 140.772C146.574 140.905 146.639 141.104 146.771 141.237C146.705 141.237 146.639 141.237 146.574 141.303C146.376 141.369 146.112 141.369 145.914 141.369C145.123 141.369 145.189 142.497 145.914 142.497Z" fill="#477C9D"/>
<path fill-rule="evenodd" clip-rule="evenodd" d="M154.636 142.298C154.505 141.966 154.505 141.701 154.505 141.369V141.237C154.703 141.038 154.835 140.706 154.966 140.44C155.032 140.175 155.295 139.644 155.098 139.313C155.032 139.18 154.835 139.18 154.703 139.246H154.636C154.505 139.313 154.505 139.512 154.57 139.644C154.505 139.777 154.438 140.109 154.373 140.175C154.307 140.44 154.175 140.706 153.97 140.839C153.443 141.17 152.981 140.573 152.652 140.241C152.389 139.976 152.059 140.374 152.257 140.64C152.652 141.104 153.246 141.568 153.838 141.502C153.838 141.834 153.905 142.099 154.043 142.431C154.241 142.829 154.768 142.63 154.636 142.298Z" fill="#477C9D"/>
<path fill-rule="evenodd" clip-rule="evenodd" d="M158.797 146.279C159.06 146.478 159.456 146.08 159.192 145.881C158.994 145.748 158.731 145.549 158.665 145.284C158.731 145.218 158.731 145.151 158.731 145.085C158.863 144.819 159.324 144.753 159.522 144.62C159.851 144.421 159.522 143.957 159.192 144.156C158.863 144.355 158.401 144.488 158.203 144.819C157.94 144.753 157.676 144.753 157.478 144.687C157.142 144.62 157.01 145.218 157.34 145.284C157.61 145.35 157.874 145.35 158.071 145.417C158.203 145.682 158.533 146.014 158.797 146.279Z" fill="#477C9D"/>
<path fill-rule="evenodd" clip-rule="evenodd" d="M152.784 147.673C152.982 147.474 153.245 147.274 153.509 147.208C153.773 147.142 154.373 147.274 154.103 147.673C153.905 148.004 154.439 148.27 154.637 147.938C154.834 147.606 154.768 147.142 154.439 146.876C154.571 146.611 154.702 146.279 154.834 146.014C154.966 145.682 154.439 145.417 154.307 145.748C154.175 146.014 154.037 146.346 153.905 146.611C153.377 146.478 152.85 146.81 152.388 147.142C152.191 147.407 152.52 147.872 152.784 147.673Z" fill="#477C9D"/>
<path fill-rule="evenodd" clip-rule="evenodd" d="M151.201 144.753C151.465 144.819 151.729 144.886 151.993 145.018C152.322 145.151 152.587 144.687 152.257 144.488C151.927 144.355 151.598 144.222 151.268 144.156C151.201 143.824 150.865 143.492 150.47 143.426C150.141 143.36 150.008 143.957 150.338 144.023C150.47 144.023 150.667 144.156 150.667 144.355C150.667 144.421 150.602 144.62 150.47 144.554C150.141 144.355 149.876 144.886 150.206 145.085C150.602 145.217 151.004 145.085 151.201 144.753Z" fill="#477C9D"/>
<path fill-rule="evenodd" clip-rule="evenodd" d="M158.401 140.772C158.599 140.44 158.862 140.175 159.127 139.909C159.521 140.109 159.983 139.976 160.379 139.843C160.715 139.71 160.518 139.18 160.181 139.312C159.983 139.379 159.521 139.578 159.324 139.379C159.192 139.18 159.324 138.848 159.324 138.715C159.456 138.383 158.862 138.251 158.731 138.582C158.664 138.848 158.599 139.18 158.664 139.511C158.401 139.777 158.138 140.109 157.873 140.44C157.742 140.706 158.138 141.104 158.401 140.772Z" fill="#477C9D"/>
<path fill-rule="evenodd" clip-rule="evenodd" d="M154.703 136.128C154.505 136.393 154.306 136.658 154.175 136.924C154.103 136.924 154.037 136.99 154.037 136.99C153.905 136.924 153.773 136.791 153.707 136.658C153.575 136.327 153.048 136.592 153.246 136.924C153.443 137.322 153.707 137.521 154.103 137.587C154.241 137.853 154.373 138.118 154.571 138.383C154.834 138.649 155.23 138.251 154.966 137.985C154.834 137.786 154.703 137.587 154.636 137.322C154.834 136.99 155.032 136.658 155.295 136.393C155.428 136.061 154.9 135.796 154.703 136.128Z" fill="#477C9D"/>
<path fill-rule="evenodd" clip-rule="evenodd" d="M208.875 73.0297C208.216 75.9491 207.55 78.9348 206.891 81.8542C206.166 84.9726 205.441 88.1574 204.643 91.2758C203.984 93.9961 203.324 96.7164 202.598 99.4367C202.138 101.294 201.604 103.152 201.142 105.01C200.878 106.005 200.549 107.067 200.285 108.062C199.23 111.844 198.103 115.626 196.982 119.341C196.125 122.062 195.261 124.848 194.338 127.569C193.086 131.284 191.826 134.934 190.508 138.583C189.519 141.369 188.458 144.09 187.337 146.81C186.084 149.995 184.759 153.18 183.375 156.364C182.313 158.819 181.192 161.274 180.006 163.729C179.01 165.852 177.955 168.042 176.834 170.165C176.637 170.629 176.373 171.094 176.169 171.558C175.246 173.35 174.323 175.141 173.334 176.933C172.009 179.454 170.624 182.041 169.167 184.496C168.046 186.42 166.86 188.41 165.666 190.269C165.468 190.601 165.205 190.999 165.007 191.33C163.886 193.122 162.693 194.913 161.44 196.638C160.451 198.031 159.39 199.491 158.269 200.818C158.005 200.885 157.808 200.885 157.544 200.951C156.021 201.283 154.637 201.482 153.443 201.747C150.272 202.344 148.228 202.675 147.562 202.742C147.365 202.742 147.299 202.809 147.299 202.809C147.299 202.809 147.233 202.675 147.101 202.344C149.019 202.079 150.865 200.619 152.191 199.226C153.707 197.634 155.032 195.842 156.351 193.984C156.68 193.52 157.01 193.055 157.28 192.591C158.203 191.198 159.126 189.737 159.983 188.345C160.715 187.15 161.374 186.022 162.1 184.894C162.759 183.899 163.352 182.838 163.952 181.775C165.139 179.786 166.26 177.795 167.387 175.805C168.903 173.084 170.36 170.298 171.745 167.577C172.932 165.255 174.059 162.867 175.18 160.478C176.235 158.288 177.23 156.033 178.219 153.843C179.34 151.255 180.467 148.668 181.522 146.014C182.847 142.696 184.1 139.445 185.352 136.061C186.414 133.208 187.403 130.355 188.326 127.502C189.453 124.052 190.574 120.668 191.629 117.218C192.492 114.365 193.349 111.512 194.141 108.593C195.195 104.811 196.257 101.029 197.246 97.1808C198.037 94.0624 198.835 90.944 199.56 87.8256C200.219 85.1053 200.878 82.385 201.472 79.6647C202.204 76.6126 202.863 73.5605 203.522 70.4421C203.72 69.5796 203.917 68.7834 204.05 67.9208C205.77 69.5796 207.353 71.2383 208.875 73.0297Z" fill="#FCBB41"/>
<path fill-rule="evenodd" clip-rule="evenodd" d="M161.44 196.704C160.445 198.098 159.391 199.558 158.269 200.885C158.005 200.951 157.808 200.951 157.544 201.017C157.142 198.695 156.746 196.373 156.285 194.05C156.614 193.587 156.944 193.122 157.208 192.657C158.137 191.264 159.061 189.805 159.917 188.411C160.518 191.197 160.979 193.918 161.44 196.704Z" fill="#2D264F"/>
<path fill-rule="evenodd" clip-rule="evenodd" d="M169.167 184.562C168.047 186.487 166.859 188.477 165.666 190.335C165.073 187.482 164.545 184.63 163.953 181.842C165.139 179.852 166.26 177.861 167.387 175.871C168.047 178.79 168.574 181.644 169.167 184.562Z" fill="#2D264F"/>
<path fill-rule="evenodd" clip-rule="evenodd" d="M176.835 170.231C176.636 170.696 176.373 171.16 176.168 171.625C175.246 173.416 174.322 175.208 173.333 176.999C172.8 173.881 172.272 170.762 171.811 167.644C172.998 165.321 174.125 162.933 175.246 160.544C175.773 163.729 176.307 166.98 176.835 170.231Z" fill="#2D264F"/>
<path fill-rule="evenodd" clip-rule="evenodd" d="M183.375 156.43C182.313 158.885 181.192 161.34 180.006 163.795C179.405 160.478 178.878 157.16 178.284 153.843C179.405 151.255 180.533 148.668 181.588 146.014C182.116 149.53 182.781 152.98 183.375 156.43Z" fill="#2D264F"/>
<path fill-rule="evenodd" clip-rule="evenodd" d="M190.442 138.649C189.453 141.436 188.392 144.156 187.27 146.876C186.611 143.293 185.952 139.711 185.286 136.128C186.348 133.275 187.337 130.422 188.259 127.569C189.058 131.284 189.783 134.933 190.442 138.649Z" fill="#2D264F"/>
<path fill-rule="evenodd" clip-rule="evenodd" d="M196.916 119.408C196.059 122.128 195.196 124.915 194.272 127.635C193.415 124.185 192.493 120.735 191.629 117.285C192.493 114.432 193.35 111.579 194.141 108.659C195.13 112.242 196.059 115.825 196.916 119.408Z" fill="#2D264F"/>
<path fill-rule="evenodd" clip-rule="evenodd" d="M202.599 99.4366C202.138 101.294 201.603 103.152 201.142 105.01C200.879 106.005 200.549 107.067 200.285 108.062C199.231 104.479 198.235 100.83 197.311 97.2471C198.103 94.1286 198.901 91.0102 199.625 87.8918C200.549 91.8064 201.538 95.6547 202.599 99.4366Z" fill="#2D264F"/>
<path fill-rule="evenodd" clip-rule="evenodd" d="M206.891 81.854C206.165 84.9725 205.441 88.1572 204.643 91.2756C203.654 87.4274 202.599 83.5791 201.538 79.7972C202.269 76.7452 202.928 73.6931 203.588 70.5747C204.708 74.3566 205.836 78.0721 206.891 81.854Z" fill="#2D264F"/>
<path fill-rule="evenodd" clip-rule="evenodd" d="M236.486 142.033C232.326 130.223 227.968 118.413 223.341 106.735C219.51 96.9154 215.415 87.2285 208.941 78.8685C208.48 78.2713 207.683 79.1339 208.151 79.6647C214.954 88.4227 219.048 98.8396 223.076 109.124C227.375 120.138 231.469 131.152 235.365 142.298C235.629 143.028 236.691 142.763 236.486 142.033Z" fill="#FEFEFE"/>
<path fill-rule="evenodd" clip-rule="evenodd" d="M176.768 57.703C170.492 57.703 163.688 58.9636 156.087 61.5513C138.115 67.589 127.746 77.8732 124.376 93.0008C121.536 105.607 123.319 121.863 130.124 145.549C141.82 186.155 146.31 199.358 147.431 202.411C147.431 202.477 147.497 202.543 147.497 202.61C149.217 202.344 151.268 202.012 153.378 201.614C154.768 201.348 156.417 201.084 158.203 200.685C179.874 196.439 220.63 186.62 249.836 168.971C248.973 166.715 241.51 147.872 224.929 103.617C220.037 90.5459 214.69 80.6598 208.546 73.3614C207.023 71.57 205.441 69.9113 203.852 68.3852C202.797 67.39 201.669 66.4611 200.615 65.6649C198.703 64.2052 196.652 62.9446 194.536 61.883C193.02 61.0868 191.431 60.4233 189.783 59.8925C187.798 59.229 185.748 58.6982 183.572 58.3665C181.456 57.8357 179.143 57.703 176.768 57.703ZM147.101 203.207L147.035 203.007C147.035 203.007 146.969 202.875 146.838 202.543C145.716 199.425 141.22 186.221 129.53 145.616C117.638 104.147 117.506 73.8922 155.889 60.9541C166.391 57.3713 175.509 56.3097 183.77 57.6366C185.952 57.9684 188.062 58.4992 190.047 59.229C191.695 59.7598 193.283 60.4897 194.866 61.2859C196.982 62.3474 199.032 63.6744 201.01 65.1341C202.138 65.9966 203.192 66.9255 204.313 67.8544C205.968 69.3805 207.55 71.0392 209.073 72.897C215.218 80.2617 220.63 90.2141 225.522 103.351C243.165 150.393 250.43 168.772 250.496 168.904L250.562 169.103L250.364 169.236C221.033 187.018 180.137 196.904 158.335 201.15C156.548 201.482 154.9 201.813 153.509 202.079C151.333 202.477 149.284 202.809 147.562 203.074C147.365 203.074 147.299 203.14 147.299 203.14L147.101 203.207Z" fill="#E4E7F4"/>
<path fill-rule="evenodd" clip-rule="evenodd" d="M244.813 155.767C245.01 155.701 245.142 155.634 245.34 155.568C242.696 148.734 239.064 139.18 234.178 126.308C233.981 126.374 233.849 126.441 233.651 126.507C238.536 139.379 242.169 148.933 244.813 155.767Z" fill="#FEFEFE"/>
<path fill-rule="evenodd" clip-rule="evenodd" d="M129.133 87.2948C123.782 98.9723 125.631 111.711 127.746 123.92C127.878 124.649 129.001 124.318 128.869 123.588C126.821 111.711 124.905 99.1713 130.124 87.8256C130.454 87.2285 129.463 86.6313 129.133 87.2948Z" fill="#E4E7F4"/>
<path opacity="0.469773" fill-rule="evenodd" clip-rule="evenodd" d="M142.347 158.753C135.013 159.416 146.969 191.795 150.734 194.913C154.505 198.031 156.417 196.572 152.52 183.435C148.624 170.364 145.782 158.421 142.347 158.753Z" fill="#E4E7F4"/>
<path fill-rule="evenodd" clip-rule="evenodd" d="M194.998 65.7313C193.02 68.4516 200.747 74.0913 200.482 70.3758C200.219 66.5939 196.323 63.8735 194.998 65.7313Z" fill="#E4E7F4"/>
<path fill-rule="evenodd" clip-rule="evenodd" d="M250.43 168.241C217.862 185.226 182.643 196.837 146.376 202.675C145.65 202.809 145.65 203.937 146.376 203.804C182.847 197.965 218.191 186.288 251.023 169.236C251.682 168.838 251.089 167.909 250.43 168.241Z" fill="#E4E7F4"/>
<path fill-rule="evenodd" clip-rule="evenodd" d="M118.959 82.8493C112.947 79.5318 106.935 76.2144 100.857 72.8969C100.197 72.5652 99.5361 73.494 100.197 73.8258C106.209 77.1432 112.22 80.4607 118.299 83.7782C118.959 84.1763 119.62 83.181 118.959 82.8493Z" fill="#FEC741"/>
<path fill-rule="evenodd" clip-rule="evenodd" d="M138.32 63.9398C134.154 56.8404 130.058 49.741 126.094 42.509C125.764 41.8455 124.773 42.4426 125.103 43.1061C129.067 50.2718 133.163 57.4375 137.325 64.5369C137.722 65.2004 138.715 64.6032 138.32 63.9398Z" fill="#FEC741"/>
<path fill-rule="evenodd" clip-rule="evenodd" d="M157.076 53.3903C156.285 51.2008 155.559 49.0776 154.768 46.8881C154.505 46.2246 153.443 46.49 153.641 47.2198C154.439 49.4093 155.164 51.5325 155.955 53.722C156.219 54.3855 157.346 54.0538 157.076 53.3903Z" fill="#FEC741"/>
<path fill-rule="evenodd" clip-rule="evenodd" d="M258.289 110.65L260.141 121.995C260.735 125.711 255.052 127.17 254.458 123.389C253.865 119.607 253.206 115.825 252.612 112.043C252.012 108.394 257.695 106.934 258.289 110.65Z" fill="#ACCAE9"/>
<path fill-rule="evenodd" clip-rule="evenodd" d="M257.036 108.792C257.036 111.91 256.508 115.029 254.656 117.484C254.327 117.749 253.997 118.081 253.601 118.28C253.271 116.223 252.942 114.166 252.546 112.043C252.21 109.323 255.249 107.797 257.036 108.792Z" fill="#7A86C1"/>
<path fill-rule="evenodd" clip-rule="evenodd" d="M254.722 99.2377C260.998 98.7069 261.987 100.631 261.262 107.73C260.471 115.228 250.298 116.621 250.298 113.768C250.298 106.536 249.441 99.7021 254.722 99.2377Z" fill="#ACCAE9"/>
<path fill-rule="evenodd" clip-rule="evenodd" d="M259.482 111.844C257.299 112.972 255.717 105.474 256.179 102.29C256.245 101.958 255.915 101.626 255.651 101.56C253.205 101.029 253.799 101.294 251.353 101.228C252.012 100.1 253.073 99.3704 254.656 99.2377C260.932 98.7069 261.928 100.631 261.196 107.73C261.064 109.389 260.405 110.782 259.482 111.844Z" fill="#8F2E56"/>
<path fill-rule="evenodd" clip-rule="evenodd" d="M251.617 104.28C251.683 104.811 251.683 105.408 251.748 105.939C251.748 106.337 251.22 106.403 251.155 106.005C251.089 105.474 251.089 104.877 251.023 104.346C251.023 104.015 251.55 103.948 251.617 104.28Z" fill="#2D264F"/>
<path fill-rule="evenodd" clip-rule="evenodd" d="M250.891 102.422C251.221 102.422 251.484 102.489 251.749 102.621C252.078 102.82 251.682 103.285 251.419 103.086C251.287 103.019 251.155 102.953 250.958 102.953C250.628 103.019 250.561 102.422 250.891 102.422Z" fill="#2D264F"/>
<path fill-rule="evenodd" clip-rule="evenodd" d="M248.709 109.323C249.243 108.062 249.705 106.801 250.232 105.541C250.364 105.209 250.891 105.408 250.76 105.74C250.298 106.934 249.837 108.062 249.375 109.256C249.902 109.389 250.496 109.522 251.023 109.787C251.353 109.92 251.155 110.45 250.825 110.318C250.232 110.052 249.639 109.853 248.973 109.787C248.775 109.721 248.643 109.522 248.709 109.323Z" fill="#7A86C1"/>
<path fill-rule="evenodd" clip-rule="evenodd" d="M254.458 104.678C257.959 103.683 260.207 108.46 254.327 109.92L254.458 104.678Z" fill="#ACCAE9"/>
<path fill-rule="evenodd" clip-rule="evenodd" d="M256.113 106.072C256.443 106.005 256.574 106.536 256.179 106.669C255.652 106.801 255.249 107.199 255.117 107.73C255.052 108.062 254.458 107.996 254.524 107.664C254.722 106.801 255.315 106.204 256.113 106.072Z" fill="#7A86C1"/>
<path fill-rule="evenodd" clip-rule="evenodd" d="M249.968 106.204C247.259 107.598 246.797 109.455 247.193 111.512C247.588 113.569 250.166 115.493 251.485 115.493C252.81 115.493 250.496 105.939 249.968 106.204Z" fill="#E4E7F4"/>
<path fill-rule="evenodd" clip-rule="evenodd" d="M255.981 104.28C253.535 105.209 251.352 106.602 249.507 108.394C249.243 108.659 249.639 109.123 249.902 108.858C251.749 107.067 253.865 105.673 256.244 104.811C256.574 104.678 256.377 104.147 255.981 104.28Z" fill="#E4E7F4"/>
<path fill-rule="evenodd" clip-rule="evenodd" d="M256.904 108.858C254.854 110.252 252.876 111.645 250.825 113.038C250.496 113.237 250.891 113.702 251.221 113.503C253.271 112.109 255.249 110.716 257.3 109.323C257.563 109.057 257.167 108.659 256.904 108.858Z" fill="#E4E7F4"/>
<path fill-rule="evenodd" clip-rule="evenodd" d="M251.419 101.228C249.309 101.361 248.775 98.4415 253.074 99.1713C257.3 99.9675 251.419 101.228 251.419 101.228Z" fill="#8F2E56"/>
<path fill-rule="evenodd" clip-rule="evenodd" d="M248.248 113.038C246.996 112.242 247.259 110.65 247.522 109.389C247.588 109.057 246.996 108.991 246.929 109.323C246.666 110.782 246.467 112.574 247.918 113.503C248.248 113.702 248.577 113.237 248.248 113.038Z" fill="#E4E7F4"/>
<path fill-rule="evenodd" clip-rule="evenodd" d="M258.552 120.668C242.828 120.668 247.39 127.303 249.704 141.9C252.012 156.563 252.012 160.279 252.012 160.279H279.498C279.498 160.279 280.619 152.781 276.063 137.322C271.507 121.863 270.842 120.668 258.552 120.668Z" fill="#F1F7ED"/>
<path fill-rule="evenodd" clip-rule="evenodd" d="M253.535 124.649C252.078 123.986 250.628 123.322 249.104 122.725C249.039 122.725 249.039 122.659 248.973 122.659C245.868 125.379 247.72 130.753 249.236 139.18C251.617 134.734 253.206 129.825 253.535 124.649Z" fill="#F1F7ED"/>
<path fill-rule="evenodd" clip-rule="evenodd" d="M250.957 150.327C252.012 158.089 252.012 160.279 252.012 160.279H279.498C279.498 160.279 280.025 157.028 279.036 150.327H250.957Z" fill="#3D3B4E"/>
<path fill-rule="evenodd" clip-rule="evenodd" d="M303.35 244.012C294.496 213.623 285.906 181.179 278.904 150.26C274.877 151.521 270.314 154.507 266.483 156.232C273.221 185.824 281.877 215.216 290.336 244.344H303.417C303.417 244.276 303.417 244.144 303.35 244.012Z" fill="#3D3B4E"/>
<path fill-rule="evenodd" clip-rule="evenodd" d="M265.297 156.497C261.196 155.634 256.047 154.307 252.078 152.98C245.077 182.904 241.708 213.624 242.301 244.343H254.854C254.326 214.818 258.552 185.292 265.297 156.497Z" fill="#3D3B4E"/>
<path fill-rule="evenodd" clip-rule="evenodd" d="M254.854 244.344V250.182H233.117C233.117 250.182 232.524 248.192 236.289 246.997C239.994 245.87 240.916 246.865 242.301 244.344H254.854Z" fill="#477C9D"/>
<path fill-rule="evenodd" clip-rule="evenodd" d="M303.416 244.344L304.274 250.182H282.273C282.273 250.182 281.679 248.192 285.444 246.997C289.143 245.87 290.264 247.197 290.329 244.344H303.416Z" fill="#477C9D"/>
<path fill-rule="evenodd" clip-rule="evenodd" d="M242.433 246.865C242.103 246.599 241.774 246.268 241.575 245.869C241.378 245.538 240.916 245.869 241.115 246.134C241.378 246.599 241.774 246.997 242.169 247.395C242.433 247.594 242.696 247.064 242.433 246.865Z" fill="#FEFEFE"/>
<path fill-rule="evenodd" clip-rule="evenodd" d="M243.824 246.267C243.231 245.736 242.63 245.272 242.104 244.741C241.839 244.476 241.444 244.874 241.707 245.139C242.301 245.671 242.901 246.135 243.428 246.666C243.692 246.931 244.087 246.533 243.824 246.267Z" fill="#FEFEFE"/>
<path fill-rule="evenodd" clip-rule="evenodd" d="M290.197 247.262C290 246.864 289.737 246.466 289.538 246.068C289.34 245.736 288.879 246.003 289.011 246.334C289.208 246.732 289.472 247.13 289.67 247.528C289.934 247.86 290.402 247.594 290.197 247.262Z" fill="#FEFEFE"/>
<path fill-rule="evenodd" clip-rule="evenodd" d="M291.853 246.732C291.456 246.267 291.127 245.803 290.732 245.338C290.468 245.073 290.066 245.471 290.329 245.737C290.732 246.201 291.062 246.665 291.456 247.13C291.654 247.395 292.05 246.997 291.853 246.732Z" fill="#FEFEFE"/>
<path fill-rule="evenodd" clip-rule="evenodd" d="M229.089 118.678C224.269 111.313 218.785 103.086 213.893 95.7874C216.668 94.1286 219.51 92.5363 222.482 91.0766C226.775 97.4461 231.997 105.474 236.157 111.91C233.981 114.365 231.337 116.157 229.089 118.678Z" fill="#F1F7ED"/>
<path fill-rule="evenodd" clip-rule="evenodd" d="M224.269 93.6641C223.67 92.7352 223.076 91.8726 222.483 91.0101C219.575 92.4698 216.734 94.0622 213.893 95.7209C214.756 96.9815 215.613 98.3085 216.47 99.5691C218.85 97.3133 221.56 95.4555 224.269 93.6641Z" fill="#7A86C1"/>
<path fill-rule="evenodd" clip-rule="evenodd" d="M234.508 110.185C239.591 113.304 249.243 119.076 254.458 121.995C259.943 125.048 258.954 136.46 253.469 133.408C246.731 129.626 236.954 124.052 230.48 119.939C228.298 118.545 226.841 114.896 228.1 112.375C228.43 111.778 228.693 111.181 229.023 110.583C232.392 111.313 231.205 109.455 234.508 110.185Z" fill="#F1F7ED"/>
<path fill-rule="evenodd" clip-rule="evenodd" d="M222.483 91.0101C220.63 87.6263 218.126 82.1857 216.669 82.1857C215.152 82.1857 218.323 84.7733 218.059 86.5647C217.796 88.3561 213.102 80.1288 211.321 80.5269C209.469 80.925 214.624 84.6406 213.958 85.3704C213.299 86.1003 210.656 80.6596 209.271 81.3231C207.88 81.9866 212.574 86.233 211.915 87.0291C211.256 87.8253 208.81 82.053 207.484 83.3799C206.627 84.2425 209.799 87.3609 210.26 88.7542C210.721 90.1476 207.484 84.3752 206.627 85.5031C205.77 86.6311 212.113 92.9342 213.958 95.7209C215.811 98.5076 222.483 91.0101 222.483 91.0101Z" fill="#477C9D"/>
<path fill-rule="evenodd" clip-rule="evenodd" d="M215.877 99.6355C215.877 99.5692 215.943 99.5692 215.877 99.6355C215.943 99.5692 215.943 99.5692 215.877 99.6355C218.653 97.3133 221.428 95.1238 224.269 93.0006C224.533 92.8015 224.863 93.266 224.599 93.465C222.022 95.3892 219.444 97.3796 216.932 99.4365C216.932 99.5028 216.866 99.5028 216.866 99.5692L216.207 100.034C216.009 100.233 215.613 99.8345 215.877 99.6355Z" fill="#477C9D"/>
<path fill-rule="evenodd" clip-rule="evenodd" d="M236.222 113.37C235.959 112.706 235.695 112.109 235.432 111.446C235.3 111.114 234.706 111.247 234.903 111.578L235.695 113.503C235.826 113.901 236.42 113.702 236.222 113.37Z" fill="#7A86C1"/>
<path fill-rule="evenodd" clip-rule="evenodd" d="M256.97 123.256C256.311 122.99 255.652 122.659 254.986 122.393C254.656 122.261 254.392 122.725 254.722 122.858L256.706 123.72C257.036 123.919 257.3 123.389 256.97 123.256Z" fill="#7A86C1"/>
<path fill-rule="evenodd" clip-rule="evenodd" d="M75.9508 243.017V249.054H96.3647C96.3647 249.054 96.3647 246.201 92.9292 245.87C89.4937 245.538 89.0316 245.471 87.5779 243.017C86.1248 240.495 75.9508 243.017 75.9508 243.017Z" fill="#3D3B4E"/>
<path fill-rule="evenodd" clip-rule="evenodd" d="M108.389 244.609L108.257 248.988H128.142C128.142 248.988 128.142 246.135 124.707 245.803C121.272 245.471 120.413 244.741 120.016 243.812C118.827 241.225 108.389 244.609 108.389 244.609Z" fill="#3D3B4E"/>
<path fill-rule="evenodd" clip-rule="evenodd" d="M87.5777 243.017C86.6534 219.064 87.3799 196.704 90.0223 172.885C92.5335 176.468 94.8449 180.25 96.9592 184.098C100.329 190.069 103.698 196.24 106.473 202.544C109.115 208.714 109.248 215.216 109.182 221.785C109.115 229.415 108.851 237.045 108.389 244.608L120.016 243.812C120.544 235.85 120.809 228.619 120.809 220.59C120.809 212.562 121.206 204.799 117.968 197.368C112.154 183.833 103.896 163.994 94.4487 152.715C93.8547 151.985 92.5988 157.758 91.6738 157.559C91.4094 155.303 90.0889 153.312 87.5777 152.649C84.87 151.919 82.8882 160.677 80.1133 160.81C76.0825 189.937 74.8272 213.623 75.9506 243.017H87.5777Z" fill="#8F2E56"/>
<path fill-rule="evenodd" clip-rule="evenodd" d="M104.755 163.596L104.226 170.696L80.179 164.99V161.009L104.755 163.596Z" fill="#F06057"/>
<path fill-rule="evenodd" clip-rule="evenodd" d="M104.755 163.596L104.226 170.696L80.179 164.99V161.009L104.755 163.596Z" stroke="#DC4544"/>
<path fill-rule="evenodd" clip-rule="evenodd" d="M88.1725 243.812C87.9082 244.476 87.5119 245.073 86.9832 245.604C86.7195 245.87 87.1157 246.267 87.3801 246.002C87.9748 245.405 88.4369 244.741 88.7013 243.945C88.8997 243.613 88.3051 243.48 88.1725 243.812Z" fill="#F16A5A"/>
<path fill-rule="evenodd" clip-rule="evenodd" d="M121.073 244.542C120.677 245.007 120.28 245.471 119.95 245.936C119.752 246.201 120.148 246.599 120.346 246.334C120.743 245.869 121.139 245.405 121.47 244.941C121.734 244.609 121.337 244.211 121.073 244.542Z" fill="#F16A5A"/>
<path fill-rule="evenodd" clip-rule="evenodd" d="M104.755 163.596C105.019 161.009 105.349 158.089 105.813 154.772C108.124 136.659 106.077 135.199 101.451 134.071C89.4281 131.019 86.8516 127.701 84.6055 135.597C83.8117 138.45 82.6889 145.549 81.698 150.725C80.9715 154.44 80.5093 157.691 80.179 160.81C88.2381 162.402 96.4969 163.198 104.755 163.596Z" fill="#F06057"/>
<path fill-rule="evenodd" clip-rule="evenodd" d="M104.226 135.132C102.905 137.521 102.641 140.639 104.028 142.962C104.623 143.957 105.548 145.085 106.671 145.815C107.001 138.981 106.142 136.393 104.226 135.132Z" fill="#F06057"/>
<path fill-rule="evenodd" clip-rule="evenodd" d="M101.65 131.815C101.914 128.763 102.179 125.711 102.442 122.725C102.773 118.943 97.025 117.948 96.6947 121.73L95.6385 133.208C95.5719 133.739 95.7038 134.203 95.8363 134.668C96.7613 132.744 99.9324 131.948 101.65 131.815Z" fill="#F1F7ED"/>
<path fill-rule="evenodd" clip-rule="evenodd" d="M97.8184 119.74C98.0162 122.858 98.8093 125.91 100.791 128.232C101.121 128.498 101.518 128.763 101.914 128.962C102.112 126.839 102.311 124.782 102.509 122.659C102.707 119.872 99.6017 118.612 97.8184 119.74Z" fill="#E0E4DD"/>
<path fill-rule="evenodd" clip-rule="evenodd" d="M99.4698 110.052C93.1276 109.986 92.3358 111.977 93.5897 118.943C94.9116 126.374 105.218 127.038 104.953 124.185C104.358 116.953 104.756 110.119 99.4698 110.052Z" fill="#F1F7ED"/>
<path fill-rule="evenodd" clip-rule="evenodd" d="M95.6384 122.991C97.8846 123.919 98.8755 116.356 98.2149 113.171C98.149 112.905 98.4133 112.507 98.6764 112.375C101.056 111.645 100.46 111.977 102.905 111.778C102.178 110.716 101.056 110.052 99.4702 109.986C93.1272 109.92 92.3354 111.91 93.5901 118.877C93.8544 120.602 94.6475 121.929 95.6384 122.991Z" fill="#4762A7"/>
<path fill-rule="evenodd" clip-rule="evenodd" d="M102.972 114.83V116.488C102.972 116.887 103.566 116.887 103.566 116.555V114.896C103.5 114.498 102.972 114.498 102.972 114.83Z" fill="#A9D9DB"/>
<path fill-rule="evenodd" clip-rule="evenodd" d="M103.5 112.905C103.17 112.905 102.906 112.972 102.641 113.171C102.311 113.37 102.707 113.834 103.037 113.569C103.17 113.502 103.302 113.436 103.5 113.436C103.83 113.436 103.896 112.905 103.5 112.905Z" fill="#A9D9DB"/>
<path fill-rule="evenodd" clip-rule="evenodd" d="M106.274 119.474C105.68 118.28 105.086 117.019 104.491 115.825C104.359 115.493 103.83 115.759 103.962 116.09C104.491 117.218 105.086 118.346 105.614 119.474C105.086 119.673 104.557 119.872 104.028 120.138C103.698 120.337 103.962 120.801 104.293 120.668C104.887 120.403 105.482 120.138 106.077 120.005C106.274 119.872 106.341 119.673 106.274 119.474Z" fill="#A9D9DB"/>
<path fill-rule="evenodd" clip-rule="evenodd" d="M101.848 111.313C101.518 110.849 100.725 110.782 100.197 110.716C99.4042 110.65 98.5451 110.716 97.8845 111.114C96.4308 112.043 96.7611 113.834 96.8277 115.294C96.6952 115.427 96.6293 115.692 96.8277 115.758C98.083 116.488 99.7345 115.825 100.725 114.763C101.584 113.967 102.641 112.441 101.848 111.313Z" fill="#4762A7"/>
<path fill-rule="evenodd" clip-rule="evenodd" d="M103.83 117.086C102.178 122.393 102.839 125.976 104.227 125.446C105.614 124.915 107.794 121.995 106.935 119.275C106.077 116.555 104.557 114.763 103.83 117.086Z" fill="#477C9D"/>
<path fill-rule="evenodd" clip-rule="evenodd" d="M107.332 118.877C107.266 118.545 106.738 118.479 106.738 118.877C106.869 120.336 107.001 121.929 105.812 122.924C105.548 123.189 105.944 123.588 106.209 123.322C107.53 122.261 107.53 120.469 107.332 118.877Z" fill="#477C9D"/>
<path fill-rule="evenodd" clip-rule="evenodd" d="M100.197 129.559C96.299 123.72 99.2058 116.953 99.2058 116.953L93.7226 116.687C93.3923 118.877 93.9197 125.246 86.9834 126.507C80.0471 127.768 79.7827 134.071 79.7827 134.071C79.7827 134.071 81.2351 134.336 83.2842 134.734C84.01 134.004 84.7372 133.275 85.6622 132.744C86.7197 132.147 87.5121 133.805 86.5212 134.403C86.1909 134.602 85.7941 134.867 85.5303 135.199C90.7492 136.327 97.8846 138.184 98.7436 140.175C98.6764 140.175 104.094 135.398 100.197 129.559Z" fill="#4762A7"/>
<path fill-rule="evenodd" clip-rule="evenodd" d="M100.065 115.427C96.4973 114.697 94.5815 119.607 100.593 120.668L100.065 115.427Z" fill="#F1F7ED"/>
<path fill-rule="evenodd" clip-rule="evenodd" d="M98.479 116.953C98.0821 116.886 98.0821 117.483 98.4124 117.55C98.9411 117.616 99.404 118.014 99.5365 118.479C99.6017 118.81 100.196 118.744 100.065 118.346C99.8661 117.616 99.2714 117.085 98.479 116.953Z" fill="#A9D9DB"/>
<path fill-rule="evenodd" clip-rule="evenodd" d="M104.358 122.46C102.112 122.062 100.064 121.199 98.2152 119.872C97.9502 119.673 97.6199 120.138 97.9502 120.337C99.8001 121.73 101.914 122.659 104.227 122.991C104.557 123.123 104.756 122.526 104.358 122.46Z" fill="#477C9D"/>
<path fill-rule="evenodd" clip-rule="evenodd" d="M106.209 117.683C104.226 117.152 102.112 115.958 100.262 114.962C99.9318 114.763 99.6681 115.294 99.999 115.427C101.914 116.488 104.161 117.683 106.275 118.28V117.683H106.209Z" fill="#477C9D"/>
<path fill-rule="evenodd" clip-rule="evenodd" d="M126.623 145.748C134.286 141.568 142.018 137.388 149.744 133.275C148.096 130.488 146.309 127.701 144.392 125.047C137.59 128.63 129.265 133.275 122.526 136.924C123.319 140.175 125.763 142.497 126.623 145.748Z" fill="#F06057"/>
<path fill-rule="evenodd" clip-rule="evenodd" d="M145.914 135.332C147.167 134.668 148.426 133.938 149.745 133.275C148.096 130.488 146.31 127.701 144.391 125.047C143.402 125.578 142.413 126.109 141.352 126.64C143.007 129.493 144.457 132.412 145.914 135.332Z" fill="#ACCAE9"/>
<path fill-rule="evenodd" clip-rule="evenodd" d="M126.16 136.725C120.28 135.663 109.314 133.474 103.434 132.147C102.839 132.014 102.311 132.014 101.782 132.014C102.972 134.867 102.972 137.986 102.839 141.038C102.839 141.436 102.575 141.701 102.244 141.834C109.314 143.426 116.383 144.82 123.517 146.014C126.094 146.412 128.803 145.284 129.463 142.564C129.596 141.9 129.794 141.237 129.992 140.573C127.019 138.981 129.133 138.384 126.16 136.725Z" fill="#F06057"/>
<path fill-rule="evenodd" clip-rule="evenodd" d="M144.392 125.047C147.563 122.991 149.481 119.872 151.927 119.74C154.373 119.54 151.004 121.531 150.404 123.256C149.811 124.981 157.808 119.939 159.192 121.133C160.649 122.393 154.373 123.19 154.57 124.185C154.768 125.18 159.653 121.597 160.584 122.858C161.507 124.052 155.362 125.645 155.625 126.64C155.824 127.635 160.715 123.72 161.243 125.512C161.638 126.706 157.346 127.9 156.218 128.962C155.164 130.024 160.715 127.436 160.913 128.829C161.11 130.223 152.587 131.749 149.679 133.341C146.771 134.933 144.392 125.047 144.392 125.047Z" fill="#ACCAE9"/>
<path fill-rule="evenodd" clip-rule="evenodd" d="M144.392 125.047C147.563 122.991 149.481 119.872 151.927 119.74C154.373 119.54 151.004 121.531 150.404 123.256C149.811 124.981 157.808 119.939 159.192 121.133C160.649 122.393 154.373 123.19 154.57 124.185C154.768 125.18 159.653 121.597 160.584 122.858C161.507 124.052 155.362 125.645 155.625 126.64C155.824 127.635 160.715 123.72 161.243 125.512C161.638 126.706 157.346 127.9 156.218 128.962C155.164 130.024 160.715 127.436 160.913 128.829C161.11 130.223 152.587 131.749 149.679 133.341C146.771 134.933 144.392 125.047 144.392 125.047Z" stroke="#8CCDD1"/>
<path fill-rule="evenodd" clip-rule="evenodd" d="M105.152 142.497C103.698 142.298 102.244 141.966 100.857 141.436C100.527 141.303 100.395 141.834 100.725 141.966C102.178 142.497 103.632 142.895 105.152 143.094C105.482 143.161 105.482 142.563 105.152 142.497Z" fill="#F06057"/>
<path fill-rule="evenodd" clip-rule="evenodd" d="M106.406 132.744C104.293 132.412 101.914 131.682 99.7339 131.881C98.4786 132.014 97.4218 132.611 96.9596 133.806C96.8271 134.137 97.3552 134.27 97.4877 133.938C98.2808 131.948 100.659 132.412 102.311 132.678C103.632 132.877 104.887 133.076 106.209 133.275C106.67 133.341 106.803 132.81 106.406 132.744Z" fill="#7A86C1"/>
<path fill-rule="evenodd" clip-rule="evenodd" d="M123.451 136.857C123.121 137.322 122.791 137.853 122.46 138.317C122.262 138.649 122.725 138.914 122.923 138.583C123.253 138.118 123.584 137.587 123.914 137.123C124.112 136.857 123.65 136.526 123.451 136.857Z" stroke="#E45552"/>
<path fill-rule="evenodd" clip-rule="evenodd" d="M146.178 135.73V135.663C144.86 132.412 143.403 129.161 141.886 125.91C141.754 125.578 141.22 125.844 141.418 126.175C142.809 129.095 144.062 132.081 145.32 135.066V135.199L145.65 135.929C145.849 136.261 146.309 136.061 146.178 135.73Z" fill="#ACCAE9"/>
</g>
<defs>
<clipPath id="clip0">
<rect width="414" height="1908" fill="white" transform="translate(-21 -91)"/>
</clipPath>
</defs>
</svg>
