<svg width="36" height="35" viewBox="0 0 36 35" fill="none" xmlns="http://www.w3.org/2000/svg">
<circle cx="18" cy="17.2429" r="16.2429" stroke="white" stroke-width="2"/>
<path fill-rule="evenodd" clip-rule="evenodd" d="M8.71539 17.4784C8.71539 21.6839 11.3755 25.2523 15.0649 26.5112C15.5294 26.5988 15.6987 26.3049 15.6987 26.0524C15.6987 25.8262 15.6908 25.2278 15.6862 24.4336C13.1036 25.0086 12.5587 23.1572 12.5587 23.1572C12.1364 22.0573 11.5277 21.7645 11.5277 21.7645C10.6847 21.1737 11.5915 21.186 11.5915 21.186C12.5234 21.2532 13.0136 22.1672 13.0136 22.1672C13.8423 23.6218 15.1869 23.2016 15.7158 22.9579C15.8002 22.3425 16.0401 21.9235 16.3052 21.6851C14.2436 21.4449 12.076 20.6284 12.076 16.9805C12.076 15.9408 12.4379 15.0911 13.0318 14.4254C12.9366 14.1846 12.618 13.2168 13.123 11.9066C13.123 11.9066 13.9027 11.65 15.6759 12.882C16.4169 12.671 17.2109 12.5652 18.0003 12.5617C18.7891 12.5652 19.5831 12.671 20.3252 12.882C22.0973 11.65 22.8759 11.9066 22.8759 11.9066C23.382 13.2168 23.0634 14.1846 22.9682 14.4254C23.5633 15.0911 23.9223 15.9408 23.9223 16.9805C23.9223 20.6372 21.7519 21.4419 19.6834 21.678C20.0169 21.972 20.3133 22.5529 20.3133 23.4406C20.3133 24.7135 20.3024 25.7403 20.3024 26.0524C20.3024 26.3072 20.4694 26.6029 20.9408 26.51C24.6268 25.2488 27.2846 21.6833 27.2846 17.4784C27.2846 12.2204 23.1272 7.95825 17.9992 7.95825C12.8728 7.95825 8.71539 12.2204 8.71539 17.4784Z" fill="white"/>
</svg>
