<svg width="363" height="432" viewBox="0 0 363 432" fill="none" xmlns="http://www.w3.org/2000/svg">
<mask id="mask0" mask-type="alpha" maskUnits="userSpaceOnUse" x="9" y="0" width="354" height="424">
<path fill-rule="evenodd" clip-rule="evenodd" d="M9 0.868927H363V423.869H9V0.868927Z" fill="white"/>
</mask>
<g mask="url(#mask0)">
<path fill-rule="evenodd" clip-rule="evenodd" d="M363 38.1095V423.869C363 423.869 302.641 405.518 288.919 349.972C275.198 294.424 45.0124 374.544 25.2111 369.245C-50.6676 348.941 162.889 214.794 191.125 86.4557C219.36 -41.8827 293.813 12.1671 293.813 12.1671L363 38.1095Z" fill="#D1EBEC"/>
</g>
<g opacity="0.180408">
<mask id="mask1" mask-type="alpha" maskUnits="userSpaceOnUse" x="5" y="101" width="362" height="331">
<path fill-rule="evenodd" clip-rule="evenodd" d="M5 101H367V432H5V101Z" fill="white"/>
</mask>
<g mask="url(#mask1)">
<path opacity="0.629976" fill-rule="evenodd" clip-rule="evenodd" d="M177.499 278.678C174.817 280.868 172.21 283.157 169.73 285.498C175.217 285.371 180.809 285.497 186.389 285.874C183.297 283.068 180.313 280.652 177.499 278.678ZM167.362 286.512L168.242 285.666C171.086 282.932 174.11 280.261 177.23 277.725L177.501 277.505L177.771 277.693C181.003 279.937 184.458 282.76 188.039 286.085L189.049 287.022L187.662 286.918C181.253 286.437 174.816 286.288 168.53 286.477L167.362 286.512ZM177.48 272.881C176.927 273.312 176.345 273.772 175.738 274.26C169.333 279.406 163.445 284.989 158.22 290.87C170.934 289.746 183.569 290.007 196.807 291.663C197.65 291.77 198.487 291.88 199.319 291.997C191.474 283.52 184.183 277.125 177.634 272.978L177.48 272.881ZM156.01 292.021L156.781 291.138C162.235 284.89 168.433 278.964 175.202 273.525C175.909 272.957 176.581 272.427 177.216 271.936L177.471 271.739L178.146 272.162C185.014 276.512 192.677 283.295 200.922 292.325L201.839 293.329L200.488 293.129C199.218 292.941 197.938 292.767 196.643 292.604C183.081 290.908 170.156 290.681 157.129 291.916L156.01 292.021ZM177.435 267.223C176.175 268.135 174.704 269.264 173.058 270.587C163.185 278.519 154.594 287.364 147.512 296.89C163.518 294.458 179.388 294.289 195.99 296.366C201.464 297.053 206.682 297.967 211.894 299.156C200.251 285.025 189.592 274.849 180.196 268.899C179.202 268.27 178.275 267.706 177.435 267.223ZM145.462 298.16L146.124 297.253C153.386 287.31 162.268 278.091 172.523 269.852C174.289 268.433 175.857 267.231 177.185 266.28L177.425 266.108L177.669 266.247C178.584 266.767 179.606 267.385 180.71 268.083C190.424 274.235 201.461 284.846 213.513 299.624L214.418 300.732L213.028 300.403C207.383 299.063 201.757 298.051 195.826 297.308C178.939 295.194 162.813 295.418 146.528 297.992L145.462 298.16ZM177.389 261.736C176.169 262.499 174.001 264.003 170.38 266.913C157.032 277.637 145.727 290.253 137.625 303.455C156.671 299.389 175.507 298.609 195.172 301.069C205.37 302.347 215.035 304.513 224.665 307.68C209.101 286.991 195.007 272.576 182.76 264.82C180.082 263.125 178.384 262.214 177.389 261.736ZM135.748 304.821L136.299 303.906C144.496 290.269 156.095 277.224 169.844 266.179C173.727 263.058 175.97 261.529 177.168 260.797L177.38 260.667L177.594 260.767C178.574 261.224 180.354 262.157 183.272 264.004C195.851 271.97 210.339 286.88 226.337 308.318L227.272 309.571L225.801 309.072C215.739 305.655 205.667 303.346 195.009 302.01C175.098 299.518 156.043 300.366 136.754 304.6L135.748 304.821ZM177.355 256.579C176.706 256.791 174.393 257.862 167.701 263.239C150.659 276.931 137.158 293.237 128.603 310.45C150.42 304.497 171.939 302.967 194.355 305.772C209.458 307.666 223.733 311.651 237.937 317.947C236.03 315.174 234.039 312.364 232.005 309.573C214.679 285.815 198.973 269.386 185.321 260.741C179.858 257.282 177.861 256.682 177.355 256.579ZM126.898 311.889L127.34 310.976C135.935 293.293 149.706 276.532 167.165 262.505C173.919 257.079 176.391 255.872 177.264 255.636L177.445 255.625C178.066 255.714 180.126 256.311 185.834 259.926C199.576 268.627 215.36 285.129 232.75 308.976C235.139 312.253 237.468 315.557 239.671 318.795L240.647 320.229L239.085 319.519C224.445 312.853 209.76 308.664 194.191 306.713C171.57 303.882 149.867 305.489 127.842 311.626L126.898 311.889ZM187.884 256.663C182.381 253.177 178.992 251.644 177.22 251.837C175.184 252.059 171.308 254.515 165.021 259.565C144.387 276.144 128.59 296.776 120.445 317.761C144.765 309.747 168.684 307.365 193.537 310.476C213.661 312.996 232.67 319.471 251.589 330.251C246.899 322.548 241.568 314.593 235.727 306.582C218.083 282.388 201.986 265.593 187.884 256.663ZM118.914 319.249L119.251 318.356C127.355 296.896 143.419 275.757 164.486 258.831C171.1 253.517 174.896 251.144 177.176 250.896C179.211 250.673 182.566 252.155 188.396 255.847C202.589 264.834 218.764 281.703 236.472 305.985C242.737 314.576 248.415 323.103 253.35 331.329L254.323 332.949L252.714 332.012C233.362 320.732 213.953 313.995 193.374 311.416C168.355 308.285 144.287 310.75 119.795 318.954L118.914 319.249ZM190.71 250.47C183.729 246.05 179.937 244.537 176.718 244.888C173.352 245.254 169.244 247.685 161.558 253.86C137.249 273.391 119.239 298.727 112.145 323.372C111.945 324.068 111.754 324.766 111.574 325.464C147.972 311.433 175.058 312.663 192.309 314.822C214.372 317.587 235.217 325.339 256.035 338.522C259.81 340.913 263.523 343.434 267.34 346.198C260.41 332.092 251.2 317.131 239.946 301.696C221.921 276.979 205.355 259.743 190.71 250.47ZM110.267 326.965L110.474 326.124C110.719 325.131 110.983 324.14 111.267 323.153C118.418 298.309 136.553 272.785 161.022 253.125C168.869 246.821 173.111 244.333 176.676 243.945C180.116 243.57 184.059 245.117 191.224 249.654C205.957 258.985 222.601 276.294 240.691 301.099C252.443 317.216 261.973 332.823 269.016 347.487L269.856 349.239L268.32 348.108C263.974 344.908 259.789 342.039 255.523 339.338C234.812 326.223 214.081 318.512 192.145 315.763C156.068 311.246 128.587 319.817 111.057 326.657L110.267 326.965ZM193.537 244.278C178.816 234.956 173.848 235.5 158.095 248.154C132.825 268.458 114.066 294.921 106.627 320.758C105.451 324.85 104.588 329.006 104.061 333.124C125.062 324.096 153.837 314.507 191.08 319.168C212.378 321.837 232.538 329.344 252.712 342.119C263.774 349.124 273.1 356.569 280.846 363.063C280.547 362.192 280.238 361.311 279.918 360.433C273.005 341.406 260.642 319.406 244.165 296.81C225.757 271.569 208.724 253.895 193.537 244.278ZM102.966 334.603L103.056 333.834C103.578 329.411 104.484 324.937 105.75 320.538C113.245 294.503 132.129 267.852 157.56 247.419C173.758 234.406 178.873 233.852 194.049 243.462C209.327 253.136 226.438 270.884 244.91 296.213C261.433 318.874 273.837 340.95 280.78 360.054C281.302 361.494 281.802 362.936 282.263 364.341L282.796 365.961L281.526 364.89C273.554 358.169 263.837 350.305 252.2 342.935C232.133 330.228 212.087 322.762 190.916 320.109C153.471 315.422 124.619 325.23 103.665 334.299L102.966 334.603ZM196.628 235.973C179.691 225.248 171.695 226.079 153.848 240.416C127.455 261.622 107.823 289.399 99.9852 316.626C98.3514 322.304 96.4502 331.046 96.5513 340.748C131.695 324.4 158.651 319.303 189.44 323.157C209.846 325.714 229.206 332.936 248.628 345.234C262.772 354.19 274.098 363.912 285.052 373.314C287.256 375.203 289.356 377.005 291.371 378.704C290.764 372.366 288.68 364.078 285.45 355.19C278.339 335.618 265.693 313.086 248.88 290.029C230.027 264.177 212.447 245.99 196.628 235.973ZM95.6584 342.181L95.645 341.503C95.4429 331.407 97.4158 322.283 99.1073 316.406C107.003 288.98 126.759 261.015 153.312 239.681C171.582 225.005 179.773 224.159 197.141 235.157C213.05 245.231 230.708 263.492 249.625 289.432C266.485 312.554 279.172 335.162 286.312 354.811C290.744 367.011 292.059 375.099 292.383 379.736L292.463 380.876L291.623 380.173C289.346 378.264 286.962 376.217 284.509 374.114C273.51 364.675 262.207 354.974 248.115 346.05C228.802 333.82 209.555 326.639 189.276 324.098C158.489 320.245 131.544 325.4 96.2715 341.894L95.6584 342.181ZM199.719 227.667C180.455 215.468 169.682 216.546 149.601 232.678C122.085 254.785 101.58 283.877 93.3429 312.493C90.8805 321.046 88.3821 334.107 90.3267 348.044C122.496 332.189 151.439 322.595 187.8 327.147C207.313 329.593 225.875 336.528 244.545 348.351C258.326 357.077 269.482 366.651 280.273 375.912C285.39 380.303 290.219 384.447 294.458 387.687C296.542 385.829 296.89 384.757 296.893 384.746C298.634 377.946 296.427 364.931 290.983 349.947C283.673 329.83 270.744 306.766 253.595 283.248C234.296 256.784 216.17 238.085 199.719 227.667ZM89.5941 349.432L89.5048 348.837C87.3773 334.504 89.9408 321.042 92.465 312.274C100.76 283.459 121.389 254.18 149.065 231.944C169.554 215.484 180.552 214.39 200.231 226.851C216.773 237.326 234.977 256.099 254.339 282.65C271.537 306.234 284.506 329.374 291.844 349.568C297.35 364.725 299.568 377.952 297.775 384.951C297.737 385.098 297.328 386.419 294.737 388.646L294.453 388.892L294.172 388.678C289.844 385.392 284.903 381.153 279.672 376.664C268.895 367.415 257.761 357.86 244.032 349.166C225.471 337.412 207.024 330.517 187.637 328.088C151.293 323.538 122.375 333.223 90.1354 349.163L89.5941 349.432ZM203.322 218.546C181.538 204.751 167.322 206.127 144.818 224.206C116.02 247.343 94.5165 277.937 85.8219 308.141C82.4148 319.981 79.4386 337.912 84.4922 356.362C115.208 340.675 146.125 327.086 185.996 332.077C204.49 334.395 222.137 341.004 239.949 352.281C253.32 360.749 264.283 370.158 274.882 379.255C281.8 385.189 288.321 390.785 293.656 394.373C299.213 390.79 302.607 387.101 303.48 383.691C305.666 375.157 303.498 361.177 297.376 344.325C289.84 323.587 276.589 299.915 259.054 275.868C239.247 248.707 220.496 229.422 203.322 218.546ZM83.8958 357.699L83.7529 357.188C78.4405 338.342 81.4692 319.994 84.9441 307.921C93.6963 277.518 115.324 246.738 144.282 223.471C167.18 205.077 181.649 203.682 203.834 217.73C221.099 228.663 239.928 248.022 259.799 275.271C277.381 299.381 290.673 323.131 298.236 343.947C304.423 360.976 306.6 375.159 304.366 383.882C303.401 387.653 299.863 391.504 293.851 395.331L293.599 395.492L293.363 395.335C287.942 391.726 281.313 386.039 274.294 380.017C263.695 370.92 252.757 361.532 239.435 353.097C221.733 341.887 204.199 335.319 185.833 333.018C146.007 328.032 115.117 341.731 84.3769 357.453L83.8958 357.699ZM206.925 209.424C182.551 193.99 165.047 195.64 140.035 215.733C109.955 239.901 87.4533 271.996 78.301 303.789C73.9558 318.887 70.6756 341.598 79.6023 364.281L82.0047 363.048C110.491 348.411 142.777 331.823 184.193 337.007C201.666 339.197 218.4 345.478 235.352 356.213C248.315 364.422 259.082 373.662 269.495 382.599C277.144 389.162 284.352 395.348 290.316 399.124C291.19 399.678 291.991 400.16 292.702 400.561C302.572 395.12 308.415 389.084 310.072 382.622C312.682 372.426 310.503 357.239 303.769 338.704C296.007 317.342 282.433 293.062 264.513 268.488C244.198 240.63 224.822 220.758 206.925 209.424ZM79.1037 365.569L78.9266 365.128C69.6824 342.049 73.006 318.914 77.4231 303.569C86.633 271.578 109.259 239.295 139.5 214.999C164.893 194.598 182.672 192.927 207.438 208.609C225.426 219.999 244.879 239.944 265.258 267.891C283.226 292.53 296.841 316.887 304.629 338.326C311.43 357.041 313.618 372.424 310.956 382.812C309.216 389.609 303.131 395.901 292.871 401.515L292.649 401.636L292.44 401.519C291.665 401.088 290.778 400.557 289.804 399.94C283.788 396.13 276.557 389.925 268.901 383.357C258.494 374.425 247.75 365.205 234.839 357.029C217.994 346.362 201.375 340.12 184.029 337.948C142.889 332.797 110.74 349.315 82.3747 363.89L79.1037 365.569ZM210.281 199.006C183.472 182.03 162.367 183.981 135.004 205.963C103.64 231.161 80.1419 264.758 70.5319 298.139C65.262 316.451 61.7997 343.835 75.121 370.518C77.9602 369.111 80.9655 367.568 84.1388 365.937C111.733 351.761 142.929 335.731 182.141 340.64C198.593 342.701 214.414 348.656 230.507 358.846C243.059 366.795 253.638 375.875 263.868 384.656C271.697 391.373 279.092 397.718 285.473 401.758C289.562 404.346 291.233 404.915 291.772 405.039C292.191 404.86 292.967 404.453 293.55 404.147C306.389 397.402 314.08 389.363 316.414 380.254C319.461 368.353 317.274 352.046 309.914 331.785C301.926 309.8 288.028 284.912 269.725 259.81C248.9 231.255 228.9 210.796 210.281 199.006ZM74.6858 371.759L74.4937 371.377C60.8116 344.302 64.3089 316.487 69.6548 297.919C79.3209 264.34 102.945 230.555 134.469 205.229C162.204 182.947 183.604 180.974 210.793 198.19C229.503 210.038 249.581 230.57 270.47 259.214C288.82 284.38 302.759 309.344 310.775 331.407C318.202 351.85 320.398 368.349 317.3 380.444C314.891 389.846 307.028 398.103 293.926 404.985C293.225 405.354 292.353 405.812 291.923 405.973L291.808 406.017L291.691 405.998C291.151 405.907 289.416 405.395 284.96 402.574C278.527 398.5 271.11 392.138 263.259 385.399C253.05 376.638 242.496 367.578 229.995 359.662C214.009 349.54 198.303 343.625 181.978 341.581C143.041 336.705 111.981 352.665 84.5765 366.745C81.1827 368.488 78.0429 370.102 75.0801 371.564L74.6858 371.759ZM214.148 187.772C184.302 168.871 159.76 171.099 129.438 195.458C96.6315 221.816 72.0087 257.102 61.8857 292.27C55.5968 314.116 52.0326 346.615 70.6563 377.55C75.3682 375.462 80.9154 372.613 86.7809 369.6C113.224 356.014 143.195 340.614 179.926 345.213C195.231 347.131 210.025 352.718 225.151 362.296C237.234 369.948 247.596 378.842 257.618 387.441C265.675 394.355 273.272 400.874 280.117 405.209C289.652 411.244 291.567 410.239 296.193 407.807C311.402 399.818 320.636 389.815 323.642 378.077C327.138 364.421 324.876 346.391 316.92 324.488C308.676 301.8 294.416 276.228 275.68 250.535C254.282 221.194 233.58 200.076 214.148 187.772ZM70.2604 378.731L70.0658 378.409C51.0478 347.09 54.6429 314.16 61.0079 292.05C71.1884 256.684 95.9349 221.21 128.902 194.724C159.593 170.068 184.438 167.818 214.66 186.956C234.183 199.318 254.963 220.508 276.425 249.938C295.208 275.696 309.509 301.344 317.781 324.11C325.805 346.195 328.076 364.416 324.528 378.268C321.447 390.298 312.041 400.519 296.569 408.647C291.905 411.098 289.563 412.329 279.604 406.024C272.708 401.658 265.088 395.118 257.019 388.196C247.009 379.604 236.67 370.731 224.639 363.112C209.621 353.602 194.941 348.056 179.762 346.154C143.307 341.59 113.473 356.918 87.1492 370.444C81.1226 373.539 75.4317 376.463 70.6162 378.575L70.2604 378.731ZM218.28 174.424C185.113 153.421 156.644 155.962 123.087 182.921C88.677 210.566 62.8071 247.731 52.112 284.883C44.7363 310.507 41.1287 348.439 65.7415 383.791C66.6478 383.512 67.6501 383.162 68.7293 382.747C74.5438 380.513 81.79 376.791 89.4622 372.85C114.715 359.874 143.324 345.177 177.299 349.429C191.332 351.187 204.982 356.366 219.033 365.264C230.603 372.591 240.724 381.278 250.513 389.68C258.812 396.8 266.637 403.514 274 408.177C285.856 415.682 291.069 415.159 298.964 411.01C316.804 401.638 327.755 389.453 331.508 374.795C335.505 359.187 333.159 339.243 324.539 315.516C316.012 292.048 301.349 265.716 282.132 239.364C260.099 209.15 238.615 187.3 218.28 174.424ZM65.3422 384.883L65.1651 384.63C40.1497 348.908 43.7824 310.55 51.2349 284.664C61.9868 247.313 87.9803 209.961 122.552 182.186C156.471 154.936 185.254 152.37 218.792 173.608C239.218 186.542 260.779 208.464 282.876 238.767C302.141 265.183 316.844 291.592 325.399 315.137C334.087 339.047 336.439 359.183 332.393 374.984C328.566 389.936 317.445 402.34 299.34 411.85C291.116 416.171 285.708 416.729 273.488 408.993C266.073 404.299 258.226 397.564 249.917 390.434C240.137 382.041 230.039 373.374 218.52 366.08C204.577 357.25 191.041 352.111 177.135 350.37C143.436 346.152 114.963 360.78 89.8422 373.688C82.1341 377.647 74.8662 381.38 69.0033 383.633C67.7804 384.103 66.6503 384.493 65.6446 384.792L65.3422 384.883ZM222.412 161.076C186.023 138.033 153.432 140.904 116.736 170.384C80.7225 199.318 53.6055 238.359 42.339 277.496C34.184 305.826 30.4119 347.753 58.7526 386.615C59.7048 387.921 60.3872 388.501 60.6453 388.695C61.1073 388.796 63.5263 389.085 70.4768 386.414C76.7774 383.994 84.2449 380.157 92.1518 376.094C116.204 363.737 143.452 349.737 174.672 353.646C187.43 355.244 199.939 360.015 212.914 368.232C223.969 375.232 233.854 383.717 243.415 391.922C251.944 399.24 260 406.153 267.883 411.145C281.341 419.666 289.884 420.44 301.735 414.215C322.209 403.458 334.872 389.09 339.375 371.51C343.87 353.954 341.443 332.096 332.159 306.543C323.347 282.296 308.279 255.203 288.583 228.193C265.914 197.106 243.65 174.525 222.412 161.076ZM60.2168 389.572L60.1584 389.532C59.8744 389.331 59.0942 388.703 58.0083 387.213C29.4488 348.051 33.246 305.814 41.462 277.277C52.7844 237.94 80.0267 198.712 116.2 169.65C153.254 139.881 186.169 136.986 222.925 160.26C244.253 173.766 266.595 196.421 289.329 227.596C309.073 254.671 324.18 281.84 333.02 306.164C342.37 331.899 344.806 353.949 340.26 371.701C335.684 389.572 322.849 404.159 302.111 415.054C289.912 421.462 281.146 420.682 267.371 411.961C259.436 406.936 251.357 400.004 242.805 392.665C233.267 384.479 223.404 376.014 212.402 369.047C199.535 360.899 187.139 356.169 174.509 354.587C143.564 350.713 116.453 364.642 92.5327 376.932C84.5899 381.012 77.099 384.861 70.7507 387.299C63.2339 390.188 60.7138 389.716 60.2853 389.592L60.2168 389.572ZM226.544 147.728C187.032 122.709 150.122 125.924 110.385 157.847C72.768 188.069 44.4039 228.987 32.5661 270.11C23.8139 300.515 19.7878 345.545 50.3144 387.405C51.7302 389.347 53.2254 390.846 54.6371 391.741C61.8348 396.299 77.8741 388.058 94.8557 379.333C117.695 367.598 143.581 354.299 172.046 357.862C183.528 359.3 194.896 363.663 206.797 371.2C217.333 377.872 226.982 386.153 236.314 394.163C245.086 401.69 253.368 408.795 261.767 414.114C277.767 424.243 289.749 425.17 304.506 417.417C327.613 405.279 341.991 388.729 347.241 368.227C352.235 348.721 349.725 324.948 339.777 297.57C330.684 272.543 315.212 244.691 295.036 217.022C271.729 185.064 248.685 161.749 226.544 147.728ZM54.125 392.557C52.6232 391.606 51.0486 390.032 49.5702 388.003C18.8247 345.843 22.8767 300.502 31.6882 269.89C43.5828 228.569 72.0713 187.463 109.85 157.112C149.94 124.904 187.183 121.664 227.056 146.912C249.287 160.99 272.41 184.378 295.78 216.425C316.004 244.159 331.516 272.088 340.638 297.192C350.652 324.752 353.171 348.716 348.126 368.417C342.801 389.212 328.252 405.979 304.882 418.257C289.791 426.185 277.559 425.252 261.254 414.929C252.804 409.579 244.5 402.453 235.708 394.908C226.395 386.916 216.769 378.655 206.285 372.015C194.49 364.546 183.236 360.225 171.881 358.803C143.693 355.274 117.944 368.503 95.2257 380.176C78.0053 389.024 61.7412 397.38 54.125 392.557ZM230.675 134.381C188.14 107.445 146.716 111.021 104.035 145.31C64.8135 176.821 35.2023 219.616 22.7931 262.723C13.4429 295.204 9.16448 343.337 41.8763 388.195C43.9486 391.038 46.1839 393.229 48.5194 394.709C59.9053 401.919 77.3487 392.955 97.547 382.578C119.185 371.46 143.71 358.861 169.418 362.078C179.627 363.357 189.852 367.311 200.68 374.167C210.698 380.512 220.111 388.59 229.213 396.401C238.225 404.135 246.733 411.436 255.641 417.077C274.201 428.827 289.64 429.886 307.276 420.621C333.017 407.099 349.109 388.365 355.107 364.943C360.601 343.486 358.007 317.799 347.396 288.597C338.02 262.792 322.145 234.179 301.487 205.852C277.545 173.02 253.72 148.973 230.675 134.381ZM48.0073 395.525C45.5808 393.988 43.2679 391.724 41.132 388.793C8.20055 343.637 12.5057 295.191 21.9152 262.503C34.3812 219.198 64.1177 176.214 103.498 144.576C146.529 110.006 188.297 106.404 231.187 133.565C254.323 148.215 278.225 172.334 302.232 205.254C322.937 233.647 338.853 262.336 348.257 288.219C358.934 317.604 361.537 343.482 355.993 365.134C349.92 388.848 333.656 407.799 307.652 421.46C289.691 430.897 273.985 429.831 255.136 417.898C246.169 412.22 237.638 404.899 228.607 397.148C219.523 389.352 210.133 381.295 200.167 374.983C189.448 368.195 179.336 364.281 169.255 363.019C143.822 359.835 119.434 372.365 97.9178 383.42C77.469 393.926 59.8109 403 48.0073 395.525ZM97.4158 132.406L97.6831 132.773C56.2592 166.054 26.1911 209.581 13.0194 255.337C6.21004 278.994 4.28469 302.191 7.29843 324.283C10.5126 347.838 19.3066 369.609 33.4381 388.987C36.2405 392.829 39.2384 395.677 42.4134 397.688C57.9724 407.543 77.8374 397.334 100.24 385.822C120.675 375.322 143.836 363.421 166.793 366.295C187.43 368.879 205.064 384.011 222.119 398.647C247.482 420.411 273.708 442.915 310.048 423.824C338.42 408.919 356.228 388.002 362.973 361.659C369.45 336.365 370.913 281.037 307.938 194.68C236.517 96.7428 167.742 76.4898 97.6831 132.773L97.4158 132.406ZM41.9715 398.585C38.6938 396.509 35.5974 393.566 32.6947 389.585C18.4747 370.087 9.62473 348.179 6.38963 324.469C3.35751 302.242 5.29289 278.908 12.1415 255.117C25.3717 209.16 55.5609 165.45 97.1485 132.038C135.183 101.482 173.7 93.4361 211.631 108.126C243.863 120.609 275.607 148.726 308.683 194.082C330.172 223.551 346.051 252.205 355.877 279.246C367.217 310.457 369.902 338.249 363.859 361.849C357.039 388.485 339.061 409.619 310.423 424.663C273.54 444.039 247.09 421.341 221.509 399.389C204.549 384.836 187.011 369.788 166.629 367.236C143.949 364.396 120.924 376.227 100.608 386.666C77.9476 398.309 57.8463 408.638 41.9715 398.585Z" fill="#4762A7"/>
</g>
</g>
<mask id="mask2" mask-type="alpha" maskUnits="userSpaceOnUse" x="0" y="173" width="313" height="215">
<path fill-rule="evenodd" clip-rule="evenodd" d="M0 173.083H312.635V387.047H0V173.083Z" fill="white"/>
</mask>
<g mask="url(#mask2)">
<path fill-rule="evenodd" clip-rule="evenodd" d="M271.001 242.238C306.47 278.204 330.938 324.977 294.925 360.663C259.788 395.487 191.719 389.829 134.359 377.652C73.0097 364.63 5.45319 344.046 0.497354 298.161C-5.32088 244.298 40.3798 190.64 112.541 175.721C177.519 162.287 231.878 202.566 271.001 242.238Z" fill="#1C3557"/>
</g>
<path fill-rule="evenodd" clip-rule="evenodd" d="M47.232 389.648C44.1218 381.642 41.0123 373.637 37.9021 365.631C37.7694 365.301 37.2405 365.433 37.3725 365.764C40.4827 373.77 43.5929 381.775 46.7031 389.779C46.8352 390.11 47.3648 389.978 47.232 389.648Z" fill="#E4E7F4"/>
<path fill-rule="evenodd" clip-rule="evenodd" d="M178.523 367.635C178.128 366.016 177.272 363.316 176.078 363.855C175.353 364.193 175.485 365.408 175.55 366.016C175.616 366.96 175.815 367.905 176.078 368.85C175.748 368.58 173.5 367.028 172.512 367.095C172.314 367.095 172.182 367.366 172.314 367.568C173.434 369.255 174.693 370.943 176.21 372.293C177.133 373.035 178.062 373.441 179.117 372.698C180.238 371.955 180.508 370.605 180.573 369.323C180.639 368.445 180.838 364.463 179.842 364.328C178.721 364.125 178.59 367.163 178.523 367.635Z" fill="#FCBB41"/>
<path fill-rule="evenodd" clip-rule="evenodd" d="M119.862 371.955C118.742 372.562 118.28 374.048 118.016 374.318C118.016 373.912 118.807 371.618 118.28 371.483C117.753 371.348 116.757 373.17 116.428 373.71C116.361 373.103 116.757 371.212 116.229 371.212C115.637 371.212 115.505 371.82 115.439 372.293C115.241 373.305 114.582 378.435 116.559 378.3C117.423 378.233 118.345 377.018 118.807 376.41C119.466 375.533 120.462 374.25 120.528 373.103C120.66 372.495 120.462 371.618 119.862 371.955Z" fill="#FCBB41"/>
<path fill-rule="evenodd" clip-rule="evenodd" d="M39.3416 363.518C38.4834 363.315 39.3416 365.137 39.2757 366.218C38.7477 364.935 36.898 362.775 36.2375 363.315C35.1142 364.26 36.3693 367.095 36.4353 367.298C36.3693 367.23 34.5856 365.003 34.3878 365.61C34.0575 366.487 37.2942 370.605 38.2843 370.943C40.0687 371.618 40.5308 369.187 40.6633 367.905C40.6633 367.028 40.5967 363.855 39.3416 363.518Z" fill="#E4E7F4"/>
<path fill-rule="evenodd" clip-rule="evenodd" d="M43.5697 389.1L40.9277 384.443C40.7286 384.106 40.2665 384.443 40.4649 384.713C41.3238 386.266 42.2487 387.818 43.107 389.37C43.3054 389.708 43.7675 389.37 43.5697 389.1Z" fill="#E4E7F4"/>
<path fill-rule="evenodd" clip-rule="evenodd" d="M288.198 383.41C287.341 385.466 286.418 387.523 285.561 389.514C285.422 389.845 285.89 390.111 286.022 389.779C286.879 387.722 287.802 385.665 288.666 383.675C288.798 383.41 288.33 383.078 288.198 383.41Z" fill="#E4E7F4"/>
<path fill-rule="evenodd" clip-rule="evenodd" d="M209.249 282.028C203.638 275.261 197.231 267.697 191.547 260.995C194.126 259.005 196.763 257.081 199.538 255.356C204.495 261.194 210.574 268.559 215.526 274.464C213.613 277.251 211.233 279.308 209.249 282.028Z" fill="#F1F7ED"/>
<path fill-rule="evenodd" clip-rule="evenodd" d="M210.838 276.786C215.591 273.137 224.314 266.038 228.876 262.189C233.629 258.142 243.934 263.118 239.114 267.166C233.234 272.142 224.511 279.374 218.367 284.018C216.323 285.611 212.42 285.677 210.508 283.554C210.047 283.023 209.585 282.559 209.183 282.028C211.102 279.175 208.985 279.639 210.838 276.786Z" fill="#F1F7ED"/>
<path fill-rule="evenodd" clip-rule="evenodd" d="M199.538 255.356C197.362 252.237 194.191 247.128 192.734 247.261C191.218 247.394 194.653 249.583 194.586 251.441C194.521 253.299 188.904 245.602 187.183 246.199C185.403 246.797 190.888 249.915 190.354 250.711C189.761 251.574 186.589 246.465 185.271 247.261C183.946 248.057 189.102 251.773 188.508 252.569C187.915 253.431 184.876 247.991 183.682 249.451C182.891 250.446 186.458 253.1 187.051 254.493C187.651 255.82 183.748 250.446 183.089 251.706C182.43 252.967 189.431 258.474 191.548 260.995C193.729 263.517 199.538 255.356 199.538 255.356Z" fill="#7A86C1"/>
<path fill-rule="evenodd" clip-rule="evenodd" d="M193.927 264.645C193.994 264.578 193.994 264.578 193.927 264.645C193.994 264.578 193.994 264.578 193.927 264.645C193.994 264.578 193.994 264.578 193.927 264.645C196.433 262.057 198.944 259.536 201.523 257.147C201.786 256.882 202.116 257.346 201.852 257.611C199.472 259.801 197.231 262.123 194.983 264.445C194.983 264.512 194.916 264.512 194.916 264.578L194.323 265.109C194.125 265.242 193.729 264.844 193.927 264.645Z" fill="#7A86C1"/>
<path fill-rule="evenodd" clip-rule="evenodd" d="M201.588 257.744C200.863 256.882 200.203 256.086 199.538 255.289C196.835 257.081 194.126 258.939 191.548 260.929C192.537 262.057 193.526 263.251 194.586 264.512C196.63 261.991 199.076 259.867 201.588 257.744Z" fill="#7A86C1"/>
<path fill-rule="evenodd" clip-rule="evenodd" d="M216.389 275.791C216.191 275.194 215.927 274.663 215.525 274.132C215.328 273.801 214.8 274.132 215.064 274.398C215.393 274.862 215.658 275.393 215.855 275.924C215.927 276.322 216.455 276.189 216.389 275.791Z" fill="#ACCAE9"/>
<path fill-rule="evenodd" clip-rule="evenodd" d="M194.718 257.678C193.459 256.484 193.064 254.758 193.591 253.1C193.729 252.768 193.129 252.569 193.064 252.967C192.47 254.825 192.932 256.815 194.323 258.142C194.586 258.341 194.982 257.943 194.718 257.678Z" fill="#FEFEFE"/>
<path fill-rule="evenodd" clip-rule="evenodd" d="M104.605 241.621C99.9142 246.73 93.9022 253.365 89.0796 258.739C83.8601 260.995 74.8754 264.644 69.8544 266.569C64.0408 268.891 67.212 278.113 73.0255 275.791C80.1602 273.004 86.4359 270.549 93.4388 267.365C93.5719 267.298 93.6379 267.232 93.7691 267.166C94.6288 266.569 95.4219 265.706 95.8834 265.109C102.226 258.009 105.728 253.763 112.201 246.73C109.89 244.806 107.115 243.413 104.605 241.621Z" fill="#F06057"/>
<path fill-rule="evenodd" clip-rule="evenodd" d="M107.974 251.441C109.295 249.981 110.682 248.455 112.201 246.73C109.824 244.74 107.049 243.413 104.538 241.621C103.482 242.816 102.358 244.01 101.17 245.337C103.614 247.195 105.728 249.384 107.974 251.441Z" fill="#ACCAE9"/>
<path fill-rule="evenodd" clip-rule="evenodd" d="M104.604 241.621C105.991 239.896 109.229 236.844 111.541 236.645C113.854 236.446 110.419 237.972 109.824 239.631C109.229 241.289 116.034 236.38 117.688 236.977C119.337 237.574 113.787 239.498 113.985 240.427C114.18 241.356 118.875 238.304 119.732 239.432C120.589 240.56 114.649 242.285 114.847 243.214C115.045 244.142 119.732 240.095 120.26 241.82C120.589 242.948 116.429 244.408 115.44 245.337C114.451 246.332 119.93 243.744 120.128 245.071C120.326 246.398 112.334 247.924 109.559 249.45C106.851 251.043 104.604 241.621 104.604 241.621Z" fill="#ACCAE9"/>
<path fill-rule="evenodd" clip-rule="evenodd" d="M109.824 240.759C109.757 240.427 109.229 240.361 109.229 240.759C109.361 241.953 109.361 243.944 108.106 244.541C107.775 244.673 108.04 245.204 108.37 245.005C109.89 244.408 109.956 242.152 109.824 240.759Z" fill="#7A86C1"/>
<path fill-rule="evenodd" clip-rule="evenodd" d="M89.0128 259.005C88.8809 259.536 88.6825 260.066 88.5506 260.597C88.4194 260.929 89.0128 261.128 89.08 260.73C89.2119 260.199 89.4103 259.668 89.5422 259.138C89.6734 258.806 89.08 258.673 89.0128 259.005Z" stroke="#E45552"/>
<path fill-rule="evenodd" clip-rule="evenodd" d="M108.436 251.508C106.124 249.185 103.877 246.929 101.565 244.607C101.302 244.342 100.905 244.74 101.17 245.005C103.481 247.328 105.728 249.583 108.04 251.906C108.305 252.171 108.701 251.773 108.436 251.508Z" fill="#ACCAE9"/>
<path fill-rule="evenodd" clip-rule="evenodd" d="M197.164 356.339C192.141 358.594 186.788 356.804 184.546 351.695C182.297 346.652 184.151 339.951 189.234 337.894C195.575 335.307 200.203 338.292 202.446 343.334C204.693 348.377 202.181 354.083 197.164 356.339Z" fill="#8CCDD1"/>
<path fill-rule="evenodd" clip-rule="evenodd" d="M196.63 351.363C196.499 351.164 196.433 350.7 196.63 350.501C196.835 350.301 197.099 350.368 197.23 350.567C197.626 351.164 198.549 350.434 198.087 349.837C197.56 349.107 196.499 349.041 195.839 349.572C195.114 350.169 195.18 351.296 195.642 352.027C196.103 352.69 197.033 351.96 196.63 351.363Z" fill="#477C9D"/>
<path fill-rule="evenodd" clip-rule="evenodd" d="M196.301 349.439C196.169 349.306 196.037 349.24 195.971 349.041C195.839 348.311 194.719 348.51 194.85 349.24C194.916 349.704 195.18 350.169 195.642 350.434C196.234 350.766 196.901 349.837 196.301 349.439Z" fill="#477C9D"/>
<path fill-rule="evenodd" clip-rule="evenodd" d="M199.538 342.007C200.468 341.079 201.391 340.15 202.247 339.287C202.775 338.757 202.05 337.894 201.522 338.425C200.599 339.353 199.67 340.282 198.812 341.145C198.285 341.609 199.011 342.539 199.538 342.007Z" fill="#477C9D"/>
<path fill-rule="evenodd" clip-rule="evenodd" d="M200.731 355.543C200.072 354.813 199.406 354.083 198.681 353.287C198.219 352.756 197.296 353.486 197.824 354.017C198.483 354.747 199.142 355.477 199.867 356.273C200.335 356.87 201.258 356.14 200.731 355.543Z" fill="#477C9D"/>
<path fill-rule="evenodd" clip-rule="evenodd" d="M186.26 343.268C185.6 342.87 184.941 342.406 184.282 342.008C184.077 341.875 183.814 341.742 183.616 341.676C183.551 341.543 183.484 341.411 183.286 341.344C183.089 341.278 182.891 341.211 182.759 341.278C182.495 341.344 182.297 341.543 182.297 341.809C182.232 342.406 183.089 342.671 183.484 342.87C184.282 343.268 184.941 343.733 185.667 344.197C186.194 344.529 186.919 343.6 186.26 343.268Z" fill="#477C9D"/>
<path fill-rule="evenodd" clip-rule="evenodd" d="M184.611 347.05C183.551 347.05 182.562 347.315 181.638 347.647C180.972 347.913 181.44 348.974 182.1 348.709C182.957 348.377 183.88 348.178 184.81 348.178C185.534 348.178 185.337 347.05 184.611 347.05Z" fill="#477C9D"/>
<path fill-rule="evenodd" clip-rule="evenodd" d="M182.957 342.074C183.418 341.145 182.957 340.15 182.495 339.353C182.166 338.69 181.111 339.155 181.441 339.818C181.705 340.283 182.1 340.814 181.968 341.411C181.902 341.675 181.705 342.074 181.375 341.941C180.709 341.675 180.247 342.738 180.979 343.002C181.836 343.268 182.627 342.804 182.957 342.074Z" fill="#477C9D"/>
<path fill-rule="evenodd" clip-rule="evenodd" d="M203.573 338.69C203.243 338.823 202.709 339.022 202.379 338.757C202.247 338.624 202.182 338.425 202.314 338.358C202.577 338.226 202.577 337.762 202.379 337.563C202.182 337.297 201.852 337.297 201.588 337.496C200.863 337.96 200.995 338.955 201.457 339.486C202.116 340.217 203.177 340.017 204.034 339.752C204.76 339.486 204.298 338.425 203.573 338.69Z" fill="#477C9D"/>
<path fill-rule="evenodd" clip-rule="evenodd" d="M200.731 357.401C200.533 356.936 200.929 356.405 201.39 356.671C201.984 357.069 202.709 356.141 202.05 355.742C201.457 355.344 200.665 355.344 200.072 355.809C199.472 356.273 199.341 357.136 199.67 357.799C200.006 358.529 201.061 358.064 200.731 357.401Z" fill="#477C9D"/>
<path fill-rule="evenodd" clip-rule="evenodd" d="M180.979 350.102C181.572 349.704 182.1 349.041 181.902 348.311C181.705 347.581 180.841 347.183 180.181 347.647C179.918 347.847 179.918 348.244 180.115 348.443C180.313 348.642 180.511 348.709 180.775 348.576V348.642V348.709C180.643 348.908 180.445 349.107 180.247 349.24C179.984 349.439 179.984 349.837 180.181 350.036C180.379 350.301 180.709 350.301 180.979 350.102Z" fill="#477C9D"/>
<path fill-rule="evenodd" clip-rule="evenodd" d="M188.574 357.599C189.234 356.671 188.772 355.277 187.585 355.078C187.051 355.013 186.524 355.145 186.128 355.543C185.667 356.008 185.996 356.737 186.656 356.737C186.919 356.737 187.051 356.538 187.117 356.34C187.519 356.206 187.915 356.604 187.651 357.003C187.256 357.533 188.178 358.197 188.574 357.599Z" fill="#477C9D"/>
<path fill-rule="evenodd" clip-rule="evenodd" d="M196.367 341.477C196.433 341.145 196.367 340.88 196.037 340.747C195.774 340.614 195.378 340.747 195.312 341.079C195.246 341.344 194.916 341.544 194.652 341.41C194.257 341.212 194.323 340.614 194.521 340.349C194.916 339.752 193.993 339.088 193.591 339.685C192.998 340.549 193.064 341.876 194.059 342.406C194.85 342.871 196.103 342.472 196.367 341.477Z" fill="#477C9D"/>
<path fill-rule="evenodd" clip-rule="evenodd" d="M189.102 349.24L190.756 348.908C191.481 348.775 191.284 347.647 190.559 347.78C189.959 347.913 189.431 347.979 188.838 348.112C188.376 347.382 187.256 347.05 186.458 346.851C185.733 346.652 185.337 347.714 186.062 347.913C186.524 348.045 187.783 348.311 187.981 348.842C188.179 349.505 187.256 349.97 186.788 350.235C186.194 350.633 186.919 351.496 187.519 351.098C188.245 350.633 188.97 350.036 189.102 349.24Z" fill="#477C9D"/>
<path fill-rule="evenodd" clip-rule="evenodd" d="M193.796 344.131C194.323 343.666 194.718 343.069 194.982 342.406C195.245 341.676 194.125 341.278 193.927 342.008C193.729 342.472 193.459 342.936 193.064 343.268C192.536 343.733 193.261 344.662 193.796 344.131Z" fill="#477C9D"/>
<path fill-rule="evenodd" clip-rule="evenodd" d="M204.1 348.576C203.771 348.377 203.374 348.045 203.441 347.581C203.441 347.316 203.704 346.984 203.968 346.984C204.693 347.05 204.825 345.856 204.1 345.856C203.374 345.79 202.709 346.254 202.445 346.918C201.786 346.785 201.061 346.851 200.402 347.05C200.138 347.117 200.006 347.581 200.138 347.78C200.269 348.112 200.599 348.178 200.863 348.045C201.325 347.913 201.852 347.913 202.379 347.979C202.577 348.643 203.111 349.173 203.771 349.505C204.363 349.97 204.759 348.908 204.1 348.576Z" fill="#477C9D"/>
<path fill-rule="evenodd" clip-rule="evenodd" d="M198.549 337.231C199.011 336.634 198.088 335.97 197.626 336.567C197.231 337.098 196.366 336.832 196.366 336.169C196.433 335.439 195.245 335.307 195.245 336.036C195.18 336.832 195.642 337.629 196.433 337.961C197.231 338.226 198.088 337.894 198.549 337.231Z" fill="#477C9D"/>
<path fill-rule="evenodd" clip-rule="evenodd" d="M189.893 341.742C189.563 340.88 189.035 340.084 188.376 339.42C188.574 338.823 188.442 338.093 188.311 337.496C188.113 336.766 186.985 336.965 187.183 337.694C187.315 338.093 187.519 338.757 187.248 339.221C187.117 339.42 186.788 339.619 186.656 339.42C186.26 338.823 185.337 339.553 185.799 340.15C186.26 340.814 187.117 340.814 187.717 340.415C188.178 340.946 188.574 341.543 188.837 342.273C189.102 342.87 190.156 342.406 189.893 341.742Z" fill="#477C9D"/>
<path fill-rule="evenodd" clip-rule="evenodd" d="M193.261 357.136C193.129 356.339 192.47 355.676 191.68 355.609C190.888 355.543 190.09 356.073 189.893 356.804C189.629 357.534 190.756 357.931 190.954 357.202C191.152 356.604 192.009 356.604 192.141 357.268C192.272 358.064 193.393 357.865 193.261 357.136Z" fill="#477C9D"/>
<path fill-rule="evenodd" clip-rule="evenodd" d="M193.861 303.658C186.26 315.866 172.125 319.781 159.902 312.15C147.679 304.52 141.996 287.469 149.993 275.459C159.902 260.663 174.235 260.199 186.458 267.829C198.681 275.459 201.522 291.383 193.861 303.658Z" fill="#A9D9DB"/>
<path fill-rule="evenodd" clip-rule="evenodd" d="M167.629 267.63C167.233 265.441 167.101 263.318 167.167 261.128C167.167 260.398 166.047 260.332 166.047 261.062C165.98 263.384 166.178 265.64 166.574 267.896C166.64 268.625 167.76 268.36 167.629 267.63Z" fill="#69C5B0"/>
<path fill-rule="evenodd" clip-rule="evenodd" d="M162.216 279.109C161.748 278.644 161.352 278.18 161.023 277.649C160.825 277.383 160.561 277.251 160.232 277.383C159.968 277.516 159.836 277.914 159.968 278.18C160.363 278.777 160.825 279.374 161.352 279.838C161.886 280.435 162.743 279.639 162.216 279.109Z" fill="#7A86C1"/>
<path fill-rule="evenodd" clip-rule="evenodd" d="M158.649 288.928C157.192 288.995 155.742 288.862 154.351 288.53C153.625 288.398 153.296 289.459 154.021 289.658C155.544 289.99 157.06 290.189 158.649 290.123C159.308 290.056 159.375 288.928 158.649 288.928Z" fill="#7A86C1"/>
<path fill-rule="evenodd" clip-rule="evenodd" d="M148.998 297.886C147.612 298.35 146.294 298.947 144.969 299.544C144.31 299.876 144.837 300.871 145.496 300.54C146.756 299.942 148.009 299.412 149.268 298.947C149.927 298.748 149.663 297.62 148.998 297.886Z" fill="#477C9D"/>
<path fill-rule="evenodd" clip-rule="evenodd" d="M193.525 269.09C191.811 270.616 190.09 272.208 188.31 273.734C187.783 274.199 188.508 275.061 189.102 274.597C190.822 273.071 192.536 271.479 194.323 269.953C194.85 269.422 194.125 268.559 193.525 269.09Z" fill="#477C9D"/>
<path fill-rule="evenodd" clip-rule="evenodd" d="M182.957 316.53C182.495 315.402 181.968 314.34 181.309 313.345C180.913 312.748 179.918 313.279 180.313 313.876C180.979 314.871 181.506 315.999 181.968 317.061C182.232 317.79 183.287 317.193 182.957 316.53Z" fill="#477C9D"/>
<path fill-rule="evenodd" clip-rule="evenodd" d="M168.69 259.735C168.953 259.071 167.826 258.74 167.563 259.403C167.299 260.066 166.507 259.867 166.244 259.337C165.981 258.673 164.919 259.204 165.255 259.867C165.518 260.597 166.244 261.062 167.035 260.995C167.826 260.995 168.427 260.465 168.69 259.735Z" fill="#477C9D"/>
<path fill-rule="evenodd" clip-rule="evenodd" d="M195.905 269.024C195.509 269.09 194.323 268.957 194.718 268.227C195.048 267.564 194.126 266.967 193.729 267.63C193.328 268.294 193.459 269.09 193.994 269.621C194.52 270.218 195.377 270.284 196.169 270.085C196.901 269.953 196.631 268.891 195.905 269.024Z" fill="#477C9D"/>
<path fill-rule="evenodd" clip-rule="evenodd" d="M145.76 300.009C145.233 299.08 143.585 298.748 142.655 298.615C141.93 298.482 141.93 299.677 142.589 299.743C142.991 299.809 143.321 299.876 143.651 300.009C143.914 300.075 144.574 300.274 144.64 300.539C144.706 300.738 144.508 301.269 144.376 301.468C144.244 301.866 144.046 302.198 143.783 302.596C143.387 303.193 144.376 303.857 144.771 303.193C145.365 302.463 146.294 300.937 145.76 300.009Z" fill="#477C9D"/>
<path fill-rule="evenodd" clip-rule="evenodd" d="M183.353 318.056C183.484 318.122 183.616 318.188 183.748 318.255C184.414 318.52 184.743 317.458 184.078 317.127C183.616 316.928 183.419 316.53 182.891 316.53C182.43 316.53 182.034 316.861 181.902 317.259C181.506 318.188 181.441 319.25 181.638 320.312C181.771 321.041 182.891 320.776 182.76 320.046C182.627 319.449 182.694 318.852 182.825 318.255C182.825 318.122 182.891 317.989 182.957 317.857C183.023 317.658 182.825 317.724 183.089 317.724C183.089 317.79 183.221 317.989 183.353 318.056Z" fill="#477C9D"/>
<path fill-rule="evenodd" clip-rule="evenodd" d="M199.472 295.165C199.142 295.032 198.879 294.833 198.615 294.568C198.483 294.435 198.153 294.17 198.153 293.971C198.153 293.772 198.549 293.573 198.747 293.506C199.011 293.307 199.274 293.241 199.604 293.175C200.336 292.976 200.072 291.914 199.341 292.047C198.483 292.246 197.231 292.843 197.033 293.838C196.835 294.9 198.022 295.762 198.812 296.16C199.538 296.492 200.138 295.497 199.472 295.165Z" fill="#477C9D"/>
<path fill-rule="evenodd" clip-rule="evenodd" d="M161.154 277.251V275.128C161.154 274.398 160.034 274.331 160.034 275.061V276.322V276.919V277.251C160.034 277.384 160.034 277.384 159.968 277.317C159.77 277.384 159.111 277.052 158.913 276.985C158.511 276.786 158.116 276.587 157.719 276.322C157.127 275.924 156.467 276.919 157.127 277.317C157.654 277.649 158.248 277.981 158.847 278.18C159.375 278.379 159.968 278.578 160.495 278.445C161.023 278.18 161.154 277.715 161.154 277.251Z" fill="#477C9D"/>
<path fill-rule="evenodd" clip-rule="evenodd" d="M187.321 284.616C186.656 284.682 185.996 284.682 185.403 284.549C184.875 284.483 183.484 284.218 183.353 283.554C183.221 282.957 183.88 282.161 184.216 281.763C184.678 281.166 185.205 280.568 185.667 279.905C186.062 279.308 185.073 278.644 184.678 279.308C184.018 280.369 182.232 281.895 182.166 283.355C182.1 283.421 182.034 283.488 182.034 283.554C181.902 283.554 181.441 283.82 181.375 283.886C181.177 284.019 180.913 284.151 180.709 284.218C180.181 284.483 179.654 284.748 179.127 285.08C178.467 285.412 178.995 286.473 179.654 286.075C180.379 285.677 181.111 285.346 181.836 284.947C182.1 284.815 182.364 284.682 182.627 284.549C183.089 285.014 183.814 285.279 184.414 285.412C185.403 285.677 186.392 285.744 187.387 285.677C187.981 285.677 188.047 284.549 187.321 284.616Z" fill="#477C9D"/>
<path fill-rule="evenodd" clip-rule="evenodd" d="M177.076 271.744C177.472 271.081 176.483 270.483 176.087 271.147C175.824 271.611 175.296 272.208 174.703 272.275C173.839 272.341 173.707 271.213 173.575 270.616C173.444 269.886 172.323 270.152 172.455 270.881C172.586 271.678 172.916 272.673 173.641 273.137C173.509 274 173.312 274.796 172.916 275.592C172.586 276.256 173.575 276.853 173.905 276.189C174.301 275.327 174.571 274.398 174.769 273.403C175.692 273.336 176.615 272.54 177.076 271.744Z" fill="#477C9D"/>
<path fill-rule="evenodd" clip-rule="evenodd" d="M170.272 292.909C170.8 292.379 171.4 291.914 171.928 291.383C172.455 290.919 171.729 290.056 171.13 290.521C170.536 291.052 169.943 291.582 169.35 292.113C168.361 291.649 167.101 292.246 166.047 292.578C165.321 292.777 165.585 293.905 166.31 293.706C167.101 293.44 168.361 292.777 169.085 293.374C169.943 294.037 169.811 295.298 169.35 296.094C168.954 296.758 169.943 297.355 170.339 296.691C170.998 295.563 171.063 294.037 170.272 292.909Z" fill="#477C9D"/>
<path fill-rule="evenodd" clip-rule="evenodd" d="M182.1 303.791C181.638 303.326 181.111 302.862 180.445 302.862C180.445 302.795 180.379 302.729 180.313 302.663C180.181 302.464 180.05 302.198 180.05 301.999C180.05 301.269 178.863 301.203 178.928 301.933C178.928 302.464 179.127 302.928 179.39 303.326C178.995 303.857 178.995 304.653 179.061 305.317C179.193 306.046 180.247 305.781 180.181 305.051C180.116 304.786 179.984 303.99 180.445 303.99C180.709 303.99 181.045 304.388 181.243 304.587C181.77 305.118 182.627 304.321 182.1 303.791Z" fill="#477C9D"/>
<path fill-rule="evenodd" clip-rule="evenodd" d="M161.418 298.284C161.82 297.819 162.15 297.288 162.546 296.824C163.007 296.227 162.018 295.63 161.55 296.227C161.221 296.691 160.891 297.156 160.495 297.62C160.1 297.421 159.572 297.421 159.111 297.554C158.379 297.753 158.649 298.881 159.375 298.682C160.298 298.416 161.023 299.213 160.693 300.075C160.429 300.739 161.484 301.07 161.82 300.407C162.018 299.677 161.886 298.881 161.418 298.284Z" fill="#477C9D"/>
<path fill-rule="evenodd" clip-rule="evenodd" d="M192.8 298.549C192.537 298.284 192.207 297.952 192.14 297.554C192.009 297.089 192.537 296.89 192.932 296.957C193.664 297.156 193.994 296.028 193.261 295.829C192.537 295.63 191.745 295.895 191.283 296.492C191.218 296.492 191.218 296.426 191.152 296.426C190.756 296.36 190.288 296.293 189.893 296.094C189.629 295.961 189.299 296.028 189.102 296.293C188.969 296.559 189.035 296.957 189.299 297.089C189.826 297.355 190.426 297.554 191.02 297.554C191.086 298.217 191.548 298.814 192.009 299.279C192.47 299.876 193.328 299.08 192.8 298.549Z" fill="#477C9D"/>
<path fill-rule="evenodd" clip-rule="evenodd" d="M198.483 285.279C197.955 285.478 197.296 285.213 197.033 284.682C196.769 284.151 197.164 283.421 197.758 283.222C198.483 283.023 198.22 281.895 197.494 282.094C196.301 282.493 195.575 283.753 195.905 284.947C196.235 286.075 197.56 286.739 198.681 286.407C199.472 286.208 199.209 285.08 198.483 285.279Z" fill="#477C9D"/>
<path fill-rule="evenodd" clip-rule="evenodd" d="M196.703 284.947C196.631 284.682 196.301 284.417 196.037 284.549C195.509 284.748 194.916 284.881 194.389 285.08C194.125 285.146 193.861 285.478 193.994 285.744C194.059 286.009 194.389 286.274 194.653 286.142C195.18 285.943 195.774 285.81 196.301 285.611C196.564 285.545 196.769 285.279 196.703 284.947Z" fill="#477C9D"/>
<path fill-rule="evenodd" clip-rule="evenodd" d="M154.087 288.862C153.889 287.8 152.966 286.871 151.839 286.938C151.114 287.004 151.048 288.132 151.773 288.066C152.373 288.066 152.9 288.53 152.966 289.127C153.032 289.857 152.505 290.454 151.905 290.786C151.246 291.184 151.773 292.179 152.439 291.781C153.494 291.184 154.351 290.056 154.087 288.862Z" fill="#477C9D"/>
<path fill-rule="evenodd" clip-rule="evenodd" d="M168.493 308.17C168.559 308.103 168.624 308.103 168.624 308.037L170.47 305.118C170.866 304.52 169.877 303.857 169.482 304.52L167.628 307.44C167.496 307.639 167.496 307.772 167.563 307.904C166.574 307.772 165.519 308.369 164.985 309.231C164.589 309.828 165.585 310.492 165.98 309.828C166.31 309.298 166.969 308.9 167.563 309.032C168.229 309.165 168.624 310.094 168.09 310.558C167.563 311.089 168.361 311.952 168.888 311.421C169.877 310.492 169.679 308.833 168.493 308.17Z" fill="#477C9D"/>
<path fill-rule="evenodd" clip-rule="evenodd" d="M159.045 310.425C159.704 309.696 160.364 308.899 161.089 308.17C161.55 307.639 160.825 306.776 160.297 307.307C159.573 308.103 158.847 308.899 158.181 309.696C158.116 309.762 158.116 309.828 158.116 309.828C157.39 309.563 156.533 309.563 155.741 309.961C155.076 310.293 155.61 311.288 156.27 310.956C157.918 310.094 159.441 311.752 158.781 313.411C158.51 314.075 159.573 314.406 159.902 313.743C160.364 312.482 159.902 311.222 159.045 310.425Z" fill="#477C9D"/>
<path fill-rule="evenodd" clip-rule="evenodd" d="M191.02 307.904C190.492 307.971 190.024 307.573 189.497 307.374C189.035 307.241 188.442 307.307 188.046 307.639C187.183 308.302 187.322 309.696 187.519 310.625C187.716 311.354 188.837 311.089 188.64 310.359C188.508 309.895 188.178 308.369 189.035 308.435C189.694 308.501 190.156 309.032 190.888 308.966C191.679 309.032 191.745 307.838 191.02 307.904Z" fill="#477C9D"/>
<path fill-rule="evenodd" clip-rule="evenodd" d="M158.584 265.839C158.313 265.175 157.258 265.374 157.456 266.104C157.852 267.298 156.533 268.227 155.61 267.365C155.076 266.9 154.219 267.63 154.747 268.161C155.544 268.891 156.73 269.09 157.654 268.493C158.511 267.895 158.913 266.834 158.584 265.839Z" fill="#477C9D"/>
<path fill-rule="evenodd" clip-rule="evenodd" d="M158.847 269.09C158.577 268.626 158.248 268.161 157.983 267.63C157.588 266.967 156.599 267.498 156.994 268.161C157.259 268.626 157.588 269.09 157.851 269.621C158.181 270.284 159.176 269.754 158.847 269.09Z" fill="#477C9D"/>
<path fill-rule="evenodd" clip-rule="evenodd" d="M185.139 265.64C184.414 266.9 182.562 265.772 183.353 264.512C183.748 263.848 182.759 263.318 182.364 263.915C181.771 264.91 182.034 266.37 183.089 267.033C184.151 267.63 185.535 267.232 186.128 266.171C186.524 265.64 185.535 265.043 185.139 265.64Z" fill="#477C9D"/>
<path fill-rule="evenodd" clip-rule="evenodd" d="M166.64 350.633C161.352 359.126 151.509 361.846 143.057 356.538C134.599 351.23 130.636 339.42 136.181 331.06C143.057 320.776 153.032 320.444 161.484 325.752C169.943 331.127 171.927 342.14 166.64 350.633Z" fill="#8CCDD1"/>
<path fill-rule="evenodd" clip-rule="evenodd" d="M138.166 326.747C137.77 326.084 136.847 326.681 137.177 327.344C137.506 327.942 138.099 328.937 137.506 329.534C137.045 329.933 136.313 329.866 135.72 329.866C134.994 329.8 134.994 330.928 135.72 330.993C136.715 331.06 137.902 330.993 138.495 330.132C139.286 329.003 138.758 327.742 138.166 326.747Z" fill="#69C5B0"/>
<path fill-rule="evenodd" clip-rule="evenodd" d="M157.851 319.781C157.192 320.113 156.27 319.582 156.203 318.852C156.137 318.122 154.944 318.122 155.076 318.852C155.142 319.449 155.406 319.913 155.808 320.312C155.611 321.174 155.406 322.037 155.208 322.899C155.076 323.629 156.137 323.894 156.335 323.231C156.533 322.435 156.665 321.705 156.863 320.909C157.39 321.041 157.983 321.041 158.511 320.776C159.111 320.511 158.511 319.515 157.851 319.781Z" fill="#477C9D"/>
<path fill-rule="evenodd" clip-rule="evenodd" d="M171.327 335.041C170.602 334.974 170.272 334.113 170.866 333.647C171.466 333.25 170.866 332.255 170.272 332.652C169.679 333.117 169.415 333.781 169.415 334.377C168.822 334.776 168.156 335.173 167.496 335.44C166.837 335.704 167.101 336.832 167.826 336.567C168.558 336.301 169.218 335.97 169.877 335.505C170.207 335.904 170.668 336.169 171.327 336.236C172.125 336.236 172.125 335.041 171.327 335.041Z" fill="#477C9D"/>
<path fill-rule="evenodd" clip-rule="evenodd" d="M161.286 358.661C160.891 357.599 159.638 356.87 158.577 357.467C157.588 357.998 157.39 359.391 158.115 360.188C158.577 360.718 159.44 359.921 158.913 359.391C158.643 359.126 158.847 358.594 159.111 358.462C159.506 358.263 160.034 358.594 160.166 358.993C160.429 359.657 161.55 359.391 161.286 358.661Z" fill="#477C9D"/>
<path fill-rule="evenodd" clip-rule="evenodd" d="M142.926 355.078C141.996 355.941 141.139 356.87 140.413 357.931C139.82 357.468 139.023 357.468 138.429 357.799C137.77 358.131 138.363 359.126 139.023 358.795C139.615 358.463 140.216 359.126 139.886 359.723C139.55 360.386 140.546 360.917 140.875 360.32C141.139 359.856 141.205 359.325 141.072 358.86C141.205 358.795 141.271 358.728 141.337 358.661C141.996 357.666 142.787 356.737 143.717 355.875C144.31 355.41 143.453 354.614 142.926 355.078Z" fill="#477C9D"/>
<path fill-rule="evenodd" clip-rule="evenodd" d="M136.649 347.183C135.983 346.254 134.731 346.188 133.676 346.32C133.346 346.387 133.208 346.784 133.273 347.05C133.346 347.382 133.676 347.515 134.005 347.448C134.533 347.382 135.324 347.382 135.72 347.78C136.05 348.111 136.05 348.577 135.72 348.842C135.126 349.306 135.983 350.102 136.511 349.637C137.242 349.107 137.177 347.913 136.649 347.183Z" fill="#477C9D"/>
<path fill-rule="evenodd" clip-rule="evenodd" d="M142.926 336.501C142.326 336.169 141.864 335.771 141.337 335.306C141.469 334.643 141.139 333.914 140.546 333.582C139.952 333.183 139.352 334.178 139.952 334.577C140.083 334.643 140.216 334.842 140.216 335.041C140.083 335.174 140.018 335.306 140.018 335.439C139.82 335.638 139.484 335.572 139.286 335.373C139.023 335.174 138.626 335.306 138.495 335.572C138.297 335.837 138.429 336.169 138.693 336.368C139.286 336.832 140.15 336.766 140.743 336.302C141.205 336.766 141.798 337.164 142.326 337.496C142.992 337.895 143.518 336.899 142.926 336.501Z" fill="#477C9D"/>
<path fill-rule="evenodd" clip-rule="evenodd" d="M154.944 328.87C154.746 329.202 154.417 329.335 154.154 329.335C154.022 329.136 153.824 329.069 153.559 329.069C153.296 328.87 153.165 328.472 153.296 328.074C153.494 327.344 152.367 327.079 152.168 327.742C151.905 328.539 152.168 329.468 152.835 329.998C152.571 330.596 152.367 331.193 152.102 331.79C151.839 332.453 152.966 332.785 153.23 332.122C153.428 331.591 153.692 331.06 153.889 330.529C154.681 330.596 155.472 330.197 155.94 329.534C156.335 328.87 155.34 328.274 154.944 328.87Z" fill="#477C9D"/>
<path fill-rule="evenodd" clip-rule="evenodd" d="M157.588 341.544C157.06 341.079 156.336 340.615 155.676 340.747C155.676 340.68 155.61 340.615 155.544 340.548C155.076 340.017 154.614 339.553 154.219 339.022C153.757 338.491 152.901 339.288 153.427 339.818C153.89 340.349 154.284 340.813 154.746 341.344C154.153 342.074 154.351 343.135 154.681 343.932C154.944 344.596 156.071 344.33 155.808 343.6C155.61 343.135 155.34 342.539 155.61 342.074C155.873 341.544 156.533 342.074 156.797 342.339C157.324 342.803 158.181 342.007 157.588 341.544Z" fill="#477C9D"/>
<path fill-rule="evenodd" clip-rule="evenodd" d="M148.272 350.898C148.206 350.898 148.206 350.832 148.272 350.832C148.602 350.036 148.931 349.306 149.268 348.51C149.4 348.245 149.13 347.913 148.865 347.78C148.536 347.714 148.272 347.913 148.141 348.178C147.811 348.974 147.481 349.704 147.152 350.5C147.085 350.633 147.152 350.766 147.217 350.898C146.558 351.098 146.031 351.695 145.958 352.425C145.893 353.154 147.02 353.154 147.085 352.425C147.152 352.026 147.745 351.827 148.074 352.026C148.536 352.225 148.668 352.889 148.602 353.353C148.47 354.083 149.598 354.415 149.73 353.685C149.927 352.624 149.531 351.23 148.272 350.898Z" fill="#477C9D"/>
<path fill-rule="evenodd" clip-rule="evenodd" d="M162.546 349.638C161.952 349.174 161.023 349.107 160.297 349.506L159.243 348.378C158.715 347.847 157.917 348.642 158.445 349.174C158.847 349.571 159.243 349.969 159.572 350.368C159.309 350.965 159.44 351.695 159.902 352.225C160.363 352.823 161.155 351.96 160.693 351.429C160.495 351.164 160.561 350.766 160.825 350.566C161.155 350.301 161.682 350.434 162.018 350.7C162.282 350.898 162.677 350.766 162.809 350.501C162.875 350.102 162.743 349.837 162.546 349.638Z" fill="#477C9D"/>
<path fill-rule="evenodd" clip-rule="evenodd" d="M164.787 335.837C164.589 336.036 164.259 335.704 164.259 335.505C164.128 335.041 164.656 334.51 164.985 334.245C165.585 333.78 164.721 332.984 164.194 333.449C163.6 333.914 163.073 334.776 163.139 335.572C163.007 335.572 162.875 335.638 162.81 335.704C162.48 335.97 162.15 336.236 161.887 336.501C161.616 336.7 161.682 337.098 161.887 337.297C162.15 337.563 162.48 337.496 162.678 337.297C163.007 337.031 163.337 336.766 163.6 336.501C164.128 337.031 165.058 337.164 165.651 336.568C166.113 336.102 165.321 335.306 164.787 335.837Z" fill="#477C9D"/>
<path fill-rule="evenodd" clip-rule="evenodd" d="M169.218 347.515C169.877 347.847 170.47 346.851 169.811 346.52C168.954 346.055 167.761 346.453 167.497 347.448C167.233 348.443 168.09 349.572 169.152 349.505C169.877 349.438 169.877 348.31 169.152 348.377C168.888 348.377 168.492 348.111 168.624 347.78C168.624 347.515 168.954 347.382 169.218 347.515Z" fill="#477C9D"/>
<path fill-rule="evenodd" clip-rule="evenodd" d="M148.8 322.037C148.733 321.705 148.338 321.572 148.074 321.638C147.744 321.705 147.613 322.037 147.679 322.368C147.744 322.965 147.02 323.098 146.755 322.634C146.361 322.037 145.365 322.567 145.761 323.231C146.163 323.894 147.02 324.292 147.811 323.961C148.601 323.629 148.931 322.833 148.8 322.037Z" fill="#477C9D"/>
<path fill-rule="evenodd" clip-rule="evenodd" d="M148.734 229.546C146.228 228.352 145.233 225.698 146.426 223.243C147.613 220.721 150.784 219.328 153.165 220.589C156.203 222.181 156.533 224.901 155.34 227.423C154.154 229.878 151.179 230.74 148.734 229.546Z" fill="#A9D9DB"/>
<path fill-rule="evenodd" clip-rule="evenodd" d="M148.536 220.788C148.338 220.058 147.283 220.39 147.415 221.119V221.186C147.415 221.186 147.349 221.252 147.283 221.318C147.283 221.318 147.217 221.385 147.151 221.385H147.085C146.492 220.987 145.892 221.982 146.492 222.38C147.547 222.844 148.8 221.849 148.536 220.788Z" fill="#69C5B0"/>
<path fill-rule="evenodd" clip-rule="evenodd" d="M155.406 228.949C154.746 228.418 153.757 227.954 152.966 228.484C152.3 228.949 152.037 229.811 152.571 230.475C153.032 231.072 153.824 230.209 153.362 229.679C153.428 229.745 153.362 229.679 153.428 229.546C153.494 229.48 153.56 229.413 153.691 229.413C154.087 229.413 154.483 229.745 154.813 229.944C155.406 230.342 156.006 229.347 155.406 228.949Z" fill="#69C5B0"/>
<path fill-rule="evenodd" clip-rule="evenodd" d="M156.467 222.911C156.269 222.977 155.94 222.977 155.808 222.712C155.676 222.513 155.808 222.247 156.006 222.115C156.599 221.717 156.071 220.721 155.406 221.12C154.747 221.584 154.417 222.446 154.812 223.176C155.142 223.906 156.071 224.238 156.797 223.973C157.456 223.773 157.192 222.646 156.467 222.911Z" fill="#69C5B0"/>
<path fill-rule="evenodd" clip-rule="evenodd" d="M151.905 221.385C151.838 221.053 151.312 221.186 151.378 221.517C151.444 221.849 151.179 222.181 150.916 222.247C150.587 222.314 150.323 222.048 150.19 221.716C150.125 221.385 149.531 221.517 149.664 221.849C149.795 222.314 150.125 222.645 150.52 222.778C150.587 223.043 150.652 223.309 150.718 223.574C150.784 223.906 151.378 223.773 151.246 223.442C151.179 223.242 151.114 222.977 151.114 222.778C151.707 222.645 152.037 221.982 151.905 221.385Z" fill="#7A86C1"/>
<path fill-rule="evenodd" clip-rule="evenodd" d="M149.993 224.968C149.597 224.769 149.136 224.702 148.734 224.769C148.47 224.503 148.074 224.437 147.745 224.503C147.415 224.57 147.547 225.167 147.877 225.034C148.008 224.968 148.14 225.034 148.272 225.101C148.272 225.233 148.338 225.3 148.47 225.366C148.602 225.631 148.47 225.963 148.14 226.096C147.811 226.228 148.074 226.759 148.404 226.56C148.866 226.361 149.136 225.83 148.997 225.3C149.202 225.3 149.465 225.366 149.663 225.432C150.06 225.631 150.323 225.167 149.993 224.968Z" fill="#7A86C1"/>
<path fill-rule="evenodd" clip-rule="evenodd" d="M153.362 226.228C152.966 225.963 152.505 225.83 151.971 225.83L151.707 224.901C151.641 224.57 151.048 224.702 151.179 225.034C151.246 225.366 151.378 225.631 151.444 225.963C151.444 226.029 151.509 226.096 151.575 226.162C151.509 226.56 151.444 226.958 151.378 227.356C151.312 227.688 151.838 227.887 151.905 227.489L152.103 226.361C152.439 226.427 152.769 226.494 153.032 226.693C153.428 226.892 153.692 226.427 153.362 226.228Z" fill="#7A86C1"/>
<path fill-rule="evenodd" clip-rule="evenodd" d="M155.676 225.963C155.874 226.295 156.335 225.963 156.203 225.698C155.94 225.233 155.274 225.366 155.076 225.83C154.746 226.428 155.34 226.958 155.742 227.224C156.072 227.423 156.335 226.958 156.006 226.759C155.874 226.627 155.544 226.428 155.544 226.228C155.544 226.162 155.544 226.096 155.61 226.096C155.61 226.029 155.61 225.963 155.676 225.963Z" fill="#7A86C1"/>
<path fill-rule="evenodd" clip-rule="evenodd" d="M148.866 229.878C148.8 229.546 148.734 229.28 148.734 228.949C148.734 228.75 148.536 228.617 148.404 228.683C147.943 228.816 147.547 229.015 147.085 229.148C146.756 229.28 146.888 229.811 147.217 229.679C147.547 229.546 147.877 229.413 148.206 229.347C148.206 229.546 148.272 229.811 148.338 230.01C148.404 230.342 148.931 230.209 148.866 229.878Z" fill="#477C9D"/>
<path fill-rule="evenodd" clip-rule="evenodd" d="M153.296 219.527C152.9 220.191 152.037 219.992 151.839 219.262C151.773 218.93 151.246 219.063 151.311 219.394C151.576 220.655 153.165 220.854 153.757 219.792C153.955 219.527 153.494 219.195 153.296 219.527Z" fill="#7A86C1"/>
<path fill-rule="evenodd" clip-rule="evenodd" d="M128.19 287.933C125.152 286.473 123.965 283.222 125.415 280.237C126.865 277.185 130.703 275.459 133.676 277.052C137.308 278.976 137.77 282.36 136.313 285.346C134.862 288.331 131.23 289.393 128.19 287.933Z" fill="#A9D9DB"/>
<path fill-rule="evenodd" clip-rule="evenodd" d="M132.416 290.189C132.746 290.056 132.813 289.791 132.746 289.459L132.153 286.672C132.087 286.341 131.691 286.208 131.427 286.341C131.098 286.473 131.032 286.739 131.098 287.071C131.296 287.999 131.494 288.928 131.691 289.857C131.757 290.189 132.153 290.322 132.416 290.189Z" fill="#477C9D"/>
<path fill-rule="evenodd" clip-rule="evenodd" d="M126.14 282.426C126.8 282.691 127.334 281.696 126.668 281.364C125.679 280.966 124.69 280.568 123.628 280.17C122.969 279.905 122.442 280.9 123.101 281.232C124.163 281.63 125.151 282.028 126.14 282.426Z" fill="#477C9D"/>
<path fill-rule="evenodd" clip-rule="evenodd" d="M134.665 281.762H137.836C138.561 281.762 138.496 280.635 137.77 280.635H134.599C133.874 280.635 133.939 281.762 134.665 281.762Z" fill="#477C9D"/>
<path fill-rule="evenodd" clip-rule="evenodd" d="M138.363 282.492C139.089 282.625 139.286 281.497 138.561 281.364C138.429 281.364 138.363 281.165 138.495 281.099C138.759 280.966 138.956 280.701 138.825 280.369C138.759 280.104 138.363 279.905 138.1 280.037C137.572 280.237 137.177 280.767 137.243 281.364C137.374 281.895 137.836 282.36 138.363 282.492Z" fill="#477C9D"/>
<path fill-rule="evenodd" clip-rule="evenodd" d="M131.691 291.516C131.823 291.251 131.954 291.052 132.087 290.786C132.153 290.72 132.219 290.587 132.219 290.521C132.284 290.653 132.351 290.786 132.483 290.919C132.943 291.516 133.874 290.852 133.412 290.255C133.208 289.99 133.142 289.658 132.878 289.459C132.614 289.194 132.219 289.127 131.889 289.26C131.56 289.393 131.362 289.658 131.23 289.99C131.032 290.322 130.834 290.653 130.636 291.052C130.373 291.715 131.362 292.179 131.691 291.516Z" fill="#477C9D"/>
<path fill-rule="evenodd" clip-rule="evenodd" d="M121.914 281.497C122.508 281.497 123.365 281.431 123.767 280.966C124.426 280.369 123.694 279.639 123.365 279.109C122.969 278.511 121.98 279.109 122.442 279.772C122.574 279.905 122.639 280.104 122.771 280.237C122.705 280.237 122.639 280.237 122.574 280.303C122.376 280.369 122.112 280.369 121.914 280.369C121.123 280.369 121.189 281.497 121.914 281.497Z" fill="#477C9D"/>
<path fill-rule="evenodd" clip-rule="evenodd" d="M130.636 281.298C130.505 280.966 130.505 280.701 130.505 280.369V280.237C130.703 280.038 130.835 279.706 130.966 279.44C131.032 279.175 131.295 278.644 131.098 278.313C131.032 278.18 130.835 278.18 130.703 278.246H130.636C130.505 278.313 130.505 278.512 130.57 278.644C130.505 278.777 130.438 279.109 130.373 279.175C130.307 279.44 130.175 279.706 129.97 279.839C129.443 280.17 128.981 279.573 128.652 279.241C128.389 278.976 128.059 279.374 128.257 279.64C128.652 280.104 129.246 280.568 129.838 280.502C129.838 280.834 129.905 281.099 130.043 281.431C130.241 281.829 130.768 281.63 130.636 281.298Z" fill="#477C9D"/>
<path fill-rule="evenodd" clip-rule="evenodd" d="M134.797 285.279C135.06 285.478 135.456 285.08 135.192 284.881C134.994 284.748 134.731 284.549 134.665 284.284C134.731 284.218 134.731 284.151 134.731 284.085C134.863 283.819 135.324 283.753 135.522 283.62C135.851 283.421 135.522 282.957 135.192 283.156C134.863 283.355 134.401 283.488 134.203 283.819C133.94 283.753 133.676 283.753 133.478 283.687C133.142 283.62 133.01 284.218 133.34 284.284C133.61 284.35 133.874 284.35 134.071 284.417C134.203 284.682 134.533 285.014 134.797 285.279Z" fill="#477C9D"/>
<path fill-rule="evenodd" clip-rule="evenodd" d="M128.784 286.673C128.982 286.474 129.245 286.274 129.509 286.208C129.773 286.142 130.373 286.274 130.103 286.673C129.905 287.004 130.439 287.27 130.637 286.938C130.834 286.606 130.768 286.142 130.439 285.876C130.571 285.611 130.702 285.279 130.834 285.014C130.966 284.682 130.439 284.417 130.307 284.748C130.175 285.014 130.037 285.346 129.905 285.611C129.377 285.478 128.85 285.81 128.388 286.142C128.191 286.407 128.52 286.872 128.784 286.673Z" fill="#477C9D"/>
<path fill-rule="evenodd" clip-rule="evenodd" d="M127.201 283.753C127.465 283.819 127.729 283.886 127.993 284.018C128.322 284.151 128.587 283.687 128.257 283.488C127.927 283.355 127.598 283.222 127.268 283.156C127.201 282.824 126.865 282.492 126.47 282.426C126.141 282.36 126.008 282.957 126.338 283.023C126.47 283.023 126.667 283.156 126.667 283.355C126.667 283.421 126.602 283.62 126.47 283.554C126.141 283.355 125.876 283.886 126.206 284.085C126.602 284.217 127.004 284.085 127.201 283.753Z" fill="#477C9D"/>
<path fill-rule="evenodd" clip-rule="evenodd" d="M134.401 279.772C134.599 279.44 134.862 279.175 135.127 278.909C135.521 279.109 135.983 278.976 136.379 278.843C136.715 278.71 136.518 278.18 136.181 278.312C135.983 278.379 135.521 278.578 135.324 278.379C135.192 278.18 135.324 277.848 135.324 277.715C135.456 277.383 134.862 277.251 134.731 277.582C134.664 277.848 134.599 278.18 134.664 278.511C134.401 278.777 134.138 279.109 133.873 279.44C133.742 279.706 134.138 280.104 134.401 279.772Z" fill="#477C9D"/>
<path fill-rule="evenodd" clip-rule="evenodd" d="M130.703 275.128C130.505 275.393 130.306 275.658 130.175 275.924C130.103 275.924 130.037 275.99 130.037 275.99C129.905 275.924 129.773 275.791 129.707 275.658C129.575 275.327 129.048 275.592 129.246 275.924C129.443 276.322 129.707 276.521 130.103 276.587C130.241 276.853 130.373 277.118 130.571 277.383C130.834 277.649 131.23 277.251 130.966 276.985C130.834 276.786 130.703 276.587 130.636 276.322C130.834 275.99 131.032 275.658 131.295 275.393C131.428 275.061 130.9 274.796 130.703 275.128Z" fill="#477C9D"/>
<path fill-rule="evenodd" clip-rule="evenodd" d="M184.875 212.03C184.216 214.949 183.55 217.935 182.891 220.854C182.166 223.973 181.441 227.157 180.643 230.276C179.984 232.996 179.324 235.716 178.598 238.437C178.138 240.294 177.604 242.152 177.142 244.01C176.878 245.005 176.549 246.067 176.285 247.062C175.23 250.844 174.103 254.626 172.982 258.341C172.125 261.062 171.261 263.848 170.338 266.569C169.086 270.284 167.826 273.934 166.508 277.583C165.519 280.369 164.458 283.09 163.337 285.81C162.084 288.995 160.759 292.18 159.375 295.364C158.313 297.819 157.192 300.274 156.006 302.729C155.01 304.852 153.955 307.042 152.834 309.165C152.637 309.629 152.373 310.094 152.169 310.558C151.246 312.35 150.323 314.141 149.334 315.933C148.009 318.454 146.624 321.041 145.167 323.496C144.046 325.42 142.86 327.41 141.666 329.269C141.468 329.601 141.205 329.999 141.007 330.33C139.886 332.122 138.693 333.913 137.44 335.638C136.451 337.031 135.39 338.491 134.269 339.818C134.005 339.885 133.808 339.885 133.544 339.951C132.021 340.283 130.637 340.482 129.443 340.747C126.272 341.344 124.228 341.675 123.562 341.742C123.365 341.742 123.299 341.809 123.299 341.809C123.299 341.809 123.233 341.675 123.101 341.344C125.019 341.079 126.865 339.619 128.191 338.226C129.707 336.634 131.032 334.842 132.351 332.984C132.68 332.52 133.01 332.055 133.28 331.591C134.203 330.198 135.126 328.737 135.983 327.345C136.715 326.15 137.374 325.022 138.1 323.894C138.759 322.899 139.352 321.838 139.952 320.775C141.139 318.786 142.26 316.795 143.387 314.805C144.903 312.084 146.36 309.298 147.745 306.577C148.932 304.255 150.059 301.867 151.18 299.478C152.235 297.288 153.23 295.033 154.219 292.843C155.34 290.255 156.467 287.668 157.522 285.014C158.847 281.696 160.1 278.445 161.352 275.061C162.414 272.208 163.403 269.355 164.326 266.502C165.453 263.052 166.574 259.668 167.629 256.218C168.492 253.365 169.349 250.512 170.141 247.593C171.195 243.811 172.257 240.029 173.246 236.181C174.037 233.062 174.835 229.944 175.56 226.826C176.219 224.105 176.878 221.385 177.472 218.665C178.204 215.613 178.863 212.561 179.522 209.442C179.72 208.58 179.917 207.783 180.05 206.921C181.77 208.58 183.353 210.238 184.875 212.03Z" fill="#FCBB41"/>
<path fill-rule="evenodd" clip-rule="evenodd" d="M137.44 335.704C136.445 337.098 135.391 338.558 134.269 339.885C134.005 339.951 133.808 339.951 133.544 340.017C133.142 337.695 132.746 335.373 132.285 333.05C132.614 332.587 132.944 332.122 133.208 331.657C134.137 330.264 135.061 328.805 135.917 327.411C136.518 330.197 136.979 332.918 137.44 335.704Z" fill="#2D264F"/>
<path fill-rule="evenodd" clip-rule="evenodd" d="M145.167 323.562C144.047 325.487 142.859 327.477 141.666 329.335C141.073 326.482 140.545 323.63 139.953 320.842C141.139 318.852 142.26 316.861 143.387 314.871C144.047 317.79 144.574 320.644 145.167 323.562Z" fill="#2D264F"/>
<path fill-rule="evenodd" clip-rule="evenodd" d="M152.835 309.231C152.636 309.696 152.373 310.16 152.168 310.625C151.246 312.416 150.322 314.208 149.333 315.999C148.8 312.881 148.272 309.762 147.811 306.644C148.998 304.321 150.125 301.933 151.246 299.544C151.773 302.729 152.307 305.98 152.835 309.231Z" fill="#2D264F"/>
<path fill-rule="evenodd" clip-rule="evenodd" d="M159.375 295.43C158.313 297.885 157.192 300.34 156.006 302.795C155.405 299.478 154.878 296.16 154.284 292.843C155.405 290.255 156.533 287.668 157.588 285.014C158.116 288.53 158.781 291.98 159.375 295.43Z" fill="#2D264F"/>
<path fill-rule="evenodd" clip-rule="evenodd" d="M166.442 277.649C165.453 280.436 164.392 283.156 163.27 285.876C162.611 282.293 161.952 278.711 161.286 275.128C162.348 272.275 163.337 269.422 164.259 266.569C165.058 270.284 165.783 273.933 166.442 277.649Z" fill="#2D264F"/>
<path fill-rule="evenodd" clip-rule="evenodd" d="M172.916 258.408C172.059 261.128 171.196 263.915 170.272 266.635C169.415 263.185 168.493 259.735 167.629 256.285C168.493 253.432 169.35 250.579 170.141 247.659C171.13 251.242 172.059 254.825 172.916 258.408Z" fill="#2D264F"/>
<path fill-rule="evenodd" clip-rule="evenodd" d="M178.599 238.437C178.138 240.294 177.603 242.152 177.142 244.01C176.879 245.005 176.549 246.067 176.285 247.062C175.231 243.479 174.235 239.83 173.311 236.247C174.103 233.129 174.901 230.01 175.625 226.892C176.549 230.806 177.538 234.655 178.599 238.437Z" fill="#2D264F"/>
<path fill-rule="evenodd" clip-rule="evenodd" d="M182.891 220.854C182.165 223.972 181.441 227.157 180.643 230.276C179.654 226.427 178.599 222.579 177.538 218.797C178.269 215.745 178.928 212.693 179.588 209.575C180.708 213.357 181.836 217.072 182.891 220.854Z" fill="#2D264F"/>
<path fill-rule="evenodd" clip-rule="evenodd" d="M212.486 281.033C208.326 269.223 203.968 257.413 199.341 245.735C195.51 235.915 191.415 226.228 184.941 217.868C184.48 217.271 183.683 218.134 184.151 218.665C190.954 227.423 195.048 237.84 199.076 248.124C203.375 259.138 207.469 270.152 211.365 281.298C211.629 282.028 212.691 281.763 212.486 281.033Z" fill="#FEFEFE"/>
<path fill-rule="evenodd" clip-rule="evenodd" d="M152.768 196.703C146.492 196.703 139.688 197.964 132.087 200.551C114.115 206.589 103.746 216.873 100.376 232.001C97.536 244.607 99.3194 260.863 106.124 284.549C117.82 325.155 122.31 338.358 123.431 341.411C123.431 341.477 123.497 341.543 123.497 341.61C125.217 341.344 127.268 341.012 129.378 340.614C130.768 340.348 132.417 340.084 134.203 339.685C155.874 335.439 196.63 325.62 225.836 307.971C224.973 305.715 217.51 286.872 200.929 242.617C196.037 229.546 190.69 219.66 184.546 212.361C183.023 210.57 181.441 208.911 179.852 207.385C178.797 206.39 177.669 205.461 176.615 204.665C174.703 203.205 172.652 201.945 170.536 200.883C169.02 200.087 167.431 199.423 165.783 198.893C163.798 198.229 161.748 197.698 159.572 197.366C157.456 196.836 155.143 196.703 152.768 196.703ZM123.101 342.207L123.035 342.007C123.035 342.007 122.969 341.875 122.838 341.543C121.716 338.425 117.22 325.221 105.53 284.616C93.6383 243.147 93.5058 212.892 131.889 199.954C142.391 196.371 151.509 195.31 159.77 196.637C161.952 196.968 164.062 197.499 166.047 198.229C167.695 198.76 169.283 199.49 170.866 200.286C172.982 201.347 175.032 202.674 177.01 204.134C178.138 204.997 179.192 205.926 180.313 206.854C181.968 208.38 183.55 210.039 185.073 211.897C191.218 219.262 196.63 229.214 201.522 242.351C219.165 289.393 226.43 307.772 226.496 307.904L226.562 308.103L226.364 308.236C197.033 326.018 156.137 335.904 134.335 340.15C132.548 340.482 130.9 340.813 129.509 341.079C127.333 341.477 125.284 341.809 123.562 342.074C123.365 342.074 123.299 342.14 123.299 342.14L123.101 342.207Z" fill="#E4E7F4"/>
<path fill-rule="evenodd" clip-rule="evenodd" d="M220.813 294.767C221.01 294.701 221.142 294.634 221.34 294.568C218.696 287.734 215.064 278.18 210.178 265.308C209.981 265.374 209.849 265.441 209.651 265.507C214.536 278.379 218.169 287.933 220.813 294.767Z" fill="#FEFEFE"/>
<path fill-rule="evenodd" clip-rule="evenodd" d="M105.133 226.295C99.7815 237.972 101.631 250.711 103.746 262.92C103.878 263.649 105.001 263.318 104.869 262.588C102.821 250.711 100.905 238.171 106.124 226.826C106.454 226.228 105.463 225.631 105.133 226.295Z" fill="#E4E7F4"/>
<path opacity="0.469773" fill-rule="evenodd" clip-rule="evenodd" d="M118.347 297.753C111.013 298.416 122.969 330.795 126.734 333.913C130.505 337.031 132.417 335.572 128.52 322.435C124.624 309.364 121.782 297.421 118.347 297.753Z" fill="#E4E7F4"/>
<path fill-rule="evenodd" clip-rule="evenodd" d="M170.998 204.731C169.02 207.452 176.747 213.091 176.482 209.376C176.219 205.594 172.323 202.874 170.998 204.731Z" fill="#E4E7F4"/>
<path fill-rule="evenodd" clip-rule="evenodd" d="M226.43 307.241C193.862 324.226 158.643 335.837 122.376 341.675C121.65 341.809 121.65 342.937 122.376 342.804C158.847 336.965 194.191 325.288 227.023 308.236C227.682 307.838 227.089 306.909 226.43 307.241Z" fill="#E4E7F4"/>
<path fill-rule="evenodd" clip-rule="evenodd" d="M94.9591 221.849C88.9472 218.532 82.9352 215.214 76.8573 211.897C76.1967 211.565 75.5361 212.494 76.1967 212.826C82.2087 216.143 88.22 219.461 94.2985 222.778C94.9591 223.176 95.6197 222.181 94.9591 221.849Z" fill="#FEC741"/>
<path fill-rule="evenodd" clip-rule="evenodd" d="M114.32 202.94C110.154 195.84 106.058 188.741 102.094 181.509C101.764 180.845 100.773 181.443 101.103 182.106C105.067 189.272 109.163 196.438 113.325 203.537C113.722 204.2 114.715 203.603 114.32 202.94Z" fill="#FEC741"/>
<path fill-rule="evenodd" clip-rule="evenodd" d="M133.076 192.39C132.285 190.201 131.559 188.078 130.768 185.888C130.505 185.225 129.443 185.49 129.641 186.22C130.439 188.409 131.164 190.533 131.955 192.722C132.219 193.386 133.346 193.054 133.076 192.39Z" fill="#FEC741"/>
<path fill-rule="evenodd" clip-rule="evenodd" d="M234.289 249.65L236.141 260.995C236.735 264.711 231.052 266.17 230.458 262.389C229.865 258.607 229.206 254.825 228.612 251.043C228.012 247.394 233.695 245.934 234.289 249.65Z" fill="#ACCAE9"/>
<path fill-rule="evenodd" clip-rule="evenodd" d="M233.036 247.792C233.036 250.91 232.508 254.029 230.656 256.484C230.327 256.749 229.997 257.081 229.601 257.28C229.271 255.223 228.942 253.166 228.546 251.043C228.21 248.323 231.249 246.797 233.036 247.792Z" fill="#7A86C1"/>
<path fill-rule="evenodd" clip-rule="evenodd" d="M230.722 238.238C236.998 237.707 237.987 239.631 237.262 246.73C236.471 254.228 226.298 255.621 226.298 252.768C226.298 245.536 225.441 238.702 230.722 238.238Z" fill="#ACCAE9"/>
<path fill-rule="evenodd" clip-rule="evenodd" d="M235.482 250.844C233.299 251.972 231.717 244.474 232.179 241.29C232.245 240.958 231.915 240.626 231.651 240.56C229.205 240.029 229.799 240.294 227.353 240.228C228.012 239.1 229.073 238.37 230.656 238.238C236.932 237.707 237.928 239.631 237.196 246.73C237.064 248.389 236.405 249.782 235.482 250.844Z" fill="#8F2E56"/>
<path fill-rule="evenodd" clip-rule="evenodd" d="M227.617 243.28C227.683 243.811 227.683 244.408 227.748 244.939C227.748 245.337 227.22 245.403 227.155 245.005C227.089 244.474 227.089 243.877 227.023 243.346C227.023 243.015 227.55 242.948 227.617 243.28Z" fill="#2D264F"/>
<path fill-rule="evenodd" clip-rule="evenodd" d="M226.891 241.422C227.221 241.422 227.484 241.489 227.749 241.621C228.078 241.82 227.682 242.285 227.419 242.086C227.287 242.019 227.155 241.953 226.958 241.953C226.628 242.019 226.561 241.422 226.891 241.422Z" fill="#2D264F"/>
<path fill-rule="evenodd" clip-rule="evenodd" d="M224.709 248.323C225.243 247.062 225.705 245.801 226.232 244.541C226.364 244.209 226.891 244.408 226.76 244.74C226.298 245.934 225.837 247.062 225.375 248.256C225.902 248.389 226.496 248.522 227.023 248.787C227.353 248.92 227.155 249.45 226.825 249.318C226.232 249.052 225.639 248.853 224.973 248.787C224.775 248.721 224.643 248.522 224.709 248.323Z" fill="#7A86C1"/>
<path fill-rule="evenodd" clip-rule="evenodd" d="M230.458 243.678C233.959 242.683 236.207 247.46 230.327 248.92L230.458 243.678Z" fill="#ACCAE9"/>
<path fill-rule="evenodd" clip-rule="evenodd" d="M232.113 245.072C232.443 245.005 232.574 245.536 232.179 245.669C231.652 245.801 231.249 246.199 231.117 246.73C231.052 247.062 230.458 246.996 230.524 246.664C230.722 245.801 231.315 245.204 232.113 245.072Z" fill="#7A86C1"/>
<path fill-rule="evenodd" clip-rule="evenodd" d="M225.968 245.204C223.259 246.598 222.797 248.455 223.193 250.512C223.588 252.569 226.166 254.493 227.485 254.493C228.81 254.493 226.496 244.939 225.968 245.204Z" fill="#E4E7F4"/>
<path fill-rule="evenodd" clip-rule="evenodd" d="M231.981 243.28C229.535 244.209 227.352 245.602 225.507 247.394C225.243 247.659 225.639 248.123 225.902 247.858C227.749 246.067 229.865 244.673 232.244 243.811C232.574 243.678 232.377 243.147 231.981 243.28Z" fill="#E4E7F4"/>
<path fill-rule="evenodd" clip-rule="evenodd" d="M232.904 247.858C230.854 249.252 228.876 250.645 226.825 252.038C226.496 252.237 226.891 252.702 227.221 252.503C229.271 251.109 231.249 249.716 233.3 248.323C233.563 248.057 233.167 247.659 232.904 247.858Z" fill="#E4E7F4"/>
<path fill-rule="evenodd" clip-rule="evenodd" d="M227.419 240.228C225.309 240.361 224.775 237.441 229.074 238.171C233.3 238.968 227.419 240.228 227.419 240.228Z" fill="#8F2E56"/>
<path fill-rule="evenodd" clip-rule="evenodd" d="M224.248 252.038C222.996 251.242 223.259 249.65 223.522 248.389C223.588 248.057 222.996 247.991 222.929 248.323C222.666 249.782 222.467 251.574 223.918 252.503C224.248 252.702 224.577 252.237 224.248 252.038Z" fill="#E4E7F4"/>
<path fill-rule="evenodd" clip-rule="evenodd" d="M234.552 259.668C218.828 259.668 223.39 266.303 225.704 280.9C228.012 295.563 228.012 299.279 228.012 299.279H255.498C255.498 299.279 256.619 291.781 252.063 276.322C247.507 260.863 246.842 259.668 234.552 259.668Z" fill="#F1F7ED"/>
<path fill-rule="evenodd" clip-rule="evenodd" d="M229.535 263.649C228.078 262.986 226.628 262.322 225.104 261.725C225.039 261.725 225.039 261.659 224.973 261.659C221.868 264.379 223.72 269.753 225.236 278.18C227.617 273.734 229.206 268.825 229.535 263.649Z" fill="#F1F7ED"/>
<path fill-rule="evenodd" clip-rule="evenodd" d="M226.957 289.327C228.012 297.089 228.012 299.279 228.012 299.279H255.498C255.498 299.279 256.025 296.028 255.036 289.327H226.957Z" fill="#3D3B4E"/>
<path fill-rule="evenodd" clip-rule="evenodd" d="M279.35 383.012C270.496 352.623 261.906 320.179 254.904 289.26C250.877 290.521 246.314 293.507 242.483 295.232C249.221 324.824 257.877 354.216 266.336 383.344H279.417C279.417 383.276 279.417 383.144 279.35 383.012Z" fill="#3D3B4E"/>
<path fill-rule="evenodd" clip-rule="evenodd" d="M241.297 295.497C237.196 294.634 232.047 293.307 228.078 291.98C221.077 321.904 217.708 352.624 218.301 383.343H230.854C230.326 353.818 234.552 324.292 241.297 295.497Z" fill="#3D3B4E"/>
<path fill-rule="evenodd" clip-rule="evenodd" d="M230.854 383.344V389.182H209.117C209.117 389.182 208.524 387.192 212.289 385.997C215.994 384.87 216.916 385.865 218.301 383.344H230.854Z" fill="#477C9D"/>
<path fill-rule="evenodd" clip-rule="evenodd" d="M279.416 383.344L280.274 389.182H258.273C258.273 389.182 257.679 387.192 261.444 385.997C265.143 384.87 266.264 386.197 266.329 383.344H279.416Z" fill="#477C9D"/>
<path fill-rule="evenodd" clip-rule="evenodd" d="M218.433 385.865C218.103 385.599 217.774 385.268 217.575 384.869C217.378 384.538 216.916 384.869 217.115 385.134C217.378 385.599 217.774 385.997 218.169 386.395C218.433 386.594 218.696 386.064 218.433 385.865Z" fill="#FEFEFE"/>
<path fill-rule="evenodd" clip-rule="evenodd" d="M219.824 385.267C219.231 384.736 218.63 384.272 218.104 383.741C217.839 383.476 217.444 383.874 217.707 384.139C218.301 384.671 218.901 385.135 219.428 385.666C219.692 385.931 220.087 385.533 219.824 385.267Z" fill="#FEFEFE"/>
<path fill-rule="evenodd" clip-rule="evenodd" d="M266.197 386.262C266 385.864 265.737 385.466 265.538 385.068C265.34 384.736 264.879 385.003 265.011 385.334C265.208 385.732 265.472 386.13 265.67 386.528C265.934 386.86 266.402 386.594 266.197 386.262Z" fill="#FEFEFE"/>
<path fill-rule="evenodd" clip-rule="evenodd" d="M267.853 385.732C267.456 385.267 267.127 384.803 266.732 384.338C266.468 384.073 266.066 384.471 266.329 384.737C266.732 385.201 267.062 385.665 267.456 386.13C267.654 386.395 268.05 385.997 267.853 385.732Z" fill="#FEFEFE"/>
<path fill-rule="evenodd" clip-rule="evenodd" d="M205.089 257.678C200.269 250.313 194.785 242.086 189.893 234.787C192.668 233.129 195.51 231.536 198.482 230.077C202.775 236.446 207.997 244.474 212.157 250.91C209.981 253.365 207.337 255.157 205.089 257.678Z" fill="#F1F7ED"/>
<path fill-rule="evenodd" clip-rule="evenodd" d="M200.269 232.664C199.67 231.735 199.076 230.873 198.483 230.01C195.575 231.47 192.734 233.062 189.893 234.721C190.756 235.982 191.613 237.309 192.47 238.569C194.85 236.313 197.56 234.455 200.269 232.664Z" fill="#7A86C1"/>
<path fill-rule="evenodd" clip-rule="evenodd" d="M210.508 249.185C215.591 252.304 225.243 258.076 230.458 260.995C235.943 264.047 234.954 275.46 229.469 272.407C222.731 268.626 212.954 263.052 206.48 258.939C204.298 257.545 202.841 253.896 204.1 251.375C204.43 250.778 204.693 250.181 205.023 249.583C208.392 250.313 207.205 248.455 210.508 249.185Z" fill="#F1F7ED"/>
<path fill-rule="evenodd" clip-rule="evenodd" d="M198.483 230.01C196.63 226.626 194.126 221.186 192.669 221.186C191.152 221.186 194.323 223.773 194.059 225.565C193.796 227.356 189.102 219.129 187.321 219.527C185.469 219.925 190.624 223.641 189.958 224.37C189.299 225.1 186.656 219.66 185.271 220.323C183.88 220.987 188.574 225.233 187.915 226.029C187.256 226.825 184.81 221.053 183.484 222.38C182.627 223.242 185.799 226.361 186.26 227.754C186.721 229.148 183.484 223.375 182.627 224.503C181.77 225.631 188.113 231.934 189.958 234.721C191.811 237.508 198.483 230.01 198.483 230.01Z" fill="#477C9D"/>
<path fill-rule="evenodd" clip-rule="evenodd" d="M191.877 238.636C191.877 238.569 191.943 238.569 191.877 238.636C191.943 238.569 191.943 238.569 191.877 238.636C194.653 236.313 197.428 234.124 200.269 232.001C200.533 231.802 200.863 232.266 200.599 232.465C198.022 234.389 195.444 236.38 192.932 238.436C192.932 238.503 192.866 238.503 192.866 238.569L192.207 239.034C192.009 239.233 191.613 238.835 191.877 238.636Z" fill="#477C9D"/>
<path fill-rule="evenodd" clip-rule="evenodd" d="M212.222 252.37C211.959 251.706 211.695 251.109 211.432 250.446C211.3 250.114 210.706 250.247 210.903 250.578L211.695 252.503C211.826 252.901 212.42 252.702 212.222 252.37Z" fill="#7A86C1"/>
<path fill-rule="evenodd" clip-rule="evenodd" d="M232.97 262.256C232.311 261.99 231.652 261.659 230.986 261.393C230.656 261.261 230.392 261.725 230.722 261.858L232.706 262.72C233.036 262.919 233.3 262.389 232.97 262.256Z" fill="#7A86C1"/>
<path fill-rule="evenodd" clip-rule="evenodd" d="M51.9508 382.017V388.054H72.3647C72.3647 388.054 72.3647 385.201 68.9292 384.87C65.4937 384.538 65.0316 384.471 63.5779 382.017C62.1248 379.495 51.9508 382.017 51.9508 382.017Z" fill="#3D3B4E"/>
<path fill-rule="evenodd" clip-rule="evenodd" d="M84.3888 383.609L84.2569 387.988H104.142C104.142 387.988 104.142 385.135 100.707 384.803C97.2717 384.471 96.4127 383.741 96.0165 382.812C94.8271 380.225 84.3888 383.609 84.3888 383.609Z" fill="#3D3B4E"/>
<path fill-rule="evenodd" clip-rule="evenodd" d="M63.5777 382.017C62.6534 358.064 63.3799 335.704 66.0223 311.885C68.5335 315.468 70.8449 319.25 72.9592 323.098C76.3295 329.069 79.6977 335.24 82.4726 341.544C85.115 347.714 85.2475 354.216 85.1816 360.785C85.115 368.415 84.8513 376.045 84.3885 383.608L96.0162 382.812C96.5443 374.85 96.8087 367.619 96.8087 359.59C96.8087 351.562 97.2056 343.799 93.9685 336.368C88.1543 322.833 79.8962 302.994 70.4487 291.715C69.8547 290.985 68.5988 296.758 67.6738 296.559C67.4094 294.303 66.0889 292.312 63.5777 291.649C60.87 290.919 58.8882 299.677 56.1133 299.81C52.0825 328.937 50.8272 352.623 51.9506 382.017H63.5777Z" fill="#8F2E56"/>
<path fill-rule="evenodd" clip-rule="evenodd" d="M80.755 302.596L80.2263 309.696L56.179 303.99V300.009L80.755 302.596Z" fill="#F06057"/>
<path fill-rule="evenodd" clip-rule="evenodd" d="M80.755 302.596L80.2263 309.696L56.179 303.99V300.009L80.755 302.596Z" stroke="#DC4544"/>
<path fill-rule="evenodd" clip-rule="evenodd" d="M64.1725 382.812C63.9082 383.476 63.5119 384.073 62.9832 384.604C62.7195 384.87 63.1157 385.267 63.3801 385.002C63.9748 384.405 64.4369 383.741 64.7013 382.945C64.8997 382.613 64.3051 382.48 64.1725 382.812Z" fill="#F16A5A"/>
<path fill-rule="evenodd" clip-rule="evenodd" d="M97.0734 383.542C96.6765 384.007 96.2803 384.471 95.95 384.936C95.7522 385.201 96.1485 385.599 96.3462 385.334C96.7431 384.869 97.1394 384.405 97.4697 383.941C97.734 383.609 97.3371 383.211 97.0734 383.542Z" fill="#F16A5A"/>
<path fill-rule="evenodd" clip-rule="evenodd" d="M80.755 302.596C81.0187 300.009 81.349 297.089 81.8125 293.772C84.1239 275.659 82.0769 274.199 77.4514 273.071C65.4281 270.019 62.8516 266.701 60.6055 274.597C59.8117 277.45 58.6889 284.549 57.698 289.725C56.9715 293.44 56.5093 296.691 56.179 299.81C64.2381 301.402 72.4969 302.198 80.755 302.596Z" fill="#F06057"/>
<path fill-rule="evenodd" clip-rule="evenodd" d="M80.2264 274.132C78.9052 276.521 78.6415 279.639 80.028 281.962C80.6233 282.957 81.5483 284.085 82.671 284.815C83.0013 277.981 82.1423 275.393 80.2264 274.132Z" fill="#F06057"/>
<path fill-rule="evenodd" clip-rule="evenodd" d="M77.6505 270.815C77.9142 267.763 78.1786 264.711 78.4423 261.725C78.7732 257.943 73.025 256.948 72.6947 260.73L71.6385 272.208C71.5719 272.739 71.7038 273.203 71.8363 273.668C72.7613 271.744 75.9324 270.948 77.6505 270.815Z" fill="#F1F7ED"/>
<path fill-rule="evenodd" clip-rule="evenodd" d="M73.8184 258.74C74.0162 261.858 74.8093 264.91 76.7911 267.232C77.1214 267.498 77.5176 267.763 77.9145 267.962C78.1123 265.839 78.3107 263.782 78.5085 261.659C78.7069 258.872 75.6017 257.612 73.8184 258.74Z" fill="#E0E4DD"/>
<path fill-rule="evenodd" clip-rule="evenodd" d="M75.4698 249.052C69.1276 248.986 68.3358 250.977 69.5897 257.943C70.9116 265.374 81.2181 266.038 80.9531 263.185C80.3584 255.953 80.7559 249.119 75.4698 249.052Z" fill="#F1F7ED"/>
<path fill-rule="evenodd" clip-rule="evenodd" d="M71.6384 261.991C73.8846 262.919 74.8755 255.356 74.2149 252.171C74.149 251.905 74.4133 251.507 74.6764 251.375C77.0557 250.645 76.4604 250.977 78.905 250.778C78.1785 249.716 77.0557 249.052 75.4702 248.986C69.1272 248.92 68.3354 250.91 69.5901 257.877C69.8544 259.602 70.6475 260.929 71.6384 261.991Z" fill="#4762A7"/>
<path fill-rule="evenodd" clip-rule="evenodd" d="M78.9716 253.83V255.488C78.9716 255.887 79.5656 255.887 79.5656 255.555V253.896C79.5003 253.498 78.9716 253.498 78.9716 253.83Z" fill="#A9D9DB"/>
<path fill-rule="evenodd" clip-rule="evenodd" d="M79.5002 251.905C79.1699 251.905 78.9055 251.972 78.6412 252.171C78.3109 252.37 78.7071 252.834 79.0374 252.569C79.1699 252.502 79.3017 252.436 79.5002 252.436C79.8305 252.436 79.8964 251.905 79.5002 251.905Z" fill="#A9D9DB"/>
<path fill-rule="evenodd" clip-rule="evenodd" d="M82.2744 258.474C81.6804 257.28 81.0858 256.019 80.4911 254.825C80.3586 254.493 79.8305 254.759 79.9624 255.09C80.4911 256.218 81.0858 257.346 81.6139 258.474C81.0858 258.673 80.557 258.872 80.0283 259.138C79.698 259.337 79.9624 259.801 80.2927 259.668C80.8873 259.403 81.482 259.138 82.0767 259.005C82.2744 258.872 82.341 258.673 82.2744 258.474Z" fill="#A9D9DB"/>
<path fill-rule="evenodd" clip-rule="evenodd" d="M77.8481 250.313C77.5178 249.849 76.7254 249.782 76.1966 249.716C75.4042 249.65 74.5451 249.716 73.8845 250.114C72.4308 251.043 72.7611 252.834 72.8277 254.294C72.6952 254.427 72.6293 254.692 72.8277 254.758C74.083 255.488 75.7345 254.825 76.7254 253.763C77.5844 252.967 78.6412 251.441 77.8481 250.313Z" fill="#4762A7"/>
<path fill-rule="evenodd" clip-rule="evenodd" d="M79.8304 256.086C78.1783 261.393 78.8389 264.976 80.2267 264.446C81.6138 263.915 83.794 260.995 82.935 258.275C82.0766 255.555 80.557 253.763 79.8304 256.086Z" fill="#477C9D"/>
<path fill-rule="evenodd" clip-rule="evenodd" d="M83.3316 257.877C83.2657 257.545 82.7376 257.479 82.7376 257.877C82.8695 259.336 83.0013 260.929 81.812 261.924C81.5483 262.189 81.9445 262.588 82.2089 262.322C83.53 261.261 83.53 259.469 83.3316 257.877Z" fill="#477C9D"/>
<path fill-rule="evenodd" clip-rule="evenodd" d="M76.1967 268.559C72.299 262.72 75.2058 255.953 75.2058 255.953L69.7226 255.687C69.3923 257.877 69.9197 264.246 62.9834 265.507C56.0471 266.768 55.7827 273.071 55.7827 273.071C55.7827 273.071 57.2351 273.336 59.2842 273.734C60.01 273.004 60.7372 272.275 61.6622 271.744C62.7197 271.147 63.5121 272.805 62.5212 273.403C62.1909 273.602 61.7941 273.867 61.5303 274.199C66.7492 275.327 73.8846 277.184 74.7436 279.175C74.6764 279.175 80.0943 274.398 76.1967 268.559Z" fill="#4762A7"/>
<path fill-rule="evenodd" clip-rule="evenodd" d="M76.0647 254.427C72.4973 253.697 70.5815 258.607 76.5934 259.668L76.0647 254.427Z" fill="#F1F7ED"/>
<path fill-rule="evenodd" clip-rule="evenodd" d="M74.479 255.953C74.0821 255.886 74.0821 256.484 74.4124 256.55C74.9411 256.616 75.404 257.014 75.5365 257.479C75.6017 257.81 76.1964 257.744 76.0646 257.346C75.8661 256.616 75.2714 256.085 74.479 255.953Z" fill="#A9D9DB"/>
<path fill-rule="evenodd" clip-rule="evenodd" d="M80.3584 261.46C78.1122 261.062 76.0645 260.199 74.2152 258.872C73.9502 258.673 73.6199 259.138 73.9502 259.337C75.8001 260.73 77.9144 261.659 80.2265 261.991C80.5568 262.123 80.7559 261.526 80.3584 261.46Z" fill="#477C9D"/>
<path fill-rule="evenodd" clip-rule="evenodd" d="M82.2088 256.683C80.2263 256.152 78.112 254.958 76.2621 253.962C75.9318 253.763 75.6681 254.294 75.999 254.427C77.9142 255.488 80.1611 256.683 82.2747 257.28V256.683H82.2088Z" fill="#477C9D"/>
<path fill-rule="evenodd" clip-rule="evenodd" d="M102.623 284.748C110.286 280.568 118.018 276.388 125.744 272.275C124.096 269.488 122.309 266.701 120.392 264.047C113.59 267.63 105.265 272.275 98.5265 275.924C99.3189 279.175 101.763 281.497 102.623 284.748Z" fill="#F06057"/>
<path fill-rule="evenodd" clip-rule="evenodd" d="M121.914 274.332C123.167 273.668 124.426 272.938 125.745 272.275C124.096 269.488 122.31 266.701 120.391 264.047C119.402 264.578 118.413 265.109 117.352 265.64C119.007 268.493 120.457 271.412 121.914 274.332Z" fill="#ACCAE9"/>
<path fill-rule="evenodd" clip-rule="evenodd" d="M102.16 275.725C96.2803 274.663 85.3138 272.474 79.4337 271.147C78.839 271.014 78.3109 271.014 77.7815 271.014C78.9715 273.867 78.9715 276.986 78.839 280.038C78.839 280.436 78.5746 280.701 78.2443 280.834C85.3138 282.426 92.3826 283.82 99.5173 285.014C102.094 285.412 104.803 284.284 105.463 281.564C105.596 280.9 105.794 280.237 105.992 279.573C103.019 277.981 105.133 277.384 102.16 275.725Z" fill="#F06057"/>
<path fill-rule="evenodd" clip-rule="evenodd" d="M120.392 264.047C123.563 261.991 125.481 258.872 127.927 258.74C130.373 258.54 127.004 260.531 126.404 262.256C125.811 263.981 133.808 258.939 135.192 260.133C136.649 261.393 130.373 262.19 130.57 263.185C130.768 264.18 135.653 260.597 136.584 261.858C137.507 263.052 131.362 264.645 131.625 265.64C131.824 266.635 136.715 262.72 137.243 264.512C137.638 265.706 133.346 266.9 132.218 267.962C131.164 269.024 136.715 266.436 136.913 267.829C137.11 269.223 128.587 270.749 125.679 272.341C122.771 273.933 120.392 264.047 120.392 264.047Z" fill="#ACCAE9"/>
<path fill-rule="evenodd" clip-rule="evenodd" d="M120.392 264.047C123.563 261.991 125.481 258.872 127.927 258.74C130.373 258.54 127.004 260.531 126.404 262.256C125.811 263.981 133.808 258.939 135.192 260.133C136.649 261.393 130.373 262.19 130.57 263.185C130.768 264.18 135.653 260.597 136.584 261.858C137.507 263.052 131.362 264.645 131.625 265.64C131.824 266.635 136.715 262.72 137.243 264.512C137.638 265.706 133.346 266.9 132.218 267.962C131.164 269.024 136.715 266.436 136.913 267.829C137.11 269.223 128.587 270.749 125.679 272.341C122.771 273.933 120.392 264.047 120.392 264.047Z" stroke="#8CCDD1"/>
<path fill-rule="evenodd" clip-rule="evenodd" d="M81.1516 281.497C79.6979 281.298 78.2442 280.966 76.857 280.436C76.5267 280.303 76.3949 280.834 76.7252 280.966C78.1782 281.497 79.6319 281.895 81.1516 282.094C81.4819 282.161 81.4819 281.563 81.1516 281.497Z" fill="#F06057"/>
<path fill-rule="evenodd" clip-rule="evenodd" d="M82.4065 271.744C80.2928 271.412 77.9141 270.682 75.7339 270.881C74.4786 271.014 73.4218 271.611 72.9596 272.806C72.8271 273.137 73.3552 273.27 73.4877 272.938C74.2808 270.948 76.6589 271.412 78.311 271.678C79.6322 271.877 80.8868 272.076 82.2087 272.275C82.6702 272.341 82.8033 271.81 82.4065 271.744Z" fill="#7A86C1"/>
<path fill-rule="evenodd" clip-rule="evenodd" d="M99.4511 275.857C99.1208 276.322 98.7905 276.853 98.4602 277.317C98.2625 277.649 98.7246 277.914 98.9231 277.583C99.2534 277.118 99.5837 276.587 99.914 276.123C100.112 275.857 99.6496 275.526 99.4511 275.857Z" stroke="#E45552"/>
<path fill-rule="evenodd" clip-rule="evenodd" d="M122.178 274.73V274.663C120.86 271.412 119.403 268.161 117.886 264.91C117.754 264.578 117.22 264.844 117.418 265.175C118.809 268.095 120.062 271.081 121.32 274.066V274.199L121.65 274.929C121.849 275.261 122.309 275.061 122.178 274.73Z" fill="#ACCAE9"/>
</svg>
