<svg width="426" height="315" viewBox="0 0 426 315" fill="none" xmlns="http://www.w3.org/2000/svg">
<path d="M369.269 97.0531C417.599 145.969 450.94 209.581 401.871 258.116C353.987 305.479 261.243 297.784 183.076 281.222C99.4841 263.511 7.43141 235.516 0.677807 173.112C-7.25032 99.8559 55.0216 26.8782 153.353 6.5873C241.893 -11.6828 315.959 43.0969 369.269 97.0531Z" fill="#69A1AC"/>
<path d="M47.1816 314.136C42.475 302.036 37.7685 289.936 33.062 277.836C32.8617 277.336 32.0606 277.536 32.2609 278.036C36.9674 290.136 41.6739 302.236 46.3805 314.336C46.5807 314.836 47.3818 314.636 47.1816 314.136Z" fill="#E4E9FF"/>
<path d="M152.427 293.336C150.525 300.236 148.722 307.236 146.82 314.136C146.72 314.636 147.521 314.936 147.621 314.336C149.523 307.436 151.326 300.436 153.229 293.536C153.429 293.036 152.628 292.736 152.427 293.336Z" fill="#E4E9FF"/>
<path d="M257.874 314.136C253.668 303.736 249.562 293.336 245.356 282.836C245.156 282.336 244.355 282.536 244.555 283.036C248.761 293.436 252.867 303.836 257.073 314.336C257.173 314.836 258.074 314.636 257.874 314.136Z" fill="#E4E9FF"/>
<path d="M251.765 314.036C250.063 310.736 248.26 307.536 246.558 304.236C246.258 303.736 245.557 304.136 245.857 304.636C247.559 307.936 249.362 311.136 251.064 314.436C251.265 314.936 252.066 314.536 251.765 314.036Z" fill="#E4E9FF"/>
<path d="M246.758 280.536C246.158 278.136 244.856 274.136 243.053 274.936C241.952 275.436 242.152 277.236 242.252 278.136C242.352 279.536 242.653 280.936 243.053 282.336C242.553 281.936 239.148 279.636 237.646 279.736C237.345 279.736 237.145 280.136 237.345 280.436C239.048 282.936 240.95 285.436 243.254 287.436C244.655 288.536 246.057 289.136 247.66 288.036C249.362 286.936 249.763 284.936 249.863 283.036C249.963 281.736 250.263 275.836 248.761 275.636C247.059 275.336 246.859 279.836 246.758 280.536Z" fill="#E4E9FF"/>
<path d="M157.835 286.936C156.133 287.836 155.432 290.036 155.031 290.436C155.031 289.836 156.233 286.436 155.432 286.236C154.631 286.036 153.129 288.736 152.628 289.536C152.528 288.636 153.129 285.836 152.328 285.836C151.426 285.836 151.226 286.736 151.126 287.436C150.826 288.936 149.824 296.536 152.828 296.336C154.13 296.236 155.532 294.436 156.233 293.536C157.234 292.236 158.736 290.336 158.837 288.636C159.037 287.736 158.736 286.436 157.835 286.936Z" fill="#E4E9FF"/>
<path d="M35.7658 274.436C34.464 274.136 35.7658 276.836 35.6657 278.436C34.8646 276.536 32.0607 273.336 31.0593 274.136C29.357 275.536 31.2596 279.736 31.3597 280.036C31.2596 279.936 28.5558 276.636 28.2554 277.536C27.7547 278.836 32.6615 284.936 34.1636 285.436C36.8674 286.436 37.5683 282.836 37.7686 280.936C37.7686 279.636 37.6685 274.936 35.7658 274.436Z" fill="#E4E9FF"/>
<path d="M42.1748 312.336L38.1693 305.436C37.8688 304.936 37.1679 305.436 37.4683 305.836C38.7701 308.136 40.172 310.436 41.4738 312.736C41.7742 313.236 42.4752 312.736 42.1748 312.336Z" fill="#E4E9FF"/>
<path d="M254.469 292.136C252.667 290.536 250.864 292.836 250.264 294.636C249.963 294.636 249.763 294.836 249.863 295.136C250.564 297.336 251.265 299.436 252.066 301.636C252.166 301.936 252.567 302.036 252.767 301.836C252.967 301.836 253.168 301.736 253.268 301.536C253.869 299.536 254.57 297.536 255.17 295.536C255.371 294.336 255.471 293.036 254.469 292.136Z" fill="#E4E9FF"/>
<path d="M151.326 299.936C151.126 300.036 150.926 300.136 150.725 300.236C150.124 298.436 148.422 295.236 146.62 297.136C145.718 298.136 146.319 299.636 146.72 300.736C147.22 302.236 148.522 305.436 149.223 306.436C149.724 304.236 150.425 302.136 151.326 299.936Z" fill="#E4E9FF"/>
<path d="M412.188 304.736C410.886 307.836 409.484 310.936 408.183 313.936C407.982 314.436 408.683 314.836 408.884 314.336C410.185 311.236 411.587 308.136 412.889 305.136C413.089 304.736 412.388 304.236 412.188 304.736Z" fill="#E4E9FF"/>
<path d="M292.522 151.936C284.01 141.736 274.297 130.336 265.685 120.236C269.59 117.236 273.596 114.336 277.802 111.736C285.312 120.536 294.525 131.636 302.035 140.536C299.131 144.736 295.526 147.836 292.522 151.936Z" fill="#E4E9FF"/>
<path d="M294.925 144.036C302.135 138.536 315.354 127.836 322.263 122.036C329.473 115.936 345.095 123.436 337.785 129.536C328.873 137.036 315.654 147.936 306.341 154.936C303.237 157.336 297.329 157.436 294.425 154.236C293.724 153.436 293.023 152.736 292.422 151.936C295.326 147.636 292.121 148.336 294.925 144.036Z" fill="#E4E9FF"/>
<path d="M277.802 111.736C274.497 107.036 269.691 99.3359 267.487 99.5359C265.184 99.7359 270.391 103.036 270.291 105.836C270.191 108.636 261.679 97.0359 259.076 97.9359C256.372 98.8359 264.684 103.536 263.882 104.736C262.981 106.036 258.175 98.3359 256.172 99.5359C254.169 100.736 261.98 106.336 261.079 107.536C260.177 108.836 255.571 100.636 253.768 102.836C252.567 104.336 257.974 108.336 258.875 110.436C259.777 112.436 253.869 104.336 252.867 106.236C251.866 108.136 262.481 116.436 265.685 120.236C268.99 124.036 277.802 111.736 277.802 111.736Z" fill="#788BF1"/>
<path d="M269.29 125.736C269.39 125.636 269.39 125.636 269.29 125.736C269.39 125.636 269.39 125.636 269.29 125.736C269.39 125.636 269.39 125.636 269.29 125.736C273.095 121.836 276.9 118.036 280.806 114.436C281.206 114.036 281.707 114.736 281.306 115.136C277.701 118.436 274.297 121.936 270.892 125.436C270.892 125.536 270.792 125.536 270.792 125.636L269.891 126.436C269.59 126.636 268.989 126.036 269.29 125.736Z" fill="#788BF1"/>
<path d="M280.906 115.336C279.805 114.036 278.803 112.836 277.802 111.636C273.696 114.336 269.591 117.136 265.685 120.136C267.187 121.836 268.689 123.636 270.291 125.536C273.396 121.736 277.101 118.536 280.906 115.336Z" fill="#788BF1"/>
<path d="M303.337 142.536C303.037 141.636 302.636 140.836 302.035 140.036C301.735 139.536 300.934 140.036 301.334 140.436C301.835 141.136 302.236 141.936 302.536 142.736C302.636 143.336 303.437 143.136 303.337 142.536Z" fill="#A9CDFF"/>
<path d="M270.492 115.236C268.589 113.436 267.988 110.836 268.789 108.336C268.99 107.836 268.088 107.536 267.988 108.136C267.087 110.936 267.788 113.936 269.891 115.936C270.292 116.236 270.892 115.636 270.492 115.236Z" fill="white"/>
<path d="M133.902 91.0359C126.792 98.7359 117.68 108.736 110.37 116.836C102.459 120.236 88.8397 125.736 81.2291 128.636C72.4169 132.136 77.2236 146.036 86.0358 142.536C96.8508 138.336 106.364 134.636 116.979 129.836C117.179 129.736 117.279 129.636 117.479 129.536C118.781 128.636 119.983 127.336 120.684 126.436C130.297 115.736 135.605 109.336 145.418 98.7359C141.913 95.8359 137.707 93.7359 133.902 91.0359Z" fill="#FF6B57"/>
<path d="M139.009 105.836C141.012 103.636 143.115 101.336 145.418 98.7359C141.813 95.7359 137.607 93.7359 133.802 91.0359C132.2 92.8359 130.497 94.6359 128.695 96.6359C132.4 99.4359 135.604 102.736 139.009 105.836Z" fill="#A9CDFF"/>
<path d="M133.902 91.0359C136.005 88.4359 140.912 83.8359 144.417 83.5359C147.922 83.2359 142.715 85.5359 141.813 88.0359C140.912 90.5359 151.226 83.1359 153.73 84.0359C156.233 84.9359 147.822 87.8359 148.122 89.2359C148.422 90.6359 155.532 86.0359 156.834 87.7359C158.136 89.4359 149.123 92.0359 149.424 93.4359C149.724 94.8359 156.834 88.7359 157.635 91.3359C158.136 93.0359 151.827 95.2359 150.325 96.6359C148.823 98.1359 157.135 94.2359 157.435 96.2359C157.735 98.2359 145.619 100.536 141.413 102.836C137.307 105.236 133.902 91.0359 133.902 91.0359Z" fill="#A9CDFF"/>
<path d="M141.813 89.7359C141.713 89.2359 140.912 89.1359 140.912 89.7359C141.112 91.5359 141.112 94.5359 139.21 95.4359C138.709 95.6359 139.109 96.4359 139.61 96.1359C141.913 95.2359 142.013 91.8359 141.813 89.7359Z" fill="#788BF1"/>
<path d="M110.269 117.236C110.069 118.036 109.769 118.836 109.568 119.636C109.368 120.136 110.269 120.436 110.37 119.836C110.57 119.036 110.87 118.236 111.071 117.436C111.271 116.936 110.37 116.736 110.269 117.236Z" fill="#788BF1"/>
<path d="M139.71 105.936C136.206 102.436 132.801 99.0359 129.296 95.5359C128.895 95.1359 128.295 95.7359 128.695 96.1359C132.2 99.6359 135.605 103.036 139.11 106.536C139.51 106.936 140.111 106.336 139.71 105.936Z" fill="#A9CDFF"/>
<path d="M274.196 263.936C266.586 267.336 258.475 264.636 255.07 256.936C251.665 249.336 254.469 239.236 262.18 236.136C271.793 232.236 278.803 236.736 282.208 244.336C285.612 251.936 281.807 260.536 274.196 263.936Z" fill="#4EDDBB"/>
<path d="M277.802 242.336C279.204 240.936 280.606 239.536 281.907 238.236C282.709 237.436 281.607 236.136 280.806 236.936C279.404 238.336 278.002 239.736 276.7 241.036C275.899 241.736 277 243.136 277.802 242.336Z" fill="#4EDDBB"/>
<path d="M279.604 262.736C278.603 261.636 277.602 260.536 276.5 259.336C275.799 258.536 274.397 259.636 275.198 260.436C276.2 261.536 277.201 262.636 278.302 263.836C279.003 264.736 280.405 263.636 279.604 262.736Z" fill="#4EDDBB"/>
<path d="M257.674 244.236C256.672 243.636 255.671 242.936 254.67 242.336C254.369 242.136 253.969 241.936 253.668 241.836C253.568 241.636 253.468 241.436 253.168 241.336C252.867 241.236 252.567 241.136 252.367 241.236C251.966 241.336 251.666 241.636 251.666 242.036C251.565 242.936 252.867 243.336 253.468 243.636C254.67 244.236 255.671 244.936 256.773 245.636C257.574 246.136 258.675 244.736 257.674 244.236Z" fill="#4EDDBB"/>
<path d="M255.17 249.936C253.568 249.936 252.066 250.336 250.664 250.836C249.663 251.236 250.363 252.836 251.365 252.436C252.667 251.936 254.068 251.636 255.47 251.636C256.572 251.636 256.272 249.936 255.17 249.936Z" fill="#4EDDBB"/>
<path d="M252.667 242.436C253.368 241.036 252.667 239.536 251.966 238.336C251.465 237.336 249.863 238.036 250.363 239.036C250.764 239.736 251.365 240.536 251.165 241.436C251.064 241.836 250.764 242.436 250.263 242.236C249.262 241.836 248.561 243.436 249.662 243.836C250.964 244.236 252.166 243.536 252.667 242.436Z" fill="#4EDDBB"/>
<path d="M283.91 237.336C283.409 237.536 282.608 237.836 282.108 237.436C281.907 237.236 281.807 236.936 282.007 236.836C282.408 236.636 282.408 235.936 282.108 235.636C281.807 235.236 281.306 235.236 280.906 235.536C279.804 236.236 280.005 237.736 280.706 238.536C281.707 239.636 283.309 239.336 284.611 238.936C285.713 238.536 285.012 236.936 283.91 237.336Z" fill="#4EDDBB"/>
<path d="M279.604 265.536C279.303 264.836 279.904 264.036 280.605 264.436C281.507 265.036 282.608 263.636 281.607 263.036C280.705 262.436 279.504 262.436 278.602 263.136C277.701 263.836 277.501 265.136 278.002 266.136C278.502 267.236 280.105 266.536 279.604 265.536Z" fill="#4EDDBB"/>
<path d="M249.662 254.536C250.564 253.936 251.365 252.936 251.064 251.836C250.764 250.736 249.462 250.136 248.461 250.836C248.06 251.136 248.06 251.736 248.361 252.036C248.661 252.336 248.961 252.436 249.362 252.236V252.336V252.436C249.162 252.736 248.861 253.036 248.561 253.236C248.16 253.536 248.16 254.136 248.461 254.436C248.761 254.836 249.262 254.836 249.662 254.536Z" fill="#4EDDBB"/>
<path d="M261.178 265.836C262.18 264.436 261.479 262.336 259.676 262.036C258.875 261.936 258.074 262.136 257.473 262.736C256.772 263.436 257.273 264.536 258.274 264.536C258.675 264.536 258.875 264.236 258.975 263.936C259.576 263.736 260.177 264.336 259.776 264.936C259.176 265.736 260.578 266.736 261.178 265.836Z" fill="#4EDDBB"/>
<path d="M272.995 241.536C273.095 241.036 272.995 240.636 272.494 240.436C272.094 240.236 271.493 240.436 271.393 240.936C271.293 241.336 270.792 241.636 270.391 241.436C269.79 241.136 269.891 240.236 270.191 239.836C270.792 238.936 269.39 237.936 268.789 238.836C267.888 240.136 267.988 242.136 269.49 242.936C270.692 243.636 272.594 243.036 272.995 241.536Z" fill="#788BF1"/>
<path d="M273.396 256.436C273.195 256.136 273.095 255.436 273.396 255.136C273.696 254.836 274.097 254.936 274.297 255.236C274.898 256.136 276.3 255.036 275.599 254.136C274.798 253.036 273.195 252.936 272.194 253.736C271.092 254.636 271.193 256.336 271.894 257.436C272.595 258.436 273.996 257.336 273.396 256.436Z" fill="#788BF1"/>
<path d="M261.98 253.236L264.483 252.736C265.585 252.536 265.284 250.836 264.183 251.036C263.282 251.236 262.481 251.336 261.579 251.536C260.878 250.436 259.176 249.936 257.974 249.636C256.873 249.336 256.272 250.936 257.373 251.236C258.074 251.436 259.977 251.836 260.277 252.636C260.578 253.636 259.176 254.336 258.475 254.736C257.574 255.336 258.675 256.636 259.577 256.036C260.678 255.336 261.78 254.436 261.98 253.236Z" fill="#788BF1"/>
<path d="M269.09 245.536C269.891 244.836 270.491 243.936 270.892 242.936C271.292 241.836 269.59 241.236 269.29 242.336C268.989 243.036 268.589 243.736 267.988 244.236C267.187 244.936 268.288 246.336 269.09 245.536Z" fill="#788BF1"/>
<path d="M272.895 253.536C272.694 253.336 272.494 253.236 272.394 252.936C272.194 251.836 270.491 252.136 270.692 253.236C270.792 253.936 271.192 254.636 271.893 255.036C272.795 255.536 273.796 254.136 272.895 253.536Z" fill="#788BF1"/>
<path d="M284.711 252.236C284.21 251.936 283.609 251.436 283.71 250.736C283.71 250.336 284.11 249.836 284.511 249.836C285.612 249.936 285.812 248.136 284.711 248.136C283.609 248.036 282.608 248.736 282.207 249.736C281.206 249.536 280.105 249.636 279.103 249.936C278.703 250.036 278.502 250.736 278.703 251.036C278.903 251.536 279.404 251.636 279.804 251.436C280.505 251.236 281.306 251.236 282.107 251.336C282.408 252.336 283.209 253.136 284.21 253.636C285.111 254.336 285.712 252.736 284.711 252.236Z" fill="#788BF1"/>
<path d="M276.3 235.136C277.001 234.236 275.599 233.236 274.898 234.136C274.297 234.936 272.995 234.536 272.995 233.536C273.095 232.436 271.293 232.236 271.293 233.336C271.193 234.536 271.894 235.736 273.095 236.236C274.297 236.636 275.599 236.136 276.3 235.136Z" fill="#788BF1"/>
<path d="M263.181 241.936C262.68 240.636 261.879 239.436 260.878 238.436C261.178 237.536 260.978 236.436 260.778 235.536C260.477 234.436 258.775 234.736 259.075 235.836C259.276 236.436 259.576 237.436 259.176 238.136C258.975 238.436 258.475 238.736 258.274 238.436C257.673 237.536 256.272 238.636 256.973 239.536C257.673 240.536 258.975 240.536 259.877 239.936C260.577 240.736 261.178 241.636 261.579 242.736C261.979 243.636 263.582 242.936 263.181 241.936Z" fill="#788BF1"/>
<path d="M268.288 265.136C268.088 263.936 267.087 262.936 265.885 262.836C264.683 262.736 263.482 263.536 263.181 264.636C262.781 265.736 264.483 266.336 264.783 265.236C265.084 264.336 266.386 264.336 266.586 265.336C266.786 266.536 268.489 266.236 268.288 265.136Z" fill="#788BF1"/>
<path d="M269.19 184.536C257.674 202.936 236.244 208.836 217.718 197.336C199.192 185.836 190.581 160.136 202.697 142.036C217.718 119.736 239.448 119.036 257.974 130.536C276.5 142.036 280.806 166.036 269.19 184.536Z" fill="#4EDDBB"/>
<path d="M201.195 175.836C199.092 176.536 197.089 177.436 195.087 178.336C194.085 178.836 194.886 180.336 195.888 179.836C197.79 178.936 199.693 178.136 201.596 177.436C202.597 177.136 202.197 175.436 201.195 175.836Z" fill="#4EDDBB"/>
<path d="M268.689 132.436C266.085 134.736 263.481 137.136 260.778 139.436C259.977 140.136 261.078 141.436 261.979 140.736C264.583 138.436 267.187 136.036 269.89 133.736C270.691 132.936 269.59 131.636 268.689 132.436Z" fill="#4EDDBB"/>
<path d="M252.667 203.936C251.966 202.236 251.165 200.636 250.163 199.136C249.562 198.236 248.06 199.036 248.661 199.936C249.663 201.436 250.464 203.136 251.165 204.736C251.565 205.836 253.167 204.936 252.667 203.936Z" fill="#4EDDBB"/>
<path d="M229.434 130.236C228.834 126.936 228.633 123.736 228.733 120.436C228.733 119.336 227.031 119.236 227.031 120.336C226.931 123.836 227.231 127.236 227.832 130.636C227.932 131.736 229.635 131.336 229.434 130.236Z" fill="#4EDDBB"/>
<path d="M231.037 118.336C231.437 117.336 229.735 116.836 229.334 117.836C228.934 118.836 227.732 118.536 227.331 117.736C226.931 116.736 225.329 117.536 225.829 118.536C226.23 119.636 227.331 120.336 228.533 120.236C229.735 120.236 230.636 119.436 231.037 118.336Z" fill="#4EDDBB"/>
<path d="M272.294 132.336C271.693 132.436 269.89 132.236 270.491 131.136C270.992 130.136 269.59 129.236 268.989 130.236C268.388 131.236 268.588 132.436 269.39 133.236C270.191 134.136 271.492 134.236 272.694 133.936C273.796 133.736 273.395 132.136 272.294 132.336Z" fill="#4EDDBB"/>
<path d="M196.288 179.036C195.487 177.636 192.984 177.136 191.582 176.936C190.48 176.736 190.48 178.536 191.482 178.636C192.082 178.736 192.583 178.836 193.084 179.036C193.484 179.136 194.486 179.436 194.586 179.836C194.686 180.136 194.386 180.936 194.185 181.236C193.985 181.836 193.685 182.336 193.284 182.936C192.683 183.836 194.185 184.836 194.786 183.836C195.687 182.736 197.089 180.436 196.288 179.036Z" fill="#4EDDBB"/>
<path d="M253.267 206.236C253.467 206.336 253.668 206.436 253.868 206.536C254.869 206.936 255.37 205.336 254.369 204.836C253.668 204.536 253.367 203.936 252.566 203.936C251.865 203.936 251.264 204.436 251.064 205.036C250.463 206.436 250.363 208.036 250.664 209.636C250.864 210.736 252.566 210.336 252.366 209.236C252.166 208.336 252.266 207.436 252.466 206.536C252.466 206.336 252.566 206.136 252.666 205.936C252.766 205.636 252.466 205.736 252.867 205.736C252.867 205.836 253.067 206.136 253.267 206.236Z" fill="#4EDDBB"/>
<path d="M277.701 171.736C277.201 171.536 276.8 171.236 276.399 170.836C276.199 170.636 275.698 170.236 275.698 169.936C275.698 169.636 276.299 169.336 276.6 169.236C277 168.936 277.401 168.836 277.901 168.736C279.003 168.436 278.602 166.836 277.501 167.036C276.199 167.336 274.297 168.236 273.996 169.736C273.696 171.336 275.498 172.636 276.7 173.236C277.801 173.736 278.703 172.236 277.701 171.736Z" fill="#4EDDBB"/>
<path d="M219.621 144.736C219.621 143.636 219.621 142.536 219.621 141.536C219.621 140.436 217.918 140.336 217.918 141.436C217.918 142.036 217.918 142.736 217.918 143.336C217.918 143.636 217.918 143.936 217.918 144.236C217.918 144.436 217.918 144.536 217.918 144.736C217.918 144.936 217.918 144.936 217.818 144.836C217.518 144.936 216.516 144.436 216.216 144.336C215.615 144.036 215.014 143.736 214.413 143.336C213.512 142.736 212.511 144.236 213.512 144.836C214.313 145.336 215.214 145.836 216.116 146.136C216.917 146.436 217.818 146.736 218.619 146.536C219.42 146.136 219.621 145.436 219.621 144.736Z" fill="#788BF1"/>
<path d="M259.276 155.836C258.275 155.936 257.273 155.936 256.372 155.736C255.571 155.636 253.468 155.236 253.268 154.236C253.067 153.336 254.069 152.136 254.569 151.536C255.27 150.636 256.071 149.736 256.772 148.736C257.373 147.836 255.871 146.836 255.27 147.836C254.269 149.436 251.565 151.736 251.465 153.936C251.365 154.036 251.265 154.136 251.265 154.236C251.064 154.236 250.363 154.636 250.263 154.736C249.963 154.936 249.562 155.136 249.262 155.236C248.461 155.636 247.66 156.036 246.859 156.536C245.857 157.036 246.658 158.636 247.66 158.036C248.761 157.436 249.863 156.936 250.964 156.336C251.365 156.136 251.765 155.936 252.166 155.736C252.867 156.436 253.969 156.836 254.87 157.036C256.372 157.436 257.874 157.536 259.376 157.436C260.277 157.436 260.377 155.736 259.276 155.836Z" fill="#788BF1"/>
<path d="M221.223 147.536C220.522 146.836 219.921 146.136 219.421 145.336C219.12 144.936 218.72 144.736 218.219 144.936C217.818 145.136 217.618 145.736 217.818 146.136C218.419 147.036 219.12 147.936 219.921 148.636C220.722 149.536 222.024 148.336 221.223 147.536Z" fill="#788BF1"/>
<path d="M243.754 136.436C244.355 135.436 242.853 134.536 242.252 135.536C241.852 136.236 241.05 137.136 240.149 137.236C238.847 137.336 238.647 135.636 238.447 134.736C238.246 133.636 236.544 134.036 236.744 135.136C236.945 136.336 237.445 137.836 238.547 138.536C238.347 139.836 238.046 141.036 237.445 142.236C236.945 143.236 238.447 144.136 238.947 143.136C239.548 141.836 239.949 140.436 240.249 138.936C241.651 138.836 243.053 137.636 243.754 136.436Z" fill="#788BF1"/>
<path d="M233.44 168.336C234.241 167.536 235.142 166.836 235.943 166.036C236.744 165.336 235.643 164.036 234.742 164.736C233.84 165.536 232.939 166.336 232.038 167.136C230.536 166.436 228.633 167.336 227.031 167.836C225.93 168.136 226.33 169.836 227.432 169.536C228.633 169.136 230.536 168.136 231.637 169.036C232.939 170.036 232.739 171.936 232.038 173.136C231.437 174.136 232.939 175.036 233.54 174.036C234.541 172.336 234.641 170.036 233.44 168.336Z" fill="#788BF1"/>
<path d="M251.365 184.736C250.664 184.036 249.863 183.336 248.861 183.336C248.861 183.236 248.761 183.136 248.661 183.036C248.461 182.736 248.261 182.336 248.261 182.036C248.261 180.936 246.458 180.836 246.558 181.936C246.558 182.736 246.859 183.436 247.259 184.036C246.658 184.836 246.658 186.036 246.758 187.036C246.959 188.136 248.561 187.736 248.461 186.636C248.361 186.236 248.16 185.036 248.861 185.036C249.262 185.036 249.763 185.636 250.063 185.936C250.864 186.736 252.166 185.536 251.365 184.736Z" fill="#788BF1"/>
<path d="M220.021 176.436C220.622 175.736 221.123 174.936 221.724 174.236C222.425 173.336 220.923 172.436 220.222 173.336C219.721 174.036 219.22 174.736 218.619 175.436C218.019 175.136 217.217 175.136 216.516 175.336C215.415 175.636 215.815 177.336 216.917 177.036C218.319 176.636 219.42 177.836 218.92 179.136C218.519 180.136 220.121 180.636 220.622 179.636C220.923 178.536 220.722 177.336 220.021 176.436Z" fill="#788BF1"/>
<path d="M267.587 176.836C267.187 176.436 266.686 175.936 266.586 175.336C266.386 174.636 267.187 174.336 267.788 174.436C268.889 174.736 269.39 173.036 268.288 172.736C267.187 172.436 265.985 172.836 265.284 173.736C265.184 173.736 265.184 173.636 265.084 173.636C264.483 173.536 263.782 173.436 263.181 173.136C262.781 172.936 262.28 173.036 261.98 173.436C261.779 173.836 261.879 174.436 262.28 174.636C263.081 175.036 263.982 175.336 264.884 175.336C264.984 176.336 265.685 177.236 266.386 177.936C267.087 178.836 268.388 177.636 267.587 176.836Z" fill="#788BF1"/>
<path d="M276.199 156.836C275.398 157.136 274.397 156.736 273.996 155.936C273.596 155.136 274.197 154.036 275.098 153.736C276.199 153.436 275.799 151.736 274.697 152.036C272.895 152.636 271.793 154.536 272.294 156.336C272.795 158.036 274.797 159.036 276.5 158.536C277.701 158.236 277.301 156.536 276.199 156.836Z" fill="#788BF1"/>
<path d="M273.495 156.336C273.395 155.936 272.895 155.536 272.494 155.736C271.693 156.036 270.792 156.236 269.991 156.536C269.59 156.636 269.189 157.136 269.39 157.536C269.49 157.936 269.991 158.336 270.391 158.136C271.192 157.836 272.094 157.636 272.895 157.336C273.295 157.236 273.596 156.836 273.495 156.336Z" fill="#788BF1"/>
<path d="M215.815 162.336C213.612 162.436 211.409 162.236 209.306 161.736C208.205 161.536 207.704 163.136 208.806 163.436C211.109 163.936 213.412 164.236 215.815 164.136C216.817 164.036 216.917 162.336 215.815 162.336Z" fill="#788BF1"/>
<path d="M208.906 162.236C208.605 160.636 207.203 159.236 205.501 159.336C204.399 159.436 204.299 161.136 205.401 161.036C206.302 161.036 207.103 161.736 207.203 162.636C207.303 163.736 206.502 164.636 205.601 165.136C204.6 165.736 205.401 167.236 206.402 166.636C208.004 165.736 209.306 164.036 208.906 162.236Z" fill="#788BF1"/>
<path d="M230.736 191.336C230.836 191.236 230.936 191.236 230.936 191.136L233.74 186.736C234.341 185.836 232.839 184.836 232.238 185.836L229.434 190.236C229.234 190.536 229.234 190.736 229.334 190.936C227.832 190.736 226.23 191.636 225.429 192.936C224.828 193.836 226.33 194.836 226.931 193.836C227.432 193.036 228.433 192.436 229.334 192.636C230.336 192.836 230.936 194.236 230.135 194.936C229.334 195.736 230.536 197.036 231.337 196.236C232.839 194.836 232.539 192.336 230.736 191.336Z" fill="#788BF1"/>
<path d="M216.416 194.736C217.418 193.636 218.419 192.436 219.521 191.336C220.222 190.536 219.12 189.236 218.319 190.036C217.217 191.236 216.116 192.436 215.115 193.636C215.014 193.736 215.014 193.836 215.014 193.836C213.913 193.436 212.611 193.436 211.409 194.036C210.408 194.536 211.209 196.036 212.211 195.536C214.714 194.236 217.017 196.736 216.016 199.236C215.615 200.236 217.217 200.736 217.718 199.736C218.419 197.836 217.718 195.936 216.416 194.736Z" fill="#788BF1"/>
<path d="M264.884 190.936C264.083 191.036 263.382 190.436 262.58 190.136C261.879 189.936 260.978 190.036 260.377 190.536C259.076 191.536 259.276 193.636 259.576 195.036C259.877 196.136 261.579 195.736 261.279 194.636C261.078 193.936 260.578 191.636 261.879 191.736C262.881 191.836 263.582 192.636 264.683 192.536C265.885 192.636 265.985 190.836 264.884 190.936Z" fill="#788BF1"/>
<path d="M215.716 127.536C215.315 126.536 213.713 126.836 214.013 127.936C214.614 129.736 212.611 131.136 211.209 129.836C210.408 129.136 209.106 130.236 209.907 131.036C211.109 132.136 212.912 132.436 214.314 131.536C215.615 130.636 216.216 129.036 215.716 127.536Z" fill="#788BF1"/>
<path d="M216.116 132.436C215.715 131.736 215.215 131.036 214.814 130.236C214.213 129.236 212.711 130.036 213.312 131.036C213.713 131.736 214.213 132.436 214.614 133.236C215.115 134.236 216.617 133.436 216.116 132.436Z" fill="#788BF1"/>
<path d="M255.971 127.236C254.869 129.136 252.066 127.436 253.267 125.536C253.868 124.536 252.366 123.736 251.765 124.636C250.864 126.136 251.264 128.336 252.867 129.336C254.469 130.236 256.572 129.636 257.473 128.036C258.074 127.236 256.572 126.336 255.971 127.236Z" fill="#788BF1"/>
<path d="M227.932 255.336C219.921 268.136 205 272.236 192.182 264.236C179.365 256.236 173.356 238.436 181.768 225.836C192.182 210.336 207.303 209.836 220.121 217.836C232.939 225.936 235.943 242.536 227.932 255.336Z" fill="#4EDDBB"/>
<path d="M184.772 219.336C184.171 218.336 182.769 219.236 183.27 220.236C183.771 221.136 184.672 222.636 183.771 223.536C183.07 224.136 181.968 224.036 181.067 224.036C179.965 223.936 179.965 225.636 181.067 225.736C182.569 225.836 184.372 225.736 185.273 224.436C186.475 222.736 185.673 220.836 184.772 219.336Z" fill="#4EDDBB"/>
<path d="M214.613 208.836C213.612 209.336 212.21 208.536 212.11 207.436C212.01 206.336 210.207 206.336 210.408 207.436C210.508 208.336 210.908 209.036 211.509 209.636C211.209 210.936 210.908 212.236 210.608 213.536C210.408 214.636 212.01 215.036 212.31 214.036C212.611 212.836 212.811 211.736 213.111 210.536C213.913 210.736 214.814 210.736 215.615 210.336C216.516 209.936 215.615 208.436 214.613 208.836Z" fill="#4EDDBB"/>
<path d="M235.042 231.836C233.94 231.736 233.44 230.436 234.341 229.736C235.242 229.136 234.341 227.636 233.44 228.236C232.538 228.936 232.138 229.936 232.138 230.836C231.237 231.436 230.235 232.036 229.234 232.436C228.232 232.836 228.633 234.536 229.735 234.136C230.836 233.736 231.837 233.236 232.839 232.536C233.34 233.136 234.041 233.536 235.042 233.636C236.244 233.636 236.244 231.836 235.042 231.836Z" fill="#4EDDBB"/>
<path d="M219.821 267.436C219.22 265.836 217.318 264.736 215.715 265.636C214.213 266.436 213.913 268.536 215.014 269.736C215.715 270.536 217.017 269.336 216.216 268.536C215.815 268.136 216.116 267.336 216.516 267.136C217.117 266.836 217.918 267.336 218.119 267.936C218.519 268.936 220.222 268.536 219.821 267.436Z" fill="#4EDDBB"/>
<path d="M191.982 262.036C190.58 263.336 189.278 264.736 188.177 266.336C187.276 265.636 186.074 265.636 185.173 266.136C184.171 266.636 185.073 268.136 186.074 267.636C186.975 267.136 187.877 268.136 187.376 269.036C186.875 270.036 188.377 270.836 188.878 269.936C189.278 269.236 189.379 268.436 189.178 267.736C189.379 267.636 189.479 267.536 189.579 267.436C190.58 265.936 191.782 264.536 193.184 263.236C194.085 262.536 192.783 261.336 191.982 262.036Z" fill="#4EDDBB"/>
<path d="M182.469 250.136C181.468 248.736 179.565 248.636 177.963 248.836C177.462 248.936 177.262 249.536 177.362 249.936C177.462 250.436 177.963 250.636 178.463 250.536C179.265 250.436 180.466 250.436 181.067 251.036C181.568 251.536 181.568 252.236 181.067 252.636C180.166 253.336 181.468 254.536 182.269 253.836C183.37 253.036 183.27 251.236 182.469 250.136Z" fill="#788BF1"/>
<path d="M191.982 234.036C191.081 233.536 190.38 232.936 189.579 232.236C189.779 231.236 189.279 230.136 188.377 229.636C187.476 229.036 186.575 230.536 187.476 231.136C187.676 231.236 187.877 231.536 187.877 231.836C187.676 232.036 187.576 232.236 187.576 232.436C187.276 232.736 186.775 232.636 186.475 232.336C186.074 232.036 185.473 232.236 185.273 232.636C184.973 233.036 185.173 233.536 185.573 233.836C186.475 234.536 187.777 234.436 188.678 233.736C189.379 234.436 190.28 235.036 191.081 235.536C192.083 236.136 192.884 234.636 191.982 234.036Z" fill="#788BF1"/>
<path d="M210.208 222.536C209.907 223.036 209.406 223.236 209.006 223.236C208.806 222.936 208.505 222.836 208.105 222.836C207.704 222.536 207.504 221.936 207.704 221.336C208.004 220.236 206.302 219.836 206.002 220.836C205.601 222.036 206.002 223.436 207.003 224.236C206.602 225.136 206.302 226.036 205.901 226.936C205.501 227.936 207.203 228.436 207.604 227.436C207.904 226.636 208.305 225.836 208.605 225.036C209.807 225.136 211.009 224.536 211.71 223.536C212.311 222.536 210.808 221.636 210.208 222.536Z" fill="#788BF1"/>
<path d="M214.213 241.636C213.412 240.936 212.311 240.236 211.309 240.436C211.309 240.336 211.209 240.236 211.109 240.136C210.408 239.336 209.707 238.636 209.106 237.836C208.405 237.036 207.103 238.236 207.905 239.036C208.606 239.836 209.206 240.536 209.907 241.336C209.006 242.436 209.306 244.036 209.807 245.236C210.208 246.236 211.91 245.836 211.51 244.736C211.209 244.036 210.809 243.136 211.209 242.436C211.61 241.636 212.611 242.436 213.012 242.836C213.813 243.536 215.114 242.336 214.213 241.636Z" fill="#788BF1"/>
<path d="M200.094 255.736C199.993 255.736 199.993 255.636 200.094 255.636C200.594 254.436 201.095 253.336 201.596 252.136C201.796 251.736 201.395 251.236 200.995 251.036C200.494 250.936 200.094 251.236 199.893 251.636C199.393 252.836 198.892 253.936 198.391 255.136C198.291 255.336 198.391 255.536 198.491 255.736C197.49 256.036 196.689 256.936 196.589 258.036C196.489 259.136 198.191 259.136 198.291 258.036C198.391 257.436 199.292 257.136 199.793 257.436C200.494 257.736 200.694 258.736 200.594 259.436C200.394 260.536 202.096 261.036 202.297 259.936C202.597 258.336 201.996 256.236 200.094 255.736Z" fill="#788BF1"/>
<path d="M221.724 253.836C220.822 253.136 219.42 253.036 218.319 253.636L216.717 251.936C215.916 251.136 214.714 252.336 215.515 253.136C216.116 253.736 216.717 254.336 217.217 254.936C216.817 255.836 217.017 256.936 217.718 257.736C218.419 258.636 219.621 257.336 218.92 256.536C218.619 256.136 218.719 255.536 219.12 255.236C219.621 254.836 220.422 255.036 220.922 255.436C221.323 255.736 221.924 255.536 222.124 255.136C222.224 254.536 222.024 254.136 221.724 253.836Z" fill="#788BF1"/>
<path d="M225.128 233.036C224.828 233.336 224.327 232.836 224.327 232.536C224.127 231.836 224.928 231.036 225.429 230.636C226.33 229.936 225.028 228.736 224.227 229.436C223.326 230.136 222.525 231.436 222.625 232.636C222.425 232.636 222.224 232.736 222.124 232.836C221.623 233.236 221.123 233.636 220.722 234.036C220.322 234.336 220.422 234.936 220.722 235.236C221.123 235.636 221.623 235.536 221.924 235.236C222.425 234.836 222.925 234.436 223.326 234.036C224.127 234.836 225.529 235.036 226.43 234.136C227.131 233.436 225.93 232.236 225.128 233.036Z" fill="#788BF1"/>
<path d="M231.837 250.636C232.839 251.136 233.74 249.636 232.739 249.136C231.437 248.436 229.634 249.036 229.234 250.536C228.833 252.036 230.135 253.736 231.737 253.636C232.839 253.536 232.839 251.836 231.737 251.936C231.337 251.936 230.736 251.536 230.936 251.036C230.936 250.636 231.437 250.436 231.837 250.636Z" fill="#788BF1"/>
<path d="M200.895 212.236C200.794 211.736 200.194 211.536 199.793 211.636C199.292 211.736 199.092 212.236 199.192 212.736C199.292 213.636 198.191 213.836 197.79 213.136C197.189 212.236 195.687 213.036 196.288 214.036C196.889 215.036 198.191 215.636 199.392 215.136C200.594 214.636 201.095 213.436 200.895 212.236Z" fill="#788BF1"/>
<path d="M200.795 72.8359C196.989 71.0359 195.487 67.0359 197.29 63.3359C199.092 59.5359 203.899 57.4359 207.504 59.3359C212.11 61.7359 212.611 65.8359 210.809 69.6359C209.006 73.3359 204.5 74.6359 200.795 72.8359Z" fill="#4EDDBB"/>
<path d="M200.494 59.6359C200.194 58.5359 198.592 59.0359 198.792 60.1359V60.2359C198.792 60.2359 198.692 60.3359 198.592 60.4359C198.592 60.4359 198.491 60.5359 198.391 60.5359C198.391 60.5359 198.391 60.5359 198.291 60.5359C197.39 59.9359 196.489 61.4359 197.39 62.0359C198.992 62.7359 200.895 61.2359 200.494 59.6359Z" fill="#4EDDBB"/>
<path d="M210.909 71.9359C209.908 71.1359 208.405 70.4359 207.204 71.2359C206.202 71.9359 205.802 73.2359 206.603 74.2359C207.304 75.1359 208.506 73.8359 207.805 73.0359C207.905 73.1359 207.805 73.0359 207.905 72.8359C208.005 72.7359 208.105 72.6359 208.305 72.6359C208.906 72.6359 209.507 73.1359 210.008 73.4359C210.909 74.0359 211.81 72.5359 210.909 71.9359Z" fill="#4EDDBB"/>
<path d="M212.511 62.8359C212.211 62.9359 211.71 62.9359 211.51 62.5359C211.31 62.2359 211.51 61.8359 211.81 61.6359C212.712 61.0359 211.91 59.5359 210.909 60.1359C209.908 60.8359 209.407 62.1359 210.008 63.2359C210.508 64.3359 211.91 64.8359 213.012 64.4359C214.013 64.1359 213.613 62.4359 212.511 62.8359Z" fill="#4EDDBB"/>
<path d="M205.602 60.5359C205.502 60.0359 204.7 60.2359 204.801 60.7359C204.901 61.2359 204.5 61.7359 204.1 61.8359C203.599 61.9359 203.198 61.5359 202.998 61.0359C202.898 60.5359 201.997 60.7359 202.197 61.2359C202.397 61.9359 202.898 62.4359 203.499 62.6359C203.599 63.0359 203.699 63.4359 203.799 63.8359C203.899 64.3359 204.801 64.1359 204.6 63.6359C204.5 63.3359 204.4 62.9359 204.4 62.6359C205.301 62.4359 205.802 61.4359 205.602 60.5359Z" fill="#788BF1"/>
<path d="M202.698 65.9359C202.097 65.6359 201.396 65.5359 200.795 65.6359C200.394 65.2359 199.794 65.1359 199.293 65.2359C198.792 65.3359 198.993 66.2359 199.493 66.0359C199.693 65.9359 199.894 66.0359 200.094 66.1359C200.094 66.3359 200.194 66.4359 200.394 66.5359C200.595 66.9359 200.394 67.4359 199.894 67.6359C199.393 67.8359 199.794 68.6359 200.294 68.3359C200.995 68.0359 201.396 67.2359 201.196 66.4359C201.496 66.4359 201.896 66.5359 202.197 66.6359C202.798 66.9359 203.198 66.2359 202.698 65.9359Z" fill="#788BF1"/>
<path d="M207.804 67.8359C207.203 67.4359 206.502 67.2359 205.701 67.2359L205.301 65.8359C205.201 65.3359 204.299 65.5359 204.5 66.0359C204.6 66.5359 204.8 66.9359 204.9 67.4359C204.9 67.5359 205 67.6359 205.1 67.7359C205 68.3359 204.9 68.9359 204.8 69.5359C204.7 70.0359 205.501 70.3359 205.601 69.7359L205.902 68.0359C206.402 68.1359 206.903 68.2359 207.304 68.5359C207.904 68.8359 208.305 68.1359 207.804 67.8359Z" fill="#788BF1"/>
<path d="M211.309 67.4359C211.61 67.9359 212.311 67.4359 212.11 67.0359C211.71 66.3359 210.708 66.5359 210.408 67.2359C209.907 68.1359 210.809 68.9359 211.409 69.3359C211.91 69.6359 212.311 68.9359 211.81 68.6359C211.61 68.4359 211.109 68.1359 211.109 67.8359C211.109 67.7359 211.109 67.6359 211.209 67.6359C211.209 67.5359 211.209 67.4359 211.309 67.4359Z" fill="#788BF1"/>
<path d="M200.995 73.3359C200.895 72.8359 200.794 72.4359 200.794 71.9359C200.794 71.6359 200.494 71.4359 200.294 71.5359C199.593 71.7359 198.992 72.0359 198.291 72.2359C197.79 72.4359 197.991 73.2359 198.491 73.0359C198.992 72.8359 199.493 72.6359 199.993 72.5359C199.993 72.8359 200.094 73.2359 200.194 73.5359C200.294 74.0359 201.095 73.8359 200.995 73.3359Z" fill="#788BF1"/>
<path d="M207.704 57.7359C207.103 58.7359 205.802 58.4359 205.501 57.3359C205.401 56.8359 204.6 57.0359 204.7 57.5359C205.101 59.4359 207.504 59.7359 208.405 58.1359C208.706 57.7359 208.005 57.2359 207.704 57.7359Z" fill="#788BF1"/>
<path d="M169.652 160.836C165.045 158.636 163.243 153.736 165.446 149.236C167.649 144.636 173.457 142.036 177.963 144.436C183.471 147.336 184.172 152.436 181.969 156.936C179.766 161.436 174.258 163.036 169.652 160.836Z" fill="#4EDDBB"/>
<path d="M176.061 164.236C176.561 164.036 176.661 163.636 176.561 163.136C176.261 161.736 175.96 160.336 175.66 158.936C175.56 158.436 174.959 158.236 174.559 158.436C174.058 158.636 173.958 159.036 174.058 159.536C174.358 160.936 174.659 162.336 174.959 163.736C175.059 164.236 175.66 164.436 176.061 164.236Z" fill="#4EDDBB"/>
<path d="M166.548 152.536C167.549 152.936 168.35 151.436 167.349 150.936C165.847 150.336 164.344 149.736 162.742 149.136C161.741 148.736 160.94 150.236 161.941 150.736C163.543 151.336 165.045 151.936 166.548 152.536Z" fill="#4EDDBB"/>
<path d="M179.465 151.536C181.068 151.536 182.67 151.536 184.272 151.536C185.374 151.536 185.273 149.836 184.172 149.836C182.57 149.836 180.967 149.836 179.365 149.836C178.264 149.836 178.364 151.536 179.465 151.536Z" fill="#4EDDBB"/>
<path d="M185.073 152.636C186.175 152.836 186.475 151.136 185.374 150.936C185.173 150.936 185.073 150.636 185.274 150.536C185.674 150.336 185.975 149.936 185.774 149.436C185.674 149.036 185.073 148.736 184.673 148.936C183.872 149.236 183.271 150.036 183.371 150.936C183.571 151.736 184.272 152.436 185.073 152.636Z" fill="#4EDDBB"/>
<path d="M174.959 166.236C175.159 165.836 175.36 165.536 175.56 165.136C175.66 165.036 175.76 164.836 175.76 164.736C175.86 164.936 175.96 165.136 176.161 165.336C176.862 166.236 178.264 165.236 177.563 164.336C177.262 163.936 177.162 163.436 176.761 163.136C176.361 162.736 175.76 162.636 175.259 162.836C174.759 163.036 174.458 163.436 174.258 163.936C173.958 164.436 173.657 164.936 173.357 165.536C172.956 166.536 174.458 167.236 174.959 166.236Z" fill="#4EDDBB"/>
<path d="M160.139 151.136C161.04 151.136 162.342 151.036 162.942 150.336C163.944 149.436 162.842 148.336 162.342 147.536C161.741 146.636 160.239 147.536 160.94 148.536C161.14 148.736 161.24 149.036 161.44 149.236C161.34 149.236 161.24 149.236 161.14 149.336C160.839 149.436 160.439 149.436 160.139 149.436C158.937 149.436 159.037 151.136 160.139 151.136Z" fill="#4EDDBB"/>
<path d="M173.357 150.836C173.157 150.336 173.157 149.936 173.157 149.436C173.157 149.336 173.157 149.336 173.157 149.236C173.457 148.936 173.657 148.436 173.858 148.036C173.958 147.636 174.358 146.836 174.058 146.336C173.958 146.136 173.657 146.136 173.457 146.236C173.457 146.236 173.457 146.236 173.357 146.236C173.157 146.336 173.157 146.636 173.257 146.836C173.157 147.036 173.056 147.536 172.956 147.636C172.856 148.036 172.656 148.436 172.355 148.636C171.554 149.136 170.853 148.236 170.353 147.736C169.952 147.336 169.451 147.936 169.752 148.336C170.353 149.036 171.254 149.736 172.155 149.636C172.155 150.136 172.255 150.536 172.456 151.036C172.756 151.636 173.557 151.336 173.357 150.836Z" fill="#788BF1"/>
<path d="M179.665 156.836C180.066 157.136 180.667 156.536 180.266 156.236C179.966 156.036 179.565 155.736 179.465 155.336C179.565 155.236 179.565 155.136 179.565 155.036C179.766 154.636 180.467 154.536 180.767 154.336C181.268 154.036 180.767 153.336 180.266 153.636C179.766 153.936 179.065 154.136 178.764 154.636C178.364 154.536 177.963 154.536 177.663 154.436C177.162 154.336 176.962 155.236 177.462 155.336C177.863 155.436 178.263 155.436 178.564 155.536C178.764 155.936 179.265 156.436 179.665 156.836Z" fill="#788BF1"/>
<path d="M170.553 158.936C170.853 158.636 171.254 158.336 171.654 158.236C172.055 158.136 172.956 158.336 172.556 158.936C172.255 159.436 173.056 159.836 173.357 159.336C173.657 158.836 173.557 158.136 173.056 157.736C173.256 157.336 173.457 156.836 173.657 156.436C173.857 155.936 173.056 155.536 172.856 156.036C172.656 156.436 172.455 156.936 172.255 157.336C171.454 157.136 170.653 157.636 169.952 158.136C169.652 158.536 170.152 159.236 170.553 158.936Z" fill="#788BF1"/>
<path d="M168.15 154.536C168.55 154.636 168.951 154.736 169.351 154.936C169.852 155.136 170.253 154.436 169.752 154.136C169.251 153.936 168.751 153.736 168.25 153.636C168.15 153.136 167.649 152.636 167.048 152.536C166.547 152.436 166.347 153.336 166.848 153.436C167.048 153.436 167.349 153.636 167.349 153.936C167.349 154.036 167.248 154.336 167.048 154.236C166.547 153.936 166.147 154.736 166.648 155.036C167.248 155.236 167.849 155.036 168.15 154.536Z" fill="#788BF1"/>
<path d="M179.065 148.536C179.365 148.036 179.766 147.636 180.166 147.236C180.767 147.536 181.468 147.336 182.069 147.136C182.57 146.936 182.269 146.136 181.768 146.336C181.468 146.436 180.767 146.736 180.467 146.436C180.266 146.136 180.467 145.636 180.467 145.436C180.667 144.936 179.766 144.736 179.565 145.236C179.465 145.636 179.365 146.136 179.465 146.636C179.065 147.036 178.664 147.536 178.263 148.036C178.063 148.436 178.664 149.036 179.065 148.536Z" fill="#788BF1"/>
<path d="M173.457 141.536C173.156 141.936 172.856 142.336 172.656 142.736C172.555 142.736 172.455 142.836 172.455 142.836C172.255 142.736 172.055 142.536 171.955 142.336C171.754 141.836 170.953 142.236 171.254 142.736C171.554 143.336 171.955 143.636 172.555 143.736C172.756 144.136 172.956 144.536 173.256 144.936C173.657 145.336 174.258 144.736 173.857 144.336C173.657 144.036 173.457 143.736 173.356 143.336C173.657 142.836 173.957 142.336 174.358 141.936C174.558 141.436 173.757 141.036 173.457 141.536Z" fill="#788BF1"/>
<path d="M255.571 46.4359C254.569 50.8359 253.568 55.3359 252.566 59.7359C251.465 64.4359 250.363 69.2359 249.162 73.9359C248.16 78.0359 247.159 82.1359 246.057 86.2359C245.356 89.0359 244.555 91.8359 243.854 94.6359C243.454 96.1359 242.953 97.7359 242.553 99.2359C240.95 104.936 239.248 110.636 237.546 116.236C236.244 120.336 234.942 124.536 233.54 128.636C231.637 134.236 229.735 139.736 227.732 145.236C226.23 149.436 224.628 153.536 222.925 157.636C221.023 162.436 219.02 167.236 216.917 172.036C215.315 175.736 213.612 179.436 211.81 183.136C210.308 186.336 208.706 189.636 207.003 192.836C206.703 193.536 206.302 194.236 206.002 194.936C204.6 197.636 203.198 200.336 201.696 203.036C199.693 206.836 197.59 210.736 195.387 214.436C193.685 217.336 191.882 220.336 190.08 223.136C189.779 223.636 189.379 224.236 189.078 224.736C187.376 227.436 185.574 230.136 183.671 232.736C182.169 234.836 180.567 237.036 178.864 239.036C178.464 239.136 178.163 239.136 177.763 239.236C175.46 239.736 173.357 240.036 171.554 240.436C166.748 241.336 163.643 241.836 162.642 241.936C162.341 241.936 162.241 242.036 162.241 242.036C162.241 242.036 162.141 241.836 161.941 241.336C164.845 240.936 167.649 238.736 169.652 236.636C171.955 234.236 173.958 231.536 175.96 228.736C176.461 228.036 176.962 227.336 177.362 226.636C178.764 224.536 180.166 222.336 181.468 220.236C182.569 218.436 183.571 216.736 184.672 215.036C185.674 213.536 186.575 211.936 187.476 210.336C189.279 207.336 190.981 204.336 192.683 201.336C194.987 197.236 197.19 193.036 199.293 188.936C201.095 185.436 202.798 181.836 204.5 178.236C206.102 174.936 207.604 171.536 209.106 168.236C210.809 164.336 212.511 160.436 214.113 156.436C216.116 151.436 218.019 146.536 219.921 141.436C221.523 137.136 223.026 132.836 224.427 128.536C226.13 123.336 227.832 118.236 229.434 113.036C230.736 108.736 232.038 104.436 233.24 100.036C234.842 94.3359 236.444 88.6359 237.946 82.8359C239.148 78.1359 240.35 73.4359 241.451 68.7359C242.452 64.6359 243.454 60.5359 244.355 56.4359C245.457 51.8359 246.458 47.2359 247.459 42.5359C247.76 41.2359 248.06 40.0359 248.26 38.7359C250.864 41.2359 253.267 43.7359 255.571 46.4359Z" fill="#FFC741"/>
<path d="M183.671 232.836C182.169 234.936 180.566 237.136 178.864 239.136C178.463 239.236 178.163 239.236 177.763 239.336C177.162 235.836 176.561 232.336 175.86 228.836C176.361 228.136 176.861 227.436 177.262 226.736C178.664 224.636 180.066 222.436 181.368 220.336C182.269 224.536 182.97 228.636 183.671 232.836Z" fill="#2D264F"/>
<path d="M195.387 214.536C193.685 217.436 191.883 220.436 190.08 223.236C189.179 218.936 188.378 214.636 187.477 210.436C189.279 207.436 190.981 204.436 192.684 201.436C193.685 205.836 194.486 210.136 195.387 214.536Z" fill="#2D264F"/>
<path d="M207.004 192.936C206.703 193.636 206.303 194.336 206.002 195.036C204.6 197.736 203.198 200.436 201.696 203.136C200.895 198.436 200.094 193.736 199.393 189.036C201.196 185.536 202.898 181.936 204.6 178.336C205.401 183.136 206.202 188.036 207.004 192.936Z" fill="#2D264F"/>
<path d="M216.917 172.136C215.315 175.836 213.613 179.536 211.81 183.236C210.909 178.236 210.108 173.236 209.207 168.236C210.909 164.336 212.611 160.436 214.214 156.436C215.015 161.736 216.016 166.936 216.917 172.136Z" fill="#2D264F"/>
<path d="M227.632 145.336C226.13 149.536 224.528 153.636 222.825 157.736C221.824 152.336 220.823 146.936 219.821 141.536C221.423 137.236 222.926 132.936 224.328 128.636C225.529 134.236 226.631 139.736 227.632 145.336Z" fill="#2D264F"/>
<path d="M237.446 116.336C236.144 120.436 234.842 124.636 233.44 128.736C232.138 123.536 230.736 118.336 229.435 113.136C230.736 108.836 232.038 104.536 233.24 100.136C234.742 105.536 236.144 110.936 237.446 116.336Z" fill="#2D264F"/>
<path d="M246.057 86.2359C245.357 89.0359 244.555 91.8359 243.854 94.6359C243.454 96.1359 242.953 97.7359 242.553 99.2359C240.95 93.8359 239.448 88.3359 238.046 82.9359C239.248 78.2359 240.45 73.5359 241.551 68.8359C242.953 74.7359 244.455 80.5359 246.057 86.2359Z" fill="#2D264F"/>
<path d="M252.567 59.7359C251.465 64.4359 250.364 69.2359 249.162 73.9359C247.66 68.1359 246.058 62.3359 244.456 56.6359C245.557 52.0359 246.558 47.4359 247.56 42.7359C249.262 48.4359 250.965 54.0359 252.567 59.7359Z" fill="#2D264F"/>
<path d="M297.429 150.436C291.12 132.636 284.511 114.836 277.501 97.2359C271.693 82.4359 265.484 67.8359 255.671 55.2359C254.97 54.3359 253.768 55.6359 254.469 56.4359C264.783 69.6359 270.992 85.3359 277.1 100.836C283.609 117.436 289.818 134.036 295.726 150.836C296.127 151.936 297.729 151.536 297.429 150.436Z" fill="white"/>
<path d="M161.941 242.636L161.841 242.336C161.841 242.336 161.74 242.136 161.54 241.636C159.838 236.936 153.028 217.036 135.304 155.836C117.279 93.3359 117.079 47.7359 175.259 28.2359C191.181 22.8359 205 21.2359 217.518 23.2359C220.822 23.7359 224.027 24.5359 227.031 25.6359C229.534 26.4359 231.938 27.5359 234.341 28.7359C237.546 30.3359 240.65 32.3359 243.654 34.5359C245.356 35.8359 246.959 37.2359 248.661 38.6359C251.164 40.9359 253.568 43.4359 255.871 46.2359C265.184 57.3359 273.395 72.3359 280.806 92.1359C307.543 163.036 318.558 190.736 318.658 190.936L318.758 191.236L318.458 191.436C273.996 218.236 212.01 233.136 178.964 239.536C176.261 240.036 173.757 240.536 171.654 240.936C168.35 241.536 165.245 242.036 162.642 242.436C162.341 242.436 162.241 242.536 162.241 242.536L161.941 242.636ZM206.903 23.3359C197.39 23.3359 187.076 25.2359 175.56 29.1359C148.322 38.2359 132.6 53.7359 127.493 76.5359C123.187 95.5359 125.891 120.036 136.205 155.736C153.93 216.936 160.739 236.836 162.441 241.436C162.441 241.536 162.542 241.636 162.542 241.736C165.145 241.336 168.25 240.836 171.454 240.236C173.557 239.836 176.06 239.436 178.764 238.836C211.61 232.436 273.395 217.636 317.657 191.036C316.355 187.636 305.039 159.236 279.904 92.5359C272.494 72.8359 264.383 57.9359 255.07 46.9359C252.767 44.2359 250.363 41.7359 247.96 39.4359C246.358 37.9359 244.655 36.5359 243.053 35.3359C240.149 33.1359 237.045 31.2359 233.84 29.6359C231.537 28.4359 229.134 27.4359 226.63 26.6359C223.626 25.6359 220.522 24.8359 217.217 24.3359C214.013 23.5359 210.508 23.3359 206.903 23.3359Z" fill="#E4E9FF"/>
<path d="M310.046 171.136C310.347 171.036 310.547 170.936 310.847 170.836C306.842 160.536 301.334 146.136 293.924 126.736C293.623 126.836 293.423 126.936 293.123 127.036C300.533 146.436 306.041 160.836 310.046 171.136Z" fill="white"/>
<path d="M134.703 67.9359C126.592 85.5359 129.396 104.736 132.6 123.136C132.801 124.236 134.503 123.736 134.303 122.636C131.198 104.736 128.294 85.8358 136.205 68.7359C136.706 67.8359 135.204 66.9359 134.703 67.9359Z" fill="#E4E9FF"/>
<path d="M154.731 175.636C143.615 176.636 161.74 225.436 167.448 230.136C173.156 234.836 176.06 232.636 170.152 212.836C164.244 193.136 159.938 175.136 154.731 175.636Z" fill="#E4E9FF"/>
<path d="M234.542 35.4359C231.537 39.5359 243.254 48.0359 242.853 42.4359C242.452 36.7359 236.544 32.6359 234.542 35.4359Z" fill="#E4E9FF"/>
<path d="M318.558 189.936C269.19 215.536 215.816 233.036 160.839 241.836C159.738 242.036 159.738 243.736 160.839 243.536C216.116 234.736 269.69 217.136 319.459 191.436C320.461 190.836 319.559 189.436 318.558 189.936Z" fill="#E4E9FF"/>
<path d="M119.282 61.2359C110.169 56.2359 101.056 51.2359 91.8434 46.2359C90.842 45.7359 89.8406 47.1359 90.842 47.6359C99.9547 52.6359 109.067 57.6359 118.28 62.6359C119.282 63.2359 120.283 61.7359 119.282 61.2359Z" fill="#FFC741"/>
<path d="M148.622 32.7359C142.313 22.0359 136.105 11.3359 130.097 0.435868C129.596 -0.564132 128.094 0.335867 128.594 1.33587C134.603 12.1359 140.811 22.9359 147.12 33.6359C147.721 34.6359 149.223 33.7359 148.622 32.7359Z" fill="#FFC741"/>
<path d="M177.062 16.8359C175.86 13.5359 174.759 10.3359 173.557 7.03587C173.156 6.03587 171.554 6.43587 171.855 7.53587C173.056 10.8359 174.158 14.0359 175.36 17.3359C175.76 18.3359 177.462 17.8359 177.062 16.8359Z" fill="#FFC741"/>
<path d="M330.474 103.136L333.278 120.236C334.179 125.836 325.568 128.036 324.666 122.336C323.765 116.636 322.764 110.936 321.862 105.236C320.961 99.7359 329.573 97.5359 330.474 103.136Z" fill="#A9CDFF"/>
<path d="M328.572 100.336C328.572 105.036 327.771 109.736 324.967 113.436C324.466 113.836 323.965 114.336 323.364 114.636C322.864 111.536 322.363 108.436 321.762 105.236C321.262 101.136 325.868 98.8359 328.572 100.336Z" fill="#788BF1"/>
<path d="M325.067 85.9359C334.58 85.1359 336.082 88.0359 334.981 98.7359C333.779 110.036 318.358 112.136 318.358 107.836C318.358 96.9359 317.056 86.6359 325.067 85.9359Z" fill="#A9CDFF"/>
<path d="M332.277 104.936C328.972 106.636 326.569 95.3359 327.27 90.5359C327.37 90.0359 326.869 89.5359 326.469 89.4359C322.764 88.6359 323.665 89.0359 319.96 88.9359C320.961 87.2359 322.564 86.1359 324.967 85.9359C334.48 85.1359 335.982 88.0359 334.88 98.7359C334.68 101.236 333.679 103.336 332.277 104.936Z" fill="#FF6B57"/>
<path d="M320.36 93.5359C320.461 94.3359 320.461 95.2359 320.561 96.0359C320.561 96.6359 319.759 96.7359 319.659 96.1359C319.559 95.3359 319.559 94.4359 319.459 93.6359C319.459 93.1359 320.26 93.0359 320.36 93.5359Z" fill="#2D264F"/>
<path d="M319.259 90.7359C319.76 90.7359 320.16 90.8359 320.561 91.0359C321.061 91.3359 320.461 92.0359 320.06 91.7359C319.86 91.6359 319.659 91.5359 319.359 91.5359C318.858 91.6359 318.758 90.7359 319.259 90.7359Z" fill="#2D264F"/>
<path d="M315.954 101.136C316.755 99.2359 317.456 97.3359 318.258 95.4359C318.458 94.9359 319.259 95.2358 319.059 95.7358C318.358 97.5359 317.657 99.2359 316.956 101.036C317.757 101.236 318.658 101.436 319.459 101.836C319.96 102.036 319.66 102.836 319.159 102.636C318.258 102.236 317.356 101.936 316.355 101.836C316.054 101.736 315.854 101.436 315.954 101.136Z" fill="#788BF1"/>
<path d="M324.666 94.1358C329.974 92.6358 333.378 99.8358 324.466 102.036L324.666 94.1358Z" fill="#A9CDFF"/>
<path d="M327.17 96.2358C327.671 96.1358 327.871 96.9358 327.27 97.1358C326.469 97.3358 325.868 97.9358 325.668 98.7358C325.568 99.2358 324.666 99.1359 324.767 98.6358C325.067 97.3358 325.968 96.4358 327.17 96.2358Z" fill="#788BF1"/>
<path d="M317.857 96.4359C313.751 98.5359 313.051 101.336 313.651 104.436C314.252 107.536 318.158 110.436 320.16 110.436C322.163 110.436 318.658 96.0359 317.857 96.4359Z" fill="#E4E9FF"/>
<path d="M326.97 93.5359C323.265 94.9359 319.96 97.0359 317.156 99.7359C316.755 100.136 317.356 100.836 317.757 100.436C320.561 97.7359 323.765 95.6359 327.37 94.3359C327.871 94.1359 327.571 93.3359 326.97 93.5359Z" fill="#E4E9FF"/>
<path d="M328.371 100.436C325.267 102.536 322.263 104.636 319.159 106.736C318.658 107.036 319.259 107.736 319.759 107.436C322.864 105.336 325.868 103.236 328.972 101.136C329.373 100.736 328.772 100.136 328.371 100.436Z" fill="#E4E9FF"/>
<path d="M320.06 88.9359C316.855 89.1359 316.054 84.7359 322.563 85.8359C328.972 87.0359 320.06 88.9359 320.06 88.9359Z" fill="#FF6B57"/>
<path d="M315.253 106.736C313.351 105.536 313.751 103.136 314.152 101.236C314.252 100.736 313.351 100.636 313.251 101.136C312.85 103.336 312.55 106.036 314.753 107.436C315.253 107.736 315.754 107.036 315.253 106.736Z" fill="#E4E9FF"/>
<path d="M330.875 118.236C307.042 118.236 313.952 128.236 317.457 150.236C320.961 172.336 320.961 177.936 320.961 177.936H362.619C362.619 177.936 364.322 166.636 357.412 143.336C350.502 120.036 349.501 118.236 330.875 118.236Z" fill="#E4E9FF"/>
<path d="M323.265 124.236C321.061 123.236 318.858 122.236 316.555 121.336C316.455 121.336 316.455 121.236 316.355 121.236C311.648 125.336 314.452 133.436 316.756 146.136C320.36 139.436 322.764 132.036 323.265 124.236Z" fill="#788BF1"/>
<path d="M319.359 162.936C320.961 174.636 320.961 177.936 320.961 177.936H362.619C362.619 177.936 363.42 173.036 361.918 162.936H319.359Z" fill="#2D264F"/>
<path d="M398.769 304.136C385.351 258.336 372.333 209.436 361.718 162.836C355.609 164.736 348.7 169.236 342.892 171.836C353.106 216.436 366.224 260.736 379.042 304.636H398.869C398.869 304.536 398.869 304.336 398.769 304.136Z" fill="#2D264F"/>
<path d="M341.089 172.236C334.88 170.936 327.07 168.936 321.061 166.936C310.447 212.036 305.34 258.336 306.241 304.636H325.267C324.466 260.136 330.875 215.636 341.089 172.236Z" fill="#2D264F"/>
<path d="M325.267 304.636V313.436H292.321C292.321 313.436 291.42 310.436 297.128 308.636C302.736 306.936 304.138 308.436 306.241 304.636H325.267Z" fill="#788BF1"/>
<path d="M398.869 304.636L400.171 313.436H366.825C366.825 313.436 365.924 310.436 371.632 308.636C377.239 306.936 378.942 308.936 379.042 304.636H398.869Z" fill="#788BF1"/>
<path d="M325.167 248.136C324.166 246.836 323.064 245.536 322.063 244.336C321.662 243.936 321.061 244.536 321.462 244.936C322.463 246.236 323.565 247.536 324.566 248.736C324.867 249.236 325.467 248.636 325.167 248.136Z" fill="#EF1B3A"/>
<path d="M380.544 247.536C378.941 246.536 377.339 245.536 375.737 244.636C375.236 244.336 374.836 245.136 375.337 245.336C376.939 246.336 378.541 247.336 380.143 248.236C380.644 248.636 381.044 247.836 380.544 247.536Z" fill="#EF1B3A"/>
<path d="M353.005 176.536C350.502 176.736 348.099 176.836 345.595 177.036C344.994 177.036 344.994 177.936 345.595 177.936C348.099 177.736 350.502 177.636 353.005 177.436C353.506 177.336 353.506 176.436 353.005 176.536Z" fill="#EF1B3A"/>
<path d="M306.441 308.436C305.94 308.036 305.44 307.536 305.139 306.936C304.839 306.436 304.138 306.936 304.439 307.336C304.839 308.036 305.44 308.636 306.04 309.236C306.441 309.536 306.841 308.736 306.441 308.436Z" fill="white"/>
<path d="M308.544 307.536C307.642 306.736 306.741 306.036 305.94 305.236C305.539 304.836 304.939 305.436 305.339 305.836C306.24 306.636 307.142 307.336 307.943 308.136C308.343 308.536 308.944 307.936 308.544 307.536Z" fill="white"/>
<path d="M378.841 309.036C378.541 308.436 378.14 307.836 377.84 307.236C377.54 306.736 376.839 307.136 377.039 307.636C377.339 308.236 377.74 308.836 378.04 309.436C378.441 309.936 379.142 309.536 378.841 309.036Z" fill="white"/>
<path d="M381.345 308.236C380.744 307.536 380.244 306.836 379.643 306.136C379.242 305.736 378.641 306.336 379.042 306.736C379.643 307.436 380.143 308.136 380.744 308.836C381.045 309.236 381.646 308.636 381.345 308.236Z" fill="white"/>
<path d="M286.213 115.236C278.903 104.136 270.592 91.7359 263.182 80.7359C267.387 78.2359 271.693 75.8359 276.2 73.6359C282.709 83.2359 290.62 95.3359 296.928 105.036C293.624 108.736 289.618 111.436 286.213 115.236Z" fill="#E4E9FF"/>
<path d="M278.903 77.5358C278.002 76.1358 277.101 74.8358 276.2 73.5358C271.794 75.7358 267.488 78.1358 263.182 80.6358C264.483 82.5358 265.785 84.5358 267.087 86.4358C270.692 83.0358 274.798 80.2358 278.903 77.5358Z" fill="#788BF1"/>
<path d="M294.425 102.436C302.135 107.136 316.756 115.836 324.667 120.236C332.978 124.836 331.476 142.036 323.165 137.436C312.95 131.736 298.13 123.336 288.316 117.136C285.012 115.036 282.809 109.536 284.711 105.736C285.212 104.836 285.613 103.936 286.113 103.036C291.22 104.136 289.418 101.336 294.425 102.436Z" fill="#E4E9FF"/>
<path d="M276.199 73.5359C273.395 68.4359 269.59 60.2359 267.387 60.2359C265.084 60.2359 269.891 64.1359 269.49 66.8359C269.089 69.5359 261.98 57.1358 259.276 57.7358C256.472 58.3359 264.283 63.9359 263.281 65.0359C262.28 66.1359 258.274 57.9359 256.171 58.9359C254.069 59.9359 261.178 66.3359 260.177 67.5359C259.176 68.7359 255.471 60.0359 253.468 62.0359C252.166 63.3359 256.973 68.0359 257.674 70.1359C258.375 72.2359 253.468 63.5359 252.166 65.2359C250.864 66.9359 260.477 76.4359 263.281 80.6359C266.085 84.8359 276.199 73.5359 276.199 73.5359Z" fill="#788BF1"/>
<path d="M266.185 86.5358C266.185 86.4358 266.285 86.4358 266.185 86.5358C266.285 86.4358 266.285 86.4358 266.185 86.5358C270.391 83.0358 274.597 79.7358 278.903 76.5358C279.303 76.2358 279.804 76.9358 279.404 77.2358C275.498 80.1358 271.593 83.1358 267.787 86.2358C267.787 86.3358 267.687 86.3358 267.687 86.4358L266.686 87.1358C266.385 87.4358 265.785 86.8358 266.185 86.5358Z" fill="#788BF1"/>
<path d="M297.028 107.236C296.628 106.236 296.227 105.336 295.827 104.336C295.626 103.836 294.725 104.036 295.026 104.536L296.227 107.436C296.428 108.036 297.329 107.736 297.028 107.236Z" fill="#788BF1"/>
<path d="M328.472 122.136C327.47 121.736 326.469 121.236 325.468 120.836C324.967 120.636 324.566 121.336 325.067 121.536L328.071 122.836C328.572 123.136 328.972 122.336 328.472 122.136Z" fill="#788BF1"/>
<path d="M54.0913 302.636V311.736H85.0342C85.0342 311.736 85.0342 307.436 79.827 306.936C74.6198 306.436 73.9188 306.336 71.7158 302.636C69.5127 298.836 54.0913 302.636 54.0913 302.636Z" fill="#4EDDBB"/>
<path d="M103.259 305.036L103.059 311.636H133.201C133.201 311.636 133.201 307.336 127.994 306.836C122.786 306.336 121.485 305.236 120.884 303.836C119.081 299.936 103.259 305.036 103.259 305.036Z" fill="#4EDDBB"/>
<path d="M71.7158 302.636C70.3138 266.536 71.4153 232.836 75.4209 196.936C79.2262 202.336 82.731 208.036 85.9355 213.836C91.0425 222.836 96.1496 232.136 100.355 241.636C104.361 250.936 104.561 260.736 104.461 270.636C104.361 282.136 103.96 293.636 103.259 305.036L120.884 303.836C121.685 291.836 122.086 280.936 122.086 268.836C122.086 256.736 122.686 245.036 117.78 233.836C108.967 213.436 96.45 183.536 82.1302 166.536C81.2289 165.436 79.3263 174.136 77.9244 173.836C77.5238 170.436 75.521 167.436 71.7158 166.436C67.6101 165.336 64.6059 178.536 60.4001 178.736C54.2916 222.636 52.389 258.336 54.0913 302.636H71.7158Z" fill="#788BF1"/>
<path d="M97.7518 182.936L96.9507 193.636L60.5 185.036V179.036L97.7518 182.936Z" fill="#788BF1"/>
<path d="M74.5196 194.936C71.7157 193.836 68.9119 192.736 66.108 191.636C65.6073 191.436 65.407 192.236 65.9077 192.436C68.7116 193.536 71.5155 194.636 74.3193 195.736C74.82 196.036 75.0203 195.136 74.5196 194.936Z" fill="#E4E9FF"/>
<path d="M109.368 247.636C108.266 248.836 107.065 249.936 105.963 251.136C105.563 251.536 106.163 252.136 106.564 251.736C107.666 250.536 108.867 249.436 109.969 248.236C110.369 247.836 109.768 247.236 109.368 247.636Z" fill="#E4E9FF"/>
<path d="M72.6168 303.836C72.2162 304.836 71.6154 305.736 70.8142 306.536C70.4137 306.936 71.0145 307.536 71.4151 307.136C72.3164 306.236 73.0174 305.236 73.418 304.036C73.7184 303.536 72.8171 303.336 72.6168 303.836Z" fill="#FF6B57"/>
<path d="M122.486 304.936C121.886 305.636 121.285 306.336 120.784 307.036C120.484 307.436 121.084 308.036 121.385 307.636C121.986 306.936 122.587 306.236 123.087 305.536C123.488 305.036 122.887 304.436 122.486 304.936Z" fill="#FF6B57"/>
<path d="M97.7518 182.936C98.1524 179.036 98.6531 174.636 99.354 169.636C102.859 142.336 99.7546 140.136 92.7448 138.436C74.5195 133.836 70.6141 128.836 67.2093 140.736C66.0077 145.036 64.3053 155.736 62.8032 163.536C61.7017 169.136 61.0007 174.036 60.5 178.736C72.717 181.136 85.2344 182.336 97.7518 182.936Z" fill="#FF6B57"/>
<path d="M96.9505 140.036C94.9477 143.636 94.5472 148.336 96.6501 151.836C97.5514 153.336 98.9533 155.036 100.656 156.136C101.156 145.836 99.8546 141.936 96.9505 140.036Z" fill="#788BF1"/>
<path d="M93.0455 135.036C93.4461 130.436 93.8466 125.836 94.2472 121.336C94.7479 115.636 86.0358 114.136 85.5351 119.836L83.9329 137.136C83.8327 137.936 84.033 138.636 84.2333 139.336C85.6352 136.436 90.4419 135.236 93.0455 135.036Z" fill="#E4E9FF"/>
<path d="M87.2373 116.836C87.5377 121.536 88.7394 126.136 91.7436 129.636C92.2443 130.036 92.8451 130.436 93.4459 130.736C93.7463 127.536 94.0468 124.436 94.3472 121.236C94.6476 117.036 89.9411 115.136 87.2373 116.836Z" fill="#788BF1"/>
<path d="M89.7408 102.236C80.1275 102.136 78.9258 105.136 80.8285 115.636C82.8312 126.836 98.4529 127.836 98.0523 123.536C97.1511 112.636 97.7519 102.336 89.7408 102.236Z" fill="#E4E9FF"/>
<path d="M83.9327 121.736C87.3374 123.136 88.8395 111.736 87.8381 106.936C87.738 106.536 88.1385 105.936 88.5391 105.736C92.1441 104.636 91.2428 105.136 94.9479 104.836C93.8464 103.236 92.1441 102.236 89.7408 102.136C80.1275 102.036 78.9258 105.036 80.8285 115.536C81.229 118.136 82.4307 120.136 83.9327 121.736Z" fill="#2D264F"/>
<path d="M95.0483 109.436C95.0483 110.236 95.0483 111.136 95.0483 111.936C95.0483 112.536 95.9495 112.536 95.9495 112.036C95.9495 111.236 95.9495 110.336 95.9495 109.536C95.8494 108.936 95.0483 108.936 95.0483 109.436Z" fill="#788BF1"/>
<path d="M95.8495 106.536C95.3488 106.536 94.9483 106.636 94.5477 106.936C94.047 107.236 94.6479 107.936 95.1485 107.536C95.3488 107.436 95.5491 107.336 95.8495 107.336C96.3502 107.336 96.4503 106.536 95.8495 106.536Z" fill="#788BF1"/>
<path d="M100.055 116.436C99.154 114.636 98.2528 112.736 97.3515 110.936C97.1512 110.436 96.3501 110.836 96.5504 111.336C97.3515 113.036 98.2528 114.736 99.0539 116.436C98.2528 116.736 97.4516 117.036 96.6505 117.436C96.1498 117.736 96.5504 118.436 97.0511 118.236C97.9523 117.836 98.8536 117.436 99.7549 117.236C100.055 117.036 100.155 116.736 100.055 116.436Z" fill="#788BF1"/>
<path d="M93.346 104.136C92.8453 103.436 91.6436 103.336 90.8425 103.236C89.6409 103.136 88.3391 103.236 87.3377 103.836C85.1347 105.236 85.6354 107.936 85.7355 110.136C85.5352 110.336 85.4351 110.736 85.7355 110.836C87.6381 111.936 90.1416 110.936 91.6436 109.336C92.9454 108.136 94.5476 105.836 93.346 104.136Z" fill="#2D264F"/>
<path d="M96.3498 112.836C93.8463 120.836 94.8477 126.236 96.9506 125.436C99.0535 124.636 102.358 120.236 101.056 116.136C99.7545 112.036 97.4513 109.336 96.3498 112.836Z" fill="#A9CDFF"/>
<path d="M101.657 115.536C101.557 115.036 100.756 114.936 100.756 115.536C100.956 117.736 101.157 120.136 99.3543 121.636C98.9537 122.036 99.5545 122.636 99.9551 122.236C101.958 120.636 101.958 117.936 101.657 115.536Z" fill="#A9CDFF"/>
<path d="M90.8424 131.636C84.9342 122.836 89.3403 112.636 89.3403 112.636L81.0288 112.236C80.5281 115.536 81.3292 125.136 70.8146 127.036C60.3 128.936 59.8994 138.436 59.8994 138.436C59.8994 138.436 62.1025 138.836 65.2068 139.436C66.3083 138.336 67.4099 137.236 68.8118 136.436C70.414 135.536 71.6157 138.036 70.1136 138.936C69.6129 139.236 69.0121 139.636 68.6115 140.136C76.5225 141.836 87.3375 144.636 88.6394 147.636C88.5392 147.636 96.7506 140.436 90.8424 131.636Z" fill="#2D264F"/>
<path d="M90.6419 110.336C85.2344 109.236 82.3304 116.636 91.4431 118.236L90.6419 110.336Z" fill="#E4E9FF"/>
<path d="M88.2389 112.636C87.6381 112.536 87.6381 113.436 88.1388 113.536C88.9399 113.636 89.6409 114.236 89.8412 114.936C89.9413 115.436 90.8425 115.336 90.6423 114.736C90.3418 113.636 89.4406 112.836 88.2389 112.636Z" fill="#788BF1"/>
<path d="M97.151 120.936C93.7463 120.336 90.642 119.036 87.8381 117.036C87.4375 116.736 86.9368 117.436 87.4375 117.736C90.2414 119.836 93.4459 121.236 96.9508 121.736C97.4515 121.936 97.7519 121.036 97.151 120.936Z" fill="#A9CDFF"/>
<path d="M99.9552 113.736C96.951 112.936 93.7465 111.136 90.9427 109.636C90.442 109.336 90.0414 110.136 90.5421 110.336C93.4461 111.936 96.8509 113.736 100.055 114.636V113.736H99.9552Z" fill="#A9CDFF"/>
<path d="M130.898 156.036C142.514 149.736 154.23 143.436 165.946 137.236C163.443 133.036 160.739 128.836 157.835 124.836C147.521 130.236 134.903 137.236 124.689 142.736C125.891 147.636 129.596 151.136 130.898 156.036Z" fill="#FF6B57"/>
<path d="M160.138 140.336C162.041 139.336 163.943 138.236 165.946 137.236C163.443 133.036 160.739 128.836 157.835 124.836C156.333 125.636 154.831 126.436 153.229 127.236C155.732 131.536 157.935 135.936 160.138 140.336Z" fill="#A9CDFF"/>
<path d="M130.196 142.436C121.284 140.836 104.661 137.536 95.7486 135.536C94.8473 135.336 94.0462 135.336 93.2451 135.336C95.0476 139.636 95.0476 144.336 94.8473 148.936C94.8473 149.536 94.4468 149.936 93.9461 150.136C104.661 152.536 115.376 154.636 126.191 156.436C130.096 157.036 134.202 155.336 135.203 151.236C135.404 150.236 135.704 149.236 136.004 148.236C131.498 145.836 134.703 144.936 130.196 142.436Z" fill="#FF6B57"/>
<path d="M157.835 124.836C162.642 121.736 165.546 117.036 169.251 116.836C172.956 116.536 167.849 119.536 166.948 122.136C166.046 124.736 178.163 117.136 180.266 118.936C182.469 120.836 172.956 122.036 173.256 123.536C173.557 125.036 180.967 119.636 182.369 121.536C183.771 123.336 174.458 125.736 174.859 127.236C175.159 128.736 182.569 122.836 183.371 125.536C183.971 127.336 177.462 129.136 175.76 130.736C174.158 132.336 182.569 128.436 182.87 130.536C183.17 132.636 170.252 134.936 165.846 137.336C161.44 139.736 157.835 124.836 157.835 124.836Z" fill="#A9CDFF"/>
<path d="M98.3524 151.136C96.1493 150.836 93.9463 150.336 91.8433 149.536C91.3426 149.336 91.1424 150.136 91.643 150.336C93.8461 151.136 96.0492 151.736 98.3524 152.036C98.8531 152.136 98.8531 151.236 98.3524 151.136Z" fill="#788BF1"/>
<path d="M100.255 136.436C97.0506 135.936 93.4456 134.836 90.141 135.136C88.2384 135.336 86.6362 136.236 85.9352 138.036C85.7349 138.536 86.536 138.736 86.7363 138.236C87.938 135.236 91.543 135.936 94.0465 136.336C96.0492 136.636 97.9519 136.936 99.9547 137.236C100.656 137.336 100.856 136.536 100.255 136.436Z" fill="#788BF1"/>
<path d="M126.091 142.636C125.59 143.336 125.09 144.136 124.589 144.836C124.288 145.336 124.989 145.736 125.29 145.236C125.791 144.536 126.291 143.736 126.792 143.036C127.092 142.636 126.391 142.136 126.091 142.636Z" fill="#788BF1"/>
<path d="M160.539 140.936V140.836C158.536 135.936 156.333 131.036 154.03 126.136C153.83 125.636 153.028 126.036 153.329 126.536C155.432 130.936 157.334 135.436 159.237 139.936C159.237 140.036 159.237 140.036 159.237 140.136L159.738 141.236C160.038 141.736 160.739 141.436 160.539 140.936Z" fill="#A9CDFF"/>
</svg>
