<svg width="35" height="35" viewBox="0 0 35 35" fill="none" xmlns="http://www.w3.org/2000/svg">
<circle cx="17.2714" cy="17.2429" r="16.2429" stroke="white" stroke-width="2"/>
<path fill-rule="evenodd" clip-rule="evenodd" d="M22.5957 9.72668H12.8314C11.1356 9.72668 9.75531 11.1061 9.75531 12.8027V22.5671C9.75531 24.2638 11.1356 25.6432 12.8314 25.6432H22.5957C24.2915 25.6432 25.6718 24.2638 25.6718 22.5671V12.8027C25.6718 11.1061 24.2915 9.72668 22.5957 9.72668ZM23.4782 11.5618L23.8301 11.56V14.2579L21.1405 14.2664L21.1312 11.5684L23.4782 11.5618ZM15.4423 16.051C15.9514 15.3454 16.7787 14.8831 17.7136 14.8831C18.6484 14.8831 19.4757 15.3454 19.9848 16.051C20.317 16.5114 20.5154 17.0748 20.5154 17.6849C20.5154 19.229 19.2586 20.4858 17.7136 20.4858C16.1694 20.4858 14.9126 19.229 14.9126 17.6849C14.9126 17.0748 15.111 16.5114 15.4423 16.051ZM24.1211 22.5671C24.1211 23.4084 23.437 24.0925 22.5957 24.0925H12.8314C11.9901 24.0925 11.306 23.4084 11.306 22.5671V16.051H13.683C13.4771 16.5563 13.362 17.1075 13.362 17.6849C13.362 20.0844 15.3141 22.0374 17.7136 22.0374C20.1139 22.0374 22.0661 20.0844 22.0661 17.6849C22.0661 17.1075 21.9491 16.5563 21.7451 16.051H24.1211V22.5671Z" fill="white"/>
</svg>
