<svg width="35" height="35" viewBox="0 0 35 35" fill="none" xmlns="http://www.w3.org/2000/svg">
<circle cx="17.5143" cy="17.2429" r="16.2429" stroke="white" stroke-width="2"/>
<path fill-rule="evenodd" clip-rule="evenodd" d="M10.3996 14.8304H13.5019V25.6421H10.3996V14.8304ZM11.8717 13.478H11.8492C10.7262 13.478 9.99817 12.6515 9.99817 11.6049C9.99817 10.5369 10.7478 9.72668 11.8932 9.72668C13.0377 9.72668 13.7415 10.5348 13.7639 11.6018C13.7639 12.6485 13.0377 13.478 11.8717 13.478ZM25.9147 25.6432H22.3969V20.0472C22.3969 18.5828 21.8466 17.584 20.6366 17.584C19.7111 17.584 19.1964 18.2577 18.9568 18.9089C18.867 19.1412 18.881 19.4663 18.881 19.7924V25.6432H15.396C15.396 25.6432 15.4409 15.7313 15.396 14.8304H18.881V16.5272C19.0869 15.7853 20.2005 14.7264 21.9776 14.7264C24.1824 14.7264 25.9147 16.2826 25.9147 19.6304V25.6432Z" fill="white"/>
</svg>
