<?xml version="1.0" encoding="utf-8"?>
<!-- Generator: Adobe Illustrator 22.0.0, SVG Export Plug-In . SVG Version: 6.00 Build 0)  -->
<svg version="1.1" id="Layer_1" xmlns="http://www.w3.org/2000/svg" xmlns:xlink="http://www.w3.org/1999/xlink" x="0px" y="0px"
	 viewBox="0 0 423 74" style="enable-background:new 0 0 423 74;" xml:space="preserve">
<style type="text/css">
	.st0{fill:#D1EBEC;}
	.st1{fill:#141414;}
	.st2{fill:none;}
	.st3{enable-background:new    ;}
	.st4{fill:#497BBD;}
	.st5{fill:#00AC4E;}
	.st6{fill:#ED342F;}
	.st7{fill:#FCB912;}
	.st8{fill:#0996C7;}
</style>
<g id="Layer_2_1_">
	<rect class="st0" width="423" height="73.7"/>
</g>
<g id="Layer_3">
</g>
<g id="Layer_1_1_">
	<path class="st1" d="M367.5,50.3c0,0.7-0.6,1.3-1.3,1.3c-0.7,0-1.3-0.6-1.3-1.3s0.6-1.3,1.3-1.3l0,0
		C366.9,49,367.5,49.6,367.5,50.3 M388.9,50.3c0,0.7-0.6,1.3-1.3,1.3s-1.3-0.6-1.3-1.3s0.6-1.3,1.3-1.3l0,0
		C388.3,49,388.9,49.6,388.9,50.3 M378.2,55.6c0,0.7-0.6,1.3-1.3,1.3s-1.3-0.6-1.3-1.3s0.6-1.3,1.3-1.3l0,0
		C377.6,54.3,378.2,54.9,378.2,55.6 M372.8,53c0,0.7-0.6,1.3-1.3,1.3s-1.3-0.6-1.3-1.3s0.6-1.3,1.3-1.3S372.8,52.3,372.8,53
		L372.8,53 M383.5,53c0,0.7-0.6,1.3-1.3,1.3s-1.3-0.6-1.3-1.3s0.6-1.3,1.3-1.3l0,0C382.9,51.7,383.5,52.3,383.5,53 M367.1,54.4
		c0,0.5-0.4,0.9-0.9,0.9s-0.9-0.4-0.9-0.9s0.4-0.9,0.9-0.9S367.1,53.9,367.1,54.4L367.1,54.4 M388.4,54.4c0,0.5-0.4,0.9-0.9,0.9
		s-0.9-0.4-0.9-0.9s0.4-0.9,0.9-0.9S388.4,53.9,388.4,54.4 M377.8,59.8c0,0.5-0.4,0.9-0.9,0.9s-0.9-0.4-0.9-0.9s0.4-0.9,0.9-0.9l0,0
		C377.3,58.9,377.8,59.3,377.8,59.8 M372.4,57.1c0,0.5-0.4,0.9-0.9,0.9s-0.9-0.4-0.9-0.9s0.4-0.9,0.9-0.9l0,0
		C372,56.2,372.4,56.6,372.4,57.1L372.4,57.1 M383.1,57.1c0,0.5-0.4,0.9-0.9,0.9s-0.9-0.4-0.9-0.9s0.4-0.9,0.9-0.9l0,0
		C382.6,56.2,383.1,56.6,383.1,57.1 M366.6,57.6c0,0.3-0.2,0.5-0.5,0.5s-0.5-0.2-0.5-0.5s0.2-0.5,0.5-0.5S366.6,57.3,366.6,57.6
		 M388,57.6c0,0.3-0.2,0.5-0.5,0.5s-0.5-0.2-0.5-0.5s0.2-0.5,0.5-0.5S388,57.3,388,57.6 M377.3,63c0,0.3-0.2,0.5-0.5,0.5
		s-0.5-0.2-0.5-0.5s0.2-0.5,0.5-0.5S377.3,62.7,377.3,63L377.3,63 M371.9,60.3c0,0.3-0.2,0.5-0.5,0.5s-0.5-0.2-0.5-0.5
		s0.2-0.5,0.5-0.5C371.7,59.8,371.9,60,371.9,60.3 M382.6,60.3c0,0.3-0.2,0.5-0.5,0.5s-0.5-0.2-0.5-0.5s0.2-0.5,0.5-0.5
		S382.6,60,382.6,60.3 M378.6,40c0,1-0.8,1.8-1.8,1.8S375,41,375,40s0.8-1.8,1.8-1.8l0,0C377.8,38.2,378.6,39,378.6,40 M378.6,45.4
		c0,1-0.8,1.8-1.8,1.8s-1.8-0.8-1.8-1.8s0.8-1.8,1.8-1.8l0,0C377.8,43.6,378.6,44.4,378.6,45.4 M378.6,50.7c0,1-0.8,1.8-1.8,1.8
		s-1.8-0.8-1.8-1.8s0.8-1.8,1.8-1.8l0,0C377.8,48.9,378.6,49.7,378.6,50.7L378.6,50.7 M389.3,45.4c0,1-0.8,1.8-1.8,1.8
		s-1.8-0.8-1.8-1.8s0.8-1.8,1.8-1.8l0,0C388.5,43.6,389.3,44.4,389.3,45.4 M368,45.4c0,1-0.8,1.8-1.8,1.8s-1.8-0.8-1.8-1.8
		s0.8-1.8,1.8-1.8l0,0C367.1,43.6,368,44.4,368,45.4 M373.3,42.7c0,1-0.8,1.8-1.8,1.8s-1.8-0.8-1.8-1.8s0.8-1.8,1.8-1.8
		S373.3,41.7,373.3,42.7 M373.3,48c0,1-0.8,1.8-1.8,1.8s-1.8-0.8-1.8-1.8s0.8-1.8,1.8-1.8S373.3,47,373.3,48L373.3,48 M384,42.7
		c0,1-0.8,1.8-1.8,1.8s-1.8-0.8-1.8-1.8s0.8-1.8,1.8-1.8l0,0C383.2,40.9,384,41.7,384,42.7 M384,48c0,1-0.8,1.8-1.8,1.8
		s-1.8-0.8-1.8-1.8s0.8-1.8,1.8-1.8l0,0C383.2,46.2,384,47,384,48"/>
	<rect x="27.7" y="14" class="st2" width="156.7" height="43.3"/>
	<g class="st3">
		<path d="M81.2,23.1v-8.6h1.4v7.4h3.6v1.2H81.2z"/>
		<path d="M90.4,23.2c-1,0-1.8-0.3-2.4-0.9s-0.9-1.4-0.9-2.4c0-1.1,0.3-1.9,0.8-2.5s1.3-0.9,2.2-0.9c0.9,0,1.5,0.3,2,0.8
			s0.7,1.2,0.7,2.1v0.7h-4.3c0,0.6,0.2,1.1,0.5,1.5s0.8,0.5,1.4,0.5c0.4,0,0.7,0,1.1-0.1s0.7-0.2,1.1-0.4v1.1
			c-0.3,0.2-0.7,0.3-1,0.3S90.9,23.2,90.4,23.2z M90.2,17.6c-0.4,0-0.8,0.1-1.1,0.4s-0.4,0.7-0.5,1.2h2.9c0-0.5-0.1-0.9-0.4-1.2
			S90.6,17.6,90.2,17.6z"/>
		<path d="M98.6,23.1l-0.3-0.9h0c-0.3,0.4-0.6,0.7-0.9,0.8s-0.7,0.2-1.2,0.2c-0.6,0-1.1-0.2-1.5-0.5S94,21.9,94,21.3
			c0-0.7,0.2-1.2,0.7-1.5s1.3-0.5,2.3-0.6l1.1,0v-0.3c0-0.4-0.1-0.7-0.3-0.9s-0.5-0.3-0.9-0.3c-0.3,0-0.7,0-1,0.1s-0.6,0.2-0.9,0.3
			l-0.4-1c0.4-0.2,0.7-0.3,1.2-0.4s0.8-0.1,1.2-0.1c0.8,0,1.4,0.2,1.9,0.5s0.6,0.9,0.6,1.7v4.4H98.6z M96.5,22.2
			c0.5,0,0.9-0.1,1.2-0.4s0.5-0.7,0.5-1.2V20l-0.8,0c-0.6,0-1.1,0.1-1.4,0.3s-0.4,0.5-0.4,0.9c0,0.3,0.1,0.5,0.3,0.7
			S96.2,22.2,96.5,22.2z"/>
		<path d="M104.7,16.5c0.3,0,0.5,0,0.7,0.1l-0.1,1.3c-0.2,0-0.4-0.1-0.6-0.1c-0.6,0-1,0.2-1.3,0.5s-0.5,0.8-0.5,1.4v3.4h-1.4v-6.5
			h1.1l0.2,1.1h0.1c0.2-0.4,0.5-0.7,0.8-0.9S104.3,16.5,104.7,16.5z"/>
		<path d="M112.3,23.1h-1.4v-4c0-0.5-0.1-0.9-0.3-1.1s-0.5-0.4-1-0.4c-0.6,0-1,0.2-1.3,0.5s-0.4,0.9-0.4,1.7v3.2h-1.4v-6.5h1.1
			l0.2,0.8h0.1c0.2-0.3,0.5-0.5,0.8-0.7s0.8-0.3,1.2-0.3c1.6,0,2.3,0.8,2.3,2.4V23.1z"/>
		<path d="M122.8,23.1h-1.4v-4c0-0.5-0.1-0.9-0.3-1.1s-0.5-0.4-0.9-0.4c-0.5,0-0.9,0.2-1.2,0.5s-0.4,0.9-0.4,1.7v3.2h-1.4v-6.5h1.1
			l0.2,0.8h0.1c0.2-0.3,0.4-0.5,0.8-0.7s0.7-0.3,1.1-0.3c1,0,1.7,0.3,2,1h0.1c0.2-0.3,0.5-0.6,0.8-0.8s0.7-0.3,1.2-0.3
			c0.8,0,1.3,0.2,1.7,0.6s0.5,1,0.5,1.8v4.2h-1.4v-4c0-0.5-0.1-0.9-0.3-1.1s-0.5-0.4-0.9-0.4c-0.5,0-0.9,0.2-1.2,0.5
			s-0.4,0.8-0.4,1.5V23.1z"/>
		<path d="M134.6,19.9c0,1.1-0.3,1.9-0.8,2.5s-1.3,0.9-2.3,0.9c-0.6,0-1.1-0.1-1.6-0.4s-0.8-0.7-1.1-1.2s-0.4-1.1-0.4-1.8
			c0-1.1,0.3-1.9,0.8-2.5s1.3-0.9,2.3-0.9c0.9,0,1.7,0.3,2.2,0.9S134.6,18.8,134.6,19.9z M129.9,19.9c0,1.5,0.6,2.2,1.7,2.2
			c1.1,0,1.6-0.7,1.6-2.2c0-1.5-0.6-2.2-1.7-2.2c-0.6,0-1,0.2-1.3,0.6S129.9,19.2,129.9,19.9z"/>
		<path d="M139.5,16.5c0.3,0,0.5,0,0.7,0.1l-0.1,1.3c-0.2,0-0.4-0.1-0.6-0.1c-0.6,0-1,0.2-1.3,0.5s-0.5,0.8-0.5,1.4v3.4h-1.4v-6.5
			h1.1l0.2,1.1h0.1c0.2-0.4,0.5-0.7,0.8-0.9S139.1,16.5,139.5,16.5z"/>
		<path d="M144.2,23.2c-1,0-1.8-0.3-2.4-0.9S141,21,141,19.9c0-1.1,0.3-1.9,0.8-2.5s1.3-0.9,2.2-0.9c0.9,0,1.5,0.3,2,0.8
			s0.7,1.2,0.7,2.1v0.7h-4.3c0,0.6,0.2,1.1,0.5,1.5s0.8,0.5,1.4,0.5c0.4,0,0.7,0,1.1-0.1s0.7-0.2,1.1-0.4v1.1
			c-0.3,0.2-0.7,0.3-1,0.3S144.6,23.2,144.2,23.2z M143.9,17.6c-0.4,0-0.8,0.1-1.1,0.4s-0.4,0.7-0.5,1.2h2.9c0-0.5-0.1-0.9-0.4-1.2
			S144.4,17.6,143.9,17.6z"/>
		<path d="M155.4,23.1l-0.3-0.9h0c-0.3,0.4-0.6,0.7-0.9,0.8s-0.7,0.2-1.2,0.2c-0.6,0-1.1-0.2-1.5-0.5s-0.5-0.8-0.5-1.5
			c0-0.7,0.2-1.2,0.7-1.5s1.3-0.5,2.3-0.6l1.1,0v-0.3c0-0.4-0.1-0.7-0.3-0.9s-0.5-0.3-0.9-0.3c-0.3,0-0.7,0-1,0.1s-0.6,0.2-0.9,0.3
			l-0.4-1c0.4-0.2,0.7-0.3,1.2-0.4s0.8-0.1,1.2-0.1c0.8,0,1.4,0.2,1.9,0.5s0.6,0.9,0.6,1.7v4.4H155.4z M153.4,22.2
			c0.5,0,0.9-0.1,1.2-0.4s0.5-0.7,0.5-1.2V20l-0.8,0c-0.6,0-1.1,0.1-1.4,0.3s-0.4,0.5-0.4,0.9c0,0.3,0.1,0.5,0.3,0.7
			S153,22.2,153.4,22.2z"/>
		<path d="M161.6,16.5c0.8,0,1.4,0.3,1.9,0.9s0.7,1.4,0.7,2.5c0,1.1-0.2,1.9-0.7,2.5s-1.1,0.9-1.9,0.9c-0.8,0-1.5-0.3-1.9-0.9h-0.1
			l-0.3,0.8h-1V14h1.4v2.2c0,0.2,0,0.4,0,0.7s0,0.5,0,0.6h0.1C160.1,16.8,160.8,16.5,161.6,16.5z M161.3,17.6c-0.6,0-1,0.2-1.2,0.5
			s-0.4,0.9-0.4,1.6v0.1c0,0.8,0.1,1.4,0.4,1.7s0.7,0.5,1.2,0.5c0.5,0,0.9-0.2,1.1-0.6s0.4-0.9,0.4-1.7
			C162.8,18.4,162.3,17.6,161.3,17.6z"/>
		<path d="M171.6,19.9c0,1.1-0.3,1.9-0.8,2.5s-1.3,0.9-2.3,0.9c-0.6,0-1.1-0.1-1.6-0.4s-0.8-0.7-1.1-1.2s-0.4-1.1-0.4-1.8
			c0-1.1,0.3-1.9,0.8-2.5s1.3-0.9,2.3-0.9c0.9,0,1.7,0.3,2.2,0.9S171.6,18.8,171.6,19.9z M166.8,19.9c0,1.5,0.6,2.2,1.7,2.2
			c1.1,0,1.6-0.7,1.6-2.2c0-1.5-0.6-2.2-1.7-2.2c-0.6,0-1,0.2-1.3,0.6S166.8,19.2,166.8,19.9z"/>
		<path d="M177.7,23.1l-0.2-0.8h-0.1c-0.2,0.3-0.5,0.5-0.8,0.7s-0.8,0.3-1.2,0.3c-0.8,0-1.4-0.2-1.8-0.6s-0.6-1-0.6-1.8v-4.2h1.4v4
			c0,0.5,0.1,0.9,0.3,1.1s0.5,0.4,1,0.4c0.6,0,1-0.2,1.3-0.5s0.4-0.9,0.4-1.7v-3.2h1.4v6.5H177.7z"/>
		<path d="M183.2,22.1c0.3,0,0.7-0.1,1-0.2v1c-0.2,0.1-0.3,0.1-0.6,0.2s-0.5,0.1-0.7,0.1c-1.3,0-2-0.7-2-2.1v-3.5H180v-0.6l0.9-0.5
			l0.5-1.4h0.8v1.4h1.8v1h-1.8v3.5c0,0.3,0.1,0.6,0.2,0.7S182.9,22.1,183.2,22.1z"/>
	</g>
	<g class="st3">
		<path d="M39.1,34.3c0,1.1-0.3,1.9-0.8,2.5S37,37.6,36,37.6c-0.6,0-1.1-0.1-1.6-0.4s-0.8-0.7-1.1-1.2s-0.4-1.1-0.4-1.8
			c0-1.1,0.3-1.9,0.8-2.5s1.3-0.9,2.3-0.9c0.9,0,1.7,0.3,2.2,0.9S39.1,33.2,39.1,34.3z M34.4,34.3c0,1.5,0.6,2.2,1.7,2.2
			c1.1,0,1.6-0.7,1.6-2.2c0-1.5-0.6-2.2-1.7-2.2c-0.6,0-1,0.2-1.3,0.6S34.4,33.6,34.4,34.3z"/>
		<path d="M45.2,37.5L45,36.7H45c-0.2,0.3-0.5,0.5-0.8,0.7s-0.8,0.3-1.2,0.3c-0.8,0-1.4-0.2-1.8-0.6s-0.6-1-0.6-1.8V31H42v4
			c0,0.5,0.1,0.9,0.3,1.1s0.5,0.4,1,0.4c0.6,0,1-0.2,1.3-0.5s0.4-0.9,0.4-1.7V31h1.4v6.5H45.2z"/>
		<path d="M51.6,30.9c0.3,0,0.5,0,0.7,0.1l-0.1,1.3c-0.2,0-0.4-0.1-0.6-0.1c-0.6,0-1,0.2-1.3,0.5s-0.5,0.8-0.5,1.4v3.4h-1.4V31h1.1
			l0.2,1.1h0.1c0.2-0.4,0.5-0.7,0.8-0.9S51.2,30.9,51.6,30.9z"/>
		<path d="M61.1,37.5l-0.2-0.8h-0.1c-0.2,0.3-0.5,0.5-0.8,0.7s-0.8,0.3-1.2,0.3c-0.8,0-1.4-0.2-1.8-0.6s-0.6-1-0.6-1.8V31h1.4v4
			c0,0.5,0.1,0.9,0.3,1.1s0.5,0.4,1,0.4c0.6,0,1-0.2,1.3-0.5s0.4-0.9,0.4-1.7V31h1.4v6.5H61.1z"/>
		<path d="M67.5,37.6c-0.8,0-1.5-0.3-1.9-0.9h-0.1c0.1,0.5,0.1,0.9,0.1,1v2.7h-1.4V31h1.1c0,0.1,0.1,0.4,0.2,0.9h0.1
			c0.4-0.7,1.1-1,1.9-1c0.8,0,1.4,0.3,1.9,0.9s0.7,1.4,0.7,2.5s-0.2,1.9-0.7,2.5S68.3,37.6,67.5,37.6z M67.1,32
			c-0.5,0-0.9,0.2-1.2,0.5s-0.4,0.8-0.4,1.5v0.2c0,0.8,0.1,1.4,0.4,1.7s0.7,0.5,1.2,0.5c0.5,0,0.8-0.2,1.1-0.6s0.4-0.9,0.4-1.7
			c0-0.7-0.1-1.3-0.4-1.6S67.6,32,67.1,32z"/>
		<path d="M74.3,37.6c-1,0-1.7-0.3-2.2-0.9s-0.8-1.4-0.8-2.5c0-1.1,0.3-1.9,0.8-2.5s1.3-0.9,2.3-0.9c0.7,0,1.3,0.1,1.8,0.4l-0.4,1.1
			c-0.6-0.2-1.1-0.3-1.4-0.3c-1.1,0-1.7,0.7-1.7,2.2c0,0.7,0.1,1.3,0.4,1.6s0.7,0.5,1.2,0.5c0.6,0,1.2-0.2,1.7-0.5v1.2
			c-0.2,0.1-0.5,0.2-0.8,0.3S74.7,37.6,74.3,37.6z"/>
		<path d="M83.4,34.3c0,1.1-0.3,1.9-0.8,2.5s-1.3,0.9-2.3,0.9c-0.6,0-1.1-0.1-1.6-0.4s-0.8-0.7-1.1-1.2s-0.4-1.1-0.4-1.8
			c0-1.1,0.3-1.9,0.8-2.5s1.3-0.9,2.3-0.9c0.9,0,1.7,0.3,2.2,0.9S83.4,33.2,83.4,34.3z M78.6,34.3c0,1.5,0.6,2.2,1.7,2.2
			c1.1,0,1.6-0.7,1.6-2.2c0-1.5-0.6-2.2-1.7-2.2c-0.6,0-1,0.2-1.3,0.6S78.6,33.6,78.6,34.3z"/>
		<path d="M90.4,37.5H89v-4c0-0.5-0.1-0.9-0.3-1.1S88.2,32,87.9,32c-0.5,0-0.9,0.2-1.2,0.5s-0.4,0.9-0.4,1.7v3.2h-1.4V31H86l0.2,0.8
			h0.1c0.2-0.3,0.4-0.5,0.8-0.7s0.7-0.3,1.1-0.3c1,0,1.7,0.3,2,1h0.1c0.2-0.3,0.5-0.6,0.8-0.8s0.7-0.3,1.2-0.3
			c0.8,0,1.3,0.2,1.7,0.6s0.5,1,0.5,1.8v4.2h-1.4v-4c0-0.5-0.1-0.9-0.3-1.1S92.3,32,91.9,32c-0.5,0-0.9,0.2-1.2,0.5
			s-0.4,0.8-0.4,1.5V37.5z"/>
		<path d="M96.3,29.3c0-0.2,0.1-0.4,0.2-0.6s0.3-0.2,0.6-0.2c0.2,0,0.4,0.1,0.6,0.2s0.2,0.3,0.2,0.6c0,0.2-0.1,0.4-0.2,0.6
			s-0.3,0.2-0.6,0.2c-0.2,0-0.4-0.1-0.6-0.2S96.3,29.6,96.3,29.3z M97.8,37.5h-1.4V31h1.4V37.5z"/>
		<path d="M105.5,37.5h-1.4v-4c0-0.5-0.1-0.9-0.3-1.1s-0.5-0.4-1-0.4c-0.6,0-1,0.2-1.3,0.5s-0.4,0.9-0.4,1.7v3.2h-1.4V31h1.1
			l0.2,0.8h0.1c0.2-0.3,0.5-0.5,0.8-0.7s0.8-0.3,1.2-0.3c1.6,0,2.3,0.8,2.3,2.4V37.5z"/>
		<path d="M112.8,31v0.8l-1.1,0.2c0.1,0.1,0.2,0.3,0.3,0.5s0.1,0.4,0.1,0.6c0,0.7-0.2,1.2-0.7,1.6s-1.1,0.6-1.9,0.6
			c-0.2,0-0.4,0-0.6,0c-0.3,0.2-0.4,0.4-0.4,0.6c0,0.1,0.1,0.3,0.2,0.3s0.4,0.1,0.8,0.1h1.1c0.7,0,1.3,0.2,1.6,0.5s0.6,0.7,0.6,1.3
			c0,0.7-0.3,1.3-0.9,1.7s-1.5,0.6-2.6,0.6c-0.9,0-1.6-0.2-2-0.5s-0.7-0.8-0.7-1.3c0-0.4,0.1-0.7,0.4-1s0.6-0.5,1.1-0.6
			c-0.2-0.1-0.3-0.2-0.5-0.4s-0.2-0.4-0.2-0.5c0-0.2,0.1-0.4,0.2-0.6s0.3-0.3,0.6-0.5c-0.3-0.1-0.6-0.4-0.8-0.7s-0.3-0.7-0.3-1.1
			c0-0.7,0.2-1.2,0.7-1.6s1.1-0.6,1.9-0.6c0.2,0,0.4,0,0.6,0s0.4,0.1,0.5,0.1H112.8z M107.7,38.5c0,0.3,0.1,0.5,0.4,0.7
			s0.6,0.2,1.1,0.2c0.8,0,1.3-0.1,1.7-0.3s0.6-0.5,0.6-0.9c0-0.3-0.1-0.5-0.3-0.6s-0.6-0.2-1.1-0.2h-1c-0.4,0-0.7,0.1-0.9,0.3
			S107.7,38.2,107.7,38.5z M108.3,33.1c0,0.4,0.1,0.7,0.3,0.9s0.5,0.3,0.9,0.3c0.8,0,1.2-0.4,1.2-1.3c0-0.4-0.1-0.7-0.3-1
			s-0.5-0.3-0.9-0.3c-0.4,0-0.7,0.1-0.9,0.3S108.3,32.7,108.3,33.1z"/>
		<path d="M120.4,37.6c-0.8,0-1.5-0.3-1.9-0.9h-0.1c0.1,0.5,0.1,0.9,0.1,1v2.7h-1.4V31h1.1c0,0.1,0.1,0.4,0.2,0.9h0.1
			c0.4-0.7,1.1-1,1.9-1c0.8,0,1.4,0.3,1.9,0.9s0.7,1.4,0.7,2.5s-0.2,1.9-0.7,2.5S121.3,37.6,120.4,37.6z M120.1,32
			c-0.5,0-0.9,0.2-1.2,0.5s-0.4,0.8-0.4,1.5v0.2c0,0.8,0.1,1.4,0.4,1.7s0.7,0.5,1.2,0.5c0.5,0,0.8-0.2,1.1-0.6s0.4-0.9,0.4-1.7
			c0-0.7-0.1-1.3-0.4-1.6S120.6,32,120.1,32z"/>
		<path d="M128.7,37.5l-0.3-0.9h0c-0.3,0.4-0.6,0.7-0.9,0.8s-0.7,0.2-1.2,0.2c-0.6,0-1.1-0.2-1.5-0.5s-0.5-0.8-0.5-1.5
			c0-0.7,0.2-1.2,0.7-1.5s1.3-0.5,2.3-0.6l1.1,0v-0.3c0-0.4-0.1-0.7-0.3-0.9s-0.5-0.3-0.9-0.3c-0.3,0-0.7,0-1,0.1s-0.6,0.2-0.9,0.3
			l-0.4-1c0.4-0.2,0.7-0.3,1.2-0.4s0.8-0.1,1.2-0.1c0.8,0,1.4,0.2,1.9,0.5s0.6,0.9,0.6,1.7v4.4H128.7z M126.6,36.6
			c0.5,0,0.9-0.1,1.2-0.4s0.5-0.7,0.5-1.2v-0.6l-0.8,0c-0.6,0-1.1,0.1-1.4,0.3s-0.4,0.5-0.4,0.9c0,0.3,0.1,0.5,0.3,0.7
			S126.3,36.6,126.6,36.6z"/>
		<path d="M134.9,30.9c0.3,0,0.5,0,0.7,0.1l-0.1,1.3c-0.2,0-0.4-0.1-0.6-0.1c-0.6,0-1,0.2-1.3,0.5s-0.5,0.8-0.5,1.4v3.4h-1.4V31h1.1
			l0.2,1.1h0.1c0.2-0.4,0.5-0.7,0.8-0.9S134.5,30.9,134.9,30.9z"/>
		<path d="M139.2,36.5c0.3,0,0.7-0.1,1-0.2v1c-0.2,0.1-0.3,0.1-0.6,0.2s-0.5,0.1-0.7,0.1c-1.3,0-2-0.7-2-2.1v-3.5H136v-0.6L137,31
			l0.5-1.4h0.8V31h1.8v1h-1.8v3.5c0,0.3,0.1,0.6,0.2,0.7S138.9,36.5,139.2,36.5z"/>
		<path d="M147.2,37.5h-1.4v-4c0-0.5-0.1-0.9-0.3-1.1s-0.5-0.4-1-0.4c-0.6,0-1,0.2-1.3,0.5s-0.4,0.9-0.4,1.7v3.2h-1.4V31h1.1
			l0.2,0.8h0.1c0.2-0.3,0.5-0.5,0.8-0.7s0.8-0.3,1.2-0.3c1.6,0,2.3,0.8,2.3,2.4V37.5z"/>
		<path d="M151.9,37.6c-1,0-1.8-0.3-2.4-0.9s-0.9-1.4-0.9-2.4c0-1.1,0.3-1.9,0.8-2.5s1.3-0.9,2.2-0.9c0.9,0,1.5,0.3,2,0.8
			s0.7,1.2,0.7,2.1v0.7h-4.3c0,0.6,0.2,1.1,0.5,1.5s0.8,0.5,1.4,0.5c0.4,0,0.7,0,1.1-0.1s0.7-0.2,1.1-0.4v1.1
			c-0.3,0.2-0.7,0.3-1,0.3S152.4,37.6,151.9,37.6z M151.7,32c-0.4,0-0.8,0.1-1.1,0.4s-0.4,0.7-0.5,1.2h2.9c0-0.5-0.1-0.9-0.4-1.2
			S152.1,32,151.7,32z"/>
		<path d="M159.3,30.9c0.3,0,0.5,0,0.7,0.1l-0.1,1.3c-0.2,0-0.4-0.1-0.6-0.1c-0.6,0-1,0.2-1.3,0.5s-0.5,0.8-0.5,1.4v3.4H156V31h1.1
			l0.2,1.1h0.1c0.2-0.4,0.5-0.7,0.8-0.9S158.9,30.9,159.3,30.9z"/>
		<path d="M165.5,35.7c0,0.6-0.2,1.1-0.7,1.5s-1.1,0.5-2,0.5c-0.9,0-1.6-0.1-2.1-0.4v-1.2c0.8,0.4,1.5,0.5,2.1,0.5
			c0.8,0,1.3-0.3,1.3-0.8c0-0.2,0-0.3-0.1-0.4s-0.2-0.2-0.5-0.3s-0.5-0.2-0.9-0.4c-0.7-0.3-1.3-0.6-1.5-0.9s-0.4-0.7-0.4-1.1
			c0-0.6,0.2-1,0.7-1.3s1.1-0.5,1.8-0.5c0.8,0,1.5,0.2,2.2,0.5l-0.4,1c-0.7-0.3-1.3-0.4-1.8-0.4c-0.7,0-1.1,0.2-1.1,0.6
			c0,0.2,0.1,0.4,0.3,0.5s0.6,0.3,1.2,0.6c0.5,0.2,0.9,0.4,1.2,0.6s0.4,0.4,0.5,0.6S165.5,35.4,165.5,35.7z"/>
		<path d="M172.7,37.5h-1.4v-4c0-0.5-0.1-0.9-0.3-1.1s-0.5-0.4-1-0.4c-0.6,0-1,0.2-1.3,0.5s-0.4,0.9-0.4,1.7v3.2H167v-9.1h1.4v2.3
			c0,0.4,0,0.8-0.1,1.2h0.1c0.2-0.3,0.4-0.6,0.8-0.7s0.7-0.3,1.2-0.3c1.6,0,2.4,0.8,2.4,2.4V37.5z"/>
		<path d="M174.6,29.3c0-0.2,0.1-0.4,0.2-0.6s0.3-0.2,0.6-0.2c0.2,0,0.4,0.1,0.6,0.2s0.2,0.3,0.2,0.6c0,0.2-0.1,0.4-0.2,0.6
			s-0.3,0.2-0.6,0.2c-0.2,0-0.4-0.1-0.6-0.2S174.6,29.6,174.6,29.3z M176,37.5h-1.4V31h1.4V37.5z"/>
		<path d="M181.3,37.6c-0.8,0-1.5-0.3-1.9-0.9h-0.1c0.1,0.5,0.1,0.9,0.1,1v2.7H178V31h1.1c0,0.1,0.1,0.4,0.2,0.9h0.1
			c0.4-0.7,1.1-1,1.9-1c0.8,0,1.4,0.3,1.9,0.9s0.7,1.4,0.7,2.5s-0.2,1.9-0.7,2.5S182.1,37.6,181.3,37.6z M181,32
			c-0.5,0-0.9,0.2-1.2,0.5s-0.4,0.8-0.4,1.5v0.2c0,0.8,0.1,1.4,0.4,1.7s0.7,0.5,1.2,0.5c0.5,0,0.8-0.2,1.1-0.6s0.4-0.9,0.4-1.7
			c0-0.7-0.1-1.3-0.4-1.6S181.4,32,181,32z"/>
	</g>
	<g class="st3">
		<path d="M55.6,51.9l-0.8-3c-0.1-0.3-0.3-1.1-0.6-2.2h-0.1c-0.2,1.1-0.4,1.8-0.5,2.2l-0.9,3h-1.5l-1.8-6.5h1.4l0.8,3.2
			c0.2,0.8,0.3,1.5,0.4,2h0c0-0.3,0.1-0.6,0.2-1s0.1-0.6,0.2-0.8l1-3.4h1.5l1,3.4c0.1,0.2,0.1,0.5,0.2,0.9s0.1,0.7,0.2,0.9h0
			c0.1-0.5,0.2-1.2,0.4-2l0.8-3.2H59l-1.8,6.5H55.6z"/>
		<path d="M60,43.7c0-0.2,0.1-0.4,0.2-0.6s0.3-0.2,0.6-0.2c0.2,0,0.4,0.1,0.6,0.2s0.2,0.3,0.2,0.6c0,0.2-0.1,0.4-0.2,0.6
			s-0.3,0.2-0.6,0.2c-0.2,0-0.4-0.1-0.6-0.2S60,44,60,43.7z M61.4,51.9h-1.4v-6.5h1.4V51.9z"/>
		<path d="M65.8,50.9c0.3,0,0.7-0.1,1-0.2v1c-0.2,0.1-0.3,0.1-0.6,0.2S65.8,52,65.5,52c-1.3,0-2-0.7-2-2.1v-3.5h-0.9v-0.6l0.9-0.5
			l0.5-1.4h0.8v1.4h1.8v1h-1.8V50c0,0.3,0.1,0.6,0.2,0.7S65.6,50.9,65.8,50.9z"/>
		<path d="M73.8,51.9h-1.4v-4c0-0.5-0.1-0.9-0.3-1.1s-0.5-0.4-1-0.4c-0.6,0-1,0.2-1.3,0.5s-0.4,0.9-0.4,1.7v3.2h-1.4v-9.1h1.4v2.3
			c0,0.4,0,0.8-0.1,1.2h0.1c0.2-0.3,0.4-0.6,0.8-0.7s0.7-0.3,1.2-0.3c1.6,0,2.4,0.8,2.4,2.4V51.9z"/>
		<path d="M86.6,47.6c0,1.4-0.3,2.5-1,3.3s-1.7,1.2-3,1.2c-1.3,0-2.3-0.4-3-1.2s-1-1.9-1-3.3s0.3-2.5,1-3.3s1.7-1.1,3-1.1
			c1.3,0,2.3,0.4,3,1.2S86.6,46.2,86.6,47.6z M80.1,47.6c0,1.1,0.2,1.9,0.6,2.4s1.1,0.8,1.9,0.8c0.8,0,1.5-0.3,1.9-0.8
			s0.6-1.3,0.6-2.4c0-1.1-0.2-1.8-0.6-2.4s-1-0.8-1.9-0.8c-0.8,0-1.5,0.3-1.9,0.8S80.1,46.6,80.1,47.6z"/>
		<path d="M90.9,52c-1,0-1.7-0.3-2.2-0.9s-0.8-1.4-0.8-2.5c0-1.1,0.3-1.9,0.8-2.5s1.3-0.9,2.3-0.9c0.7,0,1.3,0.1,1.8,0.4l-0.4,1.1
			c-0.6-0.2-1.1-0.3-1.4-0.3c-1.1,0-1.7,0.7-1.7,2.2c0,0.7,0.1,1.3,0.4,1.6s0.7,0.5,1.2,0.5c0.6,0,1.2-0.2,1.7-0.5v1.2
			c-0.2,0.1-0.5,0.2-0.8,0.3S91.3,52,90.9,52z"/>
		<path d="M97.1,52c-1,0-1.8-0.3-2.4-0.9s-0.9-1.4-0.9-2.4c0-1.1,0.3-1.9,0.8-2.5s1.3-0.9,2.2-0.9c0.9,0,1.5,0.3,2,0.8
			s0.7,1.2,0.7,2.1V49h-4.3c0,0.6,0.2,1.1,0.5,1.5s0.8,0.5,1.4,0.5c0.4,0,0.7,0,1.1-0.1s0.7-0.2,1.1-0.4v1.1c-0.3,0.2-0.7,0.3-1,0.3
			S97.5,52,97.1,52z M96.8,46.4c-0.4,0-0.8,0.1-1.1,0.4s-0.4,0.7-0.5,1.2h2.9c0-0.5-0.1-0.9-0.4-1.2S97.3,46.4,96.8,46.4z"/>
		<path d="M105.2,51.9l-0.3-0.9h0c-0.3,0.4-0.6,0.7-0.9,0.8s-0.7,0.2-1.2,0.2c-0.6,0-1.1-0.2-1.5-0.5s-0.5-0.8-0.5-1.5
			c0-0.7,0.2-1.2,0.7-1.5s1.3-0.5,2.3-0.6l1.1,0v-0.3c0-0.4-0.1-0.7-0.3-0.9s-0.5-0.3-0.9-0.3c-0.3,0-0.7,0-1,0.1s-0.6,0.2-0.9,0.3
			l-0.4-1c0.4-0.2,0.7-0.3,1.2-0.4s0.8-0.1,1.2-0.1c0.8,0,1.4,0.2,1.9,0.5s0.6,0.9,0.6,1.7v4.4H105.2z M103.2,51
			c0.5,0,0.9-0.1,1.2-0.4s0.5-0.7,0.5-1.2v-0.6l-0.8,0c-0.6,0-1.1,0.1-1.4,0.3s-0.4,0.5-0.4,0.9c0,0.3,0.1,0.5,0.3,0.7
			S102.8,51,103.2,51z"/>
		<path d="M113.8,51.9h-1.4v-4c0-0.5-0.1-0.9-0.3-1.1s-0.5-0.4-1-0.4c-0.6,0-1,0.2-1.3,0.5s-0.4,0.9-0.4,1.7v3.2h-1.4v-6.5h1.1
			l0.2,0.8h0.1c0.2-0.3,0.5-0.5,0.8-0.7s0.8-0.3,1.2-0.3c1.6,0,2.3,0.8,2.3,2.4V51.9z"/>
		<path d="M124.7,45.9c0,0.9-0.3,1.6-0.9,2.1s-1.4,0.7-2.5,0.7h-0.9v3.2H119v-8.6h2.5c1.1,0,1.9,0.2,2.4,0.7S124.7,45.1,124.7,45.9z
			 M120.4,47.5h0.7c0.7,0,1.2-0.1,1.6-0.4s0.5-0.6,0.5-1.2c0-0.5-0.2-0.9-0.5-1.1s-0.8-0.4-1.4-0.4h-1V47.5z"/>
		<path d="M129.5,45.3c0.3,0,0.5,0,0.7,0.1l-0.1,1.3c-0.2,0-0.4-0.1-0.6-0.1c-0.6,0-1,0.2-1.3,0.5s-0.5,0.8-0.5,1.4v3.4h-1.4v-6.5
			h1.1l0.2,1.1h0.1c0.2-0.4,0.5-0.7,0.8-0.9S129.1,45.3,129.5,45.3z"/>
		<path d="M137.2,48.7c0,1.1-0.3,1.9-0.8,2.5s-1.3,0.9-2.3,0.9c-0.6,0-1.1-0.1-1.6-0.4s-0.8-0.7-1.1-1.2s-0.4-1.1-0.4-1.8
			c0-1.1,0.3-1.9,0.8-2.5s1.3-0.9,2.3-0.9c0.9,0,1.7,0.3,2.2,0.9S137.2,47.6,137.2,48.7z M132.4,48.7c0,1.5,0.6,2.2,1.7,2.2
			c1.1,0,1.6-0.7,1.6-2.2c0-1.5-0.6-2.2-1.7-2.2c-0.6,0-1,0.2-1.3,0.6S132.4,48,132.4,48.7z"/>
		<path d="M141.2,50.9c0.3,0,0.7-0.1,1-0.2v1c-0.2,0.1-0.3,0.1-0.6,0.2s-0.5,0.1-0.7,0.1c-1.3,0-2-0.7-2-2.1v-3.5H138v-0.6l0.9-0.5
			l0.5-1.4h0.8v1.4h1.8v1h-1.8V50c0,0.3,0.1,0.6,0.2,0.7S140.9,50.9,141.2,50.9z"/>
		<path d="M149.2,48.7c0,1.1-0.3,1.9-0.8,2.5s-1.3,0.9-2.3,0.9c-0.6,0-1.1-0.1-1.6-0.4s-0.8-0.7-1.1-1.2s-0.4-1.1-0.4-1.8
			c0-1.1,0.3-1.9,0.8-2.5s1.3-0.9,2.3-0.9c0.9,0,1.7,0.3,2.2,0.9S149.2,47.6,149.2,48.7z M144.5,48.7c0,1.5,0.6,2.2,1.7,2.2
			c1.1,0,1.6-0.7,1.6-2.2c0-1.5-0.6-2.2-1.7-2.2c-0.6,0-1,0.2-1.3,0.6S144.5,48,144.5,48.7z"/>
		<path d="M153.4,52c-1,0-1.7-0.3-2.2-0.9s-0.8-1.4-0.8-2.5c0-1.1,0.3-1.9,0.8-2.5s1.3-0.9,2.3-0.9c0.7,0,1.3,0.1,1.8,0.4l-0.4,1.1
			c-0.6-0.2-1.1-0.3-1.4-0.3c-1.1,0-1.7,0.7-1.7,2.2c0,0.7,0.1,1.3,0.4,1.6s0.7,0.5,1.2,0.5c0.6,0,1.2-0.2,1.7-0.5v1.2
			c-0.2,0.1-0.5,0.2-0.8,0.3S153.8,52,153.4,52z"/>
		<path d="M162.5,48.7c0,1.1-0.3,1.9-0.8,2.5s-1.3,0.9-2.3,0.9c-0.6,0-1.1-0.1-1.6-0.4s-0.8-0.7-1.1-1.2s-0.4-1.1-0.4-1.8
			c0-1.1,0.3-1.9,0.8-2.5s1.3-0.9,2.3-0.9c0.9,0,1.7,0.3,2.2,0.9S162.5,47.6,162.5,48.7z M157.8,48.7c0,1.5,0.6,2.2,1.7,2.2
			c1.1,0,1.6-0.7,1.6-2.2c0-1.5-0.6-2.2-1.7-2.2c-0.6,0-1,0.2-1.3,0.6S157.8,48,157.8,48.7z"/>
		<path d="M165.4,51.9h-1.4v-9.1h1.4V51.9z"/>
		<path d="M176.3,48.7c0,1.1-0.3,1.9-0.8,2.5s-1.3,0.9-2.3,0.9c-0.6,0-1.1-0.1-1.6-0.4s-0.8-0.7-1.1-1.2s-0.4-1.1-0.4-1.8
			c0-1.1,0.3-1.9,0.8-2.5s1.3-0.9,2.3-0.9c0.9,0,1.7,0.3,2.2,0.9S176.3,47.6,176.3,48.7z M171.6,48.7c0,1.5,0.6,2.2,1.7,2.2
			c1.1,0,1.6-0.7,1.6-2.2c0-1.5-0.6-2.2-1.7-2.2c-0.6,0-1,0.2-1.3,0.6S171.6,48,171.6,48.7z"/>
		<path d="M183.6,51.9h-1.4v-4c0-0.5-0.1-0.9-0.3-1.1s-0.5-0.4-1-0.4c-0.6,0-1,0.2-1.3,0.5s-0.4,0.9-0.4,1.7v3.2h-1.4v-6.5h1.1
			l0.2,0.8h0.1c0.2-0.3,0.5-0.5,0.8-0.7s0.8-0.3,1.2-0.3c1.6,0,2.3,0.8,2.3,2.4V51.9z"/>
	</g>
</g>
<g id="Layer_5">
	<g>
		<path class="st4" d="M381,24.6c-1,1.4-2.5,2.4-4.2,2.8c-3.7,0.7-7.3-1.7-8.1-5.4c-0.7-3.7,1.7-7.3,5.4-8.1c1.8-0.4,3.5,0,5,0.9
			l5.2-1c-2.5-3.3-6.7-5-11-4.1c-6.1,1.2-10,7.1-8.8,13.2s7.1,10,13.2,8.8c4.3-0.9,7.5-4.1,8.6-8.1L381,24.6z"/>
		<path class="st5" d="M388.2,20.8c-0.2,0-0.4,0.1-0.6,0.2l-5.8,1.2c-0.1,0.6-0.3,1.2-0.6,1.7l6.7-1.4c0.1,0,0.2,0.1,0.3,0.1
			c0.5,0,0.9-0.4,0.9-0.9C389.1,21.2,388.7,20.8,388.2,20.8z M388.2,22.5c-0.4,0-0.8-0.4-0.8-0.8s0.4-0.8,0.8-0.8s0.8,0.4,0.8,0.8
			S388.7,22.5,388.2,22.5z"/>
		<path class="st4" d="M388.6,18.3c-0.2,0-0.4,0.1-0.6,0.2l-6.2,1.2c0.1,0.5,0.1,1.1,0,1.6l6.5-1.3c0.1,0,0.2,0,0.3,0
			c0.5,0,0.9-0.4,0.9-0.9C389.5,18.7,389.1,18.3,388.6,18.3z M388.6,20c-0.4,0-0.8-0.4-0.8-0.8s0.4-0.8,0.8-0.8s0.8,0.4,0.8,0.8
			C389.4,19.7,389,20,388.6,20z"/>
		<path class="st6" d="M388.6,15.9c-0.2,0-0.5,0.1-0.6,0.2l-7,1.4c0.3,0.5,0.5,0.9,0.6,1.5l6.8-1.4c0.1,0,0.2,0,0.3,0
			c0.5,0,0.9-0.4,0.9-0.9S389.1,15.9,388.6,15.9z M388.6,17.6c-0.4,0-0.8-0.4-0.8-0.8s0.4-0.8,0.8-0.8s0.8,0.4,0.8,0.8
			S389,17.6,388.6,17.6z"/>
		<path class="st7" d="M387.2,13.8c-0.2,0-0.5,0.1-0.6,0.3l-7.1,1.4c0.5,0.4,0.9,0.8,1.2,1.3l6.2-1.2c0.1,0,0.2,0,0.2,0
			c0.5,0,0.9-0.4,0.9-0.9C388.1,14.2,387.7,13.8,387.2,13.8z M387.2,15.5c-0.4,0-0.8-0.4-0.8-0.8c0-0.4,0.4-0.8,0.8-0.8
			s0.8,0.4,0.8,0.8S387.6,15.5,387.2,15.5z"/>
	</g>
</g>
<g id="Layer_4">
	<g>
		<path d="M312.8,44.5c-5.3,0-8.6-3-8.6-8c0-5.1,3-8.3,7.9-8.4h0.4c0.6,0,1.5,0,2.6,0.2v-6.2h3.5l0.1,21.8
			C318.6,43.9,315.3,44.5,312.8,44.5 M312.6,30.9c-3.3,0-5,1.8-4.9,5.5c0,3.3,2,5.4,5.1,5.4c0.6,0,1.3,0,2.2-0.1l0-10.6
			C314.1,31,313.3,30.9,312.6,30.9 M265.5,44.3L256.1,28l0.1,16.3H253l-0.1-20.6h4.5l9.4,16.1l-0.1-16.1h3.3l0.1,20.6H265.5z
			 M295.2,44.4c-1.6,0-3.2-0.2-5.2-0.5h-0.2V41l0.3,0.1c1.7,0.4,3.2,0.7,4.7,0.7c1.2,0,4-0.2,4-2c0-1.5-1.9-1.8-3.5-2.1h-0.1
			c-0.3-0.1-0.6-0.1-0.8-0.2c-2.3-0.6-4.7-1.5-4.7-4.5s2.3-4.7,6.4-4.7c2,0,3.4,0.2,4.5,0.4l0.6,0.1v2.8l-0.3-0.1
			c-1.3-0.2-2.8-0.5-4.3-0.5c-1.6,0-3.6,0.3-3.6,1.8c0,1.2,1.6,1.5,3.4,1.9c2.6,0.5,5.7,1.2,5.8,4.7
			C302.3,42.5,299.7,44.4,295.2,44.4 M328.3,44.2c-3.6,0-6.9-0.6-6.9-5.2c0-5,5.1-5,8.1-5c0.3,0,1.7,0.1,2.2,0.1
			c0-2.8-0.1-3.4-4.1-3.4c-1.6,0-3.4,0.3-4.9,0.6l-0.3,0.1v-2.7h0.2c1.8-0.4,3.6-0.6,5.4-0.6c3.9,0,7.2,0.4,7.3,5.2l0.1,10.6h-0.2
			C332.2,44.2,330.1,44.2,328.3,44.2 M329.4,36.5c-2.9,0-4.8,0.5-4.8,2.6c0,2.5,2.3,2.7,4.5,2.7c0.8,0,2.3-0.1,2.7-0.2v-5.1
			C331.3,36.6,329.6,36.5,329.4,36.5 M279.8,44.5c-3.6,0-6.9-0.6-6.9-5.2c0-5,5.1-5,8.1-5c0.3,0,1.7,0.1,2.2,0.1
			c0-2.8-0.1-3.4-4.1-3.4c-1.6,0-3.4,0.3-4.9,0.6l-0.3,0.1V29h0.2c1.8-0.4,3.6-0.6,5.4-0.6c3.9,0,7.2,0.4,7.3,5.2l0.1,10.6h-0.2
			C283.8,44.4,281.7,44.5,279.8,44.5 M281,36.8c-2.9,0-4.8,0.5-4.8,2.6c0,2.5,2.3,2.7,4.5,2.7c0.8,0,2.3-0.1,2.7-0.2v-5.1
			C282.8,36.9,281.2,36.8,281,36.8"/>
		<g transform="translate(139 16)">
			<path d="M210,34.8V28c-1.3,0.2-2.1,0.2-2.6,0.2c-1.4,0-2.9-0.3-4.1-0.8c-2.6-1.1-4.2-3.9-4.2-7.4c0-1.8,0.4-5,3.3-6.8
				c1.5-0.9,3.2-1.3,5.8-1.3c0.9,0,2.2,0.1,3.4,0.1l2,0.1l0.1,21C213.5,33.2,210,34.8,210,34.8z M207.8,14.7c-3.5,0-5.3,1.8-5.3,5.3
				c0,4.5,2.7,5.5,4.9,5.5c0.5,0,1.2,0,2.5-0.2l-0.1-10.5C208.8,14.7,208.4,14.7,207.8,14.7L207.8,14.7z"/>
		</g>
		<g transform="translate(25)">
			<path class="st8" d="M212.3,11.6L201,43c-0.3,0.8-1,1.3-1.8,1.4l0,0l12.1-0.1c0.9,0,1.8-0.6,2-1.5l11.3-31.4L212.3,11.6z"/>
		</g>
		<path class="st8" d="M223.2,44c0.7,0,1.3-0.4,1.7-0.9c0-0.1,0.2-0.2,0.3-0.5l4.1-11.5l-2.5-6.7c-0.4-1.1-1.7-1.5-2.7-1.1
			c-0.4,0.2-0.7,0.4-0.9,0.7c0,0.1-0.2,0.3-0.3,0.5L218.8,36l2.5,6.7C221.6,43.5,222.4,44,223.2,44"/>
		<g transform="translate(-1 10)">
			<path class="st8" d="M225,12.6l-12.2,0.1c-0.9,0-1.8,0.6-2.1,1.5l-11.3,31.4l12.3-0.1L223,14.1C223.3,13.3,224.1,12.7,225,12.6
				L225,12.6z"/>
		</g>
	</g>
</g>
</svg>
