<svg width="35" height="35" viewBox="0 0 35 35" fill="none" xmlns="http://www.w3.org/2000/svg">
<circle cx="17.7571" cy="17.2429" r="16.2429" stroke="white" stroke-width="2"/>
<path fill-rule="evenodd" clip-rule="evenodd" d="M27.0983 15.1058C25.1152 8.49526 22.2306 6.93278 15.6201 8.91593C9.00957 10.8991 7.44709 13.7837 9.43024 20.3942C11.4134 27.0047 14.298 28.5672 20.9085 26.584C27.519 24.6009 29.0815 21.7163 27.0983 15.1058ZM17.3733 19.4428L16.5526 16.9926L19.1168 16.1337L19.9376 18.5839L17.3733 19.4428ZM22.471 19.7932L23.733 19.3726C24.2738 19.1923 24.5142 18.6514 24.394 18.0504C24.2137 17.5697 23.6729 17.2692 23.132 17.4495L21.87 17.8702L21.0287 15.4062L22.2907 14.9856C22.7715 14.8053 23.0719 14.2644 22.8916 13.7236C22.7114 13.2428 22.1705 12.9423 21.6296 13.1226L20.3676 13.5433L19.947 12.2212C19.7667 11.7404 19.2258 11.4399 18.685 11.6202C18.2042 11.8005 17.9037 12.3414 18.084 12.8822L18.5047 14.1442L15.9206 14.9856L15.4999 13.7236C15.3196 13.2428 14.7787 12.9423 14.2379 13.1226C13.697 13.3029 13.4566 13.9039 13.6369 14.4447L14.0576 15.7067L12.7956 16.1274C12.3148 16.3077 12.0143 16.8485 12.1946 17.3894C12.3148 17.75 12.6754 18.0504 13.0961 18.0504C13.2163 18.0504 13.3365 18.0504 13.4566 17.9904L14.6586 17.5697L15.4999 20.0937L14.2379 20.5144C13.7571 20.6947 13.4566 21.2355 13.6369 21.7764C13.7571 22.1369 14.1177 22.4374 14.5384 22.4374C14.6586 22.4374 14.7787 22.4374 14.8989 22.3773L16.1609 21.9567L16.5816 23.2187C16.7018 23.5792 17.0624 23.8797 17.483 23.8797C17.6032 23.8797 17.7234 23.8797 17.8436 23.8196C18.3244 23.6393 18.6249 23.0985 18.4446 22.5576L18.0239 21.2956L20.608 20.4543L21.0287 21.7163C21.1489 22.0768 21.5094 22.3773 21.9301 22.3773C22.0503 22.3773 22.1705 22.3773 22.2907 22.3172C22.7715 22.1369 23.0719 21.5961 22.8916 21.0552L22.471 19.7932Z" fill="white"/>
</svg>
