<?xml version="1.0" encoding="utf-8"?>
<!-- Generator: Adobe Illustrator 22.0.0, SVG Export Plug-In . SVG Version: 6.00 Build 0)  -->
<svg version="1.1" id="Layer_1" xmlns="http://www.w3.org/2000/svg" xmlns:xlink="http://www.w3.org/1999/xlink" x="0px" y="0px"
	 viewBox="0 0 36 35" style="enable-background:new 0 0 36 35;" xml:space="preserve">
<style type="text/css">
	.st0{fill:none;stroke:#FFFFFF;stroke-width:2;}
	.st1{fill:#FFFFFF;}
</style>
<circle class="st0" cx="18" cy="17.2" r="16.2"/>
<path class="st1" d="M9.6,17.2c4.5-1.9,7.4-3.2,8.9-3.8c4.3-1.8,5.1-2.1,5.7-2.1c0.1,0,0.4,0,0.6,0.2c0.2,0.1,0.2,0.3,0.2,0.4
	c0,0.1,0,0.4,0,0.6c-0.2,2.4-1.2,8.3-1.7,11c-0.2,1.1-0.6,1.5-1,1.6c-0.9,0.1-1.6-0.6-2.4-1.2c-1.3-0.9-2.1-1.4-3.4-2.3
	c-1.5-1-0.5-1.5,0.3-2.4c0.2-0.2,4.1-3.8,4.2-4.1c0,0,0-0.2-0.1-0.3c-0.1-0.1-0.2-0.1-0.3,0c-0.1,0-2.3,1.5-6.5,4.3
	c-0.6,0.4-1.2,0.6-1.7,0.6c-0.5,0-1.6-0.3-2.4-0.6c-1-0.3-1.7-0.5-1.7-1C8.5,17.7,8.9,17.5,9.6,17.2z"/>
</svg>
