<svg width="35" height="35" viewBox="0 0 35 35" fill="none" xmlns="http://www.w3.org/2000/svg">
<circle cx="17.7571" cy="17.2429" r="16.2429" stroke="white" stroke-width="2"/>
<path fill-rule="evenodd" clip-rule="evenodd" d="M24.1783 12.8477C24.8903 12.4063 25.4367 11.7063 25.693 10.8725C25.0264 11.2823 24.2898 11.5786 23.5038 11.739C22.8767 11.0442 21.9803 10.611 20.9882 10.611C19.085 10.611 17.5427 12.2101 17.5427 14.1822C17.5427 14.4622 17.5713 14.735 17.6304 14.9955C14.7667 14.8464 12.2274 13.426 10.5263 11.2639C10.2295 11.7932 10.0599 12.4063 10.0599 13.0602C10.0599 14.2987 10.6683 15.392 11.5933 16.0337C11.0283 16.0153 10.4967 15.8528 10.0313 15.5872V15.6311C10.0313 17.3621 11.2186 18.8059 12.7974 19.1329C12.5075 19.2166 12.2037 19.2585 11.8882 19.2585C11.6663 19.2585 11.4494 19.2371 11.2403 19.1952C11.6781 20.6135 12.9512 21.6475 14.46 21.6751C13.2796 22.6336 11.7935 23.2038 10.1792 23.2038C9.90113 23.2038 9.626 23.1884 9.35678 23.1547C10.8823 24.1673 12.6939 24.7589 14.6405 24.7589C20.9813 24.7589 24.4466 19.3168 24.4466 14.597C24.4466 14.4417 24.4446 14.2874 24.4377 14.1352C25.1112 13.6314 25.697 13.002 26.1575 12.2857C25.5392 12.5698 24.8746 12.7619 24.1783 12.8477Z" fill="white"/>
</svg>
     