<svg width="35" height="35" viewBox="0 0 35 35" fill="none" xmlns="http://www.w3.org/2000/svg">
<circle cx="17.2429" cy="17.2429" r="16.2429" stroke="white" stroke-width="2"/>
<path fill-rule="evenodd" clip-rule="evenodd" d="M13.1991 12.8783C13.1762 13.1804 13.1724 15.3148 13.1953 15.3512C13.2125 15.3784 14.2428 15.3908 14.3407 15.3648C14.384 15.3537 14.3872 15.2592 14.3872 13.8501V12.3477L14.4654 12.1067C14.5086 11.9745 14.6168 11.6274 14.7064 11.3352C14.7744 11.1133 14.8533 10.8585 14.9058 10.6889C14.9226 10.6347 14.9367 10.5891 14.9468 10.5562C15.3354 9.32621 15.7069 8.11541 15.7164 8.04683L15.7285 7.9622L15.1847 7.95911C14.6931 7.95664 14.543 7.95911 14.5296 7.97147C14.5233 7.97703 14.3535 8.60282 14.0514 9.73702C13.907 10.2776 13.7855 10.7094 13.7817 10.697C13.7783 10.6866 13.6766 10.3231 13.5362 9.82091C13.4931 9.66661 13.4463 9.49922 13.3976 9.32498C13.1909 8.58305 13.0179 7.9727 13.0128 7.96776C13.0052 7.96035 12.3469 7.95726 11.8133 7.96158C11.8009 7.96168 11.7894 7.95802 11.7821 7.96204C11.7439 7.98313 11.8226 8.216 12.5027 10.3171C12.6147 10.663 12.7826 11.1535 12.8754 11.4062C13.1616 12.1858 13.229 12.491 13.1991 12.8783ZM11.931 18.8257L11.9177 21.9781L11.9043 25.1306L11.3758 25.1373C10.9682 25.1429 10.8448 25.1367 10.8352 25.1114C10.8282 25.0935 10.8193 23.6714 10.8162 21.9522L10.8092 18.8257L10.2151 18.8195L9.62112 18.8121V18.3198V17.8268L11.3765 17.8336L13.1331 17.8404L13.1407 18.3266L13.1477 18.8121L12.5397 18.8195L11.931 18.8257ZM22.0923 20.8594C22.0592 20.965 22.0249 21.6933 22.0497 21.7564C22.063 21.7909 22.1381 21.7965 22.589 21.7965H23.1137L23.1048 21.3363C23.0959 20.9137 23.0901 20.8649 23.0323 20.7506C22.9407 20.5703 22.8046 20.4899 22.5903 20.4899C22.3327 20.4899 22.1692 20.611 22.0923 20.8594ZM24.0327 24.1903C23.8985 24.6716 23.543 25.0126 23.0291 25.1528C22.3359 25.3406 21.5733 25.0317 21.2687 24.4405C21.0982 24.1082 21.0925 24.0421 21.0925 22.4192C21.0925 21.096 21.0976 20.9341 21.1408 20.7537C21.2636 20.2422 21.5695 19.9117 22.0872 19.7282C22.7734 19.4855 23.5996 19.7925 23.8979 20.401C24.0543 20.7222 24.0734 20.8594 24.0899 21.7638L24.1033 22.5743L23.0787 22.5817L22.0541 22.5879L22.0465 23.1327C22.0357 23.9012 22.0885 24.1378 22.3021 24.278C22.4815 24.3954 22.7575 24.3862 22.9076 24.2583C23.0488 24.1378 23.0889 24.0087 23.1029 23.6325L23.1149 23.3014H23.6104H24.1052L24.0899 23.6708C24.081 23.874 24.0549 24.1082 24.0327 24.1903ZM19.1088 24.0402C19.0764 24.1298 19.0351 24.1872 18.9721 24.2286C18.8118 24.3324 18.5797 24.2997 18.3679 24.1428L18.2744 24.0736V22.4192V20.7648L18.3685 20.6957C18.6547 20.4832 18.967 20.5066 19.091 20.7494C19.1394 20.8445 19.1425 20.9298 19.1483 22.3803C19.154 23.7721 19.1502 23.9222 19.1088 24.0402ZM20.0208 24.7556C19.9363 24.939 19.748 25.1188 19.5922 25.1627C19.189 25.2788 18.8653 25.1849 18.4913 24.8433C18.3749 24.737 18.2668 24.6506 18.2509 24.6506C18.2312 24.6506 18.221 24.7333 18.221 24.897V25.1435H17.7402H17.2594V21.4852V17.8274H17.7402H18.221V19.0209C18.221 19.677 18.2305 20.2144 18.2407 20.2144C18.2522 20.2144 18.3533 20.1273 18.4665 20.0217C18.7266 19.7777 18.9435 19.6714 19.2189 19.6504C19.7111 19.6146 20.0037 19.8598 20.1379 20.4214C20.1792 20.5968 20.1843 20.797 20.1843 22.4192C20.1843 24.3954 20.1837 24.4041 20.0208 24.7556ZM15.0824 24.7296C14.8922 24.9174 14.6664 25.0694 14.4744 25.1386C14.0762 25.2838 13.6985 25.1991 13.5369 24.9298C13.3894 24.6833 13.3868 24.6277 13.3868 22.0696V19.7215H13.8664H14.3472L14.3542 21.933C14.3618 24.1057 14.3631 24.1465 14.4165 24.2342C14.4871 24.3522 14.5965 24.3843 14.7682 24.338C14.87 24.3108 14.9386 24.2626 15.1027 24.1038L15.3101 23.9043V21.8126V19.7215H15.7909H16.2717V22.4322V25.1435H15.7909H15.3101V24.8581C15.3101 24.6431 15.3012 24.5727 15.2757 24.5727C15.2566 24.5727 15.1695 24.6431 15.0824 24.7296ZM13.2399 27.3638C13.5191 27.3736 14.2581 27.3903 14.8827 27.4008C16.1839 27.4231 18.5765 27.4101 19.9439 27.373C20.8642 27.3477 22.5419 27.2822 22.8548 27.2587C22.9432 27.2519 23.1474 27.2396 23.3089 27.2303C23.8527 27.2007 24.198 27.0901 24.5218 26.8424C24.9421 26.5217 25.2665 25.9299 25.4039 25.2356C25.5343 24.5789 25.6214 23.4089 25.6386 22.0807C25.6538 20.9706 25.6335 20.3713 25.5514 19.4101C25.4465 18.1956 25.3644 17.8015 25.1062 17.2955C24.7647 16.6252 24.2712 16.2719 23.5684 16.194C23.0253 16.1341 20.9812 16.0489 19.0891 16.0081C15.8138 15.9377 10.4295 16.0736 9.74133 16.2447C9.42397 16.3238 9.18547 16.4572 8.93743 16.6975C8.50305 17.1176 8.2442 17.7199 8.1399 18.5539C7.90268 20.4566 7.89759 22.7565 8.12591 24.7284C8.22449 25.5766 8.428 26.1276 8.80833 26.5817C9.04619 26.8652 9.45577 27.1061 9.8221 27.1778C10.079 27.2285 11.3656 27.2983 13.2399 27.3638ZM20.223 15.4414C19.9546 15.4068 19.7975 15.3061 19.6901 15.0992C19.5552 14.8397 19.5552 14.8409 19.5552 12.2556V9.84328H20.0971H20.6383L20.6498 12.0672C20.6619 14.4826 20.6587 14.4264 20.8075 14.4629C20.9442 14.4956 21.0956 14.4246 21.2839 14.238L21.4645 14.0595L21.4715 11.9511L21.4778 9.84328L22.0191 9.83587L22.5603 9.82969V12.5905V15.3518L22.4865 15.3667C22.3981 15.3846 21.5777 15.3833 21.5115 15.3648C21.4715 15.3543 21.4651 15.3185 21.4651 15.1023V14.8515L21.3112 14.9972C20.9576 15.3314 20.576 15.4871 20.223 15.4414ZM17.4959 14.3869C17.6816 14.2498 17.6829 14.238 17.6924 12.6856C17.7007 11.4791 17.6962 11.274 17.6587 11.1097C17.6078 10.8873 17.5188 10.7823 17.3445 10.7359C17.1194 10.6779 16.9133 10.8027 16.8408 11.0417C16.7861 11.2258 16.7868 13.9625 16.8421 14.1466C16.8841 14.285 17.0183 14.4363 17.1175 14.4573C17.2466 14.4839 17.4049 14.4542 17.4965 14.3869H17.4959ZM17.0717 15.4402C16.5871 15.3833 16.1419 15.1066 15.9275 14.7285C15.7094 14.3437 15.689 14.1423 15.7018 12.4471C15.7119 11.1344 15.7158 11.0522 15.7692 10.8638C15.897 10.4159 16.1444 10.1108 16.5279 9.92606C17.0545 9.67339 17.6225 9.70614 18.1192 10.0187C18.4359 10.217 18.628 10.5049 18.731 10.933C18.7761 11.122 18.7806 11.2672 18.7806 12.5929C18.7806 14.2053 18.773 14.2986 18.6025 14.6476C18.4391 14.9843 18.0689 15.2808 17.6829 15.3852C17.5124 15.4303 17.2167 15.4575 17.0717 15.4402Z" fill="white"/>
</svg>
