<svg width="122" height="123" viewBox="0 0 122 123" fill="none" xmlns="http://www.w3.org/2000/svg">
<path d="M29.8563 112.875C13.9245 107.471 5.62396 84.6681 13.9245 74.3869C21.2879 65.4238 35.747 71.2234 23.0284 61.7331C12.5857 53.9563 -2.67661 73.7278 0.402636 93.6312C3.48188 113.534 22.359 112.875 27.8481 117.621C33.471 122.498 29.8563 112.875 29.8563 112.875Z" fill="#FFC741"/>
<path d="M26.2503 123H95.0627C95.0627 123 97.4585 119.927 92.0014 116.853C86.5443 113.78 94.131 66.2082 103.847 34.004C108.639 18.1023 125.676 21.0421 121.283 4.47224C121.017 3.40322 120.618 2.33419 120.218 1.13154C119.553 -0.605615 117.823 -0.204732 114.495 1.3988C112.099 2.46782 108.772 4.20498 104.38 6.07577C93.9979 10.3519 94.5303 -10.7613 78.2922 10.8864C70.9717 20.6412 74.033 31.0641 48.611 46.2977C21.9911 62.0658 26.2503 123 26.2503 123Z" fill="#FFC741"/>
<path d="M45.0911 82.1417C47.0068 78.1399 51.5223 75.8722 56.0379 76.0056C61.2376 76.2724 65.3426 80.0074 67.3952 84.4094C73.0054 96.6816 62.7428 108.554 54.5327 116.824C53.9853 117.358 53.1643 116.557 53.7117 116.024C60.8271 108.687 69.7214 99.3495 67.3952 88.2778C66.4373 83.609 63.1533 79.0736 58.2272 77.6063C53.438 76.2724 48.2383 78.4067 46.0489 82.6753C45.7752 83.4756 44.6806 82.8086 45.0911 82.1417Z" fill="#8F2E56"/>
<path d="M75.1565 32.7265C77.1593 35.5599 81.2983 35.1551 83.8352 33.1313C86.6391 30.8376 87.3066 27.0598 87.5737 23.6867C87.9742 18.4247 87.3066 13.1628 89.8435 8.30557C90.244 7.63096 91.3122 8.17065 90.9116 8.98018C87.0396 16.4009 91.3122 26.3852 85.7044 32.9964C82.767 36.5043 76.8922 37.3139 74.0884 33.4011C73.6878 32.7265 74.756 32.0519 75.1565 32.7265Z" fill="#8F2E56"/>
<path d="M94.7816 9.08513C95.4447 9.72825 96.1079 10.2428 96.7711 10.8859C97.3237 11.2717 96.7711 12.3007 96.2184 11.9149C95.5553 11.2717 94.8921 10.7572 94.2289 10.1141C93.6763 9.72825 94.2289 8.69925 94.7816 9.08513Z" fill="#1C3557"/>
<path d="M90.3133 5.06247C90.938 4.43777 91.4378 3.93801 92.0625 3.31331C93.062 2.31379 94.6862 3.93801 93.6867 4.93753C93.062 5.56223 92.5622 6.06199 91.9375 6.68669C90.938 7.68621 89.3138 6.06199 90.3133 5.06247Z" fill="#1C3557"/>
<path d="M115 1.29799C115.118 2.19419 115.588 3.09039 116.176 3.73053C117.706 5.3949 119.588 5.26688 121 4.24265C120.765 3.21842 120.412 2.19419 120.059 1.04193C119.471 -0.62244 117.941 -0.110326 115 1.29799Z" fill="#1C3557"/>
<path d="M81 117.73C82.3389 101.689 83.5561 85.6479 84.8951 69.6066C85.0168 68.7978 86.1123 68.7978 85.9906 69.6066C84.6516 85.7827 83.3127 101.824 82.0955 118C81.7303 117.865 81.3652 117.73 81 117.73Z" fill="#8F2E56"/>
<path d="M103.084 15.5238C107.259 19.1597 113.653 18.5105 117.045 14.2253C117.567 13.576 118.35 14.485 117.828 15.0044C114.044 19.809 106.737 20.3284 102.171 16.3029C101.649 15.9134 102.431 15.0044 103.084 15.5238Z" fill="#1C3557"/>
<path d="M55.75 116.034C60.0187 117.326 64.2873 118.617 68.556 119.909C69.3563 120.144 68.9561 121.201 68.2892 120.966C64.0205 119.674 59.7519 118.383 55.4833 117.091C54.6829 116.856 54.9497 115.799 55.75 116.034Z" fill="#8F2E56"/>
<path d="M71.2273 71.6031C71.7727 88.4897 72.4545 105.376 73 122.397C73 123.201 71.7727 123.201 71.7727 122.397C71.2273 105.51 70.5455 88.6237 70 71.6031C70 70.799 71.2273 70.799 71.2273 71.6031Z" fill="#8F2E56"/>
<path d="M80.7243 117.009C83.8503 117.467 85.6172 120.1 84.8017 122.619C84.5299 123.306 83.4426 122.962 83.5785 122.39C84.2581 120.329 82.8989 118.497 80.4524 118.039C79.6369 117.925 80.0447 116.894 80.7243 117.009Z" fill="#8F2E56"/>
<path d="M83.1747 70.9912C86.4858 68.0503 89.6645 65.1094 92.9756 62.1686C93.5054 61.6084 94.4325 62.5887 93.7702 63.0088C90.4591 65.9497 87.2805 68.8906 83.9694 71.8314C83.4396 72.3916 82.6449 71.4113 83.1747 70.9912Z" fill="#8F2E56"/>
</svg>
