<svg width="47" height="64" viewBox="0 0 47 64" fill="none" xmlns="http://www.w3.org/2000/svg">
<path d="M5.06149 66.0147C4.2191 42.6484 -3.36234 24.3218 1.76853 12.1804C6.82283 0.0390911 5.67413 23.7873 8.04812 30.8888C8.04812 30.8888 4.67858 3.16988 9.50314 1.64267C14.3277 0.115452 12.1835 18.6711 14.098 24.0164C14.098 24.0164 12.26 0.802698 17.008 0.0390909C21.756 -0.724516 18.3099 9.81326 21.1433 21.6492C21.1433 21.6492 20.2244 1.71903 33.7025 4.08621C47.2572 6.52975 45.2661 12.8677 38.2973 11.2641C31.4051 9.66054 27.4995 12.715 28.4185 19.7402C29.3374 26.7653 35.9233 30.0489 38.7568 22.4891C41.5903 14.9294 39.8289 11.1114 42.6624 9.7369C46.568 7.82788 46.2617 11.875 46.9509 18.9002C47.6401 25.9254 40.9011 31.0415 37.6081 42.2666C34.3151 53.5679 34.7746 69.451 34.7746 69.451C34.7746 69.451 13.1024 74.6435 5.06149 66.0147Z" fill="#F06057"/>
<path d="M29.2435 32.1021C23.4555 36.3062 20.3548 43.4532 21.1128 50.6702C21.1817 51.2308 22.0775 51.0206 22.0086 50.46C21.2506 43.5933 24.3513 36.7967 29.8637 32.8027C30.2771 32.3823 29.6569 31.7517 29.2435 32.1021Z" fill="#2D264F"/>
<path d="M13.9865 41.5079C13.5326 38.8262 11.9763 36.4637 9.64192 35.0589C9.18801 34.8035 8.73411 35.442 9.18801 35.7613C11.3927 37.1022 12.7544 39.2093 13.2083 41.6995C13.2732 42.2103 14.1161 42.0188 13.9865 41.5079Z" fill="#788BF1"/>
<path d="M14.6492 23.1449C14.5995 22.9672 13.953 22.945 14.0027 23.1227C14.1022 23.7002 14.2016 24.2776 14.3508 24.8551C14.4005 25.0328 15.047 25.055 14.9973 24.8773C14.8481 24.3221 14.7486 23.7446 14.6492 23.1449Z" fill="#2D264F"/>
<path d="M21.0799 18.1344C21.0571 17.9696 20.7602 17.949 20.7831 18.1138C20.8287 18.6909 20.8744 19.2885 20.9201 19.8656C20.9429 20.0304 21.2397 20.051 21.2169 19.8862C21.1484 19.3091 21.1027 18.7321 21.0799 18.1344Z" fill="#2D264F"/>
<path d="M42.2581 10.2032C42.2012 10.4064 41.8034 10.5757 41.4624 10.5418C41.0077 10.4741 40.7804 10.9143 41.2919 10.982C42.1444 11.0836 42.9401 10.745 42.9969 10.2032C43.0537 9.93227 42.3149 9.93227 42.2581 10.2032Z" fill="#788BF1"/>
</svg>
