<svg width="148" height="150" viewBox="0 0 148 150" fill="none" xmlns="http://www.w3.org/2000/svg">
<path d="M4.07961 44.5099C28.2097 29.3309 62.5809 3.89248 80.8415 4.54534C99.1021 5.19821 60.9505 19.7244 61.6026 29.3541C62.4178 39.147 109.7 15.8072 120.95 22.3358C132.199 28.7012 78.885 38.1677 79.048 42.4113C79.2111 46.6549 125.678 25.9265 128.123 35.7194C130.569 45.5124 84.1023 47.6342 85.0806 57.1006C85.5697 61.0178 123.884 41.5952 127.308 48.1238C131.547 56.2846 85.7327 64.6085 87.2001 69.0154C88.8305 73.9118 116.221 58.2432 117.689 65.4246C119.156 72.6061 32.3692 86.5868 5.95656 88.3821C5.95656 88.4741 4.60829 87.62 2.00002 74.3566C1.52588e-05 64.1864 2.00002 52.814 4.07961 44.5099Z" fill="#86A7BA"/>
<path d="M84.6643 40.8974C88.4409 28.1352 73.827 26.499 70.0504 34.5163C70.0504 34.5163 65.4527 22.7358 54.7797 29.7713C44.1066 36.6433 53.1377 48.4238 53.1377 48.4238L84.6643 40.8974Z" fill="#E7F5F5"/>
<path d="M107.426 51.0417C122.604 38.7703 133.6 45.6423 133.136 56.4411C132.671 67.0762 117.958 68.2216 117.958 68.2216C117.958 68.2216 137.163 76.2388 125.547 89.9827C113.931 103.89 94.8816 83.1108 94.8816 83.1108C94.8816 83.1108 90.8548 110.762 77.2258 102.745C63.5968 94.7277 66.0748 87.3648 66.0748 87.3648C66.0748 87.3648 62.5126 106.999 48.8836 98C35.2546 89.001 46.8702 78.3659 46.8702 78.3659C46.8702 78.3659 39.2813 75.0935 41.2947 66.5854C42.9984 59.2226 52.9104 62.3313 52.9104 62.3313L107.426 51.0417Z" fill="#E7F5F5"/>
<path d="M83.5149 35.498C47.719 39.2612 45.9128 41.061 50.0179 60.8587C50.3463 62.3313 50.6747 63.8039 51.0031 65.2764C56.0933 89.1646 56.7501 88.1829 100.099 83.438C119.475 81.311 124.401 80.1657 123.087 64.4583C122.923 62.4949 122.595 60.2043 122.266 57.5864C119.146 35.3344 121.774 31.5711 83.5149 35.498Z" fill="#FDDFA6"/>
<path d="M84.9927 47.9329C58.7205 50.7144 50.8389 52.3506 50.0179 60.8587C50.3463 62.3313 50.6747 63.8039 51.0031 65.2764C56.0933 89.1646 56.7501 88.1829 100.099 83.438C119.475 81.311 124.401 80.1656 123.087 64.4583C120.788 47.1148 119.803 44.3333 84.9927 47.9329Z" fill="#FCBB41"/>
<path d="M94.6805 65.44C95.1731 66.0945 96.3225 65.7673 96.4867 64.9492C98.7855 56.4411 105.189 49.8963 113.399 47.2785C120.953 49.0783 121.774 54.314 123.087 64.4583C124.401 80.1657 119.311 81.311 100.099 83.438C84.6643 85.0742 74.648 86.3831 67.9158 86.2195C73.006 69.5305 83.1864 52.3506 94.6805 65.44Z" fill="#F06057"/>
<path fill-rule="evenodd" clip-rule="evenodd" d="M87.4556 80.4929C86.3062 80.6565 85.1568 80.8201 84.1716 80.8201C77.4394 80.8201 72.5134 77.0569 71.0355 70.8394C70.8713 69.6941 70.8713 68.7124 71.0355 67.5671V67.5671C71.0355 67.0762 71.0355 66.749 71.1997 66.4218C71.6924 64.622 72.6776 62.8222 74.1554 61.186L75.1406 60.2043C77.6036 57.9136 80.7234 56.4411 84.0074 55.9502C90.7397 54.8049 96.4867 58.0772 98.4571 63.9675C98.6213 64.2947 98.7855 64.622 98.7855 64.9492C98.7855 65.1128 98.8266 65.2764 98.8676 65.44C98.9087 65.6037 98.9497 65.7673 98.9497 65.9309C99.2781 67.5671 99.1139 69.0396 98.7855 70.6758C98.7034 70.8394 98.6624 71.0031 98.6213 71.1667C98.5803 71.3303 98.5392 71.4939 98.4571 71.6575C96.8151 76.2388 92.7101 79.6748 87.4556 80.4929ZM96.6509 70.185C96.9793 68.876 96.9793 67.5671 96.8151 66.2581V65.2764C96.8151 65.1128 96.8151 64.7856 96.6509 64.4583C95.0089 59.7134 90.0829 57.0955 84.5 57.9136C81.5444 58.4045 78.9172 59.7134 76.7826 61.6768C76.6662 61.7928 76.5499 61.8881 76.4409 61.9775C76.2421 62.1405 76.0676 62.2836 75.9616 62.4949C74.8122 63.8039 73.827 65.2764 73.4986 66.749C73.4986 66.9126 73.4575 67.0353 73.4165 67.158C73.3754 67.2807 73.3344 67.4035 73.3344 67.5671C73.1702 68.5488 73.1702 69.3669 73.3344 70.185C74.648 76.5661 79.7382 79.6748 87.1272 78.5295C91.5607 77.875 95.1731 74.9299 96.4867 71.0031C96.4867 70.8394 96.5278 70.7167 96.5688 70.594C96.6099 70.4713 96.6509 70.3486 96.6509 70.185Z" fill="#FFF9EF"/>
<path d="M61.6761 56.2774C62.9897 55.9502 63.4823 57.9136 62.1687 58.4045C56.7501 60.0407 54.7797 65.7673 57.5711 70.5122C58.2279 71.6575 56.4217 72.8029 55.7649 71.6575C52.1524 65.6037 54.9439 58.2409 61.6761 56.2774Z" fill="white"/>
<path d="M58.0637 30.753C61.5119 29.4441 65.4528 31.2439 66.7664 34.6799C67.259 35.9888 65.2886 36.4797 64.6317 35.1707C63.6465 32.8801 60.8551 31.8984 58.5563 32.7165C57.4069 33.3709 56.7501 31.2439 58.0637 30.753Z" fill="white"/>
<path d="M48.3758 80.6565C49.361 79.8384 51.003 81.311 49.8536 82.1291C46.2412 85.2378 46.5696 90.4736 50.8388 92.7642C51.9882 93.4187 51.003 95.2185 49.6894 94.564C44.435 91.6189 43.614 84.5833 48.3758 80.6565Z" fill="white"/>
<path d="M46.7338 64.7856C48.0474 64.4583 48.54 66.4218 47.2264 66.9126C46.2412 67.2398 45.7486 68.0579 45.9128 69.0396C46.077 70.3486 43.9424 70.3486 43.7782 69.0396C43.614 67.0762 44.9276 65.2764 46.7338 64.7856Z" fill="white"/>
<path d="M50.0178 139.379C57.2329 111.617 64.1638 69.2156 78.102 57.1308C92.0403 45.046 73.8386 81.7904 81.0537 88.486C88.2688 95.1817 107.126 45.6992 119.753 42.7596C132.379 39.8201 99.7474 83.0969 102.863 86.0364C105.979 88.976 125.82 42.1064 134.347 47.4956C142.874 52.8848 110.734 85.7098 117.457 92.5688C119.261 94.5285 135.167 54.6812 142.218 56.9675C150.909 59.907 123.032 97.468 127.132 99.7543C131.723 102.204 141.07 71.9919 147.137 76.2379C153.205 80.4839 113.394 129.619 96.923 148C96.759 148.163 61.3476 148.65 50.0178 139.379Z" fill="#8DAEC2"/>
<path d="M98.1076 92.2421C98.7635 91.2623 99.0915 90.2824 99.2555 89.1393C99.4194 87.8328 101.551 87.8328 101.387 89.1393C101.223 90.6091 100.731 92.0788 99.9114 93.3853C99.0915 94.5285 97.2877 93.3853 98.1076 92.2421Z" fill="#6C95AD"/>
<path d="M109.914 98.2846C110.406 96.9781 110.734 95.8349 111.226 94.5285C111.718 93.222 113.686 93.8752 113.358 95.0184C112.866 96.3249 112.538 97.468 112.046 98.7745C111.554 100.244 109.422 99.591 109.914 98.2846Z" fill="#6C95AD"/>
<path d="M119.917 103.674C120.245 102.367 120.409 101.224 120.737 99.9176C121.065 98.6112 123.032 99.1011 122.868 100.408C122.541 101.714 122.377 102.857 122.049 104.164C121.557 105.633 119.589 104.98 119.917 103.674Z" fill="#6C95AD"/>
<path d="M86.2404 27.1036C89.7959 28.8186 93.5605 27.7728 95.1918 24.3847C96.8232 20.9965 95.5683 16.3953 92.0128 14.8058C87.5789 12.8398 84.2326 14.6803 82.6012 18.0684C80.9699 21.4148 82.7267 25.3886 86.2404 27.1036Z" fill="#E7F5F5"/>
<path d="M92.5984 16.3534C94.4808 18.2358 94.9409 21.0383 93.7697 23.3808C93.6023 23.6736 93.1422 23.4226 93.3095 23.088C94.3971 20.9547 93.937 18.4031 92.2638 16.6881C91.971 16.4789 92.3475 16.1025 92.5984 16.3534Z" fill="white"/>
<path d="M84.0234 16.939C84.6091 16.0606 85.4038 15.4332 86.3659 15.0149C86.7005 14.8894 86.826 15.3914 86.4914 15.5587C85.6548 15.8933 84.9437 16.4789 84.4417 17.2318C84.3163 17.5247 83.8143 17.2318 84.0234 16.939Z" fill="white"/>
<path d="M83.7306 22.1259C83.7306 23.2971 84.1907 24.3847 85.0691 25.2212C85.3201 25.4722 84.9437 25.8487 84.6927 25.5977C83.7306 24.6775 83.2287 23.4644 83.1868 22.1259C83.145 21.7912 83.6888 21.7912 83.7306 22.1259Z" fill="white"/>
<path d="M76.0464 9.42251C78.575 10.6461 81.3012 9.89617 82.4865 7.44897C83.6718 5.04124 82.7631 1.72568 80.1949 0.581025C77.0341 -0.839929 74.624 0.502083 73.4782 2.90981C72.2534 5.39648 73.4782 8.19892 76.0464 9.42251Z" fill="#E7F5F5"/>
<path d="M90.7623 7.49448C92.2443 8.21155 93.8219 7.78131 94.5389 6.34716C95.2082 4.91301 94.6823 3.00082 93.2004 2.33155C91.336 1.51887 89.9497 2.28375 89.2804 3.71789C88.5633 5.10423 89.2804 6.7774 90.7623 7.49448Z" fill="#E7F5F5"/>
<path d="M78.2571 8.44701C80.6949 8.57378 82.2947 5.82703 81.152 3.41833C80.9996 3.12253 81.4186 2.82672 81.5709 3.12253C82.866 5.91154 81.0758 9.12314 78.2571 8.99636C77.9143 8.95411 77.9143 8.40475 78.2571 8.44701Z" fill="white"/>
<path d="M92.3877 6.6818C93.4872 6.34717 94.1087 5.10424 93.6784 4.00473C93.535 3.62229 94.0609 3.33546 94.2043 3.67009C94.8257 5.10424 94.0609 6.77741 92.5789 7.25546C92.1487 7.39887 92.0053 6.77741 92.3877 6.6818Z" fill="white"/>
</svg>
