<svg width="54" height="69" viewBox="0 0 54 69" fill="none" xmlns="http://www.w3.org/2000/svg">
<path d="M24.5719 40.2757L24.0176 77.4106C23.8329 89.6041 42.6774 91.2669 42.8622 79.2581C43.0469 66.8798 43.2317 54.5015 43.4164 42.1232C43.6012 29.9296 24.7566 28.0821 24.5719 40.2757Z" fill="#A9CDFF"/>
<path d="M27.7126 33.6246C29.1906 43.6012 32.5161 53.2082 39.3519 60.2287C40.4604 60.9677 41.7537 61.7067 43.0469 62.261C43.2317 55.4252 43.2317 48.7742 43.4164 41.9384C43.6012 32.8856 33.0704 29.5601 27.7126 33.6246Z" fill="#7A86C1"/>
<path d="M43.7859 15.8886C50.6217 15.1496 49.1437 -3.32551 35.8416 1.10851C22.7243 5.72728 43.7859 15.8886 43.7859 15.8886Z" fill="#FCBB41"/>
<path d="M30.6686 2.03225C10.3461 3.32551 8.12906 9.97653 13.8563 32.1466C19.9531 55.61 53.2082 55.2405 51.7302 46.1877C48.22 23.0938 47.6657 0.923747 30.6686 2.03225Z" fill="#A9CDFF"/>
<path d="M30.6686 2.03225C35.8416 1.66275 39.5367 3.51026 42.1232 6.83577C39.7214 7.20527 38.2434 7.39002 37.1349 7.39002C38.4282 12.3783 36.7654 17.9208 32.3314 20.8768C31.2229 21.6158 29.9296 22.1701 28.6364 22.5396C29.0059 33.4399 26.7889 46.1877 21.2463 44.5249C17.9208 41.5689 15.1496 37.5044 13.6716 32.1466C8.12904 10.1613 10.346 3.32551 30.6686 2.03225Z" fill="#FCBB41"/>
<path d="M53.1813 29.1906C50.9119 25.8651 48.6425 22.7243 46.3731 19.3988C45.8058 18.4751 44.6711 19.7683 45.3802 20.6921C47.5078 23.6481 49.6354 26.6041 51.6211 29.5601C50.4864 30.4839 49.3517 31.5924 48.217 32.8856C47.5078 33.6246 48.5007 35.1026 49.2099 34.1789C50.3446 32.7009 51.6211 31.5924 53.0395 30.4839C53.3231 30.2991 53.465 29.5601 53.1813 29.1906Z" fill="#2D264F"/>
<path d="M43.2317 19.7683C43.786 21.0616 44.3402 22.3548 45.0792 23.6481C45.6335 24.7566 43.786 25.4956 43.4165 24.3871C42.8622 23.0938 42.3079 21.8006 41.5689 20.5073C41.0147 19.3988 42.6774 18.6598 43.2317 19.7683Z" fill="#2D264F"/>
<path d="M38.9824 17.3666C39.9061 16.4428 40.8299 15.7038 41.7537 14.7801C42.6774 14.0411 43.7859 15.3343 42.8622 16.2581C41.9384 17.1818 41.0146 17.9208 40.0909 18.8446C39.1671 19.5836 38.0586 18.1056 38.9824 17.3666Z" fill="#2D264F"/>
<path d="M43.4164 38.2434C43.7859 39.3519 44.7097 40.0909 46.0029 40.0909C47.1114 40.0909 46.9267 41.9384 45.8182 41.9384C43.9707 41.9384 42.3079 40.8299 41.7537 38.9824C41.3842 37.8739 43.0469 37.1349 43.4164 38.2434Z" fill="#2D264F"/>
<path d="M12.1935 10.1613C11.2698 32.3314 1.8475 29.7449 0.554247 42.6774C0.554247 42.6774 10.1613 41.9384 14.7801 47.6657C19.3988 53.5777 23.8328 55.9795 31.5924 53.7625C31.5924 53.7625 28.4516 36.3959 30.8534 32.7009C33.4399 28.8211 30.6686 8.49854 30.6686 8.49854L12.1935 10.1613Z" fill="#FCBB41"/>
<path d="M33.6246 20.5073C21.9853 19.0293 16.997 35.2874 36.5806 37.1349L33.6246 20.5073Z" fill="#A9CDFF"/>
<path d="M29.0059 25.6804C27.8974 25.6804 27.8974 27.5279 29.0059 27.5279C30.6686 27.5279 32.1466 28.8211 32.8856 30.2991C33.2551 31.4076 35.1027 30.8534 34.7332 29.7449C33.6246 27.5279 31.4076 25.8651 29.0059 25.6804Z" fill="#7A86C1"/>
</svg>
