<svg width="123" height="149" viewBox="0 0 123 149" fill="none" xmlns="http://www.w3.org/2000/svg">
<path fill-rule="evenodd" clip-rule="evenodd" d="M32.6967 88.2641L30.9927 164.909C30.5227 189.997 69.4071 194.362 69.8198 168.835C70.2239 143.31 71.0676 117.723 71.476 92.1972C72.0554 67.5409 33.1667 63.1764 32.6967 88.2641" fill="#ACCAE9"/>
<path fill-rule="evenodd" clip-rule="evenodd" d="M39.2466 74.8337C42.1408 95.4272 48.5181 115.531 63.0263 130.024C65.4495 131.471 67.9343 133.356 70.7356 134.303C71.0036 120.414 71.2715 106.525 71.9132 92.1366C71.6089 73.86 50.1216 66.6031 39.2466 74.8337" fill="#A0BBD7"/>
<path fill-rule="evenodd" clip-rule="evenodd" d="M45.6597 9.59151C3.71901 11.9114 -1.02586 25.5358 10.3523 71.7459C22.5353 120.524 91.0074 120.284 88.3595 101.443C81.6473 53.6834 80.9646 7.75743 45.6597 9.59151" fill="#ACCAE9"/>
<path fill-rule="evenodd" clip-rule="evenodd" d="M27.8817 99.5608C43.3396 104.984 44.8752 51.7023 38.8718 31.099C38.1285 28.9694 39.9975 26.4726 41.6774 25.7897C57.3373 20.0143 53.6652 22.3177 69.7562 19.6094C64.3556 12.7726 56.6686 8.93794 46.092 9.53075C4.1557 11.85 -1.70874 25.2114 10.3523 71.7459C12.7669 82.5769 18.7816 92.0001 25.8622 98.1541L27.8817 99.5608Z" fill="#8F2E56"/>
<path fill-rule="evenodd" clip-rule="evenodd" d="M70.8458 40.0079C70.9031 43.5744 71.4573 47.5179 71.5145 51.0843C71.884 53.7133 75.433 53.6613 75.4945 50.9718C75.4373 47.4053 74.883 43.4619 74.8258 39.8954C74.5179 37.7046 70.9776 37.7553 70.8458 40.0079" fill="#2D264F"/>
<path fill-rule="evenodd" clip-rule="evenodd" d="M73.9135 27.0669C71.7366 27.3729 70.0566 28.0558 68.4339 29.1775C66.4418 30.7979 69.4895 33.4973 71.0419 31.9386C71.8511 31.3781 72.6646 30.8169 73.9664 30.634C76.2048 30.7662 76.0904 26.761 73.9135 27.0669" fill="#8F2E56"/>
<path fill-rule="evenodd" clip-rule="evenodd" d="M94.7265 70.6101C90.0299 62.7807 85.8123 54.884 81.1592 47.0484C79.9806 44.98 76.6823 46.784 77.861 48.8524C82.017 56.311 86.1115 63.3314 90.2676 70.7899C86.9077 72.1558 83.1125 73.5828 79.8758 75.8249C77.8221 77.0072 79.6208 80.3289 81.6746 79.1467C85.3466 76.8433 89.0803 74.9781 93.4161 73.922C94.6606 73.3002 95.3466 71.8634 94.7265 70.6101" fill="#2D264F"/>
<path fill-rule="evenodd" clip-rule="evenodd" d="M52.4523 45.2744C28.4056 41.9517 17.9929 75.5857 58.1834 79.7672L52.4523 45.2744Z" fill="#ACCAE9"/>
<path fill-rule="evenodd" clip-rule="evenodd" d="M42.8144 56.0124C40.576 55.8802 40.2022 59.5073 42.9333 60.0171C46.5395 60.4039 49.5691 62.659 50.9325 66.0419C51.6714 68.1721 55.5326 67.1826 54.785 65.0536C52.6783 59.5411 48.2057 56.1484 42.8144 56.0124" fill="#879EB6"/>
<path fill-rule="evenodd" clip-rule="evenodd" d="M83.5163 51.1866C102.704 57.8732 107.48 69.7127 106.772 83.6634C106.069 97.6135 90.8313 112.713 82.1237 113.936C73.3726 115.166 79.787 49.9235 83.5163 51.1866" fill="#E4E7F4"/>
<path fill-rule="evenodd" clip-rule="evenodd" d="M42.0233 44.0587C59.038 47.9229 74.7465 55.0983 88.5954 65.216C90.5876 66.7232 88.402 70.1581 86.4185 68.6496C72.5609 58.5332 57.2921 51.296 40.7788 47.8082C38.4787 47.2378 39.2879 43.5495 42.0233 44.0587" fill="#E4E7F4"/>
<path fill-rule="evenodd" clip-rule="evenodd" d="M84.2012 97.1123C86.5629 98.1209 84.3817 101.555 82.02 100.547C67.1866 93.2482 54.9351 85.6665 40.0974 78.3688C39.2555 76.8425 39.0847 75.568 40.0068 74.3614C40.0068 74.3614 69.3634 89.8145 84.2012 97.1123Z" fill="#E4E7F4"/>
<path fill-rule="evenodd" clip-rule="evenodd" d="M46.9321 9.63553C19.7633 18.8156 69.3187 19.6709 69.3187 19.6709C77.9075 14.2134 63.0347 8.26911 46.9321 9.63553Z" fill="#8F2E56"/>
<path fill-rule="evenodd" clip-rule="evenodd" d="M101.224 94.719C108.752 88.2992 105.537 78.0275 102.626 69.9472C101.883 67.8176 105.735 66.8293 106.483 68.9583C109.575 78.3537 112.548 89.9998 103.831 97.4802C101.839 99.1007 99.2314 96.3395 101.224 94.719" fill="#E4E7F4"/>
</svg>
