<svg width="105" height="149" viewBox="0 0 105 149" fill="none" xmlns="http://www.w3.org/2000/svg">
<path d="M38.9978 86.9571L23.3182 151.053C18.2223 172.007 58.9892 180.943 64.0851 159.989C69.1809 138.727 74.6688 117.156 79.7646 95.8935C85.2525 74.631 44.4856 65.6946 38.9978 86.9571Z" fill="#F96A61"/>
<path d="M45.6138 76.7364C44.8298 98.8837 48.3577 121.42 60.9014 139.293C63.2533 141.624 64.9332 143.624 67.6772 145.179C71.5894 131.257 74.229 115.591 76.9729 100.826C80.5008 81.7875 58.9414 70.5196 45.6138 76.7364Z" fill="#EA6057"/>
<path d="M95.0044 68.9654C95.0044 82.9532 93.8284 98.1066 93.8284 113.649C93.4364 124.916 71.0931 126.471 50.3177 116.368C42.0859 112.483 33.8541 106.266 27.5823 98.4951C21.3105 90.7241 22.0945 82.9532 21.3105 70.9081C17.3906 20.3968 19.3505 4.07772 64.8213 9.12886C90.6925 12.2372 95.0044 36.7158 95.0044 68.9654Z" fill="#F96A61"/>
<path d="M24.1987 99.6038C26.7425 105.29 33.806 106.845 34.9364 106.745C35.1017 106.731 34.6364 104.859 34.5401 100.752C34.1629 84.6595 32.5437 43.3032 30.9595 31.149C30.5618 28.802 32.9479 26.4549 34.9364 26.0638C52.8324 22.5432 70.7285 23.3256 88.6245 23.7167C83.8522 15.5022 76.6938 10.0258 64.7631 8.4611C18.6311 3.37588 11.075 17.458 15.0519 67.919C16.2449 80.0453 17.8357 91.7804 24.1987 99.6038Z" fill="#1C3557"/>
<path d="M58.9414 45.6525C58.9414 49.1494 58.9414 52.6463 58.9414 56.1433C58.9414 58.086 62.0773 58.4746 62.0773 56.5318C62.0773 53.0349 62.0773 49.538 62.0773 46.041C62.0773 43.7097 58.5494 43.3212 58.9414 45.6525Z" fill="#1C3557"/>
<path d="M87.5566 47.2067C87.5566 50.7036 87.5566 54.2005 87.5566 57.6975C87.5566 59.6402 90.6925 60.0288 90.6925 58.086C90.6925 54.5891 90.6925 51.0922 90.6925 47.5952C91.0845 45.2639 87.5566 44.8754 87.5566 47.2067Z" fill="#1C3557"/>
<path d="M85.5967 39.8242C87.1646 40.9899 89.1246 38.6586 87.5566 37.4929C83.6367 33.996 78.9328 36.7158 77.7569 41.767C76.9729 46.4296 78.9328 51.8693 80.1088 56.5318L84.8127 79.0677C85.2047 81.0104 88.3406 80.2333 87.5566 78.2906C86.3806 72.4624 85.2047 66.2456 83.6367 60.4173C82.8527 57.3089 82.4607 54.5891 81.6768 51.4807C81.2848 50.3151 81.2848 49.538 80.8928 48.3723C79.7168 44.4868 81.2848 38.6586 85.5967 39.8242Z" fill="#8F2E56"/>
<path d="M69.5251 70.131C60.1174 69.7425 53.4536 66.6341 47.1818 59.6402C46.3978 60.0287 45.2218 60.4173 44.4378 61.1944C44.0458 61.1944 43.2619 88.3928 43.6539 101.992C39.734 95.3867 36.2061 88.0043 32.6782 81.7875C31.5022 79.8447 27.9743 79.0676 28.7583 81.0104C34.6381 91.5012 41.3019 107.043 49.9257 116.368C70.7011 126.471 93.8284 124.916 93.8284 113.649C94.2204 98.1066 95.0044 82.9531 95.0044 68.9654C86.7726 70.131 78.1489 70.5196 69.5251 70.131Z" fill="#A9D9DB"/>
<path d="M20.8189 94.3809C30.3916 73.5673 21.2876 50.1964 18.3422 25.7313C17.974 23.5404 20.1831 20.6192 22.3922 20.254C41.1694 16.6025 59.9467 17.3328 78.7239 17.6979C77.2512 7.47372 66.2058 3.09191 53.6876 1.63131C5.45584 -3.84596 -2.64415 11.1252 1.77402 64.4373C3.24675 77.5827 13.8235 85.9824 20.8189 94.3809Z" fill="#1C3557"/>
<path d="M36.2061 46.8181C11.1188 39.4357 -6.12872 72.4623 36.2061 84.5074V46.8181Z" fill="#F96A61"/>
<path d="M35.0301 66.2456C31.5022 62.3601 27.1903 58.8631 22.8784 56.1433C20.9185 54.9776 19.3505 57.6975 21.3105 58.8631C25.6224 61.583 29.5423 64.6914 32.6782 68.1883C33.8541 70.131 36.2061 67.7998 35.0301 66.2456Z" fill="#D75249"/>
<path d="M33.0702 72.4624C29.5423 72.0738 27.9743 68.1883 30.3263 65.4685C31.8942 63.9143 29.5423 61.583 27.9743 63.1372C23.6624 67.7998 26.7984 75.1822 33.0702 75.5707C35.0301 75.9593 35.0301 72.4624 33.0702 72.4624Z" fill="#D75249"/>
<path d="M51.1016 67.7998C49.1417 62.3601 46.7898 57.309 43.2619 52.6464C40.5179 48.7609 36.99 44.4868 31.8942 43.3212C29.9342 42.9326 29.1503 46.041 31.1102 46.4296C35.8141 47.5952 39.734 53.0349 42.0859 56.9204C44.4378 60.4173 46.3978 64.6914 47.9657 68.5769C48.3577 70.5196 51.4936 69.7425 51.1016 67.7998Z" fill="#A9D9DB"/>
<path d="M58.5494 16.1228C57.7655 15.3457 56.1975 15.3457 55.8055 16.5113C55.4135 15.3457 53.4536 15.3457 52.6696 16.5113C47.9657 28.1678 30.3262 11.0716 26.7983 40.2128C26.7983 41.767 25.6224 42.9326 27.1903 43.3212C35.8141 44.8754 42.8699 40.6014 48.7497 34.7731C53.4536 30.4991 58.5494 25.0594 58.5494 18.4541C58.5494 18.0655 58.9414 18.0655 58.9414 17.677C59.7254 17.2884 58.9414 16.5113 58.5494 16.1228Z" fill="#1C3557"/>
<path d="M28.5628 81.5706C38.9708 98.6089 34.9364 106.75 34.9364 106.75L28.5628 81.5706Z" fill="#1C3557"/>
<path d="M65.6052 33.2189C63.2533 33.6074 60.9013 33.6074 58.5494 33.996C56.1975 34.3845 56.1975 37.8815 58.5494 37.4929C60.9013 37.1044 63.2533 37.1044 65.6052 36.7158C67.9571 36.7158 67.9571 33.2189 65.6052 33.2189Z" fill="#1C3557"/>
<path d="M101.671 21.6792C94.6844 3.40754 75.5892 1.86854 54.7239 4.80345L55.8417 9.57268L56.7855 23.7256C56.7855 23.7256 116.542 60.5742 101.671 21.6792Z" fill="#1C3557"/>
<path d="M47.9902 10.4681C47.6233 9.34331 45.7889 9.34331 45.0551 10.0931C44.6883 8.96839 17.906 10.843 17.1722 11.9677C10.2015 23.5902 22.6754 25.8397 10.9353 30.3388C9.46776 31.0886 16.0716 41.5863 17.5391 42.3362C26.3443 46.0854 31.8475 41.2114 35.1494 28.8391C36.9838 22.0906 47.2564 20.216 48.3571 13.0925C48.3571 12.7176 48.7239 12.7176 48.7239 12.3427C48.7239 11.9677 48.7239 11.2179 47.9902 10.4681Z" fill="#1C3557"/>
</svg>
