<svg width="136" height="146" viewBox="0 0 136 146" fill="none" xmlns="http://www.w3.org/2000/svg">
<path d="M103.55 13.727C100.546 0.959101 86.0252 0.208052 72.0056 2.21085L72.7567 5.4654L87.5273 25.2431C87.5273 25.2431 108.306 34.506 103.55 13.727Z" fill="#2D264F"/>
<path d="M71.2545 119.417C74.5091 103.144 77.5133 86.6211 80.7678 70.3484C84.5231 51.0714 54.9818 42.8099 51.2265 62.3372L40.9622 115.912C50.9762 116.913 61.2405 118.416 71.2545 119.417Z" fill="#FCBB41"/>
<path d="M58.2363 52.3232C57.7356 66.5931 59.7384 80.8631 66.2475 92.8799C68.2503 96.6351 71.2545 99.8897 74.5091 102.143V102.143C76.5119 91.3778 78.5147 80.6127 80.7678 69.8477C83.5217 55.8281 67.7496 47.5665 58.2363 52.3232Z" fill="#D29E3B"/>
<path d="M93.786 46.5651C93.786 56.5791 93.035 67.8449 92.7846 79.1106C92.5343 87.3722 76.2615 88.3736 61.2405 81.1134C55.2321 78.1092 49.2237 73.8533 44.7174 68.0952C40.2111 62.3372 38.2083 54.5763 37.4573 45.8141C34.4531 9.0126 38.709 -0.751044 71.5049 3.00421C90.7818 5.25736 94.0364 23.0322 93.786 46.5651Z" fill="#FCBB41"/>
<path d="M44.8173 68.3002C51.3264 54.0302 49.4741 34.2556 47.4713 17.4822C47.2209 15.9801 48.723 13.9773 50.2251 13.7269C53.9714 12.9924 55.0366 15.6636 59.509 17.4695C67.9003 20.8577 87.4479 20.7713 96.4696 20.9482C96.4696 4.1329 80.0168 1.96047 71.5049 0.959068C38.709 -2.79618 33.2013 7.46817 36.2055 44.0193C37.2069 53.0319 40.0607 62.5421 44.8173 68.3002Z" fill="#2D264F"/>
<path d="M67.7496 29.5413C67.7496 32.0448 67.7496 34.7986 67.7496 37.3021C67.7496 38.8042 70.0028 39.0546 70.0028 37.5525C70.0028 35.049 70.0028 32.2951 70.0028 29.7916C70.0028 28.2895 67.7496 28.0392 67.7496 29.5413Z" fill="#2D264F"/>
<path d="M88.779 30.7931C88.779 33.2966 88.779 36.0504 88.779 38.5539C88.779 40.056 91.0322 40.3064 91.0322 38.8043C91.0322 36.3008 91.0322 33.5469 91.0322 31.0434C91.0322 29.5413 88.779 29.291 88.779 30.7931Z" fill="#2D264F"/>
<path d="M51.2265 30.5427C33.2013 25.035 20.6838 49.319 51.2265 58.0812V30.5427Z" fill="#FCBB41"/>
<path d="M69.5021 22.2812C68.2504 22.5315 66.9986 22.7819 65.9972 23.2826C64.4951 23.5329 64.9958 26.0364 66.4979 25.5357C67.7497 25.2854 69.0014 25.035 70.0028 24.5343C71.5049 24.284 71.0042 22.0308 69.5021 22.2812Z" fill="#2D264F"/>
<path d="M67.4993 8.76227C67.2489 8.01122 65.9972 8.01122 65.4965 8.51192C65.2461 7.76087 46.9706 9.01262 46.4699 9.76367C41.7132 17.5245 50.2251 19.0266 42.2139 22.0308C41.2125 22.5315 45.7188 29.5413 46.7202 30.042C52.7286 32.5455 56.4839 29.291 58.737 21.0294C59.9888 16.5231 66.9986 15.2714 67.7496 10.5147C67.7496 10.2644 68 10.2644 68 10.014C68 9.76367 68 9.26297 67.4993 8.76227Z" fill="#2D264F"/>
<path d="M87.6814 46.3087C86.8615 43.4672 85.8356 40.6401 85.0157 37.7986C84.5027 36.3851 81.2953 26.0494 84.6353 26.437C85.8861 26.5566 86.3601 24.4529 85.1094 24.3333C82.1959 24.1229 80.6916 26.2987 80.8933 29.1834C81.2679 34.5407 83.7607 40.5781 85.3716 45.849C83.3255 46.1991 81.0733 46.5637 79.0272 46.9138C77.8053 47.2063 77.9494 49.2668 79.1713 48.9743C81.6295 48.5954 84.2938 48.202 86.7376 47.617C87.3557 47.5738 87.9306 46.9124 87.6814 46.3087Z" fill="#2D264F"/>
<path d="M39.7104 38.5539C38.2083 39.0546 38.709 41.3078 40.4615 41.0574C44.9678 39.8057 49.4741 44.0616 48.9734 48.5679C48.7231 50.07 51.2266 50.07 51.4769 48.5679C51.9776 42.3092 45.4685 37.0518 39.7104 38.5539Z" fill="#CC993A"/>
<path d="M76.5119 70.5987C73.007 70.5987 70.5035 66.5931 71.7553 63.3386C72.256 61.8365 70.0028 61.0854 69.2518 62.5875C67.4993 67.5945 71.5049 73.1022 76.5119 73.1022C78.2644 73.1022 78.2644 70.5987 76.5119 70.5987Z" fill="#2D264F"/>
<path d="M133.59 147.833C112.878 104.423 121.362 102.997 67.4472 102.626C5.56534 102.256 -30.8774 93.666 38.821 198.801C55.0349 223.259 150.316 182.888 133.59 147.833Z" fill="#8F2E56"/>
<path d="M62.6301 116.151C71.1527 115.595 74.3335 109.373 74.5187 102.518C72.2954 102.518 69.9646 102.389 67.5561 102.389C58.8481 102.389 50.7175 101.945 43.4917 102.316C47.012 109.727 53.5516 116.707 62.6301 116.151Z" fill="#FCBB41"/>
</svg>
