<svg width="105" height="151" viewBox="0 0 105 151" fill="none" xmlns="http://www.w3.org/2000/svg">
<path d="M95.4927 80.1923C94.2141 63.2557 92.2962 51.1125 86.5425 35.4541C80.7889 19.7957 23.2522 32.8976 23.2522 32.8976C12.7038 53.9885 30.1523 58.8577 12.252 68.764C12.252 68.764 0.44473 115.285 12.252 112.195C12.8913 110.598 16.5982 105.165 20 108.286C23.1325 109.375 27.9626 112.846 31.2356 114.066C41.8408 118.017 55.2003 118.592 65.7654 114.066C89.739 103.201 91.448 116.541 99.79 107.035C106.312 99.6041 96.7713 97.1289 95.4927 80.1923Z" fill="#1C3557"/>
<path d="M43.3853 69.9435L35.1245 144.569C32.5828 168.806 69.7562 176.141 72.6157 151.585C75.4752 126.71 78.017 101.835 80.8764 76.9595C83.4182 52.7223 45.9271 45.3873 43.3853 69.9435Z" fill="#A9D9DB"/>
<path d="M73.7874 140.764C76.0422 119.391 78.619 98.3379 80.8737 76.9653C83.4506 52.7218 45.7642 45.3849 42.8653 69.9474L39 105.356C46.4084 119.71 60.259 135.979 73.7874 140.764Z" fill="#A1CED0"/>
<path d="M62.0395 118.619C46.2441 118.619 34.9618 120.855 28.1924 107.76C24.0018 100.094 21.4229 86.6796 20.4559 64.0025C20.1335 56.0176 19.8112 48.9909 20.1335 42.9224C20.1335 42.603 20.1335 42.2836 20.1335 41.9642V41.9642C21.1006 2.35917 33.9947 0.762194 71.0654 2.03978C83.3148 2.35917 87.5054 12.5798 88.4724 39.7285C88.4724 41.006 88.4724 42.2836 88.4724 43.8806C88.4724 48.3521 88.7948 52.8237 88.7948 57.934C89.4395 78.6947 88.4724 89.5542 87.183 103.608C83.9595 113.828 76.8677 118.619 62.0395 118.619Z" fill="#A9D9DB"/>
<path d="M22 44.6426C0.632494 38.5467 -14.3567 65.818 22 75.764V44.6426Z" fill="#A9D9DB"/>
<path d="M83 45.6426C104.368 39.5467 119.357 66.818 83 76.764V45.6426Z" fill="#A9D9DB"/>
<path d="M64.9165 34.1422C52.2495 29.6818 56.5563 66.0025 57.3163 73.3303C57.5697 75.2419 59.5964 75.2419 59.5964 73.3303C59.0897 68.2327 55.6559 32.1333 64.4098 36.691C66.4365 36.691 66.4365 34.7794 64.9165 34.1422Z" fill="#1C3557"/>
<path d="M81.8263 54.764C80.8614 55.7315 79.5748 56.699 78.2882 57.344C70.8903 60.8914 63.4924 55.0865 56.0944 57.344C48.0532 59.6014 42.2635 63.1489 34.2223 58.3115C33.2574 57.6665 32.2924 57.0215 31.6491 56.3765C27.4677 73.4687 27.4806 91.4982 28.7672 108.59C35.5218 121.813 46.7666 118.618 62.5274 118.618C76.68 118.618 83.7562 114.103 86.9727 105.073C87.2944 88.3034 84.7212 71.5337 81.8263 54.764Z" fill="#F1F7ED"/>
<path d="M40.6239 66.3302C34.0103 58.7783 27.7116 50.9117 21.7279 42.4157C20.7831 40.8424 18.2636 42.4157 19.2084 43.989C25.1922 52.485 31.8057 60.6662 38.4193 68.2182C39.6791 69.7915 41.8836 67.5889 40.6239 66.3302Z" fill="#F1F7ED"/>
<path d="M89.1902 42.4216C84.9732 48.4541 80.7561 54.4865 76.2147 60.519C75.2415 62.1065 77.8366 63.694 78.8098 62.1065C83.0268 56.074 87.2439 50.0416 91.7853 44.0091C92.7585 42.4216 90.1634 40.8341 89.1902 42.4216Z" fill="#F1F7ED"/>
<path d="M41.5 33.914H35.5C33.5 33.914 33.5 36.614 35.5 36.614H41.5C43.5 36.614 43.5 33.914 41.5 33.914Z" fill="#1C3557"/>
<path d="M71.0569 0.768819C34.4351 1.72427 15.965 -0.18663 20.7418 41.8531V41.8531C30.2953 49.1782 27.7477 23.3811 30.2953 17.9669C31.5691 15.419 33.7982 13.8266 36.6643 12.5527C36.9827 13.1897 37.6196 14.1451 38.575 14.7821C50.9945 22.4257 64.6879 26.2475 79.3366 26.2475C79.655 29.1138 79.9735 32.2986 80.6104 35.165C82.2026 41.2162 85.0687 43.764 88.5716 43.764C92.0746 16.056 90.1639 0.450336 71.0569 0.768819Z" fill="#1C3557"/>
<path d="M38 45.264V51.264C38 53.264 41 53.264 41 51.264V45.264C41 43.264 38 43.264 38 45.264Z" fill="#1C3557"/>
<path d="M69 45.264V51.264C69 53.264 72 53.264 72 51.264V45.264C72 43.264 69 43.264 69 45.264Z" fill="#1C3557"/>
<path fill-rule="evenodd" clip-rule="evenodd" d="M86.6904 52.0509C85.5788 57.6338 81.5065 62.2647 75.717 62.7536C69.269 63.0383 63.3472 57.4443 62.2056 50.7912C62.1701 50.6972 62.143 50.5956 62.1257 50.4864C62.0193 49.8155 61.9821 49.1454 62.0078 48.4814C62.008 48.4301 62.0104 48.3799 62.0147 48.331C62.3735 41.5681 69.221 35.487 75.717 35.7738C81.4539 36.2583 85.7076 40.8198 86.752 46.3334C86.8241 46.4967 86.8653 46.6895 86.8653 46.9126C86.9166 47.3116 86.9526 47.7105 86.9735 48.1085C87.0169 48.8182 87.0073 49.5376 86.9415 50.2606C86.8998 50.7648 86.8344 51.2643 86.746 51.7569C86.7374 51.8671 86.7184 51.9648 86.6904 52.0509ZM84.1796 46.889C83.3395 42.6327 80.0475 39.1951 75.3906 38.9438C69.8023 38.6423 64.9079 43.6093 64.9954 49.2647C65.5057 54.8658 69.8723 59.8814 75.3906 59.5836C81.266 59.2666 84.8565 52.9266 84.2037 47.2205C84.1837 47.104 84.1762 46.9934 84.1796 46.889Z" fill="#959595"/>
<path fill-rule="evenodd" clip-rule="evenodd" d="M28.3096 46.4772C29.4212 40.8943 33.4935 36.2634 39.283 35.7744C45.731 35.4898 51.6528 41.0838 52.7944 47.7369C52.8299 47.8309 52.857 47.9325 52.8743 48.0417C52.9807 48.7126 53.0179 49.3827 52.9922 50.0466C52.992 50.098 52.9896 50.1481 52.9853 50.1971C52.6265 56.96 45.779 63.041 39.283 62.7543C33.5461 62.2698 29.2924 57.7082 28.248 52.1947C28.1759 52.0314 28.1347 51.8386 28.1347 51.6154C28.0834 51.2165 28.0474 50.8175 28.0265 50.4196C27.9831 49.7099 27.9927 48.9905 28.0585 48.2675C28.1002 47.7632 28.1656 47.2637 28.254 46.7711C28.2626 46.661 28.2816 46.5632 28.3096 46.4772ZM30.8204 51.6391C31.6605 55.8954 34.9525 59.333 39.6094 59.5843C45.1977 59.8858 50.0921 54.9188 50.0046 49.2634C49.4943 43.6623 45.1277 38.6467 39.6094 38.9445C33.734 39.2615 30.1435 45.6015 30.7963 51.3075C30.8163 51.4241 30.8238 51.5346 30.8204 51.6391Z" fill="#959595"/>
<path d="M62.2378 50.764H53.5105C51.4965 50.764 51.4965 53.764 53.5105 53.764H62.2378C64.5874 53.764 64.5874 50.764 62.2378 50.764Z" fill="#959595"/>
<path d="M12.9962 52.8497C11.0861 52.1981 10.1311 55.4561 12.0412 56.1077C14.588 56.7593 16.8165 59.3657 16.8165 62.2979C16.8165 64.2527 20 64.2527 20 62.2979C19.6816 57.7367 17.1348 54.1529 12.9962 52.8497Z" fill="#8BB9BB"/>
<path d="M94.7198 52.0859C91.0489 54.3223 89.5193 58.4757 90.1311 62.629C90.437 64.5459 93.4962 63.9069 93.1903 61.6705C92.8843 58.7952 94.108 56.2393 96.5553 54.6418C97.779 53.6834 96.2494 50.808 94.7198 52.0859Z" fill="#8BB9BB"/>
</svg>
