<svg width="99" height="144" viewBox="0 0 99 144" fill="none" xmlns="http://www.w3.org/2000/svg">
<path d="M39.4348 67.5441L32.1184 134.038C29.7666 155.852 63.2134 162.423 65.5652 140.346C67.9169 118.269 70.5299 95.9288 72.8816 73.8518C75.2334 52.0377 41.7866 45.73 39.4348 67.5441Z" fill="#D1EBEC"/>
<path d="M49.8633 125.165C56.141 131.264 61.634 132.059 66.6038 129.938C68.6964 110.583 70.789 91.493 72.8815 72.138C75.2357 50.1317 41.7546 43.5033 39.4004 65.7748L36 98.1214C38.0926 108.197 42.5393 118.007 49.8633 125.165Z" fill="#BCD8D9"/>
<path d="M57.5335 109.859C34.7078 109.859 23.0295 115.153 20.3754 60.8877C20.1099 53.7406 19.8445 47.3876 20.1099 41.8287C20.9062 5.56357 32.319 3.97532 65.4959 5.29886C76.9088 5.82828 80.3592 15.6225 81.1554 42.8875C81.1554 46.8582 81.4208 51.0935 81.4208 55.5936C82.7479 92.6528 84.075 109.859 57.5335 109.859Z" fill="#D1EBEC"/>
<path d="M21 41.8811C0.494865 35.7637 -13.6191 63.159 21 73V41.8811Z" fill="#D1EBEC"/>
<path d="M78 42.8811C98.5051 36.7637 112.619 64.159 78 74V42.8811Z" fill="#D1EBEC"/>
<path d="M8.67657 50.0734C7.07233 49.5155 6.2702 52.3048 7.87445 52.8626C13.4893 54.5362 16.9652 60.3936 16.1631 66.251C15.8957 67.9245 18.5694 68.7613 18.8368 67.0878C19.9063 59.5568 15.6283 52.3048 8.67657 50.0734Z" fill="#BCD8D9"/>
<path d="M87.9126 51.1507C83.0383 53.646 80.3304 58.6368 81.1428 63.8771C81.4135 65.3743 84.1215 65.3743 83.8507 63.8771C83.3091 59.6349 85.2047 55.3928 89.2666 53.3965C90.8913 52.6479 89.5373 50.4021 87.9126 51.1507Z" fill="#BCD8D9"/>
<path d="M65.0562 30.3345C50.7108 26.3635 55.7583 58.9256 56.2896 65.8087C56.5552 67.3971 58.9461 67.3971 58.6805 65.8087C58.1492 61.3082 54.6956 30.3345 64.2592 32.9818C66.1188 33.2465 66.6501 30.8639 65.0562 30.3345Z" fill="#2D264F"/>
<path d="M75.8171 53C74.7419 54.0527 73.3978 55.1054 71.7848 55.8949C65.0643 59.0531 58.3438 54.0527 51.6233 55.8949C44.3652 58.0004 39.2576 61.1585 31.7306 56.9476C30.6554 56.4213 29.8489 55.6318 28.7736 54.8422C22.3219 62.4743 21.7843 74.8436 22.0531 84.8443C26.8919 113.531 38.4511 109.846 57.2685 109.846C77.9677 109.846 82 99.8454 82 78.5281C81.7312 69.8433 80.1183 60.6321 75.8171 53Z" fill="#787575"/>
<path d="M37.6718 63.6814C31.3034 56.6669 25.4888 49.1128 19.6742 41.5587C18.5667 40.2098 16.3516 41.5587 17.1823 42.9077C22.9969 50.7315 29.0884 58.2856 35.4567 65.5699C36.8412 66.9188 38.7794 64.7605 37.6718 63.6814Z" fill="#787575"/>
<path d="M80.4918 41.5531C76.8355 47.1616 72.918 52.503 69.2617 58.1115C68.2171 59.4469 70.5675 60.7822 71.6122 59.4469C75.2685 53.8384 79.186 48.497 82.8423 42.8885C83.6258 41.5531 81.2753 40.2178 80.4918 41.5531Z" fill="#787575"/>
<path d="M37.9818 38.5388C38.2411 37.0664 35.6482 36.3302 35.3889 37.8026C34.8704 40.9929 34.8704 43.9378 35.3889 47.1281C35.6482 48.6006 38.2411 48.1098 37.9818 46.3919C37.7225 43.9378 37.7225 41.2383 37.9818 38.5388Z" fill="#2D264F"/>
<path d="M68.9818 38.5388C69.2411 37.0664 66.6482 36.3302 66.3889 37.8026C65.8704 40.9929 65.8704 43.9378 66.3889 47.1281C66.6482 48.6006 69.2411 48.1098 68.9818 46.3919C68.7225 43.9378 68.7225 41.2383 68.9818 38.5388Z" fill="#2D264F"/>
<path d="M39.5882 31H34.2101C32.5966 31 32.5966 34 34.2101 34H39.5882C41.4706 34 41.4706 31 39.5882 31Z" fill="#2D264F"/>
<path d="M82.9391 7.7678C83.7335 1.41011 76.5836 -0.444217 71.5522 0.0855905C68.904 0.350494 66.2559 1.14521 63.8726 2.20482V2.20482C30.771 2.99953 18.3248 -0.974026 20.1785 41.1457C28.9173 47.7683 26.2692 24.4567 28.9173 19.4236C30.5062 16.2447 33.9488 14.3904 37.921 13.3308C38.1858 14.1255 38.7154 14.3904 39.5098 14.6553C40.3043 14.9202 40.8339 15.45 41.6283 15.7149C44.0117 16.7745 46.6598 17.3043 49.3079 17.8341C54.3393 18.8938 59.6356 19.6885 64.9318 19.4236C67.0503 19.1587 69.6985 18.8938 72.3466 18.099C72.6114 19.1587 72.8762 20.2183 72.8762 21.8077C72.8762 26.576 73.141 30.5495 74.2003 35.0529C75.5243 40.351 78.1725 42.7351 81.3502 43C81.0854 30.5495 81.615 20.7481 80.291 14.1255C81.3502 11.7414 82.4095 9.88703 82.9391 7.7678Z" fill="#2D264F"/>
</svg>
