<svg width="165" height="154" viewBox="0 0 165 154" fill="none" xmlns="http://www.w3.org/2000/svg">
<path d="M100.167 15.5964C65.4343 15.9029 61.0537 27.1267 68.8566 65.3523C77.1828 106.04 133.944 107.806 132.28 92.3986C128.046 52.7712 129.09 15.2384 100.167 15.5964Z" fill="#E4E9FF"/>
<path d="M85.4798 79.6549L81.527 143.445C80.1209 164.292 112.295 169.195 113.635 148.036C114.975 126.877 116.248 105.405 117.588 84.2459C119.06 63.7107 86.8858 58.8077 85.4798 79.6549Z" fill="#7A86C1"/>
<path d="M71.0115 115.782L69.7035 153.179C68.5385 185.028 112.7 193.699 113.763 161.37C114.294 145.206 114.826 129.041 115.357 112.877C100.813 114.965 86.0655 116.093 71.0115 115.782Z" fill="#7A86C1"/>
<path d="M92.7961 68.8629C94.5032 86.0777 99.0779 103.008 110.527 115.548C112.481 117.086 113.207 118.075 115.406 119.235C115.793 113.603 117.053 107.732 117.651 102.111C118.28 96.1928 118.825 90.4988 119.199 84.4089C119.89 69.2887 102.208 62.6308 92.7961 68.8629Z" fill="#6D78AE"/>
<path d="M128.812 57.7036C130.118 68.4186 131.002 80.1932 132.195 91.902C132.735 97.3616 128.202 101.532 120.46 102.104C116.079 102.427 110.645 101.394 104.58 99.2945C97.9039 96.8339 85.5349 91.7973 80.1916 86.4669C74.4726 80.893 71.5236 73.1138 69.6168 64.1431C61.8393 26.0292 65.0031 15.0108 99.9159 14.7027C120.358 14.8839 125.853 33.1145 128.812 57.7036Z" fill="#7A86C1"/>
<path d="M79.9017 87.1243C92.5743 91.8661 97.001 50.1917 93.0093 32.9364C92.6805 31.3899 93.8361 29.2046 95.3205 28.5658C108.322 24.1857 105.109 25.8385 118.769 24.5515C114.598 18.6491 108.342 15.1298 99.6424 15.3624C64.7145 15.6744 60.3081 26.956 68.1505 65.376C70.0571 74.3459 74.5566 81.7948 79.9017 87.1243Z" fill="#F06057"/>
<path d="M116.784 40.5334C116.837 43.9589 116.82 47.0555 117.195 50.4123C117.292 52.4538 120.732 52.7536 120.565 50.3833C120.513 46.9579 120.53 43.8612 120.154 40.5044C120.057 38.4629 116.687 38.4919 116.784 40.5334Z" fill="#2D264F"/>
<path d="M120.767 32.6189C118.868 32.7605 117.691 33.2727 115.952 34.1661C114.266 35.3102 116.23 36.9882 117.969 36.0947C118.839 35.648 119.454 35.5172 120.377 35.3211C122.53 34.8635 122.666 32.4772 120.767 32.6189Z" fill="#2D264F"/>
<path d="M138.085 66.3676C134.685 59.6517 130.97 53.0027 127.57 46.2868C126.546 44.5639 123.912 46.094 124.621 47.8838C127.89 53.9808 131.159 60.0778 134.428 66.1749C131.348 67.153 128.333 68.4405 125.699 69.9706C123.943 70.9907 125.479 73.5751 127.301 72.8644C130.564 71.2006 133.893 69.8462 137.287 68.8012C138.165 68.2911 138.597 67.2291 138.085 66.3676Z" fill="#2D264F"/>
<path d="M109.693 22.3261C107.842 19.8206 107.657 20.504 104.622 20.1828C100.259 19.8216 95.4627 20.5191 91.6898 22.9316C83.5788 28.1989 85.6095 37.7528 86.3665 45.9669C85.4858 46.4762 85.1825 48.1513 86.2597 48.5665C93.3007 52.2237 102.37 48.3633 108.327 42.2655C112.968 37.7356 113.973 28.5029 109.693 22.3261Z" fill="#F06057"/>
<path d="M125.371 53.7453C116.8 83.625 116.85 102.635 125.371 101.305C135.439 99.7351 148.192 80.2149 143.078 65.3155C137.898 50.1039 128.814 40.9423 125.371 53.7453Z" fill="#A9D9DB"/>
<path d="M73.5472 25.7942C76.162 18.37 57.8928 10.0095 48.5672 20.0547C41.4911 27.5313 28.851 14.0922 23.5243 27.1695C18.2584 40.5325 37.3288 55.2924 50.7396 40.7954C64.1504 26.2984 70.7256 33.561 73.5472 25.7942Z" fill="#F06057"/>
<path d="M124.687 85.378C112.049 83.5243 100.215 79.2295 89.7528 72.0487C88.1565 70.7666 86.4677 73.7199 88.064 75.0021C98.9083 82.4258 110.808 87.0309 123.764 88.8172C126.046 88.6564 126.719 85.5947 124.687 85.378Z" fill="#A9D9DB"/>
<path d="M137.093 56.7988C125.468 53.8745 110.519 49.9552 100.429 45.1179C99.6149 44.719 96.4547 46.1451 96.0058 46.7501C95.4582 47.4882 97.9513 47.2435 98.944 47.7302C109.782 53.0432 124.939 57.4779 137.184 60.2705C137.235 58.9901 137.287 57.7097 137.093 56.7988Z" fill="#A9D9DB"/>
<path d="M73.5319 35.9654C70.2448 37.308 72.3522 24.3037 69.2615 26.5704L56.8703 56.8926C53.2736 64.4182 49.8246 74.1661 41.8933 78.1057C31.2964 83.2557 20.5663 75.5558 11.9791 70.298C6.0253 66.7342 0.267962 64.0944 -6.40492 63.2591C-32.9655 60.5338 -51.9986 80.9993 -71.1959 97.6361C-52.3025 117.767 -39.0124 142.232 -6.7664 142.537C64.2836 143.211 48.8471 143.943 60.6911 141.72C72.5351 139.496 81.6777 130.821 86.3209 122.107C90.6533 113.459 91.8617 103.866 90.4534 94.1844C89.3237 87.3415 90.4468 80.4783 91.2469 73.5471C91.2302 71.9409 88.2738 70.1789 88.9441 68.7486C87.4381 61.6637 87.4858 54.2486 90.9682 47.7131C85.3739 42.785 79.6654 38.8471 73.5319 35.9654Z" fill="#F06057"/>
<path d="M100.692 48.5568C71.1211 34.8527 62.3961 69.7877 96.3849 74.4924L100.692 48.5568Z" fill="#7A86C1"/>
<path d="M84.8605 53.47C82.9633 53.1675 82.8041 56.7304 84.9936 56.9708C87.8394 57.4246 90.1673 59.7531 91.1055 62.7298C91.8284 64.6936 94.7512 64.0724 94.0283 62.1086C92.6594 57.1059 88.9472 54.013 84.8605 53.47Z" fill="#5F6A9E"/>
</svg>
