<svg width="113" height="154" viewBox="0 0 113 154" fill="none" xmlns="http://www.w3.org/2000/svg">
<path d="M45.2725 80.9343L33.2571 139.959C31.3221 149.592 30.8997 152.944 50.208 155.494C69.5163 158.043 72.6898 157.622 74.6997 147.933C78.7029 128.221 83.4148 106.148 87.418 86.4363C91.2931 67.2824 49.293 61.5523 45.2725 80.9343Z" fill="#A9D9DB"/>
<path d="M52.0452 72.0369C51.5738 92.7959 54.7166 113.398 64.9309 130.854C67.1309 134.628 69.9595 137.931 73.4166 140.447C74.3595 141.076 74.8655 141.583 75.8083 142.212C78.6369 126.958 82.6101 112.132 84.587 96.718C88.0442 76.4308 65.5595 65.1172 52.0452 72.0369Z" fill="#A1CED0"/>
<path d="M105.986 62.2205C105.986 76.5316 105.2 92.2581 105.043 108.142C104.886 119.779 83.2877 113.189 61.9162 102.967C53.2734 98.8779 43.7571 101.222 37.1571 93.2017C30.5571 85.0239 27.5714 74.3299 26.4714 61.906C21.7571 10.0085 27.7286 -3.6735 73.9286 1.04445C101.114 3.87521 105.829 29.1949 105.986 62.2205Z" fill="#A9D9DB"/>
<path d="M55.8571 75.1162C66.8571 100.121 67.6021 106.877 68.3878 121.503C68.3878 121.503 45.93 121.503 19.5996 106.106C-6.73074 90.7095 2.27929 70 2.27929 70C2.27929 70 18.7156 101.162 21.2012 43.5811C23.6867 -14 58.6857 24.6342 58.6857 24.6342L55.8571 75.1162Z" fill="#8F2E56"/>
<path d="M37.1571 93.2017C53 89 67.3286 55.3009 67.3286 31.5538C67.3286 20.5453 79.9 16.1419 98.1286 16.2991C93.4143 7.80684 85.8714 2.30256 74.0857 1.04444C27.7286 -3.83077 20.1857 10.6376 24.9 62.535C26 74.959 30.7143 85.1812 37.1571 93.2017Z" fill="#8F2E56"/>
<path d="M101.388 31.0292C99.0305 30.8719 96.9876 31.3437 94.9447 32.6018C92.5876 34.0172 95.1019 37.3198 97.459 36.0617C98.4019 35.4326 99.5019 35.2753 100.759 35.2753C103.43 35.4326 104.059 31.1865 101.388 31.0292Z" fill="#8F2E56"/>
<path d="M71.8857 41.7761C46.4286 34.2274 28.9857 68.8256 72.3571 80.4633L71.8857 41.7761Z" fill="#A9D9DB"/>
<path d="M58.2143 59.7043C58.0571 57.0308 60.4143 54.6718 62.6143 53.0991C60.8857 51.6838 58.6857 50.7402 56.1714 50.5829C54.9143 50.5829 55.2286 48.5385 56.4857 48.5385C59.6286 48.6957 62.4571 50.1111 64.6571 52.1555C64.9714 52.3128 65.1286 52.4701 65.2857 52.7846C66.8571 54.5145 67.9571 56.7162 68.4286 59.2325C68.7429 60.4906 66.7 60.8051 66.3857 59.3897C66.0714 57.5026 65.2857 55.7726 64.0286 54.5145C62.1429 55.6154 59.9429 57.6598 60.2571 60.0188C60.4143 62.2205 62.3 63.9504 64.3429 64.5795C65.6 65.0513 64.8143 66.9385 63.5571 66.4667C60.5714 65.5231 58.3714 62.8496 58.2143 59.7043Z" fill="#8BB9BB"/>
<path d="M56.2463 73.5284C56.2463 73.5284 66.7207 94.969 72.2163 105.888C72.8837 107.049 73.1936 108.397 71.0521 107.763C64.652 97.7886 59.7382 85.5554 55.1793 74.3889C54.5311 72.0736 56.2463 73.5284 56.2463 73.5284Z" fill="#555555"/>
<path d="M66.6805 40.7097C67.0189 41.9339 68.3979 45.7946 77.6693 53.6578C78.6122 54.4442 74.4588 53.0123 73.516 52.226C64.4017 44.52 64.2966 40.7097 64.2966 40.7097C64.2966 40.7097 65.561 40.7097 66.6805 40.7097Z" fill="#555555"/>
<path d="M97.9714 49.9538C98.6 47.1231 99.0714 44.135 99.7 41.3043C100.014 40.0462 102.057 40.2034 101.743 41.4615C101.114 44.2923 100.643 47.2803 100.014 50.1111C99.7 51.3692 97.6571 51.212 97.9714 49.9538Z" fill="#8F2E56"/>
<path d="M111.014 63.4786C111.014 64.5795 110.7 65.6803 110.386 66.7812C108.029 60.9624 105.829 55.3009 103.471 49.4821C103 48.2239 104.886 47.2803 105.357 48.5385C107.243 53.4137 109.286 58.2889 111.171 63.0068C111.171 63.1641 111.014 63.3214 111.014 63.4786Z" fill="#8F2E56"/>
<path d="M73.3 51.841C83.3571 57.0308 110.543 60.3333 110.7 60.9624C115.1 72.6 112.271 88.3265 105.2 111.444C102.686 119.937 86.3241 113.126 71.0521 107.763C68.0941 86.3909 72.8286 73.7009 73.3 51.841Z" fill="#555555"/>
</svg>
