<svg width="58" height="66" viewBox="0 0 58 66" fill="none" xmlns="http://www.w3.org/2000/svg">
<path d="M29.9728 48.3214C18.0174 50.8122 21.5535 37.3619 13.8077 37.3619C6.06188 37.3619 -4.37812 36.3656 2.18897 29.3914C8.75607 22.4171 2.86252 25.9043 3.1993 17.6016C3.53607 9.29897 18.1857 15.9411 17.849 9.63107C17.5122 3.32106 24.9212 2.32474 33.1722 3.48711C41.5916 4.48343 48.4954 -4.15132 53.0419 4.48343C57.5883 13.1182 60.7877 13.1182 52.3683 17.6016C43.949 22.085 29.9728 48.3214 29.9728 48.3214Z" fill="#1C3557"/>
<path d="M30.4986 36.7483L23.7631 64.1406C21.5741 73.0958 39.0864 76.9149 41.2754 67.9598C43.4644 58.8729 45.8218 49.6543 48.0109 40.5674C50.3683 31.4805 32.856 27.6614 30.4986 36.7483Z" fill="#FF6B57"/>
<path d="M33.3407 32.3803C33.0039 41.8453 34.5194 51.4764 39.9077 59.1148C40.9181 60.1112 41.9284 60.9414 43.1071 61.6056C44.2858 55.2956 45.6329 48.9856 46.8116 42.6756C48.3271 34.539 39.0658 29.7235 33.3407 32.3803Z" fill="#1C3557"/>
<path d="M54.5574 29.0593C54.5574 35.0372 54.0522 41.5132 54.0522 48.1553C53.8839 52.9709 44.2858 53.6351 35.3613 49.3177C31.8251 47.6572 28.289 45.0003 25.5948 41.6793C22.9006 38.3582 23.2374 35.0372 22.9006 29.8895C21.2168 8.30264 22.0587 1.32842 41.5916 3.48711C52.7051 4.81553 54.5574 15.2769 54.5574 29.0593Z" fill="#FF6B57"/>
<path d="M24.1413 42.1531C26.0205 46.3324 26.7039 47.0011 27.2164 43.6577C28.2414 37.1379 27.8997 19.4175 27.0455 12.8978C26.8747 11.8948 27.8997 10.8917 28.7539 10.7245C36.4415 9.21998 44.1291 9.55433 51.8168 9.7215C49.7667 6.21086 46.6917 3.87044 41.5666 3.20174C21.7496 1.02849 18.5037 7.04673 20.2121 28.6121C20.7246 33.7944 21.4079 38.8096 24.1413 42.1531Z" fill="#1C3557"/>
<path d="M39.0658 19.0961C39.0658 20.5906 39.0658 22.085 39.0658 23.5795C39.0658 24.4098 40.4129 24.5758 40.4129 23.7456C40.4129 22.2511 40.4129 20.7566 40.4129 19.2621C40.4129 18.2658 38.8974 18.0998 39.0658 19.0961Z" fill="#2D264F"/>
<path d="M51.3581 19.7603C51.3581 21.2548 51.3581 22.7492 51.3581 24.2437C51.3581 25.074 52.7052 25.24 52.7052 24.4098C52.7052 22.9153 52.7052 21.4208 52.7052 19.9263C52.8736 18.93 51.3581 18.764 51.3581 19.7603Z" fill="#2D264F"/>
<path d="M50.5161 16.6053C51.1897 17.1035 52.0316 16.1071 51.3581 15.609C49.6742 14.1145 47.6535 15.2769 47.1484 17.4356C46.8116 19.4282 47.6535 21.7529 48.1587 23.7456L50.1793 33.3766C50.3477 34.2069 51.6948 33.8748 51.3581 33.0445C50.8529 30.5537 50.3477 27.8969 49.6742 25.4061C49.3374 24.0777 49.169 22.9153 48.8323 21.5869C48.6639 21.0887 48.6639 20.7566 48.4955 20.2585C47.9903 18.5979 48.6639 16.1071 50.5161 16.6053Z" fill="#EF1B3A"/>
<path d="M43.6122 29.5574C39.5709 29.3914 36.7084 28.0629 34.0142 25.074C33.6774 25.24 33.1722 25.4061 32.8355 25.7382C32.6671 25.7382 32.3303 37.3619 32.4987 43.1738C30.8148 40.3509 29.2993 37.1959 27.7838 34.539C27.2787 33.7087 25.7632 33.3766 26.1 34.2069C28.6258 38.6903 31.4884 45.3325 35.1929 49.3177C44.1174 53.6351 53.8838 52.9709 53.8838 48.1554C54.0522 41.5132 54.389 35.0372 54.389 29.0593C50.8529 29.5574 47.3167 29.7235 43.6122 29.5574Z" fill="#8CCDD1"/>
<path d="M29.2993 19.5942C18.5226 16.4392 11.1135 30.5537 29.2993 35.7014V19.5942Z" fill="#FF6B57"/>
<path d="M28.7942 27.8969C27.2787 26.2364 25.4265 24.7419 23.5742 23.5795C22.7323 23.0814 22.0587 24.2437 22.9006 24.7419C24.7529 25.9043 26.4368 27.2327 27.7839 28.7272C28.289 29.5574 29.2994 28.5611 28.7942 27.8969Z" fill="#EF1B3A"/>
<path d="M27.9523 30.5537C26.4368 30.3877 25.7633 28.7272 26.7736 27.5648C27.4471 26.9006 26.4368 25.9043 25.7633 26.5685C23.911 28.5611 25.2581 31.7161 27.9523 31.8822C28.7942 32.0482 28.7942 30.5537 27.9523 30.5537Z" fill="#EF1B3A"/>
<path d="M35.698 28.5611C34.8561 26.2364 33.8458 24.0777 32.3303 22.085C31.1516 20.4245 29.6361 18.5979 27.4471 18.0998C26.6051 17.9337 26.2684 19.2621 27.1103 19.4282C29.131 19.9264 30.8148 22.2511 31.8251 23.9116C32.8355 25.4061 33.6774 27.2327 34.351 28.8932C34.5193 29.7235 35.8664 29.3914 35.698 28.5611Z" fill="#8CCDD1"/>
<path d="M38.8974 6.47606C38.5607 6.14396 37.8871 6.14396 37.7187 6.64212C37.5503 6.14396 36.7084 6.14396 36.3716 6.64212C34.351 11.6237 26.7736 4.31738 25.2581 16.7713C25.2581 17.4356 24.7529 17.9337 25.4265 18.0998C29.131 18.764 32.162 16.9374 34.6878 14.4466C36.7084 12.62 38.8974 10.2953 38.8974 7.47238C38.8974 7.30633 39.0658 7.30633 39.0658 7.14028C39.4026 6.97422 39.0658 6.64212 38.8974 6.47606Z" fill="#1C3557"/>
<path d="M25.4265 38.1922C29.9729 44.3361 31.32 48.1554 26.7736 48.1554C22.2271 48.1554 25.4265 38.1922 25.4265 38.1922Z" fill="#2D264F"/>
<path d="M41.9284 13.7824C40.918 13.9484 39.9077 13.9484 38.8974 14.1145C37.8871 14.2806 37.8871 15.775 38.8974 15.609C39.9077 15.4429 40.918 15.4429 41.9284 15.2769C42.9387 15.2769 42.9387 13.7824 41.9284 13.7824Z" fill="#EF1B3A"/>
</svg>
